<svg version="1.1" id="Pick_3_-_New_Ball" xmlns="http://www.w3.org/2000/svg" xlink="http://www.w3.org/1999/xlink" x="0px" y="0px" viewBox="5.6 13 547.8 326.1" style="enable-background:new 0 0 558 352;" space="preserve" enable-background="5.6 13 547.8 326.1" >
<style type="text/css">
	.st0{fill:#00B159;}
	.st1{fill:#FFF100;}
	.st2{fill:none;}
	.st3{fill:#FFFFFF;}
	.st4{fill:#EE3E42;}
	.st5{fill:#008643;}
	.st6{fill:url(#SVGID_1_);}
	.st7{fill:url(#SVGID_2_);}
</style>
<g>
	<g>
		<path class="st0" d="M527.7,183.2c-6.4-7.5-14.3-14-23.1-19.3c18.2-15.1,28.8-37.1,28.8-61.4c0-27.4-13.6-51.5-38.4-68
			C474.1,20.6,447,13,418.5,13c-31.4,0-61.4,9.1-84.5,25.6l-0.2,0.1c-26.8,19.7-37.3,42.5-43.5,56.2l-6.9,15.1l41.4,20.5
			c-17,0-42,0-42,0c0-2.2,0-15.9,0-15.9h-57.2v19.5c-5.9-3.5-13.7-6-23.9-6c-8.7,0-17.6,2.3-25.4,6.8c0.1-0.8,0.1-1.6,0.1-2.4
			c0-12.8-11.3-26.5-29.5-26.5c-8,0-14.6,2.6-19.5,6.6c-0.9-0.9-1.7-1.8-2.6-2.5C112.1,98.8,97,98.8,88.9,98.8H41H23.8v119h65.3
			c0,0,0-24.4,0-31.6c9.7-0.5,18-1.9,26.3-6c1-0.5,1.9-1,2.8-1.5v40.7h57.2v-4.8c7,4.3,15.5,6.9,25.3,6.9c9.4,0,17.6-2.2,24.7-6.4
			v4.4c0,0,20.8,0,23,0c0,0,0,0.6,0,0.6s0.5-0.6,0.5-0.6c3.9,0,34.4,0,59.3,0l-16.2,6.7h15.2l-8.2,23.4h13.6l8.2-23.4h20.6
			l-8.2,23.4h19.3l-5.8,16.3h-34.2H307h-18.8c13.4,30.4,43.4,73.2,125.7,73.2c39.2,0,72.6-9.7,96.5-28.1
			c23.9-18.4,37.1-44.6,37.1-73.8C547.5,217,540.6,198.3,527.7,183.2z M393,249.7c-25.4,0-33.8-14.9-40.1-30.2l-6.6-15.8l-13.2,5.5
			L319,191.6c-2-2.5-2.1-2.6-3.5-5.1c0,0-4.7-8.3-8.7-15.5c3.8-4.6,20.7-25.2,28.9-35.1l15.2,7.5l9.2-13.9
			c9.2-13.9,17.6-24.5,34-24.5c12.1,0,19.4,6.8,19.4,13.3c0,1.1-0.5,10.6-16.1,15.1c-7.2,2-13.8,2-19.6,2h-17.1v77.3h17.1
			c12.3,0,29.2,0,37.4,8.7l0.2,0.2l0.2,0.2c3,3,4.1,7.1,4.1,10C419.6,236.8,414.8,249.7,393,249.7z"/>
		<polygon class="st0" points="280.1,244.9 285.8,228.7 275.9,232.8 		"/>
	</g>
	<g>
		<path class="st1" d="M487.9,165c23.3-13,36.9-35.8,36.9-62.6c0-24.4-12.3-46-34.6-60.8c-19.2-12.7-45.3-20-71.8-20
			c-29.6,0-57.9,8.5-79.6,24c-25.1,18.4-35,40-40.9,52.9l-3.5,7.6l53.4,26.4l5-7.6c8-12,18.8-28.4,41.1-28.4c18.2,0,28,11.3,28,21.9
			c0,7.8-5.8,18.6-22.3,23.3c-8.3,2.3-15.9,2.3-22,2.3h-8.6v60.1h8.6c13.9,0,32.8,0,43.6,11.4l0.1,0.1l0.1,0.1
			c4.1,4.1,6.6,10.1,6.6,16c0,10.6-9.4,26.4-35.2,26.4c-33.3,0-42.9-23.1-48-35.4l-3.3-7.9l-35.6,14.7l-7,20h13.6l8.2-23.4h20.6
			l-8.2,23.4h19.3l-5.8,16.3h-34.2H307h-9.4c13.4,28.7,41.7,64.6,116.4,64.6c37.3,0,68.9-9.1,91.3-26.4
			c21.8-16.7,33.7-40.6,33.7-67.1C538.9,205,519.6,178.2,487.9,165z"/>
	</g>
	<g>
		<path class="st2" d="M299.1,249.6h0.9c-0.2-0.4-0.3-0.9-0.5-1.3L299.1,249.6z"/>
		<path class="st0" d="M350.9,249.6c-5.3-5.9-8.9-12.3-11.4-17.8l-6.2,17.8H350.9z"/>
		<path class="st0" d="M300,249.6h12.6l5.5-15.7l-15.9,6.6l-2.7,7.8C299.7,248.7,299.9,249.2,300,249.6z"/>
		<path class="st0" d="M474.8,169.4c-4.2-1.1-8.4-1.9-12.6-2.7c4.9-1.9,9.9-3.4,14.5-5.7c26.6-11.4,39.6-34.6,39.6-58.6
			c0-46.8-49.5-72.3-97.8-72.3c-29.7,0-55.9,9.1-74.6,22.4c-22.8,16.7-32,36.1-38.1,49.5l39.2,19.4c8.4-12.6,21.3-33.5,49.1-33.5
			c22.5,0,36.5,14.8,36.5,30.4c0,10.7-7.2,25.5-28.5,31.6c-9.5,2.7-17.9,2.7-24.4,2.7v43c14.8,0,36.5,0,49.8,14.1
			c6.1,6.1,9.1,14.5,9.1,22.1c0,14.8-12.9,35-43.8,35c-19.7,0-32.4-7.1-40.9-15.9l-5.3,15h-34.2h-5.6
			c13.3,26.3,40.3,56.1,106.8,56.1c74.2,0,116.4-37.3,116.4-84.9C530.3,203.6,507.1,178.9,474.8,169.4z"/>
		<path class="st3" d="M352.6,249.6h-1.7c0.4,0.4,0.8,0.9,1.2,1.3L352.6,249.6z"/>
	</g>
	<g>
		<g>
			<path class="st4" d="M5.7,239.4l4.3,0l-0.5,9.1l5.8-9.2l3.7,0l-0.1,9.2l5.4-9.2l4.2,0L19,254.6l-3.8,0l0.1-9.2l-5.9,9.2l-3.8,0
				L5.7,239.4z"/>
			<path class="st4" d="M31.5,239.4l4.3,0l-4.8,15.1l-4.3,0L31.5,239.4z M33.1,234l4.5,0l-1.2,3.8l-4.5,0L33.1,234z"/>
			<path class="st4" d="M36.7,251.8c0-0.6,0.2-1.2,0.4-1.9l2.2-6.8l-1.8,0l1.2-3.7l1.8,0l1.2-3.8l4.3,0l-1.2,3.8l3.5,0l-1.2,3.7
				l-3.5,0l-2,6.3c-0.1,0.2-0.1,0.5-0.1,0.7c0,0.6,0.3,0.9,1.1,0.9c0.7,0,1.5-0.2,2.2-0.5l-1.2,3.6c-0.9,0.4-2,0.6-3.1,0.6
				C37.8,254.8,36.6,253.5,36.7,251.8z"/>
			<path class="st4" d="M53.1,234l4.3,0l-2.2,7c1.1-1,2.5-1.9,4.2-1.9c2.7,0,4.4,1.7,4.2,4.4c0,0.8-0.4,1.9-0.7,2.9l-2.6,8.1l-4.3,0
				l2.7-8.3c0.1-0.4,0.2-1,0.3-1.3c0.1-1.2-0.7-1.9-2-1.9c-1.7,0-2.8,1.2-3.4,3l-2.7,8.5l-4.3,0L53.1,234z"/>
		</g>
		<g>
			<g>
				<path class="st1" d="M312.3,197c-2.1-2.7-2.5-3.1-4.2-6.2c0,0-7.4-13.1-11.7-20.6c4.7-5.7,25.6-31,25.6-31h-43.1
					c0,0-4.3,5.5-4.7,6.1c0-6.1,0-22,0-22h-8.6h-31.5V155c-3.5-5.6-11.6-18.3-32.4-18.3c-13.5,0-27.6,6.7-34.7,19.5V139h-0.5
					c0.9-2.1,1.4-4.3,1.4-6.4c0-8.6-8-18-21-18c-10.3,0-17.4,5.9-20,12.6c-2.2-4.8-5.1-8.3-7.8-10.7c-10.2-9.3-22.2-9.3-30.2-9.3H41
					h-8.6v101.9h48.2c0,0,0-22.3,0-31.3c12.4-0.1,22.2-0.9,31.1-5.4c7-3.4,12.1-8.6,15.1-15.2v53.5h40.1v-17.4
					c6.1,11.1,17.9,19.5,33.9,19.5c21.7,0,30.3-13.7,33.2-18.7v16.7h40.1c0,0,0-1.7,0-3.3c0.2,0.2,0.4,0.4,0.6,0.7l2.5,2.6h46.2
					L312.3,197z M213.9,179.5c-2.1,2.5-3.3,3.7-5.8,3.7c-4.7,0-5.1-6.6-5.1-8.6c0-1.9,0.4-7.9,5.4-7.9c2.3,0,3.1,0.7,5.8,3.6
					c0,0,2.4,2.6,3.9,4.1C216.9,175.8,213.9,179.5,213.9,179.5z M231.9,182.6c0,0-9.1-6.5-11-7.9c1.1-0.8,8.4-6.1,13.1-9.7v19.1
					L231.9,182.6z"/>
				<path d="M540.1,299.4h-2v-7.9h-2.9v-1.7h7.8v1.7h-2.9V299.4z"/>
				<path d="M553.4,299.4h-1.9v-8h0l-1.8,8h-2l-1.7-8h0v8h-1.9v-9.6h2.9l1.7,7.5h0l1.7-7.5h2.9V299.4z"/>
				<g>
					<path class="st0" d="M41,115.9h47.9c7.2,0,16.7,0,24.4,7.1c7.7,6.7,8,15.7,8,19.3c0,9.2-3.7,17.7-13.5,22.5
						c-9.1,4.6-19.7,4.6-35.8,4.6v31.3H41V115.9z M72,158.2c4.2,0,9.1-0.1,12.7-2.2c4.1-2.2,6-6.4,6-11.1c0-3.4-1.1-8-6.5-10.1
						c-2.6-1.1-5.8-1.3-12.2-1.4V158.2z"/>
					<path class="st0" d="M135.4,147.6h23v54.6h-23V147.6z M134.5,132.6c0-3.5,3.7-9.4,12.4-9.4c8.7,0,12.4,5.9,12.4,9.4
						s-3.7,9.4-12.4,9.4c-3.1,0-6.3-0.8-8.8-2.8C136.1,137.6,134.5,135.1,134.5,132.6z"/>
					<path class="st0" d="M226.9,189.5c-2.5,4.2-8.8,14.8-26.1,14.8c-19.2,0-30.1-14.8-30.1-29.1c0-19.4,15.4-30,30.9-30
						c16.2,0,22,9.1,25.3,14.4l-6.4,4.7c-2.8-3-5.9-6.3-12.1-6.3c-8.1,0-14,6.5-14,16.5c0,8.7,4.3,17.2,13.7,17.2
						c6.7,0,10.1-4,12.4-6.8L226.9,189.5z"/>
					<path class="st0" d="M242.6,131.8h23v38.4l17.5-22.5h20.8l-17.8,21.6l14.6,25.8c2,3.5,2.6,4.3,5,7.3H281
						c-2.3-2.4-3.4-3.6-5.8-7.4c-2.9-4.7-6-10.3-9.6-17v24.4h-23V131.8z"/>
				</g>
				<path class="st5" d="M427.4,293c32.9,0,59.6-27,59.6-60.3c0-33.3-26.7-60.3-59.6-60.3c-32.9,0-59.6,27-59.6,60.3
					C367.7,266,394.4,293,427.4,293z"/>
				<g>
					
						<radialGradient id="SVGID_1_" cx="850.8852" cy="-703.0842" r="253.1902" gradientTransform="matrix(0.3041 -0.1085 0.1106 0.3101 245.085 524.243)" gradientUnits="userSpaceOnUse">
						<stop offset="0.3348" style="stop-color:#FFFFFF"/>
						<stop offset="0.5968" style="stop-color:#FFFFFF"/>
						<stop offset="0.6574" style="stop-color:#FCFCFC"/>
						<stop offset="0.6998" style="stop-color:#F3F3F3"/>
						<stop offset="0.7366" style="stop-color:#E4E4E4"/>
						<stop offset="0.7702" style="stop-color:#CECECE"/>
						<stop offset="0.8017" style="stop-color:#B1B1B1"/>
						<stop offset="0.8312" style="stop-color:#8F8F8F"/>
						<stop offset="0.8593" style="stop-color:#676767"/>
						<stop offset="0.8598" style="stop-color:#666666"/>
					</radialGradient>
					<circle class="st6" cx="416.8" cy="225.9" r="59.9"/>
					
						<radialGradient id="SVGID_2_" cx="623.6541" cy="-421.909" r="92.6117" gradientTransform="matrix(0.4906 0 0 0.495 129.9366 425.669)" gradientUnits="userSpaceOnUse">
						<stop offset="1.866902e-02" style="stop-color:#D6DE23"/>
						<stop offset="0.3263" style="stop-color:#8BC53F"/>
						<stop offset="0.4254" style="stop-color:#86C03F"/>
						<stop offset="0.5471" style="stop-color:#77B33F"/>
						<stop offset="0.68" style="stop-color:#5E9C3F"/>
						<stop offset="0.7159" style="stop-color:#56953F"/>
						<stop offset="0.8595" style="stop-color:#2C7F3C"/>
						<stop offset="1" style="stop-color:#006838"/>
					</radialGradient>
					<path class="st7" d="M442.8,210.7c7.6,0,14.5,1.2,18.4-0.1c3.8-1.2,4.4-2.5,4-4c-5.5-18.2-21.9-29.4-29.6-26.3
						c-1.9,0.8-2.3,4.9-2.3,4.9s0,12.5,0.7,23.3c-1-8.6-4.9-30.1-19.7-30.1c-10.6,0-31.8,14-33.1,26.4c-1.2,10.6,7.5,10.1,11.5,9.8
						c4.3-0.3,16.4-2.1,31-3.4c-16.5,4.8-27.5,10.9-33.7,17.9c-7.7,8.6,4.6,32,17.4,33.2c12.8,1.2,22.7-15.1,23.8-15.7
						c-5.6,19.5-14.6,23.8-14.6,23.8c2.8,3.4,6.6,2.2,7.7,1.9c5.9-3.1,8.9-16.6,10.3-27.2c0.8,6.2,11.9,17,21.3,11
						c12.1-9.1,13.5-21.1,12.4-28.5C466.8,218.9,457.9,214.4,442.8,210.7z"/>
				</g>
			</g>
			<g>
				<path class="st3" d="M424,201l-0.5-2.1l2.6-3.1l0.7-1.8l2.1-1.6l1.5,0.5l10.7,6l0.1,2.5l-1.5,4.4l-0.5,0.2l-0.5-0.2l0.1-0.2
					l0.3-1.6l-0.1-0.5l-0.1,0.6l-0.5,1.3l-0.2,1.5l-0.5,1.3l-0.5,0.2l-0.4-0.4l-0.2,0.3l1.5,1.3l1.2,0.4l0.1-0.2l0.3,0l0.7,0.7
					l0.3-0.2l0-0.5l-0.4-1l0.7,0c0,0,2.4,3,0.3,10.1l-0.5-0.3l-0.2-0.6l-0.2,0l-0.3,5.3l-0.5,0.5l-0.6,3.2l-1.2,1.4l0,1l-0.7,0.2
					l-0.4-0.5l-0.6,1l0.6,0.6l-0.7,1l0.5,0.3v0.2l0.4,0.3l-0.1,0.6l-0.9,1l-1.6,1.1l-2.2,2.3l-1.9,2.9l0,0.7l-0.7,0.9l-1.8,1l-0.7,0
					l1-1.7l0-0.9l0.7-0.7l0-1.5l-2.1-1.1l-1.5-0.1l-1.5-1.7l-0.8,0l-0.5,0.2l-4.2-3.8l-0.1-1.1l0.5-1.5l-0.4-0.7l0.6-2.5l0.9-1
					l0.6-0.1l1.3-1.3l0.5,0.1l1.8-1l1.3-2.3l0.7-0.1l1.7-1.8l1.2-0.5l1.4-1l0-0.9l-1.2-1.3l-0.3-0.6l-1.1-1l-1.3-2.3l-0.1-0.5
					l-0.3,0.3l-0.8-0.1l-0.7-0.6l0-1.5l-0.2-0.9l-1.5-1l0.4-1.1l-0.5-2.2l1.2-0.4l0.1-1.2L424,201z"/>
				<polygon class="st3" points="441,219.4 440.7,219.9 440.7,223.9 439.9,226.6 440.2,226.5 441.4,224 441.5,219.9 				"/>
				<polygon class="st3" points="440.1,227.2 439.4,227.2 438.8,228.4 437.7,230.3 437.6,230.9 437.5,231.5 437.8,231.6 438,231.1 
					438.3,230.4 				"/>
			</g>
		</g>
		<g>
			<path class="st4" d="M75.9,230.6h32.3l-2.7,7.5H84.5l-1.8,5.3h19.1l-2.5,7.1H80.2l-3.9,11.1H65L75.9,230.6z"/>
			<path class="st4" d="M112.4,230.6h11.2l-10.9,31h-11.2L112.4,230.6z"/>
			<path class="st4" d="M129.4,230.6h15.2c6.8,0,11.2,1.1,13.9,3.2c2.1,1.6,3.1,3.8,3.1,6.3c0,5.2-3.9,9.2-12.1,11l6.2,10.4h-12.4
				l-5.4-9.4h-5l-3.3,9.4h-11.3L129.4,230.6z M141.8,245.4c5,0,8.3-1.6,8.3-4.3c0-0.8-0.3-1.5-1-2.1c-0.9-0.7-2.6-1.1-5-1.1h-6.1
				l-2.7,7.4H141.8z"/>
			<path class="st4" d="M169.5,230.6h32.4l-2.6,7.3h-21.2l-1.7,4.7h19.3l-2.4,6.8h-19.3l-1.7,4.9h21.6l-2.5,7.3h-32.7L169.5,230.6z"/>
			<path class="st4" d="M206.7,230.6h16.8c11,0,14.6,3.5,14.6,7.4c0,3.9-3.4,6.9-9.1,7.9c3.6,1,6.1,3,6.1,6.2
				c0,5.4-5.8,9.4-18.4,9.4h-21L206.7,230.6z M217.7,254.6c3.9,0,6.2-1.3,6.2-3.3c0-1.6-1.7-2.4-5-2.4h-7.7l-2,5.7H217.7z
				 M220.9,242.9c4,0,6.1-1.2,6.1-3.1c0-1.4-1.4-2.3-4.9-2.3h-7l-1.8,5.4H220.9z"/>
			<path class="st4" d="M260.2,230.3h11l6.3,31.2h-11.8l-1-5.5h-15.6l-4.9,5.5h-12.2L260.2,230.3z M263.8,249.3l-1.4-8.9l-7.6,8.9
				H263.8z"/>
			<path class="st4" d="M289.8,230.6h11.3l-8.2,23.4h19.3l-2.7,7.5H279L289.8,230.6z"/>
			<path class="st4" d="M324,230.6h11.3l-8.2,23.4h19.3l-2.7,7.5h-30.5L324,230.6z"/>
		</g>
	</g>
</g>
</svg>
