<svg xmlns="http://www.w3.org/2000/svg" viewBox="0 0 512 512">
  <defs>
    <linearGradient id="bg" x1="72" y1="48" x2="440" y2="464" gradientUnits="userSpaceOnUse">
      <stop offset="0" stop-color="#17345C"/>
      <stop offset="0.46" stop-color="#118263"/>
      <stop offset="1" stop-color="#0F2019"/>
    </linearGradient>
    <linearGradient id="accent" x1="134" y1="129" x2="371" y2="383" gradientUnits="userSpaceOnUse">
      <stop offset="0" stop-color="#F8C15A"/>
      <stop offset="1" stop-color="#E86F2E"/>
    </linearGradient>
  </defs>
  <rect width="512" height="512" rx="92" fill="url(#bg)"/>
  <rect x="80" y="80" width="352" height="352" rx="68" fill="none" stroke="#FFF8E8" stroke-opacity="0.14" stroke-width="4"/>
  <path d="M138 142h54v159h84v48H138V142Z" fill="#FFF8E8"/>
  <path d="M236 142h50l91 120V142h52v207h-46L288 223v126h-52V142Z" fill="url(#accent)"/>
  <path d="M143 376h226c9 0 16.5 7.5 16.5 16.5S378 409 369 409H143c-9 0 -16.5 -7.5 -16.5 -16.5S134 376 143 376Z" fill="#FFF8E8" opacity="0.9"/>
</svg>
