<svg viewBox="0 0 113.11 20.4" xmlns="http://www.w3.org/2000/svg"><path d="m9.36 10.16h-.55v1.75h.55c.34 0 .59-.08.77-.23s.27-.36.27-.64-.09-.49-.28-.65c-.18-.16-.44-.23-.77-.23z" fill="#2b3f63"/><path d="m57.76 0h-56.23c-.33 0-.59.3-.59.66v.42c0 .36.27.66.59.66h56.23c.33 0 .59-.3.59-.66v-.42c0-.36-.27-.66-.59-.66" fill="#2b3f63"/><g fill="#0077a6"><path d="m112.51 0h-52.25c-.33 0-.59.3-.59.66v.42c0 .36.27.66.59.66h52.25c.33 0 .59-.3.59-.66v-.42c0-.36-.27-.66-.59-.66"/><path d="m77.19 20.32 5.8-16.28h6.52l5.69 16.28h-6.29l-.52-2.05h-4.41l-.5 2.05h-6.28zm7.76-5.92h2.44l-.5-1.85c-.24-.93-.41-1.65-.5-2.16s-.14-.98-.17-1.42h-.1c-.02.44-.08.92-.17 1.42s-.26 1.22-.5 2.16z"/><path d="m95.51 20.32 7.28-11.43h-5.69v-4.85h15.01l-7.08 11.26h6.28v5.01h-15.8z"/><path d="m67.85 4.04c-4.52 0-8.18 3.66-8.18 8.18s3.66 8.18 8.18 8.18 8.18-3.66 8.18-8.18-3.66-8.18-8.18-8.18zm5.22 12.38v.27h-10.49c-.21-.09-.28-.24-.28-.47 0-.67 0-1.35 0-2.02 0-.24.09-.39.31-.48.08-.03.16-.07.23-.12.18-.12.27-.29.28-.5 0-.15 0-.3 0-.45 0-.27.15-.46.39-.56.16-.07.32-.14.47-.22.13-.07.19-.19.19-.35 0-1.03 0-2.05 0-3.08 0-.29.14-.43.42-.43h.86c.1 0 .17-.03.21-.12.06-.13.13-.25.2-.37.08-.15.2-.22.36-.22h.6c.16 0 .28.07.35.22.16.34.31.67.46 1.01.1.23.15.48.15.74v.56c.15-.2.34-.18.53-.17h.52c.17 0 .3.08.38.23s.16.3.24.45c.05.09.12.13.22.13h.55c.31 0 .47.15.47.46v.91c0 .16.05.28.18.36.15.09.31.17.47.25.1.05.22.09.31.15.16.11.23.28.24.48v.23c.01.25.12.45.34.58.14.08.29.15.45.2.19.06.32.16.39.35z"/></g><path d="m49.13 4.17h-41.65c-4.11 0-7.48 3.59-7.48 7.98s3.37 7.98 7.48 7.98h41.65c4.11 0 7.48-3.59 7.48-7.98s-3.37-7.98-7.48-7.98zm-36.28 9.62c-.62.57-1.6.86-2.95.86h-1.11v3.1h-3.55v-10.51h4.23c1.49 0 2.58.31 3.27.92s1.03 1.59 1.03 2.92c0 1.24-.31 2.15-.93 2.72zm5.82 3.96h-3.6v-10.51h3.6v10.52zm9.08-.22c-.39.17-.77.29-1.16.38-.39.08-.77.13-1.16.13-.48 0-.94-.06-1.39-.17-.44-.11-.85-.28-1.21-.49-.87-.54-1.53-1.21-1.97-2.03-.45-.82-.67-1.76-.67-2.82 0-.79.13-1.51.38-2.18s.62-1.26 1.11-1.77c.49-.52 1.06-.91 1.7-1.18s1.34-.4 2.09-.4c.4 0 .79.04 1.18.13s.77.22 1.13.4v3.89c-.32-.33-.65-.58-.99-.74s-.69-.24-1.06-.24c-.58 0-1.04.19-1.4.57-.35.38-.53.89-.53 1.52s.17 1.11.51 1.48.79.55 1.35.55c.34 0 .69-.08 1.04-.23.35-.16.74-.4 1.16-.74l-.11 3.96zm7.46.22-2.39-4.4v4.4h-3.47v-10.51h3.47v4.48l2.25-4.48h4.01l-2.98 5.18 3.39 5.34h-4.29zm11.9.7c-3.17 0-5.74-2.74-5.74-6.13s2.57-6.13 5.74-6.13 5.74 2.74 5.74 6.13-2.57 6.13-5.74 6.13z" fill="#2b3f63"/><path d="m49.09 12.01c.39-.15.68-.36.87-.65s.29-.65.29-1.09c0-.72-.28-1.3-.83-1.75-.56-.45-1.29-.67-2.2-.67-1.03 0-1.81.24-2.34.73-.54.49-.81 1.2-.83 2.15h2.67c0-.2.04-.35.11-.45s.18-.16.32-.16c.13 0 .24.05.33.14s.13.22.13.37c0 .2-.06.35-.19.45s-.31.15-.56.15h-.12v1.75s.05 0 .08 0h.13c.25 0 .45.06.59.19s.2.31.2.55c0 .21-.06.38-.17.5-.12.13-.27.19-.46.19s-.34-.07-.44-.22-.16-.37-.17-.66h-2.78v.02c0 1.02.31 1.82.93 2.4s1.48.87 2.58.87c1.02 0 1.84-.25 2.44-.75s.91-1.18.91-2.02c0-.54-.12-.99-.37-1.33s-.61-.57-1.09-.69z" fill="#2b3f63"/><path d="m57.76 0h-56.23c-.33 0-.59.3-.59.66v.42c0 .36.27.66.59.66h56.23c.33 0 .59-.3.59-.66v-.42c0-.36-.27-.66-.59-.66" fill="#2b3f63"/><path d="m112.51 0h-52.25c-.33 0-.59.3-.59.66v.42c0 .36.27.66.59.66h52.25c.33 0 .59-.3.59-.66v-.42c0-.36-.27-.66-.59-.66" fill="#0077a6"/><path d="m77.19 20.32 5.8-16.28h6.52l5.69 16.28h-6.29l-.52-2.05h-4.41l-.5 2.05h-6.28zm7.76-5.92h2.44l-.5-1.85c-.24-.93-.41-1.65-.5-2.16s-.14-.98-.17-1.42h-.1c-.02.44-.08.92-.17 1.42s-.26 1.22-.5 2.16z" fill="#0077a6"/><path d="m67.85 4.04c-4.52 0-8.18 3.66-8.18 8.18s3.66 8.18 8.18 8.18 8.18-3.66 8.18-8.18-3.66-8.18-8.18-8.18zm5.22 12.38v.27h-10.49c-.21-.09-.28-.24-.28-.47 0-.67 0-1.35 0-2.02 0-.24.09-.39.31-.48.08-.03.16-.07.23-.12.18-.12.27-.29.28-.5 0-.15 0-.3 0-.45 0-.27.15-.46.39-.56.16-.07.32-.14.47-.22.13-.07.19-.19.19-.35 0-1.03 0-2.05 0-3.08 0-.29.14-.43.42-.43h.86c.1 0 .17-.03.21-.12.06-.13.13-.25.2-.37.08-.15.2-.22.36-.22h.6c.16 0 .28.07.35.22.16.34.31.67.46 1.01.1.23.15.48.15.74v.56c.15-.2.34-.18.53-.17h.52c.17 0 .3.08.38.23s.16.3.24.45c.05.09.12.13.22.13h.55c.31 0 .47.15.47.46v.91c0 .16.05.28.18.36.15.09.31.17.47.25.1.05.22.09.31.15.16.11.23.28.24.48v.23c.01.25.12.45.34.58.14.08.29.15.45.2.19.06.32.16.39.35z" fill="#0077a6"/><path d="m49.13 4.17h-41.65c-4.11 0-7.48 3.59-7.48 7.98s3.37 7.98 7.48 7.98h41.65c4.11 0 7.48-3.59 7.48-7.98s-3.37-7.98-7.48-7.98zm-36.28 9.62c-.62.57-1.6.86-2.95.86h-1.11v3.1h-3.55v-10.51h4.23c1.49 0 2.58.31 3.27.92s1.03 1.59 1.03 2.92c0 1.24-.31 2.15-.93 2.72zm5.82 3.96h-3.6v-10.51h3.6v10.52zm9.08-.22c-.39.17-.77.29-1.16.38-.39.08-.77.13-1.16.13-.48 0-.94-.06-1.39-.17-.44-.11-.85-.28-1.21-.49-.87-.54-1.53-1.21-1.97-2.03-.45-.82-.67-1.76-.67-2.82 0-.79.13-1.51.38-2.18s.62-1.26 1.11-1.77c.49-.52 1.06-.91 1.7-1.18s1.34-.4 2.09-.4c.4 0 .79.04 1.18.13s.77.22 1.13.4v3.89c-.32-.33-.65-.58-.99-.74s-.69-.24-1.06-.24c-.58 0-1.04.19-1.4.57-.35.38-.53.89-.53 1.52s.17 1.11.51 1.48.79.55 1.35.55c.34 0 .69-.08 1.04-.23.35-.16.74-.4 1.16-.74l-.11 3.96zm7.46.22-2.39-4.4v4.4h-3.47v-10.51h3.47v4.48l2.25-4.48h4.01l-2.98 5.18 3.39 5.34h-4.29zm11.9.7c-3.17 0-5.74-2.74-5.74-6.13s2.57-6.13 5.74-6.13 5.74 2.74 5.74 6.13-2.57 6.13-5.74 6.13z" fill="#2b3f63"/><path d="m49.09 12.01c.39-.15.68-.36.87-.65s.29-.65.29-1.09c0-.72-.28-1.3-.83-1.75-.56-.45-1.29-.67-2.2-.67-1.03 0-1.81.24-2.34.73-.54.49-.81 1.2-.83 2.15h2.67c0-.2.04-.35.11-.45s.18-.16.32-.16c.13 0 .24.05.33.14s.13.22.13.37c0 .2-.06.35-.19.45s-.31.15-.56.15h-.12v1.75s.05 0 .08 0h.13c.25 0 .45.06.59.19s.2.31.2.55c0 .21-.06.38-.17.5-.12.13-.27.19-.46.19s-.34-.07-.44-.22-.16-.37-.17-.66h-2.78v.02c0 1.02.31 1.82.93 2.4s1.48.87 2.58.87c1.02 0 1.84-.25 2.44-.75s.91-1.18.91-2.02c0-.54-.12-.99-.37-1.33s-.61-.57-1.09-.69z" fill="#2b3f63"/></svg>