<svg viewBox="0 0 111.69 21.22" xmlns="http://www.w3.org/2000/svg"><path d="m58.65 0h-58.04c-.33 0-.61.3-.61.66v.42c0 .36.28.66.61.66h58.04c.34 0 .61-.3.61-.66v-.42c0-.36-.27-.66-.61-.66" fill="#f83"/><path d="m106.17 0h-45.13c-.28 0-.51.3-.51.66v.42c0 .36.23.66.51.66h45.12c.28 0 .51-.3.51-.66v-.42c0-.36-.23-.66-.51-.66" fill="#0044b8"/><g fill="#f83"><path d="m9.8 10.34h-.58v1.84h.58c.35 0 .62-.08.81-.24s.28-.38.28-.67-.1-.52-.29-.68-.46-.24-.8-.24z"/><path d="m51.44 4.07h-43.61c-4.31 0-7.83 3.76-7.83 8.35s3.52 8.36 7.83 8.36h43.61c4.31 0 7.83-3.76 7.83-8.36s-3.52-8.35-7.83-8.35zm-37.99 10.07c-.65.6-1.68.9-3.09.9h-1.16v3.25h-3.71v-11.01h4.43c1.56 0 2.7.32 3.42.96s1.08 1.66 1.08 3.05c0 1.3-.33 2.25-.97 2.85zm6.1 4.15h-3.77v-11.01h3.77zm9.51-.23c-.4.18-.81.31-1.21.39-.4.09-.81.13-1.21.13-.5 0-.99-.06-1.45-.18-.47-.12-.89-.29-1.26-.51-.91-.56-1.6-1.27-2.07-2.13s-.7-1.84-.7-2.95c0-.82.13-1.58.4-2.29.27-.7.65-1.32 1.16-1.86s1.1-.95 1.78-1.23c.67-.28 1.4-.42 2.19-.42.42 0 .83.05 1.24.14s.8.23 1.19.42v4.08c-.34-.35-.68-.6-1.04-.77s-.72-.26-1.11-.26c-.61 0-1.09.2-1.46.6s-.55.93-.55 1.59.18 1.16.53 1.55.82.58 1.42.58c.36 0 .72-.08 1.09-.24s.77-.42 1.21-.78l-.12 4.14zm7.81.23-2.5-4.6v4.6h-3.64v-11.01h3.64v4.69l2.35-4.69h4.2l-3.12 5.42 3.55 5.59h-4.49zm12.45.73c-3.32 0-6.01-2.87-6.01-6.41s2.69-6.41 6.01-6.41 6.01 2.87 6.01 6.41-2.69 6.41-6.01 6.41z"/><path d="m51.39 12.27c.4-.15.71-.38.91-.68s.3-.68.3-1.14c0-.75-.29-1.36-.87-1.83s-1.35-.7-2.31-.7c-1.07 0-1.89.26-2.45.77s-.85 1.26-.87 2.25h2.8c0-.21.04-.36.12-.47s.19-.16.34-.16c.14 0 .25.05.34.15s.13.23.13.38c0 .21-.07.36-.2.47s-.33.16-.59.16h-.13v1.83s.05 0 .08 0h.13c.27 0 .47.07.61.2s.21.32.21.58c0 .22-.06.39-.18.53-.12.13-.28.2-.48.2s-.35-.08-.46-.23-.17-.38-.18-.69h-2.91v.02c0 1.07.33 1.9.98 2.51s1.55.91 2.7.91c1.07 0 1.93-.26 2.56-.79s.95-1.23.95-2.12c0-.57-.13-1.03-.39-1.39s-.64-.6-1.14-.72z"/></g><path d="m92.97 10.81c-.54-.52-1.09-.91-1.66-1.16-.56-.26-1.16-.38-1.78-.38-.97 0-1.75.3-2.34.9s-.89 1.39-.89 2.39.28 1.75.85 2.33 1.32.87 2.27.87c.57 0 1.15-.12 1.74-.37.59-.24 1.24-.63 1.94-1.17l-.19 6.22c-.65.26-1.29.46-1.94.59s-1.29.2-1.94.2c-.81 0-1.58-.09-2.33-.27s-1.42-.44-2.02-.77c-1.46-.84-2.56-1.91-3.31-3.19-.75-1.29-1.12-2.77-1.12-4.44 0-1.23.21-2.38.64-3.43s1.04-1.98 1.86-2.79 1.77-1.43 2.85-1.85 2.25-.63 3.5-.63c.67 0 1.33.07 1.98.21s1.28.35 1.9.63v6.12z" fill="#0044b8"/><path d="m93.4 20.78 5.89-16.52h6.61l5.78 16.52h-6.39l-.53-2.08h-4.48l-.51 2.08h-6.38zm7.88-6h2.47l-.51-1.87c-.25-.95-.42-1.68-.51-2.19s-.15-.99-.17-1.44h-.1c-.02.45-.08.93-.17 1.44s-.26 1.24-.51 2.19l-.51 1.87z" fill="#0044b8"/><path d="m68.24 3.93c.26.07.53.11.78.2.96.35 1.6 1.01 1.84 2.02.07.28.07.59.1.86.3-.03.63-.1.95-.09.95.03 1.7.47 2.24 1.24.38.54.6 1.14.56 1.81 0 .12-.02.24-.15.28s-.22-.03-.29-.13c-.56-.74-1.32-1.12-2.21-1.25-.02 0-.04 0-.02 0 .25.17.55.34.81.56.55.47.83 1.11.9 1.82.07.63-.03 1.24-.35 1.8-.07.11-.14.23-.23.32-.04.05-.14.09-.19.08-.06-.01-.12-.1-.13-.16-.04-.16-.04-.33-.07-.49-.17-.85-.64-1.51-1.32-2.01-.26-.2-.56-.34-.85-.5-.06-.04-.14-.05-.23-.05.07.06.14.12.21.19 1.02.95.55 2.41-.37 2.93-.09.05-.18.12-.29.02-.09-.09-.04-.18 0-.27.36-.9-.01-2.07-.85-2.62-1.76 2.17-2.78 4.63-2.96 7.47 1.53-.39 3.06-.48 4.6-.34.04-.35-.13-1.26-.29-1.59-.33.02-.67.4-.72.8 0 .07-.04.14-.06.21-.06-.06-.14-.11-.18-.18-.22-.41-.07-.89.36-1.1.02-.01.05-.03.06-.05-.53.03-.99.21-1.29.69-.05.08-.12.15-.18.22-.04-.09-.09-.18-.11-.28-.09-.6.36-1.24.95-1.37.07-.01.14-.03.24-.05-.36-.08-.68-.05-.99.11-.03.02-.06.04-.09.04-.05 0-.1 0-.15.01 0-.05-.02-.11 0-.15.17-.47.52-.74 1.01-.83.34-.06.64.05.92.24.05-.1.09-.2.14-.28.37-.6 1.16-.78 1.74-.39.05.04.09.1.13.15-.06.03-.12.07-.18.08-.35.04-.65.2-.88.47.29-.15.58-.22.9-.14.41.1.72.33.9.71.03.06.02.14.03.21-.07-.02-.14-.02-.2-.05-.54-.27-1.03-.15-1.51.16.27-.04.52-.02.73.17.18.16.29.36.28.61 0 .05-.04.1-.06.16-.04-.03-.09-.06-.12-.09-.27-.31-.6-.41-1-.32-.04 0-.08.03-.08.03.16.51.35 1.01.46 1.52.07.31.18.43.5.49 1.08.2 2.1.57 3.05 1.12.55.32 1.06.71 1.49 1.19.13.15.21.3.13.49-.09.2-.26.25-.46.25-3.49 0-6.97 0-10.46 0-1.07 0-2.14 0-3.21 0-.18 0-.34-.05-.43-.21-.09-.15-.08-.35.06-.47.34-.28.44-.67.56-1.06.6-1.99 1.38-3.92 2.42-5.72.74-1.3 1.59-2.52 2.7-3.53.07-.06.14-.13.21-.19 0 0 0 0 0-.02-.48-.47-1.08-.64-1.74-.61-.39.01-.75.14-1.06.37-.08.06-.17.12-.25.03-.05-.06-.06-.17-.04-.25.29-1.09 1.79-1.93 2.98-.88.02.01.03.02.05.04.01-.01.03-.02.04-.04-.2-.24-.38-.49-.6-.7-.55-.53-1.19-.92-1.96-1.01-.34-.04-.68 0-1.02 0-.08 0-.2-.02-.22-.07-.03-.05 0-.17.05-.23.61-.75 1.41-1.06 2.35-1.06.93 0 1.68.39 2.24 1.14.02.02.03.04.06.05-.21-.61-.55-1.14-1.06-1.53-.21-.16-.45-.28-.68-.41-.1-.06-.22-.1-.21-.24 0-.16.13-.19.25-.22.15-.04.3-.07.45-.11h.56z" fill="#0044b8"/></svg>