<svg viewBox="0 0 113.05 21.38" xmlns="http://www.w3.org/2000/svg"><path d="m58.65 0h-58.04c-.33 0-.61.3-.61.66v.42c0 .36.28.66.61.66h58.04c.34 0 .61-.3.61-.66v-.42c0-.36-.27-.66-.61-.66" fill="#00a514"/><path d="m112.47 0h-51.35c-.32 0-.58.3-.58.66v.42c0 .36.26.66.58.66h51.35c.32 0 .58-.3.58-.66v-.42c0-.36-.26-.66-.58-.66" fill="#6f08ff"/><path d="m9.8 10.34h-.58v1.84h.58c.35 0 .62-.08.81-.24s.28-.38.28-.67-.1-.52-.29-.68-.46-.24-.8-.24z" fill="#00a514"/><path d="m51.44 4.07h-43.61c-4.31 0-7.83 3.76-7.83 8.35s3.52 8.36 7.83 8.36h43.61c4.31 0 7.83-3.76 7.83-8.36s-3.52-8.35-7.83-8.35zm-37.99 10.07c-.65.6-1.68.9-3.09.9h-1.16v3.25h-3.71v-11.01h4.43c1.56 0 2.7.32 3.42.96s1.08 1.66 1.08 3.05c0 1.3-.33 2.25-.97 2.85zm6.1 4.15h-3.77v-11.01h3.77zm9.51-.23c-.4.18-.81.31-1.21.39-.4.09-.81.13-1.21.13-.5 0-.99-.06-1.45-.18-.47-.12-.89-.29-1.26-.51-.91-.56-1.6-1.27-2.07-2.13s-.7-1.84-.7-2.95c0-.82.13-1.58.4-2.29.27-.7.65-1.32 1.16-1.86s1.1-.95 1.78-1.23c.67-.28 1.4-.42 2.19-.42.42 0 .83.05 1.24.14s.8.23 1.19.42v4.08c-.34-.35-.68-.6-1.04-.77s-.72-.26-1.11-.26c-.61 0-1.09.2-1.46.6s-.55.93-.55 1.59.18 1.16.53 1.55.82.58 1.42.58c.36 0 .72-.08 1.09-.24s.77-.42 1.21-.78l-.12 4.14zm7.81.23-2.5-4.6v4.6h-3.64v-11.01h3.64v4.69l2.35-4.69h4.2l-3.12 5.42 3.55 5.59h-4.49zm12.45.73c-3.32 0-6.01-2.87-6.01-6.41s2.69-6.41 6.01-6.41 6.01 2.87 6.01 6.41-2.69 6.41-6.01 6.41z" fill="#00a514"/><path d="m51.39 12.27c.4-.15.71-.38.91-.68s.3-.68.3-1.14c0-.75-.29-1.36-.87-1.83s-1.35-.7-2.31-.7c-1.07 0-1.89.26-2.45.77s-.85 1.26-.87 2.25h2.8c0-.21.04-.36.12-.47s.19-.16.34-.16c.14 0 .25.05.34.15s.13.23.13.38c0 .21-.07.36-.2.47s-.33.16-.59.16h-.13v1.83s.05 0 .08 0h.13c.27 0 .47.07.61.2s.21.32.21.58c0 .22-.06.39-.18.53-.12.13-.28.2-.48.2s-.35-.08-.46-.23-.17-.38-.18-.69h-2.91v.02c0 1.07.33 1.9.98 2.51s1.55.91 2.7.91c1.07 0 1.93-.26 2.56-.79s.95-1.23.95-2.12c0-.57-.13-1.03-.39-1.39s-.64-.6-1.14-.72z" fill="#00a514"/><g fill="#6f08ff"><path d="m92.97 10.81c-.54-.52-1.09-.91-1.66-1.16-.56-.26-1.16-.38-1.78-.38-.97 0-1.75.3-2.34.9s-.89 1.39-.89 2.39.28 1.75.85 2.33 1.32.87 2.27.87c.57 0 1.15-.12 1.74-.37.59-.24 1.24-.63 1.94-1.17l-.19 6.22c-.65.26-1.29.46-1.94.59s-1.29.2-1.94.2c-.81 0-1.58-.09-2.33-.27s-1.42-.44-2.02-.77c-1.46-.84-2.56-1.91-3.31-3.19-.75-1.29-1.12-2.77-1.12-4.44 0-1.23.21-2.38.64-3.43s1.04-1.98 1.86-2.79 1.77-1.43 2.85-1.85 2.25-.63 3.5-.63c.67 0 1.33.07 1.98.21s1.28.35 1.9.63v6.12z"/><path d="m112.68 12.55c0 1.21-.21 2.34-.64 3.38s-1.06 1.97-1.89 2.79c-.83.81-1.78 1.42-2.86 1.85s-2.23.64-3.45.64-2.39-.21-3.47-.64-2.03-1.05-2.87-1.87c-.82-.8-1.44-1.72-1.86-2.75-.42-1.04-.63-2.17-.63-3.4s.21-2.36.63-3.41 1.04-1.97 1.86-2.77c.83-.81 1.78-1.43 2.86-1.86s2.23-.64 3.48-.64 2.4.21 3.48.64 2.03 1.04 2.87 1.86c.81.81 1.43 1.73 1.86 2.78s.64 2.18.64 3.4zm-8.84 3.12c.83 0 1.51-.28 2.01-.85.51-.57.76-1.32.76-2.26s-.25-1.71-.76-2.29-1.18-.86-2.01-.86-1.51.29-2.02.87-.77 1.34-.77 2.28.26 1.69.77 2.26 1.19.85 2.02.85z"/><path d="m63.26 18.81c.5-.21.99-.41 1.49-.62.17-.07.33-.15.5-.2.15-.05.18-.13.15-.27-.12-.48-.23-.96-.37-1.44-.2-.69-.42-1.37-.63-2.04.02-.02.03-.03.04-.03.57-.14.82-.45.85-1.06.03-.6-.13-1.17-.34-1.72-.03-.07-.11-.13-.17-.18-.41-.33-.68-.73-.63-1.28.02-.27.13-.5.34-.74.04.55.36.83.82.98.06.02.15.03.2 0 .49-.34 1.06-.44 1.64-.5.72-.06 1.44-.06 2.16-.13.42-.05.85-.16 1.25-.31.6-.23.91-.7.92-1.36 0-.03 0-.06 0-.11.5-.12.95-.3 1.01-.9-.35.64-1.01.56-1.53.69.02.26.04.5.06.74-.02 0-.05 0-.07.01-.03-.05-.05-.1-.08-.15-.09-.18-.22-.3-.44-.33-.11-.02-.21-.11-.36-.19.22-.04.36-.07.5-.09-.18-.04-.38.05-.54-.13.2-.16.58-.16.43-.58-.14.14-.29.27-.43.41-.03-.01-.06-.03-.09-.04.01-.16 0-.32.04-.47.03-.13.12-.25.18-.37.2-.37.41-.74.59-1.12.2-.4.42-.57.85-.54.19.01.31-.02.38-.21.02-.05.06-.08.1-.13.11.07.21.13.32.2l.02-.02c-.09-.09-.19-.17-.28-.26.27-.34.35-.35.67-.09-.06-.09-.12-.17-.19-.26.3-.22.42-.2.66.13-.03-.1-.07-.19-.1-.31h.55c.02.12.03.23.04.34h.03c.01-.1.03-.2.05-.33.17.06.32.12.48.19-.03.11-.06.2-.08.29 0 0 .02 0 .03.01.04-.08.09-.15.13-.23.32.17.43.34.35.51.16-.02.23.08.28.42-.05.02-.1.04-.2.08.1.01.16.02.22.03.2.81-.32 1.63-1.15 1.78.1-.12.19-.23.27-.34.22-.33.33-.68.22-1.07-.1-.35-.41-.62-.75-.65-.35-.03-.7.16-.86.47.57-.25.64-.27.87-.13-.32.07-.48.18-.63.43q.47-.24.69-.19c-.08.35-.34.52-.63.68.8.87 1.05 1.92 1.02 3.05-.02.9-.27 1.66-.68 2.15 0-.29-.14-.48-.37-.65.08.99-.4 1.7-1.01 2.36.15-.42.12-.83.01-1.26-.02.08-.03.17-.06.24-.17.38-.33.77-.54 1.12-.39.65-.71 1.32-.81 2.07-.07.52-.08 1.04.02 1.56 0 .04.03.09.04.14.43-.2.85-.39 1.27-.57.06-.03.16-.02.21.01 1.22.92 2.45 1.84 3.67 2.76.02.01.03.03.04.05-3.69 3.22-9.38 2.89-12.63-.31zm3.76-1.56c-.26-.83-.52-1.66-.78-2.48.49-.27.91-.61 1.2-1.06.28.08.55.16.83.24-.3.4-.65.72-1.11.93.31 1 .62 1.98.94 2.96.04.13.15.15.27.09.47-.22.94-.43 1.41-.64.11-.05.14-.11.13-.23-.05-1.04-.1-2.08-.15-3.12 0-.14-.02-.27-.03-.42-.77.32-1.47.12-2.18-.12.08-.55 0-.93-.21-1.18v.02c0 .04.02.08.02.12.09.53-.01 1.01-.35 1.44-.26.32-.58.56-.94.75-.2.11-.42.19-.64.29.29.9.57 1.8.86 2.71.25-.1.47-.2.72-.3zm5-11.59c-.33-.02-.5.09-.55.37.08.01.17.03.25.04.13.01.22-.02.22-.18 0-.07.05-.14.08-.22z"/><path d="m72.97 16.28c-.18-.27-.34-.51-.49-.76-.03-.04 0-.14.02-.19.15-.25.31-.5.49-.72.17-.22.38-.42.58-.64-.11-.1-.22-.2-.33-.31s-.21-.24-.31-.36c-.27-.33-.46-.65-.08-1.05.14-.15.19-.37.29-.59.34.83.9 1.48 1.6 2.02-.75.76-1.4 1.57-1.77 2.6z"/><path d="m71.23 4.27h-.33c.01-.27.07-.3.51-.24-.12-.06-.2-.1-.28-.15.15-.2.31-.13.52.01-.06-.09-.09-.12-.11-.16.25-.05.48.08.62.33-.13.03-.3.01-.39.09-.1.09-.13.27-.17.37-.27.07-.53.14-.79.21-.1-.29-.03-.37.42-.48z"/></g></svg>