<svg viewBox="0 0 116.95 22.95" xmlns="http://www.w3.org/2000/svg"><path d="m54.01 22.75h-45.79c-4.52 0-8.22-3.95-8.22-8.77s3.7-8.77 8.22-8.77h45.79c4.52 0 8.22 3.95 8.22 8.77s-3.7 8.77-8.22 8.77" fill="#d900a2"/><g fill="#fff"><path d="m5.76 20.14v-11.56h4.65c1.64 0 2.84.34 3.59 1.01.76.67 1.14 1.74 1.14 3.21 0 1.36-.34 2.36-1.02 2.99s-1.76.94-3.24.94h-1.22v3.41zm3.91-8.35v1.93h.61c.37 0 .65-.08.85-.25.2-.16.3-.4.3-.71s-.1-.54-.3-.71-.48-.26-.84-.26h-.61z"/><path d="m16.57 8.58h3.96v11.56h-3.96z"/><path d="m30.56 13.16c-.36-.36-.72-.63-1.09-.81s-.76-.27-1.17-.27c-.64 0-1.15.21-1.54.63s-.58.97-.58 1.67.18 1.22.56 1.63c.37.4.87.61 1.49.61.38 0 .76-.09 1.14-.26.39-.17.81-.44 1.27-.82l-.13 4.35c-.42.18-.85.32-1.27.41s-.85.14-1.27.14c-.53 0-1.04-.06-1.52-.19-.49-.13-.93-.31-1.33-.54-.96-.59-1.68-1.33-2.17-2.24-.49-.9-.74-1.93-.74-3.1 0-.86.14-1.66.42-2.4s.68-1.39 1.22-1.95c.54-.57 1.16-1 1.87-1.29s1.47-.44 2.3-.44c.44 0 .87.05 1.3.15s.84.24 1.25.44v4.28z"/><path d="m32.27 20.14v-11.56h3.82v4.93l2.47-4.93h4.41l-3.27 5.69 3.73 5.87h-4.71l-2.63-4.84v4.84z"/><path d="m51.79 7.44c-3.49 0-6.31 3.02-6.31 6.74s2.83 6.74 6.31 6.74 6.31-3.02 6.31-6.74-2.83-6.74-6.31-6.74zm2.77 10.83c-.66.55-1.56.83-2.69.83-1.21 0-2.15-.32-2.84-.95-.68-.63-1.02-1.51-1.02-2.63v-.03h3.06c.01.32.07.56.19.72.11.16.27.24.49.24s.38-.07.51-.21.19-.33.19-.55c0-.26-.07-.47-.22-.6-.15-.14-.37-.21-.64-.21-.06 0-.11 0-.14 0s-.06 0-.08 0v-1.92h.13c.27 0 .48-.05.62-.16s.21-.27.21-.49c0-.16-.05-.3-.14-.4s-.21-.16-.36-.16-.27.06-.35.17c-.08.12-.12.28-.12.5h-2.94c.02-1.04.32-1.83.91-2.36s1.45-.8 2.57-.8c1 0 1.81.24 2.42.74.61.49.91 1.13.91 1.92 0 .48-.11.88-.32 1.2s-.53.55-.95.71c.52.13.92.38 1.19.76s.41.87.41 1.46c0 .93-.33 1.67-1 2.22z"/></g><path d="m64.91 1.74h51.5c.3 0 .54-.3.54-.66v-.42c0-.36-.24-.66-.54-.66h-51.5c-.3 0-.54.3-.54.66v.42c0 .36.24.66.54.66" fill="#0062a0"/><path d="m1.52 1.74h59.22c.37 0 .67-.3.67-.66v-.42c.01-.36-.3-.66-.67-.66h-59.22c-.37 0-.67.3-.67.66v.42c0 .36.3.66.67.66" fill="#d900a2"/><path d="m85.17 22.49v-17.28h5.03c1.6 0 2.96.09 4.09.27s2.05.45 2.76.82c1.49.79 2.64 1.83 3.44 3.13s1.2 2.78 1.2 4.44-.4 3.12-1.19 4.41-1.94 2.33-3.45 3.13c-.73.38-1.66.65-2.79.83-1.12.17-2.63.26-4.52.26h-4.57zm6.16-5.28c1.4 0 2.42-.28 3.07-.82s.97-1.38.97-2.53-.31-1.96-.93-2.51-1.56-.83-2.84-.83h-.27z" fill="#0062a0"/><path d="m116.54 12.07c-.57-.54-1.14-.95-1.73-1.22s-1.21-.4-1.86-.4c-1.02 0-1.83.31-2.45.94s-.93 1.46-.93 2.5.3 1.83.89 2.43 1.38.91 2.37.91c.6 0 1.21-.13 1.82-.38.62-.26 1.29-.66 2.02-1.22l-.2 6.5c-.68.28-1.35.48-2.03.62s-1.35.21-2.03.21c-.84 0-1.65-.09-2.43-.28s-1.48-.46-2.11-.8c-1.53-.88-2.68-1.99-3.46-3.34s-1.17-2.89-1.17-4.64c0-1.29.22-2.49.67-3.59.44-1.1 1.09-2.07 1.94-2.91.86-.85 1.85-1.49 2.98-1.93s2.35-.65 3.66-.65c.7 0 1.39.07 2.07.22s1.34.36 1.99.65v6.4z" fill="#0062a0"/><path d="m73.23 5.06c-4.86 0-8.8 3.94-8.8 8.8s3.94 8.8 8.8 8.8 8.8-3.94 8.8-8.8-3.94-8.8-8.8-8.8zm2.75 12.73-2.74-1.44-2.74 1.44.52-3.06-2.22-2.16 3.07-.45 1.37-2.78 1.37 2.78 3.07.45-2.22 2.16z" fill="#0062a0"/></svg>