<svg viewBox="0 0 110.47 20.82" xmlns="http://www.w3.org/2000/svg"><path d="m58.65 0h-58.04c-.33 0-.61.3-.61.66v.42c0 .36.28.66.61.66h58.04c.34 0 .61-.3.61-.66v-.42c0-.36-.27-.66-.61-.66" fill="#0267ff"/><path d="m9.8 10.34h-.58v1.84h.58c.35 0 .62-.08.81-.24s.28-.38.28-.67-.1-.52-.29-.68-.46-.24-.8-.24z" fill="#0267ff"/><path d="m51.44 4.07h-43.61c-4.31 0-7.83 3.76-7.83 8.35s3.52 8.36 7.83 8.36h43.61c4.31 0 7.83-3.76 7.83-8.36s-3.52-8.35-7.83-8.35zm-37.99 10.07c-.65.6-1.68.9-3.09.9h-1.16v3.25h-3.71v-11.01h4.43c1.56 0 2.7.32 3.42.96s1.08 1.66 1.08 3.05c0 1.3-.33 2.25-.97 2.85zm6.1 4.15h-3.77v-11.01h3.77zm9.51-.23c-.4.18-.81.31-1.21.39-.4.09-.81.13-1.21.13-.5 0-.99-.06-1.45-.18-.47-.12-.89-.29-1.26-.51-.91-.56-1.6-1.27-2.07-2.13s-.7-1.84-.7-2.95c0-.82.13-1.58.4-2.29.27-.7.65-1.32 1.16-1.86s1.1-.95 1.78-1.23c.67-.28 1.4-.42 2.19-.42.42 0 .83.05 1.24.14s.8.23 1.19.42v4.08c-.34-.35-.68-.6-1.04-.77s-.72-.26-1.11-.26c-.61 0-1.09.2-1.46.6s-.55.93-.55 1.59.18 1.16.53 1.55.82.58 1.42.58c.36 0 .72-.08 1.09-.24s.77-.42 1.21-.78l-.12 4.14zm7.81.23-2.5-4.6v4.6h-3.64v-11.01h3.64v4.69l2.35-4.69h4.2l-3.12 5.42 3.55 5.59h-4.49zm12.45.73c-3.32 0-6.01-2.87-6.01-6.41s2.69-6.41 6.01-6.41 6.01 2.87 6.01 6.41-2.69 6.41-6.01 6.41z" fill="#0267ff"/><path d="m51.39 12.27c.4-.15.71-.38.91-.68s.3-.68.3-1.14c0-.75-.29-1.36-.87-1.83s-1.35-.7-2.31-.7c-1.07 0-1.89.26-2.45.77s-.85 1.26-.87 2.25h2.8c0-.21.04-.36.12-.47s.19-.16.34-.16c.14 0 .25.05.34.15s.13.23.13.38c0 .21-.07.36-.2.47s-.33.16-.59.16h-.13v1.83s.05 0 .08 0h.13c.27 0 .47.07.61.2s.21.32.21.58c0 .22-.06.39-.18.53-.12.13-.28.2-.48.2s-.35-.08-.46-.23-.17-.38-.18-.69h-2.91v.02c0 1.07.33 1.9.98 2.51s1.55.91 2.7.91c1.07 0 1.93-.26 2.56-.79s.95-1.23.95-2.12c0-.57-.13-1.03-.39-1.39s-.64-.6-1.14-.72z" fill="#0267ff"/><g fill="#db2a5d"><path d="m109.92 0h-48.83c-.31 0-.56.3-.56.66v.42c0 .36.25.66.56.66h48.83c.31 0 .55-.3.55-.66v-.42c0-.36-.25-.66-.55-.66"/><path d="m80.82 20.78v-16.53h4.81c1.53 0 2.83.08 3.91.25s1.96.43 2.64.78c1.43.75 2.53 1.75 3.29 2.99s1.15 2.66 1.15 4.24-.38 2.99-1.14 4.22-1.86 2.23-3.3 2.99c-.7.36-1.59.62-2.66.79-1.08.17-2.52.25-4.32.25h-4.37zm5.89-5.05c1.34 0 2.32-.27 2.94-.78.62-.52.93-1.32.93-2.42s-.3-1.88-.89-2.4c-.59-.53-1.5-.79-2.71-.79h-.26v6.4z"/><path d="m99.1 20.78v-16.53h11.05v4.48h-5.23v1.59h4.74v4.23h-4.74v1.74h5.36v4.48h-11.19z"/><path d="m65.3 11.04c0-.7.25-1.27.86-1.62.37-.21.78-.34 1.17-.5.12-.05.16.04.21.12.4.67.86 1.28 1.45 1.8.37.33.76.61 1.26.72.23.05.43.02.61-.14.4-.35.79-.69 1.18-1.04.57-.51 1.16-1 1.86-1.34.85-.41 1.71-.5 2.51.08.33.23.62.54.86.86.25.33.43.72.64 1.08.07.12.07.25-.03.36s-.22.12-.36.07c-.51-.18-1.03-.33-1.58-.27-.17.02-.35.07-.48.17-.3.22-.51.72-.07 1.12.15.13.34.22.52.3.16.07.27.15.29.32.01.18-.07.32-.23.36-.39.11-.79.2-1.19.28-.27.06-.54.08-.8.15-.35.09-.47.27-.48.63 0 .27.02.53 0 .8-.01.27-.16.47-.37.63-.63.47-1.3.88-2.03 1.18-.08.03-.19.04-.27 0-1.74-.71-3.11-1.89-4.2-3.4-.42-.57-.77-1.2-1.11-1.82-.15-.27-.19-.59-.27-.89.02 0 .03 0 .05-.01z"/><path d="m66.88 17.82c-.17-.03-.31-.05-.46-.08-.85-.15-1.52-.6-2.03-1.27-1.03-1.34-1.55-2.86-1.49-4.56.01-.39.15-.78.19-1.17.06-.54.09-1.08.13-1.63 0-.07-.04-.15-.07-.22-.12-.24-.25-.48-.39-.72-.04-.07-.11-.13-.17-.16-.27-.09-.55-.14-.82-.24-.1-.04-.22-.15-.23-.24s.06-.24.15-.3c.21-.17.44-.32.67-.46.1-.07.13-.13.12-.26-.06-.63-.01-1.24.36-1.78.1-.14.22-.27.36-.37.3-.24.47-.19.62.17.42-.29.88-.45 1.39-.47.37-.01.45.04.51.4.1.6.1 1.19-.33 1.7.74.6 1.33 1.31 1.75 2.16-.29.11-.57.2-.84.32-.83.38-1.41.97-1.56 1.91-.08.53-.04 1.04.19 1.53 1.03 2.18 2.54 3.93 4.65 5.13.1.06.23.08.35.12.17.05.32.1.33.33.07.78.16 1.56.23 2.35.01.16.06.21.22.2.25-.01.51 0 .76 0 .28 0 .43.1.42.3 0 .19-.15.29-.43.29-.63 0-1.25 0-1.88 0-1.37 0-2.74 0-4.11 0-.31 0-.45-.09-.45-.29s.14-.3.44-.3h.78c.1 0 .14-.03.16-.13.15-.75.31-1.5.48-2.27zm1 2.39h1.13c-.08-.8-.16-1.59-.24-2.4-.15.02-.27.03-.4.05-.17.79-.33 1.57-.49 2.35zm-4.07-13.24c.23 0 .36-.11.36-.3 0-.2-.13-.3-.38-.3-.23 0-.37.11-.37.3s.14.3.38.3z"/></g></svg>