<svg viewBox="0 0 106.91 20.78" xmlns="http://www.w3.org/2000/svg"><path d="m64.18 16.38c-.23-1.25-.3-2.49-.22-3.69.14-1.94.9-3.62 2.27-4.98.14-.14.29-.28.44-.41-.29-.19-.49-.48-.56-.83-.11-.55.15-1.08.63-1.32.27-.14.6-.29.96-.4.35-.11.72-.16 1.09-.16.54 0 1.09.1 1.73.33l.38.13c.45.16.91.32 1.37.45.27.07.56.12.84.18.33.06.65.12.97.21.2.05.39.12.58.19-1.35-1.13-3.09-1.82-4.99-1.82-4.28 0-7.75 3.47-7.75 7.75 0 2.06.81 3.93 2.12 5.31.15-.28.2-.57.13-.94z" fill="#bb0054"/><path d="m76.95 12.38-.26-.05c-.13-.02-.26-.06-.4-.09-.16-.04-.32-.08-.43-.08-.24 0-.49.04-.8.12-.52.14-1.08.2-1.72.2-.21 0-.41 0-.62-.02-.02.04-.03.08-.05.12-.27.58-.67 1.06-1.18 1.43-.29.2-.58.4-.87.6l-.31.21c-.06.04-.13.08-.19.11-.24.13-.47.19-.69.19-.34 0-.66-.14-.9-.39-.31-.32-.41-.74-.32-1.15-.08.12-.15.26-.21.42-.25.6-.39 1.1-.41 1.58.22.02.44.05.67.1.75.16 1.27.61 1.6.94.37.36.48.86.31 1.34-.18.49-.61.81-1.13.83-.36.01-.72.12-1.15.33-.16.08-.32.12-.44.15-.03.05-.08.08-.12.13.74.23 1.53.36 2.34.36 4.13 0 7.49-3.23 7.73-7.29-.15-.03-.31-.05-.46-.08z" fill="#bb0054"/><path d="m64.56 20.78c-.22-.09-.3-.27-.33-.49-.11-.73.02-1.42.35-2.07.07-.15.14-.3.22-.44.28-.49.34-1 .24-1.55-.21-1.14-.29-2.3-.21-3.47.12-1.72.79-3.2 2.01-4.42.46-.46.98-.86 1.57-1.21-.1-.07-.18-.14-.28-.18-.3-.12-.6-.23-.9-.34-.15-.05-.23-.15-.26-.3-.03-.16.03-.31.16-.37.27-.13.54-.26.82-.34.78-.23 1.53-.1 2.28.16.6.21 1.2.43 1.81.6.59.16 1.21.22 1.81.38 1.11.3 2.1.82 2.95 1.59.3.27.53.59.59 1.01 0 .07.02.14 0 .21-.04.19.05.27.21.36.3.17.6.37.88.58.15.11.24.28.24.48.01.42-.27.72-.72.69-.39-.02-.79-.11-1.18-.19-.32-.06-.64-.18-.96-.18-.35 0-.7.06-1.04.15-.84.22-1.69.2-2.54.12-.05 0-.11 0-.16-.01-.09.23-.17.45-.27.67-.2.44-.5.8-.89 1.08-.38.27-.78.54-1.17.81-.04.03-.08.05-.12.07-.22.11-.4.1-.53-.04-.14-.14-.15-.32-.01-.53.37-.57.44-1.19.35-1.86-.35.09-.68.24-1 .4-.64.33-1.03.88-1.3 1.52-.26.62-.46 1.26-.48 1.94 0 .22.04.43.07.65.02.11.09.15.21.16.36.03.73.04 1.08.12.46.1.84.38 1.18.71.11.11.16.25.1.41s-.17.25-.34.26c-.54.02-1.03.19-1.51.42-.15.07-.32.08-.49.13-.06.02-.13.05-.16.1-.16.31-.41.53-.72.69-.04.02-.07.04-.11.05-.54.18-.81.6-.97 1.11-.06.17-.15.3-.32.37h-.18z" fill="#bb0054"/><g fill="#007a57"><path d="m58.65 0h-58.04c-.33 0-.61.3-.61.66v.42c0 .36.28.66.61.66h58.04c.34 0 .61-.3.61-.66v-.42c0-.36-.27-.66-.61-.66"/><path d="m9.8 10.34h-.58v1.84h.58c.35 0 .62-.08.81-.24s.28-.38.28-.67-.1-.52-.29-.68-.46-.24-.8-.24z"/><path d="m51.44 4.07h-43.61c-4.31 0-7.83 3.76-7.83 8.35s3.52 8.36 7.83 8.36h43.61c4.31 0 7.83-3.76 7.83-8.36s-3.52-8.35-7.83-8.35zm-37.99 10.07c-.65.6-1.68.9-3.09.9h-1.16v3.25h-3.71v-11.01h4.43c1.56 0 2.7.32 3.42.96s1.08 1.66 1.08 3.05c0 1.3-.33 2.25-.97 2.85zm6.1 4.15h-3.77v-11.01h3.77zm9.51-.23c-.4.18-.81.31-1.21.39-.4.09-.81.13-1.21.13-.5 0-.99-.06-1.45-.18-.47-.12-.89-.29-1.26-.51-.91-.56-1.6-1.27-2.07-2.13s-.7-1.84-.7-2.95c0-.82.13-1.58.4-2.29.27-.7.65-1.32 1.16-1.86s1.1-.95 1.78-1.23c.67-.28 1.4-.42 2.19-.42.42 0 .83.05 1.24.14s.8.23 1.19.42v4.08c-.34-.35-.68-.6-1.04-.77s-.72-.26-1.11-.26c-.61 0-1.09.2-1.46.6s-.55.93-.55 1.59.18 1.16.53 1.55.82.58 1.42.58c.36 0 .72-.08 1.09-.24s.77-.42 1.21-.78l-.12 4.14zm7.81.23-2.5-4.6v4.6h-3.64v-11.01h3.64v4.69l2.35-4.69h4.2l-3.12 5.42 3.55 5.59h-4.49zm12.45.73c-3.32 0-6.01-2.87-6.01-6.41s2.69-6.41 6.01-6.41 6.01 2.87 6.01 6.41-2.69 6.41-6.01 6.41z"/><path d="m51.39 12.27c.4-.15.71-.38.91-.68s.3-.68.3-1.14c0-.75-.29-1.36-.87-1.83s-1.35-.7-2.31-.7c-1.07 0-1.89.26-2.45.77s-.85 1.26-.87 2.25h2.8c0-.21.04-.36.12-.47s.19-.16.34-.16c.14 0 .25.05.34.15s.13.23.13.38c0 .21-.07.36-.2.47s-.33.16-.59.16h-.13v1.83s.05 0 .08 0h.13c.27 0 .47.07.61.2s.21.32.21.58c0 .22-.06.39-.18.53-.12.13-.28.2-.48.2s-.35-.08-.46-.23-.17-.38-.18-.69h-2.91v.02c0 1.07.33 1.9.98 2.51s1.55.91 2.7.91c1.07 0 1.93-.26 2.56-.79s.95-1.23.95-2.12c0-.57-.13-1.03-.39-1.39s-.64-.6-1.14-.72z"/></g><path d="m106.39 0h-45.34c-.28 0-.52.3-.52.66v.42c0 .36.23.66.52.66h45.35c.28 0 .51-.3.51-.66v-.42c0-.36-.23-.66-.51-.66" fill="#bb0054"/><path d="m80.82 20.78v-16.53h11.05v4.48h-5.1v1.92h4.62v4.23h-4.62v5.89h-5.95z" fill="#bb0054"/><path d="m93.9 20.78v-16.53h5.95v11.17h5.78v5.36z" fill="#bb0054"/></svg>