<svg viewBox="0 0 113.2 20.78" xmlns="http://www.w3.org/2000/svg"><path d="m90.29 14.86h-2.38v-3.58h8.42c.01.31.02.54.03.7 0 .15.01.29.01.41 0 .87-.08 1.67-.25 2.39s-.41 1.36-.73 1.91c-.78 1.3-1.78 2.3-3.01 2.99s-2.62 1.04-4.18 1.04c-1.15 0-2.22-.19-3.21-.58s-1.86-.95-2.63-1.7c-.76-.75-1.33-1.61-1.72-2.57s-.58-2.01-.58-3.14.2-2.19.59-3.16.96-1.82 1.71-2.55c.76-.74 1.63-1.31 2.62-1.7s2.06-.58 3.21-.58c1.56 0 2.95.34 4.16 1.02s2.21 1.68 2.98 3l-4.88 1.81c-.26-.42-.57-.74-.93-.95s-.77-.31-1.24-.31c-.81 0-1.46.31-1.94.93s-.72 1.45-.72 2.49.24 1.91.73 2.5 1.17.89 2.06.89c.53 0 .96-.11 1.28-.33.33-.22.53-.53.59-.93z" fill="#a50096"/><path d="m96.35 20.32 5.43-15.23h6.1l5.33 15.23h-5.89l-.49-1.91h-4.13l-.47 1.91zm7.26-5.53h2.28l-.47-1.73c-.23-.87-.39-1.55-.47-2.02s-.13-.92-.16-1.33h-.09c-.02.42-.07.86-.16 1.33-.08.47-.24 1.14-.47 2.02l-.47 1.73z" fill="#a50096"/><path d="m58.65 0h-58.04c-.33 0-.61.3-.61.66v.42c0 .36.28.66.61.66h58.04c.34 0 .61-.3.61-.66v-.42c0-.36-.27-.66-.61-.66" fill="#00a044"/><path d="m9.8 10.34h-.58v1.84h.58c.35 0 .62-.08.81-.24s.28-.38.28-.67-.1-.52-.29-.68-.46-.24-.8-.24z" fill="#00a044"/><path d="m51.44 4.07h-43.61c-4.31 0-7.83 3.76-7.83 8.35s3.52 8.36 7.83 8.36h43.61c4.31 0 7.83-3.76 7.83-8.36s-3.52-8.35-7.83-8.35zm-37.99 10.07c-.65.6-1.68.9-3.09.9h-1.16v3.25h-3.71v-11.01h4.43c1.56 0 2.7.32 3.42.96s1.08 1.66 1.08 3.05c0 1.3-.33 2.25-.97 2.85zm6.1 4.15h-3.77v-11.01h3.77zm9.51-.23c-.4.18-.81.31-1.21.39-.4.09-.81.13-1.21.13-.5 0-.99-.06-1.45-.18-.47-.12-.89-.29-1.26-.51-.91-.56-1.6-1.27-2.07-2.13s-.7-1.84-.7-2.95c0-.82.13-1.58.4-2.29.27-.7.65-1.32 1.16-1.86s1.1-.95 1.78-1.23c.67-.28 1.4-.42 2.19-.42.42 0 .83.05 1.24.14s.8.23 1.19.42v4.08c-.34-.35-.68-.6-1.04-.77s-.72-.26-1.11-.26c-.61 0-1.09.2-1.46.6s-.55.93-.55 1.59.18 1.16.53 1.55.82.58 1.42.58c.36 0 .72-.08 1.09-.24s.77-.42 1.21-.78l-.12 4.14zm7.81.23-2.5-4.6v4.6h-3.64v-11.01h3.64v4.69l2.35-4.69h4.2l-3.12 5.42 3.55 5.59h-4.49zm12.45.73c-3.32 0-6.01-2.87-6.01-6.41s2.69-6.41 6.01-6.41 6.01 2.87 6.01 6.41-2.69 6.41-6.01 6.41z" fill="#00a044"/><path d="m51.39 12.27c.4-.15.71-.38.91-.68s.3-.68.3-1.14c0-.75-.29-1.36-.87-1.83s-1.35-.7-2.31-.7c-1.07 0-1.89.26-2.45.77s-.85 1.26-.87 2.25h2.8c0-.21.04-.36.12-.47s.19-.16.34-.16c.14 0 .25.05.34.15s.13.23.13.38c0 .21-.07.36-.2.47s-.33.16-.59.16h-.13v1.83s.05 0 .08 0h.13c.27 0 .47.07.61.2s.21.32.21.58c0 .22-.06.39-.18.53-.12.13-.28.2-.48.2s-.35-.08-.46-.23-.17-.38-.18-.69h-2.91v.02c0 1.07.33 1.9.98 2.51s1.55.91 2.7.91c1.07 0 1.93-.26 2.56-.79s.95-1.23.95-2.12c0-.57-.13-1.03-.39-1.39s-.64-.6-1.14-.72z" fill="#00a044"/><g fill="#a50096"><path d="m107.97.05h-46.9c-.29 0-.53.3-.53.66v.42c0 .36.24.66.53.66h46.91c.29 0 .53-.3.53-.66v-.42c0-.36-.24-.66-.53-.66"/><path d="m60.68 13.7c.04-.2.08-.41.14-.61.11-.41.31-.78.58-1.13.16.21.3.42.46.61.91 1.07 2.05 1.72 3.44 1.92.07.01.15.04.2.09.45.45.95.83 1.53 1.11.02 0 .04.03.06.05-.58.95-1.42 1.55-2.52 1.68-1.96.23-3.57-1.04-3.84-2.99 0-.03-.02-.05-.03-.08 0-.22 0-.43 0-.65z"/><path d="m77.45 11.96c.78.93 1.03 2.39.29 3.71-.48.85-1.19 1.43-2.13 1.7-.95.27-1.83.03-2.7-.39-.07.3-.11.58-.19.86-.45 1.68-2.01 2.71-3.75 2.48-1.34-.18-2.25-.92-2.75-2.16-.05-.12-.04-.18.09-.25.71-.4 1.26-.96 1.66-1.68.05-.09.09-.12.21-.1 1.99.41 3.72-.1 5.18-1.51.05-.05.13-.1.2-.11 1.63-.25 2.89-1.07 3.81-2.43.02-.03.05-.07.08-.11z"/><path d="m71.79 14.52c-.78.52-1.63.77-2.55.71-1.5-.09-2.72-.75-3.54-2.02-1.72-2.63-.27-6.13 2.82-6.79 1.21-.26 2.39-.09 3.46.56.91.55 1.5 1.34 1.64 2.43.16 1.29-.73 2.56-2.01 2.82-.05 0-.1.01-.13.02.09-.28.22-.56.28-.85.25-1.26-.69-2.56-1.96-2.76-1.76-.27-3.26 1.43-2.58 3.26.31.84.9 1.42 1.67 1.84.82.44 1.72.65 2.64.75.08 0 .17.02.25.03z"/><path d="m71.04 13.36c.26-.04.51-.08.77-.13 1.54-.32 2.68-1.58 2.83-3.14.15-1.64-.57-2.86-1.85-3.8-.67-.49-1.43-.76-2.25-.9-.05 0-.11-.02-.19-.04.43-.29.87-.49 1.34-.61 2.48-.62 5.03 1.02 5.5 3.53.45 2.43-1.24 4.81-3.69 5.19-.82.13-1.64.04-2.45-.11z"/><path d="m64.51 13.22c-1.35-.41-2.6-1.82-2.87-3.5-.29-1.82.71-3.72 2.4-4.61 1.57-.83 3.34-.53 4.46.26-1.8.34-3.12 1.33-3.94 2.95-.82 1.61-.83 3.26-.05 4.9z"/><path d="m70.77 11.01c0 .74-.61 1.33-1.37 1.33-.72 0-1.33-.61-1.33-1.33 0-.77.6-1.37 1.36-1.36.77 0 1.34.6 1.34 1.37z"/><path d="m63.4 20.76c-.06-.76-.12-1.55-.18-2.37.66.13 1.32.11 1.99-.05.23.67.59 1.25 1.07 1.73-.97.23-1.93.46-2.88.69z"/><path d="m75.64 18.4c-.06.81-.12 1.6-.18 2.37-.94-.22-1.9-.46-2.88-.69.47-.48.84-1.06 1.07-1.73.67.16 1.33.19 1.99.05z"/></g></svg>