<svg viewBox="0 0 117.26 20.87" xmlns="http://www.w3.org/2000/svg"><path d="m94.01 20.74-.72-6.54c-.05-.5-.09-1.01-.14-1.51-.04-.5-.08-1-.11-1.51-.07.47-.16.98-.29 1.51s-.28 1.1-.46 1.7l-1.9 6.35h-3.53l-1.9-6.35c-.19-.6-.34-1.17-.46-1.7s-.21-1.03-.28-1.51c-.04.51-.08 1.02-.12 1.51-.04.5-.08 1-.13 1.5l-.72 6.54h-5.82l2.82-16.52h6.13l1.17 4.09c.04.13.09.32.17.58.5 1.72.8 3.14.91 4.25h.1c.09-.7.23-1.44.41-2.23s.42-1.68.72-2.66l1.23-4.02h6.12l2.62 16.52z" fill="#0f6700"/><path d="m101.47 20.74v-16.52h4.81c1.53 0 2.83.08 3.91.25s1.96.43 2.63.78c1.43.75 2.53 1.75 3.29 2.99s1.15 2.66 1.15 4.24-.38 2.99-1.14 4.22-1.86 2.23-3.29 2.99c-.7.36-1.59.62-2.66.79-1.08.17-2.52.25-4.32.25h-4.37zm5.89-5.04c1.34 0 2.32-.27 2.93-.78.62-.52.93-1.32.93-2.42s-.3-1.88-.89-2.4c-.59-.53-1.5-.79-2.71-.79h-.26v6.4z" fill="#0f6700"/><path d="m58.74 0h-58.13c-.33 0-.61.3-.61.66v.42c0 .36.28.66.61.66h58.13c.34 0 .61-.3.61-.66v-.42c0-.36-.28-.66-.61-.66" fill="#f16200"/><path d="m9.81 10.35h-.58v1.84h.58c.35 0 .62-.08.81-.24s.28-.38.28-.67-.1-.52-.29-.68-.46-.25-.8-.25z" fill="#f16200"/><path d="m51.51 4.07h-43.67c-4.31 0-7.84 3.77-7.84 8.37s3.53 8.37 7.84 8.37h43.67c4.31 0 7.84-3.77 7.84-8.37s-3.53-8.37-7.84-8.37zm-38.04 10.09c-.65.6-1.68.9-3.09.9h-1.16v3.25h-3.72v-11.02h4.44c1.56 0 2.7.32 3.43.96.72.64 1.08 1.66 1.08 3.06 0 1.3-.33 2.25-.98 2.85zm6.11 4.15h-3.78v-11.02h3.78v11.03zm9.52-.23c-.41.18-.81.31-1.21.4-.41.09-.81.13-1.21.13-.5 0-.99-.06-1.45-.18-.47-.12-.89-.29-1.26-.51-.91-.56-1.6-1.27-2.07-2.13s-.7-1.84-.7-2.96c0-.82.13-1.59.4-2.29s.65-1.32 1.16-1.86 1.11-.95 1.78-1.23c.68-.28 1.41-.42 2.19-.42.42 0 .83.05 1.24.14s.8.23 1.19.42v4.08c-.34-.35-.68-.61-1.04-.78s-.73-.26-1.12-.26c-.61 0-1.1.2-1.46.6-.37.4-.55.93-.55 1.59s.18 1.16.53 1.55.83.58 1.42.58c.36 0 .72-.08 1.09-.25.37-.16.77-.42 1.21-.78l-.12 4.15zm7.83.23-2.51-4.61v4.61h-3.64v-11.02h3.64v4.7l2.36-4.7h4.21l-3.12 5.43 3.56 5.6h-4.5zm12.47.73c-3.32 0-6.02-2.88-6.02-6.42s2.7-6.42 6.02-6.42 6.02 2.88 6.02 6.42-2.69 6.42-6.02 6.42z" fill="#f16200"/><path d="m51.47 12.29c.41-.15.71-.38.91-.68s.3-.68.3-1.14c0-.76-.29-1.37-.87-1.83-.58-.47-1.35-.7-2.31-.7-1.08 0-1.89.26-2.46.77-.56.51-.85 1.26-.87 2.25h2.8c0-.21.04-.36.12-.47s.19-.16.34-.16c.14 0 .25.05.34.15s.13.23.13.38c0 .21-.07.36-.2.47s-.33.16-.59.16h-.13v1.83s.05 0 .08 0h.13c.27 0 .47.07.61.2s.21.32.21.58c0 .22-.06.39-.18.53-.12.13-.28.2-.48.2s-.36-.08-.46-.23c-.11-.15-.17-.38-.18-.69h-2.92v.02c0 1.07.33 1.91.98 2.51.65.61 1.55.91 2.7.91 1.07 0 1.93-.26 2.56-.79s.95-1.24.95-2.12c0-.57-.13-1.03-.39-1.4-.26-.36-.64-.6-1.14-.72z" fill="#f16200"/><g fill="#0f6700"><path d="m116.63.05h-55.38c-.35 0-.63.3-.63.66v.42c0 .36.28.66.63.66h55.38c.35 0 .63-.3.63-.66v-.42c0-.36-.28-.66-.63-.66"/><path d="m76.82 15.35c-.03.13-.06.25-.1.38-.45 1.44-2.27 1.98-3.37.96-.97-.91-1.88-1.88-2.82-2.83.11-.27.23-.55.36-.86h.15 3.61c1.1 0 1.93.68 2.14 1.77 0 .03.02.06.03.09z"/><path d="m65.63 20.87c-.13-.03-.25-.06-.38-.1-1.44-.45-1.96-2.24-.97-3.37.04-.05.09-.1.13-.14.9-.9 1.79-1.79 2.68-2.68.29.12.58.24.88.37v.15 3.57c0 1.15-.67 1.96-1.8 2.18-.02 0-.04.02-.06.02h-.49z"/><path d="m76.82 10.16c-.03.13-.06.26-.1.39-.27.86-1.06 1.46-1.95 1.47-1.26 0-2.52 0-3.78 0-.04 0-.07 0-.09 0-.12-.3-.24-.57-.36-.87.02-.02.05-.06.09-.1.86-.86 1.71-1.72 2.57-2.57.61-.6 1.34-.81 2.15-.55s1.29.84 1.44 1.67c0 .03.02.05.03.08v.49z"/><path d="m70.82 20.87c-.27-.1-.57-.16-.82-.3-.66-.38-1.02-.97-1.03-1.72-.02-1.28 0-2.57 0-3.85 0-.03 0-.05 0-.06.3-.12.57-.24.87-.36.02.02.06.05.1.09.85.85 1.71 1.71 2.56 2.56.61.61.82 1.33.57 2.15-.26.83-.84 1.31-1.69 1.46-.02 0-.04.02-.06.03h-.49z"/><path d="m67.97 10.08c-.3.13-.58.24-.87.36-.02-.02-.06-.05-.09-.08-.87-.87-1.75-1.74-2.62-2.62-.63-.64-.8-1.56-.43-2.36.36-.78 1.16-1.27 2.04-1.22 1.03.05 1.92.88 1.96 1.93.04 1.34.01 2.67.01 4z"/><path d="m66.03 12.02s-.05 0-.09 0c-1.25 0-2.5 0-3.75 0-1.13 0-2.06-.94-2.07-2.07 0-.85.49-1.62 1.26-1.95.8-.34 1.69-.19 2.31.42.65.64 1.3 1.3 1.95 1.95.24.24.48.47.71.72.03.03.05.11.04.14-.11.26-.23.51-.35.79z"/><path d="m69.84 10.45c-.29-.12-.57-.24-.88-.37 0-.02 0-.07 0-.13 0-1.22 0-2.45 0-3.67 0-1.12.81-2.02 1.92-2.12 1.06-.1 2.03.63 2.24 1.7.13.67-.02 1.29-.49 1.79-.91.95-1.85 1.87-2.78 2.8 0 0-.02.01 0 0z"/><path d="m66.04 13.01c.13.3.24.58.37.9-.06.05-.14.11-.21.18-.83.83-1.65 1.66-2.48 2.48-.58.57-1.28.78-2.06.56-.8-.22-1.3-.76-1.49-1.57-.29-1.24.66-2.51 1.93-2.54 1.3-.03 2.61 0 3.91 0h.03z"/><path d="m68.48 11.05c.81 0 1.47.67 1.46 1.49 0 .8-.67 1.45-1.48 1.45s-1.47-.67-1.46-1.49c0-.8.67-1.45 1.48-1.45z"/></g></svg>