<svg viewBox="0 0 112.78 20.81" xmlns="http://www.w3.org/2000/svg"><path d="m94.01 20.74-.72-6.54c-.05-.5-.09-1.01-.14-1.51-.04-.5-.08-1-.11-1.51-.07.47-.16.98-.29 1.51s-.28 1.1-.46 1.7l-1.9 6.35h-3.53l-1.9-6.35c-.19-.6-.34-1.17-.46-1.7s-.21-1.03-.28-1.51c-.04.51-.08 1.02-.12 1.51-.04.5-.08 1-.13 1.5l-.72 6.54h-5.82l2.82-16.52h6.13l1.17 4.09c.04.13.09.32.17.58.5 1.72.8 3.14.91 4.25h.1c.09-.7.23-1.44.41-2.23s.42-1.68.72-2.66l1.23-4.02h6.12l2.62 16.52z" fill="#aa0021"/><path d="m101.47 20.74v-16.52h11.05v4.48h-5.22v1.59h4.74v4.23h-4.74v1.74h5.36v4.48h-11.18z" fill="#aa0021"/><path d="m58.74 0h-58.13c-.33 0-.61.3-.61.66v.42c0 .36.28.66.61.66h58.13c.34 0 .61-.3.61-.66v-.42c0-.36-.28-.66-.61-.66" fill="#005429"/><path d="m9.81 10.35h-.58v1.84h.58c.35 0 .62-.08.81-.24s.28-.38.28-.67-.1-.52-.29-.68-.46-.25-.8-.25z" fill="#005429"/><path d="m51.51 4.07h-43.67c-4.31 0-7.84 3.77-7.84 8.37s3.53 8.37 7.84 8.37h43.67c4.31 0 7.84-3.77 7.84-8.37s-3.53-8.37-7.84-8.37zm-38.04 10.09c-.65.6-1.68.9-3.09.9h-1.16v3.25h-3.72v-11.02h4.44c1.56 0 2.7.32 3.43.96.72.64 1.08 1.66 1.08 3.06 0 1.3-.33 2.25-.98 2.85zm6.11 4.15h-3.78v-11.02h3.78v11.03zm9.52-.23c-.41.18-.81.31-1.21.4-.41.09-.81.13-1.21.13-.5 0-.99-.06-1.45-.18-.47-.12-.89-.29-1.26-.51-.91-.56-1.6-1.27-2.07-2.13s-.7-1.84-.7-2.96c0-.82.13-1.59.4-2.29s.65-1.32 1.16-1.86 1.11-.95 1.78-1.23c.68-.28 1.41-.42 2.19-.42.42 0 .83.05 1.24.14s.8.23 1.19.42v4.08c-.34-.35-.68-.61-1.04-.78s-.73-.26-1.12-.26c-.61 0-1.1.2-1.46.6-.37.4-.55.93-.55 1.59s.18 1.16.53 1.55.83.58 1.42.58c.36 0 .72-.08 1.09-.25.37-.16.77-.42 1.21-.78l-.12 4.15zm7.83.23-2.51-4.61v4.61h-3.64v-11.02h3.64v4.7l2.36-4.7h4.21l-3.12 5.43 3.56 5.6h-4.5zm12.47.73c-3.32 0-6.02-2.88-6.02-6.42s2.7-6.42 6.02-6.42 6.02 2.88 6.02 6.42-2.69 6.42-6.02 6.42z" fill="#005429"/><path d="m51.47 12.29c.41-.15.71-.38.91-.68s.3-.68.3-1.14c0-.76-.29-1.37-.87-1.83-.58-.47-1.35-.7-2.31-.7-1.08 0-1.89.26-2.46.77-.56.51-.85 1.26-.87 2.25h2.8c0-.21.04-.36.12-.47s.19-.16.34-.16c.14 0 .25.05.34.15s.13.23.13.38c0 .21-.07.36-.2.47s-.33.16-.59.16h-.13v1.83s.05 0 .08 0h.13c.27 0 .47.07.61.2s.21.32.21.58c0 .22-.06.39-.18.53-.12.13-.28.2-.48.2s-.36-.08-.46-.23c-.11-.15-.17-.38-.18-.69h-2.92v.02c0 1.07.33 1.91.98 2.51.65.61 1.55.91 2.7.91 1.07 0 1.93-.26 2.56-.79s.95-1.24.95-2.12c0-.57-.13-1.03-.39-1.4-.26-.36-.64-.6-1.14-.72z" fill="#005429"/><g fill="#aa0021"><path d="m112.2.05h-51c-.32 0-.58.3-.58.66v.42c0 .36.26.66.58.66h51c.32 0 .58-.3.58-.66v-.42c0-.36-.26-.66-.58-.66"/><path d="m59.88 19.2c.05-.04.11-.08.16-.12.87-.79 1.74-1.57 2.61-2.36.04-.04.08-.07.07-.04.41.41.83.82 1.25 1.25-.21.23-.46.51-.72.8-.57.63-1.15 1.26-1.72 1.9-.03.04-.06.08-.09.13h-.03c-.51-.5-1.01-1.01-1.52-1.51 0-.01 0-.02 0-.03z"/><path d="m76.42 5.4c-.07.34-.14.69-.23 1.03-.06.2-.16.4-.24.59-.03.08-.08.1-.17.09-.63-.1-1.26-.13-1.9-.04-.12.02-.23.04-.35.06.03-.22.08-.44.08-.66 0-.53-.04-1.06-.07-1.59 0-.1.02-.14.1-.18.83-.41 1.7-.54 2.62-.42.05 0 .1.08.12.13.03.08.03.17.04.25z"/><path d="m64.45 16.92c2.38-2.19 6.46-2.38 9.12-.03-2.46 2.25-6.54 2.32-9.12.03z"/><path d="m63.72 16.2c-2.21-2.49-2.26-6.52.03-9.13 1.02 1.25 1.61 2.67 1.67 4.28.08 1.83-.52 3.45-1.7 4.85z"/><path d="m65.69 14.93c.28-.62.48-1.24.59-1.89.12-.66.16-1.33.09-2-.02-.19.03-.28.21-.36 1.11-.49 2.23-.56 3.38-.18.1.03.16.09.19.19.4 1.19.31 2.34-.23 3.47-.04.08-.08.12-.18.11-1.39-.13-2.73.1-4.01.66 0 0 0 0-.04 0z"/><path d="m66.22 9.77c-.2-.53-.38-1.05-.61-1.55-.16-.35-.37-.68-.56-1.01-.05-.09-.06-.15 0-.24.52-.67 1.19-1.15 1.96-1.51.14-.06.28-.11.42-.17.09-.04.13-.01.18.06.43.74.77 1.52.84 2.39.04.53-.07 1.02-.39 1.46-.04.05-.1.1-.16.1-.59.07-1.16.23-1.68.46z"/><path d="m73.55 15.65c-.81-.57-1.71-.97-2.66-1.2.13-.43.25-.85.37-1.27.02-.09.05-.18.05-.27-.01-.23.11-.34.29-.45.57-.32 1.17-.35 1.78-.22.69.14 1.33.43 1.92.8.04.02.07.1.06.13-.37.98-.91 1.83-1.78 2.45 0 0-.02 0-.04.01z"/><path d="m69.45 7.42c-.15-.48-.26-.96-.44-1.4-.11-.26-.05-.42.12-.61.43-.47.98-.72 1.58-.9.52-.15 1.05-.22 1.59-.24.05 0 .14.04.14.07.2.82.31 1.64.15 2.49-.02.13-.06.16-.2.15-.86-.05-1.72-.01-2.55.28-.14.05-.28.11-.39.15z"/><path d="m73.21 11.24c.45-.97.52-1.98.45-3.01 0-.11.03-.14.13-.16.65-.13 1.29-.09 1.94.02.19.03.37.08.55.11.09.02.11.05.11.14-.04.88-.19 1.73-.62 2.51-.18.33-.41.61-.73.82-.05.03-.13.06-.17.04-.53-.22-1.07-.39-1.66-.47z"/><path d="m71.36 11.5c-.09-.36-.15-.71-.27-1.05-.28-.78-.11-.61-.89-.89-.34-.12-.69-.18-1.04-.27.06-.21.13-.43.21-.65.02-.05.08-.09.12-.12.44-.32.96-.46 1.49-.53.56-.08 1.11-.07 1.68 0 .01.08.03.16.03.24.06.82.04 1.63-.27 2.41-.03.08-.07.17-.11.25-.12.25-.27.45-.58.49-.12.02-.24.08-.36.13z"/></g></svg>