<svg viewBox="0 0 109.53 20.82" xmlns="http://www.w3.org/2000/svg"><path d="m58.65 0h-58.04c-.33 0-.61.3-.61.66v.42c0 .36.28.66.61.66h58.04c.34 0 .61-.3.61-.66v-.42c0-.36-.27-.66-.61-.66" fill="#419139"/><path d="m9.8 10.34h-.58v1.84h.58c.35 0 .62-.08.81-.24s.28-.38.28-.67-.1-.52-.29-.68-.46-.24-.8-.24z" fill="#419139"/><path d="m51.44 4.07h-43.61c-4.31 0-7.83 3.76-7.83 8.35s3.52 8.36 7.83 8.36h43.61c4.31 0 7.83-3.76 7.83-8.36s-3.52-8.35-7.83-8.35zm-37.99 10.07c-.65.6-1.68.9-3.09.9h-1.16v3.25h-3.71v-11.01h4.43c1.56 0 2.7.32 3.42.96s1.08 1.66 1.08 3.05c0 1.3-.33 2.25-.97 2.85zm6.1 4.15h-3.77v-11.01h3.77zm9.51-.23c-.4.18-.81.31-1.21.39-.4.09-.81.13-1.21.13-.5 0-.99-.06-1.45-.18-.47-.12-.89-.29-1.26-.51-.91-.56-1.6-1.27-2.07-2.13s-.7-1.84-.7-2.95c0-.82.13-1.58.4-2.29.27-.7.65-1.32 1.16-1.86s1.1-.95 1.78-1.23c.67-.28 1.4-.42 2.19-.42.42 0 .83.05 1.24.14s.8.23 1.19.42v4.08c-.34-.35-.68-.6-1.04-.77s-.72-.26-1.11-.26c-.61 0-1.09.2-1.46.6s-.55.93-.55 1.59.18 1.16.53 1.55.82.58 1.42.58c.36 0 .72-.08 1.09-.24s.77-.42 1.21-.78l-.12 4.14zm7.81.23-2.5-4.6v4.6h-3.64v-11.01h3.64v4.69l2.35-4.69h4.2l-3.12 5.42 3.55 5.59h-4.49zm12.45.73c-3.32 0-6.01-2.87-6.01-6.41s2.69-6.41 6.01-6.41 6.01 2.87 6.01 6.41-2.69 6.41-6.01 6.41z" fill="#419139"/><path d="m51.39 12.27c.4-.15.71-.38.91-.68s.3-.68.3-1.14c0-.75-.29-1.36-.87-1.83s-1.35-.7-2.31-.7c-1.07 0-1.89.26-2.45.77s-.85 1.26-.87 2.25h2.8c0-.21.04-.36.12-.47s.19-.16.34-.16c.14 0 .25.05.34.15s.13.23.13.38c0 .21-.07.36-.2.47s-.33.16-.59.16h-.13v1.83s.05 0 .08 0h.13c.27 0 .47.07.61.2s.21.32.21.58c0 .22-.06.39-.18.53-.12.13-.28.2-.48.2s-.35-.08-.46-.23-.17-.38-.18-.69h-2.91v.02c0 1.07.33 1.9.98 2.51s1.55.91 2.7.91c1.07 0 1.93-.26 2.56-.79s.95-1.23.95-2.12c0-.57-.13-1.03-.39-1.39s-.64-.6-1.14-.72z" fill="#419139"/><g fill="#d84707"><path d="m108.99 0h-47.91c-.3 0-.54.3-.54.66v.42c0 .36.25.66.54.66h47.91c.3 0 .54-.3.54-.66v-.42c0-.36-.24-.66-.54-.66"/><path d="m95.92 20.78-.72-6.55c-.04-.5-.09-1.01-.14-1.51s-.08-1-.11-1.51c-.07.47-.16.98-.29 1.51-.12.53-.28 1.1-.46 1.7l-1.9 6.35h-3.53l-1.9-6.35c-.19-.6-.34-1.17-.46-1.7s-.21-1.03-.28-1.51c-.04.51-.08 1.02-.12 1.51-.04.5-.08 1-.13 1.5l-.72 6.55h-5.82l2.82-16.52h6.13l1.17 4.09c.04.13.09.32.17.58.5 1.72.8 3.14.91 4.26h.1c.09-.7.23-1.44.41-2.23s.42-1.68.72-2.66l1.23-4.02h6.12l2.62 16.52h-5.82z"/><path d="m103.49 20.78v-16.53h6.04v16.53z"/><path d="m65.06 14.1c-.08-2.38.77-4.33 2.67-5.78.18-.14.26-.27.26-.5 0-.73 0-1.46 0-2.19 0-.14.04-.27.1-.39.14-.32.31-.62.48-.98.2.41.39.78.57 1.15.02.05 0 .1 0 .16v2.32c0 .17.06.28.19.38 1.53 1.13 2.43 2.64 2.68 4.52.06.42.05.86.07 1.31zm2.03-.58v-.85h-.56v.85zm1.19-.86v.86h.56v-.86zm1.75 0v.86h.56v-.86z"/><path d="m62.44 20.82v-.56h12.23v.56z"/><path d="m72.05 14.71v1.15h-.57v-.56h-.58v.56h-.88v-.55h-.58v.56h-1.75v-.56h-.58v.56h-.88v-.56h-.58v.56h-.58v-1.15h6.99z"/><path d="m64.75 19.65h-.57v-.85h-.58v.85h-.58v-2.02h1.73z"/><path d="m67.08 19.65h-.57v-.85h-.58v.85h-.58v-2.02h1.72v2.02z"/><path d="m68.85 19.65v-.86h-.58v.85h-.58v-2.02h1.73v2.02h-.58z"/><path d="m70.02 19.65v-2.02h1.73v2.02h-.56v-.85h-.58v.85z"/><path d="m72.36 17.62h1.73v2.03h-.57v-.86h-.58v.85h-.58z"/><path d="m66.5 17.03h-3.48v-.57h3.48z"/><path d="m70.61 17.02v-.56h3.48v.56z"/><path d="m67.11 16.46h2.89v.56h-2.89z"/></g></svg>