<svg viewBox="0 0 134.2 20.78" xmlns="http://www.w3.org/2000/svg"><g fill="#f16000"><path d="m58.65 0h-58.04c-.33 0-.61.3-.61.66v.42c0 .36.28.66.61.66h58.04c.34 0 .61-.3.61-.66v-.42c0-.36-.27-.66-.61-.66"/><path d="m9.8 10.34h-.58v1.84h.58c.35 0 .62-.08.81-.24s.28-.38.28-.67-.1-.52-.29-.68-.46-.24-.8-.24z"/><path d="m51.44 4.07h-43.61c-4.31 0-7.83 3.76-7.83 8.35s3.52 8.36 7.83 8.36h43.61c4.31 0 7.83-3.76 7.83-8.36s-3.52-8.35-7.83-8.35zm-37.99 10.07c-.65.6-1.68.9-3.09.9h-1.16v3.25h-3.71v-11.01h4.43c1.56 0 2.7.32 3.42.96s1.08 1.66 1.08 3.05c0 1.3-.33 2.25-.97 2.85zm6.1 4.15h-3.77v-11.01h3.77zm9.51-.23c-.4.18-.81.31-1.21.39-.4.09-.81.13-1.21.13-.5 0-.99-.06-1.45-.18-.47-.12-.89-.29-1.26-.51-.91-.56-1.6-1.27-2.07-2.13s-.7-1.84-.7-2.95c0-.82.13-1.58.4-2.29.27-.7.65-1.32 1.16-1.86s1.1-.95 1.78-1.23c.67-.28 1.4-.42 2.19-.42.42 0 .83.05 1.24.14s.8.23 1.19.42v4.08c-.34-.35-.68-.6-1.04-.77s-.72-.26-1.11-.26c-.61 0-1.09.2-1.46.6s-.55.93-.55 1.59.18 1.16.53 1.55.82.58 1.42.58c.36 0 .72-.08 1.09-.24s.77-.42 1.21-.78l-.12 4.14zm7.81.23-2.5-4.6v4.6h-3.64v-11.01h3.64v4.69l2.35-4.69h4.2l-3.12 5.42 3.55 5.59h-4.49zm12.45.73c-3.32 0-6.01-2.87-6.01-6.41s2.69-6.41 6.01-6.41 6.01 2.87 6.01 6.41-2.69 6.41-6.01 6.41z"/><path d="m51.39 12.27c.4-.15.71-.38.91-.68s.3-.68.3-1.14c0-.75-.29-1.36-.87-1.83s-1.35-.7-2.31-.7c-1.07 0-1.89.26-2.45.77s-.85 1.26-.87 2.25h2.8c0-.21.04-.36.12-.47s.19-.16.34-.16c.14 0 .25.05.34.15s.13.23.13.38c0 .21-.07.36-.2.47s-.33.16-.59.16h-.13v1.83s.05 0 .08 0h.13c.27 0 .47.07.61.2s.21.32.21.58c0 .22-.06.39-.18.53-.12.13-.28.2-.48.2s-.35-.08-.46-.23-.17-.38-.18-.69h-2.91v.02c0 1.07.33 1.9.98 2.51s1.55.91 2.7.91c1.07 0 1.93-.26 2.56-.79s.95-1.23.95-2.12c0-.57-.13-1.03-.39-1.39s-.64-.6-1.14-.72z"/></g><path d="m133.39 0h-72.04c-.45 0-.82.3-.82.66v.42c0 .36.37.66.82.66h72.04c.45 0 .82-.3.82-.66v-.42c0-.36-.37-.66-.82-.66" fill="#006182"/><path d="m109.92 20.78-.72-6.55c-.04-.5-.09-1.01-.14-1.51s-.08-1-.11-1.51c-.07.47-.16.98-.29 1.51-.12.53-.28 1.1-.46 1.7l-1.9 6.35h-3.53l-1.9-6.35c-.19-.6-.34-1.17-.46-1.7s-.21-1.03-.28-1.51c-.04.51-.08 1.02-.12 1.51-.04.5-.08 1-.13 1.5l-.72 6.55h-5.82l2.82-16.52h6.13l1.17 4.09c.04.13.09.32.17.58.5 1.72.8 3.14.91 4.26h.1c.09-.7.23-1.44.41-2.23s.42-1.68.72-2.66l1.23-4.02h6.12l2.62 16.52h-5.82z" fill="#006182"/><path d="m117.38 20.78v-16.53h5.82l5.14 8.65c-.07-.38-.11-.81-.14-1.28s-.04-1.08-.04-1.83v-5.54h5.72v16.53h-5.87l-5.08-8.58c.06.37.1.77.14 1.19.03.43.05.9.05 1.43v5.96h-5.73z" fill="#006182"/><path d="m92.38 4.32c-1.43.44-2.87.87-4.29 1.34-1.14.38-2.27.82-3.4 1.25-1.09.42-2.13.92-3.04 1.68-.76.64-1.52 1.28-2.29 1.89-.32.25-.67.48-1.08.55-.29-.86-.21-1.07.72-1.78-.11-.08-.21-.15-.31-.22-.8-.57-1.82-.28-2.19.65-.16.41-.25.85-.38 1.31-.08-.03-.17-.05-.25-.1-.39-.26-.8-.49-1.15-.8-1.42-1.22-2.81-2.47-4.61-3.1-.46-.16-.9-.35-1.31-.51v.01l-1.67-.61s0 0 .01-.02c-.12-.04-.22-.07-.31-.1l-.4-.15s.01-.01.02-.02c-.16-.05-.32-.1-.48-.15-1.31-.41-2.57-.8-3.84-1.19-.03.03-.05.06-.08.09.14.58.27 1.16.42 1.73.02.07.15.14.24.16.79.2 1.58.38 2.37.58.04.01.08.02.12.03l3.47 1.17c.38.14.76.29 1.14.43-.07.08-.11.08-.15.07-.66-.17-1.33-.34-1.99-.5-.02 0-.05 0-.08-.01l-.52-.15s-.01-.02-.02-.03c-.03 0-.06 0-.09.01l-1.6-.26c-.58-.1-1.16-.18-1.74-.26-.24-.03-.49-.03-.74-.04.11.75.27.92.95.99.08 0 .17.03.25.04.76.14 1.52.29 2.22.42l.52.13c.2.06.41.13.64.2-1.32-.09-2.6-.18-3.89-.28-.01.03-.03.07-.04.1.06.11.13.21.18.32.13.36.37.49.76.47.5-.02.99.03 1.49.05v.05c-.57.06-1.14.13-1.76.2.92 1.33 2.1 2.23 3.48 2.92 1.18.59 2.36 1.2 3.48 1.87 1.06.64 2.05 1.37 3.07 2.07.19.13.35.13.56.02.61-.34.99-.84 1.22-1.48-.22 1.51-1.25 2.38-2.56 3.05.2.26.36.5.56.7.68.67.46.72 1.18.01.26-.26.47-.56.7-.85l.07.03c-.24.58-.49 1.16-.76 1.82.43.12.86.26 1.31.36.47.1.51.05.58-.44.05-.39.13-.78.2-1.16.13.47.21.94.3 1.4.02.09.13.24.19.24.58-.02 1.13-.17 1.67-.47-.32-.56-.62-1.1-.7-1.69.37.39.73.79 1.11 1.17.06.06.26.08.31.03.35-.36.69-.73 1.05-1.13-1.41-.69-2.44-1.6-2.64-3.17.35.89.62 1.25 1.29 1.59.13.07.36.06.49 0 .3-.16.57-.37.85-.56 1.17-.76 2.32-1.56 3.52-2.27.95-.56 1.98-.99 2.95-1.52 1.1-.6 1.99-1.44 2.75-2.53-.63-.07-1.21-.14-1.79-.2.59-.07 1.17-.09 1.76-.12.11 0 .26-.03.31-.1.15-.21.27-.45.45-.78-1.31.09-2.51.17-3.72.25.04-.07.08-.09.13-.1 1.17-.23 2.33-.45 3.5-.69.15-.03.35-.1.42-.21.14-.21.21-.48.35-.83-1.25.19-2.42.33-3.57.55-1.14.21-2.27.5-3.41.75.13-.1.27-.18.42-.23 1.24-.44 2.47-.9 3.72-1.29.88-.27 1.78-.46 2.68-.67.3-.07.56-.13.57-.51 0-.11.07-.22.1-.34.08-.38.16-.76.25-1.16-.1 0-.14 0-.18.02z" fill="#006182"/></svg>