<svg viewBox="0 0 113.21 21.15" xmlns="http://www.w3.org/2000/svg"><path d="m82.54 20.73v-15.78h5.56l4.9 8.25c-.06-.37-.11-.77-.13-1.22s-.04-1.03-.04-1.75v-5.28h5.46v15.77h-5.6l-4.85-8.19c.06.35.1.73.13 1.14s.04.86.04 1.36v5.69h-5.47z" fill="#af8017"/><path d="m112.8 11.21c-.52-.5-1.04-.87-1.58-1.11s-1.11-.37-1.7-.37c-.93 0-1.67.29-2.24.86-.56.57-.85 1.33-.85 2.28s.27 1.67.81 2.22 1.26.83 2.17.83c.55 0 1.1-.12 1.66-.35s1.18-.61 1.85-1.12l-.18 5.94c-.62.25-1.24.44-1.85.57-.62.13-1.24.19-1.85.19-.77 0-1.51-.09-2.22-.26s-1.35-.42-1.93-.73c-1.39-.8-2.45-1.82-3.16-3.05s-1.07-2.64-1.07-4.23c0-1.18.2-2.27.61-3.28s1-1.89 1.77-2.66c.78-.78 1.69-1.36 2.72-1.76s2.15-.6 3.35-.6c.64 0 1.27.07 1.89.2s1.23.33 1.82.6v5.84z" fill="#af8017"/><g fill="#077814"><path d="m58.74 0h-58.13c-.33 0-.61.3-.61.66v.42c0 .36.28.66.61.66h58.13c.34 0 .61-.3.61-.66v-.42c0-.36-.28-.66-.61-.66"/><path d="m9.81 10.35h-.58v1.84h.58c.35 0 .62-.08.81-.24s.28-.38.28-.67-.1-.52-.29-.68-.46-.25-.8-.25z"/><path d="m51.51 4.07h-43.67c-4.31 0-7.84 3.77-7.84 8.37s3.53 8.37 7.84 8.37h43.67c4.31 0 7.84-3.77 7.84-8.37s-3.53-8.37-7.84-8.37zm-38.04 10.09c-.65.6-1.68.9-3.09.9h-1.16v3.25h-3.72v-11.02h4.44c1.56 0 2.7.32 3.43.96.72.64 1.08 1.66 1.08 3.06 0 1.3-.33 2.25-.98 2.85zm6.11 4.15h-3.78v-11.02h3.78v11.03zm9.52-.23c-.41.18-.81.31-1.21.4-.41.09-.81.13-1.21.13-.5 0-.99-.06-1.45-.18-.47-.12-.89-.29-1.26-.51-.91-.56-1.6-1.27-2.07-2.13s-.7-1.84-.7-2.96c0-.82.13-1.59.4-2.29s.65-1.32 1.16-1.86 1.11-.95 1.78-1.23c.68-.28 1.41-.42 2.19-.42.42 0 .83.05 1.24.14s.8.23 1.19.42v4.08c-.34-.35-.68-.61-1.04-.78s-.73-.26-1.12-.26c-.61 0-1.1.2-1.46.6-.37.4-.55.93-.55 1.59s.18 1.16.53 1.55.83.58 1.42.58c.36 0 .72-.08 1.09-.25.37-.16.77-.42 1.21-.78l-.12 4.15zm7.83.23-2.51-4.61v4.61h-3.64v-11.02h3.64v4.7l2.36-4.7h4.21l-3.12 5.43 3.56 5.6h-4.5zm12.47.73c-3.32 0-6.02-2.88-6.02-6.42s2.7-6.42 6.02-6.42 6.02 2.88 6.02 6.42-2.69 6.42-6.02 6.42z"/><path d="m51.47 12.29c.41-.15.71-.38.91-.68s.3-.68.3-1.14c0-.76-.29-1.37-.87-1.83-.58-.47-1.35-.7-2.31-.7-1.08 0-1.89.26-2.46.77-.56.51-.85 1.26-.87 2.25h2.8c0-.21.04-.36.12-.47s.19-.16.34-.16c.14 0 .25.05.34.15s.13.23.13.38c0 .21-.07.36-.2.47s-.33.16-.59.16h-.13v1.83s.05 0 .08 0h.13c.27 0 .47.07.61.2s.21.32.21.58c0 .22-.06.39-.18.53-.12.13-.28.2-.48.2s-.36-.08-.46-.23c-.11-.15-.17-.38-.18-.69h-2.92v.02c0 1.07.33 1.91.98 2.51.65.61 1.55.91 2.7.91 1.07 0 1.93-.26 2.56-.79s.95-1.24.95-2.12c0-.57-.13-1.03-.39-1.4-.26-.36-.64-.6-1.14-.72z"/></g><path d="m112.63.05h-51.42c-.32 0-.58.3-.58.66v.42c0 .36.26.66.58.66h51.42c.32 0 .58-.3.58-.66v-.42c0-.36-.26-.66-.58-.66" fill="#af8017"/><path d="m80.51 20.23c-.16.43-.48.57-.93.57-6.77 0-13.53 0-20.3 0-.15 0-.31 0-.45-.05-.4-.13-.58-.56-.43-.95.03-.08.07-.16.12-.23 2.71-4.71 5.42-9.42 8.12-14.13.14-.25.31-.45.62-.48.37-.04.61.15.78.46.5.94 1.01 1.88 1.52 2.82.48.89.96 1.78 1.43 2.66.04.07.08.13.13.22.42-.39.82-.77 1.23-1.14.12-.1.25-.21.39-.26.32-.11.62.02.85.34.51.72 1.01 1.44 1.52 2.16 1.69 2.39 3.38 4.78 5.06 7.18.12.17.22.35.33.53v.3zm-13.18-13.04c-.06.1-.11.18-.15.25-.87 1.52-1.74 3.04-2.62 4.55-.12.21-.17.39-.03.59.06.09.14.23.23.24.08 0 .21-.1.27-.19.4-.62.79-1.25 1.19-1.88.16-.25.29-.26.48-.02.25.32.5.63.75.95.1.12.21.2.35.08.46-.39.91-.79 1.37-1.2-.61-1.13-1.2-2.23-1.82-3.37zm3.6 5.84v1.53c0 .2.18.27.34.15.05-.04.1-.09.14-.13.48-.48.97-.97 1.45-1.45.22-.22.28-.22.51.01.61.64 1.23 1.28 1.84 1.92.05.05.08.13.12.19.03-.02.05-.05.08-.07-.86-1.21-1.71-2.43-2.58-3.65-.4.37-.78.73-1.16 1.09-.21.2-.41.41-.75.41z" fill="#af8017"/></svg>