<svg viewBox="0 0 114.42 20.81" xmlns="http://www.w3.org/2000/svg"><path d="m80.54 20.73v-15.78h5.56l4.9 8.25c-.06-.37-.11-.77-.13-1.22s-.04-1.03-.04-1.75v-5.28h5.46v15.77h-5.6l-4.85-8.19c.06.35.1.73.13 1.14s.04.86.04 1.36v5.69h-5.47z" fill="#5c00a0"/><path d="m99.19 20.73v-15.78h5.68v5.25h3.46v-5.25h5.67v15.77h-5.67v-5.56h-3.46v5.56h-5.68z" fill="#5c00a0"/><path d="m58.74 0h-58.13c-.33 0-.61.3-.61.66v.42c0 .36.28.66.61.66h58.13c.34 0 .61-.3.61-.66v-.42c0-.36-.28-.66-.61-.66" fill="#008bd0"/><path d="m9.81 10.35h-.58v1.84h.58c.35 0 .62-.08.81-.24s.28-.38.28-.67-.1-.52-.29-.68-.46-.25-.8-.25z" fill="#008bd0"/><path d="m51.51 4.07h-43.67c-4.31 0-7.84 3.77-7.84 8.37s3.53 8.37 7.84 8.37h43.67c4.31 0 7.84-3.77 7.84-8.37s-3.53-8.37-7.84-8.37zm-38.04 10.09c-.65.6-1.68.9-3.09.9h-1.16v3.25h-3.72v-11.02h4.44c1.56 0 2.7.32 3.43.96.72.64 1.08 1.66 1.08 3.06 0 1.3-.33 2.25-.98 2.85zm6.11 4.15h-3.78v-11.02h3.78v11.03zm9.52-.23c-.41.18-.81.31-1.21.4-.41.09-.81.13-1.21.13-.5 0-.99-.06-1.45-.18-.47-.12-.89-.29-1.26-.51-.91-.56-1.6-1.27-2.07-2.13s-.7-1.84-.7-2.96c0-.82.13-1.59.4-2.29s.65-1.32 1.16-1.86 1.11-.95 1.78-1.23c.68-.28 1.41-.42 2.19-.42.42 0 .83.05 1.24.14s.8.23 1.19.42v4.08c-.34-.35-.68-.61-1.04-.78s-.73-.26-1.12-.26c-.61 0-1.1.2-1.46.6-.37.4-.55.93-.55 1.59s.18 1.16.53 1.55.83.58 1.42.58c.36 0 .72-.08 1.09-.25.37-.16.77-.42 1.21-.78l-.12 4.15zm7.83.23-2.51-4.61v4.61h-3.64v-11.02h3.64v4.7l2.36-4.7h4.21l-3.12 5.43 3.56 5.6h-4.5zm12.47.73c-3.32 0-6.02-2.88-6.02-6.42s2.7-6.42 6.02-6.42 6.02 2.88 6.02 6.42-2.69 6.42-6.02 6.42z" fill="#008bd0"/><path d="m51.47 12.29c.41-.15.71-.38.91-.68s.3-.68.3-1.14c0-.76-.29-1.37-.87-1.83-.58-.47-1.35-.7-2.31-.7-1.08 0-1.89.26-2.46.77-.56.51-.85 1.26-.87 2.25h2.8c0-.21.04-.36.12-.47s.19-.16.34-.16c.14 0 .25.05.34.15s.13.23.13.38c0 .21-.07.36-.2.47s-.33.16-.59.16h-.13v1.83s.05 0 .08 0h.13c.27 0 .47.07.61.2s.21.32.21.58c0 .22-.06.39-.18.53-.12.13-.28.2-.48.2s-.36-.08-.46-.23c-.11-.15-.17-.38-.18-.69h-2.92v.02c0 1.07.33 1.91.98 2.51.65.61 1.55.91 2.7.91 1.07 0 1.93-.26 2.56-.79s.95-1.24.95-2.12c0-.57-.13-1.03-.39-1.4-.26-.36-.64-.6-1.14-.72z" fill="#008bd0"/><g fill="#5c00a0"><path d="m113.83.05h-52.61c-.33 0-.6.3-.6.66v.42c0 .36.27.66.6.66h52.61c.33 0 .6-.3.6-.66v-.42c0-.36-.27-.66-.6-.66"/><path d="m61.43 16.39h.19 4.24c.11 0 .19.03.27.12.3.33.61.66.93.99.05.05.14.09.21.09h4.93c.07 0 .15-.04.19-.09.31-.33.6-.67.91-1 .05-.05.13-.1.19-.1h3.75c.04 0 .07 0 .11.01.01.29.02.56-.13.84-.63 1.13-1.23 2.28-1.84 3.42-.05.1-.11.14-.23.14-3.84 0-7.68 0-11.52 0-.11 0-.16-.03-.21-.13-.63-1.18-1.26-2.36-1.89-3.53-.03-.05-.06-.09-.09-.14 0-.21 0-.41 0-.62z"/><path d="m75.2 4.88c0 .06-.01.12-.01.18v2.39.2h-2.72v.91h2.11c-.04.09-.07.15-.11.21-.21.39-.44.77-.53 1.22-.13.69-.07 1.35.25 1.98.12.23.25.46.38.72h-2.11v1.05h2.38v1.72c-.15 0-.29 0-.43 0-.44 0-.88 0-1.32 0-.08 0-.17.04-.22.1-.31.33-.6.67-.91 1-.04.04-.11.09-.16.09-.87 0-1.74 0-2.61 0-.02 0-.03 0-.06 0v-2.9h2.39v-1.05c-.05 0-.11 0-.16 0-.31 0-.62 0-.93 0-.09 0-.14-.02-.18-.1-.7-1.31-.7-2.61 0-3.92.04-.08.1-.1.18-.1h1.11v-3.69h3.67z"/><path d="m67.83 4.88v.93h-1.02v.71h1.71c-.1.19-.19.35-.28.51-.51.89-.51 1.77 0 2.66.09.15.17.31.25.46 0 0 0 .02.01.05h-1.69v.8h1.72c-.33.59-.66 1.15-.66 1.84s.32 1.25.66 1.84h-1.72v1.18c-.11-.11-.2-.18-.28-.28-.07-.09-.15-.13-.27-.12-.12 0-.25 0-.39 0v-.78c-.31 0-.6-.02-.88 0-.25.02-.36-.07-.47-.29-.53-1.12-.49-2.22.11-3.3.03-.05.11-.09.17-.09h1.05v-.8s-.09 0-.14 0c-.31 0-.61 0-.92 0-.05 0-.13-.04-.16-.08-.65-1.17-.65-2.34 0-3.51.02-.04.1-.08.16-.08h.89.19v-1.64h1.96z"/></g></svg>