<svg viewBox="0 0 116.17 21.38" xmlns="http://www.w3.org/2000/svg"><path d="m58.65 0h-58.04c-.33 0-.61.3-.61.66v.42c0 .36.28.66.61.66h58.04c.34 0 .61-.3.61-.66v-.42c0-.36-.27-.66-.61-.66" fill="#b62700"/><path d="m9.8 10.34h-.58v1.84h.58c.35 0 .62-.08.81-.24s.28-.38.28-.67-.1-.52-.29-.68-.46-.24-.8-.24z" fill="#b62700"/><path d="m51.44 4.07h-43.61c-4.31 0-7.83 3.76-7.83 8.35s3.52 8.36 7.83 8.36h43.61c4.31 0 7.83-3.76 7.83-8.36s-3.52-8.35-7.83-8.35zm-37.99 10.07c-.65.6-1.68.9-3.09.9h-1.16v3.25h-3.71v-11.01h4.43c1.56 0 2.7.32 3.42.96s1.08 1.66 1.08 3.05c0 1.3-.33 2.25-.97 2.85zm6.1 4.15h-3.77v-11.01h3.77zm9.51-.23c-.4.18-.81.31-1.21.39-.4.09-.81.13-1.21.13-.5 0-.99-.06-1.45-.18-.47-.12-.89-.29-1.26-.51-.91-.56-1.6-1.27-2.07-2.13s-.7-1.84-.7-2.95c0-.82.13-1.58.4-2.29.27-.7.65-1.32 1.16-1.86s1.1-.95 1.78-1.23c.67-.28 1.4-.42 2.19-.42.42 0 .83.05 1.24.14s.8.23 1.19.42v4.08c-.34-.35-.68-.6-1.04-.77s-.72-.26-1.11-.26c-.61 0-1.09.2-1.46.6s-.55.93-.55 1.59.18 1.16.53 1.55.82.58 1.42.58c.36 0 .72-.08 1.09-.24s.77-.42 1.21-.78l-.12 4.14zm7.81.23-2.5-4.6v4.6h-3.64v-11.01h3.64v4.69l2.35-4.69h4.2l-3.12 5.42 3.55 5.59h-4.49zm12.45.73c-3.32 0-6.01-2.87-6.01-6.41s2.69-6.41 6.01-6.41 6.01 2.87 6.01 6.41-2.69 6.41-6.01 6.41z" fill="#b62700"/><path d="m51.39 12.27c.4-.15.71-.38.91-.68s.3-.68.3-1.14c0-.75-.29-1.36-.87-1.83s-1.35-.7-2.31-.7c-1.07 0-1.89.26-2.45.77s-.85 1.26-.87 2.25h2.8c0-.21.04-.36.12-.47s.19-.16.34-.16c.14 0 .25.05.34.15s.13.23.13.38c0 .21-.07.36-.2.47s-.33.16-.59.16h-.13v1.83s.05 0 .08 0h.13c.27 0 .47.07.61.2s.21.32.21.58c0 .22-.06.39-.18.53-.12.13-.28.2-.48.2s-.35-.08-.46-.23-.17-.38-.18-.69h-2.91v.02c0 1.07.33 1.9.98 2.51s1.55.91 2.7.91c1.07 0 1.93-.26 2.56-.79s.95-1.23.95-2.12c0-.57-.13-1.03-.39-1.39s-.64-.6-1.14-.72z" fill="#b62700"/><g fill="#5812ff"><path d="m115.56 0h-54.41c-.34 0-.62.3-.62.66v.42c0 .36.28.66.62.66h54.4c.34 0 .62-.3.62-.66v-.42c0-.36-.28-.66-.62-.66"/><path d="m97.9 12.55c0 1.21-.21 2.34-.64 3.38s-1.06 1.97-1.89 2.79c-.83.81-1.78 1.42-2.86 1.85s-2.23.64-3.45.64-2.39-.21-3.47-.64-2.03-1.05-2.87-1.87c-.82-.8-1.44-1.72-1.86-2.75-.42-1.04-.63-2.17-.63-3.4s.21-2.36.63-3.41 1.04-1.97 1.86-2.77c.83-.81 1.78-1.43 2.86-1.86s2.23-.64 3.48-.64 2.4.21 3.48.64 2.03 1.04 2.87 1.86c.81.81 1.43 1.73 1.86 2.78s.64 2.18.64 3.4zm-8.84 3.12c.83 0 1.51-.28 2.01-.85.51-.57.76-1.32.76-2.26s-.25-1.71-.76-2.29-1.18-.86-2.01-.86-1.51.29-2.02.87-.77 1.34-.77 2.28.26 1.69.77 2.26 1.19.85 2.02.85z"/><path d="m100.4 20.78v-16.53h5.95v5.5h3.62v-5.5h5.94v16.53h-5.94v-5.82h-3.62v5.82z"/><path d="m70.28 3.88c.23.17.47.34.7.51.54.39 1.09.75 1.71.98.35.13.72.23 1.05.4.62.3 1.14.73 1.57 1.27.4.5.64 1.06.65 1.73h.82.32c.3 0 .52.22.52.5s-.22.52-.52.52c-.42 0-.83 0-1.25 0-.02 0-.04 0-.1 0-.03.31-.07.62-.08.93-.05.96-.13 1.92-.41 2.85-.4 1.35-1.22 2.36-2.48 3-.08.04-.13.09-.14.19-.06.59-.06 1.18.16 1.77.37-.07.73-.14 1.09-.21 1.03-.2 2.05-.41 3.08-.61.31-.06.57.11.63.4.06.28-.13.54-.44.6-1.72.34-3.44.68-5.16 1.02-1.94.38-3.87.77-5.81 1.15-.81.16-1.62.32-2.43.48-.3.06-.57-.12-.63-.41-.05-.28.13-.54.42-.6 1.97-.39 3.94-.78 5.91-1.17.05-.01.11-.02.18-.04-.17-.62-.21-1.24-.14-1.89-.8-.03-1.57-.14-2.31-.48.2-.17.38-.33.57-.48.04-.03.12-.03.18-.04 1.04-.18 2-.57 2.87-1.16.29-.2.59-.38.87-.61 1.2-.99 1.67-2.28 1.28-3.78-.38-1.5-1.4-2.4-2.92-2.71-.04 0-.09-.02-.14-.03.33-1.17.11-2.28-.27-3.39-.11-.32-.01-.51.36-.71h.24zm.41 15.08c.38-.07.74-.15 1.06-.21-.07-.58-.13-1.14-.19-1.7-.31.06-.65.12-.98.18-.08.58-.07 1.15.12 1.73zm2.62-11.25c-.29-.01-.53.22-.54.5 0 .27.22.51.5.52.27 0 .52-.22.53-.5 0-.28-.21-.52-.49-.53z"/><path d="m60.12 17.93c0-.15.03-.29.03-.44 0-.18.07-.32.2-.43.74-.6 1.48-1.19 2.22-1.8.07-.06.12-.04.19 0 .88.55 1.84.9 2.86 1.04.15.02.29.04.46.06-.05.05-.09.09-.13.12-1.2.97-2.4 1.94-3.6 2.91-.19.15-.38.2-.62.15-.38-.09-.76-.15-1.14-.22-.24-.04-.4-.18-.48-.41 0-.33 0-.66 0-.99z"/><path d="m66.68 15.35c-1.3-.01-2.49-.37-3.57-1.09-.31-.21-.33-.58-.04-.82 1.58-1.3 3.16-2.6 4.75-3.88 1.16-.94 2.84-.73 3.74.45s.66 2.85-.54 3.73c-.78.57-1.6 1.09-2.55 1.36-.59.16-1.18.25-1.79.25z"/></g></svg>