<svg viewBox="0 0 115.49 21.15" xmlns="http://www.w3.org/2000/svg"><path d="m96.85 12.87c0 1.16-.2 2.23-.61 3.23s-1.01 1.88-1.8 2.67c-.79.77-1.7 1.36-2.73 1.77s-2.13.61-3.29.61-2.28-.21-3.31-.61c-1.03-.41-1.94-1.01-2.74-1.79-.78-.76-1.38-1.64-1.78-2.63s-.6-2.07-.6-3.24.2-2.26.6-3.25c.4-1 .99-1.88 1.78-2.64.79-.78 1.7-1.37 2.73-1.77 1.03-.41 2.13-.61 3.32-.61s2.29.2 3.32.61 1.94 1 2.74 1.77c.78.77 1.37 1.65 1.77 2.65s.61 2.08.61 3.24zm-8.44 2.97c.8 0 1.44-.27 1.92-.81s.73-1.26.73-2.16-.24-1.63-.73-2.18c-.48-.55-1.13-.82-1.92-.82s-1.44.28-1.93.83-.73 1.28-.73 2.18.24 1.62.73 2.16 1.13.81 1.93.81z" fill="#007f36"/><path d="m99.24 20.73v-15.78h5.56v6.72l3.6-6.72h6.42l-4.76 7.77 5.43 8.01h-6.86l-3.83-6.59v6.59z" fill="#007f36"/><path d="m58.74 0h-58.13c-.33 0-.61.3-.61.66v.42c0 .36.28.66.61.66h58.13c.34 0 .61-.3.61-.66v-.42c0-.36-.28-.66-.61-.66" fill="#3e00d0"/><path d="m9.81 10.35h-.58v1.84h.58c.35 0 .62-.08.81-.24s.28-.38.28-.67-.1-.52-.29-.68-.46-.25-.8-.25z" fill="#3e00d0"/><path d="m51.51 4.07h-43.67c-4.31 0-7.84 3.77-7.84 8.37s3.53 8.37 7.84 8.37h43.67c4.31 0 7.84-3.77 7.84-8.37s-3.53-8.37-7.84-8.37zm-38.04 10.09c-.65.6-1.68.9-3.09.9h-1.16v3.25h-3.72v-11.02h4.44c1.56 0 2.7.32 3.43.96.72.64 1.08 1.66 1.08 3.06 0 1.3-.33 2.25-.98 2.85zm6.11 4.15h-3.78v-11.02h3.78v11.03zm9.52-.23c-.41.18-.81.31-1.21.4-.41.09-.81.13-1.21.13-.5 0-.99-.06-1.45-.18-.47-.12-.89-.29-1.26-.51-.91-.56-1.6-1.27-2.07-2.13s-.7-1.84-.7-2.96c0-.82.13-1.59.4-2.29s.65-1.32 1.16-1.86 1.11-.95 1.78-1.23c.68-.28 1.41-.42 2.19-.42.42 0 .83.05 1.24.14s.8.23 1.19.42v4.08c-.34-.35-.68-.61-1.04-.78s-.73-.26-1.12-.26c-.61 0-1.1.2-1.46.6-.37.4-.55.93-.55 1.59s.18 1.16.53 1.55.83.58 1.42.58c.36 0 .72-.08 1.09-.25.37-.16.77-.42 1.21-.78l-.12 4.15zm7.83.23-2.51-4.61v4.61h-3.64v-11.02h3.64v4.7l2.36-4.7h4.21l-3.12 5.43 3.56 5.6h-4.5zm12.47.73c-3.32 0-6.02-2.88-6.02-6.42s2.7-6.42 6.02-6.42 6.02 2.88 6.02 6.42-2.69 6.42-6.02 6.42z" fill="#3e00d0"/><path d="m51.47 12.29c.41-.15.71-.38.91-.68s.3-.68.3-1.14c0-.76-.29-1.37-.87-1.83-.58-.47-1.35-.7-2.31-.7-1.08 0-1.89.26-2.46.77-.56.51-.85 1.26-.87 2.25h2.8c0-.21.04-.36.12-.47s.19-.16.34-.16c.14 0 .25.05.34.15s.13.23.13.38c0 .21-.07.36-.2.47s-.33.16-.59.16h-.13v1.83s.05 0 .08 0h.13c.27 0 .47.07.61.2s.21.32.21.58c0 .22-.06.39-.18.53-.12.13-.28.2-.48.2s-.36-.08-.46-.23c-.11-.15-.17-.38-.18-.69h-2.92v.02c0 1.07.33 1.91.98 2.51.65.61 1.55.91 2.7.91 1.07 0 1.93-.26 2.56-.79s.95-1.24.95-2.12c0-.57-.13-1.03-.39-1.4-.26-.36-.64-.6-1.14-.72z" fill="#3e00d0"/><g fill="#007f36"><path d="m114.65.05h-53.42c-.33 0-.61.3-.61.66v.42c0 .36.27.66.61.66h53.43c.33 0 .61-.3.61-.66v-.42c0-.36-.27-.66-.61-.66"/><path d="m60.38 14.39c.5-.68 1.25-.96 2.01-1.22.13-.04.23 0 .3.11.11.16.22.33.32.49 1.18 1.86 2.82 3.15 4.85 3.95.11.04.22.09.33.13 0 .03 0 .04-.01.05-.56.17-1.11.38-1.67.51-.61.14-1.13-.08-1.56-.54-.42-.45-.85-.9-1.27-1.35-.28-.3-.61-.52-.97-.68-.66-.3-1.32-.6-1.97-.89-.16-.07-.28-.18-.35-.34v-.21z"/><path d="m62.47 11.96c1.34.15 2.6.45 3.8 1.01-.27-.32-.6-.55-.97-.73-.71-.34-1.46-.52-2.22-.66-.45-.08-.9-.16-1.35-.25-.12-.02-.24-.06-.38-.1.15-.19.34-.26.53-.32.69-.21 1.39-.15 2.08.02.78.19 1.5.54 2.17.97.88.56 1.76 1.14 2.67 1.66 1.04.59 2.15 1.03 3.33 1.25.36.07.48.21.48.58.01.68-.34 1.16-.88 1.53-.23.16-.49.27-.75.39-.11.05-.14.09-.13.21.15 1.14.25 2.29.2 3.45 0 .05 0 .1-.01.18-.48-.03-.96-.05-1.46-.08.04-1.18-.04-2.34-.21-3.5-1.42-.19-2.55-.94-3.62-1.82-1.16-.95-2.15-2.06-2.99-3.29-.11-.15-.19-.32-.3-.51z"/><path d="m74.82 6.64c-.06-.05-.12-.1-.18-.15-.32-.2-.65-.4-.97-.61-.62-.39-1.28-.43-1.95-.17-.51.2-1.02.36-1.58.32-.13 0-.26-.03-.41-.04.09-.47.34-.78.73-.97.38-.18.79-.23 1.2-.24.9-.02 1.78.12 2.64.33.29.07.57.15.85.24.71.23 1.15 1.03 1.05 1.86-.06.49-.24.93-.49 1.34-.26.42-.55.82-.81 1.23-.68 1.06-1.26 2.17-1.77 3.32-.03.08-.07.15-.14.22 0-.04-.01-.08 0-.12.13-.95.28-1.9.76-2.74.26-.46.56-.9.88-1.33.36-.5.34-1.01.15-1.55-.18 0-.26.13-.28.27-.07.75-.48 1.34-.86 1.95-.25.4-.45.84-.66 1.26-.2-.39-.4-.82-.21-1.31.14-.36.29-.72.46-1.07.36-.79.23-1.62-.36-2.25-.05-.06-.1-.12-.17-.21.28-.05.52-.07.76.01.3.1.6.22.9.32.15.05.31.08.46.12 0-.02.01-.03.02-.05z"/><path d="m65.1 10.74c-.4-.08-.77-.16-1.14-.22-.18-.03-.36-.07-.53-.06-.71.03-1.22-.84-.98-1.5.07-.19.18-.38.31-.54.63-.75 1.25-1.5 1.9-2.23.56-.63 1.2-1.16 2-1.45.77-.27 1.52-.24 2.25.12.05.02.09.05.14.08.13.09.28.17.27.36s-.16.31-.32.35c-.18.05-.39.07-.58.05-.53-.07-1.01 0-1.43.37-.24.22-.4.48-.51.78-.06.16-.12.33-.19.48-.21.42-.51.55-.95.4-.21-.07-.41-.1-.62-.02-.26.1-.42.33-.36.6.1.47.24.93.37 1.39.08.28.2.56.3.83.02.06.04.13.06.21z"/><path d="m73.16 15.86c.17-.6.16-1.11-.38-1.39.34-.58.69-1.15 1.02-1.73.37-.65.71-1.32 1.09-1.97.27-.47.57-.58 1.06-.34.81.4 1.48.98 1.99 1.73.07.11.14.21.2.32.09.18.05.28-.14.36-.28.12-.57.21-.86.33-.83.33-1.52.87-2.2 1.43-.45.37-.92.72-1.39 1.07-.1.08-.24.12-.4.19z"/><path d="m71.65 8.11c0 .31-.15.55-.29.79-.51.85-1.2 1.55-1.96 2.19-.48.4-.93.84-1.38 1.26-.16.15-.19.16-.36.02-.27-.22-.54-.43-.82-.65-.14-.1-.18-.23-.14-.4.04-.19.09-.37.13-.56.08-.39-.02-.73-.32-.99-.19-.17-.4-.31-.62-.44.38.63.69 1.28.51 2.07-.25-.15-.49-.28-.72-.43-.04-.02-.06-.09-.07-.13-.21-.62-.44-1.24-.63-1.87-.05-.16-.05-.36-.02-.53.06-.33.36-.47.67-.33.26.12.52.26.78.38 1.55.68 3.09.62 4.62-.08.21-.1.41-.2.64-.31zm-1.34 1.42c-.09.02-.16.03-.23.05-.71.16-1.42.18-2.13.02-.65-.14-1.25-.42-1.81-.76-.13-.08-.28-.15-.42-.22.48.46.95.92 1.49 1.29.86.59 1.78.55 2.7.09.18-.09.32-.24.41-.47z"/><path d="m72.78 12.06c0 .52-.11 1.01-.32 1.48-.31.68-.86.92-1.55.65-.55-.22-1.09-.48-1.63-.73-.15-.07-.29-.14-.43-.22-.23-.11-.26-.24-.09-.43.17-.18.35-.35.55-.51.46-.36.96-.66 1.5-.89.5-.21.98-.44 1.4-.78.09-.07.18-.05.22.03.1.18.2.37.25.56.06.27.07.55.1.82z"/><path d="m68.3 12.8c.04-.26.17-.48.35-.65.52-.48 1.04-.95 1.58-1.41.5-.43 1-.87 1.36-1.43.29-.46.48-.95.45-1.5 0-.18-.07-.36-.12-.54-.05-.17-.12-.35.05-.5.11-.1.32-.06.53.09.29.21.45.48.42.84-.07.78-.27 1.53-.73 2.18-.32.45-.75.77-1.21 1.05-.24.14-.49.28-.76.39-.66.26-1.16.72-1.6 1.27-.08.1-.17.18-.26.27-.02-.01-.03-.02-.05-.04z"/><path d="m71.41 6.74s.01.1 0 .15c-.04.22.05.41.18.57.16.19.14.29-.09.4-.3.14-.6.27-.9.4-.05.02-.11.01-.16.02 0-.05 0-.11.02-.16.08-.17.12-.33 0-.49-.13-.16-.3-.16-.48-.13-.28.05-.52.18-.7.39-.07.08-.1.19-.14.29.02.01.03.02.05.03.05-.06.1-.12.15-.17.15-.16.37-.2.54-.11.13.07.2.18.19.33 0 .14-.09.24-.23.28-.37.1-.74.12-1.11-.02-.56-.23-.64-.82-.15-1.19.5-.38 1.08-.54 1.7-.57.37-.02.74 0 1.13 0z"/><path d="m69.38 6.48c-.25.12-.48.22-.69.35-.21.12-.41.26-.59.41-.25.21-.27.5-.17.79.06.18.14.35.18.58-.56-.16-1.11-.32-1.7-.49.08-.1.14-.19.22-.26.03-.03.09-.03.14-.02.25.05.51.11.78.13-.11-.09-.23-.18-.34-.27-.09-.08-.17-.16-.25-.24-.1-.12-.11-.25-.03-.39.25-.46.61-.74 1.16-.76.36 0 .72-.05 1.07.07.07.02.14.06.24.1z"/></g></svg>