<svg viewBox="0 0 110 20.9" xmlns="http://www.w3.org/2000/svg"><g fill="#077814"><path d="m58.65 0h-58.04c-.33 0-.61.3-.61.66v.42c0 .36.28.66.61.66h58.04c.34 0 .61-.3.61-.66v-.42c0-.36-.27-.66-.61-.66"/><path d="m9.8 10.34h-.58v1.84h.58c.35 0 .62-.08.81-.24s.28-.38.28-.67-.1-.52-.29-.68-.46-.24-.8-.24z"/><path d="m51.44 4.07h-43.61c-4.31 0-7.83 3.76-7.83 8.35s3.52 8.36 7.83 8.36h43.61c4.31 0 7.83-3.76 7.83-8.36s-3.52-8.35-7.83-8.35zm-37.99 10.07c-.65.6-1.68.9-3.09.9h-1.16v3.25h-3.71v-11.01h4.43c1.56 0 2.7.32 3.42.96s1.08 1.66 1.08 3.05c0 1.3-.33 2.25-.97 2.85zm6.1 4.15h-3.77v-11.01h3.77zm9.51-.23c-.4.18-.81.31-1.21.39-.4.09-.81.13-1.21.13-.5 0-.99-.06-1.45-.18-.47-.12-.89-.29-1.26-.51-.91-.56-1.6-1.27-2.07-2.13s-.7-1.84-.7-2.95c0-.82.13-1.58.4-2.29.27-.7.65-1.32 1.16-1.86s1.1-.95 1.78-1.23c.67-.28 1.4-.42 2.19-.42.42 0 .83.05 1.24.14s.8.23 1.19.42v4.08c-.34-.35-.68-.6-1.04-.77s-.72-.26-1.11-.26c-.61 0-1.09.2-1.46.6s-.55.93-.55 1.59.18 1.16.53 1.55.82.58 1.42.58c.36 0 .72-.08 1.09-.24s.77-.42 1.21-.78l-.12 4.14zm7.81.23-2.5-4.6v4.6h-3.64v-11.01h3.64v4.69l2.35-4.69h4.2l-3.12 5.42 3.55 5.59h-4.49zm12.45.73c-3.32 0-6.01-2.87-6.01-6.41s2.69-6.41 6.01-6.41 6.01 2.87 6.01 6.41-2.69 6.41-6.01 6.41z"/><path d="m51.39 12.27c.4-.15.71-.38.91-.68s.3-.68.3-1.14c0-.75-.29-1.36-.87-1.83s-1.35-.7-2.31-.7c-1.07 0-1.89.26-2.45.77s-.85 1.26-.87 2.25h2.8c0-.21.04-.36.12-.47s.19-.16.34-.16c.14 0 .25.05.34.15s.13.23.13.38c0 .21-.07.36-.2.47s-.33.16-.59.16h-.13v1.83s.05 0 .08 0h.13c.27 0 .47.07.61.2s.21.32.21.58c0 .22-.06.39-.18.53-.12.13-.28.2-.48.2s-.35-.08-.46-.23-.17-.38-.18-.69h-2.91v.02c0 1.07.33 1.9.98 2.51s1.55.91 2.7.91c1.07 0 1.93-.26 2.56-.79s.95-1.23.95-2.12c0-.57-.13-1.03-.39-1.39s-.64-.6-1.14-.72z"/></g><path d="m109.45.05h-48.37c-.3 0-.55.3-.55.66v.42c0 .36.25.66.55.66h48.37c.3 0 .55-.3.55-.66v-.42c0-.36-.25-.66-.55-.66" fill="#c20013"/><path d="m90.45 12.47c-.02.54-.15 1.32-.37 2.34-.04.17-.07.3-.09.4l-1.24 5.63h-5.18l-4.83-16.52h5.96l1.3 7.28c.11.64.2 1.22.26 1.76.06.53.1 1.03.11 1.5h.14c.02-.65.13-1.52.35-2.58.01-.1.03-.18.04-.24l1.57-7.71h4.19l1.57 7.72s.02.12.05.23c.22 1.08.33 1.94.35 2.58h.14c.01-.47.05-.97.11-1.5s.15-1.12.26-1.76l1.3-7.28h5.96l-4.83 16.52h-5.18l-1.24-5.63c-.02-.1-.05-.23-.09-.41-.23-1.01-.35-1.78-.37-2.33h-.21z" fill="#c20013"/><path d="m103.51 20.83v-16.52h6.04v16.52z" fill="#c20013"/><path d="m69.62 17.45c-.08.24-.25.35-.48.35-.22 0-.38-.12-.44-.35z" fill="#d60016"/><path d="m66.57 13.87c.35.07.65.46.59.73-.32-.04-.62-.41-.59-.73z" fill="#d60016"/><path d="m78.01 6.15c-.11.36-.17.74-.33 1.08-.51 1.13-1.33 1.93-2.55 2.28-.18.05-.39.04-.58.05-.32 0-.65.02-.97 0-.43-.02-.79.13-1.1.41-.23.2-.43.44-.65.68.24.17.45.31.66.46.85-1.06 1.94-1.46 3.29-1.19-.49.28-.97.54-1.43.83-.47.29-.89.63-1.25 1.05.07.13.14.26.21.39.85-.86 1.94-1.61 2.72-1.88-.12.65-.41 1.2-.87 1.65-.46.46-1.02.72-1.61.84-.04.39-.05.76-.13 1.12-.1.49-.36.91-.61 1.34-.32.54-.63 1.1-.91 1.66-.22.44-.27.94-.31 1.42-.02.21-.09.3-.3.36-1.44.38-2.87.39-4.31-.02-.17-.05-.21-.13-.23-.28-.06-.51-.1-1.04-.33-1.51-.25-.51-.5-1.03-.81-1.5-.51-.78-.9-1.59-.78-2.56-1.39-.35-2.21-1.23-2.56-2.61.51.19 2.15 1.15 2.74 1.96.07-.13.14-.25.22-.39-.71-.82-1.63-1.34-2.56-1.86.32-.17 1.17-.12 1.75.09.57.22 1.04.58 1.41 1.07.21-.15.42-.3.63-.45-.31-.47-.69-.86-1.24-1.04-.09-.03-.18-.04-.27-.04-.33 0-.67-.03-1 0-.7.06-1.31-.19-1.86-.57-.98-.69-1.59-1.63-1.75-2.83-.06-.4 0-.8.13-1.19.13-.4.48-.59.88-.49.42.11.67.47.58.88-.03.14-.07.28-.11.42-.12.42-.07.81.17 1.17.16.24.34.46.52.68.01 0 .03-.01.04-.02 0-.05 0-.09 0-.14-.05-.47-.01-.93.12-1.38.03-.11.08-.23.14-.33.19-.33.49-.43.84-.29.32.13.47.42.39.79-.14.62-.15 1.23.04 1.84.01.04.03.08.05.14.59-.06 1.18-.05 1.71.23.14-.27.25-.54.41-.78.12-.18.27-.35.44-.48.31-.24.65-.2.86.06.25.3.25.76 0 1.01-.04.05-.09.09-.14.13-.28.29-.31.73-.11 1.08.12.21.21.44.32.68 1.01-.33 2.04-.34 3.05 0 .15-.28.33-.54.41-.83.09-.34.06-.69-.24-.97-.3-.27-.35-.61-.16-.97.16-.31.47-.41.79-.27.25.11.44.3.58.53.15.26.28.54.43.82.5-.26 1.05-.27 1.61-.23.1 0 .12-.05.15-.13.18-.61.17-1.21.04-1.83-.11-.52.2-.89.71-.85.27.02.45.16.55.41.21.55.31 1.12.22 1.71v.08c.61-.43.9-1.19.72-1.88-.03-.12-.07-.24-.09-.37-.08-.41.15-.78.57-.89.41-.11.76.08.89.49.06.2.1.41.15.62v.55zm-9.5 8.74c-.02-1.1-.74-2.09-1.78-2.41-.2-.06-.32-.02-.36.11-.04.14.03.2.22.29.25.11.51.22.72.39.66.55.87 1.27.7 2.11-.03.16.02.27.14.3.13.03.22-.03.26-.2.04-.2.06-.4.09-.59zm1.33.1c.01.1.03.28.07.47.03.18.13.25.26.23.13-.03.18-.13.14-.32-.23-1.15.35-2.14 1.46-2.51.16-.05.22-.15.19-.27-.04-.13-.14-.17-.31-.12-1.07.31-1.82 1.32-1.82 2.53zm-.66 2.04c-.22 0-.45 0-.67 0-.15 0-.23.07-.24.21 0 .08 0 .17.02.25.11.48.54.77 1.03.71.41-.05.78-.47.78-.88 0-.22-.07-.29-.28-.29s-.41 0-.62 0zm-1.56-2.48c0-.45-.52-1.05-.97-1.1-.27-.03-.51.18-.51.46 0 .47.5 1.04.96 1.1.29.04.52-.17.52-.46zm4.57-.6c0-.36-.24-.55-.59-.47-.46.11-.87.62-.87 1.09 0 .31.21.49.51.45.45-.07.93-.6.94-1.06z" fill="#c20013"/><path d="m71.39 19.12c-.24.81-1.04 1.85-2.35 1.78-1.04-.05-1.82-.84-2.08-1.78.73.19 1.47.3 2.22.3s1.48-.1 2.22-.3z" fill="#c20013"/><path d="m71.75 13.87c.03.29-.27.66-.59.73-.07-.26.26-.67.59-.73z" fill="#c20013"/></svg>