<svg xmlns="http://www.w3.org/2000/svg" xmlns:xlink="http://www.w3.org/1999/xlink" xml:space="preserve" width="944.855" height="1158.975" viewBox="0 0 249.993 306.645"><defs><linearGradient id="a"><stop offset="0" style="stop-color:#b15d25;stop-opacity:1"/><stop offset="1" style="stop-color:#ff802c;stop-opacity:1"/></linearGradient><linearGradient xlink:href="#a" id="b" x1="26613.779" x2="26830.846" y1="23.31" y2="-101.665" gradientUnits="userSpaceOnUse"/></defs><path d="M26738.778-130.012v.01c-69.206 0-124.997 55.791-124.997 124.995v19.258c0 14.32 2.422 28.052 6.825 40.848-4.091 2.73-6.791 7.378-6.794 12.665l-.02 47.175a15.236 15.236 0 0 0 3.149 9.142l-.02-.004.05.047c.104.107.21.213.318.317l13.976 13.976v.007l-4.302 11.264c-1.454 4.221-.811 9.056 2.197 12.354 3.659 4.012 7.16 7.61 10.82 11.326v-.078a12.907 12.907 0 0 0 8.141 3.011s179.362.332 182.061.332c4.442 0 9.41-.617 14.154-4.23.03-.026.07-.052.101-.079 4.248-3.303 7.073-9.563 7.073-14.63a19.31 19.31 0 0 0-1.879-8.258c-.116-.244-.308-.4-.434-.635a12.87 12.87 0 0 0 1.018-3.043v-3.183a12.948 12.948 0 0 0-2.12-6.957 15.23 15.23 0 0 0 10.042-10.874l2.353-10.892a15.23 15.23 0 0 0-5.299-15.012l8.247-38.113c1.105-5.155-.573-10.256-4.014-13.793h.03a125.412 125.412 0 0 0 4.325-32.693V-5.018c0-69.204-55.789-124.994-124.995-124.994zm0 7.182c65.098 0 117.819 52.726 117.819 117.823 0 14.616-2.674 28.597-7.537 41.504l-.577-.58v.013a15.205 15.205 0 0 0-7.474-4.057l-11.758-2.53 1.658.357a97.998 97.998 0 0 0 6.334-34.707c0-31.744-15.058-59.975-38.397-77.985.462-.53 1.587-1.274 3.144-1.932 1.688-.715 3.777-1.377 5.799-1.936 4.04-1.116 7.81-1.82 7.81-1.82a.847.847 0 0 0 .691-.83.848.848 0 0 0-.787-.845s-3.977-.29-8.501.12c-4.451.404-9.506 1.378-11.986 4.435a97.863 97.863 0 0 0-43.06-16.769c.678-3.65 1.931-10.507 1.931-10.507a.845.845 0 0 0-1.571-.56s-.837 1.515-1.756 3.488c-.92 1.973-1.932 4.387-2.298 6.364-.05.262-.05.51-.07.767a99.498 99.498 0 0 0-9.391-.458c-21.209 0-40.839 6.736-56.917 18.153 0-.024-.02-.042-.02-.063-.925-3.578-2.697-10.396-2.697-10.396-.243-.926-1.593-.8-1.663.155 0 0-.103 1.727-.12 3.904 0 2.177.103 4.792.602 6.739.187.721.426 1.394.705 2.029-23.315 18.01-38.354 46.225-38.354 77.948 0 22.132 7.315 42.562 19.654 59.01-1.918-.607-3.855-1.057-5.794-1.254-.152-.016-.304-.03-.457-.04-.67-.049-1.937-.173-3.676-.173l-14.052.003c-9.539-17.017-15-36.632-15-57.538 0-65.098 52.724-117.824 117.823-117.824zm12.082 16.686v.007c-.27 1.47-.397 2.17-.607 3.307-.59 3.192 1.122 6.037 3.926 8.517 2.802 2.48 6.755 4.743 11.111 7.033 8.711 4.58 19.032 9.29 24.615 15.213.58.442 1.41-.001 1.36-.73l.03.249s1.814-8.071 4.891-12.091c1.784-2.33 6.567-3.525 10.93-3.921.195-.024.318 0 .507-.024-.177.046-.154.028-.327.075-2.061.57-4.201 1.246-6.004 2.008-1.801.763-3.283 1.535-4.07 2.69-1.382 2.028-2.641 5.107-3.375 8.449-.73 3.34-.935 6.934-.02 9.964.591 1.953.975 4.163-.136 5.93-9.114 14.528-25.026 41.131-27.843 45.84-1.158-.867-2.573-1.675-4.424-2.37-.381-.132-.815-.253-1.226-.38 3.939-6.373 17.148-27.314 28.255-39.262.487-.522.137-1.376-.565-1.421-1.173-.077-2.721-.213-4.139-.455-1.417-.24-2.729-.63-3.26-.986-2.209-1.476-3.209-4.43-4.263-7.563-1.054-3.132-2.181-6.47-5.206-8.118-1.898-1.033-4.42-1.18-6.992-1.1 2.93-.557 5.831-.85 7.636-.102 2.208.914 3.346 3.364 4.504 6.176 1.161 2.811 2.307 5.945 5.073 7.552 2.055 1.195 5.657 1.661 8.669 2.058a.847.847 0 0 0 .91-.56c.92-2.644.873-5.091.07-7.271-.815-2.18-2.361-4.078-4.34-5.797-3.963-3.438-9.716-6.221-15.515-9.047-5.799-2.825-11.649-5.687-15.72-9.078-4.072-3.392-6.344-7.139-5.419-12.138.137-.737.632-1.733.965-2.654zm-12.081 6.466c.765 0 1.519.04 2.277.057a54.23 54.23 0 0 0-4.119 2.141c-3.928 2.283-8.19 5.358-9.054 9.265-1.081 4.876.05 10.68.441 12.444-7.988-2.716-18.624-2.675-27.846-3.124-4.877-.238-9.326-.636-12.641-1.621-1.539-.458-2.778-1.036-3.758-1.749 15.448-10.954 34.312-17.413 54.7-17.413zm6.263.231c1.074.07 2.15.137 3.214.243.669 3.573 2.91 6.605 5.992 9.171 4.321 3.599 10.262 6.476 16.061 9.301 5.8 2.826 11.462 5.605 15.148 8.804 1.844 1.599 3.182 3.289 3.861 5.11.609 1.629.616 3.413.05 5.43-2.817-.398-5.978-.97-7.257-1.714-2.087-1.213-3.186-3.896-4.356-6.733-1.17-2.835-2.446-5.862-5.422-7.095-3.348-1.385-8.098-.441-12.111.7-3.946 1.124-7.049 2.5-7.155 2.546l-.12.045c-.966.419-.453 1.876.565 1.592 0 0 3.017-.816 6.657-1.292 3.637-.476 7.898-.515 10.062.664 2.316 1.262 3.364 4.056 4.411 7.17 1.049 3.116 2.079 6.526 4.927 8.43 1 .669 2.408.991 3.917 1.247.939.16 1.789.213 2.68.297-10.905 12.138-23.443 31.896-27.654 38.684-2.371-.616-5.075-1.087-8.011-1.105-2.146-.024-4.333.23-6.495.597-3.492-8.852-8.849-26.846-4.469-46.32.328-1.45-.03-2.809-.64-3.95-.598-1.14-1.432-2.102-2.143-2.9-1.808-2.026-3.091-5.139-3.794-8.288-.702-3.149-.827-6.345-.484-8.44.102-.63.908-1.935 2.136-3.295 1.23-1.361 2.845-2.842 4.441-4.2a98.683 98.683 0 0 1 5.983-4.699zm7.676.798c14.831 2.187 28.527 7.818 40.275 16.04-1.751 3.423-2.649 7.083-2.957 8.423-6.098-5.833-15.76-10.281-23.931-14.579-4.319-2.271-8.187-4.51-10.776-6.802-1.17-1.035-2.022-2.053-2.611-3.082zm-14.509 2.417c-.102.096-.119.085-.246.196-1.63 1.387-3.288 2.9-4.601 4.352-1.312 1.453-2.327 2.778-2.552 4.157-.397 2.42-.24 5.746.506 9.084.744 3.339 2.073 6.683 4.181 9.044.692.775 1.428 1.652 1.907 2.564.48.912.706 1.818.487 2.79-4.575 20.345.963 38.496 4.427 47.103a63.208 63.208 0 0 0-5.403 1.385c-2.778-7.244-8.173-25.025-2.176-42.72a.848.848 0 0 0-1.109-1.06c-1.096.427-2.559.954-3.948 1.335-1.385.38-2.737.579-3.371.48-2.622-.406-4.776-2.661-7.053-5.056-2.276-2.396-4.707-4.947-8.144-5.165-2.152-.137-4.498.788-6.794 1.943 2.419-1.738 4.92-3.222 6.871-3.306 2.387-.104 4.451 1.64 6.687 3.7 2.237 2.06 4.601 4.418 7.785 4.708 2.369.216 5.833-.881 8.729-1.792a.842.842 0 0 0 .586-.891c-.279-2.786-1.353-4.985-3.01-6.618-1.656-1.633-3.858-2.702-6.381-3.425-5.042-1.445-11.43-1.542-17.882-1.657-6.45-.117-12.957-.246-18.082-1.601-5.123-1.358-8.767-3.799-10.037-8.722-.187-.726-.154-1.837-.245-2.814.376 1.449.558 2.138.847 3.26.81 3.143 3.566 4.999 7.151 6.065 3.586 1.067 8.127 1.45 13.041 1.689 9.827.479 21.175.396 28.739 3.41.713.158 1.278-.603.922-1.241l.136.216s-1.761-8.083-.669-13.026c.636-2.864 4.47-5.965 8.257-8.165.154-.091.277-.136.437-.221zm-57.458 16.472c2.108 2.343 5.091 3.823 8.486 4.723 5.436 1.44 12.036 1.543 18.486 1.658 6.451.116 12.754.246 17.446 1.591 2.343.673 4.273 1.64 5.657 3.005 1.238 1.22 1.999 2.834 2.341 4.9-2.723.828-5.829 1.643-7.304 1.509-2.405-.219-4.534-2.19-6.79-4.268-2.258-2.077-4.689-4.284-7.908-4.146-3.618.156-7.528 3.016-10.686 5.744-3.103 2.682-5.335 5.237-5.412 5.325l-.09.09c-.701.788.383 1.89 1.182 1.204 0 0 2.395-2.013 5.491-3.98 3.098-1.965 6.947-3.8 9.406-3.643 2.635.167 4.761 2.258 7.026 4.64 2.263 2.383 4.633 5.042 8.02 5.567 1.189.183 2.602-.118 4.078-.523.944-.26 1.767-.58 2.629-.889-1.903 6.299-2.454 12.592-2.252 18.424-9.041-5.537-28.63-7.102-28.63-7.102s8.228 23.162 17.465 30.25c2.001 1.537 5.337 2.622 8.607 3.376-.843.365-1.832.778-2.465 1.065-3.445 1.561-1.727 11.036-8.162 12.761l-5.271 1.412-6.229 1.67-6.23 1.669s-.941 14.365 1.893 17.2c3.859 3.858 10.731 6.112 10.731 6.112l26.551-6.277.355 29.308h-5.98a15.231 15.231 0 0 0-5.906 1.584c-1.849-.52-3.676-1.094-5.601-1.427a49.286 49.286 0 0 0-5.079-.704 73.066 73.066 0 0 0-4.267-.182l-.04-.013v.012c-.282-.004-.485-.034-.777-.034-.01.005-.03.01-.04.014-7.254.007-14.469 1.384-20.875 5.145-.07.038-.122.092-.188.13a15.229 15.229 0 0 0-10.172-4.599h-7.984c-2.48.077-4.879.786-7.022 2-13.18-16.26-21.097-36.96-21.097-59.538 0-2.2.102-4.377.241-6.539 3.414.213 8.123-.572 13.024-4.55 5.01-4.07 8.171-11.64 10.207-19.095 2.032-7.455 2.884-14.781 2.911-18.53a.976.976 0 0 0-1.652-.708c-3.96 3.826-9.781 6.257-15.592 8.872a95.039 95.039 0 0 1 27.468-34.213zm116.285.146c22.158 17.323 36.415 44.285 36.415 74.608 0 6.342-.652 12.525-1.84 18.515-3.194-3.152-6.666-5.977-11.08-6.846a16.306 16.306 0 0 0-3.322-.326c-6.197.06-8.759 3.734-9.467 4.86-1.153-.413-2.007-.878-2.317-1.24-.186-.218-.287-.397-.403-.594-.05-.1-.103-.203-.262-.374-.154-.169-.645-.435-1.062-.34-.459.107-.691.397-.833.61-.328.51-.742 2.103-.746 2.13-.02.253-.02.624.267.994.212.27.561.546 1.202.89.549.297 1.6.784 2.944 1.39-.05.54-.227 1.601.394 3.642.757 2.49 2.574 5.603 6.595 8.032 3.623 2.19 8.675 2.71 13.697 2.534-.02.063-.05.123-.08.184-.06-.004-.111-.02-.167-.023a15.224 15.224 0 0 0-10.64 3.472l-19.836 16.422c-.04.065-.08.13-.127.197l-7.909 6.517-17.041-61.746c6.257-2.588 17.326-7.732 21.607-13.314 4.609-6.007 5.88-21.943 5.88-21.943s-8.22.66-15.901 2.67c4.337-7.145 8.741-14.361 12.183-19.847 1.531-2.437.951-5.234.321-7.321-.785-2.599-.634-5.96.07-9.112.362-1.656.878-3.24 1.456-4.641zm-128.661 27.8c-.206 3.82-.938 9.758-2.669 16.112-1.984 7.272-5.167 14.538-9.553 18.1-4.506 3.657-8.632 4.316-11.627 4.123.919-10.356 3.478-20.236 7.46-29.358 5.687-2.653 11.671-5.164 16.389-8.977zm98.808 39.305a13.145 13.145 0 0 1 0 .001zm-14.206 4.132c3.648-.033 6.98 1.57 7.417 2.327.538.932-2.137 5.97-5.987 7.11-4.639 1.37-11.735 2.102-12.318.84-.582-1.263 3.582-8.769 8.342-9.964.844-.211 1.704-.306 2.546-.313zm64.241 16.657c.888 0 1.863.072 2.93.283 4.172.821 7.598 3.791 10.977 7.22a94.643 94.643 0 0 1-3.209 11.102c-5.098.243-10.209-.288-13.406-2.22-3.621-2.187-5.109-4.831-5.751-6.937-.639-2.105-.41-3.59-.41-3.59a.972.972 0 0 0-.397-.924.973.973 0 0 0 .871-.387s2.187-4.49 8.395-4.547zm8.828 35.954 11.758 2.528-11.113 51.36 8.167 1.766-2.355 10.893-8.167-1.77-3.777 17.45-13.364-2.892 3.776-17.448-33.72-7.297-4.068-10.855 9.781-8.063 23.358-19.249h-.112zm-2.823 15.454-36.708 30.144 28.835 6.24zm-111.704 7.393c1.365 0 2.669.074 3.911.17 1.245.11 2.43.274 3.553.497 2.295.392 4.419.93 6.373 1.614v6.96a29.231 29.231 0 0 0-3.039-1.026 31.814 31.814 0 0 0-3.26-.733c-2.197-.437-4.517-.66-6.959-.66-5.86 0-10.013 1.558-12.456 4.682-2.394 3.124-3.596 7.642-3.596 13.551 0 5.519 1.313 9.719 3.949 12.601 2.635 2.834 6.713 4.256 12.231 4.256 2.248 0 4.493-.17 6.74-.511 2.295-.393 4.445-.974 6.448-1.755v7.034c-1.954.636-4.078 1.12-6.374 1.46-2.247.34-4.739.511-7.474.511-7.765 0-13.647-2.131-17.65-6.38-3.954-4.252-5.926-9.991-5.926-17.219 0-5.176.836-9.62 2.499-13.33 1.71-3.76 4.3-6.64 7.768-8.642 3.469-2.049 7.89-3.07 13.262-3.07zm-61.475.686c.903 0 1.766.075 2.59.133 2.473.252 4.588.901 6.346 1.928 2.343 1.368 4.076 3.25 5.198 5.643 1.123 2.344 1.68 5.03 1.68 8.059 0 4.688-1.468 8.448-4.399 11.279-2.884 2.831-6.791 4.242-11.724 4.242h-12.746v15.896h-7.986l.02-47.177zm22.203.003h7.984v47.176h-7.984zm68.93.074V93.48l16.787-21.263v.074l3.468-4.396h7.392l-10.86 13.74-4.548 5.752 17.789 27.688h-8.498l-13.84-21.933-7.69 9.73v12.191h-7.984V67.844Zm-104.169 6.164v18.751h11.282c3.174 0 5.567-.827 7.18-2.486 1.612-1.66 2.42-3.904 2.42-6.737 0-3.028-.779-5.372-2.34-7.033-1.514-1.66-3.808-2.495-6.885-2.495zm138.877 58.6c1.238 0 2.399.088 3.482.265 1.105.177 1.967.375 2.586.596v3.183c-1.68-.64-3.537-.961-5.57-.961-1.591 0-2.829.21-3.714.63-.884.42-1.326 1.182-1.326 2.287 0 .641.155 1.161.464 1.559.309.398.84.74 1.592 1.028.773.287 1.834.608 3.183.961 1.746.443 3.094.973 4.045 1.592.972.596 1.647 1.304 2.022 2.122.398.796.597 1.702.597 2.719 0 1.878-.696 3.36-2.089 4.443-1.393 1.06-3.504 1.59-6.333 1.59-2.763 0-4.984-.353-6.664-1.06v-3.183c.95.354 1.967.641 3.05.862 1.105.221 2.199.331 3.283.331 1.702 0 2.973-.198 3.813-.596.862-.398 1.293-1.194 1.293-2.387 0-.73-.177-1.316-.531-1.758-.353-.442-.939-.818-1.757-1.127-.818-.332-1.945-.674-3.382-1.028-2.299-.597-3.912-1.348-4.841-2.254-.928-.929-1.392-2.2-1.392-3.814 0-1.879.685-3.348 2.056-4.41 1.37-1.06 3.414-1.59 6.133-1.59zm46.253 0c1.238 0 2.399.088 3.482.265 1.105.177 1.967.375 2.586.596v3.183c-1.68-.64-3.537-.961-5.57-.961-1.592 0-2.83.21-3.714.63-.884.42-1.326 1.182-1.326 2.287 0 .641.155 1.161.464 1.559.309.398.84.74 1.592 1.028.773.287 1.834.608 3.183.961 1.746.443 3.095.973 4.045 1.592.973.596 1.647 1.304 2.022 2.122.398.796.597 1.702.597 2.719 0 1.878-.696 3.36-2.089 4.443-1.393 1.06-3.504 1.59-6.333 1.59-2.763 0-4.984-.353-6.664-1.06v-3.183c.95.354 1.968.641 3.05.862 1.106.221 2.199.331 3.283.331 1.702 0 2.973-.198 3.813-.596.862-.398 1.293-1.194 1.293-2.387 0-.73-.177-1.316-.531-1.758-.353-.442-.939-.818-1.757-1.127-.818-.332-1.945-.674-3.382-1.028-2.299-.597-3.912-1.348-4.841-2.254-.928-.929-1.392-2.2-1.392-3.814 0-1.879.685-3.348 2.055-4.41 1.371-1.06 3.415-1.59 6.134-1.59zm-174.965.33h4.045l8.09 21.354h-3.713l-2.122-5.504h-8.588l-2.122 5.504h-3.746zm19.827 0h9.815c2.387 0 4.122.62 5.205 1.858 1.105 1.215 1.658 2.873 1.658 4.973 0 1.503-.376 2.785-1.127 3.846-.752 1.061-1.835 1.802-3.25 2.222.398.287.707.596.929.928.22.332.441.774.663 1.326l2.686 6.2h-3.714l-2.619-5.967c-.243-.575-.542-.984-.896-1.227-.331-.243-.906-.365-1.724-.365h-4.012v7.56H26667Zm24.37 0h3.614v9.815l9.085-9.814h4.178l-7.858 8.62 8.189 12.733h-3.846l-6.598-10.445-3.15 3.382v7.063h-3.614zm30.902 0h4.045l8.09 21.354h-3.713l-2.122-5.504h-8.588l-2.122 5.504h-3.747zm19.827 0h3.183l11.141 15.717v-15.716h3.581v21.353h-3.183l-11.108-15.684v15.684h-3.614zm54.509 0h4.045l8.09 21.354h-3.713l-2.122-5.504h-8.588l-2.122 5.504h-3.746zm-125.994 2.82v8.056h5.239c1.304 0 2.332-.32 3.084-.961.751-.641 1.127-1.67 1.127-3.084 0-2.675-1.293-4.012-3.879-4.012zm-21.452.463-3.713 9.781h7.427zm75.099 0-3.713 9.781h7.427zm74.336 0-3.713 9.781h7.427zm-167.305 2.023.03.033-.05.114z" style="-inkscape-font-specification:Kanit;fill:url(#b);stroke-linecap:round;stroke-linejoin:round;paint-order:stroke fill markers" transform="translate(-26613.78 130.013)"/></svg>