<svg xmlns="http://www.w3.org/2000/svg" xmlns:xlink="http://www.w3.org/1999/xlink" width="946.389" height="1158.92" viewBox="0 0 250.399 306.631"><defs><linearGradient id="a"><stop offset="0" style="stop-color:#f12500;stop-opacity:1"/><stop offset="1" style="stop-color:#f1b800;stop-opacity:1"/></linearGradient><linearGradient xlink:href="#a" id="b" x1="6037.583" x2="6299.477" y1="1088.064" y2="772.896" gradientTransform="translate(1475.018 362.317)" gradientUnits="userSpaceOnUse"/></defs><path d="M7639.149 1135.213c-27.014 0-51.84 9.33-71.478 24.903-.328.26-.663.511-.988.774a115.88 115.88 0 0 0-3.048 2.58 115.59 115.59 0 0 0-4.125 3.766c-.122.117-.246.232-.368.35-.189.177-.379.354-.564.536-.042.042-.085.08-.127.12l-.016.016c-.285.28-.576.554-.858.837a115.67 115.67 0 0 0-4.2 4.464c-.112.124-.217.253-.328.377-.205.238-.41.475-.617.711l-.065.075c-.302.346-.606.69-.903 1.04v.001c-1.447 1.7-2.858 3.43-4.206 5.213 0 0-.01.01-.01.012-.596.79-1.165 1.601-1.742 2.407l-.04.055a115.075 115.075 0 0 0-4.183 6.249c-.001 0 0 0 0 0-.659 1.06-1.287 2.14-1.911 3.223 0 .01-.01.012-.011.018a114.411 114.411 0 0 0-4.315 8.218l-.038.085a114.152 114.152 0 0 0-1.878 4.148c0 .001-.001 0 0 0-1.787 4.22-3.297 8.58-4.575 13.038v.001a113.705 113.705 0 0 0-1.91 7.576c0 .013-.01.025-.01.037a114.938 114.938 0 0 0 .029 48.184c.54 2.51 1.188 4.978 1.89 7.424a113.67 113.67 0 0 0 4.627 13.076v.01c.424.997.862 1.986 1.313 2.969.073.16.15.317.225.477.276.596.553 1.192.84 1.782a114.44 114.44 0 0 0 3.825 7.234 114.765 114.765 0 0 0 3.368 5.457c.276.422.56.838.842 1.256l.144.214c.307.455.603.918.917 1.368.285.408.57.814.86 1.217.25.35.513.692.771 1.037h-6.744c-8.408 0-15.223 6.816-15.227 15.223l-.016 47.176a15.232 15.232 0 0 0 6 12.05c-1.535 1.69-2.815 3.602-3.716 5.585l-.032.07c-1.665 3.72-2.254 7.582-2.254 11.305 0 4.857 1.403 10.261 4.537 14.606h-.01l.038.04c.487.671 1.01 1.321 1.582 1.936l.053.057a19.21 19.21 0 0 0 2.288 2.042l6.544 6.731c.079.088.138.19.219.276l.054.057c.166.176.354.321.526.49l.55.566-.01-.062c4.607 4.202 10.87 5.943 16.315 5.943l75.247-.33h1.807a12.906 12.906 0 0 0 10.766-6.045c4.639 4.644 11.09 6.375 16.588 6.375l100-.33c9.028-.002 15.265-9.034 12.068-17.478l-8.091-21.353a12.905 12.905 0 0 0-2.517-3.958 15.23 15.23 0 0 0 5.799-8.77l2.356-10.893a15.23 15.23 0 0 0-5.3-15.013l8.244-38.112c1.348-6.287-1.437-12.488-6.538-15.856 4.577-12.381 7.082-25.762 7.082-39.726 0-30.873-12.263-58.865-32.14-79.503h.059l-20.236-20.23c-20.944-21.806-50.392-35.408-83.027-35.408zm0 4.427c61.122 0 110.624 49.414 110.624 110.425 0 15.891-3.374 30.985-9.422 44.631l-.584-.125a15.238 15.238 0 0 0-4.56-.28 15.231 15.231 0 0 0-8.354 3.438l-8.812 7.296-.017-9.215 5.344-3.738 5.973-4.178v-2.705l-3.149-.104c-1.568-.052-2.68-.094-3.4-.13h-.042a89.89 89.89 0 0 0 7.028-34.888c0-49.945-40.596-90.473-90.631-90.473-1.674 0-3.329.081-4.98.175-.848-.908-1.792-1.674-4.081-3.598l-1.66-1.396-3.164-1.059-3.189-1.067-1.232.175a54.352 54.352 0 0 0-4.834.95c-.405.103-.65.153-.94.3-.45.228-1.198.745-2.197 1.445-.998.7-2.163 1.546-3.145 2.293-1.316 1-1.87 1.551-3.18 3.16a28.94 28.94 0 0 1-1.126 1.309 8.391 8.391 0 0 1-.375.384c-.058.01-.054.01-.159.021a290.676 290.676 0 0 1-3.14.341c-1.809.188-7.21.826-12.038 1.422-2.57.318-4.775.576-6.344.747a98.27 98.27 0 0 1-1.84.187c-.191.017-.326.027-.429.033-.052-.031-.102-.062-.173-.103-.192-.111-.45-.259-.756-.432-.612-.346-1.414-.794-2.23-1.246-1.631-.905-3.228-1.785-3.689-2.005-.204-.097-.692-.19-.992-.276 18.403-13.64 41.197-21.714 65.894-21.714zm-17.063 14.001 2.654.883c1.46.485 2.858.987 3.108 1.114.25.128 1.635 1.23 3.077 2.449l2.62 2.217 2.575 3.417c2.351 3.123 2.776 3.772 4.907 7.512 5.387 9.452 10.834 22.612 16.758 40.49a668.646 668.646 0 0 1 8.144 26.385c.807 2.821 3.52 11.796 5.482 18.133 6.618 21.368 9.812 30.316 13.337 37.369 1.583 3.167 2.119 4.112 3.543 6.239 3.96 5.915 7.641 7.69 11.631 5.608.429-.224.832-.43.897-.458.155-.067-.82.787-1.175 1.03-.153.104-1.004.774-1.89 1.489a285.97 285.97 0 0 1-2.113 1.69 22.25 22.25 0 0 0-.647.52c-.08.071-.41.33-.73.575-.597.458-.779.606-1.234 1.01a92.85 92.85 0 0 1-1.362 1.144c-1.233 1.022-1.661 1.42-1.447 1.349.08-.027 7.522-5.635 16.538-12.463 2.565-1.942 3.846-2.93 5.815-4.43a87.004 87.004 0 0 1-2.382 3.515c-.023-.022-.028-.082-.064-.06-.072.043-.13.134-.13.202 0 .028.038.03.055.05l-.356.493c-.01-.043.01-.11-.012-.128-.14-.14-.213.055-.116.304-.47.642-.955 1.27-1.441 1.898-.107 0-.176.07-.246.296-.251.321-.528.622-.783.94-.031-.048-.11-.087-.22-.089-.13 0-.26.03-.262.096 0 .054-.039.244-.085.422l-.082.325.084-.077c-.966 1.178-1.897 2.386-2.923 3.51l-.055.055c-.137.15-.292.282-.43.43v-.213c-.06 0-.605.483-1.208 1.073-4.952 4.843-7.953 7.707-8.113 7.743-.105.023-.19.111-.19.196 0 .173-2.669 2.686-2.853 2.686-.065 0-.137.078-.16.174-.017.073-.588.634-1.116 1.15-.07-.062-.135-.128-.204-.189.014-.014.014-.011.029-.025l.996-.973h-1.368l-.221.5c-.09-.072-.19-.128-.282-.198.02-.07.087-.247.081-.253-.017-.017-.19-.07-.387-.12l-.346-.087c-.176-.12-.341-.255-.522-.367-.01 0 0-.07-.01-.065-.012.01-.011.033-.022.044-.104-.064-.213-.119-.318-.18-.001-.012.032-.085.028-.09 0-.01-.044.076-.052.077-.125-.073-.258-.13-.385-.2.045-.037.043.015.112-.072.08-.103.12-.156.113-.162-.011-.01-.059.032-.162.113-.056.043-.062.062-.102.1a15.192 15.192 0 0 0-2.557-1.1l.027-.02c1.93-1.462 3.75-2.894 4.043-3.182a43.81 43.81 0 0 1 2.598-2.345c.35-.286.791-.67.98-.853.19-.183.5-.435.691-.56.302-.198 4.448-3.534 4.621-3.719.036-.038.3-.242.585-.454l.65-.482c.476-.355 1.106-.929 1.065-.97-.027-.027-.267.04-.532.152-.265.11-.932.235-1.482.277-2.741.208-5.402-1.429-8.107-4.987l-.926-1.218a7.438 7.438 0 0 1-.43-.715c-.151-.28-.578-1.006-.948-1.614-.864-1.416-3.498-6.677-4.524-9.033-2.67-6.133-6.751-18.274-13.5-40.164-.963-3.12-2.51-8.246-2.787-9.23-1.373-4.871-5.663-18.985-5.848-19.236-.053-.072-.136-.348-.184-.616-.087-.483-2.553-8.129-2.862-8.872-.09-.215-.383-1.092-.652-1.95-.27-.858-.96-2.847-1.534-4.42a620.935 620.935 0 0 1-1.273-3.509c-1.385-3.931-2.473-6.799-3.303-8.708-.093-.215-.758-1.854-1.476-3.643-.719-1.789-1.595-3.865-1.946-4.614l-2.306-4.918c-.917-1.955-1.744-3.632-1.839-3.727-.095-.095-.172-.217-.172-.271 0-.054-.863-1.608-1.918-3.452a340.337 340.337 0 0 1-2.088-3.683c-.152-.294-2.963-4.07-3.845-5.164a56.082 56.082 0 0 1-.97-1.27c-.604-.81-3.313-3.218-3.545-3.15-.061.017-.112-.026-.112-.097 0-.07-.558-.59-1.239-1.155l-1.239-1.026-2.793-.933-2.793-.934-1.915.328c-3.578.614-4.233.807-5.41 1.603-1.168.79-2.646 1.874-4.301 3.155-.96.743-2.307 2.21-3.577 3.895-.178.237-.582.76-.896 1.16-.315.401-1.265 1.654-2.112 2.783-1.296 1.726-1.541 2.127-1.541 2.517 0 .45.01.46.422.389.233-.041 1.154-.139 2.047-.218.894-.079 1.756-.17 1.915-.202.29-.06.29-.07.328-3.144l.037-3.085.03 3.105.032 3.105.682-.076c.375-.042 1.399-.149 2.275-.237l1.592-.16.03-3.193.031-3.194.037 3.152.037 3.152h.42c.231 0 1.18-.089 2.11-.194.93-.105 1.792-.191 1.915-.192.207 0 .228-.268.262-3.218l.037-3.217.031 3.213.031 3.214.358-.055c.197-.03.635-.087.975-.124l.617-.07V1171.519l.747-.033.748-.033-.02.878c-.012.483-.052.909-.09.946-.056.057-6.246.687-8.729.887-1.598.13-5.254.477-6.914.658-.944.102-1.778.187-1.853.187-.093 0-.136 2.629-.136 8.394v8.394l2.388 3.987a249.682 249.682 0 0 1 4.628 8.145c1.233 2.288 2.293 4.179 2.357 4.203.063.024.115.128.115.23 0 .104.205.594.456 1.091.506 1.006.543 1.17.26 1.17-.116 0-.474-.559-.894-1.397a115.383 115.383 0 0 0-1.705-3.217c-.552-1.001-1.327-2.434-1.723-3.185-.396-.75-.763-1.423-.817-1.494-.054-.072-.367-.64-.697-1.262a63.996 63.996 0 0 0-1.531-2.665 937.321 937.321 0 0 1-1.833-3.028 53.528 53.528 0 0 0-.952-1.548c-.03-.03-.052 5.454-.052 12.186v12.24h.877c.483-.001 1.534-.039 2.337-.086l1.46-.084.037-3.068.037-3.067.031 3.086.031 3.086 1.593-.07c.876-.037 1.898-.1 2.272-.137l.68-.068.037-3.079.037-3.078.03 3.1.031 3.1 2.243-.092c1.233-.05 2.285-.131 2.337-.18.052-.047.112-1.46.132-3.137l.037-3.05.03 3.087.03 3.087h1.56V1219.07h-.52c-.286 0-.52.039-.52.086 0 .046 1.024 2.269 2.275 4.94 1.68 3.585 2.274 4.982 2.274 5.341v.487l-.26-.425c-.142-.234-.26-.478-.26-.542 0-.224-4.433-9.562-4.6-9.691-.113-.087-1.417-.08-3.925.02-2.066.082-4.866.191-6.222.243-1.356.05-2.555.11-2.665.132-.11.022-.477.044-.815.05l-.617.01-.035 6.726-.035 6.727-.032-6.74-.032-6.738-1.267.081c-2.251.143-3.18.193-5.232.28-1.108.047-2.16.1-2.34.118-.178.018-.544.039-.811.049l-.487.017-.033 20.05-.034 20.049-.032-20.05-.032-20.05h-.293c-.16 0-1.257.062-2.437.135-1.18.073-2.422.137-2.762.141l-.617.01v2.816l-.715.09-.715.088V1226.35h-1.662l-.076 2.373c-.164 5.146-.21 10.333-.211 23.461v13.68h-1.95v6.24h2.064c1.134 0 2.246.036 2.47.08l.405.082V1274.703H7584.012l.077 10.756c.042 5.915.224 18.447.404 27.848.031 1.638.042 2.747.073 4.467h-1.802c-2.609.08-5.125.866-7.35 2.202-.053-4.105-.073-7.194-.134-11.088-.18-11.617-.328-26.05-.329-32.073v-10.95h-.909l-.032 54.675-.07-.028-.032-54.648h-.65v-16.15c0-8.883.06-18.573.128-21.535.07-2.962.103-5.408.074-5.437-.029-.028-.528.932-1.109 2.134l-1.057 2.186-.07 2.276c-.206 6.774-.084 71.351.145 76.17.029.608.092 5.14.14 10.073.02 2.11.034 2.413.054 4.003-.193-.068-.386-.124-.58-.188 0-.025-.01-.014 0-.042.116-.458.125-1.342.016-1.451-.05-.048-.015-.176.074-.284.129-.156.127-.206-.01-.251-.13-.043-.133-.1-.017-.24.114-.137.114-.182 0-.182-.109 0-.113-.07-.016-.252.082-.153.088-.281.014-.327-.067-.04-.117-.732-.112-1.535 0-.803-.001-2.22-.011-3.15-.011-.93-.017-1.777-.017-1.884-.011-1.872-.168-8.658-.208-8.698-.03-.03-.069.993-.087 2.274-.018 1.281-.061-15.003-.097-36.186l-.066-38.514-1.657 3.319-1.658 3.318-.032 15.699-.032 15.7-.04-15.534-.04-15.532-3.567 7.116c-1.962 3.914-3.568 7.243-3.568 7.398 0 .155-.039.243-.087.195-.093-.093-1.213 1.885-1.213 2.143 0 .085-.08.247-.178.36-.098.113-1.477 2.808-3.066 5.99-1.588 3.18-2.97 5.939-3.07 6.129-.158.294-.19 5.954-.217 38.798l-.012 13.997h-.062l-.024-13.822-.065-38.279-1.848 3.64c-1.832 3.606-2.813 5.483-5.094 9.742l-1.181 2.203v24.701c-.056-.095-.11-.192-.166-.288-.014-11.043-.025-23.914-.065-23.873-.215.225-3.132 5.784-3.132 5.967 0 .1-.054.199-.12.222-.064.024-1.351 2.36-2.858 5.191l-.071.133-.21-.495c10.958-20.506 11.497-21.52 16.565-31.56 2.056-4.075 4.046-7.994 4.422-8.709.375-.715 3.876-7.705 7.78-15.533 13.4-26.867 18.731-37.394 22.184-43.803 5.896-10.945 6.8-12.562 9.219-16.507 1.38-2.252 3.063-5.001 3.738-6.11 1.614-2.647 6.477-9.107 8.142-10.813.594-.609 3.77-3.003 5.48-4.13 1.26-.833 1.36-.873 2.989-1.212a78.164 78.164 0 0 1 3.06-.569zm64.857 166.257h-.001zm-64.951-164.696c.093.01.035.01.177.04.332.078.798.214 1.36.397l.58.189c-.146.018-.258.03-.416.05l-1.106.138-.343.041c-.04 0-.072.01-.093.011h-.02.041l-.18.045zm-1.734.19v5.598c-.098.014-.115.017-.251.034-.295.036-.665.076-1.036.114-.61.062-1.128.125-1.524.176l.025-2.572.029-2.828 1.107-.227c.456-.093.919-.18 1.291-.243.193-.033.227-.035.358-.052zm6.27 1.153h.013c.093 0 1.744 1.353 3.387 2.777l2.11 1.818c1.482 1.275 1.812 1.624 1.941 2.055.12.403.119 5.53-.01 22.964-.091 12.344-.218 25.543-.283 29.332-.066 3.79-.157 14.221-.203 23.183l-.084 16.293.434.896c.239.494.481.897.539.897.058 0 .104.111.104.247 0 .283 3.882 8.375 4.049 8.44.06.024.11.136.11.248 0 .26 3.747 7.623 3.909 7.681.067.024.12.136.12.25 0 .532 7.123 13.16 7.423 13.16.065 0 .117.073.117.162 0 .187 2.11 3.227 2.91 4.192.295.357.878 1.101 1.294 1.653 1.046 1.387 3.474 4.116 4.78 5.373 3.683 3.543 6.959 5.516 10.708 6.452 1.002.25 1.522.293 3.627.296 1.769 0 2.261.033 1.755.11-1.246.188-4.345.029-5.614-.288-2.89-.722-5.65-2.17-8.542-4.483-1.299-1.039-4.077-3.833-5.572-5.604a523.96 523.96 0 0 0-1.587-1.872c-.209-.244-.38-.461-.38-.484 0-.023-.54-.761-1.202-1.643a132.783 132.783 0 0 1-1.592-2.157 10.734 10.734 0 0 0-.55-.73c-.088-.095-.918-1.451-1.845-3.012-.927-1.562-1.747-2.91-1.822-2.997-.076-.086-.137-.193-.137-.238 0-.045-.479-.94-1.063-1.988-1.338-2.402-1.373-2.465-2.059-3.758-.312-.59-.615-1.073-.673-1.073-.058 0-.105-.087-.105-.192 0-.233-3.774-7.653-3.924-7.715-.058-.024-.106-.118-.106-.21 0-.243-3.893-8.187-4.037-8.238-.067-.024-.124-.17-.128-.325 0-.155-.206-.662-.449-1.127l-.442-.845-.011 5.232-.011 5.232-1.723.02c-3.362.039-5.056.086-5.114.143-.074.074-.073 25.308 0 32.982.057 5.907.073 8.102.061 8.448 0 .108.011.605.02 1.105.015.5-.017 1.013-.069 1.138-.052.125-.043.228.021.228.134 0 .133.527 0 .744-.05.081-.035.181.033.223.115.071.073.647-.062.867-.033.054 0 .132.065.175.07.043.093.164.054.268-.04.105-.14.15-.221.101-.081-.049-.07.01.028.13.138.17.185 1.029.214 3.891v.304c-.124-.01-.292-.01-.418-.018-.025-3.232-.065-6.567-.232-19.36a530.702 530.702 0 0 1-.054-5.913c0-.68.01-1.352 0-1.495-.036-4 .015-61.333.055-62.78.032-1.144.087-7.286.123-13.648.036-6.363.098-14.698.138-18.523.04-3.824.072-14.162.07-22.973 0-9.163.049-16.02.114-16.02zm-10.977.1h.001c.015.472.026 1.005.026 2.173v2.692c-.098.014-.116.018-.252.035-.295.036-.666.077-1.037.115-.645.066-1.252.136-1.656.187v-3.174l.892-.633a62.627 62.627 0 0 1 2.026-1.395zm11.485 3.312c-.02-1.555-.038-.283-.038 2.827s.017 4.382.038 2.827a253.71 253.71 0 0 0 0-5.654zm-16.304.214.011.386c.011.518.013 1.006.011 1.367v.102c-.266.047-.617.097-1.024.138-.431.043-.661.076-1.034.118.124-.145.212-.262.349-.416a20.037 20.037 0 0 1 1.687-1.695zm-38.416 1.898c1.527.397 2.35.83 4.84 2.21 3.513 1.945 3.838 2.144 3.503 2.145-.103 0-1.387.145-2.853.323-1.465.177-2.738.323-2.827.324-.128 0-.162 1.286-.162 5.982v5.979h.37c.204 0 .73-.037 1.167-.083l.794-.083.036-1.51.037-1.508.65-.065.65-.065.038-1.528c.023-.957.088-1.527.173-1.527.139 0 20.194-2.271 21.35-2.418l.633-.08-.308.506c-2.3 3.773-2.928 4.757-3.097 4.842-.11.056-1.532.237-3.158.404-1.626.166-2.957.346-2.957.399 0 .053.731.954 1.625 2.003.893 1.05 1.623 1.946 1.622 1.993 0 .047-.05.16-.107.25-.112.177-.06.232-2.427-2.57a275.532 275.532 0 0 0-1.352-1.593c-.05-.053-.544-.04-1.1.032-.556.07-1.431.161-1.944.202-.512.041-1.004.1-1.094.128-.117.038-.162.455-.162 1.487v1.434h-.445c-.847 0-.855.015-.855 1.558v1.401l-.826.088-.825.088-.094 9.318-.094 9.318-2.815 5.541-2.816 5.542-1.53.091-1.529.091v1.321c0 .726-.039 2.11-.084 3.076-.074 1.59-.115 1.82-.452 2.469l-.371.715.07-2.925c.158-6.497.327-22.413.405-38.019l.083-16.507-1.547-.297c-.313-.06-.394-.077-.666-.13.152-.116.299-.238.45-.353zm-.471.975h.276l-.093 9.52a1568.8 1568.8 0 0 1-.14 11.342c-.089 3.584-.189 10.253-.255 17.027-.075 7.642-.158 13.817-.271 19.882-.061 3.279-.113 4.097-.278 4.42-.111.217-.246.424-.3.46-.052.035-.125.182-.16.324-.037.143-.073-.043-.08-.411-.012-.37.037-.691.102-.715.067-.024.155-2.896.205-6.607.05-3.61.109-7.062.134-7.67.074-1.762.185-7.89.263-14.427.165-13.883.313-28.306.316-30.643 0-2.464.011-2.502.28-2.502zm67.304.036c48.147 0 87.141 38.924 87.141 86.984a86.71 86.71 0 0 1-5.056 29.229c-.342-2.191-.715-4.76-1.123-7.88-.716-5.466-1.224-9.054-1.641-11.426-.417-2.373-.69-3.506-1.173-4.249a1.37 1.37 0 0 0-.905-.601c-.347-.068-.772-.023-1.105.298.13-.125.107-.076.077-.065a.73.73 0 0 1-.112.028c-.208.028-.498.113-.71.346-.212.233-.267.497-.29.703l.034-.299-4.04-.029c-2.292-.017-3.478-.028-4.036-.062-.132-.01-.093 0-.15-.012a1.74 1.74 0 0 0-.427-.53c-.263-.215-.563-.4-1.012-.397-.5 0-.695.188-.944.364-.124.088-.24.183-.35.307-.11.123-.282.246-.283.663 0-.25.02-.16.017-.152 0 .01-.012.038-.023.075a46.25 46.25 0 0 1-.506 1.347c-.649 1.646-1.37 4.01-2.65 8.654l-1.378 5.004c-1.515 5.499-3.035 10.172-4.278 13.175a943.57 943.57 0 0 0-1.523 3.705c-1.395 3.42-3.037 6.24-4.767 8.234-.145.167-.264.292-.393.433-.032-.052-.046-.069-.08-.126a51.37 51.37 0 0 1-1.239-2.303 117.776 117.776 0 0 1-3.017-6.368c-1.26-2.909-3.695-9.67-6.079-16.908-2.469-7.498-8.319-26.42-10.201-32.995-5.335-18.636-11.126-36.034-16.118-48.424-2.167-5.376-5.906-13.626-7.322-16.094-.423-.74-1.506-2.64-2.402-4.217-1.267-2.233-2.125-3.538-3.68-5.604-.25-.33-.356-.47-.566-.75.768-.026 1.535-.057 2.31-.057zm-70.167 1.603c-.011.265-.012.629-.017 1.087-.012.925-.024 2.224-.037 3.801a3328.5 3328.5 0 0 0-.07 12.057c-.064 16.345-.174 25.837-.468 40.594l-.14 6.968-2.064 4.088-.727 1.44.051-8.89c.038-6.617.07-23.79.07-38.171v-20.05a110.969 110.969 0 0 1 3.402-2.924zm66.461.466.529.7 1.704 2.253v48.235c0 13.332 0 25.452-.013 34.24 0 4.393-.011 7.954-.013 10.415v.693c-.176-.364-.305-.628-.497-1.029l-1.772-3.692.033-46.92zm-9.707 1.102c.02 5.374.02 14.206 0 19.627-.018 5.42-.033 1.024-.033-9.77 0-10.796.015-15.231.033-9.857zm-62.046 3.08c.025 5.286.03 13.663.03 30.693v38.236l-2.296 4.585a394.875 394.875 0 0 1-1.943 3.824V1206.1c0-11.983 0-22.876.014-30.774v-1.87a111.084 111.084 0 0 1 4.192-4.124zm38.385.224c-.02.03-.115.156-.21.28-.15.195-.144.228.037.228.13 0 .21-.108.21-.282 0-.154-.017-.256-.037-.226zm-31.45.94c.019 4.063.019 10.672 0 14.688-.02 4.016-.035.692-.035-7.386 0-8.079.016-11.364.035-7.302zm68.977 1.022.413.723 1.69 2.956-.032 48.747-.031 45.806-.4-.802-1.717-3.456.04-48.285zm-20.345 2.778c0 .232-.013.458.123.714.178.338.433.49.689.658l.19.126V1209.293a49.56 49.56 0 0 1-1.997.135l-.82.04v-17.423c0-8.609 0-13.16.034-15.555.014-1.121.036-1.702.06-2.047.24-.025.54-.05.846-.073.315-.022.618-.05.875-.076zm2.872.08v.77c0 .422-.044.764-.097.759-.054 0-.494-.278-.98-.607-.484-.329-.835-.643-.779-.697.056-.054.497-.127.98-.162zm-63.582.084c0 .713-.01.815-.01 1.81l-.032 13.876-.034-13.81v-1.797l.076-.08zm56.947.177v.034c.02.56.037 1.474.05 2.84.024 2.732.033 7.279.033 14.51v17.513l-.14.012c-.43.038-1.197.091-1.671.113l-.41.02-.294-.584-.43-.855v-16.92c0-6.793.011-11.067.033-13.637.013-1.285.03-2.146.05-2.671 0-.054 0-.062.01-.11.028 0 .044 0 .074-.01.373-.034.864-.081 1.383-.133.494-.05.95-.093 1.312-.127zm-13.413.43c-.018-.012-.845.066-1.836.174l-1.802.197-.582.907c-.32.499-.615 1-.657 1.115a.797.797 0 0 1-.157.273c-.228.186-1.961 3.178-1.928 3.329.04.175.534.903 3.817 5.618.933 1.341 2.016 2.963 2.405 3.603l.706 1.163.034-8.177c.018-4.497.018-8.188 0-8.201zm8.688.022v15.868c0 4.585 0 8.752-.01 11.772 0 .868 0 1.397-.012 2.058-.26-.481-.476-.874-.776-1.431l-2.024-3.755v-24.268l1.471-.128zm-53.19.38c.017 6.21.026 13.444.025 31.153v43.789l-2.772 5.431-1.46 2.86V1180.33a110.959 110.959 0 0 1 4.207-4.862zm48.512.047v12.035c0 2.99 0 5.808-.011 7.812v.989c-.285-.47-.528-.866-.862-1.419l-2.07-3.43V1176.026h.59l-.238-.238.325-.037c.728-.082 1.725-.186 2.196-.23zm-4.848.535h.01c0 .395.011.916.012 1.582 0 1.424 0 3.383-.011 5.53l-.022 5.288c-.458-.695-.805-1.247-1.431-2.149l-1.72-2.476V1177.775l.37-.622c.38-.635.495-.79.561-.828.066-.037.43-.107 1.339-.2.346-.034.632-.055.897-.074zm-5.467.589c-.16.277-.29.517-.494.85a262.4 262.4 0 0 1-.824 1.337c-.294-.355-.626-.754-1.153-1.375-.164-.193-.271-.328-.413-.499a320.124 320.124 0 0 1 2.884-.313zm-5.628.621 1.108 1.3 1.187 1.392v2.357l-1.891 3.49-.34.626-1.334 2.462a336.883 336.883 0 0 1-.025-4.623v-6.85l-.39.01c.27-.01.718-.052 1.199-.105zm53.484 1.835.32.685 1.653 3.54-.033 48.304-.031 45.571-.064-.119a247.004 247.004 0 0 1-1.711-3.19l-.197-.391.033-48.77zm-57.57 1.455h.918v11.839l-.843 1.542c-.484.883-1.375 2.564-2.067 3.892l.022-1.297c.04-2.438.074-6.48.074-8.998v-3.905l.187-.02 1.503-.161v-2.067c0-.646.046-.814.012-.818.068 0 .083-.01.193-.01zm10.253.105v.628l-.202-.297zm-43.919.907h.01l-.01 1.825-.01-1.807c0-.01.01-.012.013-.018zm42.362.11c-.07-.022-.418.529-.773 1.226-.356.697-.679 1.298-.719 1.334-.04.036-.347.576-.682 1.201l-.61 1.137v31.232l1.917-.086c1.054-.047 2.224-.121 2.6-.163.504-.056.686-.132.697-.289.013-.176.025-.173.075.02.056.215.221.226 2.292.152 1.228-.044 2.305-.103 2.394-.13.129-.04.163-2.64.163-12.43v-12.379l-.736-1.24c-.987-1.665-2.51-3.905-2.656-3.905-.064 0-.117-.076-.117-.17 0-.182-1.145-1.817-1.323-1.888-.059-.024-.11-.112-.113-.195-.011-.195-2.24-3.369-2.409-3.426zm-43.284 1.07c.014 8.547.024 19.195.024 31.435v48.225l-2.724 5.348c-.574 1.126-1.033 2.022-1.484 2.902v-1.08c-.011-2.626-.013-6.43-.018-11.126-.01-9.392-.017-22.354-.017-36.62v-33.267a110.615 110.615 0 0 1 4.219-5.817zm43.384.435.465.665 1.019 1.459V1210.555l-.422.014v.016c-.35.019-.624.03-1.065.059l-.548.035v-26.471l.515-.963zm-42.435.84c.028.197.03.482 0 .639-.03.16-.055 0-.054-.36 0-.343.025-.446.054-.28zm-.053 1.304c.013-.014.03 0 .05.056.038.094.033.206-.01.25-.044.042-.075-.034-.07-.171.01-.076.016-.122.029-.135zm0 1.56c.013-.014.03 0 .05.056.038.094.033.206-.01.249-.044.043-.075-.033-.07-.17.01-.077.016-.122.029-.136zm39.319.331c-.022-.01-.047.027-.075.074-.63 1.049-3.664 6.805-3.664 6.952 0 .093-.084.233-.186.313-.214.166-1.143 1.9-3.244 6.058l-1.478 2.925-.052 4.264c-.043 3.57-.084 4.283-.243 4.385-.105.067-.674.122-1.264.123h-1.072v6.106l1.333-.075c.733-.042 2.034-.114 2.892-.161l1.56-.085.068-3.055.07-3.054.028 3.038.028 3.039 2.373-.087c1.304-.048 2.533-.119 2.73-.157l.357-.07v-15.424c0-13.056-.011-15.064-.16-15.11zm55.675.118c.271.65.418.973.704 1.681l1.181 2.921-.033 47.128-.03 44.566-.288-.488-1.556-2.647.011-48.256zm-94.943.119a.503.503 0 0 1 0 .325c-.036.089-.066.016-.066-.163s.03-.252.066-.162zm47.22 2.664c.264.414.442.67.704 1.102l.942 1.55v17.523l-.44.035c-.47.036-.921.056-1.206.066v-10.979zm-47.21.136c.025.558.025 1.435 0 1.95-.023.515-.043.06-.043-1.013 0-1.072.02-1.494.044-.937zm38.53.177.025 9.057c.01 3.29.01 6.29-.011 8.472-.011 1.091-.014 1.979-.023 2.592 0 .152 0 .232-.011.35-.31.028-.709.057-1.148.08l-.95.047V1194.348l1.7-3.16zm-45.493.916.02 30.897.033 51.793-2.511 4.693-.208.39c-.575 1.075-1.037 1.926-1.49 2.76v-1.465c-.01-2.764-.011-6.762-.016-11.695-.011-9.867-.016-23.475-.016-38.446v-31.693a110.15 110.15 0 0 1 4.189-7.234zm25.16 1.956c.026.447.026 1.178 0 1.625-.024.446-.045.08-.045-.813 0-.893.02-1.259.046-.812zm-18.203.065c.033.125.033.33 0 .455s-.06.023-.06-.228c0-.25.026-.352.06-.227zm0 .922c.03.126.03.294 0 .38-.036.088-.062-.015-.06-.23 0-.2.03-.244.06-.15zm0 .976c.029.161.029.386 0 .508-.033.124-.058-.01-.056-.294 0-.271.027-.341.056-.214zm18.194.701c.033.125.033.33 0 .455s-.059.023-.059-.227.026-.353.06-.228zm55.114.209c.03.161.03.386 0 .507-.033.125-.058-.01-.056-.293 0-.271.027-.341.056-.214zm-73.366.458c.013-.014.03 0 .05.056.038.094.033.206-.01.25-.044.042-.075-.035-.07-.172.01-.076.015-.12.028-.135zm98.805.213c.242.645.419 1.085.647 1.715l.937 2.579-.033 45.002-.032 42.877c-.325-.454-.65-.9-.912-1.28l-.672-.981.034-46.808zm-80.608.437c.013-.014.03 0 .05.056.037.094.033.206-.01.249-.044.043-.075-.034-.07-.17.01-.077.015-.122.028-.135zm55.172.178c.028.304.028.801 0 1.105-.027.304-.05.055-.05-.552 0-.608.022-.857.05-.553zm-73.369.212c.013-.014.03 0 .05.056.038.094.033.206-.01.25-.044.042-.075-.035-.07-.171.01-.076.015-.122.028-.136zm18.255.308c.03.16.03.424 0 .585-.031.16-.056.029-.056-.292 0-.322.025-.454.056-.293zm34.116.505c.466.792.961 1.647 1.091 1.904l.264.52V1210.042l-.24.021c-.394.037-.856.06-1.146.068v-6.751c0-1.921.013-3.59.031-4.896zm-34.111 1.575c.023.66.023 1.743 0 2.404-.023.661-.043.12-.043-1.202 0-1.323.019-1.864.043-1.202zm55.05.342h.001c.013-.014.03 0 .051.056h.001c.037.094.033.206-.011.249-.043.043-.074-.033-.069-.17.01-.077.015-.122.028-.136zm-40.264.525v3.925l.011 6.369-.137.014a17.48 17.48 0 0 1-1.377.077v-7.386l1.408-2.812zm-32.994.043a.503.503 0 0 1 0 .325c-.036.089-.066.016-.066-.163s.03-.252.066-.162zm73.259.212c.013-.014.03 0 .051.056h.001c.037.094.033.205-.011.249-.043.043-.074-.033-.069-.171.01-.076.015-.121.028-.135zm0 .909c.013-.014.03 0 .051.056h.001c.037.094.033.206-.011.25-.043.043-.074-.034-.069-.171.01-.076.015-.122.028-.135zm-86.318.246.018 28.716.033 54.39-2.577 4.805-.208.389-.213.395c-.462-1.154-.923-2.309-1.347-3.482 0-2.382-.01-4.444-.01-7.689-.012-10.216-.016-24.315-.016-39.83v-27.366a109.636 109.636 0 0 1 4.32-10.328zm13.01.274c.012-.014.03.01.05.057.037.094.032.205-.012.248-.043.043-.074-.034-.068-.17.01-.076.015-.121.028-.135zm0 .78c.012-.014.03 0 .05.056.037.094.032.206-.012.25-.043.042-.074-.034-.068-.171.01-.076.015-.121.028-.135zm73.362.127c.03.125.03.293 0 .379-.036.088-.062-.016-.06-.23 0-.2.03-.24.06-.15zm-55.168.653c.013-.014.03 0 .05.056.038.094.033.206-.01.249-.044.043-.075-.033-.07-.17.01-.076.015-.122.028-.135zm-18.195.78c.013-.014.03 0 .05.056.038.094.033.206-.01.249-.044.043-.075-.033-.069-.17.01-.077.015-.122.028-.136zm18.195.65c.013-.015.03 0 .05.055.038.094.033.207-.01.25-.044.043-.075-.033-.07-.17.01-.077.015-.122.028-.136zm55.17.178c.03.16.03.424 0 .585-.032.16-.057.029-.057-.293s.025-.453.056-.292zm28.82.381c.225.649.457 1.299.65 1.875l.784 2.33.091 42.442v.736c.024 11.366.04 21.798.044 29.323v10.596a34.44 34.44 0 0 1-1.335-1.691c0-.067-.011-.14-.015-.263-.014-.32-.026-.82-.04-1.527a667.003 667.003 0 0 1-.06-7.041c-.034-6.75-.058-18-.084-36.095-.018-12.36-.031-23.593-.036-31.733zm-83.934.334c.033.125.033.33 0 .455s-.06.023-.06-.228c0-.25.027-.352.06-.227zm38.907.689.09.162c.526.964.831 1.551.99 1.916.143.332.148.418.15.55-.28.035-.854.073-1.215.073h-.025v-2.344c0-.152 0-.218.01-.357zm-38.9 1.136c.024.557.024 1.435 0 1.95-.024.515-.044.059-.044-1.013 0-1.072.02-1.494.044-.937zm-.011 3.125a.8.8 0 0 1 0 .381c-.036.088-.062-.015-.061-.23 0-.202.03-.25.06-.15zm26.59.266c.013-.014.03 0 .05.056.039.094.034.206-.01.25-.043.042-.074-.034-.07-.171.01-.076.015-.122.028-.135zm-16.933.72-.868.038-.87.04-2.106 4.158-2.108 4.16-.059 1.922-.06 1.921 1.184-.037 1.183-.037.065-1.496.065-1.495.682-.04.682-.039v-2.941l.488-.081a8.306 8.306 0 0 1 1.104-.082h.618v-2.996zm-9.713.06c.013-.015.03 0 .05.055.037.094.033.207-.01.25-.044.043-.075-.034-.07-.171.01-.076.015-.121.028-.135zm87.329 3.656 1.25 3.758.075 39.3c.021 10.839.034 20.692.037 27.835v9.853l-.202-.201-1.178-1.196.013-41.798zm-60.683.503c.013-.014.03 0 .05.056.039.094.034.206-.01.25-.043.042-.074-.034-.07-.171.01-.076.015-.121.028-.135zm-64.077 1.862.013 22.209.024 41.039a110.26 110.26 0 0 1-4.619-30.79v-1.8a110.247 110.247 0 0 1 4.582-30.658zm85.734 1.232c.581-.042.953.138.723.35-.072.066-.37.025-.708-.098l-.585-.211zm-3.286.335v22.709c0 11.136 0 17.004-.033 20.074-.014 1.427-.035 2.152-.061 2.597-.242-.012-.4-.026-.718-.038l-.416-.016-.087-19.079c-.05-10.88-.071-21.418-.05-23.348l.034-2.864.688-.019zm-4.81.151v45.157H7609.64l-.023-16.454c-.011-7.318-.011-14.625.011-20.11.011-2.743.016-5.031.027-6.635.011-.802.012-1.433.018-1.862v-.012c.193-.015.38-.032.621-.05zm-6.065.228h1.386v44.799h-1.386v-22.4zm-3.424.186V1265.251h-1.646v-44.539h.337c.483 0 .918-.033 1.309-.071zm-4.94.252V1265.122h-2.035v-44.149h.336c.572 0 1.241-.034 1.699-.081zm-5.327.267v43.964h-2.167v-21.883c0-8.991.011-14.649.033-18.06.012-1.704.028-2.85.05-3.56 0-.178.011-.248.017-.372.32-.02.734-.04 1.174-.055zm30.471 1.673c.188.051.255.16.255.344 0 .369.025.368-1.04.014l-.844-.281.65-.07c.483-.05.791-.057.98-.01zm-36.112 1.499c.011.673.014 1.096.02 1.97.021 3.767.032 9.404.032 16.877v21.815h-2.204l.082-16.709c.048-9.595.128-18.514.17-19.602l.058-1.47H7585.206v-2.871c.053 0 .11-.01.164-.01zm-14.679.764c-.014.014-.023.059-.025.135-.01.137.025.214.07.17.042-.043.047-.155.01-.249-.02-.051-.039-.07-.052-.056zm47.968.588.225.475 1.372 2.925v36.43H7618.741v-1.96c0-1.494-.033-11.356-.073-21.937a2391.11 2391.11 0 0 1-.022-14.2c0-.767.01-1.145.013-1.733zm42.375.385c.212.695.466 1.508.59 1.93l.458 1.537.08 34.585c.023 9.54.052 18.349.08 24.855.014 3.254.029 5.931.042 7.838.01.953.013 1.714.019 2.258v.204h-.035l.025.412c-.044-.035-.073-.056-.12-.092l-1.033-.824-.088-25.54c-.05-14.241-.072-31.765-.05-38.933zm-58.827 8.31c.023.665.023 1.718 0 2.34-.024.621-.043.078-.043-1.21 0-1.286.02-1.795.043-1.13zm-34.035.902c-.01.865-.013 1.832-.018 3.103-.013 3.046-.02 7.105-.02 11.444v15.13c-.029 0-.058.013-.086.02V1235.525zm95.7.256c.01.023.01.028.015.051l.926 3.15.164 31.97c.044 8.82.079 16.844.097 22.668.01 2.912.015 5.275.015 6.91v1.338c-.262-.159-.502-.3-.81-.503l-.141-.094-.081-19.5c-.045-10.941-.11-26.884-.143-35.426zm-61.666 3.19a20.54 20.54 0 0 1 0 1.755c-.025.482-.045.088-.045-.878 0-.965.02-1.36.045-.877zm-36.023.62v55.512c0 12.818-.01 16.91-.015 23.338-.24-.038-.48-.076-.72-.108v-77.244zm36.021 2.63c.028.268.028.706 0 .974-.027.268-.05.05-.05-.487 0-.536.022-.755.05-.487zm0 2.291c.025.378.026.953 0 1.287-.026.337-.049.028-.048-.687 0-.7.022-.942.048-.6zm-38.498 0v73.644a39.84 39.84 0 0 0-2.832-.132l.016-13.564.065-54.619 2.028-3.935zm102.925.578.786 2.609.076 3.798c.04 2.111.136 14.242.207 26.895.036 6.327.074 12.244.106 16.68.03 4.003.048 6.194.064 7.048h-.017l.024.76v.38c-.076-.03-.13-.05-.209-.083l-.668-.27v-.338c-.011-.536-.014-1.312-.022-2.269-.018-1.914-.04-4.554-.062-7.457-.077-9.93-.124-17.249-.274-42.405-.014-2.243-.011-3.774-.011-5.348zm-64.431 2.148c.029.16.029.386 0 .508-.033.124-.058-.01-.056-.294 0-.27.027-.341.056-.214zm-.055.848c.013-.014.03 0 .051.056.037.094.033.206-.011.25-.043.042-.074-.034-.069-.171.01-.076.014-.121.027-.135zm.055.906a2.35 2.35 0 0 1 0 .639c-.031.16-.055 0-.054-.36 0-.343.025-.445.054-.279zm0 2.327c.033.125.033.33 0 .455s-.059.023-.059-.227.026-.353.059-.228zm0 1.885a.503.503 0 0 1 0 .325c-.036.089-.066.016-.066-.163s.03-.251.066-.162zm-.055.601c.013-.014.03 0 .051.056.037.094.033.206-.011.25-.043.043-.074-.033-.069-.171.01-.076.014-.121.027-.135zm67.181.137.81 2.595.146 19.777c.081 10.939.182 21.85.225 24.281.021 1.205.036 2.297.041 3.086v.35c-.198-.044-.305-.067-.532-.12l-.297-.07-.076-8.865c-.044-5.196-.109-12.195-.144-15.556-.035-3.357-.095-11.575-.134-18.259zm-67.181 2.463c.013-.014.03 0 .051.056.037.094.033.206-.011.25-.043.042-.074-.034-.069-.171.01-.076.014-.122.027-.136zm102.9.146c.103 0 .23.16.282.357.086.32.06.358-.227.358-.274 0-.316-.053-.28-.358.022-.204.12-.357.226-.357zm11.073.065c.24 0 .246.272.246 9.87 0 6.441-.046 9.9-.13 9.952-.08.05-.13 1.171-.13 2.932 0 1.816-.048 2.852-.13 2.852-.086 0-.125-4.34-.116-12.803.014-12.471.02-12.803.26-12.803zm-158.518.015-.029 50.205-.01 11.174h-4.195v-53.092l2.773-5.432zm146.765.148c.033.125.033.33 0 .455s-.059.023-.059-.228c0-.25.026-.352.06-.227zm.011.789c.016.014.021.095.025.25.011.353-.052.45-.163.26-.03-.054-.01-.214.05-.357.044-.113.071-.166.087-.153zm-.01.835a.503.503 0 0 1 0 .326c-.037.089-.067.016-.067-.163s.03-.252.066-.163zm1.538.033c.108 0 .194.116.194.26 0 .143-.058.26-.13.26-.071 0-.13.117-.13.26 0 .145-.087.26-.194.26-.109 0-.195-.115-.195-.26 0-.143.058-.26.13-.26.071 0 .13-.117.13-.26 0-.144.087-.26.195-.26zm1.145.869h3.116c1.706 0 2.683.01 3.192.033.08 0 .065 0 .122.01.056.085.174.135.264.2a.848.848 0 0 1 .025.248c0 .341-.066.929-.22 1.698a94.84 94.84 0 0 0-.543 2.966l-.124.766-.805-.015c-.79-.015-2.149-.046-3.012-.069l-.963-.025-.127-.79a94.099 94.099 0 0 0-.609-3.261 40.632 40.632 0 0 1-.263-1.39c-.035-.21-.036-.235-.053-.372zm-1.99.301c.253 0 .26.087.26 3.185s-.01 3.184-.26 3.184c-.253 0-.26-.086-.26-3.184 0-3.098.01-3.185.26-3.185zm-102.855.048c.03.126.03.292 0 .378-.036.088-.062-.015-.06-.23 0-.198.03-.235.06-.148zm102.161.44a.503.503 0 0 1 0 .325c-.036.09-.066.016-.066-.163 0-.178.03-.251.066-.162zm-.055 1.122c.013-.014.03 0 .051.056.037.094.033.206-.01.25-.044.042-.075-.035-.07-.172.01-.076.014-.121.027-.135zm-68.924.964.902 1.833.044 1.465c.041 1.373.34 19.975.69 43.142.068 4.465.15 9.045.196 10.882l-.642-.18v-.001c-.023-1.284-.04-1.766-.067-3.972-.051-4.01-.108-9.26-.161-14.688-.106-10.854-.196-22.422-.185-26.17 0-1.86 0-3.594-.015-4.89-.01-.648-.015-1.186-.025-1.58 0-.197-.011-.358-.017-.482-.011-.125.02-.116-.04-.354-.114-.457-.366-.808-.853-.994l.168.065v-3.361zm36.553.073.704 2.262.191 18.974c.106 10.495.193 19.708.193 20.343v.51c-.276-.01-.5-.029-.701-.045l-.08-9.577c-.046-5.626-.114-12.978-.149-16.34l-.139-13.518c-.01-1.02-.013-1.726-.019-2.609zm-79.999 1.35c.02 1.662.02 4.382 0 6.044s-.037.302-.037-3.022.017-4.684.037-3.022zm-16.214 2.503V1278.08h.65v-2.991h1.43v-3.116l1.202.031 1.202.031.035-3.087.035-3.087h-2.277zm21.532.357a.503.503 0 0 1 0 .325c-.036.089-.065.016-.065-.163 0-.178.03-.251.065-.162zm19.241.337c.03.126.03.295 0 .38-.036.088-.062-.015-.06-.23 0-.2.03-.244.06-.15zm15.116.317c2.89-.034 3.206-.016 3.412.19.212.213.228.833.227 9.294 0 7.178.24 31.66.4 42.46-1.125-.315-2.257-.612-3.427-.815-1.162-.223-2.316-.35-3.47-.489v-.31c-.144-15.548-.276-33.225-.293-39.281l-.03-11.012zm74.286.028c.108 0 .195.116.195.26 0 .143-.055.26-.121.26-.067 0-.14.127-.163.283-.055.372-.367.473-.367.118 0-.149.058-.27.13-.27.073 0 .13-.147.13-.326 0-.202.074-.325.196-.325zm-108.639.306c.03.125.03.294 0 .38-.036.087-.062-.017-.06-.23 0-.201.03-.245.06-.15zm-10.911.319c.022.88.022 2.284 0 3.12-.022.836-.041.115-.041-1.6 0-1.716.018-2.4.041-1.52zm15.857.058c.022.911.022 2.403 0 3.314-.022.912-.04.166-.04-1.657s.018-2.569.04-1.657zm14.236.017c.013-.014.03 0 .05.056.037.094.033.206-.01.25-.044.043-.075-.034-.07-.172.01-.076.015-.12.028-.134zm-9.426.178c.022.876.022 2.309 0 3.185-.022.875-.041.159-.041-1.593 0-1.751.018-2.468.04-1.592zm18.706 0a.503.503 0 0 1 0 .325c-.036.09-.065.016-.065-.162 0-.179.03-.252.065-.163zm82.864.053c.493.012 1.148.03 1.878.051l1.891.056-.567 3.493-.596 3.667.192.01-1.348-.07c-.22-.011-.224-.016-.311-.026-.014-.072-.013-.064-.028-.159l-.163-.991a673.134 673.134 0 0 1-.948-6.03zm-3.53.24c.258 0 .262.066.228 3.865-.032 3.562-.053 3.869-.262 3.91-.213.04-.228-.213-.228-3.866 0-3.832 0-3.91.262-3.91zm-.748.18c.013-.015.03 0 .051.055.037.094.033.206-.01.25-.044.042-.075-.034-.07-.171.01-.076.014-.121.027-.135zm-87.809.45c.03.162.03.388 0 .509-.033.124-.058-.01-.056-.294 0-.271.026-.341.056-.214zm-4.815.507a.503.503 0 0 1 0 .325c-.036.09-.066.016-.066-.162 0-.18.03-.252.066-.163zm92.594.032c.064 0 .119 1.694.123 3.835 0 2.11-.018 3.834-.05 3.834-.03 0-.098-.19-.152-.422-.106-.463-.19-6.652-.094-7.019.032-.125.11-.228.173-.228zm-153.191.02h.01v47.652a110.697 110.697 0 0 1-3.848-5.347v-34.89l1.854-3.564c.796-1.53 1.43-2.768 1.986-3.852zm65.355.55c.013-.014.03 0 .05.056.037.094.033.206-.01.25-.044.042-.075-.034-.07-.171.01-.076.015-.121.028-.135zm-19.186.048a.503.503 0 0 1 0 .325c-.036.09-.065.016-.065-.162 0-.179.03-.252.065-.163zm77.25.149.506 1.504.098 7.554c.054 4.217.142 11.685.194 16.594l.088 8.28c-.185.026-.404.052-.632.075l-.02-4.928a727.37 727.37 0 0 0-.04-6.532c-.011-.316-.06-6.47-.113-13.44a2605.12 2605.12 0 0 0-.082-9.107zm-34.96.404.318.62.332 18.23c.184 10.122.364 20.13.401 22.237.037 2.111.1 5.122.14 6.699v.125c-.389.103-.77.232-1.15.365-.01-1.277-.017-2.59-.024-4.483-.017-4.968-.026-11.828-.024-19.38zm-42.338 1.219c.013-.014.03 0 .05.056.039.094.034.206-.01.249-.042.043-.073-.033-.068-.17.01-.077.015-.122.028-.136zm14.425.13c.013-.015.03.01.05.055.037.095.033.207-.011.25-.043.043-.074-.033-.07-.17.01-.076.016-.122.029-.136zm-19.699 1.036c.03.197.03.482 0 .639-.03.16-.055 0-.054-.36 0-.343.025-.446.054-.28zm-3.09.301h.878c.434 0 .853.01 1.169.023.01.132.016.196.023.41.028.81.048 2.244.06 4.693.029 4.9.034 13.869.034 30.16v9.425c-.088-.01-.171-.033-.26-.037h-1.907v-8.63zm5.46.131h2.036l-.032 33.913-.011 11.976c-.639-.29-1.313-.488-1.987-.688 0-3.667-.01-6.423-.01-10.518zm5.33.13h1.645v48.795c-.055.032-.112.057-.167.089-.066.039-.122.09-.188.129-.41-.423-.882-.768-1.335-1.137.017-6.259.046-8.893.046-17.71zm5.068.13h1.386v46.353c-.467.181-.924.397-1.386.6v-14.804zm5.041.111c.211.01.428.02.667.02h.358v44.767c-.375.092-.747.198-1.119.3 0-4.546-.01-8.69-.01-14.233 0-14.44 0-22.371.032-26.678.014-2.153.034-3.403.061-4.09 0-.047 0-.044.011-.086zm4.578.036c.279.011.673.03 1.046.065l.21.02V1317.508c-.42.053-.839.104-1.256.17v-14.24zm-22.385.522c.027.234.028.58 0 .773-.03.195-.053 0-.053-.425 0-.42.024-.563.053-.348zm-6.515 1.349V1313.51c-.035-2.07-.044-3.22-.081-5.224-.216-11.508-.394-23.757-.394-27.177v-5.573zm6.512.072c.031.16.031.424 0 .585-.03.16-.056.029-.056-.293 0-.321.025-.453.056-.292zm33.793.325c.033.125.033.33 0 .455s-.059.023-.059-.227.026-.353.059-.228zm90.864.21c.029-.015.06 0 .096.037.025.025.064 3.01.089 6.631.024 3.597.077 6.532.119 6.615-.157.308-.328.608-.488.914-.02-1.505-.043-2.488-.043-5.528 0-6.94.029-8.563.226-8.669zm-124.714.456c.013-.014.03 0 .05.056.038.094.033.207-.01.25-.044.043-.075-.034-.07-.171.01-.076.015-.121.028-.135zm114.056.508c.085-.029.162.03.162.201 0 .143-.073.285-.162.315-.127.042-.17 1.578-.2 6.965-.02 3.8-.012 6.91.02 6.91.03 0 .31-.145.621-.323.311-.178.67-.324.797-.325.128 0 .52-.148.873-.327.353-.179.673-.325.711-.325.187 0 .035.4-.22.578-.25.175-.256.202-.053.202.372 0 .168.31-.262.398-.215.044-.948.382-1.63.75-.683.37-1.278.672-1.323.672-.044 0-.08-3.308-.08-7.352 0-4.867.043-7.324.13-7.271.071.044.13-.04.13-.187s.054-.268.12-.268c.067 0 .14-.127.163-.282.026-.183.118-.3.203-.33zm-29.052.077.425 1.224.135 9.837c.075 5.475.137 11.258.138 12.816v2.403l-.037.018c-.08.038-.247.077-.409.127l-.015-3.943c-.01-2.675-.047-6.114-.082-7.664-.035-1.52-.09-6.499-.127-11.036zm-84.945.309c.03.197.03.518 0 .715-.03.196-.054.035-.054-.358s.024-.554.054-.357zm118.5.574h.208c-.023.154-.13.699-.2 1.08-.062-.328-.139-.71-.187-.963-.01-.045-.013-.066-.02-.107.076 0 .113-.01.198-.01zm-164.99 1.98v.524c.014 2.147.025 5.28.036 9.206.012 4.76.015 12.12.02 19.103-.28-.444-.576-.877-.85-1.325v-26.029zm73.337.632c0 .108.01.156.01.28.023.924.034 2.282.034 4.016 0 2.995.09 14.082.202 24.663.031 2.901.048 5.093.072 7.636-.066 0-.131.01-.197.01-.03-5.367-.063-9.25-.08-17.37zm26.331.194.482.872V1303.976c-.011-.204-.018-.95-.024-1.048-.023-.396-.088-3.248-.13-6.14-.042-2.899-.094-5.56-.13-6.144-.02-.342-.09-3.329-.137-6.4-.02-1.315-.043-2.43-.065-3.4zm-53.185.454a.501.501 0 0 1 0 .325c-.036.089-.066.016-.066-.162 0-.18.03-.252.066-.163zm0 1.17a.503.503 0 0 1 0 .325c-.036.089-.066.016-.066-.162 0-.18.03-.253.066-.163zm124.009.01c.029.233.029.58 0 .773-.03.195-.054 0-.053-.425 0-.42.024-.563.053-.348zm-11.59.023c.032 0 .057.059.057.13 0 .072-.062.13-.138.13-.076 0-.102-.058-.057-.13.044-.072.106-.13.137-.13zm-25.183 1.078.34.94.075 8.193c.021 2.29.05 4.474.076 6.152.028 1.677.046 2.765.075 3.142.017.223.015.302.015.408l-.34.15c-.04-.902-.05-1.454-.148-11.231-.027-2.771-.058-5.404-.084-7.416 0-.184 0-.165-.01-.338zm-87.232.656a.8.8 0 0 1 0 .38c-.036.088-.062-.015-.06-.23 0-.202.03-.25.06-.15zm33.79.183a.503.503 0 0 1 0 .325c-.035.089-.064.016-.064-.162 0-.179.03-.252.065-.163zm90.217.13c.024.519.024 1.367 0 1.885s-.044.094-.044-.942c0-1.037.02-1.461.044-.943zm-173.214.58.015 19.102c-.504-.892-.999-1.79-1.479-2.697v-13.674l1.377-2.587zm49.153.412c.013-.014.03 0 .05.056.039.094.034.206-.01.249-.043.043-.074-.033-.068-.17.01-.077.014-.122.027-.135zm0 .52c.013-.014.03 0 .05.056.039.094.034.206-.01.249-.043.043-.074-.033-.068-.17.01-.077.014-.122.027-.136zm136.32.28c.148.093.165.45.02.45-.055 0-.11-.118-.122-.263-.01-.144.035-.227.102-.186zm-79.829.047c.15.244.313.525.426.703l.444.697v28.832l-.12.06c-.01-.207-.013-.432-.028-.584 0 .016-.012-.208-.021-.493-.011-.286-.02-.673-.032-1.131-.023-.916-.05-2.12-.073-3.387-.047-2.54-.105-4.97-.14-5.554-.025-.42-.087-2.841-.128-5.232-.04-2.399-.097-4.753-.131-5.36-.026-.464-.089-2.966-.132-5.43-.02-1.142-.043-2.217-.067-3.12zm79.377.22c.097-.024.152 0 .196.072.194.305.116.446-.097.175-.2-.256-.203-.255-.117.033.052.175.032.293-.052.293-.076 0-.139-.06-.139-.13a.128.128 0 0 0-.125-.13c-.07 0-.092.088-.051.196.04.108 0 .283-.086.39-.228.274-.092.24.261-.067.363-.315.595-.331.703-.05.057.149.024.187-.115.134-.107-.04-.18-.024-.163.038.017.062-.012.104-.065.093-.052-.01-.189.114-.304.278-.143.204-.287.273-.457.22-.196-.063-.23-.032-.16.146.066.174.035.207-.132.143-.133-.051-.217-.02-.217.083 0 .09-.272.357-.604.59-.478.338-.629.39-.727.253-.093-.13-.105-.117-.052.05.04.123.016.258-.053.3-.069.043-.128.001-.133-.092 0-.094-.065-.026-.136.151-.105.263-.15.287-.25.13-.103-.163-.121-.159-.123.027 0 .306-.702.779-.988.669-.168-.065-.21-.037-.155.105.053.14-.816.812-3.096 2.395l-2.432 1.689c.643-1.124 1.3-2.238 1.894-3.392 1.668-1.298 3.195-2.492 3.133-2.502-.135-.02-.36-.21-.502-.422-.142-.211-.374-.388-.517-.394l-.26-.01.26-.111.26-.112-.26-.011c-.174-.01-.208-.045-.103-.112.128-.082.084-.369-.014-.531.046-.102.098-.201.144-.304.09.238.194.488.263.515.09.034.13.114.09.178-.039.064-.01.117.065.117.076 0 .124.044.107.098-.076.24.339.942.558.942.17 0 .248.116.277.413.023.23.127.435.236.464.158.042.16.03.02-.07-.231-.162.01-.314.326-.21.182.059.197.047.06-.051-.14-.1.024-.266.713-.728.492-.33.914-.54.938-.469.024.072.104.13.177.13s.103-.078.066-.175c-.07-.182.328-.604.568-.604.075 0 .101-.06.056-.13-.044-.072.012-.13.125-.13s.446-.152.74-.338c.213-.135.353-.21.45-.235zm-4.33.223c.127-.033.302-.031.39.01.088.036-.016.063-.23.06-.214 0-.284-.032-.16-.065zm4.905.09a.13.13 0 1 1 0 .26.13.13 0 0 1 0-.26zm-5.696.21c.06.038.077.122.036.189-.104.17-.146.15-.146-.068 0-.104.05-.158.11-.121zm4.16.18c-.187 0-.2.215-.02.326.073.045.094.145.047.223-.054.086-.026.103.069.044.11-.068.116-.145.02-.26-.073-.09-.096-.201-.05-.248.048-.047.018-.086-.064-.086zm-3.817.04c.094-.037.206-.033.249.01.043.043-.034.074-.171.07-.15-.01-.18-.038-.078-.08zm-7.06.116c.092.092.094 2.712 0 2.805-.039.039-.072-.592-.072-1.402 0-.81.032-1.442.07-1.403zm6.816.103c.076 0 .138.059.138.13 0 .072-.025.13-.057.13s-.093-.058-.138-.13c-.044-.072-.018-.13.057-.13zm3.617 0c-.075 0-.064.082.03.195.09.107.182.195.207.195.024 0 .012-.088-.03-.195-.041-.107-.134-.194-.207-.195zm-159.234.11c.03.162.03.387 0 .509-.033.124-.058-.01-.056-.295 0-.27.027-.34.056-.213zm159.304.412a.291.291 0 0 0-.228.117c-.098.16.054.531.218.531.073 0 .056-.09-.038-.204-.14-.17-.138-.225.017-.323.117-.074.129-.12.032-.12zm-1.076.129c-.07 0-.092.087-.05.194.04.108.096.195.125.195.028 0 .051-.088.051-.195 0-.107-.056-.193-.125-.194zm-3.797.04c.094-.037.206-.034.249.01.043.043-.034.074-.17.069-.152-.01-.183-.037-.079-.078zm4.397.123c-.018-.01-.063.025-.146.093-.225.187-.248.262-.083.262.063 0 .153-.096.198-.213.034-.09.047-.135.03-.142zm-4.787.137h.001c.094-.037.205-.033.248.01.043.043-.034.074-.17.069a.224.224 0 0 1-.116-.023c.01-.013.012-.025.018-.038.01-.01 0-.012.02-.02zm.616.089c.032 0 .057.059.057.13 0 .072-.062.13-.137.13-.076 0-.102-.06-.057-.13.044-.072.106-.13.138-.13zm-154.662.098a.503.503 0 0 1 0 .325c-.036.089-.065.016-.065-.163s.03-.252.065-.162zm157.587.033a.134.134 0 0 0-.138.13c0 .072.025.13.057.13s.093-.059.137-.13c.044-.072.018-.13-.057-.13zm.772 0c-.01-.01-.059.033-.162.113-.217.17-.286.277-.179.277.026 0 .13-.103.228-.228.08-.103.12-.156.113-.163zm-1.126.19c-.034-.02-.067 0-.104.062-.059.096-.035.209.056.265.116.072.076.18-.146.392-.293.282-.294.287-.02.146.157-.08.318-.2.358-.264.04-.064.023-.25-.036-.411-.04-.107-.073-.169-.107-.19zm-43.025.011c.036.077.115.278.143.332-.05-.096.058.222.099 1.171.04.95.07 2.544.108 5.207l.082 5.831-.23.103c0-.08-.01-.13-.01-.215a113.44 113.44 0 0 0-.05-2.13c-.016-.381-.069-3.81-.11-7.455zm43.501.123c-.072.044-.128.18-.127.3 0 .19.02.193.127.024.07-.107.127-.241.128-.3 0-.057-.056-.068-.128-.024zm-13.794.138c.188.05 1.072.129 1.966.172 2.315.113 1.981.34-.455.308-1.49-.019-2.026.02-2.275.161l-.324.187.455.02c.25.012 1.298.059 2.329.103 1.264.055 1.89.13 1.925.234.038.116-.658.149-2.816.13-2.1-.016-2.866-.064-2.867-.177 0-.44 1.527-1.284 2.062-1.138zm9.6.417c.23.01.802.022.815.023.036 0-.344.271-.845.595-.17.11-.253.202-.418.323.156-.31.295-.63.447-.941zm3 .352c-.04-.04-.113.032-.162.16-.07.185-.056.2.073.073.09-.088.129-.193.09-.233zm-7.699.49c.038.038.065.326.07.628l-.126.236c0-.091-.02-.071-.02-.182 0-.417.034-.724.076-.682zm-64.458.418.292.39.99 1.32v11.34c0 3.186-.01 6.082-.014 8.18 0 1.05-.011 1.9-.015 2.485 0 .186 0 .295-.011.425-.168.074-.36.159-.576.258v-.581c0-.477-.011-.947-.02-1.324-.01-.376-.01-.594-.035-.806.01.069-.011-.135-.017-.358-.011-.223-.02-.529-.031-.892a368.07 368.07 0 0 1-.071-2.706c-.045-2.04-.11-4.493-.144-5.469a815.43 815.43 0 0 1-.261-9.349c-.026-1.173-.059-2.042-.09-2.913zm57.603.127c.186-.019.503-.012 1.028.013l2.925.138c1.495.07 1.877.16 1.545.365-.06.038-.135.05-.163.026-.046-.04-4.131-.205-5.152-.208-.282 0-.422-.064-.422-.191 0-.079.054-.123.24-.142zm-169.74.493h.01c.013.728.03 1.004.037 2.338v3.995c-.549-1.141-1.059-2.304-1.569-3.466l.083-.156 1.444-2.711zm27.727.408c.013-.014.03 0 .05.057.037.094.033.206-.01.25-.044.043-.075-.034-.07-.172.01-.076.015-.12.028-.134zm76.52.506.073 3.516c.212 10.246.42 19.694.463 21.067l.027.847h-.423c-.028 0-.055.01-.083.01-.011-.856-.023-1.697-.03-3.073-.022-3.726-.032-9.372-.032-17.04zm-17.897.404c.013-.014.03 0 .05.056.037.094.033.206-.01.25-.044.043-.075-.033-.069-.171.01-.076.015-.121.028-.135zm57.718.68.202.421.062 3.388c.036 1.96.043 2.912-.011 3.199-.026.143 0 .054.01.048l-.183.102v-1.216c0-1.286-.035-3.906-.076-5.841zm18.04.311c.071 0 .093.059.05.13-.045.072-.14.13-.211.13-.072 0-.094-.058-.05-.13.044-.072.139-.13.21-.13zm-134.326.033c.033.125.033.33 0 .455s-.059.023-.059-.228c0-.25.026-.352.06-.227zm87.533 1.063c.119.136.185.218.302.352.53.603.682.777.781 1.158.1.381.127 1.114.142 2.598.01 1.122.074 4.245.14 6.966.067 2.715.12 5.626.124 6.427v1.024l-.696.317-.313.142c-.011-.488-.021-1.017-.05-1.303 0 .016-.01-.207-.02-.49a444.17 444.17 0 0 1-.103-4.457c-.044-2.505-.105-5.015-.139-5.678-.03-.56-.09-2.897-.133-5.11zm59.12.101c-.054.088-.105.178-.158.265-.267.15-.487.264-.487.18 0-.026.234-.202.52-.392.068-.044.064-.018.124-.052zm3.381 1.11.011 9.65-2.637 2.184c.01-3.218.012-6.134 0-7.717a90.437 90.437 0 0 0 2.626-4.117zm-150.089.082c.013-.014.03 0 .05.057.037.094.033.206-.01.249-.044.043-.075-.034-.07-.171.01-.076.015-.121.028-.135zm129.146.119c.011.01-.049.054-.167.15-.207.165-.63.31-.452.155.03-.026.2-.118.379-.203.153-.073.23-.109.24-.102zm15 .616c.22-.01.074.224-.228.362-.178.082-.324.112-.324.068 0-.1.418-.424.552-.43zm-144.146.175c.013-.014.03 0 .05.056.037.094.033.206-.01.249-.044.043-.075-.033-.07-.17.01-.077.015-.122.028-.135zm118.37.365c0 .01.017.032.02.038.063.196.066.345.066.846v.682l-.069.058c-.01-.47-.017-.943-.017-1.547zm-27.479 1.05.647.614.07 3.59c.04 2.147.108 5.253.15 6.908.031 1.221.041 1.974.027 2.391 0 .081-.01.082-.01.138-.225.1-.45.2-.823.371l-.035-7.264-.026-5.947zm50.975.2c.078-.025.065.016-.09.144-.18.146-.384.266-.456.267-.072 0-.042-.06.065-.132.225-.152.4-.25.481-.278zm-21.687.761c.042.067.106.14.12.184-.047.024-.077.05-.16.079-.07-.025-.139-.048-.21-.091v-.028a.688.688 0 0 0 .25-.144zm20.24.343c.029 0 .026.026-.01.077-.05.078-.209.207-.356.286-.193.103-.244.103-.18 0 .048-.078.208-.207.355-.286a.552.552 0 0 1 .186-.077zm-140.419.4c.013-.014.03 0 .05.056.037.094.033.205-.01.249-.044.043-.075-.033-.07-.171.01-.076.015-.121.028-.135zm139.447.284c.206-.109-.47.506-.99.9a8.179 8.179 0 0 0-.55.456 4.669 4.669 0 0 1-.495.39c-.16.107-.779.57-1.376 1.027l-1.086.831.638-.662c.35-.365.682-.651.735-.637.054.014.264-.108.467-.27.203-.163.75-.584 1.214-.935.465-.351.938-.72 1.052-.821.114-.1.29-.226.39-.279zm-20.478.396c.115-.044.168-.023.122.051-.076.124-.324.183-.324.077 0-.028.091-.086.202-.129zm-.656.314c.072 0 .042.057-.065.126-.108.069-.254.125-.325.125-.072 0-.042-.056.065-.125.107-.07.253-.126.325-.126zm23.701.024c-.096.032-.195.162-.22.29-.03.148.018.21.13.173.096-.032.195-.162.22-.29.029-.148-.018-.21-.13-.173zm-47.95.102c.01 0 .077.068.076.067-.011-.011.01.01.022.353.017.403.04.856.06 1.075-.01-.062.012.155.012.402 0 .247.01.586.014.991.01.81.019 1.884.025 3.025l.02 3.697-.229.115v-5.048zm52.564.174c.01 1.762.01 4.332 0 7.12l-6.66 5.515c-.044.066-.086.132-.128.198l-.28.231c0-.668-.013-1.048-.013-1.87v-2.278a90.967 90.967 0 0 0 7.08-8.916zm-29.876.147h.001c-.143.12-.247.269-.23.333.017.064-.059.082-.167.04-.11-.042-.182-.017-.161.057.02.073.01.124-.033.113-.04-.011-.22.078-.402.198-.36.236-1.282.643-1.282.567 0-.026.366-.255.813-.51a69.02 69.02 0 0 0 1.267-.738c.25-.152.337-.179.194-.06zm24.774.279c-.067-.055-.148-.046-.21.053-.109.177.018.516.194.516.074 0 .134-.113.134-.252 0-.148-.051-.264-.118-.318zm-.8.31c-.141 0-.166.433-.032.566.122.122.335-.275.234-.437-.043-.071-.134-.13-.202-.13zm-140.726.178c.013-.014.03 0 .05.056.037.094.033.206-.01.25-.044.042-.075-.034-.07-.171.01-.076.015-.121.028-.135zm140.22.615c-.07-.04-.155.015-.22.183-.063.168.146.583.295.583.026 0 .05-.175.05-.39 0-.204-.054-.337-.124-.376zm.42.036c-.014.014-.023.059-.026.135-.01.137.025.213.068.17.043-.043.048-.155.011-.249-.02-.052-.039-.07-.052-.056zm-1.362.34c-.057 0-.103.147-.103.325 0 .348.312.454.43.146.07-.18-.132-.47-.326-.47zm-26.82.445c-.085.075-.41.25-.912.468-.692.302-1.229.442-1.79.468l-.802.037 1.235-.318c.68-.176 1.46-.41 1.738-.52.462-.184.617-.21.532-.135zm26.326.465c-.144 0-.18.557-.043.693.147.147.173.101.173-.303 0-.214-.058-.39-.13-.39zm.52 0c-.072 0-.129.132-.128.293 0 .236.026.255.128.097.069-.107.127-.239.128-.293 0-.054-.056-.097-.128-.097zm-29.177.546c.04.04-.032.113-.16.162-.185.07-.2.055-.073-.073.088-.09.193-.13.233-.09zm-.524.24c.071 0 .042.056-.064.125-.107.069-.253.126-.324.126-.072 0-.043-.057.064-.126a.785.785 0 0 1 .324-.126zm-8.78.015.086.031v2.741l-.082.04v-1.389zm-100.823.29c.013-.015.03 0 .05.056.037.094.033.206-.01.25-.044.042-.075-.035-.07-.172.01-.076.015-.121.028-.135zm108.307.235c.04.04-.032.113-.16.162-.185.07-.2.056-.073-.072.088-.09.193-.129.233-.09zm-5.275.06c.174.03.34.064.488.086l-.141-.02v.951l-.332.167c0-.175-.015-.283-.015-.506zm-99.522.094c.013-.014.03 0 .05.056.037.094.033.206-.011.25-.043.042-.074-.034-.07-.171.01-.076.016-.121.029-.135zm103.632.322c.184-.058.3-.059.245.031-.04.065-.157.118-.26.118-.103 0-.188.048-.188.108s-.073.111-.162.115c-.09 0-.28.049-.423.1-.143.053-.085-.018.13-.156.22-.141.473-.258.658-.316zm28.913.15c-.072 0-.13.146-.13.325 0 .178.058.325.13.325.072 0 .13-.147.13-.325 0-.179-.058-.325-.13-.325zm-132.49.307c.03.125.03.292 0 .377-.036.088-.062-.015-.06-.23 0-.197.03-.234.06-.147zm102.143.237c.04.04-.032.113-.16.162-.186.07-.2.055-.074-.073.088-.09.193-.129.233-.088zm-.588.244c.107 0-.097.138-.455.313-.358.176-.738.317-.845.313-.107 0 .097-.144.455-.313.357-.168.737-.309.845-.313zm29.757.251c-.076 0-.101.06-.057.13.044.073.106.13.137.13.032 0 .057-.058.057-.13a.134.134 0 0 0-.137-.13zm1.178 0c-.072 0-.13.16-.129.357 0 .279.03.315.129.163a.824.824 0 0 0 .128-.357c0-.09-.056-.163-.128-.163zm-.622.031c-.209-.07-.33.477-.153.69.248.3.357.222.322-.228-.018-.229-.094-.437-.169-.462zm-131.868.016c.03.126.03.292 0 .377-.036.088-.062-.015-.06-.23 0-.197.03-.234.06-.147zm130.333.082c-.096 0-2.134 1.703-3.41 2.85-.523.47-1.079.886-1.235.924a.675.675 0 0 0-.4.325c-.18.388-2.14 2.01-2.429 2.01-.149 0-.303.13-.372.312-.178.468-2.244 2.158-2.638 2.158-.387 0-.674.282-.482.473.084.085-.148.353-.686.79-.76.616-1.514 1.356-1.191 1.169.078-.046.664-.524 1.3-1.062.636-.539 1.227-.953 1.313-.921.086.032.192-.058.237-.2.106-.331 2.528-2.405 2.751-2.355.093.02.17-.045.17-.146 0-.2 2.23-2.167 2.454-2.167.075 0 .192-.103.259-.228.068-.126.54-.58 1.052-1.008a45.986 45.986 0 0 0 1.453-1.266c.843-.787 1.621-1.398 1.782-1.398.083 0 .15-.058.15-.13 0-.071-.036-.13-.078-.13zm-26.992.518a29.97 29.97 0 0 1 0 2.055c-.024.551-.044.065-.043-1.078 0-1.117.02-1.508.043-.977zm27.15.095c-.044.045-.081.189-.081.32 0 .168.096.238.325.238.198 0 .325-.074.325-.19 0-.212-.44-.496-.568-.368zm-31.34.048c.071 0-.017.084-.196.186s-.384.185-.455.185c-.072 0 .016-.083.195-.185.178-.103.384-.186.455-.186zm31.462.03c.028-.01.077.025.157.09.108.09.196.185.196.211 0 .027-.088.05-.196.05-.107 0-.195-.096-.195-.211 0-.086.011-.132.037-.14zm-130.613.138c.03.125.03.292 0 .377-.036.088-.062-.016-.06-.23 0-.197.03-.234.06-.147zm98.24.216c.072 0 .042.057-.065.126-.107.07-.254.126-.326.126-.072 0-.042-.057.065-.126.108-.069.254-.126.325-.126zm31.203.516c-.032 0-.093.058-.138.13-.044.072-.018.13.057.13a.134.134 0 0 0 .138-.13c0-.072-.025-.13-.057-.13zm1.953 0c-.223 0-.35.103-.442.357-.071.197-.174.475-.227.618-.065.173.083.087.442-.254.296-.282.539-.56.539-.617 0-.057-.14-.104-.312-.104zm-.795 0c-.138 0-.191.14-.188.486v.487l.185-.325c.103-.178.188-.398.191-.487 0-.088-.083-.16-.188-.16zm-.681.03c-.223-.074-.352.583-.16.814.27.326.408.217.36-.285-.026-.263-.116-.5-.2-.529zm-.09.277c.014-.014.03 0 .05.056.038.094.034.206-.01.25-.042.042-.073-.034-.068-.171.01-.076.015-.121.028-.135zm36.12.137 11.757 2.529-11.113 51.36 8.168 1.766-2.356 10.893-8.167-1.77-3.777 17.45-13.364-2.892 3.776-17.448-33.72-7.297-4.067-10.855 9.78-8.063 23.358-19.249h-.111zm-37.447.464c-.18 0-.243.408-.088.563.112.112.495.112.607 0 .116-.116-.296-.563-.519-.563zm0 .21c.036-.037.15-.014.253.05.102.064.158.145.122.181-.036.036-.15.013-.252-.051-.104-.064-.159-.145-.123-.18zm-27.632.415c.022.88.022 2.283 0 3.12-.022.835-.04.115-.04-1.6 0-1.716.018-2.4.04-1.52zm-100.926.074c.013-.014.03 0 .05.056.037.094.033.205-.011.249-.043.043-.074-.033-.07-.17.01-.077.016-.122.029-.136zm127.833.242c-.317.106-.418.701-.181 1.063.12.184.247.335.281.335.034 0 .062-.327.062-.726 0-.522-.046-.71-.162-.672zm.815.098c-.216 0-.263.085-.263.477 0 .537.013.534.312-.054.208-.407.206-.422-.049-.422zm-1.327.031c-.194.065-.301.36-.13.36.07 0 .162-.092.205-.206.05-.126.018-.185-.076-.154zm.547.156c.02.027.026.123.03.302 0 .21-.02.33-.055.38h-.025c-.035.011-.076-.01-.127-.141-.039-.103-.01-.293.065-.423.057-.099.091-.14.112-.115zm-24.483.042a.501.501 0 0 1 0 .325c-.036.089-.066.016-.066-.163 0-.178.03-.251.066-.162zm31.75.218v1.334c0 1.667.038 1.51.052 2.55l-2.653 2.186c.03-1.195.068-1.975.08-3.473a91.255 91.255 0 0 0 2.521-2.597zm-8.53.252c-.053.053-.011.15.094.217.316.2.457.14.222-.095-.12-.12-.263-.176-.316-.123zm-.42.342c-.077 0-.14.114-.14.251 0 .227.082.273.683.382.054.01.097-.068.097-.173 0-.189-.377-.46-.641-.46zm.148.13c.068 0 .159.06.203.13.044.073-.01.13-.122.13s-.203-.057-.203-.13c0-.07.055-.13.122-.13zm-.91.836c-.033-.02-.07-.013-.109.023-.053.05-.112.15-.175.304-.158.38-.142.502.117.917.067.107.153.297.191.422.15.483.222.189.175-.707-.03-.572-.099-.895-.199-.959zm.883.074c-.22 0-.26.085-.255.553l.01.552.25-.455c.136-.25.251-.499.254-.552 0-.054-.112-.098-.255-.098zm.976 0c-.468 0-.602.174-.912 1.181l-.096.314.361-.325c.2-.179.529-.494.732-.702.203-.207.37-.397.37-.422 0-.025-.205-.046-.454-.046zm-.129.161s0 .01.01.01c-.089.087-.222.213-.33.317.022-.048 0-.042.035-.105a.458.458 0 0 1 .285-.22zm-2.41.035c-.073.045-.098.136-.057.203.112.18.19.147.19-.082 0-.111-.06-.166-.132-.12zm.657.104c.02.018.025.1.026.253 0 .374-.056.446-.19.228-.044-.07-.02-.232.054-.357.057-.098.09-.143.11-.124zm-29.814.318a.503.503 0 0 1 0 .325c-.036.089-.065.016-.065-.163s.03-.252.065-.162zm28.57.168c-.106-.012-.19.024-.19.117 0 .162.418.395.556.31.059-.036.038-.149-.046-.25a.517.517 0 0 0-.32-.177zm-37.686.059.031 3.206.02 2.026c-.035-.016-.075-.022-.11-.038l.022-1.963zm11.857.098c.022 1.125.022 2.968 0 4.094-.022 1.126-.039.204-.039-2.048 0-2.251.018-3.172.039-2.046zm-2.755.161.03 3.41.017 1.703c-.035.016-.067.04-.103.056l.02-1.756zm28.07.14c-.074 0-.125.035-.193.117-.086.103-.118.248-.072.323.1.16.804.184.9.03.035-.058-.101-.204-.304-.323-.16-.094-.256-.143-.33-.147zm0 .192c.094 0 .234.041.362.124.159.103.142.128-.09.128-.156 0-.32-.057-.365-.128-.05-.083 0-.124.093-.124zm8.165.361c.01 1.218.01 2.368-.01 3.071 0 .08 0 .107-.01.18l-9.64 7.942a15.163 15.163 0 0 0-1.36-2.1c3.9-2.755 7.602-5.773 11.016-9.093zm-39.095.348.03 2.808.03 2.808.195.016c-.627.454-1.245.926-1.801 1.477a15.223 15.223 0 0 0-2.163-1.8c.58.043.792.067 2.304.166l1.33.086.037-2.781zm30.074.076c-.089-.1-.214.043-.362.45-.143.397-.137.508.045.787.12.183.178.434.132.578-.056.178-.02.254.123.254.168 0 .204-.183.204-1.04 0-.579-.052-.927-.142-1.03zm.89.013zm0 0c-.262.037-.295.122-.321.82l-.03.78.317-.65c.174-.357.318-.726.321-.82 0-.104-.11-.155-.287-.13zm1.09.106c-.489 0-.508.018-.78.727-.152.4-.277.76-.277.802 0 .075.32-.19 1.135-.944.232-.215.422-.434.423-.488 0-.054-.224-.097-.5-.097zm-41.674.064.03 2.29.01.389c-.026 0-.054-.01-.08-.011l.01-.352zm40.523.067c.01 0 .011.015.012.016-.04.063-.086.125-.114.196.018-.103.047-.209.102-.21zm-1.589.13c-.076 0-.137.058-.137.129 0 .072.025.13.057.13s.093-.058.137-.13c.044-.071.017-.13-.057-.13zm.732.174c0 .01.011.016.011.023.011.082.016.086.018.192 0 .125-.011.131-.011.206-.016 0-.022.012-.05.011l-.145-.027c-.034-.105-.078-.2-.014-.37.064-.01.128-.034.189-.034zm-1.188.475c-.106-.06-.233-.053-.32.053-.124.148-.107.214.08.322.319.186.428.177.428-.035a.388.388 0 0 0-.188-.34zm-.815.556c-.139.01-.24.094-.271.258-.036.187.054.225.518.221h.562l-.313-.26c-.182-.151-.358-.222-.496-.214zm.187.178c.105.017.203.063.203.125 0 .028-.12.05-.268.05-.147 0-.233-.055-.19-.124.034-.056.149-.069.255-.052zm-41.358.11.015.704h-.037zm40.241.637c-.08-.107-.207.065-.392.5-.215.505-.218.58-.034.863.111.17.19.477.174.682-.02.259.032.373.169.373.162 0 .197-.218.197-1.235 0-.686-.034-1.075-.114-1.183zm.634.078.01.878c.011.78.025.834.147.487a2.27 2.27 0 0 1 .335-.617c.108-.126.157-.228.108-.228-.05 0-.028-.117.05-.26.125-.233.098-.26-.255-.26zm1.613.061h-.597l-.313.77c-.172.423-.313.829-.313.9 0 .148.452-.233 1.267-1.066.304-.31.553-.576.553-.588 0-.013-.269-.021-.597-.02zm-1.343.129c.045.012.085.027.13.04-.05.102-.143.197-.185.305l-.035.09c0-.05-.014-.048-.014-.105 0-.178.043-.274.104-.33zm-1.112.496h.01c.119-.027.16.01.216.032v.03c0 .076-.01.068-.01.13a.698.698 0 0 1-.345-.034c0-.03.028-.072.037-.105.03-.018.055-.044.095-.053zm-3.33.262c-.017-.028-.076.01-.182.092-.216.179-.259.39-.08.39.064 0 .152-.093.196-.206.06-.159.084-.249.067-.277zm2.036.175c-.062 0-.12.043-.203.124-.174.17-.174.206 0 .315.258.164.485.16.59-.01.047-.077-.022-.22-.155-.317-.102-.076-.17-.114-.232-.112zm-.053.177c.072 0 .166.059.21.13.044.072.022.13-.05.13-.072 0-.166-.059-.21-.13-.044-.072-.022-.13.05-.13zm-.714.477c-.08-.01-.141.02-.197.075-.25.25-.172.34.338.393.268.028.502.061.52.073.018.012.033-.035.033-.105 0-.07-.167-.213-.37-.318a.927.927 0 0 0-.323-.117zm1.328.042c-.072 0-.094.06-.05.13.044.073.14.13.21.13.072 0 .094-.058.05-.13-.044-.071-.138-.13-.21-.13zm44.297 5.243-36.708 30.143 28.836 6.24zm-111.7 7.393c1.367 0 2.673.073 3.918.17 1.245.11 2.43.274 3.553.496 2.295.392 4.42.931 6.373 1.615v6.96a29.267 29.267 0 0 0-3.04-1.027 31.76 31.76 0 0 0-3.258-.732c-2.198-.437-4.517-.66-6.96-.66-5.86 0-10.012 1.558-12.456 4.682-2.394 3.124-3.596 7.643-3.596 13.551 0 5.519 1.313 9.718 3.949 12.601 2.635 2.834 6.714 4.256 12.232 4.256 2.247 0 4.492-.17 6.739-.511 2.295-.393 4.446-.974 6.448-1.755v7.034c-1.954.636-4.078 1.12-6.374 1.46-2.247.34-4.739.511-7.474.511-7.765 0-13.647-2.132-17.65-6.381-3.954-4.252-5.926-9.99-5.926-17.218 0-5.176.836-9.62 2.498-13.33 1.711-3.76 4.301-6.64 7.77-8.642 3.468-2.049 7.889-3.07 13.26-3.07l-.01-.01zm-61.475.686c.903 0 1.767.074 2.59.133 2.473.252 4.589.901 6.346 1.928 2.344 1.368 4.077 3.25 5.199 5.643 1.122 2.344 1.68 5.03 1.68 8.058 0 4.69-1.469 8.449-4.4 11.28-2.883 2.83-6.79 4.242-11.724 4.242h-12.745v15.896h-7.986l.016-47.177zm22.2 0h7.983v47.177h-7.984zm60.945.074h7.985v25.637l16.786-21.264v.074l3.468-4.396h7.392l-10.86 13.74-4.547 5.751 17.789 27.689h-8.498l-13.84-21.933-7.69 9.73v12.19h-7.984zm-96.185 6.164v18.752h11.282c3.174 0 5.567-.828 7.18-2.487 1.612-1.66 2.42-3.904 2.42-6.737 0-3.028-.78-5.372-2.34-7.033-1.514-1.66-3.808-2.495-6.885-2.495zm.319 58.6c1.237 0 2.364.099 3.381.298 1.04.177 2 .42 2.885.73v3.15a14.212 14.212 0 0 0-2.852-.797 16.03 16.03 0 0 0-3.15-.298c-2.652 0-4.531.707-5.636 2.122-1.083 1.415-1.624 3.46-1.624 6.134 0 2.498.596 4.399 1.79 5.703 1.193 1.282 3.04 1.923 5.537 1.923 1.017 0 2.033-.077 3.05-.232a14.879 14.879 0 0 0 2.918-.796v3.183c-.884.288-1.846.509-2.885.663a22.58 22.58 0 0 1-3.381.232c-3.515 0-6.179-.961-7.991-2.884-1.79-1.923-2.686-4.52-2.686-7.792 0-2.343.376-4.354 1.127-6.034.774-1.702 1.945-3.006 3.515-3.913 1.57-.928 3.57-1.392 6.002-1.392zm104.442 0c3.404 0 5.934.873 7.592 2.62 1.68 1.745 2.52 4.564 2.52 8.454 0 3.735-.84 6.498-2.52 8.289-1.658 1.768-4.188 2.652-7.592 2.652-3.382 0-5.913-.884-7.593-2.652-1.68-1.79-2.52-4.554-2.52-8.29 0-3.89.84-6.708 2.52-8.454 1.68-1.746 4.21-2.62 7.593-2.62zm-84.284.33h4.045l8.09 21.354h-3.713l-2.122-5.504h-8.588l-2.122 5.504h-3.746zm19.828 0h3.614v18.569h10.941v2.785h-14.555zm21.551 0H7613v21.354h-3.615zm11.937 0h14.522v2.82h-10.909v6.465h9.683v2.785h-9.683v9.284h-3.613zm48.74 0h9.814c2.387 0 4.122.62 5.205 1.858 1.105 1.216 1.658 2.874 1.658 4.973 0 1.503-.376 2.785-1.127 3.846-.752 1.061-1.835 1.802-3.25 2.222.398.287.707.597.928.928.221.332.442.774.663 1.326l2.687 6.2h-3.714l-2.62-5.967c-.243-.575-.541-.984-.895-1.227-.331-.243-.906-.365-1.724-.365h-4.012v7.56h-3.614zm24.369 0h3.183l11.14 15.717v-15.716h3.582v21.353h-3.184l-11.107-15.683v15.683h-3.614zm26.26 0h3.614v21.354h-3.614zm19.463 0h4.044l8.09 21.354h-3.713l-2.122-5.504h-8.587l-2.122 5.504h-3.747zm-87.864 2.753c-2.21 0-3.846.597-4.907 1.79-1.04 1.172-1.559 3.239-1.559 6.2 0 2.808.52 4.83 1.559 6.068 1.06 1.216 2.696 1.824 4.907 1.824 2.232 0 3.868-.608 4.907-1.824 1.061-1.238 1.591-3.26 1.591-6.067 0-2.962-.53-5.029-1.591-6.2-1.039-1.194-2.675-1.79-4.907-1.79zm21.385.066v8.057h5.239c1.304 0 2.332-.32 3.083-.961.752-.641 1.128-1.669 1.128-3.084 0-2.674-1.293-4.012-3.88-4.012zm-103.68.464-3.713 9.781h7.427zm172.148 0-3.713 9.781h7.427z" style="-inkscape-font-specification:Kanit;fill:url(#b);fill-opacity:1;stroke-width:1.01528;stroke-linecap:round;stroke-linejoin:round;paint-order:stroke fill markers" transform="translate(-7524.096 -1135.21)"/></svg>