<svg xmlns="http://www.w3.org/2000/svg" xmlns:xlink="http://www.w3.org/1999/xlink" xml:space="preserve" width="1095.9" height="1159" viewBox="0 0 290 306.6"><defs><linearGradient id="a"><stop offset="0" style="stop-color:#191924;stop-opacity:1"/><stop offset="1" style="stop-color:#31c3fa;stop-opacity:1"/></linearGradient><linearGradient xlink:href="#a" id="b" x1="16531.5" x2="16747.4" y1="-3596" y2="-3867.9" gradientTransform="translate(22.6 18.7)" gradientUnits="userSpaceOnUse"/></defs><path d="M16681.5-3879.5c-69.2 0-125 55.8-125 125v19.3c0 9.6 1.1 19 3.2 28l.3 1.1h1.5l.2.1h-1.7l1.3 5.3.2.4.2.8.3 1.1h6.1c.1.1.2.1.2 0h1.5-1.5c0 .1-.1.1-.2 0h-6v.4l.6 1.5h.5-.6l.7 2.1a15.2 15.2 0 0 0-6.8 12.7v47.2c0 2.1.5 4.2 1.5 6.2l-.9.3a13 13 0 0 0-4.1-1.4h-3.6a13 13 0 0 0-12.5 15.8l5 21.4c.4 2 1.4 3.8 2.8 5.3l.2.3.6.7 8.6 8.5c0 .1 0 .2.2.2l.6.7v-.1c2.3 2.1 5.3 3.4 8.6 3.4l243.8.4a35.2 35.2 0 0 0 10.3-1.6 13 13 0 0 0 8.9-12.2v-3.2c0-2.5-.9-5-2.3-7a13 13 0 0 0 2.3-6.8v-3.1a13 13 0 0 0-8.7-12.2l-1.2-.4c-1-4-4-7.2-7.9-8.7-1.6-.6-3.2-1-4.8-1.2l-2-.3 1.3-6.1c1.2-5.6-.8-11.4-5.3-15l8.3-38.1c1-5.2-.6-10.3-4-13.8l.9-3.6.3-1.2c2-9 3.1-18.3 3.1-28v-19.2c0-69.2-55.8-125-125-125zm0 7.2a117.8 117.8 0 0 1 110.3 159.4c-2.1-2.3-5-4-8-4.7l-10.2-2.2a98.5 98.5 0 0 0-90.5-133.1c-.3-.4-.7-.4-1-.4-.3 0-.7 0-1 .4a98.5 98.5 0 0 0-89 139.8v1l-.1 2.6-.1 2 1 .4-.4.2v.1a34.7 34.7 0 0 1-4.5 0l-.5-.1-1.2-.4a41.8 41.8 0 0 0-5.4 0c-.3 0-.4 0-.7.2l-.2.3a36.4 36.4 0 0 1-5-.2l-.9-.2h-.5a117.8 117.8 0 0 1 108-165zm.6 20.1.2.3.2.9a8 8 0 0 1 .4 2.9c0 1.2-.1 1.8-.2 2-.2.5-.2 1.2-.2 2.3v1.8l.8 1c.3.4.9 1.1 1.1 1.6a3 3 0 0 0 1.6 1.5c1 .4 1.5.7 1.7 1.1l.3.9c-.3-.3-.7-.6-1.2-.8-1-.5-3.3-1-4.5-1-.8 0-.8 0-.8-.4v-.7c0-.1-.2-.2-.7-.2a3 3 0 0 1-.8-.2l.3-1 .3-.4c0-.2.2-.4.3-.5l.8-1v-.3c.3-.3.4-.5.5-2.4.1-1.7 0-2.3-.1-3.4l-.2-2.9v-1h.2zm-1.9 2.7v2.1l.1 1.7.2 2v1.2l-.5.7a14.4 14.4 0 0 0-1.8 2.4v.2h-.5a8 8 0 0 0-2 1.4c-.5.4-.7.9-.8 1.4v2.9l.2 1.7.3 1.2v14.3l.3.6v.4s0 .2-.2.3a6.6 6.6 0 0 1-1.2 1h-.3l-.4.1a50.2 50.2 0 0 0-12.2 5.3 29 29 0 0 0-6.8 5.7l-2.3 2.4-2.3 3.8-2.2 3.8-1.2 3.3c-1 3.2-1.1 3.4-1.4 6l-.4 2.6-1.2 2-1.2 1.8c-.2.5-.2.9-.2 1.3v.5l-.2.2-.5.6-.6.9-.8 1.2v3.4c0 .4.2.7.4 1v.1c.1 0 .1.2.1 0l.1.5.2.3.5.9.5.7.1.2.2.8.5.7.4.6v1l-.1 3v1.5l-.7.4a9.4 9.4 0 0 0-1.5 1.1l-.3.3s-.1.1 0 0l-.3.2a31.3 31.3 0 0 0-1.8 1 7 7 0 0 0-2.7 2.1c-.6.9-.9 1.4-1 2a8.3 8.3 0 0 0 .3 3c0 .4.1.6.3.9 0 0 .2.2.2 1.1l.1 1.5 1.3 1.2a31.3 31.3 0 0 0 1.2 1v.2l.1.7a313.8 313.8 0 0 1-.3 14.1v1h-.2c-.3 0-.5.2-.7.4l-.9.6-1 1v1.6l-3.5 2a201.2 201.2 0 0 0-3.9 2.2l-.2.2-.3.6v1.7l1.4 1.4.2.2-17.3.1h-15.5a94.6 94.6 0 0 1 84.3-135.2v-.3zm3.9.4a94.6 94.6 0 0 1 85.7 128.7h-.1a15.2 15.2 0 0 0-10.7 3.4l-3.6 3h-21.2l.3-.3 1.4-1.4v-1.7c-.1-.2-.1-.4-.4-.6l-.2-.2a12.2 12.2 0 0 0-1.1-.7l-2.8-1.5-3.4-2v-1.6l-1.1-1a9.3 9.3 0 0 0-1.6-1c-.2-.1-.1 0-.1 0v-.4l-.1-1.9-.1-3.5-.2-7.5v-2.5l.7-.5.8-.8 1.1-1 .1-1.5c0-1 .2-1.2.2-1.2l.3-.7.2-1v-2l-.1-1a6 6 0 0 0-.8-1.1c-.7-1-1-1.3-2.8-2.2a29.5 29.5 0 0 1-4.3-3l-.1-.7v-2l-.2-2.8.5-.6.4-.7.2-.7.2-.3.4-.7a9.7 9.7 0 0 0 .7-1.2l.1-.4c0 .1 0 0 0 0l.2-.2c.1-.2.3-.6.3-1l.1-1.5v-2l-.9-1.2a14.6 14.6 0 0 0-1.2-1.5v-.5c0-.5 0-.8-.2-1.3l-1.2-2-1.3-1.8-.3-2.6a21 21 0 0 0-1.5-6 21 21 0 0 0-2.3-5.3 33.5 33.5 0 0 0-5.8-8.3 31.3 31.3 0 0 0-7-5.8 31 31 0 0 0-11.5-5l-.2-.1c-.3-.3-.5-.6-.9-.8l-.3-.4-.1-.2.2-.6v-1l.1-6.2V-3830l.1-.4.1-.5.1-.8.3-3c0-1.1 0-2-.4-2.7-.5-.7-1.2-1.2-2.3-1.6-.6-.3-.6-.2-1-1-.3-.5-.8-1.3-1.3-1.8l-.5-.7v-1.3l.1-1.8c.3-.6.3-1.2.3-2.5v-1zm-1.6 11.8c1.7-.1 3.9.5 5 1.3l.5.7v.7h-.1c-1-1-2.9-1.6-5.3-1.8-1-.1-1.1-.1-1-.5 0-.3 0-.4.9-.4zm-.3 1.3h.8a8 8 0 0 1 3.2.7l.7.3c.4 0 .8.6 1 1.2l-.2 1.5-.2-.4c-1-.8-2.6-1.2-5.2-1.5h-.8v-.8c0-.7.1-1 .7-1zm1.2 2.4 1.3.2.9.3c1.1.4 1.8 1 2 1.6v.4c0 .2-.1.3 0 .1v.3h-.1v.7l-.1 1.6v11c-.7-.6-1.7-1-3.1-1.3a12 12 0 0 0-1.6-.2h-.9c-.2-.2-.2-.3-.3-7.4v-7.1l.5-.1h1.4zm.4 16c1 0 1.4 0 1.7.3l.5.2c.2-.1 1 .7 1 1l.1.2v.5l.1.7c.2.4.5.7 1 1l.4.4.7.6 1.3.4c5.4 1.6 6.4 2.1 10 4.4 3.2 2 4.2 3 6.8 5.6a32 32 0 0 1 5.7 8c1 1.8 1.2 2.2 2.2 5.1 1 3.2 1 3.2 1.4 5.9l.3 2.8 1.5 2.1c.6 1 1 1.5 1 1.8.2.3.2.4.2.8l-.3-.4c-2.7-3.8-12.5-7-25.6-8.3a167.3 167.3 0 0 0-15.5-1s-.1-.2 0-.2c0 .1 0 .2.2.1l-.1-.3c-.2-.2-.2-.3-.1-.4v-1.3l.2-.1c.1-.2.2-.3 0-.3v-.4c.2-.2.2-.3 0-.3 0 0-.2 0-.3.2a22.1 22.1 0 0 0-5.7 0c-2.5.2-3 0-.8-.2l2-.5c.2-.2.2-.4 0-.3 0-.4-.3-.8-.7-.7-.2 0-.2 0 0-.2l.1-.2v.1c0 .1 0 .1 0 0 .3 0 .1-.3-.2-.3-.2 0-.3 0-.2-.3 0-.3 0-.5-.3-.7l-.4-.8-.3-.5c-.3-.1-.3-.1-.1-.2.2-.1.2-.1 0-.3l-.2-.3c0-.3-.4-.6-.6-.6-.1 0 0-.1 0-.2l.2-.2c-.2 0-.2 0-.2-.2l-.1-.3c-.2-.1-.2 0 0 0 0 .2 0 .2-.1.1l-.1-.3c0-.2-.1-.2-.3-.2l-.2-.2c0-.1 0-.2-.2-.1v-.2l-.3-.3V-3796.3c-.2 0-.2-.1-.1-.2v-.1h.1l-.1-.2c-.2 0-.3-.2-.3-.3h-.1c-.2 0-.4-.3-.5-.5l-.4-.4-.3-.2c0-.1-.1-.2-.2-.1v-.2s0-.3-.2-.4c-.2 0-.3-.2-.2-.3h-.2l-.4-.2s0-.1.1 0h.3c0-.2-.1-.2-.4-.2-.5 0-.6-.2-.7-.6v-.2h.1c0-.2-.2-.2-.3-.2-.2 0-.3-.1-.2-.2 0 0 0-.2-.2-.3-.2 0-.3-.2-.3-.3h.1c.3.2 0-.4-.4-.6-.3-.2-.4-.5-.4-.7 0-.2 0-.3-.2-.3v.2c-.2 0-.2-.1-.1-.3.2-.2-.1-.5-.3-.4-.1.1 0 0 0-.1l.1-.3c0 .2-.1.2-.3 0-.2-.2-.3-.4 0-.3v-.3c-.2-.2-.3-.3-.5-.2l.1-.2c.2-.1.2-.2.1-.2 0 .1-.2 0-.2 0v-.4c.2 0 .2 0 .1.1v.1c.2 0 .2-.1 0-.3 0-.1-.1-1 0-.8.1 0 .2 0 .2-.2 0 0 0-.1-.1 0-.2 0-.3-.3-.2-.5 0-.1.1-.2.2-.1l.2-.2v-.1c-.2 0-.2 0-.2-.2l.1-.2s.2 0 .2-.2l.3-.6c1.9-1.1 3.4-2 5.3-2.5a148.8 148.8 0 0 1 5.2-1.6c.1 0 .2 0 0 0 .3 0 .4-.1.5-.2l.3-.1.5-.4c.7-.2 1.9-.3 3.6-.5 1 0 1.9-.2 2-.3.2 0 .3-.5.3-2 0-.2 0-.5.2-.5v-.4c-.1-.4.6-.6 2.1-.5zm-17.6 17.7c-.1 0 0 0 0 0h.3-.3zm6 8.2h.2-.2zm.3.3.1.1H16672.3l.2-.1zm-3.5 3h.5-.5zm9.3.3v.4-.4zm.5.7-.2.2v.3l.1-.3.1-.2zm3.9 4.6a163.5 163.5 0 0 1 14.6.6l2.7.4 1.5.3h.2c0 .1 0 .2.2.1l.8.1.5.2c0-.1 1.6.1 2 .3l1 .2a58.4 58.4 0 0 1 12.5 4.7l1 .6v.3l.5.7.3.3.6.8.7 1v.1l-.3-.3a7 7 0 0 0-2.4-2.2c-1.3-1-2.1-1.3-4.1-2.1-7.7-3.1-20-5-34.9-5h-2.2v-.5c.1-.3.1-.4-.1-.3-.2 0-.2 0 0 0 .1-.2.2-.1.4.1l.2.2c-.2-.4 0-.5.8-.5l1-.1h2.4zm-.9 2.1h.5c.1.1.5.1.8 0h.7a55.3 55.3 0 0 0 6.5.2 28 28 0 0 1 4 .3 20.2 20.2 0 0 1 3 .3l1.5.2 1.7.3 1.8.2.3.1s0 .1.2 0l1.5.3 1.5.2.4.1.9.2.9.2c.1.2.4.2.6.2l.8.3.8.2.8.1a21.7 21.7 0 0 0 2.8 1l1.3.6a16.3 16.3 0 0 1 5.5 3.6 9.5 9.5 0 0 0 .8 1.2c.2.3.3.5.2.6l-.7-.8c-.5-.8-1-1.1-2.3-2a18 18 0 0 0-4-2.1c-7.6-3-20.3-4.8-33.6-4.9-2 0-2.4 0-2.2-.2a3 3 0 0 1 1-.2c1 0 1.7 0 2-.2zm0 3h2.4a126.7 126.7 0 0 0 6 0l3.3.3a33.7 33.7 0 0 0 5.2.4l.4.1s.2.1.2 0l1.1.2 1.1.2h.2l.7.1.8.2 1.5.2 1 .2.8.2c.4 0 .9.2 1 .3l.8.2 1 .2c.2.2.5.2.7.2.2 0 .6.1.8.3.1 0 .4.2.5.1l.7.3.6.3.6.1.7.3.7.3.7.3c.1 0 .3 0 .4.2l.7.4a22.7 22.7 0 0 1 1.8 1.2l1.4 1.7c.5.7.7 1 .7 1.3 0 .4-.1.3-.7-.5-2.6-3.4-12.5-6.5-25.1-7.7a213.4 213.4 0 0 0-15.7-.8l-.4-.1h.4c.3 0 .5 0 .6-.2h.3c.2 0 .7 0 1-.2a3 3 0 0 1 1-.2zm.6 3a140.9 140.9 0 0 0 8.7.1l1.5.1a39.9 39.9 0 0 1 4.6.4c.2-.1.3 0 .4 0 0 0 .1.1.2 0l1.4.3 1.5.2h.3l.2.1s.6 0 1.1.2h1.2l.2.2h.5c.2 0 .5 0 .7.2l.7.2c.3 0 .6 0 .8.2l.9.2.9.2.7.2.9.2.6.2s.3 0 .5.2l.6.2.9.4c.3.2.7.3.7.2l.4.2.8.3c.2 0 .4.1.5.3l.3.2a19 19 0 0 1 2.4 1.6l1 1.2c.6.8.6 1 .7 2v.4l-.5.6.1 3.1v2.2l.1.7v.4l.3.3.3.2c.1.2.4.3.6.4l1.3 1 1 .7 1.5.9c1.7 1 1.8 1 2.5 1.9l.6.9v.5l-.1-.3c-.7-.8-1-1-2.6-2-7-4-24.8-6.6-44.3-6.6h-2.2l.4-.5c.2-.2.2-.2-.1 0-.2.2-.3.2-.4.1 0 0-.2-.1-.2 0-.1 0-.1 0 0-.1l.2-.1c.3.1.5-.3.3-.5 0-.2 0-.2 0 0v.3c-.2 0-.2-.1-.2-.2s0-.2-.2-.2v-.2c.3-.3.5-.3.4-.1l.1.2c.2 0 .2 0 .2-.3 0-.1 0-.3-.2-.3 0-.1 0-.2.2-.3.2 0 .3-.3.3-.4 0-.2 0-.2-.2 0-.3.3-.3.3-.4 0 0 0 0-.1.2 0 .1 0 .2 0 0-.1 0-.1 0-.3.2-.5.2-.1.2-.3 0-.3l-.2.2-.1-.2v-.2c.4 0 .5 0 .4-.2-.1-.2-.1-.2 0-.2l.2-.3v-.2c-.1 0-.3 0-.4-.2-.3-.2-.3-.2 0-.1.3 0 .3 0 .2-.1-.1-.3-.2-.6 0-.5l.2-.1c0-.2-.2-.7-.4-.6 0-.2.1-.3.2-.3l.1-.3c0-.3 0-.3-.2-.1-.3.2-.3.2 0 0 0-.2.2-.3.2-.2h.2c0-.2 0-.3-.2-.3-.3-.1-.3-.1 0-.3.2-.1.2-.2 0-.3-.2-.1-.2-.3-.2-.4.2-.2.2-.6 0-.5h-.2l.1-.2v-.3c0-.2 0-.3.2-.3 0 0 .2 0 .3-.3 0-.3 0-.3-.1 0-.3.3-.4.2-.5-.5 0-.3 0-.5.1-.4v.3c0 .2 0 .2.1 0l.1-.3v-.4c.2-.2.2-.2 0-.4-.3 0-.3-.1-.2-.3l.3-.2c.1 0 0 0 0 .2l-.2.2s.2 0 .3-.2c.2-.2-.1-.6-.4-.4-.1 0-.1 0 0 0 0-.2.2-.2.3-.1.3 0 .3 0 0-.2l-.2-.3.2-.2s0-.1-.2 0l-.2-.1c0-.1 0-.2.2-.2l-.1-.2c-.3-.2-.3-.2 0-.1h.2c-.1-.4-.2-.6 0-.5 0 0 .2 0 .2-.3 0-.2.2-.2.7-.2l1.3-.3c.5-.2.9-.3 1.7-.2zm-4 .5h.1c0 .2-.1.2-.2.2-.2 0-.2 0 0-.2zm.3 8.4c-.2 0-.2.1-.2.2.1.1.4 0 .4-.2h-.2zm-.3.5h.1c0 .2-.1.2-.2.2-.2 0-.2 0 0-.2zm0 1.3v.2l-.2.1v-.1l.1-.2zm-.6 1.1v.3-.2c0-.1 0-.1 0 0zm11.3 5.1a129.6 129.6 0 0 1 28.7 3.7l.9.3.4.1.5.2 1 .3.6.3.7.2 1.8 1c1.2.8 1.5 1 2.2 1.9.7.9.8 1 .8 1.8l.1.3s0 .1 0 0l-.3.7-.5-.5a7 7 0 0 0-2.6-1.9c-5-2.6-14.7-4.6-27.4-5.5a226 226 0 0 0-18.2-.8c-.2-.1-.2-.1 0-.3l.3-.4-.4.2c-.2.2-.2.2-.2-.1.1-.4.3-.6.3-.3 0 0 0 .1.2 0 0 0 .1-.1 0-.2 0-.1 0-.2-.2-.1h-.2c0-.3.7-.6 1.8-.7l1.6-.2a70 70 0 0 1 8 0zm2.6 6.8a131.4 131.4 0 0 1 7.3.4h1.3a37 37 0 0 0 3.5.4 40.1 40.1 0 0 0 4.9.7l1 .1c.4 0 .7 0 .7.2l.8.1.8.2 1 .2.7.2.5.1c.2 0 .6 0 .9.2l.6.2s.3 0 .5.2l.7.2c.4 0 2 .6 2.5 1l.6.2h.2c0 .2.6.5 1.2.8l1.1.7.5.7c.7.8 1 1.1 1 1.5l-.5.2.1 3.2.2 7.5v3.6l.1 2c0 .3 0 .5.3.8.1.3.5.4.7.5l.5.3.7.5.7.6v.5a9.4 9.4 0 0 0-3-1.6c-1.8-.7-2.9-1-2.7-.8a70.4 70.4 0 0 0 5.7 3.2v.5l4 2.3a205 205 0 0 1 3.6 2l.2.2v1.2h-106.1l-.2-.2v-.9l.1-.1.2-.1a61.3 61.3 0 0 1 3.6-2l4-2.4v-.5a652.6 652.6 0 0 0 23.2-13 1416.4 1416.4 0 0 0 18.4-10.8c.3.1.4-.1.3-.4 0 0-.1-.2 0-.4 0-.1-.1-.2-.3-.1-.1 0-.2 0-.1-.1h.3c.3 0 .3 0 .2-.3v-.2h-.2c-.3 0-.3 0 0-.1l.2-.4.2-.1c.2 0 .2 0 0-.1v-.3l-.1.1c-.2.1-.3.1-.2 0v-.2l-.2-.3h.2l.3.2v-.1c-.2 0-.2-.2-.1-.3l.1-.3v-.4l.3-.1 2.1-.7a77.4 77.4 0 0 1 6.5 0l2.8-.3c.3 0 1-.1 1.6 0zm-13.7 1.7h.2c0 .2-.4.2-.4 0h.2zm.2 1.8h.1l.4.2-.2-.2h-.3zm3.3 3.7-12.4 6.7a37181.6 37181.6 0 0 1-30.2 16.6c0 .1 1 .2 2.4.2h2.5l1-.5.8-.5.3-.1.4-.2.6-.4a30 30 0 0 0 2.8-1.5l1-.5 1.6-1a55.4 55.4 0 0 0 6-3.3s.3 0 .4-.2l1.6-.9a140 140 0 0 0 9.6-5.2 238.7 238.7 0 0 1 9.4-4.8l.3.1c0 .1 1 .7 1.4.8 0 0 .2 0 .3.2.5.4.6.5.8.5l.2.1.3.1c.2 0 .3 0 .3.2l.3.2.4.2 1 .5 2.8 1.5a80 80 0 0 0 6 3.3 30.4 30.4 0 0 0 3.1 1.8l1.5.8.8.5.3.1 1 .6a16.5 16.5 0 0 1 2.5 1.3 42.7 42.7 0 0 1 4.7 2.7h.3l.4.2.6.4.8.5 3.5 1.9 1.2.6h5c2.7 0 5 0 5-.2l-11.8-6.5a4683.4 4683.4 0 0 1-30.8-16.8zm-50.6 31 1.7 1.6.3-.1a5893 5893 0 0 1 97.5.1l1.7-1.7 19.4.1h2.5l-12 10h-13.6 13.5-26.1l.6.7.4 2v1h-.5v3.2l-1.6-.5v-4.7l-.1-1.7h-10.3l.4.7c.3.5.4.9.4 2l.1 1h-.4v2.3h-.7l-1 .1v-6h1.1v-.2h10.4c0-.3 0-.4.2-.4.3 0 .6.2 1 .5h-1.2 11.7c0-.4.1-.5.3-.6.2 0 .4-.2.6-.6.3-.4.4-.5.7-.5.4 0 1-.2 1-.4l-.3-.1c-.3 0-.4-.3-.1-.3l.6-.3c.2-.1.2-.2 0-.3-.2-.1-.2-.2 0-.6l.6-.7c.2 0 .3-.4.4-.7 0-.3.2-.6.5-1 .3-.1.5-.4.5-.4a6040.5 6040.5 0 0 0-98.9.4l.4.3-.3.6-.4.6s-.3.2-.4.5l-.4.6-.6.8c-.2.4-.5.7-.6.7l-.3.5-.5.6c0 .2-.4.4-.3.5h7.7v-.2h.5l.3.3h-.8v.2h1.1c.5.4 1 1.1 1.1 1.6l.2 1.6v.6h-.3l-.1 1v.9l-.1 1.5v.8l-2.1 1 .2-9h-43.9v-.8c0-.5.1-.7.3-.7.1-.1.2-.3.2-.9v-.5h.2l.2-.3h1.4l.1-.7h.2l.1-.6v-.7h-1.8l-.4-.2v-1.1l.2-2.7v-.6h18.2zm85 10zm-153-4zm20.7.7h2.6l.5.1-.1 1.4v1.7h2.9c2.7 0 3 .1 3.6.4l2.2 1 1.5.7h-20.2l-1-2-1.6-.2c.1.2 6.3.2 6.4 0l.1-1.5.1-1.3h.2l.2-.3h2.6zm-12.6 0h3a31.8 31.8 0 0 0-5.5 0h2.5zm3.1 0 .1.1v.1-.1zm-5.8.3h-.2.2zm200.4.6 1.3.2 3 .7 3.6.8 3.9.8-.4 2v.2l-.1.2-5.7 26.3-5 22.7 1.3.2 7 1.5-2.4 11-8.2-1.9-3.7 17.5-13.4-2.9 1.2-5.4.5-2.4.3-1.6 1.8-8-32.1-7-1.7-.3-3-8-1-2.9 3.6-3 1-.7 2.8-2.4.1-.1 2-1.7.3-.2 1.3-1 1.6-1.4 1.2-1 1.4-1.1 4-3.3.4-.4.7-.5 4.7-3.9 3-2.5 2-1.7 3-2.4h-.1l1.7-1.5 1-.7 3.5-3 3.2-2.6 1.7-1.4.4-.3 2-1.7 3.3-2.7.2-.2zm-120.4 1.8c.2 0 .4 0 .6.2l.1.1h-.9v.2h1.2l-.3-.2h10.8c0-.2.1-.2.2-.2.2 0 .5.1.7.3h-.9v.1h1.1l-.1-.1h10.7v-.3h.4l.6.3h-1v.1h-10.5l.3.4c.5.6.7 1.4.7 2.7v.7h-.1l-.2.8v1.2l-2-.2v-5.6h-10.4c.7.6 1.1 1.6 1.2 3v.8h-.4v1.7l-2.1.2v-5.7h-10.3l-.4-.2h10.8c0-.2.1-.3.2-.3zm1 .5zm42.1-.4h.4l.7.4h-1 11.6v-.3c.1-.3.6 0 1 .3h-1v.1h-10.5c.3.3.6.7.7 1.1l.3 1.9v.7h-.5v6l-1.6-1.3v-8.4h-18.8c.6.5 1 1.5 1 2.9v.8h-.4v2.7c-.7.1-1.3.4-1.9.6v-7h1.3l-.2-.2 19 .1zm35 .6h2v3.6h-.4v1.7l.1 6-1.5 1.4-.3-11.6v-1.1zm-162 2.4a456.8 456.8 0 0 1 6.4 0h3.7H16564.4zm12.7 0a3046 3046 0 0 0 20.1 0l.1.4v.4h-20l-.4-.8h.2zm16.3 1.8c0 .1.3.2.8.1.6 0 .7 0 .7.2s-.7.2-5.3.2-5.4 0-5.4-.2l.3-.2h.5a145.2 145.2 0 0 1 8.4 0zm-13.8 0 2.7.2.1.2h-4.3s-.2-.1-.2-.3h-1.1 2.8zm17.8.1.6.1v.2l-.7.1c-.4 0-.6 0-.5-.1 0-.2.3-.3.6-.3zm7.4 0c1.7 0 2.6.1 2.6.2s-1 .2-2.6.2c-2.2 0-2.6 0-2.6-.2s.4-.2 2.6-.2zm7.8.5H16617.3v1h-2.3l-2.4.2v-1.2zm9.9 0h4.6v1.8c-1.3-.4-2.7-.8-4.2-.8h-.5v-1zm9.8 0h1.5v.3l-.1 5c-.1 0-.3 0-.4.2h-.2l-.9-.7.1-4.2zm7.4 0h5.8v1c-2 .4-4 1-6 1.6v-.4a32.5 32.5 0 0 1 .2-2.2zm11.5 0h5.8v.4h-2l-.1-.1h-.7l-3 .1zm11.7 0h5.8v2.3c-1.5-.4-2.9-.8-4.3-1-.5-.2-1-.2-1.6-.3v-1zm11.5 0h14.1v2c-1.4-.5-3-.9-4.6-1h-8l-1.5.3zm20 0H16700v1.8c-2.1.7-4 1.8-5.7 3.3zm11.6 0h5.8v1.1h-5.8zm11.5 0h5.8v1l.2 6c-1.6-2-3.6-3.6-6-4.6zm11.7 0h1.5V-3693.5l-1.4 1.2-.1-5.1zm6.7 0h.2l-.2.2zm-133.3 1.3h.3l.3.1H16605.1c.2.2.3.2.2 0h.1l.7.1c.6 0 .8 0 1 .2l.1.3.3.3c.3.1.3.3.3.7l-1.3.9a37 37 0 0 0-4.4-1.6v-.6l.5-.4zm163.3 6.8-.8.7-1.5 1.2-4.2 3.5-.5.4-.8.6-1.3 1.1-1.3 1.1-1.6 1.3-2.3 2-.5.3-4.6 3.8-1.2 1-3.3 2.7-1 .7-.1.2-1 .8-1.4 1.1-1.1 1-2 1.6-1 .8-5.2 4.3 5.4 1.1 1 .2 12.5 2.7 10 2.2 2.7-12.6 4.4-20.6zm-111.7 7.4 2.6.1h1.3l1.4.3c.7 0 1.4.1 2 .3h.2l1 .2c2 .4 3.7.8 5.4 1.4v7c-1-.4-2-.8-3-1l-2.4-.6-1-.2h-.2l-2-.3-2.7-.3h-2c-1.4 0-2.7 0-3.9.2l-1.2.2-2.1.6c-1 .4-1.9.8-2.6 1.3a10.4 10.4 0 0 0-4.3 5.3l-.2.3-.8 2.3-.2 1c-.5 2-.7 4.4-.7 7v1.9l.1 1.2.4 2v.4c.5 2 1.2 3.9 2.1 5.4l1.3 1.7c2.1 2.2 5.2 3.6 9.1 4l.8.1h.7l1.6.1a44.7 44.7 0 0 0 6.8-.5l1-.2 1.1-.3c.6 0 1.1-.2 1.6-.4l1-.3 1-.3.6-.2h.1v7a39 39 0 0 1-13.8 2h-.6c-4-.1-7.3-.7-10.3-1.9a19 19 0 0 1-4-2.2 19.1 19.1 0 0 1-4.4-4.3 27 27 0 0 1-4.3-15.2c0-5.2.8-9.7 2.5-13.4l.1-.3c.7-1.4 1.6-2.6 2.5-3.8a18.3 18.3 0 0 1 3.4-3.3c.6-.4 1.1-.9 1.8-1.2a20 20 0 0 1 6.7-2.4l2.1-.4a33.6 33.6 0 0 1 4.4-.3zm-61.8.7h2l1 .1 1.6.3h.4l2 .7h.4a12.9 12.9 0 0 1 7.7 8.3l.5 1.8a20.7 20.7 0 0 1 .3 7.8l-.2.7-.5 2-.4.9-.9 1.6-.4.8a14 14 0 0 1-10 6c-1 .2-2.2.3-3.5.3h-12.7v15.9h-8V-3681.7h17.2zm22.5 0h8V-3634.5h-8v-34.7zm69 0V-3656l.5-.6.4-.6.5-.6 9.3-11.8.5-.6 5.1-6.5.5-.6v.1l3.4-4.4h7.4l-5.3 6.7-1.1 1.5-1.8 2.2-1.4 1.8-1.2 1.6-.5.6-1.2 1.5-.3.3-1 1.2-1.6 2.1 3.5 5.4 1.6 2.5 12.7 19.8h-8.5l-2.2-3.5-.4-.6v-.1l-.3-.4-.2-.3-.2-.3-.2-.3-.2-.4-.2-.3-.2-.3-.2-.3-.2-.3-.2-.3-.2-.4-.2-.3-.2-.2-3.3-5.4-.2-.3-.3-.3v-.3l-.3-.4-.2-.2-.2-.4-.2-.2-.2-.4-.1-.2-.3-.4-.2-.3-3-4.8-5 6.2-.3.5-.2.2-.4.4-.1.2-.3.4-.2.3-.3.4-.2.2-.3.4-.2.3-.2.2V-3634.4h-8v-47.2zm-104.2 6.2v18.8h11.3c3.2 0 5.6-.8 7.2-2.5l1-1.2c0-.3.2-.6.4-.8l.2-.6.4-1.2v-.2l.3-1.5v-1.2c0-2.8-.6-5-1.9-6.6l-.3-.5c-1.6-1.6-3.9-2.5-7-2.5zm70.3 34.5.3.1h-.3zm-45.4 24.1a21.7 21.7 0 0 1 6.1.9v3.2c-1.7-.7-3.5-1-5.6-1-1.6 0-2.8.2-3.7.7-.9.4-1.3 1.1-1.3 2.2 0 .7.2 1.2.5 1.6.3.4.8.7 1.6 1l3.1 1c1.8.4 3.1 1 4 1.6a5 5 0 0 1 2.1 2.1c.4.8.6 1.7.6 2.7 0 1.9-.7 3.4-2 4.5-1.5 1-3.6 1.6-6.4 1.6-2.8 0-5-.4-6.7-1.1v-3.2a20.5 20.5 0 0 0 6.3 1.2c1.8 0 3-.2 3.9-.6.8-.4 1.3-1.2 1.3-2.4 0-.7-.2-1.3-.6-1.7a4 4 0 0 0-1.7-1.2l-3.4-1a11 11 0 0 1-4.9-2.2c-.9-1-1.3-2.2-1.3-3.9 0-1.8.6-3.3 2-4.4 1.4-1 3.4-1.6 6.1-1.6zm72.6 0a20 20 0 0 1 6.3 1v3.1c-1.8-.6-3.8-1-6-1-2.8 0-4.7.7-5.8 2.2a6.5 6.5 0 0 0-.5 1c-.7 1.3-1.1 3-1.1 5.2 0 2.4.6 4.3 1.7 5.6 1.2 1.3 3 1.9 5.4 1.9 1.9 0 3.4-.2 4.6-.7v-6h-5.4v-2.3h8.5v10.3c-.7.4-1.7.8-3 1.2-1.3.4-2.9.6-4.8.6-3.6 0-6.2-1-8-2.9a10.9 10.9 0 0 1-2.7-7.7c0-2.2.4-4 1-5.6l.1-.3.1-.2.7-1.2a8.5 8.5 0 0 1 2.8-2.8c1.6-.9 3.6-1.4 6-1.4zm39.1 0a16.4 16.4 0 0 1 4 .6 8 8 0 0 1 3.6 2c1.7 1.8 2.5 4.6 2.5 8.5 0 3.7-.8 6.5-2.5 8.3-1.7 1.8-4.2 2.7-7.6 2.7-3.4 0-5.9-1-7.6-2.7-1.7-1.8-2.5-4.6-2.5-8.3 0-3.9.8-6.7 2.5-8.4 1.7-1.8 4.2-2.7 7.6-2.7zm81.9 0a17.7 17.7 0 0 1 6.2 1v3.2l-2.8-.8c-1-.2-2-.3-3.2-.3-2.6 0-4.5.7-5.6 2.1a10 10 0 0 0-1.6 6.2c0 2.5.6 4.4 1.8 5.7 1.2 1.3 3 2 5.5 2l3-.3 3-.8v3.2a17.8 17.8 0 0 1-6.3.9c-3.5 0-6.2-1-8-3a11 11 0 0 1-2.7-7.7c0-2.4.4-4.4 1.2-6 .7-1.8 1.9-3 3.5-4 1.5-.9 3.5-1.4 6-1.4zm-248.8.4h3.6l3.6 16 4-13.4v-2.6h3l4.5 16 3.7-16h3.5l-5 21.3h-3.5l-4.2-15-4.6 15h-3.6zm33.9 0h4l8 21.3h-3.6l-2.1-5.5h-8.6l-2.2 5.5h-3.7zm32.2 0h3.6v9.3h10.3v-9.3h3.6v21.3h-3.6v-9.3h-10.3v9.3h-3.6zm21.7 0h3.6v21.3h-3.6zm7.8 0h3.2l11.1 15.7v-15.7h3.6V-3595.2h-3.2l-11-15.7v15.7h-3.7v-20.4zm42 0h17.3v2.8h-6.8v18.5h-3.6v-18.6h-6.8zm43 0h3.1l11.2 15.7v-15.7h3.5v21.3h-3.1l-11.1-15.7v15.7h-3.7zm36.7 0h8.6c3.2 0 5.5.8 7 2.5 1.6 1.6 2.3 4.4 2.3 8.3 0 3.6-.7 6.3-2.2 8-1.5 1.7-3.9 2.5-7 2.5h-8.7zm-50.4 2.7c-2.2 0-3.8.6-4.9 1.8-1 1.2-1.6 3.3-1.6 6.2 0 2.8.6 4.8 1.6 6 1 1.3 2.7 2 5 2 2.1 0 3.8-.7 4.8-2 1-1.2 1.6-3.2 1.6-6 0-3-.5-5-1.6-6.2-1-1.2-2.7-1.8-4.9-1.8zm54 0v15.8h4.5c1.4 0 2.5-.2 3.4-.6 1-.4 1.7-1.2 2.1-2.3.5-1.1.7-2.7.7-4.8 0-2.1-.2-3.7-.6-4.9-.4-1.1-1-2-2-2.4a8 8 0 0 0-3.6-.7zm-185 .6-3.8 9.7h7.5z" style="fill:url(#b);stroke-width:.393868" transform="translate(-16536.5 3879.5)"/></svg>