<svg xmlns="http://www.w3.org/2000/svg" xmlns:xlink="http://www.w3.org/1999/xlink" xml:space="preserve" width="944.9" height="1159" viewBox="0 0 250 306.6"><defs><linearGradient id="a"><stop offset="0" style="stop-color:#ed5d00;stop-opacity:1"/><stop offset="1" style="stop-color:#ff1d50;stop-opacity:1"/></linearGradient><linearGradient xlink:href="#a" id="b" x1="24421.1" x2="24671.2" y1="-1772.6" y2="-1772.6" gradientUnits="userSpaceOnUse"/></defs><path d="M24546.1-1926c-2.1 0-4.3 0-6.4.2a124.8 124.8 0 0 0-118.5 124.8v25.1l.3 2.6.2 3.1.3 3 .3 2.5.5 3.4.3 1.8c1.2 6.4 2.8 12.6 4.9 18.6v.1a15.2 15.2 0 0 0-6.8 12.6v47.2c0 4.4 2 8.5 5.1 11.3 1.8 1.5 8.6 8.9 10.8 10.8 2.7 2.4 6.2 3.8 10 3.9h3.6l-.1 3c0 5.7 1.7 12.2 6 16.6l9.2 9.1a24 24 0 0 0 17.4 7l145.6-.4c9 0 15.3-9 12-17.4l-2.4-6.6c7.2.2 13.6-4.8 15.2-11.8l1-4.4c5.4-1.4 9.6-5.8 11-11.3l2.3-10.9c1.2-5.6-.9-11.4-5.3-15l8.2-38.1c1-5-.4-10.2-4-13.8v-.2l.7-2.6 1.2-5.2.2-1.5c1.5-7.5 2.2-15.3 2.2-23.2v-19.3a124.8 124.8 0 0 0-125-125zm0 7.2 5.6.1a117.8 117.8 0 0 1 111.2 102.2 92.4 92.4 0 0 0-14.8-10.5 21.8 21.8 0 0 0-4.1-1.4h-3.3v-.2c-.8-2.4-1.5-4.8-2.4-7.1a98.8 98.8 0 0 0-67.7-60.7h-.1a98.4 98.4 0 0 0-118.6 66.9l-1.3.3c-4.3 1.5-11.4 6-14.4 9.4-2 2-3.9 5.3-5 8.5a81 81 0 0 0-2.9 10c.2-64.9 52.8-117.5 117.9-117.5zm0 23.2a94.2 94.2 0 0 1 57.3 19.2 94.7 94.7 0 0 1 33.6 48.7l-1.2.2c-2.5.9-4.4 2.1-6.1 4a30 30 0 0 0-3.7 5.4l-1.1 1.7v.1l-1-.3a53.4 53.4 0 0 0-43.5 4.8 46 46 0 0 0-6.4 4.5l-.4.3c0-.2 0-.3-.2-.5a54.5 54.5 0 0 0-6.5-12v-.2a65.8 65.8 0 0 0-8.4-9.8 58.2 58.2 0 0 0-15.8-11.1c-3.3-1.7-4.3-2-7.5-3.2a56 56 0 0 0-17.3-3.6 58 58 0 0 0-11.3.3l-1.6.2a61.6 61.6 0 0 0 7-8v-.1c2-3 2.9-5.7 2.4-8a8 8 0 0 0-1.2-2.8c-.1-.2-.2-.4-.6-.7-.3-.2-1-.4-1.5-.4l-2.8.4a52.5 52.5 0 0 0-17 7.7c-3.8 3-6.2 6.2-7.3 10.2-.8 2.4-.7 4.7.2 7.2l.3.9a68 68 0 0 0-14.6 10 53 53 0 0 0-13 0h-.7a94.7 94.7 0 0 1 90-65.1zm-36 39.5a53.3 53.3 0 0 1-9 9.7l-.4.3c-.2.3-.2.7 0 1h-.2s-3.6 2.7-3.7 3l.7-.2a67 67 0 0 1 5.9-1.3h.4a52.1 52.1 0 0 1 10.9-1.2c1.5-.1 7 .2 9 .5 2.8.4 5.7 1 8.4 1.8l2.3.8c3.2 1.1 4 1.4 7.3 3 3.4 1.8 4 2.1 7 4.2 3.5 2.4 4.2 3 8.2 6.6l.3.3a50.8 50.8 0 0 1 7.5 8.8l.3.4.3.4a68.1 68.1 0 0 1 5.9 11l.2.3.5 1.3.2.5v.2l-1.7 1.9c-1.5 1.6-2 2-2.9 2.5a58.4 58.4 0 0 0-20.5 20.8 90.4 90.4 0 0 0-9.6 24c-.8 2.7-.9 3-1.3 5.1a146.3 146.3 0 0 1-1.5 6.5l-.5 1.7v.3c-1.7-.5-3.3-1-5-1.3l-5-.7h-.1a76 76 0 0 0-4-.2h-1.1c-7.3 0-14.5 1.4-21 5.2h-.1a15.2 15.2 0 0 0-10.2-4.5h-8.5l-.9-.7a65.2 65.2 0 0 1-14.6-23.4c-.8-2.4-1.9-6.5-2.3-8.6-.8-4.9-1-5.7-1-11 0-5 .3-7.7 1-11.7a68.2 68.2 0 0 1 7.2-22.7l-.6.5-.1.1.5-1-.7.5-2 1.8a57 57 0 0 0-6.6 5.8l-2.2 2.2H24456.2l-.2.1-.2.1-.3.3-.7.6-2.8 2.4a62 62 0 0 0-7.6 7.7l-.4.4.8-1c.4-1 1.7-3.7 2.4-4.8a30 30 0 0 1 5.5-6l4.9-4.6a42.5 42.5 0 0 1 13.4-8.5c1.8-.8 3.6-1.2 5.6-1.5a170.6 170.6 0 0 1 10-.5s-.6.2-1.8.2a34 34 0 0 0-5.6.5h1.3c1.6-.2 2-.2 1.9 0l-.5 1c-.3.9-.3 1-.1 1.7.3 1.5 1 2.4 2.5 3 .8.5 1 .5 2 .4 1 0 1.4-.2 1-.3l-.5-.4c-.4-.3-.4-.5-.5-1.1 0-.6 0-.9.3-1.6.5-1 1.6-2.2 2.9-3 2.1-1.6 3.7-1.7 4.6-.3l.3.5v-.5c.2-1-1-2.2-2.5-2.7-.6-.2-1-.2-1.8-.2h.2-.6c-1.2 0-1.5 0-1.5-.2l-.2.6h-.3a30 30 0 0 1 2.7-6.8c1.7-3 3-4.6 7.3-8.6l6.2-5.9c3.1-3 4-3.9 5.2-4.8l1-.7zm-27.7 20.8.8 1c.7 1 1 2 1.3 3.6.3 1.7.3 2.3 0 2.5l-.7.5c-.4.4-.5.5-1.4.4l-2.7-.2h-.4l-.8-.1h.1-.3l-1.6-.3-.7-.1-2-.4c0-.2 3-3 4.5-4.2.2 0 .3-.2.4-.3a54.9 54.9 0 0 1 3.5-2.4zm4.7.3v.3c.2.5.3 1.8.3 3l.1 2.2-.8.3-.6.2v-.6l.4-2.1.6-3.3zm3.2 5.2zm-2.7 1.3v.2c0 .3-.1.4 0-.2zm-10.8 1.4a5 5 0 0 1 1.2.1c.2.1 0 .1-.7.1a46.7 46.7 0 0 0-24.5 7.7l2.2-2a19 19 0 0 1 4.9-3.3 31.3 31.3 0 0 1 13.5-2.6h3.4zm1.7 0h.4-.4zm-.5 1h.7-.7zm-1.2 0c-.1.1 0 .1.2.1h.2a1 1 0 0 0-.4 0zm-3.6 1-1.4.7.7-.3.7-.4zm-1.5.8h-.3l-.3.3.3-.1.3-.2zm-1.5.9zm0 0h-.1l-.3.3.3-.2.1-.1zm-.5.3zm0 0-.2.2-.2.2.3-.2.1-.1zm-.8.7zm0 0-.1.1-.3.3.3-.2.1-.2zm136.6 5.4a51.1 51.1 0 0 1 13.4 1.3 49.5 49.5 0 0 1 5.4 1.6 33.9 33.9 0 0 1-5.6 6.8l-1.2 1-.5-.1-1.7-.3c-1.5 0-3 .3-3.7 1a42.2 42.2 0 0 0-8.2.1c-3.7.3-7.4 1.8-10 3.7-1.5 1.2-2.9 3-3.5 4.5l-1 1.8c-3 4.3-3.9 9.7-3.5 20.2 0 1.7.2 3.2.2 3.3v.7c0 .3 0 .6.2.6l.6-.3v.2h.2l.6-.2a58.6 58.6 0 0 1 4.6-2.2l3.4-1.6.6-.2 7.6-3.4.6-.3a30 30 0 0 0 9.1-6.6 17.8 17.8 0 0 0 4-7.8v-.4c.2-1 .3-1.7.2-2.3v-1.1l-.3 1-.1.4c0 .3-.2.5-.3.8a9 9 0 0 0 0-2.1l-.2-1.7-.1-1h.7c1 0 2.2-.5 2.8-1.1.4-.5.5-.6.5-1.3 0-1-.2-2-1-2.7-.4-.4-.3-.6 0-.8l.8-.1.9-.4a222.3 222.3 0 0 0 4.3-1.5l2.5-.4a26.8 26.8 0 0 1 9.5 1l.6.2a54.7 54.7 0 0 1 12.2 13 44.1 44.1 0 0 1 4.8 33.3c-1.8-1.8-4-3-6.5-3.7l-11.8-2.5a15.2 15.2 0 0 0-12.9 3.2l-19.8 16.4-.2.2-14.1 11.7c-2.6-5-7.8-8.1-13.4-8.2h-5.5a45 45 0 0 1-10.9-36.9c.5-2.8.7-3.8 1.5-6 .5-1.7 2.5-6.2 3-7.3a58.7 58.7 0 0 1 4.8-7.2l-.4.2h-.2l2.7-3 1-1h.2v.1l.2.2h.3c0 .1 0 0 0 0l.3.1h.3l.2-.1.2-.1.4-.3 1.1-1a47.8 47.8 0 0 1 30.1-11.5zm21.2 2.2c.1.1-1 1.3-2 2.5l-2 1.8-1 1 1.3-1.5c1.3-1.5 2.2-2.4 2.9-3l.2-.2.1-.1v-.1l.5-.4zm11.5 1.5c1.5 0 3 0 3.6.2.9.2 2 .7 2.6 1.1h-4.7a222.8 222.8 0 0 0-5.2.2h-.3l-.4.1s-.3 0-.6.7l-3.5.1a28 28 0 0 0-8.2 2.8 75.6 75.6 0 0 0-2 .9c5-3 10.1-5 14.8-5.9l4-.2zm25.4 3.1a118.8 118.8 0 0 1-3.6 39.6 50.9 50.9 0 0 0-15.4-33.4l-.4-5.8h5.9l5-.1c1.1-.1 2.6-.2 4.2-.1h3.9l.4-.2zm-23.2.5.2 2.3-3-2.3h2.8zm-20.1 2.5-.8.6-1 .8c-.2.1-.6 0-.4-.2l2.2-1.2zm-166.6.6-2.2 6.8v-4.8a62 62 0 0 1 2-1.8l.2-.2zm154.3 2.3.7.3c.4.2 1 .6 1.3 1 .6.5.7.6 1.3.6 1 .1 2 .8 2.3 1.6a16 16 0 0 1 1.1 6.9c0 2 0 2-1.6 3.7-2.9 3-7.2 5-16.2 7.4a56.7 56.7 0 0 0-6.8 2l-.5-4.9a34.2 34.2 0 0 1 .3-10.2c1.2-1.9 3-3.3 6-4.9a33.9 33.9 0 0 1 12.1-3.5zm7.1.5h.3l.7.3c.9.4 1.4 1 1.4 1.5 0 .3-.6 1-1 1.2l-.4.2-.6-1.5c-.4-1-.5-1.6-.4-1.7zm-43.2.2-.6.5-.4.5.6-.5.4-.5zm-124.2 2.9c0 6.3.6 12.4 1.8 18.4a46 46 0 0 0 2 15.2c1.1 4.5 2 7 4 11.3l.5 1 1.2 2.3 1.6 2.8.4.6c1.4 2.2 3 4.4 4.4 6.2a26.1 26.1 0 0 0-2.5-.3l-3.7-.2h-14l-.2-.4-1.2-2.1a117 117 0 0 1-4-8.4l-1.1-2.6a117.9 117.9 0 0 1-2-5l-.8-2.6a115.4 115.4 0 0 1-2.5-8.9l-.6-2.9-.7-3.4-.4-2.2 1-1a114.4 114.4 0 0 0 11.4-11.6c2-2.5 3.8-4.5 5.4-6.2zm185.7 49 11.8 2.5-11.1 51.4 8.1 1.7-2.3 11-8.2-1.8-3.8 17.4-13.3-2.9 3.8-17.4-33.8-7.3-4-10.9 9.7-8 23.4-19.3h-.1zm-70.6 9.9-.4.4.4-.4zm67.8 5.5-36.7 30.2 28.8 6.2zm-111.7 7.4a50.4 50.4 0 0 1 7.5.7c2.3.4 4.4 1 6.3 1.6v7a29.2 29.2 0 0 0-6.3-1.8c-2.2-.4-4.5-.6-7-.6-5.8 0-10 1.5-12.4 4.6a22 22 0 0 0-3.6 13.6c0 5.5 1.3 9.7 4 12.6 2.6 2.8 6.7 4.3 12.2 4.3a33 33 0 0 0 13.2-2.3v7a39 39 0 0 1-13.9 2c-7.7 0-13.6-2.1-17.6-6.4-4-4.2-6-10-6-17.2 0-5.2 1-9.6 2.6-13.3 1.7-3.8 4.3-6.7 7.7-8.7 3.5-2 8-3 13.3-3zm-61.5.7 2.6.2c2.5.2 4.6.9 6.4 1.9 2.3 1.4 4 3.2 5.2 5.6 1 2.4 1.6 5 1.6 8a15 15 0 0 1-4.4 11.4 16 16 0 0 1-11.7 4.2h-12.7v16h-8v-47.3zm22.2 0h8v47.2h-8zm61 .1h8v25.6l16.7-21.2 3.5-4.3h7.4l-10.9 13.7-4.5 5.7 17.8 27.7h-8.5l-13.9-21.9-7.6 9.7v12.2h-8zm-96.2 6.2v18.7h11.3c3.1 0 5.5-.8 7.2-2.5a9.3 9.3 0 0 0 2.4-6.7c0-3-.8-5.4-2.4-7-1.5-1.7-3.8-2.5-6.9-2.5zm29.8 58.6a20 20 0 0 1 6.3 1v3c-1.8-.6-3.8-1-6-1-2.7 0-4.6.8-5.7 2.2-1.1 1.4-1.6 3.5-1.6 6.2 0 2.5.5 4.3 1.7 5.6 1.1 1.3 3 2 5.3 2 2 0 3.5-.3 4.6-.7v-6h-5.3v-2.4h8.4v10.3c-.7.5-1.7.9-3 1.2-1.2.4-2.8.6-4.8.6-3.5 0-6.2-1-8-2.9a10.9 10.9 0 0 1-2.6-7.7c0-2.3.4-4.4 1.2-6 .7-1.8 2-3.1 3.5-4 1.6-1 3.6-1.4 6-1.4zm46.9 0c3.4 0 5.9.8 7.6 2.6 1.6 1.7 2.5 4.5 2.5 8.4 0 3.8-.9 6.5-2.5 8.3-1.7 1.8-4.2 2.7-7.6 2.7-3.4 0-6-1-7.6-2.7-1.7-1.8-2.5-4.5-2.5-8.3 0-3.9.8-6.7 2.5-8.4 1.7-1.8 4.2-2.6 7.6-2.6zm51.7 0a20 20 0 0 1 6.3 1v3c-1.8-.6-3.8-1-6-1-2.8 0-4.7.8-5.8 2.2-1 1.4-1.6 3.5-1.6 6.2 0 2.5.6 4.3 1.7 5.6 1.2 1.3 3 2 5.4 2 1.9 0 3.4-.3 4.6-.7v-6h-5.4v-2.4h8.4v10.3c-.6.5-1.6.9-2.9 1.2-1.3.4-2.9.6-4.8.6-3.6 0-6.2-1-8-2.9a10.9 10.9 0 0 1-2.7-7.7c0-2.3.4-4.4 1.2-6 .8-1.8 2-3.1 3.5-4 1.6-1 3.6-1.4 6-1.4zm-83.2.3h14.9v2.8h-11.3v6.5h10v2.8h-10v6.5h11.3v2.7h-15zm49.2 0h9.9c2.3 0 4 .6 5.2 1.9a7.1 7.1 0 0 1 1.6 5c0 1.4-.4 2.7-1.1 3.8-.8 1-1.8 1.8-3.3 2.2l1 1 .6 1.2 2.7 6.2h-3.7l-2.6-6c-.3-.5-.6-.9-1-1.1-.2-.3-.8-.4-1.6-.4h-4v7.5h-3.7zm49.3 0h3.6v21.3h-3.6zm19.5 0h4l8.1 21.3h-3.7l-2.1-5.5h-8.6l-2.1 5.5h-3.8zm-86.5 2.7c-2.2 0-3.9.6-5 1.8-1 1.2-1.5 3.3-1.5 6.2 0 2.8.5 4.9 1.6 6.1 1 1.2 2.7 1.8 4.9 1.8s3.8-.6 4.9-1.8c1-1.2 1.6-3.3 1.6-6 0-3-.6-5-1.6-6.3-1-1.2-2.7-1.8-5-1.8zm21.4.1v8h5.2c1.3 0 2.3-.3 3-.9.8-.6 1.2-1.7 1.2-3 0-2.7-1.3-4-3.9-4zm67 .5-3.7 9.8h7.5zm25.5 17z" style="fill:url(#b);stroke-width:.370443" transform="translate(-24421.1 1926)"/></svg>