<svg xmlns="http://www.w3.org/2000/svg" xmlns:xlink="http://www.w3.org/1999/xlink" xml:space="preserve" width="944.8" height="1157.7" viewBox="0 0 250 306.3"><defs><linearGradient id="a"><stop offset="0" style="stop-color:#4c4c00;stop-opacity:1"/><stop offset="1" style="stop-color:#ffda15;stop-opacity:1"/></linearGradient><linearGradient xlink:href="#a" id="b" x1="16524.2" x2="16774.1" y1="-4896.7" y2="-4896.7" gradientTransform="translate(32.4 -14)" gradientUnits="userSpaceOnUse"/></defs><path d="M16681.5-5063.8zm0 0a124.6 124.6 0 0 0-96.5 45.4 124.2 124.2 0 0 0-18.7 30.9 124.3 124.3 0 0 0-5.8 17.4 123.8 123.8 0 0 0-2.5 12.2 125.2 125.2 0 0 0-1.5 19.1v19.3c0 2.7.1 5.4.3 8l.1 1.1c.2 2.6.4 5.1.8 7.7l.2 1.8.2 1.2v.5l.1.3v.2l.1.3 1.5 6.3h-.3c1 4.5 2.4 9 3.9 13.4a15.2 15.2 0 0 0-6.9 12.7v47.1c0 4.1 1.7 7.9 4.5 10.6l10.9 11c2.7 2.7 6.5 4.4 10.6 4.4h8c8 0 14.5-6.2 15-14.1 1.7 1.3 3.6 2.2 5.6 2.8 1.3 4.8 4.9 8.8 9.6 10.4v14.3c0 3.2 1.2 6.2 3.2 8.4l.5.5.6.7 8 8 1.2 1.2.4.3c2.2 1.8 5 3 8.1 3h87.3c9 0 15.3-9.1 12.1-17.6l-8-21.3c1.6-1.2 3-2.8 3.9-4.7.7.9 1.5 1.7 2.3 2.4l10 10.1c2 2 4.4 3.3 7.2 4l13.3 2.8a15.2 15.2 0 0 0 18.1-11.7l1-4.3c5.5-1.5 9.7-5.8 11-11.3l2.3-11c1.2-5.5-.8-11.3-5.3-15l8.3-38c1-5.3-.7-10.4-4.2-14a15.2 15.2 0 0 1 .2.1l.4-1.3 1.4-6 1-6.3c.4-2 .6-4.1.9-6.2a128 128 0 0 0 .6-12.8v-19.3a135 135 0 0 0-.6-12.8 126.3 126.3 0 0 0-2-12.4l-1.3-6-1.7-6-2-5.8-2.2-5.7-2.5-5.6a124 124 0 0 0-9-15.7l-3.5-4.8c-1.6-2.2-3.3-4.3-5-6.3l-1.5-1.7-1.1-1.3-.7-.7a127 127 0 0 0-3.3-3.5l-.7-.7-3.6-3.5a124.6 124.6 0 0 0-84.3-32.5zm0 7.2c28.3 0 54.3 10 74.6 26.6-8.2 1.3-15.3 3.1-22.3 5.6l-2.2.8a98.5 98.5 0 0 0-147.4 69.9l-.4.3-.3.1c-.5 0-1 .2-1.7.4-.3 0-.6.2-.8.3l-.6.4a5 5 0 0 1-1 .6c-.9.5-1.8 1.4-2.3 2.4a5 5 0 0 0-.6 2v1l-.2.2-.7 1a12.5 12.5 0 0 0-1.1 3.3c-.1.5-.2 1-.1 1.3v.1l.1.5.3.3-.3 1.4a10.8 10.8 0 0 0 0 3.5v.1c.2.5.4.8.7 1l.1.1v.3c-.2.4-.3.8-.3 1.3l.2 1.4.2.4.1.2.3.6.5.6-.1.4a46.9 46.9 0 0 0-1.9 6.3l-.3-.3-1-.6-1 .4-1 .7-.6 1.3-.1.3s-.2-.1-.2-.3a37.9 37.9 0 0 0-4.1-5l-.7-.5-.2-.2h-.7a117.8 117.8 0 0 1 117.1-130.6zm0 23.1c16.5 0 32 4.2 45.4 11.6l-.3.1a75.5 75.5 0 0 0-17.2 10.5v-.3c0-.2-.2-.4-.7-1-.8-.6-.8-.6-.7-2 0-.8 0-1-.3-1.5-.3-.7-.4-.8-1.1-.8h-.4l-.1-.5c0-.5 0-.7.2-1.2.3-.9.4-1.5.2-2.2l-.1-.5h-1.3c-1.6 0-1.7 0-1-.7.4-.5 1.1-1.7 1.1-2l-.3-.4c-.3-.2-.5-.2-1.2-.2-1.5.1-3.7 1-7.2 3-2 1-2.7 1.4-2.9 1.2l-.2-.4c0-.4 0-.4 1.5-1.9a7.7 7.7 0 0 0 2-2.3c.6-1 .6-1.3-.2-1.3-2-.3-4.5.8-7.3 3-.6.6-.8.7-1 .6l-.2-.2c0-.2 1-1 2.3-1.9.5-.3.7-.5.9-1.1.3-.9.3-.8-1.3-.8s-2.5.3-3.7.9c-1.1.5-2.4 1.6-3.4 2.7a10 10 0 0 1-2.8 2.5 4 4 0 0 0-2 2l-.4.9-2-.8.3-1.6c.5-1.6.6-2.7.4-3 0-.3-.2-.3-.8-.3-1.5 0-2.2.6-3.1 3-.9 2.2-1.2 3.5-1.4 6.3a7.7 7.7 0 0 1-1 3.2 10 10 0 0 0-1.2 3.9c-.4 2.2-.4 2.2-.4 4.3 0 2.6.1 7.9.3 9.4 0 .7.2 1.5.4 2l.4 1.8c.3 1.9 1.8 4.4 5 8.2 2.3 2.6 5 6 7.6 9.9 1 1.5 2.3 3.7 2.6 4.6a37 37 0 0 0 1.9 4.6c-.1 0-2 .8-3 1a20 20 0 0 0-5 2.8c-1.2.9-2 1.9-2.7 3-3.5.4-7.2 1-10.3 2.7-1.6.8-4 3.6-4 3.6s-6.3 1.7-9 3.4c-1.8 1-4.6 4.2-4.6 4.2s1.9-1.6 3-1.9c2.4-.6 10.3.4 10.3.4 2.5 3.5 3.6 4.1 8 3.9 2.2-.2 5-.7 7.9-1.4a12.1 12.1 0 0 0 5.3 3.4 8 8 0 0 0 2.8.6h3.3c2 0 4.3.1 6.7.4 5 .6 8.2.9 10.3.9 2.2 0 32.2-4.6 32.2-4.6 2.1.9 3.8 2 5.6 3.5l2.2 1.8 1.2.8 1.2.2c1.4.3 1.7.3 3.3-.2a8 8 0 0 0 1-.4c1.8.5 3.8.9 5 1 2.6 0 7.6-1.9 7.6-1.9s.8 2.7 1.8 3.6c1 1 3.1 1.2 3.1 1.2s-1.5-.8-2.3-1.7c-.6-.6-1.1-2-1.1-2s.7 1.1 1.3 1.4c1 .6 3.4.6 3.4.6s-2.3-.8-3.2-1.5c-.6-.4-1.5-1.5-1.5-1.5s1.3.7 2 .8c1 .1 2.5-.2 2.5-.2s-1.7-.3-2.6-.7c-.9-.3-1.8-.7-2.4-1.4-.3-.4-.6-.8-.5-1.2.1-.3.8-.5.8-.5s-1-.2-1.3 0c-.4.5-.1 1.7-.1 1.7l-6.5.4c-.5 0-1.8-1-3-2.2v-2a11.7 11.7 0 0 0-.8-2.3l2.3.3c2.6.1 6.9-.2 6.9-.2s.7 2.7 1.7 3.5c1.1 1 3.2 1.3 3.2 1.3s-1.5-.8-2.4-1.7c-.5-.6-1-2-1-2a6 6 0 0 0 1.3 1.4c.9.5 3.3.6 3.3.6s-2.3-.8-3.2-1.5c-.6-.4-1.4-1.5-1.4-1.5s1.2.6 1.9.7c1 .2 2.5-.1 2.5-.1l-2.6-.7c-.8-.4-1.7-.8-2.3-1.5-.3-.3-.7-.8-.5-1.2 0-.2.7-.4.7-.4s-1-.2-1.2 0c-.4.5-.2 1.7-.2 1.7s-4.1-.6-5.9-.5c-.3 0-.8-.4-1.4-1v-.2c.2-.2.4-1.5.4-2.4 0-.5-1-3-1.5-3.5a23 23 0 0 0-4-3.4l-1-.7c-.6-2.2-1-3-1.6-4.3-1.8-3-3.8-5.2-7-7.5-.5-.4-.7-.6-1-1.2-.4-.8-.7-2.4-1-4.1 0-.7-.2-1.4-.4-2a12 12 0 0 1-.8-3.8c-.2-2.8.2-6.5.9-8.5l.4-1.1-.2-.7v-1.7c.3-.8.3-.9.8-1.3l.6-.5.9-1 .7-1 .2-1a7 7 0 0 1 1-3.4c.2-.6 1.2-2 2-3 1.4-1.8 1.5-1.9 1.6-2.5l.1-.7 1-.8a94.4 94.4 0 0 1 21.3 100.9 15.1 15.1 0 0 0-10.7 3.4l-5.6 4.6a7.3 7.3 0 0 0-2.4-2c-.4-.3-.9-.4-1.3-.4h-1.3l-2.2.6c-2.5.6-4.5 1.4-5.9 2.9a8.1 8.1 0 0 0-1.8 5 4 4 0 0 0-2.5-1.6c-1.3-.2-2.8.2-4.2 1a7.7 7.7 0 0 0-3.1 3.2c-.6 1-.6 2.3-.3 3.6a5 5 0 0 0-4.7.2 7.5 7.5 0 0 0-3 4.5c-.2.5-.2 1.1-.2 1.7-2.6-2-5.7-3-9-3.1h-4.7l.5-1.4a36.8 36.8 0 0 0 1.4-9.7 2.5 2.5 0 0 0-1-1.6l-.3-.2h-.2l-.3.2s0 .3-.2.5a82.6 82.6 0 0 1-2.3 4l-3 5a41 41 0 0 1-3.4 4.7c-1.5.7-3 1.7-4.2 2.9l-1.1-1c.5-1.1 1.6-2.6 4-5.3l1.2-1.6a46.2 46.2 0 0 0 2-2.5l1.1-2 .3-.6c1.2-2.3 2.1-4.6 2.8-6.7.6-2.1 1-4 1-6l.1-2-.7-.7-.8-.7-1 .4-1.2.9-2.3 1.8-2.2 1.9v-1.3a34.9 34.9 0 0 0-1.4-8.5c-.2-.6-.5-1-1-1.3a4.4 4.4 0 0 0-.6-.5h-.3a3 3 0 0 0-1 .2l-.8.4v-.3c0-.7-.2-1.2-.4-1.6v-.4l.2-.7c0-.4 0-.7-.2-1.2l-.5-1.3-.6-.8c-.1 0-.2 0-.2-.2-.1 0 0 0 0 0 0-.3-.2-.7-.5-1l-.8-1.3a5.5 5.5 0 0 0-2.2-1.7l-.6-.4-.5-.6-.7-.7-.4-.1h-.7c-.3-.2-.7-.3-1-.3l-.4-.1h-.3c-.3-.2-.6-.2-.9-.2l-.4-.2c-.3-.2-.6-.2-.9-.2l-.5-.2c-.1-.2-.3-.2-.6-.3h-.7c-.5 0-1 0-1.4.2h-.5l-.7.2a3 3 0 0 0-1.2.2l-1 .9a3 3 0 0 1-.7.5l-.5.2c-.6 0-1.2.4-1.6 1l-.2.1s-.2 0 0 0c-.3 0-.5.2-.7.3l-.5.6-.4.6-.2.6-.1.2-.5.2c-.5.1-.8.4-1 .7-.2.2-.3.5-.3.7l-.3-.7-.5-.8-1 .1c-.4 0-.9.2-1.2.4a63.4 63.4 0 0 0-5.4 5.5l-.4.6v-1c0-1.6-.1-2.1-.4-2.5 0-.1 0-.2-.2-.3l-.3-.2c-.3 0-.4 0-.7.2l-1 .7a39.3 39.3 0 0 0-6 13.8h-.1v.1l-.3 1.8-.1.7-.7 1.5-.1.3-.3-.4-.2-.6-.3 1.1v.1l.8 1.6.3-.7.4-.6.4-1v3.7l1 1.8 1 1.7h-1.2c0 .2 0 .2-.3 0a2 2 0 0 0-.5-.2h-.5l-.5-.2-.4-.1-.3-.1a2 2 0 0 1-.7-.3l-.4-.1h-.3l-1.3 6.8-.6 3.2a76.3 76.3 0 0 0-.2 1.2l.1.4-.8.2 1-5.1a1334.5 1334.5 0 0 0 2.5-12.5 72.4 72.4 0 0 1 1.7-6.6 44.2 44.2 0 0 0-4.6-33.3l-.8-.8-1-.3-.6-.2H16640.8v.2l-.2.1-.1.5a25.5 25.5 0 0 0-.4 1.7 243.4 243.4 0 0 1-2.9 16.7l-.2.8v-.4a52.9 52.9 0 0 0-12.3-22.3l-1.1-1-1-.1H16621.1v.1l-.1.1-.1.3-.4.8c-.5 1-.6 1.3-1 3.6-.3 2.4-.7 7.7-.7 9.6v.5l-.8-.7-1-.8c.3-.4.4-.8.4-1.4v-.1c0-.4 0-.7-.2-1l-.7-1.2a10.8 10.8 0 0 0-.9-1.2l-.3-.2V-4935.2c.2-1.3 0-2.2-.3-3a4 4 0 0 0-.7-1l-.5-.3c.3-.4.4-.8.4-1.3v-1.1c0-.3-.2-.6-.4-1-.4-.8-.9-1.2-1.4-1.5l.1-.6v-.8c-.2-.5-.3-1-.6-1.4-.4-.6-.9-1-1.4-1.4-.5-.4-1-.6-1.4-.7V-4950.2a4 4 0 0 0-.7-1.4l-1-1a13.2 13.2 0 0 0-3.2-1.1l-.2-.8c0-.6-.6-1.2-1.3-1.7-.5-.4-1-.6-1.6-.7h-.5l-.8.2h-.5a26.6 26.6 0 0 1-3.1-.2h-.9l-.4.1a6 6 0 0 1-.6 0l-1.7.3a166 166 0 0 1-4.4 1.5l1.5-7.2a9.4 9.4 0 0 0 5.4 1.8c1.3 0 2.6-.3 3.7-1a5 5 0 0 0 2-2.3c1.4 1.8 3.4 3 5.4 3 2 .1 4-.9 5.1-3 1.5 2.2 4 3.5 6.4 3.5a6 6 0 0 0 3.8-1.1c.9-.7 1.5-1.8 1.9-3.1 1 .6 2 1.2 3.4 1.4 2 .4 3.6 0 4.8-1a6 6 0 0 0 2.1-3.9c.5-3-1-6.4-4.7-7.2-1-.2-1.9-.3-2.8 0 0-2.2-1-4.3-2.6-5.9a6.2 6.2 0 0 0-5.9-1.7c.1-1 0-2-.5-3a9.9 9.9 0 0 0-6.2-5c-1-.3-2 0-3 .4a3 3 0 0 0-.7-1.3 5.4 5.4 0 0 0-3.5-1.3 94.5 94.5 0 0 1 77.6-40.5zm88.4 16.8a117.4 117.4 0 0 1 21.9 119.5c-2.1-2.3-4.9-4-8-4.7l-10.1-2.2a98.2 98.2 0 0 0-22.1-103.8c1-.6 6.1-3 13.8-6.7zm-166.2 24.7a4.4 4.4 0 0 1 3 1c.4.5.6 1 .6 1.4a.5.5 0 0 0 .9.4c.7-.7 1.6-.8 2.7-.6 1 .2 2.2.8 3.2 1.7a9 9 0 0 1 2.3 2.9 4 4 0 0 1 .4 3 .5.5 0 0 0 .7.6c2-.9 4-.1 5.5 1.4a7.7 7.7 0 0 1 2.5 5.6.5.5 0 0 0 .7.5c.8-.5 1.5-.3 2.6 0 3.2.7 4.4 3.5 4 6a5 5 0 0 1-1.7 3.3c-1 .8-2.3 1.2-4 .9-1.4-.3-2.4-1-3.7-1.7a.5.5 0 0 0-.7.4 4.5 4.5 0 0 1-1.7 3c-.9.7-2 1-3.2 1-2.3 0-4.9-1.4-6-3.6a.5.5 0 0 0-.8 0c-1 2.3-2.8 3.2-4.7 3.2a6.7 6.7 0 0 1-5.1-3.2.5.5 0 0 0-1 .1c-.2 1.2-.9 2-1.8 2.5s-2 .8-3.2.8c-1.9 0-3.8-.8-5.1-1.9a94.2 94.2 0 0 1 13.2-28.6h.4zm-2.8 36c.3 0 1 .2 1.5.5.5.4 1 1 1 1.3v.1h-.3l-.8-.1c-.2-.1-.4-.2-.5-.1-.2 0-1-.3-2-1-.9-.4-1.2-.5-1-.2v.1c0 .1 0 .3.5.7l.9 1c0 .3.1.3.6.2a6.4 6.4 0 0 1 2.8.2c.2.3.4.5.7.5l.5.1a12.5 12.5 0 0 1 2.3 1c.3 0 .7.5.8.6l.4 1h-.7c-.6 0-1 0-1.1-.2-.2-.1-.4-.2-.7-.1-.3 0-.5 0-1.2-.8-.5-.4-1-.9-1.3-1l-.4-.2.1.2h-.1l.2.4.4.7.5 1 .3.6v.1c-.2 0-.2.1 0 .1-.3.2-.2.2.2.2.5 0 .7 0 .9-.3.3-.3.3-.3.5-.2.1.2.5.3.9.3.3 0 .8.1 1.1.3h.5l.1.4c.2.2.3.2.5.2s.7.2 1.1.5a3.6 3.6 0 0 1 1.7 2.4v.3c0-.1-.2-.3-.6-.4l-.6-.3-.1.3c-.2.4-.4.4-1 0l-.8-.1c-.4.1-1-.3-1.6-1.1a6.3 6.3 0 0 0-1.2-1.5v.3-.1s0 .4.3.9l.4 1.2c0 .1.1.7.3 1 .4 1.3.7 1.2 1.7 0l.3-.4v.9c0 .1 0 .2.3.3.2 0 .4 0 .6-.2.4-.4.5-.4.5 0 0 .2 0 .3.3.4.5 0 1 0 1.1-.2v.1a.4.4 0 0 0 .3.4c.4.1.8.5 1.2 1.3l.4.8v1.1h-.2c-.2 0-.4-.1-.7-.5l-.4-.4-.1.3v.3h-.1c-.2.3-.3.2-.7 0-.3-.1-.6-.2-.8-.1-.3 0-.9-.3-1.3-1-.4-.6-1-1.2-1-1-.1.1 0 .4 0 .8v1.1l-.1.2-.2.1c-.1 0-.5 0-.8-.2-.5-.3-.7-.5-1.1-1.3l-.5-.7.1.4-.2-.2.3.5v2h-.6c-.3-.1-.6-.5-1.1-1.3-1-1.4-1.2-1.6-1.5-1.6-.4 0-.6.2-.5.6v.2l.2 1 .2.8.1 1.2v1l.8-.1c.4 0 .9-.2 1.1-.3l.6-.2.3-.3.2-.2.2-.6.2.4v.5c0 .1 0 .2.3.2.9 0 1.3-.2 1.6-.6.4-.5.6-.5.5 0v.1c0 .2.3.4.6.2l.7-.1.5-.1c0-.2.2-.2.3 0h1c0-.2.2-.2.2 0l.6.2c.4.2.5.2.7 0v.1l.2.2.3.1s.2 0 .4.3c.2.1.4.4.5.7.2.3.3.7.3 1v1.1l-.5-.1c-.2-.2-.4-.2-.5 0-.2.1-.4.1-.8-.3-.4-.3-.4-.3-.6-.1l-.6.2c-.4 0-.6-.1-1.1-.7l-.7-.6V-4936.5l-.1.7v.1c-.1.1 0 .3.5.7l.7.6.5-.4.4-.5v.5c0 .4 0 .4.5.3l.6-.2.3.1c0 .2.2.2.6.1l.7-.2v.1c0 .2.2.3.2.3l.3.2v.1c.2 0 .2.2.3.3a10.1 10.1 0 0 1 1.2 1.8l.1.7v.4c-.1-.2-.5-.4-1.1-.5l-.7-.1v.1l.2.3.8.8.4.3-.1.1v.2l1.4 1.3.9.7.3.3h.4l.4-.2v-1.3c0-1.8.5-7.1.8-9.4.3-2.2.4-2.4.9-3.4l.3-.7.1-.2h.7l.9.1.9.9a53 53 0 0 1 9 13.6c0 .2 0 .4.2.6l-.6-.6c-.1 0-.2.4-.5 3.6a47.5 47.5 0 0 1-2 9.6v1.5l-.1.1a22.4 22.4 0 0 1-.9 4.8c-.2 1.1-.6 2.3-1 3.5l-.3.7a55.2 55.2 0 0 1-5.5 10.3c0-.1.1-.2 0-.2l-.2-.2v-.1c.2 0 .1 0 0-.1h.1c.1 0 0 0 0-.1l-.1-.1-.1-.4v-.3l-.1-.6c-.1 0-.1 0 0 0v.1c-.1 0-.1 0 0 0h-.1l-.1-.4v-.4c-.2.2-.2.1-.3-1a1 1 0 0 0-.2-.5v-.1c.1 0 0 0 0-.1.2 0 .1 0 0-.2-.2 0-.2-.2-.2-.2v-.2c-.1 0-.2-.1-.2-.3 0-.2 0-.5-.2-.6v-.2c0-.1 0-.2.1-.1.1 0 .1 0 0-.1.1 0 0 0 0-.1l-.2-.4-.2-.6c-.2-.2-.3-.4-.2-.5l-.1-.2c-.1 0-.1 0 0 .1l-.1-.3c0-.3-.2-.6-.4-.8 0 0-.1-.1 0-.1.2.2.2.2.1 0v-.1l-.3-.4-.2-.5c0-.3-.1-.4-.2-.4l-.1-.2-.2-.4-.2-.3c-.1-.6-.2-.8-.3-.8l-.2-.3-.1-.3-.1-.2v-.2l-.3-.3c-.2-.1-.3-.3-.3-.4 0-.1 0-.2-.2-.3l-.1-.2c0-.2-.1-.3-.2-.3V-4909l-.1-.2c-.1 0-.2 0-.2-.2l-.5-.8-.3-.4c-.2-.4-.4-.7-.4-.5l-.1-.1c0-.2-.2-.3-.3-.3l-.1-.2-.1-.2-.2-.2v-.2c-.2 0-.4-.6-.4-.7l-.3-.5-.4-.6h-.1l-.2-.3c0-.1 0-.2-.2-.2l-.8-1.4a8.4 8.4 0 0 1-1-1.4v-.4h-.1s-.2 0-.2-.2l-.3-.6-.3-.6-.2-.1v-.2l-.4-.5c0-.2-.2-.4-.1-.5h-.1l-.3-.5-.4-.6a8 8 0 0 1-.5-1l-.4-.7-.2-.5-.2-.3-.1-.3c-.1 0-.2 0-.2-.2l-.1-.3h-.1a6 6 0 0 0-1-1.9l-.1-.3a4 4 0 0 0-.5-1.2l-.2-.6a22.8 22.8 0 0 0-1-2.3l-.3-.8a15.1 15.1 0 0 1-1.3-4.4l-.2-1v.1-.2l-.4.4-.3.4a2 2 0 0 1-.2-.6c-.2-.7-.2-.7 0-1h.5c.2 0 .7-.6.7-1h-.1c0-.2 0-.3-.2-.2-.3 0-.9-.1-1.2-.4-.2-.2-.5-.7-.7-1.3a8 8 0 0 0-.8-1.5l-.3-.4c.2-.2 1-.4 1.4-.4.2 0 .3-.1.3-.4v-.2c0-.2 0-.2-.2-.2-.2.1-.9-.2-1.3-.6l-.2-.2a6 6 0 0 1-.6-.8l-.1-.2-.6-1.3-.2-.6v-.1c-.2-.1-.8.3-1 .6 0 .3.3 1.2.7 2l.2.3.1.5c.1.4 0 .8-.2.8-.7 0-1.1-.3-1.7-.9a9 9 0 0 1-1-1.2l-.4-.7v-.4h-.1v-.1l-1.1.3s0 .5.6 2.3v1.5c-.1.2-.7-.2-1.2-.6a13.8 13.8 0 0 1-1.7-2.3c0-.3.3-.8.6-.8.2 0 .6-.7.5-.9v-.1c-.1-.1-.3-.3-.5-.3-.3 0-.8-.5-1.3-1l-.4-.4v-.2c-.4-.6-.4-1.5 0-1.7 0-.2.4-.3.8-.3h.7l.2.5c.2.3.4 1 .5 1.7l.3 1.2.1.1.3.5.2.1c.2.2.4.3 1.2.1 1-.2 1-.3 1-1l-.1-.4s-.1-.2-.4-.3l-.2-.2c-.2 0-.3-.2-.4-.3l-.3-.4a4 4 0 0 1-.7-1.2l-.3-.8c-.2-.3-.2-.4 0-.4l.3-.2c.1-.1.3-.1.7.1l.9.7.3.7.1.2.8 2.7c.2.3.3.4.6.4.5 0 1.6-.5 1.9-.8.2-.3.3-.8.1-.7l-.1-.2c-.5.3-2.2-1-3-2.1a2 2 0 0 0-.6-.7l-.2-.1c0-.1 0-.2.3-.2.2 0 .5-.2.6-.4.2-.2.3-.2.5 0l.5.2c.4 0 1.6-.6 1.6-.8 0-.1.1-.1.4 0 .3.3.4.3.7.3.4-.1.6-.5.4-.6l-.2-.1-.8-.3c-.4-.2-.5-.2-.5 0 0 .3-.2.3-1 0a4 4 0 0 1-.5-.4l-.3-.2-.5-.5-.4-.4.4-.1h.6a25 25 0 0 1 3 .2h1l.5-.2zm-6.3.1v.2s0 .2.2.3c.3.1.7 1 .8 1.5 0 .2 0 .2-.5.1-.6 0-.8-.3-1.4-1.2-.2-.5-.4-.6-.6-.6l1.3-.2h.2zm-1.8.3-.2.4.2.4v.4c.3.4.4.7.4.9 0 .1-.1.2-.3.2-.4 0-1.1-.6-1.1-.9l-.3-.5-.6-.3 2-.6zm-2 .6c-.2.1-.3.2-.3.8l.2 1.3c0 .4 0 .5-.2.5-.7 0-1.1-.3-1.4-1l-.3-.8 2-.8zm-2.5.8-.1 1.2v1.3h-.4l-.5-.3c-.3-.1-.7-.7-.9-1.3v-.3l.6-.2h.3l.3-.1.3-.1.4-.2zm-4 .4zm1.8.3-.3.4-.1 1.1-.1 1-.6-.1c-.6-.2-.7-.6-.6-1.5v-.3l.2-.2.4-.1 1.1-.3zm17.5 0zm-3.8.5.3.3-.3-.2.4.4c.5.4.7.4.6.2v-.2l-1-.5zm-2 .1h-.3c-.3.1-.3.2-.2.4 0 .2 0 .4.4.7.7.8 1 1.3 1 1.9 0 .4 0 .6.3.8l.3.3v.1c.2.3 1.4 0 1.7-.5l.3-.5c0-.2-.1-.3-.4-.4a6.3 6.3 0 0 1-2.3-2.1c-.3-.5-.5-.7-.8-.7zm-13.8.3-.3.4-.3.4-.1.6-.4.7c-.1.4-.2.4-.4.2l-.1-.3v-.7c.1-.2 0-.3 0-.4l.1-.5.9-.2v-.1l.6-.1zm-1.7.5-.4.7-.7 1.4c-.2.4-.3.5-.5.4v-1.7l.2-.2.5-.3.7-.3h.2zm18.7 0 .1.3.1.5.2.8v.1l.3.4.3.7c.2.4.3.4.5.4.5-.1 1-.8.8-1v-.2c-.2 0-.7-.5-1.3-1zm-12.4 1a30.3 30.3 0 0 0 .2 2.6c.1 1.2.1 1.3-.1 1.3-.6 0-.9-.3-1.3-1s-.5-1.6-.3-2.2c.2-.4.7-.6 1.3-.7h.2zm-8.4 0v.2l-.3.4c-.1.1-.2 0-.2-.2h.2c0-.2.2-.3.3-.3zm5.6.7c.4 0 .5.1.5.4 0 .2 0 .6-.2 1-.3.4-.3.7-.3 1.7v1.3c-.3.1-1.2-.3-1.5-.6-.2-.4-.3-2 0-2.7.2-.7.9-1.1 1.5-1zm-6.5 0-.4.7c-.2.1-.4.6-.5 1l-.4.6c0-.1 0-.8.2-1.3a5 5 0 0 1 1-1zm3.4 1.3h.3l.5.2-.2.6-.7 1.7-.3 1-.3-.4c-.4-.6-.7-1.2-.7-1.5l.6-1c.4-.4.5-.6.8-.6zm17.5 1c-.3 0-.3 0-.2.2l.2.5c.6.5.8 1 .8 2.1 0 .8 0 1 .3 1.2l.4.5v.1H16602.6c.4-.2.8-.6 1-1l.2-.4V-4945.2c0-.3 0-.3-.3-.2a1 1 0 0 1-.5 0 6.7 6.7 0 0 1-1.8-2c-.3-.6-.5-.7-1-.7zm3.2 0v.4l.2.5c.3.4.4.8.4 1.1 0 .3 0 .9.2 1.4.3.8.3.8.7.7 1.2-.2 1.3-.2 1.4-.6l.1-.5c0-.1 0-.2-.3-.2-.4 0-.6-.2-1.5-1.5-.6-.8-1-1.3-1.2-1.2zm-22.4.1h.2l-.4.8-.7 1-.3 1-.2.8-.1-.5-.2-1.2c0-.5 0-.6.3-1s1-.7 1.3-.8zm-2.5 1.7V-4946l-.3.4v-.2c0-.3.2-.5.3-.5zm11.4.3v.8c0 .4 0 1.3.2 1.8v1.2c0 .3 0 .3-.3 0a9 9 0 0 1-.7-1l-.8-.8c-.7-.2-.8-.3-.8-.9l-.1-.5.5-.3c.4-.2.9-.3 1.3-.3zm19 .4v.1zm-32 .3v.2c.1.3 0 .7-.3 1.2-.2.1-.3.4-.3.5l-.1-.1.3-1.2.3-.5zm9.7.1c.3 0 .3.4.1 1-.2.6-.1 1.7.2 3.2v.4c-.5 0-.7-.4-1.2-1.4-.8-1.6-1-2.3-1-2.5 0-.1 1-.6 1.5-.7h.4zm-2.9 1.6-.2.4a2 2 0 0 0-.2.7l-.2.7-.2.8-.2.7-.3-.7c-.4-.7-.7-2.1-.5-2.3l1-.2zm14.2.3c.2 0 .9 1.6 1 2.4 0 .3 0 .9.2 1.4l.1 1.4c0 .5 0 .5.5.6.3 0 .4.1.4.4l.3 1 .2 1.3v.5c-.2.2-.4.2-.8 0-1-.6-1.6-1.2-1.8-1.8a3 3 0 0 0-.6-.8v-.1l.5-.2.6-.4.2-.1c.2 0 .3-.2.2-.5 0-.3-.1-.6-.4-.9l-.4-.5-.6-.6a4 4 0 0 1-1.2-1.2l-.1-.3v-.2c0-.2 0-.3.6-.5.5-.2.8-.4.8-.6l.3-.3zm-18 .7c.6 0 .8.3.7.8l-.3.9-.3.5-.9-1.5c0-.3.5-.7.9-.7zm13.3 1.2h.5c1 .2 1.3.4 1.3.8 0 .2 0 .7.2 1.1l.4 1.2.1.5c0 .4-1-.2-1.6-1.1l-.8-1.2-.4-.6v-.5l.3-.2zm-3.3.8a3 3 0 0 1 1.3.2v.2c.3.1.4.3.4.6l-.1 1.5v1.2l-.4-.1c-.6 0-.7-.2-.7-.8 0-.3-.1-.5-.3-.6-.4-.3-.8-.7-.9-1l-.2-.6c-.2-.3.3-.5 1-.6zm-1.9 1v1.1l.1 2 .2.9c0 .2-.1.2-.7 0a2 2 0 0 1-1.2-1.3 22.1 22.1 0 0 0-.6-2.1c0-.3.8-.5 1.5-.6zm53.2 1a53.2 53.2 0 0 1 1.4.4l.5.6a43.8 43.8 0 0 1 5.2 29l-.1.5a44 44 0 0 1-.8 4l-.2.6v.1l-.1.5-.1.3-.2.6-.2.6v-.1l.6-2.7a37.3 37.3 0 0 0 .6-2.3v-.3l-.6 1.7-.5 1.2a46 46 0 0 1-1 2.6l-.3 1-.4.7-.6 1.1a89 89 0 0 0-1.8 2.6l-.5.6c0 .1 0 .1-.2 0l-.3.3c0 .2-.2.4-.3.4l-.2.1-.2.1c-.1 0-.2 0-.1-.1 0-.1 0 0-.2 0-.2.3-.4.4-1 .5h-.2l-.1.2a5 5 0 0 0-.5 0h-.2l-.1-.2h-.2v.4c-.2-.2-.5-.3-.7-.3v.1l-.1.1v-.2h-.2l-.4-.1c-.2-.2-.2-.1-.1 0v.2h-.1c-.4-.3-.6-.3-.5-.1h-.7l-.2.1v-.2l-.1-.2v.4l-.1-.1c-.2-.2-.2-.2-.2 0s0 .2-.2.1a.3.3 0 0 0-.4 0c-.3.2-.8.1-.7 0 0-.1 0 0-.1 0l-.3.3h-.1c.2-.2.2-.2-.1-.2-.2 0-.4 0-.4.2h-.5c0 .2-.2.2-.4.2l-.3.3h-.3c-.1-.1-.2-.1-.1 0v.2h-.1c-.3-.3-.8-.4-.8-.1l-.1.2h-.1c.1-.2 0-.2-.3 0-.2 0-.3.2-.2.3l-.3.1-.3.1c0 .1 0 .2-.2.2s-.3 0-.4.2c0 .2-.2.3-.3.3-.2 0-.3.2-.4.3 0 .2 0 .2-.2 0h-.2v.2h-.5l-.1.2-.2.1v-.4l-.2.4v.2c-.1 0-.3 0-.4.2-.2.3-.4.2-.3 0v-.3c-.1 0-.2.2-.1.4 0 .2-.2.3-.3 0-.1-.1-.3 0-.3.1l-.3.3h-.2v-.1c0-.2 0-.2-.1 0h-.1v-.2c.2 0 .3-.2.2-.2l3-5.7c1-1.6 1.3-2.5 2-3.8l2.2-4.1c2-4 3.6-7.5 4.8-10.8l.8-2.3v-.1l-.2-.7h.4l.1-.2.2-.5.4-1.5a66.4 66.4 0 0 0 2-11.6 108.2 108.2 0 0 1 1.3-7zm-14.4 47.6h.1zm10.8-2.8zm-30.3-44c-.2 0-.2.2-.1.3l.2.4c.2.1.3.1.4 0 0-.3-.3-.6-.5-.6zm-23.7.3c.8 0 .8 0 .7.2l-.3.7c-.1.7-.2.7-.5 0-.3-.9-.3-1 .1-.9zm11.9.7c1 0 1 0 1 .4V-4935.6a5.3 5.3 0 0 1 .2 1.9c0 .2-.1.3-.2.3-.3 0-.8-.6-1.2-1.3l-.8-1.2-.3-.5c0-.2.6-.4 1.3-.4zm-15.3.4c.4 0 .5.1 1 .7l.3.9-.2.4-.5-.7-.6-1c-.2-.3-.2-.3 0-.3zm12 .9v.1h.3l.2.1c.2.3.4 1 .5 1.9v1.5c-.3 0-.8-.3-1.4-1.2a21 21 0 0 0-1-1.4l-.3-.6 1.7-.4zm-4.4 1h1.6v3.8l-.6-.9-1.3-1.4c-.4-.4-.7-.8-.7-1 0 0 .1-.2.4-.3l.6-.2zm12.6 1.5c0 .1 0 .3.3.2.4 0 .4 0 .3.4v1.4l-.2 1c-.3 0-.9-.5-1.2-1-.3-.6-.5-1.3-.3-1.3l.7-.6H16600.3v-.1zm-15.1.5s0 .2-.2.3c-.2.2-.2.2-.2 0s.2-.4.4-.3zm-5.8 1c.3 0 .5.1 1.4.6 1.2.8 1.3.9 2.5 2.5.9 1.2 1.6 2.4 2.4 4l1.3 2.6a74.4 74.4 0 0 1 3.4 8.9l.6.1h.6l-.1.9c-.2.5-.3.6-.4.6-.3-.1-.2.3.4 2.3l1 3.1a144.7 144.7 0 0 0 4 13.2v-.5h-.3l-.1.1c0-.2-.3-.7-.5-.6l-.1-.1s0-.1-.1 0c-.1 0-.2 0-.2-.2h.2c.4 0 .4 0 0-.2l-.6-.2v-.1c0-.2 0-.2.2 0 0-.3-.4-.5-.5-.4v-.1c.2-.2.2-.3-.2-.5l-.6-.3.1-.5c.1 0 0-.1 0-.2h-.4l-.6-1.2h-.1c-.1 0-.2 0-.1-.2 0-.2-.3-.6-.5-.4v-.2c.1-.1 0-.2-.1-.2-.2-.1-.2-.1 0-.1s.2 0-.1-.4l-.4-.5v-.1c-.2 0-.2 0-.2-.2s-.1-.3-.2-.3l-.2-.1s0-.3-.2-.5l-.3-.5-.1-.1h-.1c.1-.1 0-.3-.3-.8-.3-.3-.4-.6-.4-.7l-.2-.3-.2-.3c-.2-.1-.2-.1 0-.1l-.1-.2-.3-.3v-.2c-.2 0-.2 0-.2-.2 0 0 0-.3-.2-.4l-.6-.8c-.3-.9-.5-1.2-.6-1.2l-.1-.3c-.2 0-.2-.2-.2-.3 0-.1 0-.1 0 0l.2.1-.3-.4-.3-.4-.3-.9-.4-1s0-.2-.2-.3a.4.4 0 0 1-.2-.4v-.2l-.1-.1-.1-.4-.2-.5c0-.2 0-.2-.2-.1v-.2l-.1-.4c-.1 0-.2-.1-.2-.3v-.5a2 2 0 0 1-.3-.5v-.2l-.1-.2-.1-.3-.2-.6-.2-.5v-.1l-.2-.4c0-.2 0-.5-.2-.6l-.1-.4-.3-.3c0-.1 0-.2.1-.1.1 0 .1 0 0 0-.1-.3-.5-1.4-.6-2.2a2 2 0 0 0-.2-.5v-.3l-.1-.3c-.1 0-.2 0-.2-.2l-.4-1.5-.2-.6a41.8 41.8 0 0 0-2.4-7.4l.1-.3.5-.3h.1zm17.4.2h.4l.5.2c.3 0 .3 0 .4 2.2 0 1 0 1.2-.7 1a5 5 0 0 1-1.7-1.9v-.7c0-.4 0-.5-.2-.4h-.2c.1-.2 1-.4 1.5-.4zm-3.4.8c1.1 0 1.2.1 1.2 1a25.7 25.7 0 0 0 0 2.6l-.8-.6-.5-1c-.2-.4-.6-1-.9-1.2-.6-.7-.5-.8 1-.8zm-4 1.1 1 .1h.3c.2 0 .2.2.2.7v2.3c0 .4-.5.3-1.3-.5-.5-.5-.9-1-1-1.4-.3-.7-.3-.7 0-1l.8-.2zm-2.7 1.7c.4 0 .4 0 .2.7 0 .3-.2.5-.3.5l-.4-.5c-.3-.5-.2-.7.5-.7zm14.4.2.2.9a22.5 22.5 0 0 0 .2 2c-.1.2-.7-1-.9-1.7-.2-.8-.2-.8.1-1l.4-.2zm-3.1.8c.8 0 1.5.3 1.4.8l.1.6c.3.4.4 1.5.3 1.9-.2.6-1.3 0-2.1-1.1l-1.1-1.8.6-.3.8-.1zm-3.7 1H16595.7c.2.2.4 2.6.4 3-.1.8-.4.8-1.1 0-.6-.5-.7-.6-.4-1 .3-.3.3-.5-.3-1-.4-.6-.4-.6-.2-.9l.3-.2zm-29.4.5.6.4c.3.3 1 1 1.7 2 .8 1 1.6 2 2.2 3a13.2 13.2 0 0 0 .5.8h.1c0 .1.1.2.3.2h.1l1.3 2.3c.9 1.3 1.1 1.8 1 2h-.3.1c.1 0 .2-.1.1-.2h-.2.2c0-.1-.2 0-.4 0h-.2V-4915c-.2 0-1.2-1-1.2-1.1l-.3-.5a41 41 0 0 1-3.5-5l-1-1.2-.6-.8h-.2v-.2l-.2-.3-.1-.8zm113.2.4.6.1.3.1.4.2-.1.1a1 1 0 0 0-.2.6c0 .1 0 .3-.2.3v.4c.3.2.8 0 1-.2l.1-.2s-.1-.2-.3-.2c-.2 0-.2-.2-.2-.5v-.3l.4.2h.4c.3.3.6.3.8.3l-.3.5-.1.1-.5.7c0 .2 0 .4-.2.7l-.5.5h-.2l-.5-.4c-.4-.2-.5-.2-.4-.6v-.2h-.2c-.3.4-.9 1.6-.7 1.7H16679.3v.5c.1.3 0 .5-.3 1.1a4 4 0 0 1-.4.6c-.3 0-1-.6-1.1-1-.2-.2-.2-.4-.1-.7.1-.3.1-.3-.2 0-.3.2-.5.6-.7.9 0 .2-.2.3-.3.4-.2 0-.9-1.3-1-1.6 0-.3 0-.2-.3 0l-.7 1c-.1.3-.7 0-1-.5l-.2-.4.2-.3c.3-.3.4-.3 1.5-.3a41.8 41.8 0 0 0 2.5 0c.2 0 0-.4-.3-.7-.3-.2-.4-.3-.4-.7 0-.5-.2-.5-.5-.1v.1l-.4.6-.1.1-.3-.3a.8.8 0 0 1-.1-1l.2-.1.2-.2v-.8h.1l.8-.1-.3.3-.4.4v.2l1.2.3h.7c.4.2 1 .1 1 0v-.1c0-.2 0-.4-.3-.6l-.3-.6v-.1l-.4.3-.5.5-.3-.3-.4-.3.7-.2 1-.2zm-2.8.5-.4.3c-.3.4-.5.4-.8.3l.5-.5.7-.1zm-82.8.2v.6a45.9 45.9 0 0 0-.1 2.4c-.2.3-1.2-.3-1.5-.8-.4-.6-.7-1.8-.5-2l1-.1zm88.7.2.6.1.4.2h.4l-.2.3v.1c-.3.6-.2 1.1 0 1 .4-.2 1.2 0 1.3.1l.2 1.6v1.4l1 .2c.5 0 .6 0 .7.3 0 .2.2.3.3.3l.5.2c.3.2.7.3.7 0h.2v.3c0 .2 0 .4.3.6.4.3.8.3 1 0v-.1c.1-.3 0-.4-.4-1-.6-.7-.7-.7-.9-.5 0 0-.3.1-.4 0-.3 0-1-1-1-1.4 0-.2 0-.1-.2.2l-.2.4-.4-.2c-.3-.2-.4-.4-.5-1l-.4-.8v-.1h.6c.3 0 .4 0 .6.5.3.6.4.6.6.3.2-.3.1-.4-.3-.9l-.6-.4c0 .2-.3.1-.6-.2l-.3-.6-.1-.3h.1a1.4 1.4 0 0 1 .7.5l.7.8c.3.3.5.5.9.6.4.1 1.2.7 1.8 1.5l.8 1 .3.8c0 .2 0 .3.2.4 0 .2.2.3.3.4l.5.5.3 1.1v.2l-.4-.4-.5-.5s-.1-.2-.3-.2a2 2 0 0 1-.4-.2l-.2-.1h-.1v.2c-.1.2.1.7.4.7.2 0 .4.2.5.5l.2.5c.2.2.4.2.7 0v-.3l.2-.2.1.8h-.1l-.3-.2v.5l.2.2v.4c0 .2 0 .4.2.6l.2 1.3v.7l-.3-.1h-.3v.4c.2.5.4.5.6.1v-.3.2l.1.1.3.2.3-.1.3-.3a5 5 0 0 1 1.5-.6l.2.1.4.3c.3.3.5.5.7 1l.6 2.2c.4 1.9.6 3.6.7 6l.1 2.9 3.3-2.9a58 58 0 0 1 3.4-2.6l.5-.2.4.4.5.5v1.6c-.1 2.3-.7 4.8-1.7 7.4a11 11 0 0 1-1 1.7c0 .2-.4.5-.7.8l-.3.3-1.6 1.3-1.8 1.2-.6.3a48.8 48.8 0 0 1-9.2 4 23.4 23.4 0 0 1-6.3 0h-.3l-.7-.2a19.6 19.6 0 0 0-4 0c.1-.1-.4 0-.6.2h-.3c0-.1-.1-.2-.2-.1-.1 0-.3 0-.5-.2h-.3l-.3-.2c0-.2 1.1-1 3.2-2.2l.7-.6.3-.4v-.4c.1 0 0 0 0 0l.1-.1c.1 0 .1 0 0-.1-.2-.1-.2-.3-.1-.4v-.9c.2 0 .2-.2.2-.4v-.4c.1 0 .1 0 0-.2v-.5c.1 0 .1 0 0-.2-.1-.3-.1-.3 0-.8V-4895c.2 0 .2-.1 0-.1v-.5a.3.3 0 0 1 0-.5v-.2c-.1 0-.2-.2-.1-.3 0-.2 0-.7-.2-1.1a26.8 26.8 0 0 1-.4-2.5 15.7 15.7 0 0 1-.4-2l-.1-.5-.3-2.5v-5.2a17.5 17.5 0 0 1 1.2-5c0-.3.2-.5.3-.7.2-.5.3-.8.2-1v-.4h.1c.2-.1.4-.2.6-.1h.8c.3 0 .5.1.5.2 0 .3.5.5 1 .4h.8c.1.2.3.2.5.2.1 0 .2 0 .3.2 0 .2.1.3.5.4.3 0 .6.2.8.3.1.1.3.2.4.1.1 0 .2 0 .2.2 0 .3.5.6 1 .7.4 0 .5 0 .7-.3v-.2c.3-.3.3-.3 0-.6-.5-.4-1-1-1-1.5v-.4.3-.2l-.2.4-.1.4h-.4c-.3 0-1-1.2-1-1.6 0-.3-.3-.4-.4-.2v.1c0 .3-.1.4-.3.8l-.3.3c-.4 0-.8-.4-1.2-1.2l-.3-.7-.1.1-.3.4-.1.3h-.4c-.6 0-1-.3-1-.8 0-.3 0-.5.2-.8 0-.2.2-.4.3-.4.4-.1 1.3.2 1.6.5.1.1.5.3.8.3l.5-.1c.2-.1.1-.4-.4-.8-.4-.4-.5-.5-.5-1v-.4l-.1.2c-.1 0-.2.1-.2.3l-.1.4-.6-.1c-.5-.2-.8-.7-.6-1 .2-.3.5-.5.9-.4.2 0 .3 0 .4-.2.1-.2 0-.3 0-.4l-.5-.3zm1.6.4a4 4 0 0 1 1 .2l-.1.4-.1.3-.4-.2c-.3-.2-.4-.4-.4-.6v-.1zm-9.4.3c0 .1.2.2.5.2h.5l-.4.4c-.3.4-.6.6-.7.6-.1 0-.3-.7-.2-1 0 0 .2 0 .3-.2zm-.6.4-.4.4c-.6.7-1 .8-1.1.3l.8-.4c.2 0 .5-.1.7-.3zm-84.1 0 .1.2c.1.1 0 .7-.2 1.2l-.3 1-.3-.4c-.5-.6-.8-1.2-.8-1.5 0-.2.1-.2 1-.4h.5zm13.2.4.3.7.1.8-.6-1.2.1-.3h.1zm-2.2.7h1c.2.3.5 1.5.5 2.4 0 1.2-.1 1.3-.7.7l-.8-1.1-.7-.9c-.3-.3-.4-.7-.2-1l.9-.1zm70.5.3a3 3 0 0 1-.4.5c0-.2.2-.3.2-.3l.2-.2zm16.7.3-.3.1v.3c0 .2 0 .5.2.6l.4.2.3-.1c.1 0 .2 0 .1-.2.2-.1-.3-.7-.7-.9zm-16.1.3.6.1h1.1l-.2.4c-.5.6-.7.7-.7.6v-.3c0-.7-.3-.7-.8 0a132.1 132.1 0 0 1-.9.9v-.8l.1-.7.8-.2zm-74.7.1c.8 0 1.5.4 1.3 1v1c.2.4.2.9.1 1 0 .7-.3.6-1.6-1a7 7 0 0 1-1-1.4l.4-.4.8-.2zm-4.2 1.1h.6c1.2.2 1.2.1 1.2 2l-.1 1.6c-.3 0-.6-.3-.8-.8a9 9 0 0 0-1-1.3l-.7-1 .4-.3.4-.2zm76.3.6c-.4.4-.5.5-.6.3l.4-.2h.2zm-2.9 0 .3.5.4 1.2v.8h.5l-.3 2.3a41.1 41.1 0 0 1-2 8.9c-1 3.9-1.2 4.8-1.7 7.4v.1a4.7 4.7 0 0 1-.6 1.5l-.2.2v-.5h.1v-.3c-.1 0-.2-.2-.1-.3v-.2s-.1 0 0 0v-.2l-.2-.4v-.5l-.1-.3v-.5c.1-.2 0-.3 0-.4h-.1V-4900.9l-.2-.2v-.1c.2 0 .2 0 0-.1.1 0 .2 0 0-.2v-.6l-.1-1-.3-3a36.8 36.8 0 0 1 1-6.9l.4-1 .2-.7.3-.7a320.2 320.2 0 0 0 1.4-3.1l.1-.2.9-.3zm7.2.4h.4c.6.3 1 .6 1 .8l-.2.1-.4.6-.4.5c-.2 0-1-1.2-1-1.5.1-.3.3-.5.6-.5zm-1.7.3.4.3v.2l-.2.3-.4.3v-1h.2zm6.7.2c.4 0 .9.3.9.6l-.1.2-.3.5-.4.5c-.2 0-1-.6-1-.8h-.1c0-.5.2-.9.5-1h.5zm-2.4 0c.6 0 1 .2 1 .5l-.1.1a4 4 0 0 0-.4.6c-.1.3-.3.5-.4.5-.2 0-.9-.8-1-1.2 0-.3.2-.4 1-.4zm-6.2.3h.7l-.3.6-.5.8-.1-.5-.1-.7v-.1h.3zm-79.3 0v.6c-.2 0-.3-.4-.2-.5h.2zm11 1 .8.1.8.2v.4l.2.9c.2.2.2.7.2 1.2v1l-.7-.4-1-.5c-.2-.2-.5-.6-.9-1.6a4 4 0 0 0-.3-.7c-.1-.1 0-.3.3-.4l.6-.2zm56 .4.1.1c.1.2.2.6.3 2.2v2.6l-.6.9-1 1V-4910.4c0-1 0-2.3.3-3.2l.4-2.3.4-.3h.2zm31 .1-.3.9v.1a2 2 0 0 0-.2 1c0 .3.2.5.7.6.5.1.6.2.8.7.1.3.4.5.5.6l.3.2c0 .3 0 .5.3.6l.4.2.5-.4.4-.3c0-.1-.2-.4-.5-.6l-.6-.6c0-.1 0-.2-.2-.2s-.6-.5-.6-.9c0-.1-.1-.4-.4-.5l-.7-.8-.3-.6zm-4.5.3-.2.4-.2.6v.2l.4 1c.4 1 .5 1 .8 1 .2 0 .4 0 .5-.3l.2-.6c0-.1 0-.2-.2-.2-.3 0-.7-.4-.9-.8v-.4l-.2-.7-.2-.2zm-85.1.5c.4 0 .5.1.7.7l.3 1.6c.1 1 0 1.2-.5 1-.6-.3-2.2-2.2-2.2-2.8 0-.3 1-.6 1.7-.5zm73.6.2c.4 0 .9.1 1.1.4l.2.3v.1l-.6.6-.3.3-.5-.7c-.3-.3-.4-.5-.4-.7l.2-.2h.3zm2.6.2c.3 0 .5 0 .7.2l.1.3c0 .1 0 .3-.2.5l-.4.5-.7-.4-.5-.4.2-.3c.3-.3.5-.4.8-.4zm-4.1.2.2.2-.1.3h-.1c-.2.2-.3.2-.4 0v-.3l.4-.2zm-2 0c.3 0 .3.4.2 1-.3 1-.6.9-.6-.2v-.5l.2-.2.3-.1zm8 0c.3 0 .5 0 .6.2l-.2.6c-.4.6-.6.7-.7.3l-.2-.5v-.4l.5-.1zm-80.8.4-.1.6c0 .5 0 1 .3 2.7 0 .4-.2.5-.7 0-.5-.4-1.7-2.8-1.6-3l1.1-.2zm89.7 1c-.1 0-.5.7-.5 1 0 .2.3.4.6.5.8.4.8.4 1 0l.2-.4c0-.2 0-.3-.2-.2-.2 0-.4-.1-.6-.4l-.5-.5zm2.1.2c-.2 0-1 1.8-1 2v.1c.1.2 1.3.6 1.4.5l.1.2c0 .5 0 .7.4.9l.4.2.4-.4.3-.3v-.1l-.4-.5c-.4-.4-.5-.6-.4-.7 0-.2 0-.4-.3-.6-.3-.2-.5-.6-.6-.8l-.3-.5zm-15.9.7c.2 0 .3.2.5.4l.3.4-.3.4-.3.6c0 .2-.3.2-.6 0-.2 0-.3-1-.2-1.5l.2-.2c.2-.1.3-.1.4 0zm-66.4.2c.1 0 .2 0 .2.2l-.4.1c-.4 0-.4 0-.2-.2l.4-.1zm68.3.1.6.3c.5.3.6.5.4.8l-.3.6v.1h-.1c-.1.2-.4.2-.6 0-.5-.2-.7-.8-.6-1.3l.3-.4h.3zm-70.6.3h.6c.8.2.7 0 1 2.2v1.4c0 .2-.1.1-.5-.5l-.8-.8c-.6-.2-1.5-1.1-1.5-1.5 0-.4.6-.7 1.2-.8zm64.7 0 .3.3s.1.2 0 .4l-.1.5c-.3.3-.3.2-.4-.2v-.8s0-.2.2-.2zm1.7.2c.5 0 .5.2.4.5v.1l-.4.4s-.2 0-.3-.3v-.1c-.1-.1-.2-.2-.1-.3 0-.2.2-.3.4-.3zm6.2 0v.1c0 .1 0 .1-.1 0v-.1zm9.4 0h-.1c-.1.1-.2.3-.1.5v.5c.2.2.3.1.3-.2v-.7zm-85.2 1.2h1l-.1.6.1 1.2.2.4-.4-.4-.8-.4-.4-.2h-.3l-.4-.3c-.4-.4-.4-.4-.1-.6.2-.3.4-.3 1.2-.3zm86.9.4zm0 0zm0 0c-.2.4-.8.5-1 .4-.3-.2-.4-.1-.4 0 0 .2 0 .4.3.8.2.6.4.8.7.8l.5.2c0 .2.3.2.8-.3.3-.3.4-.4.3-.5 0-.1 0-.2-.2-.2-.3 0-1-.8-1-1v-.2zm3.3.4-.4.1c-.2 0-.3.2-.3.4v.6c.1.3.5.2.8-.2l.2-.3v-.4l-.3-.2zm-94.1.1.8.3c.5.3.5.3.5.8v.5l-.2-.3c-.4-.3-1-.6-1.6-.7-.7-.1-.8-.4-.3-.5.3 0 .5-.1.8 0zm75 0c.2 0 .6.3.7.5l-.3.8-.5.8-.3-.3c-.2-.2-.3-.4-.3-1v-.6l.3-.2h.3zm2.1.3c.2 0 .4 0 .6.2.2.1.4.2.4.4l-.2.2-.1.2-.3.5-.2.4c-.2.2-.2.2-.6-.2-.4-.3-.5-.5-.5-.9 0-.6.4-.9 1-.8zm-4.2.1h.1l.2.3v.2l-.1.3c-.4.5-.5.5-.5-.2 0-.3.1-.5.3-.6zm-2 .5c.2 0 .4 0 .5.3v.2l-.3.4-.5.6v-1.2l.1-.3h.2zm21 .7c-.2 0-.3 0-.4.2v.1c-.1.4 0 .9.4 1 .4.2.4.2.6-.2l.1-.3c0-.2 0-.3-.2-.5a1 1 0 0 0-.5-.3zm-95 .7.2.1c0 .3-.1.3-.2.1v-.2zm11.6.5c.3 0 1 .1 1.1.3.3.3.1.4-.2.1l-.7-.1-.4-.2h.2zm64.7.4h.6c.6 0 1 .2 1 .5 0 .1 0 .2-.2.3a2 2 0 0 0-.4.6c-.3.8-.8.4-1-.8zm2.5.1c.5 0 1.1.2 1.3.7l.1.2-.3.4-.3.5c-.2.2-.2.2-.4 0l-.5-.3c-.2 0-.3-.3-.3-.6v-.7l.4-.2zm-4 .2c.2 0 .3 0 .4.2l.1.3c0 .2 0 .3-.2.4-.4.4-.6.5-.6 0s.1-1 .4-1zm-1.6 0c.1 0 .3 0 .4.3l.1.3s0 .2-.2.3a2 2 0 0 1-.5.5l-.2-.5c-.1-.6.1-1 .4-1zm21.2.3h-.2l-.1.4c0 .3 0 .3.1.2l.2-.4v-.2zm-18.5 2.3c.3 0 .7.2.9.5l.2.3-.2.3c-.3.4-.4.4-.5 0l-.5-.4a.7.7 0 0 1-.4-.4s.1-.2.3-.2h.2zm2.3.2c.4 0 .7.2.9.5l.2.3-.3.6c-.4.6-.5.8-.6.4l-.1-.6c0-.2-.2-.4-.4-.5a.5.5 0 0 1-.2-.3c0-.1 0-.2.2-.3h.3zm-4 0 .4.5-.3.4-.3.4v-.6l.1-.7zm-2 .3c.3 0 .4.6.2 1 0 .3-.2.5-.2.5-.2 0-.2-.3-.2-.9v-.5h.2zm8 0v.5l-.2.5c0 .1-.2 0-.2 0 0-.3.3-1 .4-1zm-8.6 3c.1 0 .2 0 .2.2v.5l-.4.5c0 .2-.2 0-.4-.5l-.1-.2v-.2c0-.2.1-.2.4-.3h.3zm-105.5 1.3zm191.2.7 1 .2c.8.5 1.5 1 2 1.8l-13.5 11.2-.1.2-12.6 10.4c-1 0-2-.1-2.6-.4-.7-.9-1.4-1.7-2.3-2.5-.1-.7 0-1.5.1-2.3.4-1.5 1.4-3 2.7-3.8 1.2-.9 2.7-1 4.5 0a.5.5 0 0 0 .7-.7 4 4 0 0 1 0-3.6 6.8 6.8 0 0 1 6.4-3.6c1 .2 2 .8 2.5 2a.5.5 0 0 0 1-.1c-.1-2.7.5-4.4 1.7-5.7 1.1-1.2 2.9-2 5.3-2.5l2.2-.5h1zm-155.3 2.7.2.1c.1.2 0 .2-.2 0-.1 0-.1-.1 0-.1zm113.1 2.4v.1c.3.3.5.5.5 1v1.8c-.2 3-.9 6.2-1.9 9h-2l-1.6.2 3-8.4a344.7 344.7 0 0 0 2-3.5v-.2zm61.3 3.4 11.7 2.6-11 51.3 8 1.8-2.3 10.9-8.1-1.8-3.8 17.5-13.4-3 3.8-17.4-33.7-7.3-4-10.8 9.7-8 23.4-19.3h-.2zm-144.9.1-.1.2.1-.2zm142 15.4-36.7 30.1 28.9 6.3zm-41.2.7h.7l-.5.4-.2-.4zm-70.4 6.7a50.9 50.9 0 0 1 7.4.7c2.3.4 4.4.9 6.4 1.6v7a29.2 29.2 0 0 0-6.3-1.8c-2.2-.5-4.5-.7-7-.7-5.8 0-10 1.6-12.4 4.7a22 22 0 0 0-3.6 13.5c0 5.6 1.3 9.8 4 12.7 2.6 2.8 6.6 4.2 12.2 4.2a33 33 0 0 0 13.2-2.3v7a39 39 0 0 1-13.9 2c-7.8 0-13.6-2-17.7-6.3-4-4.3-5.9-10-5.9-17.3 0-5.1.9-9.6 2.5-13.3 1.7-3.7 4.3-6.6 7.8-8.6s7.9-3.1 13.3-3.1zm-61.5.7 2.6.1c2.4.3 4.6 1 6.3 2 2.4 1.3 4 3.2 5.2 5.6 1.1 2.3 1.7 5 1.7 8a15 15 0 0 1-4.4 11.3 16 16 0 0 1-11.7 4.3h-12.8v15.9h-8v-47.2zm22.2 0h8v47.2h-8zm61 0h8v25.7l16.7-21.3v.1l3.5-4.4h7.4l-10.9 13.7-4.6 5.8 17.8 27.7h-8.5l-13.8-22-7.7 9.8v12.2h-8zm-96.3 6.2v18.8h11.3c3.2 0 5.6-.9 7.2-2.5a9.3 9.3 0 0 0 2.4-6.8c0-3-.8-5.3-2.3-7-1.5-1.6-3.8-2.5-6.9-2.5zm75.3 58.6c3.4 0 6 .9 7.6 2.6 1.7 1.8 2.5 4.6 2.5 8.5 0 3.7-.8 6.5-2.5 8.3-1.6 1.8-4.2 2.6-7.6 2.6-3.4 0-5.9-.8-7.6-2.6-1.6-1.8-2.5-4.6-2.5-8.3 0-3.9.9-6.7 2.5-8.5 1.7-1.7 4.2-2.6 7.6-2.6zm-21.4.4h3.7v21.3h-3.7zm37.2 0h3.6l3.6 16 4-13.5v-2.5h3l4.5 16 3.7-16h3.5l-5 21.3h-3.5l-4.2-15-4.6 15h-3.6zm38 0h4l8.1 21.3h-3.7l-2.1-5.5h-8.6l-2.1 5.5h-3.8zm-53.8 2.7c-2.2 0-3.8.6-4.9 1.8-1 1.2-1.5 3.2-1.5 6.2 0 2.8.5 4.8 1.5 6 1 1.3 2.7 1.9 5 1.9 2.2 0 3.8-.6 4.8-1.8 1-1.3 1.6-3.3 1.6-6.1 0-3-.5-5-1.6-6.2-1-1.2-2.6-1.8-4.9-1.8zm55.8.5-3.7 9.8h7.4z" style="color:#000;fill:url(#b);fill-opacity:1;stroke-width:2.45097;stroke-linecap:round;stroke-linejoin:round;-inkscape-stroke:none;paint-order:fill markers stroke" transform="translate(-16556.5 5063.8)"/></svg>