<svg xmlns="http://www.w3.org/2000/svg" xmlns:xlink="http://www.w3.org/1999/xlink" xml:space="preserve" width="945" height="1159" viewBox="0 0 250 306.7"><defs><linearGradient id="a"><stop offset="0" style="stop-color:#d49f71;stop-opacity:1"/><stop offset="1" style="stop-color:#ff9604;stop-opacity:1"/></linearGradient><linearGradient xlink:href="#a" id="b" x1="16330.5" x2="16542.8" y1="-1431.7" y2="-1678.4" gradientTransform="translate(246 -1771)" gradientUnits="userSpaceOnUse"/></defs><path d="M16701.5-3484.8c-29.8 0-57 10.3-78.5 27.6l-1 .8-.2.2a124.9 124.9 0 0 0-26 29.7c1.1.9 2.5 1.7 4.3 2.3l2.5 1.1.2.2-1 .2.4-.5-2.1-1c-1.8-.6-3.2-1.4-4.4-2.3a124.2 124.2 0 0 0-14.3 31.8v11.1-11.1c-3.2 11-5 22.7-5 34.8v19.3c0 12 1.8 23.7 5 34.8v-77.7V-3305.8l1.4 4.5.5 1.5a15.2 15.2 0 0 0-6.8 12.7v47.2c0 3.5 1.2 6.8 3.3 9.4a241 241 0 0 0 12.3 12.4c2.7 2.6 6.4 4.2 10.3 4.2h8c1 0 2.1-.2 3.1-.5v13.9a13 13 0 0 0 3.6 8.8 269 269 0 0 0 10.2 10.1c2.2 2 5.1 3 8.2 3h3.7l127.9.4c5.6 0 12.3-1.7 17-6.7a24.3 24.3 0 0 0 6-18l.7.2a15.2 15.2 0 0 0 18-11.7l1-4.4c5.5-1.4 9.8-5.8 11-11.3l2.4-10.9c1.2-5.6-.9-11.3-5.3-15l8.2-38.1c1-4.6-.2-9.2-2.9-12.6l-1.1-1.3c2.8-10.3 4.4-21.2 4.4-32.5v-19.3a128 128 0 0 0-6.2-39c-3-9-6.9-17.7-11.7-25.7h-1.6 1.6a125 125 0 0 0-18.5-23.7c-1.6-.3-3.2-.6-4.6-.7h-.9l-.4.1c.2 0 .3 0 .4-.2h.9l4.6.8-1.4-1.3-3.2-.5 3.2.5a124.6 124.6 0 0 0-87.2-35.3zm0 7.1c29 0 55.4 10.4 75.9 27.7-3.7.5-8 2-10.5 3.4a54.2 54.2 0 0 0-7.7 7 98 98 0 0 0-104.9-6.7c-.5-.3-1-.5-1.6-.6l-2.4-.2c-1.2 0-1.8 0-5.2.5-3 .5-4.1.4-8.3-.2l-1.7-.3h-.3l-.1-.2c-.4-1.1-1.6-2.5-2.9-4a33 33 0 0 0-2-2 117.3 117.3 0 0 1 71.7-24.4zm-79 21.4v.1h.2-.1zm.3.2zm78.7 1.6c20.7 0 39.9 6.7 55.5 18a10.2 10.2 0 0 0-1 3.5h-1c-2-.1-4 .2-6.5 1l-1.3.4h-.2a29.1 29.1 0 0 0-15-15 51.8 51.8 0 0 0-15.3-5c-2-.2-5.2-.1-7.5.2-3.6.5-6.6 1.3-8.4 2.2-1.7.9-4.3 3.3-5.5 5a12.6 12.6 0 0 0-1.6 8.8c0 .6.2 1 .5 1.6h-1.9a63.3 63.3 0 0 1-7.5-.6c-1.3-.3-2.3-.6-3.6-1.2-2-1-3.1-1.4-4-1.7-.5-.3-.8-.3-1.1-.4h-.1l-.5-.2c-1.1-.1-2 0-3.3.3-1.2.4-2.7 1-5 2.2l-2.1 1.1-1-1-2.2-2c-.7-.5-1-.8-1.5-1.7a52.8 52.8 0 0 0-3.2-4.5c13.2-7 28.3-11 44.3-11zm-74 3 .2.2v.1-.1l.1.4.3.2.2.3.6.8v.2l.1.2v.3l.2.1v.1l-.2.2v.1c-.2 0-.3.2-.4.4h-.3l-.3.1v.2h-.1l-.2.3v.1h-.1c-.1 0-.3 0-.5.2l-.2.3v.1c-.2.2-.2.4-.2.5v.2l-.1.1-.1.3c-.3 0-.5.2-.5.5 0 .1 0 .3.2.4l-.2.3c0 .2 0 .4.2.5v1.3l.3.1v.2c0 .3-.2.6-.7 1.2l-.6 1-.3-.3V-3440.8l-.3-.2h-.2v-.7l-.5-.3-.1-.5-.2-.1v-.1c0-.3-.3-.6-.6-.6h-.2c0-.2-.3-.4-.5-.4s-.3 0-.4.2c0-.2-.3-.4-.5-.4h-.3l-.2.1h-1.1v.2a1 1 0 0 0-.5 0h-.7c2.8-2.9 5.8-5.5 8.9-8zm.6.7.2.1h-.2zm84.8.2c.2.2.4.2.5.2.1 0 .3 0 .5-.2l2.7.1a44 44 0 0 1 6.3 1.7l.3-.1a51 51 0 0 1 2.7 1h.2l.9.3c0 .2.2.4.5.4l.2-.1h.1c0 .3.3.5.5.5h.2l.5.2h.4c0 .2.1.3.3.3l.4.2h.2l.4.1c0 .2.2.3.3.3l.3.2.2.1.3.1.2.1c.1.2.3.2.5.2h.1l1 .5c0 .1.1.3.3.3.1.2.3.2.4.2h.1c.1.2.3.4.5.4h.1c.1.2.3.4.6.4l.5.2c0 .2.2.4.5.5l.4.4h.1c.1.2.3.3.5.3l.1.2.2.2v.1h.2l.3.1v.2l.2.1.1.2.1.1h.1c0 .1.1.2.3.2v.1l.1.2c.1.1.2.3.4.3 0 .2.2.2.3.3v.1l.1.1.3.3.3.4.2.2.1.1h.1v.3l.7.7c1 1.3.8 1 1.5 2.3a29.1 29.1 0 0 0 1.3 2.3c0 .3.2.8.4 1v.3l.2-.3c-.2.1-.2.3-.2.5l.1.2-.8.3c-1 .3-2.7.5-5.8.5h-2.2l-.2.1-.3.1v.1l-.1.1v.6l.3.2h.4a36.9 36.9 0 0 0 4.6 0 73 73 0 0 0 10.4-.5H16751.8l.6-.2.5-.1h.1c.3 0 .5 0 .7-.2-.1.1 0 0 0 0H16754.5l.4-.2-.2.1h1.1l.2.1h.8c.1.1.3 0 .4 0h.4l.4.3.4.2h.1l.1.2c.2.2.3.2.5.2h.2c0 .2.2.4.4.4h.2l.2.3.3.2h.1l.2.2.4.1h.1l.1.3.3.1.2.3.8.6a48.1 48.1 0 0 1 2.5 2.2h.1V-3424l.1.2.2.2h.1l.3.2c.2 0 .4 0 .5-.3.2-.2.1-.4 0-.5v-.2c0-.3-.2-.5-.4-.6v-.1c0-.1-.2-.3-.4-.3v-.1l-.1-.2-.3-.3c.1 0 .2 0 .3.2-.1-.2-.2-.3-.4-.3h-.1l-.5-.4a16.4 16.4 0 0 0-1.1-1l-.2-.1v-.1l-.2-.2a5 5 0 0 0-.5-.3c-.2-.2-.3-.3-.5-.3l-.1-.1-.3-.2-.2-.2h-.3c0-.2-.2-.2-.2-.3h-.2v-.1H16760.4v-.2s.2 0 .3.2c-.1-.2-.3-.3-.5-.3h-.2l-.1-.2a.6.6 0 0 0-.5-.2h-.4.2l-.3.2-.1.3v.4l-.2-.3.2-.2v-.2l.1-.1.1-.1-.3-.2.2.2h-.1v-.2c-.2 0-.2-.2-.2-.2a.6.6 0 0 0-.5-.2c-.2 0-.4.2-.5.5l-.2-.2v-.4l-.3-.3h.4l.1.1h.5-.3l.4.2a21.5 21.5 0 0 1 3 1.7h.2l.1.1.2.2a13.9 13.9 0 0 1 1 .6l.1.1.2.2.2.2.7.4a10.6 10.6 0 0 1 1.5 1.2h.3c-.1 0-.1 0 0 .1a22.4 22.4 0 0 1 2 1.6 19.5 19.5 0 0 1 2.2 1.7c1.5 1.2 2.5 2.4 3 3.4l.5 1.2a6.6 6.6 0 0 1-.1.9s0 .1 0 0l-.2.2-.1.3-.2.1a1 1 0 0 0-.3.3 1 1 0 0 0-.4.3s-.1 0 0 0c-.4 0-.7.2-.8.5l-.3.2v.4h-.1l-.3.4v.4-.1l-.4.4v.8s0 .2 0 0v.2h-.1v.5l-.2.5.1.3v.8a13.5 13.5 0 0 1-.1 1.6v1.7a133.8 133.8 0 0 0 .2 4.1v.8a39.3 39.3 0 0 1 .2 1.5v1.3l.1.3v.8l.1.5-.1.4.1.4V-3396.5l-.2.4.2.4v.4c-.3 0-.4.2-.5.4l-.2.2-.3.6h-1.3a53.7 53.7 0 0 0-16 .6l-2.7 1a22.2 22.2 0 0 0-9.2 7.5l-1 1.4h-.1c-.3 0-.4.1-.5.4-.2 0-.3 0-.5.2.1 0 0 0 0 0l-.2-.1h-.3l-.1.1-.1.1-.3.3h-.2l-.3-.1H16736.4l-.1-.1h-.6l-.1.2v.2h-.1l-.2.2h-.4a.6.6 0 0 0-.4-.2c-.2 0-.3 0-.4.2h-.5c-.2 0-.4.1-.5.3l-.3.1v.1l-.2.1-.2.1c0-.1-.2-.3-.4-.3l-.3.2v-.1.1c-.2 0-.2.2-.2.3-.1-.2-.3-.5-.6-.5l-.4-.1c-.1-.2-.2-.3-.4-.3l-.3-.2c0-.2-.2-.4-.5-.4h-.2l.1-.2c0-.2-.1-.4-.3-.5l-.1-.2c0-.2-.2-.3-.3-.3v-.1c0-.2-.1-.4-.3-.5l.2-.4c0-.3-.2-.4-.4-.5l-.2-.2v-.2c0-.2-.2-.3-.3-.4 0-.3-.1-.4-.3-.5 0-.4-.2-.6-.5-.6l-.2-.2v-.1l-.2-.2v-.1c0-.3-.2-.5-.4-.6 0-.2-.3-.5-.6-.5h-.2c0-.2-.2-.3-.3-.4v-.2c0-.2 0-.3-.2-.4h-.3c0-.2-.1-.3-.2-.3l-.2-.2-.2-.2-.1-.3-.3-.1-.2-.4h-.4l-.1-.1v-.2c0-.3-.2-.5-.5-.5h-.1l-.1-.4-.3-.2v-.1c0-.3-.2-.6-.5-.6h-.1l-.2-.2-.2-.1v-.2a.6.6 0 0 0-.6-.2l-.4-.5-.2-.3h-.2l-.1-.1-.1-.2h-.2v-.1l-.4-.3v.2a.6.6 0 0 0-.4-.6h-.2c0-.2-.2-.3-.4-.3l-.1-.2h-.1l-.3-.3h-.1c0-.1 0-.2-.2-.3l-.1-.1-.2-.1c0-.2-.2-.3-.4-.3-.1-.2-.3-.3-.5-.3 0-.2-.1-.2-.2-.2h-.3l-.1-.1h-.2v-.1h-.1c0-.2-.1-.3-.2-.3h-.2c0-.1 0-.2-.2-.3h-.2v-.2l-.4-.3-.3-.2-.3-.4-.2-.2h-.3l-.3-.1c0-.4-.3-.7-.6-.7 0-.2-.3-.3-.5-.3v-.2l.2-.5h-.6v-.2l.1-.4v-.1l.2-.1v-.1c.4 0 .6-.3.6-.6 0-.1 0-.2-.2-.3v-.1l.2-.1h.1l.1-.2.4-.1.2-.2.2-.4 1.3 1.2-.5-1.8v-.1h.3l.2-.1.1-.1.2-.4v-.5h.5c.3 0 .4-.2.4-.2l.2-.2v-.1c.2-.1.4-.3.4-.5V-3408.3l.2-.1.2-.2v-.3l.1-.3h.2l.3-.4.3-.1.1-.4c.2 0 .3-.3.3-.5v-.1l.2-.5V-3411.5l.2-.1.2-.1.2-.2h.2l.4-.1c.2-.2.2-.4.2-.5v-.1l.1-.2.2-.2.1.1.3-.1h.1l.2-.3v-.2l.2-.1c.2-.1.3-.2.3-.4l.1-.1h.1v-.2l.3-.1a30.7 30.7 0 0 0 1.7-1.6l.2-.1.4-.4.3-.2v-.1h-.1c.3 0 .4-.1.5-.2l.2-.3v-.2c.2 0 .3-.2.4-.3l.4-.4.1-.2v-.1h.1l.4-.4.3-.4.2-.1v-.1l.1-.3v.2l.1-.2a5 5 0 0 0 .7-.9s.1 0 0 0l.3-.3.1-.3.1-.2.3-.3v-.2l.2-.2h.2l.2-.3.1-.3.2-.2v-.2h.1v-.1l.2-.2.2-.5.2-.3.3-.2v-.3l.5-.8.1-.2h-.3l.5-.1.1-.6v.4-.1l.5-.5 1.2-1.1 1-.5 1.7-.5.8-.1-.1-1-1-.1c-.8 0-1.3 0-2.3.4l-2 .8-1 .2h-.8a.6.6 0 0 0-.3-.2l-.4-.1a8.2 8.2 0 0 1-1.2-.1.7.7 0 0 0-.7-.2h.1l-.5-.1h-.4v-.1l-.3-.1h-.5l-.2-.1c-.1 0-.2 0 0 0l-.5-.2h-.5l-.2-.1c-.1-.2-.3-.4-.5-.4h-.1a.6.6 0 0 0-.5 0l-.4-.2h-.2l-.3-.2h-.4l-.3-.2-.4-.2h-.9l-.1-.1-.3-.1a.6.6 0 0 0-.5-.2h-.4l-.2-.2v-.2l-.4-.2-.3.1a.7.7 0 0 0-.4-.2h-.2c0-.2-.3-.4-.5-.4l-.3.1a.6.6 0 0 0-.4 0c-.1-.2-.2-.2-.4-.3-.1-.2-.2-.2-.3-.2h-.2l-.2-.3-.3-.3h-.1s0-.2-.2-.3l-.3-.2-.2.1h-.1l-.1-.2-.1-.5-.3-.2-.3-.2h-.2c0-.1 0-.2-.2-.2v-.2l-.1-.2h-.2c0-.2-.1-.3-.3-.4v-.2l-.3-.1-.1-.1v-.1c0-.2-.2-.3-.3-.3H16709.6a1 1 0 0 0-.3-.3l-.2-.2c0-.1 0-.2-.2-.2h-.4.2l-.1-.1h-.1l-.1-.2a1 1 0 0 0-.4-.2h-.4l-.2-.2c0-.2-.1-.3-.3-.4a.6.6 0 0 0-.4-.1h-.2l-.1-.1c0-.2-.2-.3-.4-.3h-.3v-.1a.7.7 0 0 0-.5-.1l-.6-.2-.3-.2a.8.8 0 0 0-.7-.2.8.8 0 0 0-.6-.3h-.1l-.2-.1-.3-.2h-.1a.6.6 0 0 0-.5-.2h-.2l-.5-.3h-.1v-.1c0-.2-.2-.3-.4-.3l-.3-.4v-.4h-.2v-.7s0-.2 0 0l.3-1 .2-.2.1-.3h.1l.5-.5.4-.4.1-.1h-.2l.5-.1.1-.2.8-.4.2-.1.2-.1.3-.1a12.4 12.4 0 0 0 1.2-.7h.2-.1c.3 0 .5-.2.6-.4h.3l.3-.3.3-.2s.1 0 0 0h.4l.1-.2.2-.2h.2l.3-.2a14 14 0 0 1 1.6-.8h.3l.8-.4 1.4-.3h.6l.1-.1h.2l.2-.2zm52.6 24.7zm0 0 .2.3c0-.1 0-.2-.2-.3zm-136.5-24v.2-.2zm78.4.8zm15.2 0 .4.1h-.1l-.3-.1zm-93.4 0zm152 0c.2.2.4.2.5.2l.4-.2h1.7-1.7l-.4.2c-.1 0-.3 0-.4-.2zm2.9 0 .3.1h-.3zm-5 .2h.5c-.2 0-.3.1-.4 0h-.1zm-72.6.1.1.1zm72.3 0c4 3.5 7.8 7.3 11.3 11.2H16789.8c-.1-.2-.3-.3-.5-.3l-.4-.1h-2.7c0-.2-.3-.4-.5-.4l-.3.1-.7.1h-.1l-.1-.1h-.3a.6.6 0 0 0-.5-.2l-.3.1c-.1 0-.3 0-.3.2h-.1l-.2-.1h-.5l.1.1-.3-.2c0-.2-.2-.4-.5-.4h-.5v.1a.5.5 0 0 0-.4-.1h-.3a.8.8 0 0 0-.4 0c0-.3-.3-.6-.6-.6h-.5l-.2-.1-.4-.2a.6.6 0 0 0-.4-.2h-.2c0-.2-.3-.4-.5-.4l-.2-.1h-.2c0-.1 0-.2-.3-.3 0-.1-.3-.3-.5-.3l-.6-.2c-.1-.2-.2-.3-.4-.3l-.4-.2-.1-.1-.2-.1a.6.6 0 0 0-.5-.2c0-.1 0-.3-.2-.3l-.1-.3h-.2v-.2l-.2-.1v-.5c0-.2-.2-.4-.3-.5l-.1-.2v-.5l.1-.2c.2-.1.4-.3.4-.5v-.5l.2-.4.2-.2.1-.1c.2-.1.3-.3.3-.4 0 .1 0 0 0 0l.3-.3.8-.3c.3 0 .5-.2.7-.5 0 .1 0 0 0 0h.5l.4-.2c-.2.2 0 0 0 0h.2a11.3 11.3 0 0 1 1.6-.3l.2-.1h.1zm4.2 10.6zm-57.5-10 .5.2h-.1l-.4-.1zm1.6.7.5.1h-.1l-.4-.1zm-98.5 0zm99.4.3.5.2h-.1c-.2 0-.3 0-.4-.2zm-100.7.2-.1.3v-.2h.1zm101.4.1.4.2h-.1c-.1 0-.2 0-.3-.2zm-101.4.4h-.1zm102.3 0zm.2 0 .1.2h-.1v-.1zm.2.2h.2v.1h-.2zm-79.1.3.3.2c.1 0 .2 0 .3-.2l.6.1c.1.2.3.4.5.4h.1l.5.1.2.1c.1 0 .2.1 0 0l.3.2h.2l.1.2 1.2 1.7.3.6a15 15 0 0 0 1 1.8l.4.6a18.7 18.7 0 0 0 1.7 2 75.2 75.2 0 0 1 4.5 4.3l.5.6-.1.1c-1.3 1-3 2.3-3.8 3.3a30 30 0 0 0-2 3c-1.3 2-2.3 3.4-4.5 6.2-1.5 2-2.4 3.5-3 4.7a6.5 6.5 0 0 0-.7 3.9v-.2l-.1-.1-.1-.1c0-.2-.2-.4-.3-.4h.1V-3413.1s0-.2-.2-.3h-.3l-.1-.2-.2-.3v-.4c0-.2-.2-.3-.3-.3v-.2l-.3-.1v-.4c-.1-.2-.3-.3-.4-.3 0-.1 0-.2-.2-.3h-.1l-.2-.5c0-.3-.3-.5-.5-.5l-.1-.3c-.1-.2-.3-.2-.4-.2v-.2l-.3-.3c0-.2-.1-.4-.3-.5-.1-.2-.3-.3-.5-.3a5.5 5.5 0 0 0-.3-.4c0-.3-.2-.4-.3-.4h-.1a1 1 0 0 0-.3-.3l-.2-.1-.1-.4h-.3v-.3l-.5-.2v-.1c0-.4-.3-.7-.6-.7l-.4-.4c0-.2-.2-.4-.4-.5l-.2-.2v-.2c-.1-.2-.3-.4-.5-.4v-.2l-.3-.3v-.3l-.1-.2a1 1 0 0 0-.4-.4h-.2v-.1.1-.4l-.4-.4h-.1c0-.2-.1-.3-.2-.3v-.1l-.1-.4-.5-.6v-.1l-.1-.2v-.2l-.2-.3v-.1c0-.1 0-.2 0 0 0-.3-.2-.5-.3-.6v-.3l-.2-.4-.2-.1.2-.4-.2-.2v-.3a1 1 0 0 0-.3-.3v-.4l-.2-.4v-.2l.1-.2c0-.3-.1-.4-.2-.5 0-.3 0-.5-.2-.8.1.1 0 0 0 0V-3433.6l-.1-.1v-1l-.1-.1.3-.3v-.1l.1-.1v-.7h-.3l.1-.2v-.3l.1-.1V-3437l-.2-.2.2-.3-.1-.5c0-.2 0-.3-.2-.5v-.2l-.1-.4h-.1v-.2l-.2-.3v-.5c0-.2-.2-.5-.4-.5a1 1 0 0 0-.2-.3l-.1-.4-.3-.2V-3441.7c0-.2-.3-.4-.4-.5h-.1l-.2-.1c-.1-.2-.3-.3-.4-.3l.3.1-.2-.2-.2-.5-.1-.2h-.1l-.1-.3-.3-.5-.2-.2.2-.1 1.1-.3c.4 0 .6 0 .8-.2l.1.1.3.1h1.4a.6.6 0 0 0 .4.2h.4l.4.1h.1l.4.2.7.2H16639.4s.2 0 .4-.3V-3445s.2 0 .3-.2l-.1-.2h.4v.2h.1l-.2.1h-.2l.5.2h1s.2 0 .2-.2v-.1h1l.4.2h1.2l.8-.1a37.4 37.4 0 0 0 3.6-.6h.6v-.1h1.1l.2-.1.1-.1zm.2 0h.2-.2zm1.1.1h.5v.1l-.1.1c-.2 0-.3 0-.4-.2zm78.7 0v.1zm.2.1h.1v.1-.1zm-94.3 0h.1l.2.1-.2.1v-.1zm94.6.1v.1zm-93.7 0 .1.1v.1h-.2l.1-.1zm.6.1h.6v.1h-.6zm93.4 0v.1zm41 .1-.1.4v-.2l.1-.2zm-146.4 0v.6l-.2-.3.2-.3zm12.8 0 .7.1-.4.2-.3-.2zm-2.2 0 .2.1v.4l-.1.2-.3-.1v-.1l.2-.2c.1 0 .2 0 .1-.1v-.1zm95 .1zm-94.4 0h.1v.7l-.2-.1v-.1l.1-.2v-.2zm6 .1-.1.1v-.1zm-2.7 0h.5l-.1.2H16640.9l-.1-.1zm91.4 0v.1zm-88.4 0v.2h-.2l.2-.2zm-.8 0h.2v.2h.1-.3v-.2zm129.5 0V-3445v-.2zm-132.4.1zm92.3 0 .1.1h-.1zm-106.2.5v.5l-.1-.2v-.3zm15 .1zm0 0c-.1 0-.3 0-.4.2v.7l.1.1.5.3.6.3h.3c0 .2.1.2.2.2l.5.2c.1.1.2.3.4.3l.3.2.2.1.5.3a73.8 73.8 0 0 0 6 3.5c.4.2.6.3 1 .3h.3l.1.1h.3c.2 0 .3 0 .4-.2.2-.2.1-.3 0-.4v-.2c-.1-.4-.3-.5-.6-.6l-1-.5a38.6 38.6 0 0 1-6.5-3.3h-.2l-.2-.2a.6.6 0 0 0-.4-.2h-.1l-.4-.3-.2-.1-.3-.1-.1-.2-.4-.2a4 4 0 0 0-.8-.3zm92.6.2v.1zm.2.1h.1v.1h-.1zm.3.2zm.3.2.4.2-.4-.2zm38 0v.4l-.2-.2.1-.1zm-151.3.1c.2 0 .3.2.4.3l-.3-.1h-.1l-.1-.1h.1zm21.5 0v.1zm.2.2.2.3c0 .3-.2.5-.5.5l.2-.3h.1v-.5zm-.1 0v.2c0 .2-.1.4-.3.4l.1-.3h.1v-.2zm92.4 0 .3.3c-.2 0-.3-.1-.3-.3zm-92.1 0 .2.3h-.1l-.1-.2zm129.2 0 .2.2v.1h-.2v-.2zm-151.7 0 .1.1zm-2.3 0-.2.2.2-.1zm3.8 0c.2 0 .3.2.4.4a.9.9 0 0 0-.6-.1h-.1c0-.2.2-.2.3-.2zm-2.2.2-.1.1.1-.1zm23.6.1h.1l-.1.2v-.1zm129 0v.1zm-129.2.1c0 .2-.1.4-.3.4 0-.2.2-.3.3-.4zm-20.5 0c.3 0 .5.3.5.5l-.2-.2h-.2l-.2-.2h.1zm21 0v.1h-.2v.3h-.1l-.1.2v.2l-.1-.3c0-.2.2-.5.4-.5zm-1.5.2zm-25.4.2.2.1-.2-.1zm26 0h-.1.1zm-16.6 0v.2-.2zm146.1 0v.1zm-154.7 0v.2-.1zm25.5 0v.4l-.1-.3zm93.5.3.2.2h-.1v-.1l-.1-.1zm-103.3 0v.1h-.2.2zm-6.8.2h.3s-.1.1-.2 0zm-10.6 0c-.2 0-.4.2-.4.4 0-.2.2-.4.4-.4zm121.2.2h.2v.1l-.3-.1h.1zm-114.1 0-.2.1h.2zm10.8.2v.1zm103.9.2.2.1h-.2zm-130.6.1v.1zm167.5.2.2.2h-.1l-.1-.2zm-164.7 0zm24 .1h.2l-.1.1zm141 .1.4.2h-.2l-.1-.2zm-163.2.2c.2 0 .2.1.3.2l.2.2-.2-.2-.3-.2zm12.5 0v.2-.2zm114.4 0v.1zm-126 .3zm89.1 0h-.1.1zm-88.6.1zm21.9.2.3.3v.1l-.3-.3v-.1zm140.7 0v.1zm-36.4.1.1.2v.1l-.1-.3zm37.6.2.2.2h-.1l-.1-.2zm-152.5 0v.1zm.5 0v.1zm114.7 0v.1zm37.2.1zm0 .2zm-37.1 0v.1zm-36.2.2h-.1.1zm73 0-.1.1h.1zm-141.5 0h.2l.1.1h-.3zm142.4.1v.1zm1.6.2c.2 0 .4.2.4.5-.2 0-.2-.1-.3-.2l-.2-.2zm-.6.3h-.1zm-142.7.2v.2-.2zm16.4 0v.1zm128 .2.1.1v-.1zm.5 0zm1 .1zm-145.8 0v.3-.3zm144 0v.1zm3.5 0 .3.2h-.5l.2-.1zm-3 .2zm5 0 .3.2h-.1l-.4-.1h.2zm-2.3 0 .2.1h-.2zm-76 .4zm75.8 0zm2.3.1v.1zm4 0v.1zm-2.2 0-.1.2v-.1zm-78.7.1zm80.4 0v.2-.1zm-80.6 0v.1zm82.5.4h-.1.1zm.8.1.3.2-.3-.2zm.2.2h-.3v.1h.3zm-82.4.1v.1zm-33.7.2h.2v.1h-.2v-.1zm-.5 0v.3h.7l.5.1.4-.1h.2l1.3.6c0 .2.2.3.4.4l.2.1.4.2.1.1.5.3a75.5 75.5 0 0 1 2.7 1.2l.5.2a8 8 0 0 0 1 .2s0 .1 0 0l.2.2H16684.8c.6.2 1 .3 2.3.4a24.6 24.6 0 0 1 1 0h.1l.1.1h7.4a22.6 22.6 0 0 1 2.3.3l2 .5a26 26 0 0 1 3.4 1.5 18.5 18.5 0 0 1 3.1 3.3l.2.5v.1c0 .2.2.4.4.5v.1l.3.7a6.5 6.5 0 0 1 .7 1.7l.1.2.1.2v-.2.6l.1.3.2.7v.5l.2.1.1.8v.4h.1l-.1.4c0 .1 0 .3.2.4v.1l.1.1v.5l.1.4v.2l.2.3-.1.3c0 .2 0 .4.2.5v.2l.1.4v1.1l.1.5v.1l.1.3V-3413.2l-1.3 1c-1 .6-1.8 1.3-2.7 2.3a135.5 135.5 0 0 0-9.2 12v.1l-.2.2-.2.2-.2.1c-.2 0-.3.1-.3.2l-.2-.2-.3-.2a.6.6 0 0 0-.5-.2l-.4.2c-.4 0-.7.2-.7.5v.5h-.5l-.1.2c-.2 0-.3 0-.5.2l-.1.2h-.5l-.1.1-.3-.1c-.3 0-.5.2-.6.4l-.3.1v.2h-.2l-.3.3c0-.1.1-.2 0-.4v-.3l.1-.4c0-.3-.3-.6-.6-.6-.2 0-.4.2-.5.5l-.2.4.1.3v.4h-.2c-.1-.2-.3-.4-.6-.4-.2 0-.4.1-.5.3-.1-.2-.3-.5-.6-.5l-.3.3.1-.1v.1h-.2c-.3 0-.5.3-.5.5h-.2l-.2.2h-.6c0-.1-.1-.2-.3-.2.1 0 0 0 0 0-.3-.1-.5-.1-.8 0h-.4c0-.1 0-.2-.2-.3 0 0-.1-.2-.4-.2h-.2c0-.2-.2-.4-.5-.4-.1 0-.2 0-.3.2a.9.9 0 0 0-.4-.2c0-.3-.3-.5-.5-.5l-.3.1H16680.7c0-.2-.3-.5-.6-.5l-.2.2-.3-.1h-.1c-.1-.3-.2-.5-.4-.6l-.2-.2a1 1 0 0 0-.3-.3l-.1-.4h-.1c0-.2-.2-.4-.4-.5v-.1l-.3-.1v-.2h-.1c0-.2-.2-.3-.4-.3v-.2l-.2-.1-.2-.1c0-.2-.1-.3-.2-.3v-.2l-.2-.3v-.7c.1-.1.3-.3.3-.5 0-.3-.3-.6-.6-.6l-.2-.1v-.1c.3-.2.4-.3.4-.5s0-.4-.2-.5v-.2c0-.3-.2-.4-.3-.5 0-.3-.3-.6-.6-.6l-.2.1-.1-.2-.4-.2h-.3l-.1-.2c0-.2 0-.4-.2-.5l-.3-.2-.4.1v-.2l-.4-.1h-.2c-.2-.2-.3-.4-.6-.4H16671.7v-.2h-.1c0-.2-.1-.3-.3-.4 0-.3-.3-.5-.5-.5H16670.2l-.1-.2c0-.2-.3-.5-.6-.5l-.3.2-.2-.3h-.4l-.3-.1h-.1v-.2c-.1-.4-.2-.3-.3-.4h-.5V-3409.5s0-.2-.3-.4h-.4a.7.7 0 0 0-.3-.5c0-.2-.3-.5-.6-.5l-.3-.2v-.2c0-.3-.1-.4-.3-.6v-.7l-.2-.1v-.1l-.2-.2-.1-.5-.1-.4-.1-.1v-.1c0-.2-.1-.4-.3-.5v-.6h-.1v-.2l-.1-.3-.1-.2v.2V-3416.9l-.1-.5v-.2c0-.3-.1-.4-.2-.5V-3420l-.1-.5v-1.5l-.1-.4v-.2l.1-.2.2-.4-.1-.3v-.7l.2-1.1v-.4l.1-.2v-.3l.1-.3V-3427.1l.1-.4.2-.5.1-.5.3-.1.1-.4v-.1l.1-.1v-.3h.1l.2-.4v-.1c.2-.2.2-.3.2-.6v.1l.3-.2v-.3h.2l.2-.2.3-.3c0-.2.2-.3.3-.3 0-.1.1-.2 0-.2.2 0 .3-.2.4-.3l.2-.1.4-.3.2-.1s.1 0 0 0l.3-.1.2-.2.3-.3.4-.3h.4l.5-.1.2-.4c.1 0 .2 0 .3-.2h.1c.2 0 .3 0 .4-.2l.3-.3.2-.1.2-.2h.1a1.7 1.7 0 0 0 .6-.5h.2l.2-.3.6-.2a10.4 10.4 0 0 1 1.7-.4zm1 .1h.3-.3zm-3.6.2v.2-.2zm122 .2h-.1.2zm1.1.2c.1 0 0 0 0 0zm-124.2.2zm7 0v.2-.1zm-6.3.1zm38.4 0zm-32 0 .2.1v.1l-.1-.1zm-42.5.2.1.2v.2-.4zm160.5 0zm-117.6 0v.1zm32.3 0V-3435.1v-.2zm0 .3v.1zm-75.6.5.3.2-.3-.2zm34.3 0v.1zm-34 .2zm163.2.2v.2-.2zm-130.1.1zm43.7.3.2.1c.1.1 0 .1 0 .2l-.2-.3zm-18.8 1.2h.2-.2zm.5 0 .1.1-.2.1.1-.2zm-.6 0 .1.2h-.2l.1-.2zm21.5.2c.2 0 .4.1.4.3l-.2-.2h-.4l.2-.1zm1.5.6.2.1h-.2zm-1 .3v.1-.1zm.2 0v.2-.1zm40.7.2h.1-.1zm-39.2 0v.3-.2zm-52.4.2.1.2-.1-.2zm54.4.1h.1zm.2.1zm37.4 0 .1.1-.2.4v.1h-.1v-.1h.1v-.2l-.1-.2h.2zm1.1.3h.2c-.3.1-.5.3-.5.6l-.1-.1c0-.3.2-.5.4-.5zm-38.8 0v.2-.2zm39 .2h.2l.1.3c0 .3-.2.5-.5.5l-.2-.4c0-.2.2-.4.5-.4zm-1.4 0zm1.7 0zm-.5.2v.1h.1zm-36 .1.3.2h-.2l-.1-.2zm36.3 0v.1zm-121.9.1-.2.1h.2zm121.2 0h.1v.3-.2zm1.7 0v.3c-.1.1-.3.3-.3.5V-3429.9l.2-.1zm-7.6 0v.2-.1zm7.8.1h.1v.1h-.1zm-95 .1zm95.1 0 .1.3v.2h-.1v.2h-.3l.1-.1.2-.5zm-1.2.1v.1h-.2.2zm1 .1zm-7.8 0zm-87 0h-.2.1zm95.4 0v.2l-.2.4v.1-.2l.2-.4zm-.7.1v.2h-.1l.1-.2zm1.2 0v.1zm-123.7.3zm124 .1-.1.1zm-1.2 0 .1.3-.3-.1.2-.1zm1 .1-.1.2-.1-.1.1-.1zm-35.1 0v.3-.3zm34.8.1.1.1h-.1zm1 .2v.2l-.1.2v-.3zm-.9 0v.3h-.2v-.2h.2zm-33.2.3zm33.9.2v.1zm-.2.1zm-123.6.8h-.1.1zm.2.5h-.1.1zm.3.2zm25.2 0h.1zm-25.1.1-.3.1h.3zm25.1.1.2.1h-.2zm-24.9.4h-.2.2zm68.7 0v.1zm-68 1.2h-.1zm127.2 0v.2-.2zm0 .3h.1v.2l-.3.2c0-.1-.1 0 0 0H16765.7l.4-.3zm.2.6v.1l-.4.2h-.2l-.1-.2h.3l.4-.1zm34 .2c5.9 9 10.6 19 13.8 29.5h-.1l-.3-.1-.2-.4-.2-.2h-.1l-.2-.3-.2-.1-.2-.3c0-.3-.1-.5-.2-.5l-.2-.1-.1-.2h-.1v-.2l-.1-.2-.2-.2-.3-.2s-.3-.1-.4 0h.3l-.2-.3-.3-.2-.1-.3-.4-.3a3.6 3.6 0 0 1-.6-.8v.2-.5l-.3-.2h-.2v-.2l-.2-.3v.1c0-.3-.1-.3-.2-.5l-.3-.3-.1-.1v-.1l-.1-.2-.3-.2v-.2l-.2-.3-.3-.5-.2-.4c0-.2-.1-.4-.3-.5l-.2-.4-.2-.5v-.2l-.4-.8-.1-.2-.2-.4-.1-.4V-3406.6l-.1-.2-.2-.3-.2-.4v-.4c0-.1 0-.2-.2-.3l-.2-.9a37 37 0 0 1-1.6-5s0-.1 0 0v-.2l-.1-.1-.1-.2-.4-.6-.3-.5-.1-.2v.1-.2l-.1-.1-.2-.3-.1-.2-.1-.2-.3-.4-.3-.3c0-.2 0-.4-.2-.4h-.2l-.1-.3a2 2 0 0 0-.6-.5v-.2l-.3-.4h-.2l-.1-.2-.2-.1a2 2 0 0 0-.8-.5l-.3-.2v-.3c0-.1 0-.3-.3-.5l-.3-.2v-.2l-.2-.4.1-.3.4-.4 1.5-.9 1-.3zm-160.3.5-.1.2v-.2zm108 .3c-.3 0-.5.3-.6.5v.1h-.4c-.1 0-.3 0-.4.2-.1.2-.1.3 0 .4l-.1.1c0 .2-.2.2-.2.3v.2l-.3.2h-.1c-.3 0-.5.1-.6.4-.2.1-.3.3-.3.5h-.1c-.4 0-.6.3-.6.6v.1l-.2.1-.2.2-.1.3v.2a1 1 0 0 0-.2.5h-.1c-.3 0-.6.3-.6.6l.1.2v.1c-.2.1-.3.2-.3.4v.3h-.2s-.2 0-.3.2c-.2.2-.1.4-.1.5v.1l-.2.4c0 .3.3.6.6.6 0 .1 0 .2.2.3l.5.2.2-.1.3-.1v-.2h.4c.2.2.3.3.5.3.3 0 .6-.3.6-.6v-.2c.1 0 .3 0 .4-.2v-.2h.1c.3 0 .5-.1.6-.4l.2.1c.3 0 .6-.3.6-.6l-.1-.2v-.2l.4-.2v-.2l.3-.2v-.1h.2c.4 0 .6-.2.6-.5l-.1-.3v-.3l.2-.3s.2 0 .3-.3v-.3h.1v-.1c.2-.2.3-.3.3-.5.3-.1.4-.3.5-.5l.2-.4c.2-.2.4-.4.4-.6 0-.2-.2-.4-.3-.5v-.1c0-.3-.2-.6-.6-.6h-.2l-.3.1h-.1l-.1.2c-.2-.2-.3-.3-.5-.3l-.4-.1zm13.1 0c-.2 0-.2.1-.3.2l-.2.2-.1.3v.4l.5.2h.3l.1-.1.2-.2v-.3c0-.1.1-.2 0-.4 0-.1-.3-.3-.5-.3zm-13.2.2h.2l-.1.1h-.3l.2-.1zm-85.2 0zm98.3 0 .4.3v.5l-.3.1a.6.6 0 0 1-.4-.3v-.4l.3-.1zm-11.4 0c.2 0 .4.3.4.6h-.1v-.4l-.3-.1zm-1.3.1v.1h-.2.2zm.1 0 .3.2h-.2v-.2zm-20.5 0v.2h-.1v-.1zm-100.7.1.5.7c1.3 1.6 2.4 3.5 3 4.9l.1.2-.7-.5a29.2 29.2 0 0 0-6-3.5l-.4-.2 2.4-1zm121.9 0v.1h-.2.2zm.1 0c.2 0 .3.2.4.3h-.1v.1h.1-.3l-.1-.2v-.1zm-1.6.1h.2v.2h-.3v-.2h.1zm13.6 0-.2.2v.1l.1-.1v-.1zm-120.1 0v.2-.1zm106.8.1zm1.3.1v.1zm.1 0v.1zm-133.7.1v.3V-3422.2zm131.4 0c-.1 0-.2 0-.3.2v-.1h.3zm-134.6 0 .3.2h.8l.4.1c.2 0 .3.1.2 0v.1h.2c0 .1 0 .2.3.1l.2-.1 1 .2.3.1h.4l.4.1.1.1.4.1.6.1h.2v.1l-.1-.1.2.1.3.1a16.4 16.4 0 0 0 2.3.7l.4.1a31.8 31.8 0 0 1 1.4.7h.4v.3h.6-.2l.4.2h.2v.1l.4.1c.2.3.4.4.7.4h-.1.2a9.2 9.2 0 0 1 1.4 1l.3.3.4.2h.1l.3.3h.1l.2.2h.2l.2.2.3.2c.2 0 .5.2.9.6l.8.8a22.9 22.9 0 0 1 3.5 3.2l.3.4.7 1 .3.2.2.2h.1v.1l.2.3c0 .1.2.3.5.3h-.2l.5.6a12.3 12.3 0 0 1 1.6 2.6l.2.2v.1c0 .2.1.4.3.5v.1l.3.4.2.3.2.3s0 .1 0 0c0 .3.1.4.3.6v.2l.4.6.2.5v.2l.1.3s0 .2 0 0c.2.7.2.9.4 1v.3l.4 1.3.1.3V-3398l.1.3.3.8a7.3 7.3 0 0 0 .4 1v.1c0 .3.2.5.3.8v.2s0 .1 0 0c0 .2 0 .3.2.5h.1v.3l.2.3a21.5 21.5 0 0 0 .9 2l.2.6c0 .3.2.7.4 1a7.7 7.7 0 0 1 .6 1.7c0 .1 0 .2.2.3-.1 0 0 0 0 0l.1.4.2.7c0 .2 0 .3.2.5v1.1l.1.1v.5c-.1.2 0 .3 0 .4l-.1.3v.4l-.1.5-.2.4c0 .1 0 .3.2.4l-.3.4-.1.2-.3.3-.2.3h-.1l-.3.1v.2c-.3 0-.5.3-.5.5-.2 0-.4.2-.5.4v.1l-.1.3c-.1 0-.2 0-.2.2l-.2.1h-.2l-.1.1-.2.1a1 1 0 0 0-.3.5 1 1 0 0 0-.3.2h-.4v.1c-.3 0-.6.3-.6.6l-.3.1v.1l-.1.1c-.2 0-.3.2-.4.3-.1 0-.3 0-.4.2v.2c-.2 0-.2 0-.3.2-.2 0-.4 0-.5.2-.2 0-.3.2-.4.3l-.2.2-.2.3h-.2v.1h-.2c-.3 0-.5.2-.5.6l-.2.1-.1.2-.4.1v.1h-.1l-.2.2-.1.1v.1l-.5.1v.3l-.4.4h-.1c-.4 0-.6.3-.6.5l-.2.2h-.1c-.1 0-.3 0-.4.2v.3l-.3.3h-.2l-.3.1-.2.3c-.4 0-.6.2-.7.6h-.2l-.3.3v.2h-.1l-.5.2-.1.4h-.1v.1h-.3a1 1 0 0 0-.4.3c-.2 0-.3.2-.4.3-.3 0-.4.2-.5.3v.1h-.2l-.1.2-.4.2c-.2 0-.4.2-.5.3-.2.1-.3.3-.3.4-.2.1-.2.2-.2.3h-.1c-.2.1-.4.2-.4.4h-.2l-.1.3h-.1.2c-.3 0-.6 0-.8.2-.2 0-.4 0-.5.2l-.1.2-.2.2c-.1 0-.3 0-.4.2h-.2c-.2 0-.4 0-.6.3v.2h-.2c-.3 0-.5.3-.5.5h-.2l-.2.2a.6.6 0 0 0-.4-.1c-.3 0-.5.2-.5.5h-.2l-.1.4h-.3l-.1.1H16620.9l-.4.1v.1l-.2-.1-.3.1-.2.1c-.2 0-.4.2-.5.3v.1l-.3-.1c-.3 0-.5.2-.6.4h-.1l-.3-.2c-.3 0-.4.2-.5.4-.1-.2-.3-.4-.5-.4-.3 0-.5.2-.6.5l-.3-.1c-.2 0-.4.1-.5.3l-.6.1v.1h-.2c0-.3-.3-.5-.5-.5h-.3l-.4-.1-.4.1c0-.2-.3-.4-.6-.4 0 0-.2 0-.3.2v-.1a.6.6 0 0 0-.3-.1.6.6 0 0 0-.5-.2c0-.2-.2-.3-.4-.4l.1-.1h-.3c0-.2-.2-.4-.5-.4h-.2l-.1-.2c0-.2-.2-.3-.4-.4l-.1-.2a.6.6 0 0 0-.5-.2v-.2l-.1-.3-.1-.1v-.2c0-.1 0-.3-.2-.4 0-.2-.3-.4-.5-.4h-.1v-.1c0-.2-.1-.2-.2-.2l-.2-.2v-.8l-.3.2c0-.2 0-.3-.2-.4l.1-.4-.2-.3-.3-.1V-3368.8c0-.2 0-.5-.2-.7l-.2-.1v-.3c0-.3-.2-.6-.5-.6l-.3.2V-3371l-.1-.4h-.2l-.1-.3c0-.3-.3-.6-.6-.6l-.3.1v-.2l-.3-.3-.2-.1h-.1c0-.2-.2-.3-.4-.4a.6.6 0 0 0-.4-.2h-.2c-.1-.2-.3-.4-.5-.4v-.2h-.2s-.2-.1-.4 0h-.1V-3374.2c0-.3-.3-.6-.6-.6H16600.2l-.3-.1c-.2 0-.3 0-.5.2v-.2h-.4c0-.2-.3-.4-.5-.4-.2-.2-.3-.4-.6-.4-.2 0-.3.1-.5.3-.1-.1-.3-.1-.4 0l-.2-.1c-.1-.2-.3-.4-.5-.4h-.2c-.2-.2-.4-.3-.6-.2l-.2-.2h-.2l-.2-.1a1 1 0 0 0-.4-.2l-.2-.2h-.4a1 1 0 0 0-.4-.4h-.3l-.2-.1-.4-.2h-.1c-.2-.2-.4-.4-.6-.4h-.2c0-.2-.2-.4-.5-.4l-.3.1-.4-.2-.2-.2h-.2c0-.2-.2-.3-.3-.4h-.2c0-.3-.2-.5-.5-.5h-.4v-.2l-.5-.2h-.2c0-.3-.2-.5-.5-.5h-.2l-.2-.2c0-.3-.3-.6-.6-.6l-.2.1a.6.6 0 0 0-.4-.2l-.2-.3a117 117 0 0 1 9.6-29.4l.2-.1c.1 0 .3 0 .5-.2v-.2c.2 0 .4-.3.5-.4v-.4l.3-.1.2-.3v-.2l.5-.3.1-.4.3-.2.2-.2.4-.4.1-.2.3-.3s.2-.1.2-.3c.3 0 .4-.1.4-.2l.2-.4.2-.2c.2 0 .4-.2.4-.5.3 0 .5-.2.5-.4.2 0 .3-.2.4-.3l.1-.1V-3417.6c.2 0 .4 0 .5-.2h.2v-.3l.5-.1.1-.4.2-.1c.2 0 .4-.2.4-.4h.1c.4 0 .6-.2.6-.5l.2-.3h.2l.5-.4.3-.4.4.2c.3 0 .5-.3.5-.6l.1-.1.6-.1.2-.2.2.2h.5l.2-.3h.3l.2-.1v-.1l.4.1c.2 0 .3 0 .4-.2l-.3.1h-.2l.5-.1h1l2.2-.2h.2c.1 0 .2 0 0 0zm-3.4.3zm140.8-.2h.1v.2h-.1v-.2zm.2.1c.2.1.3.2.3.4s-.2.3-.4.4v-.6l.1-.2zm-143.2.2.1.3v-.2zm190.4 0v.1zm-47.5.1zm-107.8.2.3.3-.1-.1-.2-.2zm155.3 0h.1zm.4.4zm-191.7 0c0 .3-.2.5-.5.5l-.2-.1.3-.1.4-.3zm144 0v.2-.1zm-4 .2-.1.2H16745.6l.3-.2zm3.8 0v.2l-.2.2.2-.3zm-4.2.4-.1.1v-.1zm4.2 0-.3.2.3-.2zm-4 0-.2.1h.1zm-.4 0v.2h-.1v.1-.2zm2.4.2zm-104.7 0h.1V-3420l-.1-.2zm65.9.1v.1zm88.9.1zm-88.5 0v.1l-.2.1.2-.1zm35.5.2h.1l-.2.3h.2-.5v.1c0-.2.2-.4.4-.4zm-32.6 0a157.7 157.7 0 0 1 7 1.7l-.2.2a32.2 32.2 0 0 1-4.7 2.5h-.2s0-.2-.2-.3a292.3 292.3 0 0 1-1.7-4.1zm-49 0v.1zm135.2.2v.2-.2zm-175.5.1.2.3-.2-.3zm86.6.1-.2.1h.2zm-105.8 0c0 .2-.2.4-.4.4V-3419.5h.4zm105.3.1V-3419-3419.4zm-105.9.1zm141 .1v.3h.1l-.2.2v-.4h.2zm-100 0v.1zm-41.1 0 .1.1c0 .1 0 .2-.2.2l.1-.1v-.1zm196.4.4h.1-.1zm-197.7 0v.1zm43 .2h.1-.1zm103.3.2h.2v.1l-.1.1-.1-.2zm-145.6 0-.1.1-.2.1.1-.2h.2zm42.5 0zm.2.2v.1-.1zm154.8 0zm-51.6 0 .1.2c0 .3-.2.5-.4.5h-.1l.1-.2s.2-.1.2-.3l.1-.2zm-39.2 0 .2.2v.1l-.2-.2zm-64 .1zm98.4.2v.1-.1zm-.1 0-.1.2-.2.2v.1h-.1c0-.3.2-.4.4-.5zm57.7.4v.3-.3zm-91.6.1h.2-.2zm37.7.3v.1h-.2c0 .1 0 0 0 0h.2zm-37.8.1v.2-.2zm-63.3.1.3.2h-.2zm-45.5 0c0 .1 0 .2-.2.2 0-.1 0 0 0 0l.2-.1zm121.8 0 .1.4-.1-.3zm22.8.2zm1.6.2v.1c0 .3-.1.5-.4.5h-.1v-.4h.4l.1-.2zm26.1.2h.1zm-109.4 0v.1-.1zm-63.4 0-.2.2.1-.1h-.2.3zm-.6 0v.2-.1zm110.2.1h.2-.2zm.3 0zm62.4.3v.2zm-26.3.1c-.1.2-.2.3-.4.3v-.1l.4-.2zm-82.7.2h.1-.2zm78.7 0v.1l.1.5.2.2a.5.5 0 0 1-.4-.4l.1-.4zm.3.2h.2-.1c-.1 0 0 0 0 0zm2.8.1v.2h-.1v-.1zm-2.8 0v.1h.1v.2l-.1-.2zm.7.1v.1zm-144.2 0v.2-.1zm110.8.1v.1zm-111.2.1v.1zm145.5 0zm1 0v.1zm-35.2.2s0 .1 0 0l.1.2h-.1v-.2zm-111.3 0zm146.5 0c0 .2-.2.4-.4.4s-.3 0-.4-.2h.5l.1-.1h.2zm-2.3.1h.1c0 .2.1.3.2.3l-.3-.1v-.2zm-33 .2h.1zm-45.8.1zm.1 0 .1.4h-.1V-3414.3zm55.8.5v.1zm-55.6.2zm-16 0-.4.1h.3zm61.8 0V-3413.3v-.2zm-.1.3v.1-.1zm9.5 0v.1c-.1.1-.1.2-.3.2l.1-.2s.1 0 0 0h.2zm69 .2.2.2-.3-.1.1-.1zm-191.9 0h.2-.2zm193 .1zm-1.3 0 .4.2h.2v.2h.2l.3.3.4.3h.4-.1l.1.1v.3c0 .2.2.5.4.5.1.2.3.3.5.3h.2l.1.3.1.4.3.3c0 .2 0 .3.2.5v.2l.3.3.1.4.5 1 .2.2v-.1c0 .3 0 .5.2.7v.4c0 .2.1.2.2.3l-.1.4c0 .2.1.3.3.4v.3h.1v1.1l.2.4a2.5 2.5 0 0 0 0 .9v.3c0 .2 0 .4.2.5l-.1.3c0 .3 0 .4.2.6 0 .3 0 .5.2.8v-.1l-.1.5.1.2-.1.8-.2.5v.8l-.3.1v.1h-.2l-.2.5-.3.3c-.2 0-.4.2-.4.5l.1.2-.1.2h-.4l-.3.4h-.2c-.1 0-.3 0-.4.2h-1.2a1 1 0 0 0-.4.1l-.2.1v-.7l-.6.6H16788.8c-.2 0-.3 0-.5.2h-.2s-.1-.2-.4-.3h-.5v-.1l-.2-.2h-.3l-.1-.1a1 1 0 0 0-.4 0 1 1 0 0 0-.4-.4l-.2-.1-.2-.2c-.3-.2-.4-.1-.5-.1l-.3-.1h-.1l-.1-.3h-.4l-.3-.3v-.1c0-.2-.2-.3-.3-.4v-.2h-.1c0-.2-.2-.2-.3-.3l-.1-.4-.1-.3-.1-.7a1 1 0 0 0-.3-.6v-.2c0-.1 0-.2-.2-.3v-3.4l.1-.2v-.2l.1-.5.2-1 .2-.6v-.1l.2-.2v-.7a21 21 0 0 1 1.3-2.6l.1-.3c.3 0 .6-.3.6-.6l-.1-.2.2-.2.1-.4h.1l.3-.2.3-.1c.3 0 .4-.1.5-.2l.4-.3.4-.1s.2 0 .3-.3l.2-.2h.3v-.1l.3-.1zm-2.8 17.4zm1.4-17.3zm-122.5 0v.1zm122.6 0v.4-.3zm-122.6.4h.1zm-15.2.2v.1l.1.2v-.1l-.1.1v-.3zm-39.4 0c-.2 0-.4.2-.5.4a.7.7 0 0 0 .5.9h.8l.2-.4v-.4l-.2-.2c-.2-.2-.5-.4-.8-.3zm176.5.1zm-176.2.2h.1l.1.1s.1.2 0 .4l-.3.3-.2-.1v-.3l.1-.3h.2c0-.1 0 0 0 0zm160 .1v.2-.2zm20.3 0 .1.4V-3411.3l-.2-.4v-.2c.1.1 0 .1 0 0zm-180.5.1v.2l.2.1c.2 0 .2 0 0-.2h-.2zm39.6 0v.2-.1zm15.6.3v.1zm-69.7 0zm53.8.1h-.1.1zm141.4 0 .3.1-.2.1v-.1zm.4.2.2.2h-.5l.3-.2zm-6.4.6v.2-.2zm.2 0c0 .3-.1.4-.3.5l.1-.2.2-.3zm-119.1.1c.1 0 .3.1.3.3h-.1v-.1l-.2-.1zm-15.8.5zm66.7 0v.2h-.3.1l.2-.1zm75.7.2h-.4.4zm-.3 0v.2-.1zm-155.8.3zm-42.7.6-.3.3v.1h-.2.1l.1-.1c.2 0 .2-.2.3-.3zm121.9 0zm-48 0 .2.2v.2l-.2-.1v-.1l-.1-.1c.1 0 .1 0 0 0zm16.4.4c-.2 0-.4.2-.5.4h-.5v-.1h-.5l-.2-.1H16681.5l-.2.2h-.3l.1.1-.3.2a.6.6 0 0 0-.5-.2c-.3 0-.5.3-.5.6l-.2.5.1.2h-.7c-.3 0-.5.2-.6.5-.3 0-.5.1-.6.3l-.2.5c0 .3.3.6.6.6l.2-.1h.1l.2.4c.1 0 .3.2.5.1a.8.8 0 0 0 .2.4h.1v.2c0 .3.3.6.6.6H16680.4c.1 0 .3 0 .4-.2h.1l-.1.5c0 .3.2.6.5.6l.4-.2c0 .2.2.3.4.3.1 0 .2 0 .3-.2h.1l.2.1.1.2c.1.1.3.3.5.3l.2.2.3.3h.7v.2c0 .4.2.6.5.6l.4-.1.2.1h.1l.3.3c0 .2.2.5.5.5l.2.2h.1c0 .4.3.7.6.7.2 0 .3-.1.4-.3h.1l.2.1.4.1h.4l.6.3h.4l.2-.1.3.1h.1v.2l.1.2.3.2c0 .4.3.7.6.7l.5.2c.2 0 .4-.2.5-.4h.1l.2-.4h.2c.3 0 .6-.2.6-.5v-.2l-.1-.3h.2v.2-.2h.1c.4 0 .6-.2.6-.5l-.1-.4.3-.3c.1 0 .3 0 .4-.2.4 0 .7-.2.7-.5 0-.1 0-.2-.2-.3l.2-.3-.1-.3v-.5l-.1-.1v-.8c-.2-.1-.3-.3-.6-.3h-.2l-.3-.2v-.2c0-.3-.3-.6-.6-.6 0-.1 0-.2-.2-.3v-.1l-.2-.2v-.1l.2.2-.1-.4v-.2l-.2-.1c0-.4-.3-.7-.6-.7l-.2.1h-.6c0-.1-.1-.2-.3-.2 0-.2-.2-.3-.3-.4h-.2l-.1-.2a.7.7 0 0 0-.5-.2l-.3-.4h-.7v.1l-.1-.3c-.1-.2-.3-.3-.4-.3h-.8l-.1-.1H16687.8a.6.6 0 0 0-.4-.2l-.4.2h-.1l-.5-.2-.3.1-.4-.1-.4.2c0-.2-.2-.3-.4-.3s-.4.2-.5.4l-.1-.1c-.2-.2-.3-.3-.5-.3zm9.8 3.6zm0 0zm-9.8-3.5c.1 0 .2 0 .3.2h-.3a2 2 0 0 0-.4.2c0-.2.2-.4.4-.4zm1.1 0c.2 0 .3 0 .4.2h-.7l.3-.2zm1.5.1.2.1h-.2zm1 0 .2.1H16687.3h.1zm-19.3 0h.1v.1zm106 .1.2.1a44.6 44.6 0 0 0 3.6 2l-.3.6a25.9 25.9 0 0 0-4.3 8v.4l-.3-1.8c-.6-3.9-.7-3.4.3-6.5a272.4 272.4 0 0 1 .8-2.8zm-87.8 0zm.9 0 .1.1-.1.1h-.1v-.1zm-18.7.1v.2l-.1-.1zm-17 0v.1l-.2.1.1-.1zm17.9 0c.2 0 .3.2.4.4h-.4s0-.2-.2-.2l.2-.1zm-.8.1zm46.5 0-.1.4zm-122.6 0c0 .2-.2.3-.3.4l-.3.2a3 3 0 0 0 .6-.5zm87.8.1c.2 0 .3.1.4.3v.1h-.5l-.3.1c0-.3.2-.5.4-.5zm8 0zm-7.3 0v.2h-.2l.2-.1zm2.7.2v.1-.1zm-32.3 0h.1v.1h-.1v-.1zm18.2 0 .2.2h-.2v-.1zm19 .2zm26 0zm-27.2 0zm-3.5 0zm-13.3.1c.2 0 .3.2.4.3H16670.7l-.2-.1h-.1l.2-.2zm9.6 0-.2.3-.1-.2h.3zm9.6 0h.3c.2.1.2.2.2.3h-.2l-.2-.1-.1-.1zm24.8 0v.1h.1l-.2.1v-.1zm-44.7 0 .1.1h-.1zm-.2.1v.1zm-78 0v.1l-.1.1v-.1zm88.6 0v.3h-.1l.1-.2zm-10.5.1zm10 0 .1.2-.1.2v-.3zm-9 .2.3.1v.2l-.3-.1v-.1zm.4.2v.2-.2zm-.4.1h.1zm8.1.1-.2.5h-.2c0-.3.2-.5.4-.5zm.4 0zm-.2 0 .2.1-.4.2.2-.2zm12.7.3v.1zm114 0-.1.4.1-.4zm-126.7 0v.3-.1h-.1l.1-.1zm-7.2 0 .3.3-.3-.2zm-81 0-.1.1-.1.1.2-.1zm87.4.2.1.1h-.2l-.3.1.4-.2zm14.5 0 .3.3h-.2v-.2h-.2v-.1zm-102.2 0-.2.1v.1l.2-.1zm87.9.2zm.2 0v.1zm-.5 0v.7c-.2 0-.3-.2-.3-.4v-.1l.3-.1zm-6 0h.1zm6.1.1h.1v.1l-.1.3V-3405.8zm-5.8 0 .2.3h-.2v-.2zm121 0 .1.1v.5a.4.4 0 0 1-.1-.3v-.2zm-114.8.2h.1-.1zm-5.9 0h.1v.1-.1zm5.8 0V-3405.4l-.1-.2v-.1zm-88.6 0h-.1zm122.7 0h-.1zm-35 .1c.1.2.3.5.6.5h-.1a.5.5 0 0 1-.5-.4v-.1zm-4.4 0 .4.1c.2.2.1.3.1.3l-.5-.1h-.1V-3405.7zm19.5 0v.1zm-19.8.1zm5.4 0v.2-.2zm.4.1.1.2h-.2v-.1zm32.5.2zm-72.6.1.1.2v-.2zm40.4 0zm-.3 0v.2h-.2v-.2h.2zm.2 0v.1zm32.6.2v.1l-.1.2v-.3zm-32.4 0v.2l-.1-.2zm.5 0zm-1 0 .1.1h.1l.1.2-.3-.2zm-4.4.2zm.2 0v.2zm.1 0 .1.1c.1.1 0 .1 0 .2v-.2zm4.9 0v.1zm.4.1v.2l-.3.3h-.1V-3404.5l.3-.1c.1 0 0 0 0 0zm.1 0 .1.1h-.1zm-91 .1h-.1v.2-.1h.1zm86.1 0c.2 0 .3.2.4.4l-.1-.1h-.4v-.2h.1zm-.6 0V-3404.1v-.1zm.3.2zm19.1 0c.2 0 .5.2.5.4h-.3l-.1-.2v-.2zm-14 0-.2.2.2-.2zm.6 0v.2-.2zm1.8 0zm-2 0 .2.3h-.2v-.2zm-5.3.2zm.4 0 .2.1h-.4.2zm35.5 0 .1.3c0 .3-.1.4-.3.5l.2-.5v-.2zm-30.7 0v.2h.1l.2.2v.1c-.3 0-.4-.2-.4-.4zm.5.1v.2-.2zm-5.6 0v.2h-.1v-.1zm4.6 0v.1l.2.4c-.1 0-.3-.2-.3-.4zm-4 0v.3h-.1v-.2zm4.3 0v.1l.3.4h-.1c-.2 0-.4-.2-.4-.4h.2zm.4 0v.1h.1-.1zm114 0v.2-.1zm-119.1.1zm18.9.1h.1-.1zm-13.6.1h.1v.1h-.1zm.4 0v.2-.2zm-.2 0zm2.7 0v.1zm-95.2 0c0 .2-.2.3-.4.4.2 0 .3-.2.4-.3zm93.2 0 .1.2h-.2v-.1zm-6.2.2h.1v.1h-.2l.1-.1zm5.8.1v.2h.2l.2.3v.2c0 .1 0 .2-.2.2a.5.5 0 0 1-.4-.5c0-.2 0-.3.2-.4zm.4 0v.1h.2c-.1 0-.2.1-.2 0zm-94.1.1h.3-.3zm88 0v.1h-.1zm17.4 0zm-16.8.2v.2l-.1.4v-.2l-.1-.1.2-.3zm19 0 .4.1v.2l-.1.1-.3-.2-.1-.1v-.1zm-13.7 0v.1zm.2 0zm113 0h.1zm-119 0zm6.3 0zm11 0v.1h-.1zm-11.2 0v.1zm.4 0v.1zm13 0v.1zm-12.8.1v.3l-.2-.2h.1zm-.6.1h.1v.2-.2zm.3 0v.1zm-.1.2h.2l.2.2h-.1l-.4-.1v-.1zm26.4 0zm-121 0-.2.1h.1zm95.1 0v.1zm27.2.1h.1-.1zm.6.1v.1l-.2.1.2-.2zm-27 0v.1zm26.4 0v.1zm.2.2zm84.5 0v.3c0-.2 0 0 0 0v.2a.5.5 0 0 1 0-.4zm-86.1 0zm-16 0v.1h-.1zm14.8.1zm-11.5 0v.2-.1zm14.5 0 .1.1h-.2.1zm-35.8 0v.1zm9.6 0v.1h.1l-.1.2v-.2zm8.6.1zm17.8.1v.1zm-34 0c.1 0 .3.2.3.5 0 .1 0 .3-.2.3v-.2c0-.2 0-.4-.2-.6zm8 0v.3h.1l-.3.2h-.1l-.1-.1v-.2l.3-.1zm11.2 0 .2.2v.1h-.1l-.2.1v-.1l.1-.2zm-19.5 0v.2h-.1v-.1zm0 .1h.1l.2.3-.3-.2v-.1zm34.1 0h.1v.1h-.1v-.1zm-2.8 0v.1zm2.7.1v.1zm.4 0 .1.2v-.2zm-34.6 0v.1zm34.5 0v.3l-.1-.1.1-.1zm-15 .1zm-19.3 0 .2.2v.1h-.1v-.1l-.1-.1zm19.8 0v.4l-.3-.1h.1l.2-.3zm10.9.1v.1-.1zm-120.8 0v.2-.1zm89.9.1zm35.2 0 .3.3h-.1l-.2-.3zm-35.4 0v.1zm19.4 0v.1zm-109 .1zm90 0v.1zm19.4 0c.1 0 .2 0 .3.2l-.3.1V-3401.5zm-10.5 0h.1v.1c0 .3.2.4.5.5l-.2.1a.5.5 0 0 1-.5-.5v-.1zm-43.6 0-.1.2.1-.1zm35 .1v.1zm-.6 0v.1zm19 0v.1zm16.6.2zm-15.6 0 .1.2c0 .2-.2.4-.5.4l.1-.3v-.1l.3-.2zm-10.5 0h.1v.1-.1zm7.2 0zm15.8 0zm3.3 0c.2 0 .4.2.4.4v.1h-.1c0-.2-.2-.3-.3-.4zm-4 0v.2l-.1-.1zm-12.9 0v.2-.1zm-18.3 0v.2-.1zm18.7.1zm-8.7 0zm122.3 0v.3-.3zm-223.3 0h.2-.2zm108.6 0zm1.4 0v.2l-.1.3h-.1l.1-.3v-.1zm-109.4.1c-.1.2-.2.3-.4.3v.1l-.3.3-.3.2.3-.2.2-.3h.1l.4-.4zm90.3.1v.2-.2zm13.3 0v.1zm-3.3 0V-3400.4l-.1-.2zm7.6.1zm1 0 .1.2v-.1zm-.3 0 .3.1v.2h-.3v-.2zm-.2 0 .1.2h-.1v-.1zm-4.1.1zm-3.9 0 .1.2v-.1zm8.8.1zm-1 0 .3.2-.2.1v-.2zm88 0 .2.1h-.2zm-106 0v.1zm10.3.2h.2l.1.3c-.1 0-.3-.1-.3-.3zm8 0H16694.6c0 .2-.1.3-.3.3h-.1l.1-.3zm18.3.1.2.1v.2h-.3l-.1-.1v-.1l.2-.1zm-36.2 0v.1zm10.3 0zm7.6.3.2.3c0 .2-.2.3-.3.4l.1-.4v-.3zm-.2 0 .1.3c0 .2-.1.3-.3.4l.2-.4v-.2zm-109.3 0v.1l-.3.3-.4.5-.1.2.1-.2.4-.5.3-.3zm127.3.2zm-24.9.2v.1l.5.2h-.2c-.2 0-.4 0-.4-.3h.1zm6.3.1zm77.4 0zm0 .1-.1.1zm-77.3 0v.1zm-4.3.1.2.1.2.2c-.2 0-.4-.1-.4-.3zm1 0v.2-.1zm.2.1zm-.6 0v.1h-.2.2zm-12.7 0 .2.1h-.2zm16 0 .1.1-.1.1v-.1zm-2.4 0v.2h-.2v-.1h.2zm-.7.2h-.1zm1.8 0zm-.8 0v.1zm2.4.1c0 .3-.2.4-.4.4h-.2l.2-.2.2-.1.2-.1zm-1.2 0h.1v.1h-.1zm.5 0v.1zm-.6 0v.1h-.2.1zm.7 0zm-1.7 0v.1c.1.1.2.2.2 0l-.3.4-.1-.3.2-.1zm.1 0 .2.1h.1-.2zm-14 .1v.1h-.1.1zm37 .1-.2.1h.2zm-22.6 0v.2l-.4.2c0-.2.2-.4.4-.4zm22.3 0v.1zm-20.5.2c0 .2-.2.3-.4.3l-.2-.1v-.2l.2.2.4-.2zm-15.4.1.1.2h-.1v-.2zm14 0h.1l.2.2h-.2.1c.1 0 .1 0 0 0l.2.1-.3.1v-.4zm.6 0v.2l-.1-.1zm-.7 0 .1.2v.1h-.2v-.2h.1zm-14 .1zm13.6.1v.5c-.2 0-.4-.2-.4-.4h.4zm1.1 0v.2-.1zm-1 .1c0 .1 0 .2.2.3h-.1l-.1-.1v-.2zm23.9 0h.1v.1h-.1zm-23 .1v.2h-.5v-.1h.5zm-.6 0v.1zm24 .1v.1zm0 .1.2.2-.2-.2zm-24 0c.1.2.2.2.3.2h.2l-.4.2-.3-.2.2-.1zm119 .1v.1l-.2.2.1-.3zm-114.4 0zm-1.7 0 .2.2h-.5l.3-.1zm100 .2zm-100.5 0-.1.3-.4.2c0-.3.2-.5.5-.5zm.1 0 .2.2-.2.2v-.4zm.7 0v.1l.1.1h-.2v-.1zm-16.9.1h.2-.3.1zm104.7 0-.1.1v-.1zm-87.6 0 .2.1c.1.2.1.2 0 .2v.2l-.2-.2v-.2zm-.4.1c.1 0 .2 0 .3.2h-.3v-.1zm116.5 0-.2.1h.2zm-115.4.1v.6h-.2v-.2h-.1v-.3h.3zm-1.4 0v.2-.1zm.1 0v.1zm-46.1.1c1.1 0 4 .6 6.8 1.7l1.3.3h.1l.2.2v.1l-.2.4h-.2l-.3.3-.3.2v.2h-.2l-.2.2h-.1a27 27 0 0 0-1.8 1l-.1.1h-.1l-.2.2c.2-.2 0 0-.1 0a46.2 46.2 0 0 1-4.5 1.7h-.5l-.2-.7a50 50 0 0 0-1.3-4.8v-.4h.1c.1-.2.3-.3.5-.3l1.2-.4zm45.6 0 .1.2v.2H16694v-.2c.1-.2.2-.1.2-.1zm.7 0 .2.1-.1.2-.1-.1v.1h-.1v-.2h.1zm76.2.1h-.2.2zm12.2 0zm-104.5.2zm.5.1h-.4.4zm.8.2c.2 0 .4.1.4.3v.1h-.2l-.1-.1-.3-.3h.2zm9.6 0c.2 0 .4.2.4.4v.1c0-.2-.3-.4-.5-.4h-.3l.4-.1zm27.9 0zm-37.8.1zm90.8 0v.4h.2-.2l-.1-.2v-.2zm-77.1 0v.2h-.1v-.2zm-4 .1c.3 0 .5.2.5.5a.6.6 0 0 0-.4 0v-.1l-.2.1-.2-.3.4-.2zm103.7 0v.3l-.1.1.1-.4zm-112 .1c.2 0 .3.2.4.3h-.2l-.2-.2zm8.5 0v.1zm3.2 0v.2l-.1.1h-.1v-.1l.2-.1zm.3 0v.1zm118.8.1h.2-.2zm-120.5.2h.2l-.4.3h-.1c0-.2.2-.3.4-.3zm-2.3 0v.2-.2zm95.3 0v.1zm-94.9 0 .3.2h-.5l.2-.1zm95 .1zm-102.1.1c.2 0 .3.2.4.4H16682.6v-.2l-.3-.1h.2zm6.8 0 .4.2.2-.1-.3.2-.3-.1v-.2zm-2.1.1.2.2h-.2l-.1-.1zm-6.2 0v.1zm131.6.1h-.1.1zm-121.6 0v.1h-.2.2zm-1 0v.3l-.1.2c-.2.2-.4.2-.6 0l-.1-.3h.3l.4-.1zm-1.7 0c.2 0 .4.2.4.4v.1H16688.3l-.2-.1h-.2c0-.2.1-.3.3-.3zm124.2 0v.1zm-125.7.2h.1l-.2.2v-.2zm-5.2 0zm88.8 0v.2h-.2l.2-.1zm-83.8 0v.2l-.2.2c0-.2.1-.3.2-.3zm-19.9.1a20.2 20.2 0 0 1 4.4.5l2.9.8h.3c.3.2.5.3.9.3l.3.1s.2.1 0 0l.2.1.3.1a9.2 9.2 0 0 0 1 .4l.3.1.3.1h.3c-.1 0 0 0 0 .1h.3l.2.2h.2a16.2 16.2 0 0 1 .6.3h.1l.6.2.6.3.5.2.3.3H16681.6l.4.2c-.2 0 0 0 0 0l.5.2a26 26 0 0 1 2.7 1.3h.1l.2.2a6.2 6.2 0 0 0 1 .4l.3.1.1.1.2.2.6.3a93.7 93.7 0 0 1 5.1 2.6l.2.6a67.5 67.5 0 0 0 1.2 3.4 144.8 144.8 0 0 0 2.7 7.4l-.6.1a20.9 20.9 0 0 0-3 .9l-.1-.1v-.3l-.2-.2v-.9l-.1-.3v-.5h-.1v-.5c0-.2 0-.4-.2-.5v-.6l.2-.5-.2-.6-.1-.4-.2-.3v-.4l-.2-.4c0-.1 0-.3-.2-.3v-.2l-.3-.6-.3-.4v-.2.1c0-.1-.1-.4-.3-.5l-.3-.1-.5-.5v-.1c0-.2-.1-.3-.3-.3l-.2-.1h.2l-.2-.4-.2-.1s-.2-.2-.5-.1h.2-.1a3 3 0 0 1-.5-.3l-.2-.1c-.2-.3-.4-.4-.6-.4-.2 0-.4.2-.5.4l-.2.2c-.1 0-.3 0-.5.2l-.1.5v1l-.2 1.2v.8c-.2 0-.2.2-.2.2v.4l-.4.4v.1c-.3 0-.4.3-.4.5h-.1l-.3.3-.3.4-.3.3-.2.1-.3.4v.3c-.2 0-.4 0-.6.2l-.1.4-.1.3-.4.3-.1.1-.1.3V-3374.5c-.3 0-.5.3-.5.6v.7c-.1 0-.2 0-.2.4v.3h.1v.2l.3.6.2.3.2.3.1.2v.1c0 .2.2.3.3.5v.2l.4.5-3 1a24.5 24.5 0 0 0-5.7 2.2l-.4.2-.7.4-.2.2-.1-.4-.2-.2a.6.6 0 0 0-.4-.1h-.2c0-.2-.2-.3-.3-.3h-.4c0-.1 0-.2-.2-.2-.2-.2-.4-.1-.6-.1 0-.2-.1-.3-.2-.3l-.2-.1c0-.2-.2-.3-.3-.4-.1-.2-.3-.4-.5-.4l-.2.1h-.6c-.1-.1-.1 0-.2 0-.1-.3-.3-.4-.5-.4l-.3.1-.4.1-.1-.1h-.7v-.1c-.1-.2-.3-.3-.5-.3s-.4.2-.5.4h-.2l-.4-.3c-.2 0-.2.1-.3.2h-.1l-.1.1h-.4v.1a1 1 0 0 0-.6 0h-.3l-.3.1a2 2 0 0 0-.3.1l-.2.2h-.1c-.1-.2-.3-.4-.5-.4-.3 0-.4.2-.5.4h-.3v.2h-.1c-.2-.2-.3-.3-.6-.3h-.1l-.3-.1-.5.1s-.2-.2-.4-.1H16658.5l-.3-.2h-.7c-.2-.1-.3 0-.4 0l-.2-.1a.6.6 0 0 0-.5 0l-.3-.1-.4-.2h-.2s0-.2-.3-.3H16654.3l-.2-.2-.3-.1h-.2l-.5-.2-.4-.2-.2-.3v-.7c.3-1.2.4-2.7.4-4.8 0-1.3 0-1.7-.6-3.7-.6-2.4-1-3.3-2.6-6.8l-1-2.5h.3a261.9 261.9 0 0 0 4.5-.6l1-.2c.3 0 .6-.2.8-.3l.5-.2h.3l.4-.2.3-.1.3-.2c.3 0 .5-.1.6-.3l.8-.6.7-.5a8.6 8.6 0 0 0 1.2-1c.2 0 .4-.1.6-.5l-.1.2.2-.2a10.3 10.3 0 0 1 1-.6l.2-.1.2-.1.6-.3a7 7 0 0 1 2.4-.6l.4-.1h.2l.2-.2c-.2.1 0 0 0 0h.4zm27.5 0-.1.1zm25.3.2v.2-.2zm72.5 0h.1-.3.2zm21.1 0v.2-.1zm-21 0v.2-.1zm-102 .1-.1.2h-.2l.2-.2zm80 0zm0 .1-.1.1zm-83.7 0zm4 0zm98.3.1-.1.1zm2.3 0 .1.2-.1-.1zm-148 .3.3.2a.4.4 0 0 1-.4-.2zm78 .7c.3 0 .4.2.5.4l-.3-.1-.1-.1v-.2zm-65.4.2-.1.3v-.3zm66.5 1c.1.1.3.2.3.4l-.2-.2-.1-.1zm45.6.2-.1.1zm0 .1h.6a59.2 59.2 0 0 1 4.2.5 21.5 21.5 0 0 1 1.3.3s.1 0 0 0l.4.1.3.1 1 .4a37.2 37.2 0 0 1 6.2 3.4 48.4 48.4 0 0 1 5.1 3.6 155.4 155.4 0 0 1 7.7 5.7l.6.5a22.3 22.3 0 0 0 2 1.4l.2.2h.1l.1.1.1.1a12.2 12.2 0 0 0 .7.5s.1.1 0 0l.2.1.1.1.3.3a112 112 0 0 0 3.6 2.8 46.3 46.3 0 0 1 5.4 5.3v.1c.1 0 0 0 0-.1 0 .2.1.2.2.3v.1l.3.3.1.2c0 .2.1.3.2.3l.3.3v-.1.3l.2.2.3.4v.2c0 .2.2.4.4.5l.2.4v.1c0 .2 0 .4.2.5l.2.2c0 .1 0 .1 0 0v.3l.1.2.2.2v.3s0 .2.2.3v.2l.2.2.1.3a5.4 5.4 0 0 0 .1 1c0 .1 0 .2.2.3v.4l.1.4.1.2v.3h.1v.6l.1.4V-3356l.1.6a4.5 4.5 0 0 0 .2.9v.1l-.1.3.1.4v.5l.1.3v1.5l.1.2c0 .2-.1.2 0 .4v.8l.2.2-.1.2.1.4v.5c-.1.2 0 .3 0 .4l-.1.2v1.4l.2.4v1.9c-.2.3-.2.6 0 .7V-3341.5h.1V-3340.3s0 .1 0 0v.2s-.2.1 0 .4v1.2l.1.3V-3338c0 .1-.2.2 0 .5a165.2 165.2 0 0 1-8-1.4c-2.3-.3-2.9-.4-6.3-.4h-3.1v-.3h-.1l-.2-.2-.2-.1H16794.8l-.2-.2v-.1c0-.3-.2-.6-.5-.6l-.3.1-.2-.3-.3-.1c0-.3-.2-.6-.5-.6v-.1a.8.8 0 0 0-.6-.3l-.2-.2-.2-.1-.1-.1H16791.4c0-.2-.2-.3-.4-.4v-.2a.6.6 0 0 0-.6-.2h-.3c-.1-.3-.3-.4-.5-.4a.5.5 0 0 0-.3-.1c-.2-.2-.3-.3-.5-.3v-.2l-.1-.1-.2-.2h-.4l-.2-.2-.1-.2-.3-.1h-.3l-.1-.3c-.1-.2-.2-.2-.3-.2h-.4l-.2-.2-.1-.1a.8.8 0 0 0-.4-.2h-.2l-.1-.4a.6.6 0 0 0-.6-.1v-.1l-.4-.2c0-.4-.2-.6-.5-.6h-.1a.6.6 0 0 0-.4-.2l-.3.1-.3-.2s-.2-.1-.4 0c0-.2-.1-.3-.3-.4l-.4-.3c-.1 0-.3-.1-.4 0l-.3-.1-.1-.3-.4-.2c0-.2-.2-.4-.5-.4l-.1-.1h-.4c0-.3-.2-.4-.5-.4l-.2-.1h-.1c0-.3-.3-.5-.5-.5h-.1v-.1a.6.6 0 0 0-.5-.3h-.4c-.2-.3-.4-.3-.5-.4l-.3-.3-.4-.1-.2-.2-.5-.3c0-.2 0-.3-.2-.3l-.2-.1h-.2c0-.2 0-.3-.2-.4-.1-.3-.3-.5-.6-.5l-.2-.1a.6.6 0 0 0-.5-.7H16772.9l-.3-.4v-.1l-.3-.1v-.1l-.1-.1c0-.4-.2-.6-.5-.7l-.2-.2h-.1l-.1-.1c0-.1 0-.3-.2-.4h-.3c0-.2-.1-.3-.2-.3l-.2-.2c0-.2-.3-.4-.5-.4l-.2-.3c0-.2 0-.3-.2-.4l-.3-.1v-.1c0-.1 0-.3-.3-.4h-.2l-.3-.3v-.2c0-.3-.2-.6-.5-.6l-.2.1v-.1l-.3-.4-.1-.4-.1-.1-.2-.2h-.1v-.1c0-.3-.3-.6-.6-.6-.1-.2-.2-.3-.4-.3 0-.2-.1-.3-.3-.4l-.2-.2c0-.1 0-.3-.2-.4a.6.6 0 0 0-.3 0v-.3l-.2-.3-.3-.3h-.3l-.4-.5v-.1c0-.3-.2-.5-.5-.6v-.3l-.2-.1c0-.1 0-.2-.2-.2h-.1l-.1-.1-.1-.1V-3366.2c0-.3-.3-.6-.6-.6V-3367.1a.6.6 0 0 0-.5-.3l-.3-.2c0-.2-.2-.3-.3-.4v-.1c0-.2 0-.3-.2-.5 0-.2-.3-.5-.6-.5h-.2c0-.2 0-.4-.2-.5 0-.2-.2-.4-.4-.5v-.2l-.3-.1h-.1c0-.2-.2-.3-.3-.3v-.8l-.4-.2v-.5l-.1-.2a24.4 24.4 0 0 0-.4-.1v-.2s-.1-.2-.3-.2a.8.8 0 0 0-.3-.4v-.2l-.5-.4.2-.5c0-.3-.2-.4-.4-.5 0-.3-.2-.4-.4-.5V-3376.6h-.2v-1l-.4-.2c.2-.1.4-.3.4-.5l-.2-.4.2-.3v-.5c0-.2 0-.4-.2-.5v-.5l.1-.2v-.5l-.1-.2s.3 0 .3-.3v-.2c.3-.1.3-.4.3-.5v-.1l.2-.4-.1-.2v-.4c.2-.1.3-.3.3-.5v-.2l.1-.4v-.2l.3-.5v-.2l.3-.2.2-.4.2-.3v-.2l.2-.2v-.1s.2 0 .2-.3c.1 0 .2 0 .3-.2l.2-.2h.2l.3-.3V-3388.2l.3-.1v-.4l.2-.1h.3l.2-.1c.3 0 .5-.2.5-.4h.1c.3 0 .5-.2.6-.4l.1-.1h.2l.3-.2c.3 0 .5-.2.6-.3h.2l.3-.1.2-.3h.2l.5-.2c.3 0 .4-.1.5-.3l.7-.3h.3l.1-.2h.9l.2-.1c.2 0 .4 0 .5-.2h.8zm-1 .1h-.1zm-.8.2zm50.7.2.2.1h-.2zm-.2.1zm-135.1.2v.1-.1zm42.4.6zm-67.5.3v.2-.2zm-.2 0c0 .2 0 .3.2.4l-.2-.3zm105.8.1-.1.2v-.2zm-37.6 0v.1c.1 0 0 0 0 0zm0 .2v.1zm94.2.3c.2 0 .4.1.4.3 0-.2-.2-.3-.4-.3zm-132.5.2v.2-.2zm74.8 0c0 .1 0 .2-.2.2l.2-.1zm-.6.2h.1zm58.7 0v.3-.2zm-58.6.1c0 .1 0 .2-.2.2l.2-.2zm58.7.1v.2-.2zm-93.8.3c.1 0 .2 0 .3.2l-.2-.1-.1-.1zm.4 0 .2.3h-.1l-.1-.3zm-38.7.3h.1zm132.6 0v.1zm-93.5.2c.2 0 .3.2.3.4h-.3v-.4zm.6.9h.1l-.1.1zm93.6 0 .3.6v.1-.1l-.3-.6zm-93.5.2.1.1h-.1v-.1zm.2 0c.2 0 .3.2.3.4h-.1l-.1-.2-.1-.2zm.2.5v.1-.1zm.2 0 .2.4h-.2l-.1-.1v-.2zm.6 1.3v.2-.2zm.2.2c.2 0 .2.2.2.3l-.1.3V-3385.4zm-.3.2zm-81.3 0 .1.1zm110 .4-.2.4v-.2l.1-.2zm-28.3.2c.1 0 .3.2.3.4h-.2c0-.1 0-.2-.2-.3v-.1zm-81.4.1h-.2.2zm109.5.2v.2c0 .1 0 .3-.2.3l.1-.4zm-110 0v.2-.2zm41.6.2c.2 0 .3 0 .4.2h-.8l.4-.2zm40.7.1.1.1h-.1v-.1zm27.2.2v.1zm-27.2 0h.2v.1h-.1zm26.9.1zm-68 0v.1zm68.5 0V-3383.2v-.2zm-27.2.1v.1zm-40.3 0v.1zm50.8 0-.1.1-.2.2.3-.3zm-10.4.1v.2-.2zm.2.1.1.3h-.2l.1-.3zm26.8 0v.2l-.1.1v-.2zm-110 .2.1.3-.1-.1v-.2zm110.1.1V-3382.7l-.1-.1.1-.2zm-27 .1zm8.8 0zm18 .1V-3382.5h-.1V-3382.8zm-26.8 0v.1zm-145.8 0zm172.5.2-.2.1h.2zm-17.9 0v.1zm17.6.2zm-26.1 0h.1v.1h-.1v-.1zm26.5 0v.2h-.1v-.1h.1zm-26 .1h.3l-.2.2v-.2zm-.2 0v.1zm5 0 .3.2H16734.2l.3-.1zm-5.2 0v.1zm4.3.2-.1.2h-.2l.3-.2zm-3.6 0v.2l-.1-.2h.1zm.2 0 .1.1h-.1zm3.6 0 .1.1v.1H16733.6l.2-.1zm-4 .1zm-145.6 0zm61.3.2v.3-.3zm84.9 0v.2-.1zm4 0v.1zm-149.4.1zm145.6 0zm-.4 0 .2.2h-.2v-.2zm3 0h.2v.1h-.1zm-1.2 0c.2 0 .3.2.4.3h-.4l-.2-.1.2-.1zm-1.1 0 .4.4h-.2l-.2-.2v-.1zm3 .2zm-2.3.1v.1zm.4 0 .2.2-.2-.1zm-3.5.2h-.1zm-83.5 0v.1zm-58.6.2zm.1.1.3.2h-.2v-.2zm58 0v.3s-.1 0 0 0l-.2.2h-.1c0-.2.1-.4.3-.4zm-58.1.3zm.2 0h.1zm.8.4c.1 0 .3 0 .4.2h-.3l-.1-.2zm56.4 0s0 .2-.2.2l.2-.1zm111.4.1zm-111.3.2zm111.4 0 .2.4-.1.2-.1-.2v-.3zm-.6.3zm-63 0-.2.1.1-.1zm.2 0v.3-.3zm-102.9.2c.2 0 .3.2.4.3h-.2l-.2-.2zm166.2 0v.2-.2zm-63.4.2h-.1.1zm63.6.1c0 .2 0 .3-.2.4l-.1-.1v-.2h.3zm-166 .1zm.2.1v.2-.1zm102.5 0zm-102.4.1.2.2-.2-.2zm165.4.1zm.1.1.2.3c0 .2-.1.3-.3.4V-3378.5h.1zm-69.6 0-.1.3v-.1l-.1.1s0-.2.2-.2zm6.6.2zm-50 0c-.1 0-.1 0 0 0v.1l-.1-.1zm-52.8.1zm52 0v.3l-.2.2h-.1c0-.2.1-.4.3-.4zm-50.3.2c.2 0 .4.1.4.3H16591.2s-.1-.2 0 0l-.2-.3h.1zm93.8.4h-.1zm0 .2-.2.2v-.2.2-.2h.1zm70.3 0 .1.1h-.2zm-164 0zm93.3.2v.1-.1zm-44 0v.1h-.2.1zm44.5.1zm-92.5.1zm.2.1h-.2.2zm91.6.1zm-91 0v.1zm46.3.3zm.5 0v.2-.2zm44.3 0v.2-.1zm-45 0v.1l-.2.2h-.1c0-.2.2-.2.3-.2zm-46 .2-.1.2v-.1zm45.6.1v.2-.2zm.5 0h.1v.1h-.1zm-.6 0v.2h-.2l.2-.1zm53.8.2v.1zm-97.1 0 .2.2v.1h-.3v-.2zm87.9.2v.2-.2zm-87.3.1c.2 0 .3.1.4.3h-.5v-.2h.1zm96.5 0v.2-.1zm-97.1 0 .2.2h-.2v-.1zm2.2.3c.2 0 .4.1.4.3l-.2.1-.2-.2h-.3c0-.2.2-.2.3-.2zm40.1.2zm117.8 0c.2 0 .2.1.3.3h-.2V-3375.3zm-118 0-.2.2.1-.2zm45.2.1h-.2.2zm-84.4 0 .3.3-.2-.1h-.2v-.1zm-.2.1h-.2.2zm157.6.2zm.2 0c.1.1.3.3.3.5l-.2.3v-.4l-.1-.3zm-156.3.1.2.1-.1.2h-.3l-.1-.1.3-.2zm1 .1c.3 0 .5.3.5.5h-.4c0-.2 0-.3-.2-.4h.1zm-1.6 0 .1.1zm83.1.4v.2h-.2l.2-.2zm-45.3.1.1.2v-.2zm-35.3.6zm154.7 0 .2.2-.2-.2zm-158.7 0v.1zm4.5.1.2.2h-.1v-.1zm-1.4 0v.1zm-2.8 0v.2h-.1v-.1zm37.2.3zm-32.4 0h.1l-.1.1h-.1.1zm154 0 .1.1v.1-.1zm-74.5.1zm-79.2 0v.1l.2.3-.3-.2h-.1l.2-.1zm.2.2.2.2h-.1l-.1-.2zm98.3.7h1.2a21.7 21.7 0 0 0 3.2.3 110.7 110.7 0 0 0 3.9.7 5.4 5.4 0 0 0 .7 0l.2.1h.3l.2.1 1 .2a19.4 19.4 0 0 1 3.3.9l.9.2h.1l.2.2h.2l.4.2.8.3 1.1.5h.4v.2l.6.2c-.1 0 0 0 0 0l.2.1.5.3h.2v.1a3 3 0 0 0 .8.4h.2l.2.3c.1 0 .2.2.5.2h-.1l.3.2h.3l.3.3.4.2c-.2 0 0 0 0 0l.3.3h.2l.1.2.5.3.2.1v.2l.2.2.4.2.1.2.3.1.1.3h.1l.1.3h.4l.2.3.3.3.4.2h-.2.1l.4.5.9 1 .1.5h.1v.1l.4.6.2.2.2.4a4 4 0 0 1 .3.4c0 .1 0 .4.3.5l.1.4.2.2.1.3v.5l.2.2.1.1v.2l.2.4v.2l.1-.1v.6l.3.4v.2c.1 0 .1.2.1 0 0 .4.2.6.3.8v.4l.2.4c0 .3 0 .4.2.5l.1.6.2.2v.2c-.1.1 0 .3 0 .4l.1.1v.2c-.1.1 0 .3 0 .4l.3.2v.8l.1.3.1.3v.1l.2.4.1.2v.1a1.3 1.3 0 0 0 .2.6v.4c0 .2.1.2.2.3V-3346.4l.2.2v.3l.1.3v.2l.1.4.2.3v.7l.1.2c0 .2 0 .4.2.5 0 .5 0 .9.2 1.2l.1.1V-3341.7l.1.2.1.1.3.4v.2l.1.2c0 .1 0 .3.2.4h-.2c-.2.3-.1.4-.1.5l.1.5v.5l.2.3-.1.1v.4c0 .1 0 .2.2.3l.1.2V-3336.7l.3.4v.4l.2.3.1.1.2.3v.2l.2.4v.6l.2.3v.1c-.1.1-.3.3-.3.5s.3.5.5.5c0 .2.2.4.3.5 0 .2 0 .3.2.5l.1.3.1.2V-3330.3l-.1.3v.3c.1.2.4.3.5.3l.2-.1v.3l-.2.1v.5c0 .2.2.3.3.4l-.1.2c0 .1 0 .3.2.3v.5a15.6 15.6 0 0 0 .3.2v.3l.2.4.1.2v.4l.2.2.2.5v.3h.1c0 .4.1.6.3.8l.1.1c0 .4.1.6.4.9v.2c0 .2.2.3.2.3v-.1l.1.2.1.5v.1l.2.2v.4c0 .3.2.5.3.5v.5l.3.1v.1s-.2.2 0 .5v.1c0 .1 0 .3.2.4h.1l.2.3s-.1.3 0 .4v.1l.3.4V-3317.4l.2.2.2.2v.2l.3.3v.6h-.2l-2.2-.8c-3.1-1-5.5-1.6-9.5-2.2a90.2 90.2 0 0 0-22-.3h-.4c-.1-.2-.2-.3-.4-.3l-.1-.1v.1c0-.3-.3-.6-.7-.6h.2a1 1 0 0 0-.3-.4l-.2-.1-.2-.2v-.1c0-.1-.1-.4-.4-.4h-.2.2l-.4-.5a1 1 0 0 0-.2-.3l-.3-.2-.3-.4-.1-.1s0-.1 0 0c0-.4-.3-.7-.7-.7h.1v-.2c0-.2-.2-.4-.4-.5h-.2v-.1l-.4-.5-.2-.1v-.2l-.2-.2c.1 0 0 0 0 0 .1 0 .2 0 .2.2 0-.3-.3-.5-.5-.5l-.2-.2-.4-.4h-.1l-.2-.4c.1.1 0 .1 0 .1v-.5h-.2v-.3h-.2a1 1 0 0 0-.2-.3l-.1-.1v-.1c0-.2-.1-.2-.2-.3l-.2-.1v-.2l-.3-.4h-.1l-.2-.2-.1-.2-.3-.3-.1-.3h-.1v-.2l-.3-.1v-.1h-.1v-.1l-.2-.4-.2-.1h-.2c0-.2-.1-.3-.3-.3v-.1l-.3-.3v-.2l-.2-.1v-.4a.6.6 0 0 0-.5-.3l-.1-.1h-.1v-.3l-.3-.3-.1-.1v-.1l-.2-.2h-.2.1l-.2-.1v-.2c-.2-.1-.3 0-.4 0 0-.2-.1-.2-.2-.3l-.1-.4a.8.8 0 0 0-.4-.3l-.2-.2h-.1c0-.3-.3-.6-.6-.6l-.3-.3-.3-.1-.1-.2h-.2a3 3 0 0 0-.7-.7l-.2-.1h-.1s0-.1 0 0c0-.2-.2-.3-.3-.4h-.2l-.2-.3a4.2 4.2 0 0 0-1-.5v-.3h-.2l-.3-.3h-.1c0-.2-.1-.2-.2-.3l-.2-.2-.3-.2h-.2c.2 0 0 0 0 0l-.2-.3-.2-.2c-.1-.3-.2-.3-.3-.3a1.3 1.3 0 0 0-.6-.2v-.2l-.3-.1c-.1-.3-.3-.4-.5-.5l-.3-.2-.3-.3h-.1l-.2-.3h-.3l-.3-.4-.3-.3h-.1v-.2c0-.2-.1-.3-.3-.4-.1-.2-.3-.4-.5-.4l-.4-.4v-.7h-.2l-.1-.2v-.4h-.1l-.1-.4-.1-.1v-.4l-.1-.1.1-.1v-1l.1-.5v-.5c.2-.1.4-.2.4-.4l.2-.4v-.8l.2-.2c.1 0 .3-.1.3-.3h.1c.2-.1.3-.3.3-.5l.2-.3c.1 0 .4 0 .5-.3v-.4l.1-.3v-.1h.4c.2 0 .3-.2.3-.3v-.2c.2 0 .3-.1.4-.3l.1-.2v-.1l.3-.2.1-.1h.2c.3 0 .6-.2.6-.5 0 0 .2 0 .3-.2h.1c.2 0 .3-.2.3-.3v-.1h.3l.1-.2h.2l.4-.2c.2 0 .4-.2.4-.4.3 0 .4-.2.5-.4h.4l.2-.3c.2 0 .4-.2.5-.4l.3-.1h.1l.4-.1.1-.1v-.1l.1-.3h.1l.2-.1c.1-.1.3-.3.3-.5v-.1h.2l.1-.3.2-.1.1-.2c.1-.1.2-.3.1-.5.3-.3.4-.6.4-.9v-.2l.2-.2v-.5l.2-.4-.1-.4v-.2l.2-.3V-3363l.2-.2v-.3l.4-.5h-.4c0-.3-.2-.5-.4-.6v-.1l-.1-.1v-.6a6 6 0 0 1 0-.9v-.2s.2 0 .2-.4v-.4l-.2-.1v-.3l-.2-.2v-.9l.1-.2v-1.1l.2-.2.2-.1v-.3l.3-.2.2-.2v-.2l.3-.1v-.1h.2l.2-.2h.4a24.2 24.2 0 0 1 3.6-.5zm3.1 47v.1zm-100.1-46.8c.2 0 .3.1.4.3h-.5l-.2-.1v-.1l.3-.1zm-2.6 0zm1.7 0v.1zm153.6 0v.1zm-153.7.1zm93.3 0v.1zm13.7.2v.2-.2zm-106 0 .4.2h-.2l-.2-.1zm92 .4h.4-.4zm-93.8 0v.1zm108.5.2h-.1.1zm46.5 0v.1-.1zm-125.2.1v.1l-.2.1v-.1h.2zm125.8.5h.1zm-154.7 0zm154.6 0zm0 .1zm-152.5.1c.2 0 .5.2.5.5v.1h-.1l-.3-.1v-.1h-.1v-.2l-.2-.1h.2zm78 0-.2.3v-.2h.1zm-.7 0v.3-.2zm75.2.1-.1.2.1-.2zm.8.3c.2 0 .2.1.2.3l-.2-.1v-.2zm-127.9 0a2.2 2.2 0 0 1-.2.2v-.1h.2zm-25.5.1.3.1v.1h-.2v-.2zm.6.4.2.1c.2.2.1.3.1.3l-.3-.2v-.1zm46.3.3v.1-.1zm-22.6.2h-.1zm129.9 0c.2 0 .3.1.4.3h-.2v-.2l-.2-.1zm-105.5 0 .3.1h-.4l.1-.1zm-48 0v.2-.1zm23.1.1-.1.1h.1zm36.7.3.3.1h-.2a.5.5 0 0 0-.5.1l.4-.2zm94 0h.2c0 .2 0 .2-.2.3l-.1-.3zm-153.7 0zm154 .1.1.3h-.2v-.3zm-153.8 0 .2.1.1.4v.1l-.1-.3-.2-.3zm58.2.1-.1.2-.2-.1h.3zm3.3 0 .3.2h-.2l-.3-.1h.2zm-11.7 0h.2l-.1.1h-.2.1zm-1.1 0v.2-.2zm-48.8 0v.1zm61.2.1.2.1h-.2zm-1.2 0v.1zm-9.9 0zm11 0v.2h-.1v-.1zm-5.9.1.3.2-.3.1h-.3c0-.2.1-.3.3-.3zm7.8.2h.3l-.1.1-.2-.1zm-41.2 0-.1.1h-.2l.3-.1zm27.8 0zm13.7.2h.2V-3367.3l-.1-.2h-.1zm-10.1 0zm10.4.2.1.2h-.1v-.2zm-63.1 0v.1-.1zm50 0zm103.8 0c.1 0 .2 0 .2.2h-.2v-.2zm-101.4.1zm36.4.2v.1zm-88.8.2zm20 .2zm44 .2v.2-.2zm90.8 0c.2 0 .3.2.3.4l-.1-.1s0-.2-.2-.3zm-37.7.2v.2-.2zm-116 .3.3.3-.2-.1h-.2v-.1zm17.7 0-.1.2h-.2c.2-.2.2-.2.3-.1zm99.3.2zm-116.8.1.2.1v.2l-.2-.3zm17.3 0v.2h-.1l.1-.1zm-17.6.1v.1h.2l-.2.1-.1-.2zm154.6.2h.1V-3365.1v-.1h-.2v-.2zm-154 0v.2-.2zm16.4 0v.1h-.1.1zm-16.5.2v.3V-3365.4zm87.2.2h-.2.2zm-87 0v.1zm117.3 0v.4-.4zm37 .2c.2 0 .4.2.4.4-.2 0-.3-.2-.5-.3v-.1zm-37 .3c-.1 0 0 0 0 0zm-117 .1.3.2h-.2l-.1-.1zm13.4.3h.1v.1c-.2 0-.2.1-.3.2h-.2c0-.2.2-.3.4-.3zm-13.2 0h.1-.1zm200.3 0 .2.3v.2l-.2-.4zm-200.1.1v.2l-.1-.1zm-1.9 0v.1zm2.2.1v.1zm117.8 0v.1zm-118 .2h.1v.2-.2zm.3 0v.4-.1h-.1v-.2zm96.4.2-.3.2v.1h-.4l.3.7.1.3.1.1.3.1c.1.2.3.3.5.3.3 0 .6-.2.6-.6 0-.2-.1-.3-.3-.4l-.1-.4-.1-.1-.4-.3h-.3zm-83.6 0v.1zm-12.6.1zm86.3 0v.2-.2zm-86 0c.2 0 .3.2.4.3h-.1l-.3-.1v-.1h-.1.1zm96.1.4.3.1-.1.1h-.1c-.1-.2-.2-.2-.2-.1zm-.1 0V-3362.4h-.2v-.4l.2-.1zm-98.1.1v.1zm13.1 0v.2-.1zm-10.3 0 .3.3h-.2v-.2zm-1.7.1zm1.6 0 .1.3h-.1v-.1zm95.7.1v.2h-.2l.2-.2zm-87 0h-.1.1zm87.4 0 .2.4c0 .3-.2.5-.4.5s-.3 0-.4-.2l.4-.1h.2v-.5zm-88.1.2.2.1v.2c0-.1-.1 0 0 0h-.6c0-.1.2-.3.4-.3zm-7.3 0v.1zm-.5.1h.2l-.1.1h-.1zm154 0h.1zm-152.6.1c.3 0 .5.3.5.5-.2-.2-.4-.2-.7-.1v-.2l.2-.2zm5.4 0 .2.1-.3.1h-.2l.3-.2zm-1 0c.2 0 .3.2.4.3l-.2.2H16616.5c0-.3.2-.4.4-.4zm148.3 0 .1.1v.2l-.2-.1zm-153.7.1.1.2-.1-.1zm.2 0v.1zm6.5 0v.1l-.2.1.2-.1zm147.3 0v.2-.1zm-69.5.2.2.2c0 .1 0 .2-.2.3v-.5zm-80 .1.3.1-.2.2-.3-.2h-.1.3zm-2.6 0 .2.1h-.4.2zm-1 0h.1v.1h-.1zm1.8 0 .4.3h-.3l-.2-.1v-.1zm-1.6 0 .1.1h-.1zm153.2.2.1.1-.1-.1zm-150.5 0v.3h-.3v-.1c.2-.2.3-.1.3-.1zm.5 0 .1.1h-.2zm-3.1 0 .1.1h-.1zm3 .2-.1.1v-.1zm150.2 0zm.2 0c.2 0 .3.2.3.4 0-.1-.1-.2-.3-.2v-.1zm-.3 0v.1zm-151.1.2zm-.1 0zm151 0v.2-.1zm.7.2h.2v.1h-.1zm0 0c-.1 0-.1 0 0 .1h-.1zm44.7.1.4.1h-.4zm-44.3.3h.1v.2h-.1v-.2zm0 0h-.1v.1l-.1-.1h.1zm-71.3 1zm72.2 0c.3 0 .5.3.5.5l-.3-.2-.2-.2h-.1.1zm-72.4.5v.1zm72.7 0zm43.8.2h.4c-.1.1-.3 0-.4 0zm-117.4 0zm73.2.3zm1.4.6h.2v.2h-.2v-.2zm43.1.2h.3-.3zm-168.8 0v.1zm50.6 0s-.1 0 0 .1l-.2.2.2-.2zm-1 .3v.1zm-44.9.1 1 .2h.2c.1 0 .2.2 0 0 .3.3.5.3.8.3a7.7 7.7 0 0 1 1 .1l.1.1.3.1a6.2 6.2 0 0 0 .8.1l.2.2h.4c-.1 0 0 0 0 0l.5.3a44.5 44.5 0 0 1 2.1 1l.2.1c0 .2.1.2.2.3l.5.2h-.1.1c.1.2.2.3.4.3v.2l.6.3v.2c.2 0 .3.2.4.3a2.2 2.2 0 0 1 .3.3v-.3.4l.2.2.3.3v.2c0 .3.3.6.6.6l.2.3v.2c0 .3.1.4.4.5v.1l.2.2v.5l.3.1.2.3v.5l.4.3h.1v.5l.2.3h.2l.2.2v.4l.2.3.4.4.1.2v.2l.2.3v.5l.5.4c0 .3.1.3.2.4v.1c.1 0 0 .1 0 0l.2.1-.1.2.1.3h-.6l1.3 1.1v.2c0 .4.2.5.3.6v.3l-.1.3.2.4.3.2V-3340.4c0 .2 0 .3.2.5v.3c0 .2 0 .4.3.5l.1.2v.1c0 .3.2.5.4.6h.1v.2c0 .1 0 .3.2.4l.1.4.1.1-.2.4c0 .3.2.5.4.6l.1.4c0 .3.2.5.4.6h.2v.2c-.3 0-.4.2-.4.5 0 .2.1.4.3.5v.2c0 .2 0 .4.2.5l-.2.3v1c0 .2.2.2.4.3h-1l-.1.2v.1l-.1-.1-.1-.1h-.2l-.1-.1H16665.2l-.4-.2c-.2 0-.4.2-.5.4 0-.1-.1-.2-.3-.2-.2 0-.4 0-.5.2-.4 0-.6.2-.6.5l-.2.2c-.1-.3-.3-.6-.6-.6-.4 0-.6.3-.6.6l.1.4-.1.4.1.4c0 .2 0 .4.2.5l-.3.4h.2l-.1.4.2.4.3.1-.1.2h.1l.1.4-.2.4-.3.1-.2.3c0 .2 0 .4.2.5l.4.2.1.2V-3324.8h.1l-.1.3.1.4c0 .2.2.4.4.5l-.1.1.1.3.2.5v.7c0 .3.1.4.3.5v.2c0 .2 0 .3.2.4v.3l-.2.4h-.6l1 .6v.2l-.2.6c0 .2.2.4.4.5v.2c0 .3.1.5.4.5v.3l-.1.2c0 .2.1.4.3.5 0 0-.1.1 0 .4l.2.2v.2l-.1.1v.4l.4.2v.4l.3.2v.4l-.1.2v.2l.1.1v.1h.2v.8l.1.4v.2l-.1.3c0 .3.1.4.3.5v.4l-.2.4c0 .2.1.4.3.5-.2.1-.3.3-.3.5l.1.2v-.2l.1-.3v.7l.1.3v1.2l.2.1v.1l-.1-.1.1.2.2.5-.2.4c0 .2.2.3.2.3v.1c-.2.3-.1.4 0 .6V-3304.6c-.1.2-.2.5 0 .7-.3 0-.5.3-.5.5l.1.2-.1.2-.2.5v.1l-.1.1v.1c-4.2.8-8.3 2.2-12.1 4.4l-.2.1a15.2 15.2 0 0 0-10.2-4.6h-8c-3 .1-5.8 1-8.3 2.8a32 32 0 0 0-10.2-2.6l-3.7-.2h-21 7c-4.3-7.9-7.9-16.3-10.4-25.2l-.2.1c.2 0 .3-.1.3-.3.2 0 .4-.2.4-.5l.2-.3.2-.1.1-.3c.2 0 .3-.1.3-.2v-.4l.2-.1.2-.5.2-.4V-3330.8l-.1-.2c.2 0 .4-.2.4-.5l.2-.2v-.6c.3 0 .6-.3.6-.6l-.2-.4V-3333.6c.2 0 .4-.3.4-.5s-.1-.4-.3-.5l.2-.4c0-.3-.3-.6-.6-.6l-.2.1v-.1c0-.2 0-.3-.2-.4.2-.2.2-.3.2-.5s-.1-.4-.3-.5v-.4c.2 0 .2-.2.2-.3v-.3l-.2-.1c.3-.2.5-.4.5-.6 0-.3-.3-.5-.5-.6.2 0 .5-.2.5-.5 0-.2-.1-.4-.3-.5l.1-.2v-.4h.1l.2-.2v-.2l.2-.3c.2 0 .4-.2.4-.5 0-.1 0-.3-.2-.4v-.6h.3l.2-.3v-.2l.2-.3v-.1s.1-.2 0-.4l.2-.3v-.2l.5-.1c0-.1.2-.3.1-.5v-.1l.2-.5.2-.2v-.1l.2-.2v-.1c.2-.2.3-.3.3-.5v-.1c.2-.2.2-.3.2-.5 0 .2 0 .1 0 0h.1l.1-.1h.2l.1-.3.3.1c.4 0 .6-.2.6-.6v-.2c.2 0 .3-.2.4-.4.2-.1.4-.3.4-.5h.2c.4 0 .6-.3.6-.6v-.1l.2-.3h.5c.2 0 .4-.2.5-.4h.2v-.2h.2l.3-.1.2-.3c.2 0 .4-.2.5-.3h.2v-.1l.3.1.2-.3c.2 0 .4 0 .5-.2v-.2h.7l.2-.2.3-.1.5-.1h.3l.4-.1c.2 0 .4 0 .5-.2h.8l.5-.1H16605.2c.2-.1.3 0 .5-.3.3.1.3 0 .4 0h.1v-.1s.2.1.4 0l.2.1H16607.5v-.1H16608.7l.1-.1.4.1c.2 0 .4 0 .5-.2l.3.1h3l.2-.2h1l.3.2h.2c.1 0 .3 0 .4-.2H16615.7c.2 0 .3 0 .5-.2l-.1.1h.4l.3.2.4-.1.3-.1.3.2h.3v-.1h.8l.4-.2.3.1H16621.4l.1-.1.5.2.4-.3h.4l.2.1h.5c.2 0 .3-.1.3-.2l.2.1H16625.4c.1 0 .3 0 .4-.2H16627.3v-.1H16628.6a1 1 0 0 0 .7 0h.3l.3-.1h.1l.5.1H16631.8c.2 0 .2 0 .3-.2H16632.8l.3.1h.6v-.1h.2c.3.2.4.1.5 0H16635l.4-.3-.2.1h.3s0 .2.2.2h.2l.4-.2h.6l.2-.2.3.2c.3 0 .6-.3.6-.6h1.1l.3-.4h.5c.2 0 .4-.2.5-.4h.1l.1-.1H16640.8c.2.1.3 0 .4 0l.1-.1h.4s.2.1.4 0c.2 0 .2-.1.3-.2l.5-.1.1-.2h1.5l.8-.1h.6l.5.1h1.1l.5-.1zm84 .1zm0 0v.1l-.3.1.2-.1zm-89.4.1h.1c0 .2-.2.2-.3.2l.2-.2zm49.8 0 .2.2-.2-.1zm-40.6 0v.3-.2zm118 0 .3.2h-.1l-.1-.1zm-37.8.1-.1.1zm-39 .2c0 .1-.1.2-.3.2l.1-.1h.2zm-52.9.4v.1zm51.6 0v.1zm78.9.2h.1v.2-.1.2l-.1-.3zm-78.6 0v.2-.1zm-53.8.2zm1 0-.1.1zm52.4.2-.3.2v-.2h.3zm80 .4.2.2h-.2v-.2zm-134 0-.3.2h-.2l.2-.2h.3zm-8.2.2v.1-.1zm2.5 0-.1.3h-.1c0-.2.2-.2.2-.3zm.1.1v.2-.2zm-4.5.1-.1.2v-.2zm-2.5.1v.2-.2zm65 0-.1.2v-.2zm-.5 0v.2-.1zm-61.4.1zm-13 .1v.2-.2zm41.6 0v.3-.2zm-32 .2h.1zm64.7.1c0 .3-.2.5-.5.5h-.1v-.1h.1v-.1c.2 0 .4-.1.5-.3zm123.4 0zm-40.8.3c0-.1 0 0 0 0zm-164.4 0c0 .2-.1.3-.2.3l.2-.3zm49.7.2zm-50.4 0h-.1.1zm50.3 0zm75.8 0v.2-.1zm40.1.1h.2v.3-.1h-.1v-.2zm-168.9 0zm.7 0v.1zm-.7.2v.1h-.1zm-2.7.1v.2-.2zm1.4.2v.1h-.1v-.1h.1zm.2 0-.1.1zm170.7.1.3.3h-.1l-.2-.3zm-172.7.1v.1zm86.3.2h-.2.2zm125.6.4h-.1.1zm-126.5.3v.2-.2zm87.8 0-.1.2.1-.2zm-115.7.3.4.4c-.2 0-.4-.2-.4-.4zm-60 .4c-.1.2-.3.2-.4.2l.3-.2zm220.4 0-.5 5.7c0-1.7 0-3.3-.3-5.4l.8-.2zm-6 .1zm-126.7 0v.2-.1zm-.1.4v.2-.2zm47.4 0v.4V-3351.2zm-136.1.1h.2l-.4.2.2-.2zm61.9 0v.2h.1l.1.3-.2-.4zm.6 0-.2.2.1-.1zm25.4.4h-.2.2zm.2 0h.2l-.3.2v-.1zm-89.9 0v.2-.1zm182.4.3c.2 0 .3.1.4.3h-.2l-.3-.3zm-181.7 0h.2c0 .3-.2.4-.4.5v-.1c.1 0 .2-.1.2-.3zm89 .2v.2-.2zm-89.3.1v.1h-.1v-.1zm182.9.3.3.2h-.1l-.2-.2zm-183.4.1h.1l-.2.2.1-.1zm89.6.4v.2h-.2v-.1l.2-.1zm94.8 0c.2 0 .3.2.3.3h-.1l-.1-.1v-.1zm-184.8.1c0 .2-.1.3-.3.3v-.2h.3zm89.6 0zm-91 .2zm66.8 0 .1.1.1.1v.2l-.1-.1v-.3zm24.5 0-.2.2v-.1h.1zm-90.3.2.1.2c0 .2-.2.5-.5.5v-.1l.2-.1.2-.5zm-.1.2zm218.4.1zm.1 0zm-31.7.3zm-120.3 0c0 .1 0 .1 0 0zm23.4.2v.2-.1zm-90.8.2zm-.5 0v.3-.3zm188.7.3zm1.3 0 .2.2H16783.2l.1-.1zm.5.2c.2 0 .4.2.4.5 0 0 0-.1-.1 0h-.2v-.1l-.1-.4zm29.2 0h.1-.1zm-29.4 0v.2-.1zm-191 .3zm142 .1zm50.2.7zm-192.8 0zm-.2.2v.1zm.8 0v.1h-.1zm91.6 0h.2l-.2.1zm51.1 0v.1l-.2.1.2-.1zm-143 .1.2.2h-.1v-.1zm92 0zm-92 .3h-.1zm0 .1v.1h-.2.2zm220.6.2zm-220.6 0-.1.3h-.2v-.1l.3-.2zm221 0zm-150.3.5h.3-.3zm124 .2zm-51.3.1h-.2.2zm52.8.2c.1 0 0 0 0 0l.1.1v.1h-.2l-.2-.1.3-.1zm-52.9 0zm.2.2h-.2.2zm-72.5.1zm0 .1h.1v.2-.2zm22.5.2.2.1h-.2zm.2.2v.1l.2.1-.2-.1zm103.7 0 .3.2h-.2v-.1zm-103.4.3.1.2h-.1v-.2zm-.6.1zm104.8 0 .2.1v.2l-.2-.3zm.6.5.2.1h-.2v-.1zm-104.8 0v.2-.1zm-95.4.3.2.3c0 .2-.1.3-.3.4v-.5l.1-.2zm95.8 0h-.2.2zm-22.1 0v.1zm148.9.2zm-222.8 0v.1zm-.3.1.2.1v.1h-.1v-.2zm.3.3v.1-.1zm222.8.2h-.2.2zm-20.7 0 .4.4h-.2l-.1-.2v-.1zm-202.6 0 .1.2h-.2l.1-.1zm74.1.2.3.2.1.3-.3-.1v-.4zm24.2.2.2.2c-.2 0 0 0 0 0l-.2-.2zm-98.4 0v.1zm203 .1v.1zm.2 0 .2.1v.2h-.2v-.2zm-.3.2v.1h-.1v-.1zm.2.1v.1zm1 0c.2 0 .4.3.4.6v.1h-.1l-.2-.1h-.1v-.1l-.2-.2v-.1l.1-.1zm19 .1.1.1h-.1zm-19.4.2v.1-.1zm19.5 0h-.1.1zm-124 0c.2.2.1.2.1.3v-.2zm-99.1.3.1.3c0 .3-.2.4-.4.5v-.4l.3-.4zm-.3 0zm100.2.1v.2-.2zm46.5 0v.2l-.1.3v.2a.4.4 0 0 1 0-.6zm-71.3.3h.1zm-.3 0v.3l.2.2c-.2 0-.3-.2-.3-.3v-.2zm130.3.1c.2 0 .1.1.1 0V-3339.3h-.2l-.2-.2h.3zm0 .4h.1-.1zm-205.4 0c.2 0 .4.3.4.6 0 .2-.1.3-.3.4l-.1-.2a1 1 0 0 0-.4-.4h.1l.3-.3zm147.6.3zm58 0v.1zm-130 .2h.1v.4l-.2-.3v-.1zm-75.6 0zm76 0zm147.3.5h.4-.4zm.2 0-.1.1zm-147.5.3.2.1v.1l-.2-.2zm-76 .3zm0 .1h-.1zm-.2 0v.1zm147.6.2zm-.2 0zm2.6.2zm-150 0zm152 .3h.2c0 .2-.2.2-.3.2h-.2v-.1h.1l.2-.1zm-75.2 0v.1zm-76.6 0c.2.1.3.2.3.4l-.2.4v-.3l-.1-.4zm215 0 .1.3-.1-.3zm-138.3 0v.4V-3336.8zm-.3 0v.3l.1.3-.2-.3v-.2zm75.7.2h.5v.1l.4.2.3.1h.1c0 .3.2.4.3.5h.4l.1.2h.3-.2l.3.3.3.3.1.1s0 .2.2.2h.5l-.2.1.2.2.7.6a4.6 4.6 0 0 0 .6.5h.1l.3.3h.1l.1.1a19.4 19.4 0 0 1 1 1h.2v.1c.1.2.3.4.6.4h-.2.2l.3.3h.1l.1.2.2.2a4 4 0 0 0 .5.5h.1l.1.1a13.2 13.2 0 0 1 1.2 1.3l.3.4c0 .1 0 .2.2.3v.1c0 .2.2.4.4.5h-.1a7.6 7.6 0 0 1 .7 1.2v-.1c0 .1 0 .3.2.5l.3.4V-3324.6l.1.9a2.3 2.3 0 0 0 0 .4l.1.2v.4l.2.7.1 1-.1.2s-.2 0-.2.4l-.1.3-.1.3v.3c-.1 0-.3.2-.1 0l-.2.4-.1.2-.2.5v1.2c0-.1 0 0 0 0l-.2.1-.1.1c-.2 0-.3.1-.3.2l-.2.3v.1l-.2.4v.1c-.2 0-.4.3-.4.5V-3315l-.1.2v.4a1 1 0 0 0-.3.3c-.2 0-.3 0-.4.2l-.2.1H16750.2a.6.6 0 0 0-.4-.2h-.2v-.1c0-.3-.3-.6-.6-.6h-.1v-.3l-.4-.2h-.1a1 1 0 0 0-.4-.3h-.2l-.1-.1-.2-.2v-.2c0-.2 0-.4-.2-.5h-.2l-.1-.3v-.4l-.4-.2a2.6 2.6 0 0 0-.2-.5l-.2-.3V-3318.6l-.1-.4v-.1c0-.2-.1-.4-.3-.5h-.1l-.1-.2v-.2c0-.1 0-.3-.2-.4 0-.2-.1-.3-.2-.3l-.3-.1V-3321.4l-.2-.2.1-.2-.1-.3.1-.3c0-.3-.2-.4-.4-.5 0-.2 0-.4-.2-.5V-3323.7c0-.2-.2-.4-.4-.5v-.4l-.1-.2v-.3l-.1-.3c0-.2-.2-.4-.4-.5v-.5l-.1-.3v-.2l-.2-.4v-.3l-.1-.1v-.1l-.2-.2-.1-.4h-.1v-.2c0-.2-.1-.3-.2-.3v-.1l-.1-.4.1-.3c0-.2-.2-.4-.4-.5 0-.1 0-.3-.2-.4v-.1l-.1-.2v-.3c0-.2 0-.3-.2-.4v-.7l.2-.5c0-.2-.2-.3-.4-.4l.1-.2.1-.2-.1-.4V-3335.4l-.2-.2-.2-.1.6-1 .2.2.4-.2zm-5 0h.1zm6.8 0v.1zm-154 .1.1.2v.1V-3336.6zm213.7.2H16805.3c.2 0 .3.1.4 0l.8.2a57.8 57.8 0 0 0 3.8.4h.1s0 .1 0 0l.4.2H16811.4l.4.2h.6c.3.2.6.3 1 .3l.7.2h.4c0 .1.2 0 .2 0l.2.2h.5c-.2 0 0 0 0 0h.3l.9.3.7.2.9.3a9.3 9.3 0 0 0 1.6.4l-1.6-.4-.9-.3-.7-.2c-1.2 5.5-2.9 10.9-4.8 16l-1-1c-2-1.7-4.4-3-7-3.6l-11.8-2.5c-1.5-.3-3-.4-4.6-.3h-.3c.1 0 .3-.2.3-.4 0 0 0-.2-.2-.3l.1-.3.2.1c.4 0 .6-.2.6-.6.2-.1.3-.3.3-.5s-.2-.4-.4-.5l-.3-.3.4-.1.2-.2v-.5h.3c.3 0 .5-.2.5-.5v-.3c.3 0 .5-.2.6-.4l.2-.4-.1-.2.2-.1h.3l.2-.3h.2l.5-.1h.2c.3 0 .6-.2.6-.6l.2-.2H16792.5c.3 0 .6-.2.6-.5v-.1h.2c.2 0 .4-.1.5-.4h.2c.3 0 .6-.2.6-.5v-.2h.1c.1 0 .3 0 .4-.3-.1.2 0 0 0 0l.4-.1.1-.2.4.1c.2 0 .3 0 .5-.2.2 0 .3 0 .4-.2.2 0 .3-.2.4-.3h.5l.3-.2c.1-.2.1-.2.6-.2h.5l.3-.1h.3l.3-.2h.1l.4-.2h.8l2.1-.2zm-136.9.2zm.2.1zm-.1 0v.1zm-76.7.1.2.4-.1.1-.1.2-.2.1v-.1l.2-.6zm76.8 0 .1.2-.1-.1zm28.4.1h-.3.3zm-28.4.1h.1v.2h-.2v-.2zm28.5 0v.2-.1zm-28.3.1v.1zm-79.2.1v.1-.1zm.2 0v.1zm152.8 0 .1.1v.2h-.1v-.3zm-45 0 .3.3h-.2s0-.1 0 0l-.1-.2zm-29 0v.1l.1.2a.4.4 0 0 1-.2-.2zm.5 0v.3l-.1.1h-.1l-.1-.2h.2v-.1zm129.8.1-.1.2v-.2zm-206.6 0c.2 0 .5.3.5.5l-.2.3c0-.4-.3-.6-.6-.6l.3-.2zm206.4 0-.1.3h-.3v-.1h.3l.1-.2zm-57.9.3zm-148.8 0c.3 0 .5.2.5.5h-.2l-.1-.2h-.2l-.1-.2.1-.1zm206.2 0v.1zm.1 0 .1.1h-.1zm-129.1.1h-.1zm-77 0v.1h.1zm150 0zm55.8 0c0 .1 0 0 0 0l.1.1c0 .2-.2.2-.3.2h-.2c.1 0 .3 0 .4-.2zm-206.3 0v.1zm148 .1zm-70.7 0zm0 .2h.2V-3334.5l-.2-.3zm-.1 0c0 .2 0 .3.2.3v.1l-.1.3-.1.1c-.2 0-.3-.2-.3-.4l.3-.4zm-77.2.1h.1v.1h-.1v-.1zm.7.1zm.1 0c.2.2.3.3.3.5l-.1.3v-.4l-.3-.2.1-.1zm147.5.1v.2-.2zm-147.6.1V-3334v-.1h-.1l.1-.2zm76.8.1v.1h-.1zm71 0h.1v.1h-.2.2zm-148.3.2h.1zm204.3 0-.2.2v-.2h.1zm-204 0 .2.2v.1c0-.1 0-.2-.2-.3zm156.5 0-.1.2v-.2zm-79.4 0v.1h-.1zm-.3.1zm127.2 0c0 .3-.2.5-.4.5l.1-.3.3-.1zm-127 .1zm126.5 0h.1c0 .2 0 .2-.2.3v-.2h.1zm-126.8 0 .2.1-.1.5-.2-.3.1-.2zm30.2.2h-.1zm50 0-.1.3v-.2h.2zm-79.9 0v.2l-.1.2v-.3zm70.6.1.1.4v.1l.1.3c-.2-.1-.4-.3-.4-.5l.2-.3zm-40.2 0zm95.7.2h.1l-.4.2h-.2l.1-.1h.3l.1-.1zm-126 0-.1.1h.1zm80 0zm45.4.3c0 .3-.2.6-.4.6l.2-.3v-.2l.2-.1zm-202.2 0 .1.2c0 .3-.2.4-.4.5l.2-.4.1-.3zm150.4 0 .2.3-.1.4-.1-.2v-.5zm7 0v.1h-.1zm-9.8.2h.1zm9.3 0h.1zm-158.6 0v.1zm79 .2h-.1zm123.8.2h.2-.1zm-124.3 0h.1v.2h-.1v-.2zm-.3 0a1.3 1.3 0 0 0 .2.4v.1h-.2v-.4zm73.9 0zm50.7.2c0 .3-.2.5-.4.5h-.2v-.1c.3 0 .4-.2.5-.4zm-.2 0-.1.1h.1zm-51.4.1zm46.9 0zm-47.7.1h-.1.1zm51.5.2h.1v.1c-.1.1-.3.1-.4 0h.3zm-.9 0v.1zm-.2 0v.2h-.1l.1-.1zm-125 .3.3.1-.1.2h-.6c0-.2.2-.3.4-.3zm-76.5 0h.1v.1s-.1 0 0 0zm201.3 0v.2-.1zm-199.7.1v.2h.1l-.2.2.1-.4zm77.5 0h.1c0 .2 0 .2.2.3v.2l-.1-.2h-.2l-.2-.2h.2zm73.8 0 .2.4v.1-.1l-.1-.1v-.2zm-42.2 0zm-35.2.1.4.1-.3.3c0-.2-.2-.2-.3-.3h.2zm125.7 0zm-90 .1zm-34.3 0-.1.1zm2.7 0 .1.1h-.1zm2 0v.1h-.1.1zm-2.7 0v.2h-.2l.2-.1zm-3.8 0-.1.3H16663l.4-.2zm1 0 .1.1v.1l-.1-.1zm125.1 0 .1.1.1.2v.1c0-.1 0-.2-.2-.3zm-126 .1.2.1-.3.1.1-.2zm.7 0 .1.3-.3-.1.2-.1zm-2.1 0 .4.5h-.5s-.2 0-.2.2l-.1.1-.1-.2c0-.3.2-.5.4-.5zm4.7.2zm83.7 0-.2.4c0-.1 0-.3.2-.4zm39 0 .1.2v.1l-.3.2v-.1l.1-.2c.1 0 0-.1 0-.2zm-125.7 0v.2H16663.5l.3-.2zm1.9 0v.1zm-1 0zm1.1 0v.1zm-.7 0v.1zm-.3 0v.2-.1zm122.8 0v.1h.1l-.1.1v-.1zm-.4 0 .2.3h-.2v-.2zm-123.2 0 .1.2v.1l-.1-.2zm122.2 0v.1zm-119 .1zm-77.7 0 .1.2v.2l-.1-.1V-3331zm73.7 0h.1v.2l-.1.1h-.1l-.1-.2h.2zm2.3 0 .1.2h-.2v-.1zm73.5 0 .1.2v-.1zm47 .1zm1 0v.3H16786.7l.1-.2h.1zm-124.2 0 .1.2h-.1v-.2zm125 0zm-121 0v.1zm122 .1v.2-.2zm-2.2 0-.1.3v-.2zm2.5 0zm-2 0 .3.1c0 .1 0 .2.2.3l.3.1h.1v.4l-.2-.1c-.3 0-.3 0-.4.2v-.2c0-.3-.1-.5-.3-.5v-.3zm-87 0 .2.1h-.1zm87.5 0 .2.1v.1h-.2v-.2zm-125.4 0-.1.2h-.2l.3-.2zm123.5 0v.1l-.1.1.1-.1zm-123 0v.1zm126.2.1h.1v.2h-.1v-.2zm-.3 0v.2-.1zm-126.2 0v.1h-.2.2zm.4 0zm126.7 0c0 .2-.2.3-.4.3v-.2h.4zm-50.2 0v.2-.1zm-69.4 0v.1zm115.2 0v.4l-.1-.2v-.1zm1 0v.1h-.1zm-123.2.1zm76.1 0 .1.1c0 .3.2.5.4.6a.6.6 0 0 1-.5-.2v-.4zm46.8 0v.2h-.1l.1-.1zm2.7 0 .1.1-.1.1h-.1v-.1zm-126.5 0-.1.1h.1zm121.6 0v.1zm-194 .1zm196.3 0zm1 0c.3 0 .5.2.5.4 0 .3-.3.5-.5.5a.5.5 0 0 1-.5-.5s0-.2.2-.3h.4zm-2.3 0zm.8 0zm-123.2 0-.1.1zm.3 0v.1zm.7 0v.1zm120.5 0v.2-.1zm1.2 0c0 .2.2.3.3.3v.1l-.3.3c-.2 0-.4-.2-.4-.4h.2l.2-.2zm0 0v.1zm1.2 0v.1h-.2.2zm.3 0v.1zm-35.3 0v.1zm-11.7 0v.1zm-77 .1-.2.2.1-.2zm121 0h.1v.1h-.1zm4.7 0 .3.1h.5v.2c0 .3-.1.5-.4.5l-.2-.1-.2-.2v-.5zm-124.8 0zm117.7 0v.2-.1zm4.5 0zm-123.4 0v.2-.1zm77.2 0v.1zm44.5.1zm2 0h.1v.2h-.1l-.2-.1h.1zm.7 0-.2.3c0 .3.3.6.6.6l.3-.1-.1.2v.4l.5.2h-.1c-.3 0-.6.3-.6.6 0 .1 0 .2.2.3l-.1.3-.2-.1c-.3 0-.5.2-.6.5l-.2-.1-.4.1c-.4 0-.7.3-.7.6s.3.5.5.6l.3.3-.7.2c0-.2-.2-.3-.4-.4v-.1c0-.3-.2-.6-.5-.6-.4 0-.6.3-.6.6v.1h-.2.1v.3c-.2.1-.2.2-.2.3l-.3-.3v-.2c.2-.2.3-.1.3-.1l-.4.1v.2h-.1c-.3 0-.6.3-.6.6v.2l-.3-.1h-.5.1l-.2.1h-.5l.3-.3c.2-.1.3-.3.3-.5 0-.3-.2-.4-.4-.5v-.1l.1-.2a.6.6 0 0 0 .8-.6v-.3l-.2-.1.4-.2.2-.4-.2-.4a.6.6 0 0 0-.5-.2v-.1h.2l.3-.1h.2c.2 0 .4-.1.5-.3.3 0 .6-.3.6-.6h.2c.2 0 .3 0 .4-.2l.2-.1.3-.1c.1.2.3.3.5.3s.4 0 .5-.2l.4.2c.3 0 .6-.2.6-.5zm-5.5 5.6.2-.1h-.2zm2.2-1.1zm-43.8-4.5v.2-.2zm-77.8 0 .1.3v.1l-.1-.2v-.2zm.4 0v.1zm79.8 0 .2.4v.2-.1l-.3-.4zm41.8 0c0 .1 0 .2.2.2h-.3v-.1h.1zm3.3 0v.2-.1zm1.6 0v.2-.1zm-3.1.2H16786l-.3.2-.4-.2zm-84.4 0v.2-.2zm81.8 0v.1zm-120.7 0v.1h-.2.1zm121.3.1.3.1-.3.1h-.2v-.1h.2zm-83 0h.2l-.2.1h.1zm82.3 0v.1zm-113.1 0v.2-.1zm-7.8.1v.2-.2zm121 0v.1zm4.8 0 .4.3.1.3v.2h-.3a.6.6 0 0 1-.5-.2v-.4l.3-.1zm-5.1 0 .1.1v.1h.1v-.1.1l-.2-.1zm.5 0 .1.1c0 .3-.2.5-.4.5V-3329.6c.2 0 .2-.1.3-.2zm-82.3.1zm-38.6 0zm120.2 0 .2.2-.2-.1zm-120.6.2h.2v.3c-.2-.1-.2-.2-.2-.3zm120.6 0h.2v.1h-.2zm5.5 0-.2.2h.2v-.2zm-125.7 0h.1v.3h-.1v-.2zm8.5.3zm-8.3 0v.1h-.1zm120.1 0 .1.1c0 .2-.2.3-.4.3h-.1v-.2l.2-.1h.2zm-.7.3h-.2.1zm.1 0zm-40 0v.1zm-80 .2.2.3v.5l-.2-.1a.4.4 0 0 1 0-.6zm.2 0h.2v.1h-.1zm-74 0v.1zm78 .1v.1zm121.5.1c.1 0 .2 0 .3.2-.4 0-.7.2-.7.5v-.2c0-.3.1-.5.4-.5zm-122.4 0v.1zm1.2.1v.1zm115.1 0 .1.3v.1h-.1c0 .2-.1.2-.2.3h-.1v-.5h.2v-.1h.1zm.2 0 .1.2.2.4-.1.3h-.4l-.2-.1c.3-.1.4-.3.4-.5v-.2zm-193.3.1c0 .2 0 .3-.2.4V-3328.2h.2zm199.4 0 .2.1v.5h-.1v-.1h-.5c0-.2.2-.4.4-.4zm-.2.2v.1-.1zm-199.5 0v.2-.2zm200 0 .2.3c0 .2 0 .3-.2.4V-3328zm-201.8.1zm81.2 0zm-2.8 0v.1zm.7.1v.1zm122.2.2h.2l-.2.1h-.2l.2-.1zm-84.9 0v.2-.1zm-33 .1-.1.2v-.2zm117.5 0h.2l.1.3.3.1h.2c0 .2-.2.4-.4.4h-.2v-.1c0-.2-.1-.3-.3-.5l.1-.2zm.7 0 .1.2h-.5.1l.3-.2zm-125.6 0 .2.2-.1.1-.1-.2zm118.3 0 .1.2h-.1v-.1zm-78 .1v.1zm84.3.1.1.1c0 .2.1.4.3.5l-.1.2-.3-.1h-.2l-.3-.3c0-.2.2-.4.5-.4zm-6.4 0zm.9 0v.1h.2V-3327a.5.5 0 0 1-.5.5v-.2l.2-.2v-.2c.1 0 0-.1 0-.2zm-110.9.1zm110.6 0v.2h-.1v-.1zm-78.4 0-.1.1zm-40.2.1zm-.2.1h.2l-.3.3.1-.3zm-61.6 0c-.2 0-.3 0-.5.2l-.1.3.1.5.4.2.4.2c.3 0 .6-.2.6-.6 0-.2-.2-.4-.4-.5v-.1a.6.6 0 0 0-.5-.2zm0 .1.3.2c-.3 0-.6.2-.6.5v.2l-.1-.3.1-.4.3-.2zm186.2 0h-.1v.1h.1zm-.8 0h.2v.1l.1.4v.1h-.2v-.2h-.1l-.2-.3h.2zm-.5.1-.1.4.1.3v.2c-.3 0-.5-.2-.5-.4s.2-.5.5-.5zm.8 0 .1.3-.1-.2zm-.7.1c.2 0 .3.2.3.3l-.3.2v-.5zm-184.7 0 .1.4-.1.1v.1c-.1.1-.2.2-.4.1v-.4h.2c0-.1-.1 0-.1 0 0-.2.2-.2.3-.2zm-13.6.1zm74.7 0-.1.4v.5l-.1-.1-.1-.3.1-.4h.2zm124.8 0 .2.2h-.4l.2-.1zm-185.6.1.2.3c0 .3-.2.5-.5.5l-.3-.1c.1 0 .3 0 .5-.2 0-.1.2-.3.1-.5zm-14.3 0zm-.2.1zm116.3 0zm83.4 0v.2-.2zm.7 0 .1.4c0 .2-.2.4-.4.4 0-.1 0-.2-.2-.3l-.1-.1V-3326.4l.3.1.3-.1zm-199.4 0c0 .2-.1.2-.2.3h-.1l-.3.2c0 .2-.2.3-.5.3h-.1l-.2.2-.1.2.1-.2.2-.2h.1c.3 0 .4-.1.5-.4h.3l.1-.1.2-.2zm196.3.1c.3 0 .5.3.5.5H16783.6c0-.2.2-.5.4-.5zm2 0-.2.3-.1-.1.2-.1zm0 0 .2.1v.1l-.2.1v-.2zm.8.2h-.1.1zm-.5 0zm-.7.1h.2l-.2.2v-.2zm-82 0V-3325.7v-.2zm82.6.1.2.3h-.2v.1l-.4.1.1-.4h.1l.2-.1zm-5.6 0v.2l-.1-.1h.1zm.2 0c.2.1.3.3.3.5 0 .1 0 .2-.2.3 0-.3 0-.4-.2-.5v-.2zm5.6 0v.1zm-.6 0-.2.4v-.2l.2-.1zm.8.1v.2-.2zm-43.4 0 .1.3h-.1v-.3zm40.7 0 .2.1-.2.3h-.2v-.2l.2-.2zm-198.1 0v.1zm198.6.1v.1zm-198.5 0v.1zm198.3.1v.1c0 .1 0 .2-.2.2 0-.2.1-.2.2-.3zm.3 0 .4.4-.5.2v-.2h.1v-.4zm2 0zm-6 0v.1h-.2.2zm.1 0v.1zm2.9.1v.2-.2zm-40.3 0 .2.1v.2h-.2v-.2zm36.8 0v.1zm.7 0 .2.3v.2H16780.5v-.1h-.1v-.3h.2zm-76.3 0 .1.2v-.1zm-118.8.1v.2-.2zm198.7 0v.1l-.1.3-.2-.2.3-.1zm-4 .2zm2.8 0h.1c.1 0 .1 0 0 0zm.5 0v.2l-.1-.2zm-1 0 .1.3v.1l-.2.4-.2-.2v-.2c0-.2 0-.4.3-.4zm-39.1 0v.2-.1zm39.3 0 .2.2h-.2v-.2zm.6 0 .1.3v.1l-.3-.1.2-.2zm-40.1 0v.1zm40.5.1.1.2h-.1v-.2zm.2 0v.2-.2zm-3.7.2v.1h-.1v-.1zm-37 0 .1.1-.1.1v-.2zm39.7 0v.1zm-2.2 0h-.2.1zm2.4.1h.1v.1-.1zm-.4 0c0 .2.1.2.2.2l-.3.1h-.1l.1-.2zm-119 .2zm-1.2 0zm118 0 .2.2v.1h-.2v-.2zm-.6.1zm1.4 0zm.2.2.1.1v.1l-.1-.2zm.2 0 .2.2h-.1v-.2zm.2 0 .1.1zm-118.1 0v.1zm116.6 0 .1.1h-.2.1zm1 .1v.1h.1v.1h-.2v-.2zm-.2 0v.1zm-196 0zm195.3.1v.2h-.2l.2-.2zm-36.8 0 .2.4h-.1v-.1l-.1-.2zm37.1 0v.2-.1zm.2 0v.1zm-37.4.1v.2c.1 0 0 0 0 0s0-.1 0 0v-.2zm-81.2.1.2.1v.1l-.2-.2zm-77.3 0c0 .2 0 .3-.2.4l.2-.3zm-.5 0v.1zm196.5.2zm-117.9.2zm-.6 0v.2-.1zm114.4.3zm-32.9.1v.1zm-160.2.2zm160.4 0c.1.2.3.3.3.5l-.1.2-.3-.1v-.5zm-160.4.1zm160 0v.1zm-81 .2v.2-.2zm81.2.3V-3322h-.1v-.2zm.2.1.1.1h-.2.1zm-81.4.1.1.3v.2l-.2-.3.1-.2zm81.6.1v.4l-.2-.1h-.2v-.2h.4zm-37.4.1zm-44 .1.1.1v.1-.2zm81 .4h.1zm-36.3.1h-.1zm36.7 0 .2.2c0 .1 0 .1 0 0v.1h-.1l-.1-.3zm33 0h.1zm-33.2 0v.2-.1zm0 .1h.1zm33.2.1v.1zm-194.9 0 .1.3v-.2zm161.7.1v.1zm.2 0v.2-.1zm-80 .1h.1v.1zm90.2 0 .2.1h-.2zm-91.4.1h.1v.1zm81.4 0 .1.3-.1-.2zm-36.5.2h-.3.3zm36.7 0v.1-.1zm-2.2.2v.1-.1zm2.3 0v.2h-.2v-.1h.2zm-81.7.1v.2-.2zm82 0 .1.4h-.2v-.3zm8.9 0 .1.4-.1-.3zm-9.4.2h.2v.2h-.1l-.1-.2zm.3.2v.2-.1zm.1.1h.2v.1h-.1v-.1zm.2.4h.2-.1zm.3 0v.1zm0 .2.1.1h-.2zm-82.2 0v.2c.1.2.3.2.4.3l-.1.2v.2c-.3-.1-.5-.3-.5-.5l.2-.3zm82 .2h.2v.2h-.1v-.2zm.3.1.1.1h-.1zm-.3.1zm.2.2v.2l-.2-.1h.1v-.1zm-82 .4h.1c0 .2 0 .4.2.5-.2 0-.3-.2-.3-.4v-.1zm82 0v.1zm-81.6 1.1.1.1.1.2v.1l-.2-.3zm89 .2h.4-.5zm-138 .3c-.3 0-.5.2-.5.6 0 .2.2.4.4.5v.1l.2.1.2.2c-.3 0-.6.2-.6.5 0 .4.3.6.6.6s.6-.2.6-.6c0-.2-.2-.4-.5-.5 0 0 .2.1.4 0 .1 0 .3 0 .4-.2v-.7a.7.7 0 0 0-.4-.3h-.3c-.1-.2-.3-.3-.4-.3zm0 0c.2 0 .3.1.3.2h-.1s-.2 0-.3.2c-.1 0-.2.3-.1.5l-.2-.3c0-.3.2-.5.4-.5zm129.2.2v.1zm-79.3.2zm19 0 1 1c2.3 2.4 4.7 4.4 6.2 5.4h.1a87.1 87.1 0 0 0-4.3 3.8l-.4.4-.2-.8c-.5-2.7-1.7-7.5-2.4-9.6v-.2zm-68.3.1h.1v.5-.2h-.1v-.2zm-.1.1v.1h-.1zm-.2.1v.2-.1zm137.2.2zm-137 0s.2.1.2 0v.2l-.3.2-.2-.1v-.1l.3-.2zm136.6 0v.2h-.2l.2-.2zm0 .3v.2h-.1v-.2zm.2.2zm0 0h.2-.1zm-137 .2c.2 0 .5.2.5.5 0 .2-.3.4-.5.4a.5.5 0 0 1-.5-.4c0-.3.2-.5.5-.5zm49.8.1zm83.1.1.1.2v-.2zm-133 .1v.1h.2-.1zm133.7 0c.2 0 .3.2.4.5l-.1-.1h-.3v-.2l-.1-.1zm-1 .3zm3.9.2h.1-.1zm-30.4 0 .1.2h-.2.1v-.1zm-2.4.1h.2l-.3.2v-.1zm.6 0h.4v.2h.7l.2.1.3-.1.3.1h.5l.5.1h.1l.1.2.3.1.5-.1h.5c0 .2.3.4.6.4.2 0 .3 0 .5-.2h.5c0 .3.3.5.5.5s.4-.2.5-.4v.1l.2.1h.2l.1.1c.2.2.4.2.5.2.2 0 .3 0 .4-.2H16728.6l.3.2h.4l.1.1.4.2.3.2h.2a.7.7 0 0 0 .6 0h.4c.1.3.3.5.5.5h.7c0 .1.2.3.5.3l.2-.1.3.2.2-.1h.2l.4.1h.2c0 .2.2.3.3.3h.3l.4.1h.4c0 .3.2.6.5.6l.4-.1h.1l.6.2c.1.2.3.4.5.4h.1c.1.2.3.4.6.4.2 0 .3-.2.4-.3h.1l.2.2h.3c.1.2.3.3.5.3h.2l.3-.1c0 .2.2.3.4.4l.4.2c.2 0 .4-.1.5-.3l.1.1h.2c0 .3.3.5.5.5l.2-.1h.6l.2.2v.1s.1.2.3.2h.4l.1-.2.2.1c0 .2.2.4.5.4h.8l.1.2.3.1c.1.2.3.3.5.3l.4-.1.3.1H16748.3l.1.1.4.3c0 .1.2.3.4.3l.3-.2v.3l.6.2H16750.3c.1.2.3.3.5.3l.2-.1.2.1c0 .2.2.3.4.3l.5-.1.4.1h.4l.1.1.2.2c.1.2.3.3.4.3h.4l.5.2h.1l.2.2h.1c0 .1 0 .2.3.2l.3-.1s0 .2.3.2l.3-.1.2.2h.3v.1h.3v.1l-12.1 10c-2.6-5-7.7-8-13.3-8.2h-7.4c-3.8.2-7.5 1.7-10.2 4.5a15.2 15.2 0 0 0-10-4.5h-8 5v-.5h-.1l.1-.2v-.4h.4v-.2.1l.2-.3V-3304l.2-.5h.1v-.2l.3-.2c0-.2 0-.3-.2-.4v-.1l.2-.3.3-.3h.2l.2-.2v-.2c.2 0 .2-.1.3-.2v-.1h.1V-3307h.2v-.1l.2-.2-.1-.2v-.1h.3v-.2h.1v.1-.3h.2-.1.1v-.2c.2 0 .3-.1.3-.2l.2-.4.3-.2.1-.2.3.1.4-.1h-.4l.2-.2H16705.8v-.2l.1-.1.2-.3H16706.4l.3-.3.3-.1.2-.2h.1v-.2l.2-.1v-.1h.1v-.1h.1c.2 0 .3 0 .4-.2h.2c.2 0 .2-.2.2-.3l.7-.2v-.1h.2c.3 0 .4-.2.5-.3l.3.1h.1l-.1-.2h.5l.1-.2H16711.4l.3-.4H16712.6v-.1h.2v-.2H16713.5l.1-.2v.1l.5.2h.2l-.3-.2h.6l-.3.1h.1c.2 0 .3 0 .4-.2h.1c.2-.1.2-.2.2-.3h.3v.1h.2a.5.5 0 0 0 .3.1l.2-.1h.1v-.2h.2l.5.2c.2 0 .3-.1.3-.2h-.4l.2-.2h.2l.2.1h.4c.3 0 .6 0 .9-.2.1.2.3.4.5.4h.2l-.2-.2c.2 0 .4-.1.5-.3h.1c0 .2-.2.3-.3.4.2 0 .4-.1.4-.3zm1.3 0zm1.3.1h.2v.1h-.3.1zm.7 0v.1l.1.2h-.3l.1-.2zm-.3.1zm-7.8.1v.1-.1zm35 0zm.3 0V-3313.5v-.2zm.5 0V-3313.5l-.1-.2zm-.8.1zm-25.4 0zm25.5 0zm.4 0 .1.2h-.2l.1-.1zm-.5 0v.1zm-25.7.1v.1h.3c0 .2.1.2.3.3h-.1c-.3 0-.4-.2-.5-.4zm25.7 0 .2.1h-.2zm.7.2v.1-.1zm-25.9 0h.2v.1l-.2-.1zm-11.4 0zm13 .1h.2c0 .2-.2.4-.4.4l-.4-.3h.5v-.1zm-11.7 0zm-1.1 0v.1zm14 .1zm-14.7.2-.2.2c.1 0 .3 0 .3-.2h-.1zm15.8 0v.1h-.2.1zm-63 0v.2l-.1-.1zm62 0 .2.1H16727.6h.2zm-16 .1zm-46.2.3v.2-.2zm89.4.3s.1 0 0 0c0 .3-.1.3-.1.2l.1-.2zm-89.1 0v.1h-.1v-.1zm44.7.2zm20.8 0h.4l.1.2h-.1c-.2 0-.3 0-.4-.2zm-65.7 0 .1.2v.2l-.2-.3h.1zm67 .2h.1l.2.1v.2c-.3 0-.4-.1-.5-.2l.2-.1zm-67.2.2.2.2v.2l-.2-.4zm70 .2-.1.1h.1zm-69.4.4v.1zm70 .2c0 .1 0 .3.2.4h.2a.5.5 0 0 1-.5-.4zm-70.3.1.1.3a50 50 0 0 0-.1-.2zm41.2 0v.3-.2zm.5.2v.2h-.1l.1-.2zm29 0h.1zm-70.8 0c0 .2 0 .3.2.4v.1c-.2 0-.3-.2-.3-.3v-.1zm123.1.1 11.8 2.6-11.1 51.3 8.1 1.8-2.3 10.9-8.2-1.8-3.8 17.5-13.3-3 3.8-17.4-33.8-7.3-4-10.8 9.7-8.1 23.4-19.2h-.1zm-81.4.1h-.2.2zm30.5.2.2.2c-.2 0-.4 0-.4-.2h.2zm.4.3h.4l.3.1-.3.2c-.2 0-.4-.1-.4-.3zm1.6.4H16740v.1h-.4v-.1zm1 .1v.1l.1.3-.2-.4zm-34.9 0v.2h-.1l.1-.2zm35.2.1.1.2h.2l-.2.1h-.1l-.1-.3zm.6.3c0 .1-.1.2-.3.2l.2-.2zm.6.2h.3l.2.2h-.1c-.2 0-.3 0-.4-.2zm-76.5.2zm79.9 0v.1zm-.1.2v.1zm-1.5 0-.2.1h.2zm.7.4h.3l.1.1-.4-.1zm-40.5 0zm0 0zm0 0-.2.2c.1 0 .2 0 .2-.2zm-38.4 0 .1.2c-.1 0-.1-.1 0 0v.2l-.2-.2v-.1zm38.1.4zm-.2 0zm43.2.2.1.1-.2.1-.2-.1.3-.1zm1.3 0zm-44.6.1zm0 0c0 .2-.1.2-.2.3l.1.2.1-.4zm45.7.4-.2.1h.2zm-46 0v.1zm45.7.2h.2l-.1.1-.3-.1h.2zm-45.7 0h-.1l-.1.2.2-.1zm46.2.2h.1l.3.3-.3-.1-.1-.2zm1 .3h-.1zm.7 0v.1zm-.5.1h.1l-.1.1h-.2l.2-.1zm.6 0zm-48.6.1zm0 0h-.1.1zm-36.6 0zm85.4.1.3.2-.3.1c-.1 0-.3 0-.3-.2a.6.6 0 0 0 .3 0zm-49.1.1h-.2v.1h.2zm-56.7.4c-.3 0-.5.3-.5.6v.2l-.2.3v.6h.2c0 .4.3.6.6.6h.4l.4.1c.3 0 .6-.2.6-.6l.1-.4c0-.2-.1-.4-.3-.4 0-.2-.2-.4-.4-.4v-.1l-.2-.2h-.2c-.1-.2-.3-.3-.4-.3zm0 .1.3.1c-.3 0-.5.1-.6.3v.2l-.1-.1c0-.3.2-.5.4-.5zm.2.3h.2v.2h-.4l.2-.2zm108.4 0 .1.2-.3-.2h.2zm-52.2.1c0 .2-.1.3-.3.4v.1c.2 0 .3-.2.3-.4v-.1zm52.7 0 .1.2-.2-.1h.1zm-88.5.2h.2-.2zm-19.6 0 .2.2h-.2v-.2zm-1.3.4v.1zm55.8 0zm.5 0-.1.2v.1-.2zm-35.5 0V-3304v-.2zm-19.6.1v.1h-.1zm-1 .2v.2l.2.1h-.2v-.3zm56 .2-.2.5.2-.4v-.1zm-35.7.2v.3l-.1.1v-.4zm-18.9.1c0 .2-.2.4-.4.4-.1 0-.2 0-.3-.2h.7v-.2zm-1 0v.1H16645.8 16646zm20 .4v.1h-.1v-.1zm34.4 0 .1.1h-.2v-.1zm-34.7.1zm8.4.1h1.1l4 .2a15.2 15.2 0 0 1 .2 0 49.2 49.2 0 0 0 0 0h-.2l-5.1-.2zm26.8 0V-3302.6h.1v-.2zm-35.2 0 .1.2v.3h-.1l-.1-.3.1-.1zm-.2.4v.1-.1zm24.6 2zm95.7 5.5-36.7 30.1 28.8 6.3zm-111.7 7.4a50.4 50.4 0 0 1 7.5.6c2.3.4 4.4 1 6.3 1.7v7a29.3 29.3 0 0 0-6.3-1.8c-2.1-.5-4.5-.7-7-.7-5.8 0-10 1.6-12.4 4.7a22 22 0 0 0-3.6 13.5c0 5.5 1.3 9.8 4 12.6 2.6 2.9 6.7 4.3 12.2 4.3a33 33 0 0 0 13.2-2.3v7a39 39 0 0 1-13.8 2c-7.8 0-13.7-2.1-17.7-6.4-4-4.2-6-10-6-17.2 0-5.1 1-9.6 2.6-13.3 1.7-3.8 4.3-6.6 7.7-8.6 3.5-2 8-3.1 13.3-3.1zm-61.5.7h2.6c2.5.3 4.6 1 6.4 2 2.3 1.4 4 3.3 5.2 5.7 1 2.3 1.6 5 1.6 8a15 15 0 0 1-4.4 11.3 16 16 0 0 1-11.7 4.2h-12.7v16h-8v-47.2zm22.2 0h8v47.1h-8zm61 0h8v25.7l16.7-21.3 3.5-4.3h7.4l-10.9 13.7-4.5 5.8 17.8 27.7h-8.5l-13.8-22-7.7 9.8v12.2h-8zm-96.2 6.2v18.8h11.3c3.1 0 5.5-.9 7.1-2.5a9.3 9.3 0 0 0 2.5-6.8c0-3-.8-5.3-2.4-7-1.5-1.7-3.8-2.5-6.9-2.5zm158.3 58.6c3.4 0 6 .9 7.6 2.6 1.7 1.8 2.5 4.6 2.5 8.5 0 3.7-.8 6.5-2.5 8.3-1.7 1.7-4.2 2.6-7.6 2.6-3.4 0-6-.9-7.6-2.6-1.7-1.8-2.5-4.6-2.5-8.3 0-4 .8-6.7 2.5-8.5 1.7-1.7 4.2-2.6 7.6-2.6zm-131.6.3h3.6v21.4h-3.6zm20.2 0h8.7c3.2 0 5.5.9 7 2.6 1.6 1.6 2.3 4.4 2.3 8.2 0 3.7-.7 6.4-2.2 8-1.5 1.7-3.9 2.6-7.1 2.6h-8.7zm39.7 0h4l8.1 21.4h-3.7l-2.1-5.5h-8.6l-2.1 5.5h-3.8zm28.1 0h3.6v9.3h10.3v-9.3h3.6v21.4h-3.6v-9.3h-10.3v9.3h-3.6zm43.6 2.8c-2.2 0-3.9.6-5 1.8-1 1.1-1.5 3.2-1.5 6.2 0 2.8.5 4.8 1.6 6 1 1.3 2.7 1.9 4.9 1.9s3.8-.6 4.9-1.9c1-1.2 1.6-3.2 1.6-6 0-3-.6-5-1.6-6.2-1-1.2-2.7-1.8-5-1.8zm-107.7 0v15.8h4.4c1.4 0 2.6-.2 3.5-.6 1-.4 1.6-1.2 2.1-2.3.5-1.1.7-2.8.7-4.9 0-2-.2-3.7-.6-4.8-.4-1.2-1.1-2-2-2.5a8 8 0 0 0-3.7-.6zm38 .5-3.7 9.8h7.4z" style="color:#000;fill:url(#b);fill-opacity:1;stroke-width:2.45145;stroke-linecap:round;stroke-linejoin:round;-inkscape-stroke:none;paint-order:fill markers stroke" transform="translate(-16576.5 3484.8)"/></svg>