<svg xmlns="http://www.w3.org/2000/svg" xmlns:xlink="http://www.w3.org/1999/xlink" xml:space="preserve" width="944.9" height="1157.7" viewBox="0 0 250 306.3"><defs><linearGradient id="a"><stop offset="0" style="stop-color:#ff2860;stop-opacity:1"/><stop offset="1" style="stop-color:#8f48e5;stop-opacity:1"/></linearGradient><linearGradient xlink:href="#a" id="b" x1="24416.9" x2="24666.9" y1="-544.7" y2="-851" gradientUnits="userSpaceOnUse"/></defs><path d="M24542-851c-69.3 0-125 55.8-125 125v19.3l.1 6.8v.8l.6 5.9.6 5.3 1.4 2.1 2.7 3.8a190.3 190.3 0 0 0-4-6c1 7.7 2.9 15 5.3 22.2-4 2.7-6.7 7.3-6.7 12.6v47.2c0 6.9 4.6 12.9 11.3 14.6 1.7 6 6.9 10.5 13.1 11.1v13.6c0 3.2 1.2 6 3 8.3 1.8 2 9 9.3 11.1 11 2.2 1.7 5 2.7 8 2.7h166.7c9 0 15.3-9 12.1-17.4l-2.8-7.4c5-1.7 8.7-5.9 9.9-11l.9-4.4c5.5-1.4 9.7-5.8 11-11.3l2.4-10.9c1.1-5.6-1-11.4-5.4-15l8.3-38.1c1-4.5-.2-9-2.7-12.4l-1.3-1.4c2.8-10.4 4.3-21.4 4.3-32.7V-726c0-69.2-55.8-125-125-125zm0 7.2c57.4 0 105.3 41.1 115.7 95.6l-.8-1.4c-.3-.5-.7-.9-1.2-1l-2-.7-2-.6h-1.3l-2 .6a21 21 0 0 0-2.8 1c-.3-.3-.5-.5-.6-.9a9 9 0 0 1-.3-.5v-.2l-.1-.4-.3-.6a23.7 23.7 0 0 0-1.7-3.1l-.5-.7a19 19 0 0 0-.9-.7l.7.6.2-.8.5-2v-1l-.6-2.6-.5-2.7c0-.3-.2-.6-.4-.9l-2.3-2.8-2.2-2.9-.7-.5-3.7-2.1-7.3-4.3-.5-.3a98.5 98.5 0 0 0-169.5 7.6c-.7.1-1.5.6-1.7 1-.4.5-.4.8-.4 1.1l-.2 1.6v.8a97.8 97.8 0 0 0-7.3 22.7 12 12 0 0 0-.7 2.4l-.1.3-.6.4-.3.1-.9.6-1.3 1.2-.7 1.1c-.4-.4-.9-.6-1.4-.6h-1.3c-.6-.1-1-.2-1.5 0-.6 0-1.4.5-1.7.8.4-.4 0 0-.3.1l-1.1.7c-1.4.7-2.4 1.5-4 3l-2 1.9-.5.5-1.4 2.6a45.2 45.2 0 0 0-1.4 2.7c.6-64.6 53-116.7 117.8-116.7zm0 23.2a94.5 94.5 0 0 1 74.5 36.3l-1-.5c-.4-.3-1-.4-1.5-.2l-3.2.8c-3.1.9-3.8 1.2-5.3 2.1l-.7.5-2.5-.8-3.4-1c-.4-.2-.7-.2-1-.1l-2 .3.1-1c0-.4 0-1-.4-1.3l-.7-1a8.6 8.6 0 0 0-2.2-2c-1-.6-2-1-3.5-1.6a20 20 0 0 0-5.6-1.6 73.2 73.2 0 0 0-6.7-.6c-.8 0-1.5.2-3 .4l-3.5.6c-1.5.1-2.5.3-3.4.8l-1 .4a43 43 0 0 0-11 4.1l-1 .8-.6.6-.5.8a51.6 51.6 0 0 0-3.2 6.2v.3l-.8.8-1.8 2-.1-1-.2-1-.2-1c-.3-1-.5-.8-.7-1l-.5-.4-1.3-.9-1-.7c-.2-.1-.3-.6 0 .2-.5-1.1-1-1.3-1.7-1.7l-.7-.3a3 3 0 0 0-1.3-.4 3 3 0 0 0-1 .2c-.6.1-1 .4-2 .8l-.3.1a7.8 7.8 0 0 0-2.7-1.9c-1.4-.6-2.5-1-3.8-1l-.3-.3c-.8-.4-1.4-.7-2.2-.8-.5-.1.1.2-.5-.5a8.7 8.7 0 0 0-2.6-1.8c-2-1-4-1-6-.2l-1 .5-.3.2h-.9l-1.3-.4a6.5 6.5 0 0 1-.8-.4l-.2-.2c-.6-.7-1.6-.8-2.4-.4a18.4 18.4 0 0 0-2.2-.8l-.9-.2a7 7 0 0 1-.7-.3c-.4-.3-.7-.4-1.3-.6h-1.2a5 5 0 0 0-2.3-.3h-3.8c-.4 0-.7 0-1.1.2l-.9.6.3-.2h-.2a7 7 0 0 0-1.8.6H24494.7c-.6-.2-1-.1-1.4-.1-.8 0-1.3 0-2.3.4-.8.4-1.4.8-2 1.3l-.5.1-.2.2c-.3.2-.6.3-.7.5l.5-.5h-.1l-1.1.1h-2.8c-.3 0-1 .3-1.4.6l-.4.5c-.4 0-.6.2-1 .3l-1.4.5a8 8 0 0 0-3.3 2.4l-.7 1a3 3 0 0 0-1.8-1c-1 0-1.4.3-1.7.8l-.5.2a9 9 0 0 0-.8.3l-.4.3-.4.2v.1l.2-.2-.3.3-.2.2-.1.1v.1h-.1c-.9 0-1.7.2-2.6.3a9 9 0 0 0-3.3 1.3 94.5 94.5 0 0 1 78-41.1zm38.6 30.8.9.3 1 .5c.2 0 .3.2.3.6 0 .4 0 .6.4.8.6.4.6.7.3 3.9l-.1 1.9-1.2 1.4a20 20 0 0 0-3.2 4.8l1.3 1.5c.2 0 1-.8 1.4-1.6l1.2-1.5c.5-.4 1.3-1.4 1.7-2 .5-.8 1.3-1.7 1.8-2.2.5-.5 1.2-1.2 1.5-1.7l1-1.2c1.1-1 1.4-1.2 1.7-1.2.2 0 .6-.2.9-.5l.5-.5.2.4 1 1.1.6.9-.1 1.8v1.8l2.4-.4 2.2-.4 3.4 1 3.4 1.1 1.4-1c1.5-.9 1.6-1 4.6-1.8l3.3-.8c.4 0 5.4 2.8 9.2 5.2l7.3 4.3 4 2.2 2.2 2.9 2.2 2.8.5 2.6.5 2.6-.4 2.1-.5 2.1.7.7c.6.5 1 1.1 1.6 2.2.7 1.3.7 1.5.6 2-.1 1.4 0 2 1.2 3.7a27 27 0 0 1 3.3 6.8s.2 0 .3-.2c.2-.2.4-.2 1.1 0 .5 0 1 .2 1.2.3.4.2.3 0-.4-1.6l-2.2-3.2-1.5-2c-.3-.3 1.7-1.3 3.8-2l1.9-.5 2 .7 2 .6 1 2c.6 1 1 2 1 2.2 0 .5.2 1 .8 1.7a32 32 0 0 1 4 8.8l.1 1.5c.4 2.2.1 6.6-.4 8.3-.1.4-.1.5.2.8.2.2.7 1 1 1.8l.6 1.5-.3 2-.3 2-1.5 2.2-1.5 2.1-2.4 1.4a60 60 0 0 1-9.3 4.6l-2.4.8-1.6 4.6c-1 2.4-1.7 4.5-1.6 4.5h.3c.6-.4.6-.2.2.7l-.2 1s1.9-2.2 2-2.5c0-.2.4-.3 3.5-1a16 16 0 0 0 4.5-1.7l2-1 .7-1.5.7-1.6h1c.8 0 .9 0 1 .3 0 .2 0 .4-.3.7l-1 1.6a102 102 0 0 1-3.8 6.4c-.3.5-1.2 1.4-2 2.2l-1.9 2.1c-.3.4-1 1-1.7 1.4l-.6.4c-.8-.4-1.7-.7-2.6-.9l-11.8-2.5c-.9-.2-1.7-.3-2.6-.3a97 97 0 0 1 2.5-4l2.2-3.5.6-3.2a53.8 53.8 0 0 0 1-10.3s-.4 0-.7.2l-.7.2.3-1c.3-.5.5-1.4.6-3l.7-3.8c1.2-4 2-7.6 2.3-10l.2-2.5-.6-2.2-.7-2.3a31 31 0 0 0-.7 5.6c.2 1.4-.6 2.8-2.8 5.3l-.5 1-.8 1.2-.8 1 .2.8a30 30 0 0 1 .4 2.3l.9-2.2c0-.3.3-.8.6-1.1l1-1.4a50 50 0 0 0-1.9 10.7l-.7 3c-.4 2-.4 2-2.4 4.2-.6.7-.6.7-.5 1.5.1 1 .1 1 .5 1 .3-.1.3-.1.2 1.2l-.1 4.3a15.6 15.6 0 0 1-.9 6.3l-.1.7h-1.2c-2.5.2-4.8 1-6.8 2.3-1.1.4-1.4.4-2.2.1l-.6-.2-.5.5c-.7 1-1 2.2-.3 1.9h.7l-18.5 15.3-.2.2-4.8 4-.3-1.4c0-.6 0-.6-.5-.5h-.9c-.8 0-.8.2 0 1.8l.5 1-8.2 6.8c-1.2-2.2-2.9-4-4.8-5.4 2.4.7 4.7 1.5 5 1.8.1.3.2.2 1 0l.8-.5c0-.1-1-.8-1.2-.8-.1 0-.2-.1-.2-.3 0-.4-.2-.7-.6-.7l-.5-.2a273 273 0 0 0-3.4-7.9l-1.2-2.5-2.3-2.7-2.3-2.6-3.8-2.2-7.6-4.6c-3.3-2.2-4-2.6-5.4-3.1a5.6 5.6 0 0 1-2.7-1.7l-1.2-1 .1.7.2.7-1.3-.5-1.4-.5s0-.3.3-.6l.3-.7h.9c.8.2.9.2 1 0 0-.4 0-.4.4-.2 1 .5 3.6 1 4 .6.1-.2-1-2-2.5-4-.6-.8-.7-.8-1.3-.8-.5 0-.6 0-.7-.5a7 7 0 0 1 0-1.1v-.7l1 .3h2.3l.2-.3-1.9-1.5c-1.8-1.3-1.8-1.4-1.8-1.9.3-1.2.1-4.1-.2-6.6l-.4-2.6-2.2-3a54.5 54.5 0 0 0-4-4.7c-.7-.8-.7-.9-1-2.7l-.6-2-.1.8c0 1-.2 1.7-.4 1.7a59.4 59.4 0 0 1-5-6.8l-1.3.4-1.2.4-.8 1.2-.9 1.3.1 4 .1 3.9 1.3 3 1.2 3 .3 2.9a17.2 17.2 0 0 0 .6 4h-.5l-.5-.3v-1.6c0-1.5-.3-3.6-.6-4.2-.2-.2-.3.6-.4 3 0 2.4-.1 2.5-.6 2.3-.6-.2-2.4-2-2.7-2.8l-2-4.1a63.6 63.6 0 0 0-3.7-7c-2-3.3-2.2-3.6-3-6.2a16 16 0 0 0-3.1-5.7l-1.1.4a6 6 0 0 1-1 .4 33 33 0 0 1 .4-6l.7-2.2.4-1.4h1.1l1.6-2.9 3.4-5.5a21 21 0 0 0 3-5.5c1.5-3.9 1.5-3.7.6-3l-1.4 1.4a68 68 0 0 0-6.3 10 83 83 0 0 1 5.5-14.3 62.6 62.6 0 0 1 9-12.2c1.2-1.2 1.7-2 1.5-2.4 0-.2-.2-.3-.3-.3-.2 0-.2 0-.2-.3l.2-1.4c0-1 0-1 .4-.8.1 0 .4.3.5.6l1.9 1.5 1.6 1v1l.5 3.1.3 2-.3 1c-.5 1.5-.5 1.5-1.3.8-.7-.8-.8-.6-.8 1.3.1 1.4 0 2-.4 2v-7c.1-2.4 0-3.4-.3-3.4l-1.3 2.5a2472 2472 0 0 1-2 4.8c0 .2-.2 1-1 2.6-.7 1.4-1.3 2.7-1.4 3.2a52.6 52.6 0 0 0-.6 13.2v1l.8.4 1 .6c1 .9 1.2 1 1.5 1h.5c0 .2.4.4.6.5.4.2.4.2.8-.4l.9-1.3a113.8 113.8 0 0 1 2.4-4.5l1-1.9c.5-.5.8-1.2 1.1-2.4.5-1.6.5-1.8.4-2.4-.2-.7-.2-.7.4-1.4.6-.7.6-.9.8-2.6.3-2 .3-2.1 2-5 .4-.7.9-1.8 1.2-2.8.5-1.8.4-1.6 2.1-3.1.6-.5.6-.6 1.7-.5h1.2l.5-.7a68 68 0 0 1 2-2.7c1.4-1.9 1.6-2 2.7-2.7 1.6-.9 2-1.1 1.6-1.1-.7 0-2.6.5-5.8 1.6l-3.4 1.2-1 1c-.6.7-1.1 1.1-1.2 1-.3-.2 3-6.2 3.8-6.8a53.6 53.6 0 0 1 12.7-5 107.4 107.4 0 0 0 12.3-1.1zm-81 1a4 4 0 0 1 1.5.1h.9c.8-.2 1.8-.1 2.3.2.3.2.4.3.7 0 .3-.1.4-.1 1.2.3l1.2.4c.4 0 2.8 1 3.2 1.3.5.3 1 .3 1 0 0-.4.3-.4.7 0l.7.6c.2 0 .7.1 1 .3l2 .4c1 .1 1.2.1 1.5-.1.6-.6 2.3-1.1 3.5-1.1 1 0 1.2 0 2.1.5a8 8 0 0 1 1.9 1.4c.7.8 1 1 1.6 1 .4 0 1 .3 1.4.6.4.2 1 .5 1.3.5.9.1 1.7.4 3 1 1.2.4 1.5.6 2.2 1.4l.8 1-2.9 2a38.4 38.4 0 0 0-5.8 4.8c-3 2.8-3 2.9-5.3 6.2a32.8 32.8 0 0 0-2.8 4.6c0-.2-.8-.4-1.8-.6l-1.8-.4-3 .3-5.7.8a13 13 0 0 0-5 1.7l-2.2 1.1-1.2 1.4-1.2 1.7-.2 1-.1.7v-.8l.3-3.7c0-.2.5-.8 1-1.3l.9-1c0-.3-.7-1.1-2.2-2.5l-1.6-1.5-2.5-.9c-2.3-.8-2.8-.9-5.1-1.2-2.4-.2-2.9-.3-4.8-.1l-2 .2-1.6.8-1.6.8-.7 1.4-.7 1.6 1-.6c.8-.6.9-.6 1.4-.5a165.9 165.9 0 0 1 3.3 1.3c.5.2 2.9 2.5 5 5l1.7 2.2h1c1.5 0 3.4.3 5.3.8l1.8.5v.7l-.1.8-1.7-.5a36 36 0 0 0-6-1.4l2.1 3.3c.3.3 1 2 .9 2.2l-1.2-1.6a64.8 64.8 0 0 0-5.7-7l-1.8-1.8-2.5-1c-2.2-1-3-1.2-5.1-1.6-1.4-.3-3.6-.6-4.8-.6l-2.3-.2-1.4.5-1.4.5-.7 1.4-.7 1.4v1.7c.1 2.2.2 2.7.5 3 .2.2.2.2-.3.2s-.5 0-1.6-2.2a33.6 33.6 0 0 1-3.7-12.7l-.2-1.8 1.1-1.8c1.6-2.7 3.2-4.5 5-5.6 1.2-.9 1.5-1 3-1.3 2-.4 3-.4 3.3 0l.2.4.1-.5c.3-1 .6-1.5 1.5-1.8l1-.5c.4-.3.4-.3.6 0 .2.2.2.8.1 2.7v2.5l-.8.2c-.6.2-.8.4-1.4 1.2-.5.7-.6 1-.7 1.8v1c.2.2 2.7 1 2.9 1l.5-.5c.3-.6.4-.6 2.2-.1l1.6.4c.4 0 .8.3 1.1.5.3.3.5.5.6.4.1-.1-.6-2.5-1.2-3.8-.4-1-.5-1.1-1.3-1.6-.5-.3-1.1-.6-1.4-.6-.8 0-.9 0-.5-.8.2-.3.6-1.4.8-2.4.5-1.7.5-1.8 1.5-3 1-1 1-1.1 2.6-1.8l2.1-.7c.3 0 .6-.1.8-.4.5-.6 1.6-.9 2.5-.6.6.2.7.2 1.2 0 .6-.2 1.2-.1 1.4.4l.1.4.5-.5c1.5-1.8 2.2-2.2 3.5-2.4.9 0 1 0 1.4.2.5.4.5.4.8.2.3-.4 1.5-.9 2-.9.2 0 .7-.1 1-.3.3-.2.9-.3 1.4-.3zm3.8 2.8c-.6 0-1.4.4-1.5.8-.2.4-1 .5-1.5.2a4 4 0 0 0-2.5 0l-.7.4c-.3.3-.4.3-.8.2-.4-.1-.6-.3-.7-.6-.2-.4-.8-.6-1.6-.6-.4 0-.7 0-1.1.5-.5.4-.7.5-1 .4-.3 0-.4-.2-.4-.3 0-.4-.3-.6-.7-.6-.4 0-1.4.7-1.5 1.2 0 .2-.3.6-.6 1-.6.7-1 1.8-1 2.2l.6.3c.3 0 .7.3 1 .5l.5.5-.4.6c-.3.4-.5 1-.6 1.5l-.3 1s-.3-.1-.5-.4a5.7 5.7 0 0 0-3.5-1c-1.8 0-2.8.7-3.6 2.7-.4 1-.4 1.1.6 1 .6 0 1 0 2 .4l1.4.6c.2.1.5-.1 1-.8.7-.9 2-1.9 2.6-1.9a9 9 0 0 1 1.8 2.6l-.5.3-1.5.8c-1 .5-1.1.7-1.7 1.7-.9 1.5-.9 1.7 0 1.7 1.4 0 2.5.2 5 1 2.5.7 2.6.8 3.6 1.6 2.5 2 2.6 2.3 1.6 2.4-.3 0-.4.1-.4.2 0 .2.3.3 1.4.4a73.4 73.4 0 0 1 4.1.3l2.3-.2c2.3-.2 2.8-.3 2.8-.5a28 28 0 0 0-1.8-3.8l-.4-.6.8-.7 1.3-.8c.7-.1 1-.3 1-.7 0-.1.2-.5.6-.7 1.3-1 1.2-.8 1-1.4-.1-.3-.5-1-.9-1.4l-.5-1 .6-.2c.5-.1.7 0 .8.2.2.4.5.4.9 0 .2-.3.4-.4.6-.4l.5-.1c.1-.1-1-2.3-1.7-3.4-.6-1-.7-1.3-.3-1.3.4 0 .5-.2.1-.8-.5-.8-.5-.8-1.4-.5-.8.2-.9.2-1.4 0l-2-.2c-1 0-1.2 0-1.6-.4-.4-.3-.4-.4-.2-.7.4-.6 1-.8.7-.4-.1.5.1.5 1.2.2.9-.3 1.2-.4 1.9-.3.5 0 1 .2 1.2.3.6.3.6.3.3-.4-.8-1.5-1.6-2-2.8-2-.4.1-.7 0-1.1-.2-.3-.2-.8-.4-1.1-.4zm4.8 0 .1.6.3.8c0 .3.3.6.5.9.2.2.4.6.4.9 0 .3.3.5.4.6.2 0 .3.2.3.3 0 .2.1.6.3.8.2.4.4.5.8.5.3 0 .4 0 .4-.4s1.3-2.1 1.6-2c.2 0 .2 0 0-.2-.2-.3-1-.5-1.7-.6a4 4 0 0 1-1-.7c-.7-.7-2.2-1.6-2.4-1.4zm4.7 1 .1.2c.2.3.5.5.5.3l-.3-.3-.3-.2zm-28.4 2c-.2 0-.3 0-.5.2-.7.4-.6.6.3 1 .4.1.9.4 1.1.6.5.5.6.5.6 0a3 3 0 0 0-.3-1c-.3-.6-.7-.9-1.2-.8zm34.9 0 .2.8.4 1c0 .1 0 .4.2.6.1.4.1.4.2-.4 0-.7 0-.8-.4-1.3l-.6-.6zm74.5.2h-.1zm-124.2 2.1v.6-.5zm46 .3h-.8c-.6.1-1 .3-1.2.5-.6.6-1.5 2.4-1.2 2.4l.8-.5a4 4 0 0 0 1-1c.1-.4.5-.8.8-1zm-46.8.7v.4s-.1 0 0-.4zm120 1.1-2.3.4c-2 .4-2.1.4-3 1.2l-1 .8.6.8.5-.3c.2-.2.7-.3 1-.4.3 0 1-.2 1.3-.4.7-.3 1.4-.4 4.9-.5a11 11 0 0 0 2.1-.2c0-.1-3.8-1.4-4.2-1.4zm-16 1.6c-1 .1-2.5.6-4.2 1.3l-2.2 1-3.3-.1h-3.3l-2.4 1.7-2.4 1.7-1.9 2.6c-2.6 3.6-2.5 3.5-2.2 4 .5.7.2 2.7-.4 3.6a82 82 0 0 0-1.5 2c-.9 1.4-1 1.6-1 2.2a145.8 145.8 0 0 0-2 13l-.3 1.3-.1.6s-.2.4-.2.9c-.1.7 0 .8.6 2l.8 1.3c.1 0 .3-.8.4-1.8.2-1.7.3-2 1-3.3l.8-1.4a48.3 48.3 0 0 1-.7 5.7c0 .2.2.6.7 1.1.8 1 1 1.4 1 2.5 0 .7 0 1 .7 2.2.8 1.4.9 1.6 1 3 .2 1.6.3 1.9.5 1.5l.8.6c.4.4.8.7.9.6l.2-.7c0-.5 0-.6-.2-.6-.1 0-.2 0-.2-.2l-.7-.4-.6-.3v-2.3c.1-3.4.7-6.2 1.7-9l.8-2-.1-3.5c-.2-4-.4-5.5-.8-5.4h-.5a4 4 0 0 0-1.3 1l-1 1 .7-1a39.8 39.8 0 0 1 1.8-2.1c2.2-3 5-5.5 6.8-6.2l1.2-.8c1-.9 1.7-1.2 2.9-1.1h1.2c.5 0 1.7-1.1 2.3-2l1.3-1.8.8-1v-1.2c-.2-1.1-.2-1.3-.6-1.7l-.4-.4-1 .4-2.3 1c-1.2.7-1.2.7-1.6 1.7-.2.6-.4 1.1-.3 1.3l-.5 1.5c-.4 1-.8 1.7-1.5 2.4-.8 1-1 1.1-2.7 2l-1.7.8-2.2 2.6-2.6 3c-.4.6-.4.5.2-.9a7 7 0 0 1 1.9-2.5l4.1-5c.5-.5 1.4-2.3 2-3.7.4-1 .7-1.4 2.5-3.3l2.3-2.6c.7-1 1.3-1.5 2.1-2a8.8 8.8 0 0 0 2.6-2.5c.4-.6.7-.8 1.9-1.2l1.5-.6.2-.1c0-.2-.1-.3-.4-.4h-.8zm-54.5.6h-1.6c-2.3.3-4 1-5.2 2.2-.9.9-1 1-1.2 2-.3 1-.4 2.3-.3 2.3l1.5-.8a15 15 0 0 1 2.9-1.4l2.2-.4 1.6-.2h2.4c.3 0 .4 0 .6-.7.3-.9.6-1.4.9-1.4.3 0 .4.3.2.5-.3.3-.2.3.9.5 1.3.1 1.2-.1-.7-1.2a8.4 8.4 0 0 0-4.2-1.4zm-21 .1 1.1.4.6.2-.4.6c-.3.5-2 1.6-2.5 1.6h-.6l-.4-.3c0-.4 1-2 1.4-2.3l.7-.2zm107.1 2.1-2.6.1h-2.9c-.4-.2-.2.3.3.6.4.2.8.2 3.1-.2 2-.3 2.2-.4 2.1-.5zm-24.8.6c0-.1-1.3 1-1.6 1.5l-1 1.6c.1 0 .7-.4 1.2-1 1-1 1.6-2 1.4-2zm9.5 1.1-2.3.8c-1.3.4-3.2 1-4.2 1.1-2 .5-3.6 1-3.7 1.2a129.2 129.2 0 0 1 5.7-1c1.5-.5 3.1-.6 6-.4 2 .2 2.5.3 2.4.8v.5c.5.1 3.8-.8 3.8-1.1 0-.2-.7-.5-2.2-1-1.2-.4-1.9-.6-3.5-.7zm-133.8.4c.4 0 .7.2 1 .3l.4.4c-.1-.1-.2-.3-.5-.4-.2-.1-.5-.3-1-.3zm8.6.3a1 1 0 0 0-.6.2c-.4.2-.4.3-.3 1.1 0 .8 0 .9.4 1h.8c.6-.2 2.1.1 2.5.5.2.2.2.2.2-.3 0-.3 0-.9-.2-1.3l-.2-.8-1.4-.2a8 8 0 0 0-1.2-.2zm53.2 3h-2.7l-2 .7c-2 .6-2.2.7-3.5 1.8l-1.5 1.3c-.2.2-.2 1 0 1l1-.4a11 11 0 0 1 2.3-.6l2.9-.4c1.4-.3 1.7-.3 3.4 0h2c.3 0 1.2-3.1 1-3.3-.1-.1-1-.2-2.9-.1zm-60.5 1.6c.4.8.7 1.4.8 2.3.2 1 .5 1.8 1 2.8.4.8.9 2 1.1 2.8.3 1 .8 2.2 1.8 4l1.3 2.5-1.2.5-.1-.2-1.7-3.4a73.5 73.5 0 0 1-3.4-7.7l-.6-1.5 1-2.1zm116.8 1.3-1.3 1.1c-1.2 1.1-2.5 2.8-2.5 3.4l.4.5c.3.3.4.4.4 1 0 .3 0 .9-.2 1.1l-.3 1.6c-.1.9-.3 1.3-1.2 2.7-1.2 1.8-2.2 4-2.3 5 0 .5-.2 1.1-.4 1.5-.3.5-.4 1-.4 1.6l.1 1 .6-.7 1-1.7.7-1 .3.3c.2.2.3.5.3 1 0 .7.5 2.7.8 3.1.1.2.3.7.3 1.1.1 1 .2.9 1.3-.7.4-.6 1-1.6 1.5-2 .8-1.2 1.4-2.4 1.7-3.5.2-.7.4-1 1.3-2 2-2 3-3.3 3.5-4.2.7-1.5.4-1.8-1-.8l-1.8 1c-.7.5-1 .8-1.5 1.5l-.6 1-.3-.4c-.5-.5-1.6-.8-2.5-.5-.4.2-.6.2-.6 0s1.4-1.5 2.6-2.2c1-.6 1.3-.7 2.4-.9.9 0 1.5-.3 2.4-.7a29 29 0 0 0 4.3-2.8c.3-.3.4-1 0-1 0 0-1.1.5-2.3 1.3-2 1.4-4.1 2.5-4.5 2.5-.1 0 .4-1.6.7-2l.3-.6 1.1-1.2c.8-.8 1.2-1 2.4-1.4a30.2 30.2 0 0 1 4.5-1.2c.2 0 0 .1-.3.5l-.6.7.4-.1c.3 0 1-.4 1.8-.8 2-.9 2.2-1.3.6-1-.7.2-1.4.2-2.5 0a32 32 0 0 0-6.8.3c-.8.1-2 .2-2.6.1h-1v-.7l-.2-.8zm-73.1 1v.1c0 .3 0 .3-.6.3h-.6a4.2 4.2 0 0 1 1.2-.5zm72.5 1.3-.3.6c-.4.9-1.5 2.6-1.5 2.4l.2-1c.3-.8.4-1 1-1.5zm26.8 1.3c-.2.1.1.7.4.8.7.3.8.2.2-.4-.3-.3-.5-.5-.6-.4zm-145.2 0c.4 1 1 2.2 1 2.5l2.3 4.8.8 1.7-3.1 1.2c-1.3.4-3 1-4.6 1.7l-.5.1c1.1-4 2.5-8.1 4.1-12zm132.1.6c-.3.2 0 .4.6.5 1.3.1 4.2 1 4.3 1.1v.7c-.1.6-.2.8 0 .8l1-.3c1-.4 2-.4 3.4-.2l1 .1-.3-.4c-.2-.3-.6-.4-2-.8l-3-.8c-.9-.4-1.3-.5-3-.6h-2zm-68.2.6v.4-.4zm107 .3.4 1c.4.8.6 1.2 1 1.4l1.4 1c2.5 2 3.4 3.3 4 5.1.3.9.5 1.2 1 1.6l1.8 2 1.4 2c.6.7.6.3 0-1.4l-.7-1.8-2.5-4.1-2.2-1.8a60.7 60.7 0 0 1-5.6-5zm-56.7.1-.4.1c-.3.2-1.5 2.3-2.3 4-.9 1.9-1 2.6-.3 1.7l1.3-1.6c1-1 1.5-2.3 1.8-3.6v-.6zm21.8 1.6c-.2 0-.8 0-1.4.3-1.1.4-1.1.4-4.2.3-3-.1-3-.1-3 .2.1.1.1.3 0 .4-.4.2-.1.5.6.5l.7.1.7-.3c.6-.3 1-.4 2-.4l2.2-.2c1.2-.3 1.3-.3 1 0-.3.2-.3.2.2.3.5.1 1.2 0 1.5-.3.2-.2 0-.8-.3-1zm14.8.8c-.2 0 .7.4 1 .4l-.3-.2-.7-.2zm-10.4.6c-.4 0-.4.1.7.6 1.3.7 1.4.8 1.3 2.2 0 .9 0 1 .5 1.9l1.3 1.4c.4.3.7.7.8 1l.4.6.8.6c.6.5.7.6 1 .4.4-.2.8 0 1.3.7.5.6.6.6.8.3.3-.3 0-1.6-.7-2.8a9.3 9.3 0 0 0-4-3.8c-.3-.2-.5-.3-.5-.5 0-.5.9-1 2-1 .5 0 .2-.2-.8-.5-1.3-.5-4.3-1.1-4.9-1zm6.7.5c-.4 0-.3.2.5.6.4.1 1.2.8 2.1 1.7 1.4 1.4 2 2 2.4 2l-1-1.2a14 14 0 0 0-3.3-3l-.7-.1zm-11.7 1.2-2.3.4.8.5c.5.3.7.5.7.8 0 .2.1.4.3.4l.8.6c.4.5.6.6.9.5l1-.1h3.4l.2-.8c.3-1.2.2-1.3-1.3-1.5-.7 0-1.9-.2-2.6-.4a9 9 0 0 0-2-.4zm-3.3 0-1.7.3c-4.1 1-5.9 1.7-6 2.2 0 .3.3.2 1.4-.4l3.9-1.3 2.6-.7c.1-.1 0-.2-.2-.1zm-126 3.7v.1-.1zm119.7 0c-.5 0-1 .1-1.8.5-1 .4-1.6 1-1.6 1.7a3 3 0 0 1-.7 1.3l-.2.3c0 .3-.2.3-.7.3h-.8l-1.7 2.2-1.4 2.1.4 1c.5 1.7.5 2-.3 2.9l-.6.7v1.4c0 1.4-.3 3.9-.6 4.4l-1 2.6 1.2.6 1.5 1 .4.5-.4.5-1.1 1.3-.6.8 1 1c.6.6 1.2 1.5 1.5 2l1.2 2c.4.6 1 1.6 1.1 2.1l1.2 2.6a12.4 12.4 0 0 1 1.7 4.3l.1 2.6v2h.4c.5-.2.5-.2.2.6v.6l5.4 1a75.4 75.4 0 0 1 7.6 1.7 43 43 0 0 1 8 2.2l4.3 1.4c.7.2.9.3.8.6v.6l.1.5.3-.6a5 5 0 0 1 1-1.1l.8-.8-.9-.4-1-.3-.3-1.5a16 16 0 0 0-1.6-5.6c-.7-1.4-1-1.7-2.2-2.9-1.3-1.2-1.3-1.3-3.3-2-1.4-.5-2.8-1-4.3-1.2l-2.3-.5-2.5.7-2.5.8.1-2.1c.2-3.1 0-5.2-.7-7.2a6.6 6.6 0 0 0-1.5-2.7 27 27 0 0 0-2.4-2.3 5.9 5.9 0 0 0-2.8-1.7 5 5 0 0 0-2.6-.3h-1.1l.7-.5c.6-.4 1-.6 1.8-.7a9 9 0 0 1 1.9 0h.7l.3-1.6c.4-2.2.3-3.3-.3-4.9a7.1 7.1 0 0 0-4.3-4.3c-.7-.2-1-.2-1.3-.1-.4.1-.4.1.1-.3.3-.3.9-.6 1.3-.7.7-.2.8-.2 1.3 0l.7.6c.1.6 1.2 1.7 2.1 2.2 1 .7 1.6.7 2.6.3.4-.1.8-.2 1.1-.1 1.3.2 1.2.2 1.2-.5.2-2.3-1.4-4.5-3.3-4.4-.8 0-1.6.4-2.5 1.2l-.8.6v-.6c0-.5 0-1-.4-1.7-.5-1-.5-1-.2-1.6.2-.4.2-.8.2-1.9 0-1.2 0-1.2.3-1.3.8-.2 1.2 1.5.7 2.6-.3.5-.8 2.6-.6 2.7.1.1 2-2 2.4-2.7.5-1 .6-2.6.4-3.5-.2-.5-.5-.8-1-1zm-115.5.5h2.9c2.2 0 3 .2 3.6.3a4 4 0 0 0 2.7 0c.8-.1 1-.1 3.2.2l4 .4c2.4.2 3.3.3 5.3 1l1.7.5 1.4 1.4 1.4 1.5-1-.7c-1.4-1.3-1.4-1.3-3.3-1.7-1.4-.3-2.1-.4-4.2-.4-2 0-3 0-4.7-.4-2-.3-2.3-.3-3.1-.1-1.4.3-1.4.4-.5.6l1.3.5 1.4.8c1.4.8 2 1.3 2.1 2l.2 1c.1.3.1.3-.2 0-.8-.4-2.5-1-4.2-1.1a7 7 0 0 0-3.5.2l-5 .8c-3.6.4-4.6.8-5.3 1.7-.5.6-.5 1 0 1.2l3.5.2c3.6.1 4.2.3 5.7 1.4.2.2.6.4.9.4.4 0 .8.5 1.3 1.4l.7.8c.7.3 1.6 1.1 1.4 1.2-.5.3.6 2 2.5 3.5l1.4 1.6c.3.5 1.2 1.4 1.8 2 1 1 1.3 1.5 1.5 2 .2.4.4.8.6.9.4.2.4-.1-.2-1.4-1-1.9-1.3-3.2-1.2-3.6l.1-.8c.1-.5.2-.5.6-.1.3.2.4.3 1 .2l1.8.1c1.2.3 1.3.2.6-.5-.5-.5-1.5-1-4.5-2a15.8 15.8 0 0 1-6.8-3.4l-.1-.1-.5-1.2c-.4-.8-.6-1-1.1-1.4-1.8-1.1-1.4-1.7.7-1 .4 0 1.1.3 1.5.4a98.4 98.4 0 0 0 4 1c1 .5 2.6 1 2.7 1l-.1-1v-1c.6.4 1 .8 1.3 1.3.4.5 1 .9 1.4.8.2 0 .2-.1 0-.8-.1-.5-.2-1.5-.1-2.8 0-2 0-2-.4-2.5-.5-.7-.5-.9-.1-1 .6-.4 1.8-.3 3.2.4l1.3.7.9.5a7 7 0 0 1 1.6 1.4l2.1 2.3c1.3 1.2 2.4 2.7 3.2 4.3.4.8 1 1.4.7.8v-.3c.4 0 1.8-4.5 1.5-5 0-.2 0-.2.1-.1.2 0 .2 0 .2-.4 0-.5-.4-2.5-.8-3.3-.6-1.7 1-.1 1.8 1.7.2.5.6 1.2.8 1.3l2.9 1.9c.4.2 1.5 1.3 2.2 2.2.3.4.4.4.5.3 0-.2.2-.2.2-.1 0 .2 1.4 1.2 1.5 1.2a11 11 0 0 1 2.1 1.6l.4.5-.1 1.2c-.2 1.2-.2 1.3.2 2.6a26.1 26.1 0 0 1 .7 1.9l-.1-1.8c-.1-1-.2-2-.1-2.4 0-1-.3-2.4-.9-3.5-.6-1.2-.5-1.4.2-.2l.7.9s.2-.5.2-1.2l-.1-1.3-.7-1.2-.4-1 .2-1c.3-1.3.4-1.4 1.1-1.9.6-.4.7-.4 1.2-.3.7.3.8.1.6-.6-.3-1-.4-6-.1-6.7.3-1 .3-.9.6 2.2.2 2.1.4 4.1.7 5.2l.3 1.4.3.8.3.5c.1.3.6.7 1.3 1.1.9.7 1 .9 1.3 1.5l1.8 3.5 1.5 3.1c0 .2-.3.4-1 .5l-2 .8a8 8 0 0 1-1.7.5c-.2 0-.3.1-.3.2l2 3.6 2.1 3.4-.5 2-1 3.3c-.2.3-.2 1 0 2.5a64.7 64.7 0 0 1 .4 5.5 177.3 177.3 0 0 0 2.8 9.4l.9 3.6c.4 2.3.4 2.8.3 2.5-.3-.4-.4 0-.2.7 0 .4.1.7 0 .8l-.6-1.4-1-2.3-1.3-1.9-.9-1.2-1-5.2a56.8 56.8 0 0 0-2.3-9l.6 8.8-.6-1.3-.5-1.3h-1.9l-1.8 1.8-1.9 1.7-1.1 2.3-3.7 6.8c-.3.3-.2-.3 0-.7a85 85 0 0 0 2.7-5l1.2-2.4-.2-.7c-.1-.7-.1-.9.2-1.7.3-.7.4-1 .4-2.2 0-1 .1-1.8.4-3l.5-2 .5-2.5c.7-3.1.8-4 .5-4.5-.5-.5-2-.3-4 .6l-1.6.6-1.1 1.7c-.7 1-1.6 2.4-2.2 3.7l-1 2-.2 2.4-.4 3.1c-.1.8-.1.8-.6.7l-.5-.1s0-.6.3-1.3a7 7 0 0 0 .5-2.7l-.1-1.7-.4.4-.4.5.1-.9c.3-2.3.4-2.7.8-3.3l.4-.7-.5-2.7-.5-2.7.4-1.5.3-1.5.3 1.8c.1 1.8.3 2.2.5 1.7.3-.7 2.3-3.4 2.7-3.8 1.6-1.2 2.3-1.3 4-.5l1.1.5.7.4.6.5.4-.6.3-.6-.4-.9c-.4-1-1.6-2.4-3.2-4.2l-2.1-2.7c-.6-.9-1.8-2.3-2.6-3.1a23.8 23.8 0 0 1-3.9-6 28.6 28.6 0 0 1-1.2 4l-.4 1.3.6 1.1.8 1.9c0 .4.4 1 .8 1.5l.6.9v1.4l.2 2.5v.9l-.4-.4-2.6-1.7c-.2 0-.9 1-1.2 1.9l-1.2 2.8c-.7 1.5-1 2.2-1.3 3.8l-.4 3c0 .8 0 1-.1.7l-.4-.8c-.4-1-.6-1.8-.6-2.3l-.1-2.1c-.2-1-.2-2.4-.2-3.6l.1-2-.8-.9c-1.4-1.5-1.7-2-1.8-2.7-.2-.8-.8-1.7-1.2-1.7-.8 0-2.2.4-2.7.8-.7.5-1 1.7-.7 2.7.2.4.3 1.4.4 2.2.1 1.3.3 1.8.9 3.2 1 2.3 1.2 2.8 1.4 2.8l.1.3v.3l-2.7-1.6c-1.5-1-3-1.8-3.4-2-1-.2-3.4-.3-3.7 0-.2.2-.4.2-.4 0l-.2-.7c-.3-.4-.4-.3 2-.8h.7v-.8c0-.4-.2-1-.3-1.1l-.3-.4.8.4a18.4 18.4 0 0 1 4.8 3l-.5-1a4 4 0 0 1-.5-1.2c0-.3-1.2-2-1.4-2-.4 0-3.4-2.9-3.8-3.5l-.3-.5.5.4.4.5c0 .2 1.6 1.7 2 1.7.2 0 .2 0 0-.3-.2-.1-.4-.6-.7-1-.3-.7-1.1-1.6-1.5-1.6-.3 0-1.4-.6-1.6-1-.5-.6-.6-.5-.6.5 0 .5 0 .8-.2.8 0 0-.4-.2-.7-.6-.6-.7-.7-1.3-.4-2 .2-.6.2-.6-.4-1.1a6.7 6.7 0 0 0-5.7-1.3c-1 .3-3.2 1-3.4 1.3-.1 0 0 .2.4.4l.9.4h.5c.4 0 .4 0 0-.2-.5-.4-.2-.5.6-.1 1 .5 4 1.4 4.5 1.4.3 0 2.7 1.5 3 1.8a8 8 0 0 1 1.2 2c.2.4.2.4-.2.3a6 6 0 0 1-1.2-.8 6 6 0 0 0-2.3-1.1c-1.5-.5-3.6-1.6-4-2.2-.4-.4-.6-.5-.8-.2-.1.1 0 .4.4 1l.4.9-.7-.4c-1.1-.8-1.8-1-2.9-1-.7.1-1 .1-1.4-.1l-.5-.4 1.1-.3c.9-.2 1.2-.2 1.5 0 .3.1.4 0 0-.4-.1-.1-.4 0-1.6.1l-2 .2c-.3 0-.9.1-1.3.3-.7.2-1.5.7-1.4.9l1.8-.1 1.6-.2 1 .5.8.3c0-.2.6 0 1 .3.6.5 1 .6 2.2.7 1 0 1.2 0 1.6.5l.5.4-.5.1-.4.1v1.3l.2 1.6c.1.2 0 .3-.2.2l-.8-.1c-1.3 0-1.8 2.2-.8 3.6.4.7.6.7.7.2.2-.7.7-1.2 1.2-1.2s.5 0 .4-.7v-.6c.2 0 .3-.3.3-.8 0-.2 0-.4.2-.4v2.9c0-.3-.7-.2-1 .2-.5.5-1 1.7-1.2 2.8-.1.9 0 1 .9.5.4-.2.7-.3 1.2-.2l.6.1-.8.1c-1.5.2-2.8 1.2-3.6 2.7-.4 1-.4 1.5 0 2.7.2 1 .1 1.1-.2.2-.4-1.3-.4-2.1-.1-2.8l.2-.6c-.2-.2-1.5-.1-2.3 0-.8.3-2.4 1.7-2.4 2.3 0 .3-.2.4-1.1.4-1.7.2-3 .8-3.3 1.9-.2.6-.2 2 .1 3.5.2.6.2.6-.1.4-.3-.2-.4-.4-.5-1.6l-.1-1.8v-1c.2-.6.8-1 1.7-1.2.5-.1.5-.2.4-.7-.1-.2 0-.2.7-.2l1.1.2c.2 0 .4-.1.7-.7.3-.5.7-.8 1.1-1 .6-.3.6-.4.4-.7-.6-1-2.6-1.3-3.6-.7-.6.4-1 1.2-1 2 0 .5 0 .6-.2.5-.4-.3-1.4-.5-2.3-.4-.8.1-1 .2-1.3.6l-.4.6-.3-.2a4 4 0 0 0-.5-.7c-.3-.2-.4-.7-.6-1.8-.3-1.3-.3-1.6-.8-2-.7-.7-.7-1-.3-2.2.3-1 1.2-2.4 1.4-2.2v1c-.3 1-.1 2.3.2 2.3l.2.8.1 1.2v1l-.1.6c0 .1.4.2 1 .2.7 0 1.2 0 1.8.3.9.4 1.2.5 1.3.2.1-.4-.4-1.8-.9-2.3-.4-.6-1.6-1.2-2-1l-.4-.3c-.2-.2-.2-.3 0-.7 0-.3.3-.7.4-.9.3-.3.3-.3.5-.1.2.2.2.2.7 0 .7-.4 1.4-.3 1.9.2l.4.4.7-.3c.6-.3.6-.3.5-1 0-.4 0-.7.4-1.4l.4-1.3c0-.4.6-.8 1.5-1 .6-.1.6-.1.7.1.1.3 1 .8 1.4.8.3 0 .8-.6.8-1h-.1l-.4-.6c-.2-.3-.2-.5 0-1 .1-.5.6-.8 1.5-1 .6 0 .7 0 1.2.4.6.6 2.3 1.7 2.4 1.6 0 0 0-.4-.3-.9-.2-.5-.5-1-1-1.2l-.6-.6-.7-.7c-.5-.4-.7-.4-.7-.2v.5l.3.3-.6-.3c-.9-.6-2-.8-3.1-.6-1.2.2-2.2.7-2.5 1.1-.3.5-.5.5-.5 0s.5-1.2 1.2-1.6c.5-.3.5-.3.2-.4-.2 0-.7.2-1.4.7-1.2.8-3.3 2.7-3.1 2.8 0 0 .4 0 .8-.3.9-.4 1.1-.4 1.4-.2.2.3-.3 1-1 1.4-.7.5-1.5 1.3-2 2-.1.4-.4.7-.6.8a1 1 0 0 0-.4.5c-.1.5-.3.5-.4 0-.2-.8-.1-1.1.4-2.1.2-.5.4-1 .3-1.2 0-.2.1-.4.4-.7l.7-1 .7-.9c1-1 0-.8-1.2.1l-1.5 1.1a4 4 0 0 0-1 .8l-.8.8c-.5.3-1 1.2-1 1.4.2 0 1-.6 2-1.4.6-.6.7-.6 1.1-.5.2.1.2.2 0 1-.3.7-.6 1.2-1.6 2.3a11 11 0 0 0-1.5 1.8c-.3.8-.5 2.3-.2 2.6l.2 1.3c0 .8 0 1 .2 1.2.3.2.3.3-.2.4-1 .2-1.8 1.3-1.8 2.7 0 1 .3 1.4 1.2 1.7.5.1.7.3 1.4 1.2.8 1 .9 1.2 2.8 1.5l1.3.4c.5.2.4.2-.4.1-.7 0-2 0-3.1.3-.4.1-.5 0-.5-.4 0-.3-.2-.6-.3-.6-.1-.1-.1 0-.5 1.6-.2.9-.3 1.1-.5 1-.1 0-.3 0-.3.2-.1.1-.2 0-.5-.1-.1-.2-.3-.3-.4-.2l.1.3c1.1.8 1.2 1 1.5 2.4a19.8 19.8 0 0 0 3.8 8l.6 1-.5-.2-1.4-.8a15 15 0 0 1-1.5-.8l-1.6-.7c-.8-.4-1.2-.7-2.7-2.2-1.3-1.2-2.2-2-3.2-2.5-1.5-1-1.6-1.1-1.2-2 .2-.3.3-.4.5-.4l.4.1 1.6 1.2c1.6 1.5 4.6 3.3 4.1 2.5-.7-1.2-1.3-1.7-4-3.1l-.7-.6a57.5 57.5 0 0 1-2.7-5.8 12 12 0 0 1-1.5-5.6v-.7l.3.8.6 1.2.3.4-.1-.5-.3-1.8-.2-1.3-.7-.6c-1-.8-1.2-.7-1.4.3-.3 1.4-.3 1.4-.6 1-.2-.4-.2-.7 0-1.7 0-1.3-.2-2.2-1-4-.5-1-.7-1.2-1-1.2-.4 0-.5 0-.9.8a14 14 0 0 0-.8 2.4c-.3 1.3-.4 1.4-1.7 3-.7.9-1.4 1.7-1.4 2l-.1 2c0 1.8 0 1.9 1 5.2l1 4.2v.8l1 .1c.8.2 1.2.3 1.6.7l.5.4-.4-2.3a44.4 44.4 0 0 1-1.2-14c.4-1 .8-1.9 1-1.9l.8.6c.5.5.6.8.9 1.7l.2 1.4c0 .3.2.9.5 1.4l.4 1c0 .2 0 .2.2.2.3 0 .6 1 .6 2.5 0 1.1 0 1.9.3 2.9l.5 2.3c0 1 .2 1.2 1.2 2.3.6.7.7 1.1 1 3 .2 1.7.4 2 2.5 3 2 1 4.7 3 6.6 4.7l1.5 1.4h3.6l-.4-.8c-.3-.4-.4-.7-.3-.7.2 0 .1-.3-.2-1l-.4-1.1-.3-1.5-.3-1.2.3-1c.3-.8.4-1 1.2-1.5 1-.7 1.3-.8 3.2-1.3l1.6-.3-.1-.3c-.4-.3-.2-.5.7-.6l1-.2-.1-1c-.3-.7-.3-1.2-.2-2 0-.6.2-1.2.3-1.4a7 7 0 0 1 1.8-2.2c.7-.4.8-.5.5-.8-.1 0 0-.2.6-.4.7-.3.8-.3 1-.1.1.1.3.2.7 0 1.1-.3 2.1-.2 3 0 .8.3 2 1 1.8 1l-.9-.4c-.9-.3-2-.3-4 .1-3 .7-4.6 3.3-3.8 6.2.4 1.5.6 1.8 1.2 2l.6.1-1.5.3c-1.8.2-3.7 1-5.1 2-.8.7-1 .9-1.2 1.7-.4 1.2-.1 2.2 1 4.5 1 2 1.1 2 1.8 2.1l.7.3-.8.1-2.7.2-4.5.6c-4.2.4-4.2.4-4.4.7 0 .4-.1.4-2 .1-1.9-.3-1.9-.3-1.4.3.6.7 1 .9 2 .8h1v.5c0 .5-.1.6-.4.6-.6 0-.5.2.2.7.3.3.6.6.6.8a56.4 56.4 0 0 1 6 6.3c-.3-.4-2-1.4-2-1.3l.5.6.6.6-.5-.1a55 55 0 0 0-3.3-.3l-2.9-.1-1-.6a50 50 0 0 0-1.8-1.2 46.2 46.2 0 0 0 2.7.5c.3.1.3 0 .2-.6v-1.6c0-1-.2-1-1.3-1l-3-.8-3.1-1c-1-.2-1-.4-.7-1.4.2-.6 0-.7-.8-1a9 9 0 0 1-1.4-.6c-2.4-1.2-3-1.5-3-1-.1.3 1 2 1.6 2.4.3.2.7.7 1 1.3l.5 1-1-.8a7 7 0 0 1-1.6-1.4c-.2-.4-1.2-1.5-2.1-2.5-1.5-1.6-1.8-2-2.6-3.8-.6-1-1.1-2.3-1.3-2.7-.5-1-.5-.6-.2 1.6l.3 2a26 26 0 0 1-2.9-6.3c-.1-.2-.1-.3.1 0 .4.3.5 0 .2-.6l-.2-.7 1.4 1 3.7 2.9-1.3-1.7-1.3-1.6-.2-1.3a5 5 0 0 0-.5-1.8 3 3 0 0 1-.4-1l-.1-.7.3.3 1.2 2.1 3.3 6.4a8.4 8.4 0 0 0 5 4.4l1.6.5v-1c0-1 0-1.2-.6-2.1-1-1.6-1.8-2.7-2-2.7 0 0-.3.3-.4.7-.6 1.7-.4 1.6-1.7.5-1.6-1.3-1.4-1-2.8-3.8a44.8 44.8 0 0 0-1.7-3.2 68 68 0 0 1-1.4-6 17 17 0 0 1-.4-6.6c.3-2 .3-2 1.8-4.1l1.6-2.5c.8-1.6 2.2-3 2.6-3l.8 1.3.7 1.1v-.8c0-.7 0-1 .4-2 .5-1.2.5-1.3.2-1.8 0-.3-.4-.6-.6-.6-.5-.2-.4-.4 0-1.7.2-.6.5-1.6.5-2.3.1-1 .8-3.2 1.1-3.7 0-.1.6-.2 1.5-.2h1.3l1 1 1 1 1-1.7c1-1.7 1.6-2.3 2.9-2.8l1.1-.7c.5-.3.5-.5.7-1.6.1-1 .3-1.6 1-3l1-2 1.1-.2c.5 0 1.5-.3 2.3-.5 1.2-.4 1.8-.5 3.8-.6l2.4-.1.7-.6c.7-.8 1.9-1.4 4-2.1zm140.3.2c-.2-.2-.2 0 0 .6l.3 1.3.3 2 .7 2.1c.1.6.3 1 .4 1v-1.2a8 8 0 0 0-.2-1.6 3 3 0 0 1-.2-1c0-.4.1-.2.3.7.3 1.6.7 2.8.9 2.9v-.3l-.1-1.1a7.4 7.4 0 0 0-2.3-5.4zm7.9.8c-.2 0-.2.6 0 1 0 .5.3.3.4-.3 0-.4 0-.7-.4-.7zm1.2 1a46.2 46.2 0 0 0 3.7 8.7v-1c0-2.4-1.2-5.5-2.7-7l-1-.8zm-8 .3c.2.1.2.3.2.4l-.2-.2v-.2zm-105.5.5.4.2c.7.3 3.1 2.5 3.2 2.9v.2l-1.5-1.5a29.3 29.3 0 0 0-2-1.8zm42.7.7-.6 1.7-.4 1.6.3.2.3.5c0 .3.7 1.8.9 1.8.1 0 .1-.5 0-1.6 0-2-.3-4.3-.5-4.2zm18.2.5-.1.2-.3.6v.3l.2-.3.2-.6v-.2zm-69.9.5c.1 0 .4.9.3 1 0 0-.2-.2-.2-.5v-.5zm-31.8.9h-2.1l-2 .2-2 1.2-2.3 1.3c-.2.2 0 .3.7.4.3 0 .7.2.8.3.2.3.4.2 2.2-.4a12.4 12.4 0 0 1 4-.7l.3-.7c0-.4.2-.9.3-1l.1-.6zm67.7 1-.2.5c-.1.4 0 .4.2.3l.4-.5c0-.3-.3-.5-.4-.4zm94.7.2-.5 1.7c-.2.7-.1 4.3 0 4.3s.3-.2.4-.5c.2-.5.2-.5.3.7 0 .7.3 1.9.5 2.7l.5 2.5a82.3 82.3 0 0 0 1.6 8c.3 4 .4 4.3 1 2l.5-2.7.1-1.2-1.6-4.7a34.3 34.3 0 0 1-2.8-12.8zm-58.4.2-1 .2c-1 .2-1 .3-1.8 1l-1.2 1.6-.8 1a20.8 20.8 0 0 0-2.6 6c0 .7-.3 1.7-.4 2l-.2 1.3a5 5 0 0 0 1 2.8c.6.6.6.6.3.8-.7.6-2.2 3.2-2.2 3.8l.5.8.4.6 1.2 1.9c2.3 3.6 2.2 3 2.8 7.3.4 2 .7 4.2.7 4.8.3 2.9.8 5 1.7 6.6l.7 1.3-.6 1c-.4 1-.5 1.2-.6 3.2a13 13 0 0 0 0 2.6c0 .5 0 .5 2.2 1.1l2.5.7c1.6.4 3.3 1.1 5.4 2.4l1.8 1 2.4 1.4 3 1.7a25.5 25.5 0 0 0 5 1.6c1.6.5 2.8.6 6.7.7 5.4.2 6 .2 6 .1a74.5 74.5 0 0 0-3.5-10.2l-1.9-2.4-1.6-2.2-1.4-.6-6-2.5a33.7 33.7 0 0 0-10.8-3.2c-.3 0-.2 0 .2-.3l.6-.7-.3-2.2-.3-3.1c-.3-3.4-.9-6.6-1.6-9l-.7-2.4-1.5-1.6a12.6 12.6 0 0 0-3.4-2.9c-1.4-.9-2.2-1.2-3.3-1.6l-1.5-.6c0-.3 1.3-2 1.6-2.1l1.2-.4c.9-.3.9-.3 1.3 0l1.2.7c.5.2.9.6 1.2 1.1l.6.8c.3 0 1.6-3.1 2-4.7.5-1.7.5-1.8.4-3.4-.1-1.7-.2-1.7-1-3.2-1-1.7-2.5-3.3-3.6-4zm-118.5 2.6-.8.1h.4l.4-.1zm154.7.4h-.8c-.3 0-.7.2-1.1.4-.9.4-2.1 1.6-2.4 2.4l-.4 1.2c0 .9 0 1 1 .3 2.1-1.2 4-1.8 5-1.4.2 0 .3 0 .5-.3.2-.4.1-.5-.2-1.2-.4-.8-1-1.3-1.6-1.4zm-147.5 0-.9 1c-.5.4-1.4 1.5-2 2.4l-1.2 1.6-1.4.6c-2.3.9-2.7 1-4.3 2.1-1.5 1-1.5 1-2.3 2.4-.6 1-.8 1.5-.8 2 0 .3 0 .6.2.6l.5-.7c.9-1.4 2.5-3.5 3-3.8a9.7 9.7 0 0 1 5-1.8c.6.1.6.1 1.2-.6.5-.5 1-.9 1.7-1.2 1.6-.8 2.1-1.2 2.1-1.6 0-.5.7-2 1-2.2.2 0 .3-.2.1-.4-.1-.2-.4-.3-1-.3zm31.7.2c-.2 0-.3 0 0 .2.5.2.7.4.7.6l-.4-.2-.4-.2c-.2.3-.1 3.4 0 4 .2.5.3.7.6.8.3.2.6.5.8 1 .5.9.9 2 .9 2.3 0 .5.4 1.2 1.9 3.4l1.5 2.4c.1.5.3.4.6-.3l1.4-1.7 1-1h1c1 .2 1.4.4 2.9 2.1.7.9 1.3 1.5 1.4 1.5v-.4a4 4 0 0 0-.7-1l-1.6-2.6a9 9 0 0 0-1.8-2.4l-2-2.1c-3.3-4-4.8-5.5-6.5-6l-1.3-.4zm9 .4.4.5c1 1.6 2 3.3 1.7 3.3l-.7-.9c-.7-.9-1-1.4-1.2-2.4zm114.4.9c-.2 0-.2.1 0 .7.3.5 2.2 2.7 2.4 2.7v-.6c0-.3-.3-1-.5-1.4-.2-.6-.5-.9-1-1.2-.4-.2-.8-.3-1-.2zm-84.5 0-1 2.6c0 .3.3.2.5-.2.3-.8.6-2.2.5-2.3zm65.7.1c-.8.1-1.1.2-1.6.6-.3.3-.6.5-.5.6l.8.3a5 5 0 0 1 2.2 2c.2.3.3.4.6.3l1.1-.2 1.7.1.8.1c.2-.1-.2-1.7-.6-2.2-.6-1-2.7-1.7-4.5-1.6zm16.6.3zm0 0-2.8 1.1c-1.7.9-1.7.9-2.1 1.8-.6 1.2-1.8 2.5-1.4 1.5.2-.3.1-.4-.3-1-.5-.4-.6-.4-1.6-.4-1.2 0-2.8.4-4.2 1.2-1 .6-1 .6 1 1 1 .2 1.5.2 2 0 1.8-.4 2-.1 1.4 1.4a5 5 0 0 0-.4 2.5l-.1 2.5c-.1 1.2-.1 1.2-.6 1.4l-.6.2-.1-1.5c-.1-1.8-.5-3-1.1-4-1.3-1.9-4.5-3-6.9-2.5-.5.1-.5.1-.4 0 .1-.2.3-.3.4-.3.2 0 .2 0 .2-.2l-.1-.4a9 9 0 0 0-2.3-2.4 7 7 0 0 0-3.8-1c-1 .1-1.1.3-.7.8.4.6.4.8.7 2.7.2.8.1 2.7 0 3.2 0 .1.2.3.8.4l.9.3-.3.5-.3.7c0 .1.8.5 2.5 1.1 1.6.7 4 2.4 4.3 3.2 0 .3.4 1 .7 1.7l.9 2.2c.3 1 .3 1 0 3.9a23 23 0 0 0 0 3l1.4-.4a84.1 84.1 0 0 1 8-2.5l1.1.1 1 .2 3.2.3c1 0 2.3.4 2.3.6l.2 1.2c.2 1.2.2 1.3.7.9l1.4-1.3c.6-.5 1.2-1 1.2-1.2l.2-1.7v-1.4l-.3-.1c-.5-.1-2.8 0-3.3.1-.3.1-.4 0-.6-.6l-.2-.8.5-.1c.5-.2.6-.2 1.1.5.5.5.7.7 1 .7.5 0 .5 0 .4-.4 0-.2-.4-.9-.9-1.4l-.8-1.1.4-.8c.3-.7.9-2.6.7-2.8l-.9 1.3c-.3.6-.7 1.5-.7 1.8l-.5 1.4-.4.8-.6-1.1a8 8 0 0 0-1.7-2.3c-1-1-1.3-1.1-2.5-1.6-1-.3-1.6-.4-2.3-.4l-1-.2c0-.2 1.5-1.2 2.4-1.6l1.2-.5c1-.5 1.8-.7 3.5-.6 1.5 0 1.8 0 2.8.4l1 .5.2 1.4.3 1.5 1-1.5.8-1.5v-1.8a14.1 14.1 0 0 1 .3-3s-.5.2-.9.7a5 5 0 0 0-1.1 2l-.5 1.3-1.1-2.1a12.2 12.2 0 0 0-5-5.8s.2-.5.6-.9l.7-.7zm-118.6.9.5.2.6.5c0 .3-.2.2-.7-.3zm-30.4.9-.7.7c-1 1.2-1 1.3.6.7.9-.3 3.5-.3 5.2 0l1.2.2 1.6-.5 1.6-.6h-.8l-2.2-.1c-.9-.2-1.8-.2-2.7-.2h-2.6zm90 1.6.3 1.5c.1.3.4.1.4-.2l-.2-.4v.5l-.2-.2v-.5l.2.2-.5-.9zm-96.7 2.2c-.8 0-2.5.9-3.7 2.2-.6.8-.9 1.2-1.3 2.3-.2.8-.8 2.2-1.3 3.2-.9 1.7-1 2.3-.8 2l.7-.9c1-1.7 2.8-3.8 3.3-3.8.2 0 .5-.4.8-1.1a6 6 0 0 1 1.7-2.2c.9-.7 1-1 1-1.3 0-.3-.2-.4-.4-.4zm8.2 1h-.4l-2 .3c-.8.1-1.4.3-2 .6-1.5.8-1.6 1.3-.2.9.4-.2 1-.3 1.1-.2.2 0 .6 0 1.1-.4l1.5-.6.9-.4v-.2zm9.9.1c-.2 0-.3 0 0 .2.2.2.4.2.3 0l-.3-.2zm76.5 1.1-.2.1v.5l-.3 1.8c-.2 1.4-.1 2.5.1 2.2l.6-2c.5-1.8.5-1.8.2-2.2a1 1 0 0 0-.4-.4zm-112.8 1.5.7.2c.6.2.9.4 1 .7.3.5.3.6 0 1.4-.3.8-.7 1.3-2 2.7-1.4 1.6-1.6 2-2.8 4.2-.7 1.3-1.6 3.4-2 4.7l-.9 2.2.4 2.9.3 2.9-1.2-1.7a19 19 0 0 1-1.9-4l-.8-2 .7-2.3a22.3 22.3 0 0 1 4.1-7.8 56 56 0 0 1 4.4-4.1zm82 1 .4 2a65.3 65.3 0 0 1 2.3 12.5c.2 1.2.4 1 .8-1l.2-1.6-.6-2c-.5-1.7-.6-2.3-.7-4-.2-2-.2-2.3-.6-3.2-.6-1.2-1.8-3-1.8-2.7zm108 0-.6.4a17 17 0 0 1-3 3.3c-.6.3-.7.4-.7.8 0 .2 0 .6-.3 1l-.4.7.4-.1a91 91 0 0 1 3-3c.5-.5.8-1 1.2-1.8.2-.6.4-1.2.3-1.3zm15.6.4-1 2.2a10.6 10.6 0 0 1 1-2.2zm-164.3.5c.5 0 1 .2 2.2.9 1 .5 1.7 1 2 1.3l.2.4a163.6 163.6 0 0 0-4-.8l-1.5-.2c-.4-.1-.3-.1.2-.3.5-.2.7-.7.4-.9-.4-.2-.2-.4.5-.4zm34.7.3v.4-.4zm-58.4.8-.4.6a5 5 0 0 1-.9 1c-.7.8-1.7 2-2.4 3.3l-1.3 1.7-.7.7v1c0 1.1 0 1.2.7 2.2l.8 1 .1-1.7c0-2.2.1-2.6 1-4l1-2.1.5-1v.6c.2.5.4.6.6.1l.5-1.2c.5-.9.7-2.2.5-2.2zm38.7.2.2.8c.2 1.1.1 1.4-.2.6-.2-.6-.3-1 0-1.4zm64.2.4-.1.3-.4 1.5-.3 1.2 1.1 1.5 1.2 1.5.3-.7.5-1.2c.2-.6.2-.6-1-2.3l-1.3-1.8zm-41.8.9h-.1l-.2.3c-.3.6-.3.7 0 1.2.6.5.7.4.6-.6l-.3-1zm.6.2.1 3c.2 1.9.4 2.7.6 3.4.3.6.8 2.8 1.2 5 .4 2.3.8 4.2 1 4.2v-.7l-.2-2a137.9 137.9 0 0 0-2.7-13zm-44.8 4.5c-1.3 0-3 1.5-3 2.8 0 .8.2.9 1.2.8 1 0 1 0 1.3-.5.3-.3.7-.8 1.1-1 .6-.5.7-.6.7-1.1 0-.5 0-.6-.5-.8l-.8-.2zm86.4.5.3.8.3.8.3-.6.2-.7c0-.2-1-.5-1-.3zm62.7.2-1.2 1c-1.2 1-2.5 2.9-4 5.9l-.9 1.6v1.8c0 1.5 0 2 .3 2.8l.4 1 .9-1a15 15 0 0 1 2.3-2c1.3-.8 2.1-1.7 2.4-2.4l.5-2.4.3-2-.3-1.2-.4-2.1c0-.6-.2-1-.3-1zm35.2.3c-.2 0-.7.8-1.5 1.9l-1.1 1.9 1.3-1.7a22 22 0 0 0 1.3-2zm-201.1.8a6 6 0 0 0-1.1 2.2s.2-.1.2-.3c.2-.5.3-.5.6 0l.3.5.2-1c.1-1.1 0-1.5-.2-1.4zm23 0 .6.6c.5.4.6.6.5.8v1.3c0 1 0 1.2-.3.7l-.2-1c0-.7 0-1-.3-1.2a1 1 0 0 1-.3-.7zm38.8.4c-.2 0-.6 1.1-.6 1.7l-.4 1.8c-.3.9-.5 1.7-.5 2.6l-.5 5.6c-.2 1 0 1 1-.6.6-1 .7-1.2 1.8-1.8.6-.3 1.2-.7 1.2-.9l-.9-3.6a63.2 63.2 0 0 1-1-4.8zm-20.5 1v.2l.2.5c0 .1-.1 0-.2 0v-.7zm-3.6.4c.2-.1.5 0 1 .4l1 .4c.2-.1.3.1.1.6-.1.3 0 .4.1.6.8 1 3 4.4 3 4.9l.1.5-.8-.8-1.6-1.4c-.7-.5-.8-.6-1-1.4-.3-.7-.6-1.1-.6-.6l-.2.4c-.2.3-.3.3-.9 0a9 9 0 0 0-1.7-.6c-2.3-.5-4.1 0-6.7 2.2-1.2 1-1.2 1-1.7 2.6-.9 2.5-1.2 3.6-1.2 4.8 0 1 .1 1.2.6 2.1l.8 1.5.2.3 1.2-.8a70.6 70.6 0 0 0 3.7-2.3l1.7-1c.7-.4 1-.4 2.5-.5h3c.6.1.8 0 1-.1.3-.2.4-.2 1 0 1 .3 1.2.3 1.2-.2v-.4c.2 0 .6.5 1.1 1.1 1 1 1 1.1 1 1.8l-.1.8s-.6-.1-1.1-.4l-2.6-1a8.5 8.5 0 0 0-3.4-.5h-1.7l-1.7 1c-3.6 1.9-5.5 3-7 4.4a8.2 8.2 0 0 0-2.4 2.9c-.8 1.3-.9 1.5-1 2.8a5.8 5.8 0 0 0 2.1 5c.8.6 1.4 1 1.6 1l1.2-.3 2.2-1a125.9 125.9 0 0 0 7.2-3c2.3-.2 2.2-.2 2.8-1 .4-.5.5-.6.7-.5a59.3 59.3 0 0 1 4.2 1.6l-.2.5-.2.4-.9-.3c-.7-.2-1.1-.2-3.2-.2l-2.4.1-2.4 1-5.2 2.1c-2.7 1-3 1.1-5.1 2.6a12 12 0 0 0-3.6 3.2l-1.3 1.7.1 1.8.1 1.8.9 1.4c.9 1.4 1 1.5 1.8 2l.6.3-1 .4-2.6 1c-1.4.4-1.5.4-2.2.2a26 26 0 0 0-.7-.2l-.3-.1h-.4c-.1.1.3.3 1 .4.2 0 .5.2.4.3l-1 .3c-1.3.4-6.6 3.4-6.6 3.8v.1l-1.2-.3c.6-.2.9-.3.9-.6 0-.4-.5-.6-1.6-.4-.9.1-2.7 0-6.3-.7a213.7 213.7 0 0 0-8-1.2c-.6-.2-.7-.2 1.9-.5l1.6-.2-.6-.3c-.5-.4-.6-.4-.2-.5 1-.3 5.2-.6 8-.5h3.1l-1-1.1c-.6-.5-1-1-1-1.1l.6-.2c.3 0 1.3 0 2-.2l1.5-.3 2 .6 2.4.6c.3 0 .3 0 0-.3l-.3-.3 1-.9 1.2-1-.7-.4h-2.5c-1.8.2-2 .2-1.8.4l-.4-.1-.8-.8c-.6-1.2-.6-1.2-1.2-1.2-.5 0-.8-.2-1.5-.7l-1.2-.6a8.8 8.8 0 0 1-2.6-1.6l3.2 1.1 3.3 1.1 3-.4c2.9-.4 3.8-.6 4.3-1.2l.6-.4a9 9 0 0 0 1.7-1.4 12.6 12.6 0 0 1 2.3-2l-1.6-1.6-.5-.3.8-.2c.7-.2 2.5-1 2.5-1.2l-.4-.5-.5-.6-.4-1a12 12 0 0 1-1-1.8c-.3-1-.3-1.2-.1-1.7l.2-.9c0-.6.4-1.4 1.3-2.6l1-1.2-.4-.3c-1.2-.8-1.2-.6.5-2.1 1-.7 1.6-1.4 1.6-1.4l-.6-1.4-.7-1.4v-1.2l.4-1.8c.2-.6.2-.6-.3-1.2l-.5-.5.2-.7c0-.4.3-1 .6-1.4l.4-.8.5.4c.6.5.8.6.8.3s1.2-2.1 1.9-2.8c1-1.1 3.3-2 4.5-1.8 1 .2 2.2.6 3 1l1 .5.2-.5c.4-1.1.4-1.1-.2-1.6-.6-.5-.6-.6-.4-.6zm-66.7.7zm22.1 1zm0 0s-.1 0 0 .4c.1.8.6 1.7.8 1.5l-.2-1-.6-.9zm79.7 1.3s.2.2.2.5.3.8.5 1.1l.6 1.2-.6-.6c-.8-1-1.1-1.7-1-2 .1-.2.2-.2.3-.2zm-80.5.3c0 .1.8 2.3 1.2 3l.8.9c.5.3.6.5.5.8 0 .4.5 1.5 1.4 3l.5.8.8-.2.8-.3s-.4-.7-1.2-1.5a21 21 0 0 1-1.2-1.4h.3c.7-.2.8-.4.1-1.2a36 36 0 0 0-4-4zm4.6.9-.1.1.2.5c.2.4.5.6.5.3l-.6-1zm-.2.9h-.1a32 32 0 0 0 2.7 6.3c.4 1 .5 1 .6 1l-.3-1.2c-.3-.6-.5-1.5-.6-2-.1-.5-.3-1-.8-1.6a10 10 0 0 1-1-1.6l-.5-1zm74.4 1 .5 1.1 2.5 4.9c1.7 3.2 2 3.7 2.9 4.6 1 .9 2.6 2.1 4.8 3.6.7.5 1.1 1 1.6 1.6.3.5.7 1 1 1.2l.5 1.7c.1 1 .3 1.5.5 1.7l.4.2.3-1.7c0-.9.2-1.6.2-1.7l.7 1 2 3.5a67.2 67.2 0 0 1 4 7l.5.6v-.6l-.2-1-.1-.3.5.2a44.1 44.1 0 0 0 4.6 2.2l7.8 3.6 2.4 1.7c2.2 1.8 6.6 4.3 8.3 4.9.3 0 1.4.7 2.5 1.3 1.6 1 1.9 1.2 1.8 1.5l-.2.8h-5.6c-1.7 0-3.3.4-4.8 1a195 195 0 0 1-6-5.8l-6.4-6.3-2.6-1.4c-3-1.6-3.9-2.1-4.6-3-.5-.5-.5-.6-1.3-.6h-1l-3.5-3c-2.6-2.2-3.9-3.2-4.9-3.8-1.6-.9-2.2-1.6-2.8-3.3a11.3 11.3 0 0 0-1.4-3c-2.1-3.9-2-3.4-3.4-8.1a149 149 0 0 0-1.3-4.4c.4.6.4.2 0-.8a6 6 0 0 1-.2-1.1zm-102.3 2.7c1 0 1.9.3 3 .8-1.1-.5-2-.8-3-.8zm240.4 1-.5 2.7c-.7-.1-1 0-1.6 0l-.8.2c-.4.1-1 .5-1.2.8l-1 1.8-.3.8-1.4.7c-1.8 1-2 1-4.3 1.5l-1.4.4.1-.3 1.3-3.4 1.6-.6c3-1.2 6-2.7 9.4-4.7zm-14.1.3-1.2.6c-1 .6-1.4.7-2.7 1-2.1.4-3.4.9-3.7 1.2-.2.4-1.3 5.8-1.2 6 .1.2.8-.2 2.8-1.5.8-.6 2-1.3 2.8-1.6 1.8-.8 2-1 2.3-1.5.2-.5 1-4.1.9-4.2zm-126.8.6h-.2c0 .2 0 .2.2.2h.1l-.1-.2zm19.5 1.3h.5c.4.1.2 0 1.1.6h.2l.2.5V-704.6l.2.3.1.2.1.1h-.2l-.6-.1h-.2l-1-.8-.4-.3v-.8zm-117 2.4.3.2c.2 0 .2 0 3 3.8 1.6 2.4 2.2 3 4.5 5.2.6.5.8 1 1.5 2.6a53.4 53.4 0 0 0 5.6 10.4h.3c0-.2.2-.2.5 0a3 3 0 0 0 2 .8c.9 0 1 .1.9.7-.2.6.9 2.9 1.7 3.5.5.5.7.5 2.4.7l3.6.3 1.6.1-.8.4c-.7.4-1 .4-2.2.4a5 5 0 0 0-1.4.1l.3.3c.2.2.2.2 0 .2h-2c-2-.2-2-.2-3.8-1l-2-.8-1.6-.4-.4-1.1c-.4-1-.7-2.1-.9-3.5l-.1-1-.2-.9c0-.5-2-3.6-2.3-3.6l-.4.4c-.2.4-.2.5 0 1.4.2.6.4 2 .5 3.5a54 54 0 0 0 0 3.2c-.7-.9-1-1.4-1.3-2.2-.1-.5-.5-1.3-.9-1.8a36.3 36.3 0 0 1-4.2-7l-1.4-2.8c-1.8-4.3-1.6-3.7-1.8-6.4-.1-2.4-.1-2.5-.7-3.6-.4-1-.5-1.3-.4-1.8l.2-.3zm28.8.3-.1.3c0 .2 0 .3.3.3l.3-.1c0-.2-.4-.5-.5-.5zm50.7 0c.2 0 .2 0 .2.3 0 .2-.6.8-1.2 1v-.5c0-.5.1-.5.4-.4h.4c0-.2 0-.3.2-.3zm16 .3.2.2.1.5-1.6 2.6c-1 1.7-1.8 3-2.1 3.9l-.6 1.4.4 3.6 1.3 15.2.6 6.5h.7l-4.5.2-.8-8-1-10.3a45.4 45.4 0 0 1-3.1 4.5c-1 1.3-1.8 2.7-2 3-.1.4-.2.4-.6.3-.7-.1-1-.3-1.3-1.2-.3-1-.4-1.5 0-.8.3.8 1 1.7 1.1 1.7.1 0 1.2-1.4 2.3-3.2l2.2-3.2 1.3-3.5c1-2.6 1.4-3.8 2.1-5a72 72 0 0 0 3-5.2 51.5 51.5 0 0 0 2.3-3.2zm20.7.4 1.2.6c1 .7 1.1.8 1.1.4v-.3c.5 0 5 1.3 6.4 1.8 1.6.7 1.8.8 2.5 1.6l.8 1-.5.7a3 3 0 0 1-.7.7v-.5c0-.6-.4-1-1-1-.3 0-1-.2-1.9-.6a24 24 0 0 0-4-1.2c-.2 0-.9-.5-3.2-2-1-.7-1.3-1-.7-1.2zm-86.2 1.4c-.2 0-.3 0-.3.2s2.2 3 2.4 3l.2-.1c0-.2-1.7-2.9-1.9-3a.8.8 0 0 0-.4 0zm192.2.2c-.4.2-1.1 1-1.6 1.9l-1.2 1.6a41.8 41.8 0 0 0-3 3.6l-1 1.4c0 .4-.3.9-.6 1.4l5 1.1a30 30 0 0 0 1.4-6 19.6 19.6 0 0 1 1.2-5c0-.1-.1-.1-.2 0zm-200 .2a13.3 13.3 0 0 0-1.4 4c0 .1-.9-1-.9-1.2 0-.1 0-.2-.2-.3-.3-.3-.3-.2.2 1.5.6 2.1 1.7 4.9 2.7 6.5 1 1.5 1 1.6 2.4 2.6 1.5 1 1.8 1.2 2.1 1.2.2 0 .1 0-.1-.2l-1.8-1.8c-1.3-1.2-1.5-1.6-1.7-2.3-.2-.7-.3-1-.1-1.2.1-.3.1-.4-.2-.9l-.5-.5h.4c.9.3 1.8.4 1.8.2l-.2-.9-.3-1.4-.1-.7.8 1c.8 1 1.1 1.2 1.1 1l-1-1.4-1.3-2.3c-.6-1.4-1.6-3-1.7-2.9zm73.4 1.8v.1-.1zm.4.7.2.3.8 1.1c.8 1 1 1.4 1.7 3l.8 1.6c.2.5.2.7.7 1.3l.9 1.4.8 1.3 1 .8.5 1.2a44.1 44.1 0 0 0 2.2 6l.8 1.4.4.4a3.9 3.9 0 0 0 .5.3 27.6 27.6 0 0 0 3.2 1.7 75.7 75.7 0 0 1 2.8 1.5l.3.3.5.3 1.3.6a121.4 121.4 0 0 0 9.8 4l.1.1.8.1h-.6l.4.2a52 52 0 0 1 3.3 2l.2.2.1.1c-1.6-.7-3.4-1.2-5.3-1.2h-8c-2 0-3.8.6-5.6 1.5a56.6 56.6 0 0 0-10.8-2h-.1c-1-.2-2.4-.2-3.7-.2l-.4-5.1c-.6-7-1.2-14.4-1.5-16.6l-.3-3.4.3-.8 1.8-3.3h.1zm88.8 0c-.1.1-.2.2-.2.5 0 .6 1 .9 1.2.4.2-.3.1-.4-.4-.6-.3-.2-.5-.3-.6-.2zm-67.6.4 2.2 1.8 2 1.4c1 .5 2 1.1 2.2 1.4l.8.5c.4 0 .3.2-.6 1-.9.7-1 .8-1.3 2.2-.4 1.2-.7 2-.7 1.5l-1-1.5a18 18 0 0 1-2.7-6 30.5 30.5 0 0 0-.9-2.3zm-8 .7c0 .2.7 1.7.8 1.6l.4-.7.3-.5-.4-.2c-.5-.2-1.1-.3-1.1-.2zm-83 .5c-.2 0 0 1.4.4 2.3.2.5.5.9.8 1.1.6.4.8.4.8.3 0-.6-1.7-3.7-2-3.7zm48.7.7-1.6 1.1c-1.4 1-1.5 1-1.3.6l.5-.6a19 19 0 0 1 2.4-1.1zm-63.1.7.7 1c.5.5.7.6 1 .5l.4-.1c.1-.1-.2-.4-1-1-.7-.3-1-.5-1.1-.4zm223 1.4.1.3v.3c0-.2 0-.4-.2-.6zm-218.4.4 1.4.5-.8-.2c-.4-.1-.7-.2-.6-.3zm2 .7c-.2 0 .8.6 1 .6 0-.2-.9-.6-1-.6zm214.5.4-1.5 3a38 38 0 0 1-1.6 2.9h-.1l.4-1.3c1-2.5 1.1-2.8 2-3.7zm-156.4.7c.1 0 .2 0 .3.2 0 .1.2.2.4.1.3 0 1.4.4 3 1.4 1.3.7 1.4.7 1.6-.5l.4-.8.1.1-.6 2.5-.6-.3-4.3-1.8c-.6 0-.7-.2-.6-.6 0-.2.2-.3.3-.3zm106.7.6c-.1.1.2.6.4.6l.1-.3c0-.2-.4-.4-.5-.3zm-156.9.3c0 .3 0 .6.2 1l-.2-.8v-.2zm.3 0h.4v.5zm207.2 1.7-1.7 4.7-.4-.4 1.4-3 .7-1.3zm-152.2.8v.3c-.1.7-.2.8-.2.3l.1-.6h.1zm102.6.4-1.2.4a24.9 24.9 0 0 1-4 1.6l.7.7.8.8c0 .2.3.4.5.5l.8.8.3.5-.4.1c-.4.2-.4.2-.3.4l.7.1c.5 0 .6 0 .5-.2l-.7-2.5 1.2-.5 1.2-.5v-1l-.1-1.2zm43.6 0v.2h-.2l.1-.2h.1zm-146.4.7v.2c0 .2 0 .4-.2.5h-.1l.1-.5.2-.2zm102.9 1.8-.5.2c-.6.2-.4.5.3.3l.2-.3v-.2zm-103.5 1 .1 1v1.3l-.2-.5v-1.9zm151.9.6 3.5 3.5a68 68 0 0 1-3.5-3.5zm-155.7.6-.4.4-.7.5-1 .7-1.7 1.1a25 25 0 0 1-6.4 3.3l4.6-3.4c.6-.4 5.4-2.6 5.6-2.6zm3.2 2.2h.3v.3h-.5l.2-.3zm6.4 0 .5 6 .7 6.4c-5 .6-9.7 2-14.2 4.7h-.1a15.2 15.2 0 0 0-4.5-3l-.8-1.9 1-.5 2.6-1.3 3-.3a161.6 161.6 0 0 0 3.4-.5h.4a1.7 1.7 0 0 0 .5-.3l.3-.3c.8-.7.6-1.2.6-1.4v-.8a11 11 0 0 0-.3-1l-.1.7c.2-.7.1-1.6-.2-2.1-.4-.5-.8-.8-1.3-1 .6.2.1 0 0 0-.3-.4-1-.6-1.6-.8l-.7-.5-.4-.4.5-.3.6-.4.7.2 1.2.6h.2c.3.5.7.7 1.2.8h.1a5.8 5.8 0 0 0 1.3 1c.2.1.4.3 1.1.2h1.4c.5-.2.7-.5 1-.7l.6-1 1.3-2zm-78.8 3 .5.4 2.1 1.4 2.8 1.8 1.6.8c.5 0 5 1.6 5.3 2l3 1.2c2 .7 2.9 1.2 4.2 2h5.8l3.7.2-3.7-.2h-21 12.2a158 158 0 0 0-8.3-3.7 50 50 0 0 1-5.5-2.6c-1.3-.7-1.7-1-2.3-1.7-.5-.7-.6-1-.5-1.3zm201.3 1.3 11.8 2.5-11.2 51.4 8.2 1.7-2.3 11-8.2-1.8-3.8 17.4-13.4-2.9 3.8-17.4-33.7-7.3-4-10.9 9.7-8 23.4-19.3h-.1zm-94 .3 1.1.3c.5.2 1.7.4 2.7.5l2 .4 1 .8 2 1.5c1.2.6 1.7 1 1.5 1l-4.2-1.7a32.3 32.3 0 0 1-6-2.8zm-39 0 .5.4.7.5.2.1c0 .1 0 .2-.2.2h-.3c-.1.1-.4-.1-.7-.4l-.5-.7h.3zm36.7.8.1.2-.1-.2zm3.7.2zm-68.4.2c-.3 0-1.5 1-1.6 1.4-.1.3-.1.3.3 0a9 9 0 0 0 1-.8c.5-.5.6-.6.3-.6zm28.6.3.6.6c.3.3.5.6.4.7l-3.2.5-3.1.3-3 1.5-3 1.6.8 1.7-.7-.1-.2-.3-.5.2-1.5-.2h-3.7l.1-.2h-.4l-.5.2a52.2 52.2 0 0 0 7.8-3.3 17 17 0 0 1 5.1-1.8l4-1zm53.2 5.5a2 2 0 0 0-.3.6v-.2l.3-.4zm21.1.4 1.3.7h.2H24570.9l.2-.7zm-95.7.6a15.2 15.2 0 0 1 0 0zm-45.3.1zm144.6.3zm-22.1.2 1.1.5c.6.3 1.3 1 2.5 2h-.1l-2-1.5a15 15 0 0 1-1.5-1zm24.1.4zm-150.7.3zm38.3.4zm88.5.1zm5.3 0-.5.3c.2 0 .4-.2.5-.3zm25.6 2.8-.6.6.5.6 1.2-.7-.6-.3zm42.7 2.5-36.7 30.2 28.8 6.2zm-111.7 7.4a50.5 50.5 0 0 1 7.4.7c2.3.4 4.5 1 6.4 1.6v7a29.2 29.2 0 0 0-6.3-1.8c-2.2-.4-4.5-.7-7-.7-5.8 0-10 1.6-12.4 4.7a22 22 0 0 0-3.6 13.6c0 5.5 1.3 9.7 4 12.6 2.6 2.8 6.7 4.2 12.2 4.2a33 33 0 0 0 13.2-2.3v7.1a39 39 0 0 1-13.9 2c-7.7 0-13.6-2.2-17.6-6.4-4-4.3-6-10-6-17.2 0-5.2.9-9.6 2.6-13.4 1.7-3.7 4.3-6.6 7.7-8.6 3.5-2 8-3 13.3-3zm-61.5.7 2.6.1c2.5.3 4.6 1 6.3 2 2.4 1.3 4.1 3.2 5.2 5.6 1.2 2.4 1.7 5 1.7 8a15 15 0 0 1-4.4 11.4 16 16 0 0 1-11.7 4.2h-12.8v15.9h-8v-47.2zm22.2 0h8v47.2h-8zm69 0v25.7l16.7-21.2 3.5-4.4h7.4l-10.9 13.8-4.5 5.7 17.8 27.7h-8.5l-13.9-22-7.7 9.8v12.2h-8V-653zm-104.2 6.3v18.7h11.2c3.2 0 5.6-.8 7.2-2.5a9.3 9.3 0 0 0 2.4-6.7c0-3-.7-5.4-2.3-7-1.5-1.7-3.8-2.5-6.9-2.5zm14.1 58.9h3.6v21.3h-3.6zm14.9 0h3.2l11.1 15.7V-588h3.6v21.3h-3.2l-11-15.6v15.6h-3.7zm29.2 0h8.7c3.1 0 5.5.8 7 2.5s2.3 4.4 2.3 8.3c0 3.6-.8 6.3-2.3 8-1.5 1.7-3.8 2.5-7 2.5h-8.7zm28.6 0h3.6v21.3h-3.6zm22.5 0h4l8 21.3h-3.6l-2.1-5.5h-8.6l-2.2 5.5h-3.7zm22.7 0h3.2l11.2 15.7V-588h3.5v21.3h-3.1l-11.1-15.6v15.6h-3.7zm36.8 0h4l8.1 21.3h-3.7l-2.1-5.5h-8.6l-2.1 5.5h-3.8zm-107 2.8v15.8h4.5c1.4 0 2.6-.2 3.5-.6 1-.5 1.6-1.2 2-2.4.5-1 .8-2.7.8-4.8 0-2.1-.2-3.7-.7-4.9-.4-1.1-1-2-2-2.4a8 8 0 0 0-3.6-.7zm49.4.5-3.7 9.7h7.5zm59.6 0-3.7 9.7h7.4z" style="color:#000;fill:url(#b);fill-opacity:1;stroke-width:2.45115;stroke-linecap:round;stroke-linejoin:round;-inkscape-stroke:none;paint-order:fill markers stroke" transform="translate(-24417 851)"/></svg>