<svg xmlns="http://www.w3.org/2000/svg" xmlns:xlink="http://www.w3.org/1999/xlink" xml:space="preserve" width="944.8" height="1159" viewBox="0 0 250 306.6"><defs><linearGradient id="a"><stop offset="0" style="stop-color:#2d1565;stop-opacity:1"/><stop offset="1" style="stop-color:#00cb82;stop-opacity:1"/></linearGradient><linearGradient xlink:href="#a" id="b" x1="24425.4" x2="24638.6" y1="176.3" y2="-89.2" gradientUnits="userSpaceOnUse"/></defs><path d="M24546.1-130c-69.2 0-125 55.8-125 125v19.2c0 15.5 2.9 30.3 8 44-3.6 1.8-6.4 5-7.6 8.8h-.1v-.1l-.2.9v47.1c0 7 4.6 13 11.3 14.7.4 1.6 1.1 3.2 2.1 4.7v20c0 5.8 4 10.9 9.6 12.4a13 13 0 0 0 12.4 9.6h181.2a13 13 0 0 0 13-12.9v-4.5l5.9-10.5a13 13 0 0 0-.3-13.2c4.5-1.8 8-5.7 9.1-10.5l2.4-10.8c1.2-5.7-.9-11.4-5.3-15l8.2-38.2c.3-1.2.4-2.5.3-3.8-.7-2.3-2-4.5-3.7-6.2l-1.3-1.3c3.2-11.1 5-23 5-35.2V-5c0-69.2-55.8-125-125-125zm0 7.2a117.8 117.8 0 0 1 109.3 161.7c-1-.9-2-1.5-3.3-2 2-9.5 5.5-19.4 5.5-19.4s-6 9.1-10 18l-10.5-2.3h-.2a98.5 98.5 0 1 0-186.1-13.9c-4.3 9-8 18-11 26.4a117.8 117.8 0 0 1 106.4-168.6zm0 23.1c10.6 0 20.7 1.7 30.1 5l3.8 8-23.4 1.8 19.4 13.3-19.4 13.4 23.4 1.8-10 21.3 21.2-10.2 1.8 23.5 13.3-19.4 13.4 19.4 1.8-23.5 13 6.2a94.5 94.5 0 0 1-1.7 72h-.2c-2.4.2-4.6 1-6.6 2.1 1-10.2 2.9-20.6 6-31-5.1 9.5-9.5 18.8-13.3 27.8l-.7-5.7a63 63 0 0 0-6.9-16.5c-2.9-5.2-5.5-9.3-5.5-9.3a1 1 0 0 0-1.8 1s1.6 4.4 3.1 10.2a78.8 78.8 0 0 1 3.3 17.2c0 6-.8 13.2-2 20.9l-4 3.2-.1.3-1.7 1.4a144 144 0 0 0-4.6-26.2v-.7l-.1.4c-1.8-6.1-4-12.2-6.8-18.2-.5-1-2.1-.5-2 .6 2.2 10.8 3.2 21 3.5 30.7l-1.4 4.5c-1.8-6-4-11.9-6.7-17.6v-9.3c0-1.1-1.5-1.4-1.8-.3 0 0-2.7 7.4-5.4 16.8l-1.6 6c-5.7-25.5-14-52-25.5-73.2a318 318 0 0 1 9.3 92.3l-.6.7a15.2 15.2 0 0 0-4.2-3c.7-11.7.7-23.1-.9-31.9a63 63 0 0 0-6.9-16.5c-2.8-5.2-5.5-9.3-5.5-9.3a1 1 0 0 0-.6-.4c-.7-.2-1.5.5-1.2 1.3 0 0 1.6 4.5 3.2 10.3a78.8 78.8 0 0 1 3.2 17.2c0 7.7-1.3 17.6-3.2 27.8h-2c-.6 0-1.2.2-1.8.4a132.7 132.7 0 0 0-11.9-47 1 1 0 0 0-1.2-.6 1 1 0 0 0-.6 1.1 203 203 0 0 1 3.4 31.4l-3.2-5.3c1.4 4.1 2.5 8 3.3 11.5l-.1 8.6-4.3-.6H24523.3a278.4 278.4 0 0 0-26-68.1 1 1 0 0 0-1.8.8c5.5 18.3 6.7 37 6 54l-1.4 4a282.1 282.1 0 0 0-23.6-58.8 1 1 0 0 0-1.8.7c3.5 11.6 5.3 23.3 6 34.5a81.5 81.5 0 0 0-10 22.7v-7.2l.1-19.9a1 1 0 0 0-1.2-1 1 1 0 0 0-.7.7s-2.6 7.4-5.3 16.8l-1 4h-.1a94.3 94.3 0 0 1-7.8-19.8c1-5.1 2.2-10.3 3.8-15.4-1.8 3.3-3.5 6.6-5 9.8a94.8 94.8 0 0 1 92.7-113.5zm45.6 11.6a95 95 0 0 1 32.5 29.6 22 22 0 0 1-33.5 2.6 22.1 22.1 0 0 1 0-31.3l1-.9zm-112.8 85.3c9.5 19 16 37 20.2 52.8-1 3-1.9 6.4-2.8 9.9-2.5-2-5.6-3.3-8.8-3.4h-5.9c1.2-10.7 1.7-22.3.9-34.3l1.5-4.7-1.6 2.6c-.6-7.5-1.7-15.2-3.5-22.9zm20.8 0a281.6 281.6 0 0 1 21.6 58.7l-2.4-.1c-4.5 0-8.9.5-13.1 1.8l-.7-2.3v2.5l-1.9.6.1-12.2c1-15.4.3-32.1-3.6-49zm108.4 11.4 1.2 2a63 63 0 0 1 6.7 15.9c.5 2.8.9 6 1 9.3l-3.4 9.3-3 2.5c1-6.9 1.6-13.4 1.5-19 0-5-1.6-11.9-3.2-17.7l-.8-2.3zm-64.3 0 1.2 2a63.2 63.2 0 0 1 6.7 15.9 138 138 0 0 1 .8 30.8c-1.2-.4-2.5-.7-3.8-.8h-4c1.9-10.1 3.2-20 3-27.9 0-5-1.6-11.9-3.2-17.7l-.7-2.3zm48.2 9.1c1.7 4.4 3.2 8.8 4.3 13.3l-2.3 5.6c-.4-6-1-12.4-2-18.9zm-63.6.6c5 13 7.4 26.4 8.4 39l-.9.4c-1.2-3.8-3-7.8-5.3-12.2a214 214 0 0 0-2.2-27.2zm-59.6 7-.1 13.3-.1 17 1 1.1-.1 1.9c-2.7-1-5.5-1.6-8.2-2h-.5l-3.7-.1h-5.5c-.1-9.3.3-19 1.7-28.7 2 5.7 4.6 11.2 7.6 16.4l.1.2v.1l.2.2 1.3 2.3 3-11.3c1.7-5.8 2.3-7.4 3.3-10.4zm113.5 0v13.3l-.2 19.2c-1.1-.5-2.3-.8-3.5-1l-2.2-11.2 2.6-9.9c1.7-5.8 2.3-7.4 3.3-10.4zm-101.5 2.6c.3 10-.3 19.6-1.3 28.6-.7 0-1.4 0-2 .2-.3-3.3-.5-6.4-.4-9.2 0-5.4 2-13.2 3.7-19.6zm103.5.7c2 10.4 3 20.3 3.5 29.8l-.5 3c-1-1-2-2-3.2-2.6l.1-20.2.1-10zm12.6 4.6c1.9 7.6 3 15.3 3.7 22.7l-10.8 9 4.8-4c0-.6-.2-1.1-.3-1.7l.1-4.7c.5-6.8 1.3-14 2.5-21.3zm36.5 11 11.8 2.6L24634 98l8.1 1.8-2.3 10.9-8.2-1.8-3.8 17.5-13.3-3 3.7-17.4-33.7-7.3-4-10.8 9.7-8 23.4-19.3h-.1zm-2.8 15.5-36.7 30.1 28.8 6.3zm-111.7 7.4a50.5 50.5 0 0 1 7.5.6c2.2.4 4.4 1 6.3 1.7v7a29.2 29.2 0 0 0-6.3-1.8c-2.2-.5-4.5-.7-7-.7-5.8 0-10 1.6-12.4 4.7a22 22 0 0 0-3.6 13.5c0 5.6 1.3 9.8 4 12.6 2.6 2.9 6.7 4.3 12.2 4.3a33 33 0 0 0 13.2-2.3v7a39 39 0 0 1-13.9 2c-7.7 0-13.6-2.1-17.6-6.3-4-4.3-6-10-6-17.3 0-5.1.9-9.6 2.6-13.3 1.7-3.8 4.3-6.6 7.7-8.6 3.5-2 8-3.1 13.3-3.1zm-61.5.7 2.6.1c2.5.3 4.6.9 6.3 2 2.4 1.3 4.1 3.2 5.2 5.6 1.2 2.3 1.7 5 1.7 8a15 15 0 0 1-4.4 11.3 16 16 0 0 1-11.7 4.3h-12.7v15.8h-8V67.8zm22.2 0h8v47.1h-8zm69 0v25.7l16.7-21.3 3.5-4.3h7.4l-10.9 13.7-4.5 5.8 17.8 27.7h-8.5l-13.9-22-7.7 9.8V115h-8V67.8Zm-104.2 6.2v18.8h11.3c3.1 0 5.5-.9 7.1-2.5a9.3 9.3 0 0 0 2.5-6.8c0-3-.8-5.3-2.4-7-1.5-1.7-3.8-2.5-6.9-2.5zm136 58.6a17.7 17.7 0 0 1 6.3 1v3.2c-.8-.4-1.8-.6-2.8-.8-1-.2-2-.3-3.2-.3a8 8 0 0 0-4.6 1.2c-.4.2-.7.6-1 1l-.7 1c-.6 1.4-1 3-1 5s.4 3.5 1 4.7l.9 1c.6.7 1.3 1.2 2.2 1.5 1 .3 2 .5 3.3.5l3-.3c1-.1 2-.4 3-.8v3.2l-3 .7a22.5 22.5 0 0 1-5.8 0 9.3 9.3 0 0 1-5.5-2.7l-1.2-1.5-.8-1.8a12 12 0 0 1-.7-4.5c0-1.1.1-2.2.3-3.2.2-1 .5-2 .9-2.8a9.1 9.1 0 0 1 3.5-3.9c1.6-1 3.6-1.4 6-1.4zm-132.9.3h3.6v9.9l9.1-9.9h4.2l-7.9 8.7 5.6 8.6 2.6 4h-3.8l-4.5-7-2.1-3.4-3.2 3.4v7h-3.6V133zm24.9 0h14.9v2.9h-11.3v6.4h10v2.8h-10v6.5h11.3v2.8h-15zm22.4 0h3.1l11.2 15.8v-15.8h3.6v21.4h-3.2l-11.1-15.7v15.7h-3.6zm25 0h17.2v2.9h-6.8v18.4h-3.6v-18.5h-6.9zm24 0h3.6v13.3c0 1 .2 1.7.4 2.4l.5.9c.1.3.4.5.6.7.5.5 1.1.8 1.8 1a8 8 0 0 0 2.4.4c1 0 1.7-.1 2.4-.4.7-.2 1.3-.5 1.8-1 .5-.4.8-1 1-1.6.3-.7.5-1.5.5-2.4V133h3.5v13.5c0 2-.4 3.6-1.3 5l-1 1v.1l-1.2.8-.2.1-1 .4-1 .4c-1 .3-2.2.4-3.5.4-1.4 0-2.8-.2-3.9-.5a8 8 0 0 1-3-1.6c-1.6-1.4-2.4-3.5-2.4-6.1zm50.6 0h3.6v9.9l9.1-9.9h4.2l-7.9 8.7 8.2 12.7h-3.8l-6.6-10.5-3.2 3.4v7h-3.6V133zm23 0h3.8l5.7 10.4 5.7-10.4h3.8l-7.7 13.5v7.9h-3.6v-8z" style="fill:url(#b);stroke-width:.999956;stroke-linecap:round;stroke-linejoin:round;paint-order:fill markers stroke" transform="translate(-24421.1 130)"/></svg>