<svg xmlns="http://www.w3.org/2000/svg" xmlns:xlink="http://www.w3.org/1999/xlink" xml:space="preserve" width="945" height="1157.4" viewBox="0 0 250 306.2"><defs><linearGradient id="a"><stop offset="0" style="stop-color:#d00081;stop-opacity:1"/><stop offset="1" style="stop-color:#ff4040;stop-opacity:1"/></linearGradient><linearGradient xlink:href="#a" id="b" x1="25787" x2="25536.9" y1="-851" y2="-544.7" gradientUnits="userSpaceOnUse"/></defs><path d="M25662-851c-25.1 0-48.4 7.4-68 20l-5-3a97.7 97.7 0 0 0-18.7-7.9h-1.4c-.6 0-1.2.2-1.8.6a4.5 4.5 0 0 0-2 3.3v2.2c1.1 8 3.6 15.5 7.2 22.6a124.6 124.6 0 0 0-35.3 87.2v19.3c0 14.4 2.4 28.1 6.8 41a15.3 15.3 0 0 0-5.6 7.2h-.1c-.7 1.7-1 3.5-1.1 5.3v47.2c0 5.1 2.6 9.9 6.9 12.7 2 1.3 4.2 2.1 6.6 2.4 0 16.8.2 12.3.2 24.2 0 3 1 5.8 2.8 8 1.7 2 9.3 9.8 11.6 11.5 2.2 1.5 4.8 2.4 7.6 2.5h187.9c7 0 12.9-5.8 12.9-13V-579a13 13 0 0 0-2-6.5c5-1.7 8.6-5.7 9.8-10.8l2.4-10.8c1.2-5.6-.9-11.4-5.3-15l8.2-38.1c1.1-5.2-.5-10.3-4-13.8 2.9-10.4 4.4-21.4 4.4-32.7V-726c0-69.2-55.8-125-125-125zm0 7.2a117.8 117.8 0 0 1 110.2 159.3l-.4-.5c-2-2-4.7-3.4-7.6-4l-10.1-2.2a98.5 98.5 0 0 0-96.2-133.3 28.5 28.5 0 0 0-6.8-7c-1-.9-2-1.9-3.8-2.2-1.9-.3-3.4.5-4.3 1a24 24 0 0 0-11.4 13 97.9 97.9 0 0 0-14.8 6.3 163 163 0 0 0-16.2-13.2c17.9-10.9 38.9-17.2 61.4-17.2zm-93 3.7h1l1.7.5a96.6 96.6 0 0 1 16.4 7.2 154 154 0 0 1 35 27.8c.5-.6 1.2-1 2-1 .3 0 .9-.1 1.5.2.6.2 1 .6 1.2.8.5.5.8 1 1.4 2l.9 1.4c0-5.1.7-10.4 2.3-15.2 2.3-7.2 6-12 11.4-14.7 1-.5 2-1 3.2-.7 1.1.2 2 .8 3 1.7 2.8 2.1 4.6 4 6.3 6.6a17.3 17.3 0 0 1 3.2 11.1c0 3.2-.7 5.7-2.2 8.8a39.6 39.6 0 0 1-18.3 17.2 190.1 190.1 0 0 1 2 3.7l.3.5.1.2v.1l.1.2.3.7 1 2 4.1 8.8a555.1 555.1 0 0 0 25.6 49.5 692.5 692.5 0 0 1 19.9 36.9l1.3-.4a1235.2 1235.2 0 0 1 10.1-3.4l2.9-.8a29.3 29.3 0 0 1 13.7-.2c4.5 1 8.7 2.8 12.8 5.5l-13.5 11-.1.3-14.2 11.7c-2.6-5-7.7-8.1-13.3-8.2h-7.4c-3.8.1-7.5 1.7-10.2 4.4a15.2 15.2 0 0 0-6-3.6 18.3 18.3 0 0 1 5-6l-.3-.4c-3.7-4.1-6.7-6.4-9.4-7h-2.9a19 19 0 0 0-5 .8c-.3.1 2.4.3 4.3.2 1.5-.1 1.8 0 2.5.2 1 .3 2.4 1.1 3.6 2 1.4 1.2 3.8 3.6 5 5l.4.7-1.2 1.1c-1 1-1.9 2-2.7 3.1-1.1-.3-2.2-.5-3.3-.5h-8c-2 .1-4 .6-5.7 1.5a56.4 56.4 0 0 0-10.7-2h-.2c-1.5-.2-3.2-.3-5-.3h-.1a50 50 0 0 0-8 .6c1.8-2.3 4.4-4.6 6.7-6 1.2-.9 3.5-2 5.2-2.6a91 91 0 0 1 7.4-2.4l.2-.1v-7.6a347.7 347.7 0 0 0-10.2-86l-.3-.8a75.4 75.4 0 0 1-55.4-29.9 68.8 68.8 0 0 1-13.5-32.1v-1.8c0-.5.3-1.4 1.2-2l1-.3zm.4 7v.3-.3zm.2.6V-832.2v-.2s0-.1 0 0zm.1.7v.3-.3zm.1.5v.1zm0 .1.5 2.2a68.2 68.2 0 0 0 22.7 35.7 73.3 73.3 0 0 0 43 17.3l1.5.1.1 1 .7 3a352.8 352.8 0 0 1 9.9 86.2v10.3h.5c1-.3 2.8-.8 2.8-1l-.2-21.4a347.7 347.7 0 0 0-7.8-66.5 501.2 501.2 0 0 0 11.8 24c3.4 6.5 6 11 15 27.3a669.6 669.6 0 0 1 15.2 28.5c2 4.2 2.4 4.7 2.6 4.2 0-.2-3.9-8-6.8-13.5-2.7-5.2-6.4-11.9-12.2-22.3a564.3 564.3 0 0 1-31.2-61.6l-.7-1.7c0-.5-7-7-12-11.3-4.3-3.6-7.4-6-21.6-16.6a920 920 0 0 1-20.8-15.8c.2.4 3.4 4 5.9 6.5a278.3 278.3 0 0 0 45.6 36.5l2.7 1.9.3 1c.3 1.2.5 1-1.8.8a76.5 76.5 0 0 1-58.6-37 66.2 66.2 0 0 1-7-17.8zm92 10.6h-1.9 1.9zm-4.4 4.9V-815.4v-.3zm-27.3.6c-.8 2.8-1.3 5.7-1.6 8.7l-1.1-.7c-1.2-.5-2.2-.4-2.4-.3a5 5 0 0 0-1.6.4l-3.7-3.7c3.3-1.7 6.8-3.2 10.4-4.4zm27.5 0-.1 2.3a19 19 0 0 1-1.1 5.9 29.5 29.5 0 0 1-7.1 10.6 40.8 40.8 0 0 1-13 9c.4 0 3.3-1.5 5-2.6a35.1 35.1 0 0 0 14.1-14.4c1.6-3 2-5.1 2.1-8.4zm41.3 1.9a95 95 0 0 1 46.6 42.6l-1 .1c-2.7.3-4.2.6-4.4 1.1 0 .1 0 .4.2.6l.3.5-.3-.2c-.3-.3-.5-.3-2 .3l-1.1.5v.5l.6 3.3 1 7.2a177.9 177.9 0 0 0 2.3 14.5 167 167 0 0 1-3.6-14.6 58 58 0 0 0-1.1-10.3c-.2-.2-2.4 1-4.5 2.4l-1.2.8v.6c.6 4.6.4 8-.6 9.7-.4 1-.8 1.3-1.4 1.4-1.4.2-3-1.2-4.5-4l-.6-1.4-1 1.2a170.6 170.6 0 0 0-9.9 11.4c-1.9 2.2-1.8 1.9-.2 2.8l1 .6-.6-.2-.8-.4-.3-.1-.3-.2c-.1 0-.3 0-.4-.2-.2-.2-.3 0-1.6 1.5l-3.4 3.5c-2 2.1-2.2 2.2-2 2.4a120.7 120.7 0 0 1 5 2l-.4.7c-.8 1.3-1 2.3-.3 2.5.6.3 1.8-.6 2.6-2 .4-.6.4-.7.7-.5l.5.2c.2 0 .1 0-.2 1-.2.6-.1 1 .2 1.5.4.4 1.2.4 2 0l.6-.5 1.5.6c1 .4 1.4.7 1.3.8 0 .2.1.1.6-.3l.5-.4-1-.4-1.7-.7-.6-.2.4-.6.5-.5c.7.2 1.3.2 2 0h1.4c.4.2.6.2 1.1 0 .5-.2.7-.2 1.3 0 .6.1 1 0 .6-.2-.7-.4-.7-.4-.4-.9l.4-.4 1.2 1c.7.8 1.3 1.2 1.4 1.1 1.1 0 2 1 2 2.1 0 1.4-1.2 2.6-2.4 2.2-.8-.3-1.3-1-1.5-2v.2c0 .7 0 .8-.2.7v-3.6h-.1l-.2 2.1a8 8 0 0 1-.1 1.1l-2.2-1.2c-2-1.1-2.5-1.4-2.5-1.2l.5.6.4.7h1.1c1.8.7 1.4 3.3-.7 4.5-1.8 1.1-3.3-.6-2.3-2.6l.2-.6-.4.6c-.6 1.2-.3 2.5.6 3l.4.4c0 .2.7.4 2.2 1l2.2.7-2.5-.6-6.3-1.2c-.5 0-.5.2 0 .7.4.4.4.4 1.7.6a26.1 26.1 0 0 1 5 1c1.4 0 2 1.3 1.4 2.7-.3.7-1.2 1.8-1.8 2-1.7 1-3.2-.7-2.5-2.5.3-.6 1-1.4 1.6-1.8l.5-.4h-.4c-.7-.2-1.8 0-3.7.5-1.7.5-1.8.5-3.5.5h-1.7l.7-.7a5 5 0 0 0 1.5-3v-.5h.5c1 .2 1 .2 0-.5l-1-.6-2.2-.3c-2.5-.3-2.6-.3-2.3.5l.2.4h2.6c.4-.3 1.1-.4 1.4-.2.6.5.6 1.4 0 2.5-.3.8-1.4 2-1.8 2-1.2.3-1.7-1.2-1-2.7l.6-1s.1-.2 0-.2l-.7 1.1c-.6 1.2-.6 2.3 0 2.9l.3.3h-1.1c-.1.3.2 1 .4 1.2h1c1 0 1.1 0 0 .5l-2.2 1c0 .2-.8.7-1 .7h-.1c.2-.2.8-1.2 1-2 .5-1.2.3-2.6-.4-2.8-.4-.1-1 .3-1.4 1-.3.6-.4.6-.7.6-.3-.1-.3-.1-.3.4l.2.5.1.6.2 1 .2.5-.8-.2c-.6-.1-.8-.2-.7-.3.3-.5.6-1.9.6-2.5 0-.9-.2-1.3-.7-1.1-.5 0-.9 1-1 2.2v1.1l-.3-.1c-3-1.1-8.3-4.8-11.3-7.7l-1-.9-1.1.2-3 .2c-4.4 0-8.5-1.5-13-4.6-1.1-.6-1.2-.7-.4-.4 2.3 1 5.9.6 9.5-1 1.2-.5 3-1.4 4-2.1.7-.4.8-.5.8-1 .4-2.7 1-5 2.4-9.5l2.1-6.7a39.5 39.5 0 0 1 9.5-19 38.6 38.6 0 0 1 19.9-9.3 61.7 61.7 0 0 0 5-.9h1.2c0 .3.3-.1.4-.4 0-.2 0-.3-1.5-.8l-2.3-.8a62 62 0 0 0-12.5-3.6 37.2 37.2 0 0 0 3.7 1.2l-2-.4-2-.4-.2.3c-.2.2-.3.5-.3.7 0 .3-.1.5-.3.7-.2.2-.3.5-.3.7l-.2.5c-.2 0-.3.3-.2.3 0 .1 0 .3-.2.5 0 .2-.1.4 0 .4l-.3.4c-.2.2-.5.3-2.6.5a92 92 0 0 0-4.7.4 64.7 64.7 0 0 1 0-7l-4.6-.7c-11.6-1.6-17.9-3-24.2-5a46.8 46.8 0 0 1-13.8-7.5l.5-.8a84 84 0 0 0 17.8 6c-2.7-1.6-4.3-3-5-4.5a3 3 0 0 1-.5-1.7c0-.8 0-1 .4-1.6.8-1.6 3.2-2.9 7.5-4.3 2.6-.8 6.9-1.8 9.4-2.2l5.5-1.1c1.8-.5 3.3-1 4.9-1.3zm-122.7 6.5a74.7 74.7 0 0 0 12.7 14.8 98 98 0 0 0-5.8 124.8 33.2 33.2 0 0 0-6-1.1l-3.7-.2h-21 6.8a117.3 117.3 0 0 1 17-138.3zm47.9 4.6v.1a9 9 0 0 0 1.9 3.5c.9 1 1 1.2.7.5a256.6 256.6 0 0 1-2.6-4.1zm33.4 2a65.3 65.3 0 0 0 30.7 11.6 488.1 488.1 0 0 0 10.6 1.5h.3v4l-1 .1a45.8 45.8 0 0 0-27.6 12.7l.4-.5-.3-.2c-2-.8-4.3-1.6-6.2-2a16.6 16.6 0 0 0-6.7 0 8.2 8.2 0 0 0-3.3 2.1 10.4 10.4 0 0 0-2.6 6.4l-3.1-6.6a542 542 0 0 0-7.1-14.6 42.5 42.5 0 0 0 15.9-14.4zm-24.9 6.8v.6l.2.3v-.7l-.2-.2zm-40.8 3.8c12 9.9 27 16 42.5 17.2l.4 1.8c4 17.5 6.5 32.6 8 48.3l-4.8 1.2c-7 2-15 5.8-22.6 10.5l-.1-.3-.2-.2-.4-.4c-.3-.4-.7-.6-1.3-1l-.8-.6.7-1c4.4-6.4 6.6-9.8 8.5-13.2 3.6-6.2 5.2-11 5.4-15.6 0-1.9 0-3.2-.5-4.8-1-4.5-4-8.6-8.4-11.4a21.2 21.2 0 0 0-12.1-3.7c-2.8.3-5.2 1.5-7.4 3.7-1.2 1.2-1.9 2-4 5.3-4 5.7-6.2 9.9-8 15a96.3 96.3 0 0 0-3.6 16.8l-1.1 6.2c-.3-3.6-.6-6.9-1-9.5-1-7.4-2.8-13.3-5.7-17.9a23.8 23.8 0 0 0-5.2-5.8 94.4 94.4 0 0 1 21.7-40.6zm122.8 3.5c.1 0 .1 0 0 0h-.2.2zm-15 4.9c.6.2-.1.8-2.4 1.8-3 1.5-3.2 1.6-3.2 2 0 .3 0 .4-.6.7l-.6.3-.3.2c-.1 0-.2.1-.1.2 0 .2-.1.3-.5.5-.3 0-.6.3-.6.4 0 0-.1.2-.3.2-.3 0-.4.2-.5.3 0 .2-.2.3-.5.3-.4 0-.5.2-.4.3 0 .1 0 .2-.2.2-.1 0-.4 0-.5.2l-.4.3v.1c0 .2 0 .2-.3.2-.2 0-.3 0-.3.2 0 .1-.1.2-.3.2-.2 0-.3 0-.2.2l-.3.1c-.2 0-.3.1-.3.2s0 .2-.2.2l-.1.1-.2.2-.3.1-.2.2-.2.2c0 .1 0 .2-.2.1l-.2.1-.2.2-.4.3-.4.2c-.1 0-.2 0-.1.2v.2c-.2 0-.4.2-.6.4-.2.2-.4.4-.5.3v.1l-.3.2s-.1 0 0 .2v.1c-.1 0-.3 0-.4.2l-.4.2c-.1 0-.2.1-.2.3 0 .2 0 .3-.2.3 0 0-.2 0-.2.2s-.1.3-.2.2c-.1 0-.2 0-.3.3 0 .1-.1.3-.2.2-.1 0-.6.4-.6.6l-.3.2c-.2 0-.4.2-.5.6-.3.5-.4.6-.6.6h-.1v.2c-.1 0-.2 0-.2.2l-.5.6-1.2 1.4c0 .1-.3.4-.5.3-.1 0-.1 0 0 .2l-.1.4-.4.2v.2c0 .1 0 .2-.2.3-.2 0-.2.1-.2.2v.1c-.1 0-.2 0-.1.2v.3h-.2c0-.1 0-.1-.2 0h-.3c-.1 0-.1 0 0 .2 0 .2 0 .3-.2.2-.2 0-.2 0 0 .3.1.3 0 .3-.4.3 0 0-.1 0 0 .2 0 .2 0 .2-.2.2-.2-.1-.2 0 0 .1 0 .3 0 .3-.1.2-.2 0-.2 0-.1.2l-.1.2c-.4 0-.6 0-.5.2l-.2.2c-.2 0-.2.1-.1.2.1.2.1.3 0 .4-.2 0-.3.1-.2.2h-.1l-.2.1v.2c-.2 0-.3.1-.2.3l-.1.3c-.2-.1-.2 0-.2.1 0 .2 0 .2-.1.1-.2 0-.3 0-.2.1 0 .2 0 .2-.2.2-.2-.1-.2 0-.1.3 0 .3 0 .4-.2.3-.2 0-.2 0-.1.2 0 .3 0 .3-.2.3l-.2.2c0 .1 0 .2-.2.2-.1 0-.1 0 0 .2 0 .2 0 .4-.2.5-.2.1-.3.3-.2.4l-.1.3-.2.4-.2.5-.3.8a34 34 0 0 1-.8 3l-.6 2.4-.2.4-.2.5v.3l-.1.4-.2.3-.2.3v.3l-.3.3-.2.2c0-.2 0-.1-.2 0l-.1.1v-.1l-.2.1a33.3 33.3 0 0 1 2.8-22c.8-1.4.9-1.7.7-1.9l-2.5-.6c-2.2-.5-4.9-.4-5.7.2-.7.6-1 .9-1.2 1.4l-.3 1-.1.3c-.4.1-.5.3-.4.5.2.3.2 1.1 0 1.2v1.4c0 .5 0 .7-.2.6v.1c.2.1.2.3.2.3v.4c.2.2.2.3.1.5v.4c.1.1.1.2 0 .2l.1.6.2.8v1c-.1.1 0 .5.1.5s.1 0 0 .1l.1.3.2.7v.5l.1.2v.2c.2.2.2.6.3 1 0 .4 0 .7.3.9.2.2.3.4.3.8 0 .3 0 .6.2.7l.2.6c0 .3.2 1 .5 1.5 0 .2.1.4 0 .4l.2.5.3.7s0 .3.2.5l.1.4.1.4c.1.1.2.3.1.4.2 0 .2.2.2.3v.4c.2 0 .2.2.2.3l.1.4.2.4.1.4.2.4.2.4.2.5v.4l.2.2v.4l.3.3.1.1.4 1-.7-1.4c-4-7.4-7.2-13.8-10.6-20.9v-.3c-.4-4 .4-6.9 2.2-8.6 1.4-1.4 2.6-1.9 5.1-1.9 2.8 0 5.5.8 9.4 2.5l1 .4 1.6-1.6c4.4-4.4 10-7.4 17.6-9.4a53 53 0 0 1 9.2-1.6zm46.5 11.7 2.1 4.4c-.7-.3-1-.6-1.5-1.4-.7-1-1-2-.8-2.6l.2-.4zm-15.1 2c0-.3-3.2.8-5.3 1.6a57.6 57.6 0 0 0-18.1 12.7l.1.3h.4c.4.2 1.7-.1 2.5-.5a147.2 147.2 0 0 1 2.8-1.4l2.4-1.6 2.8-2 2.4-2.1a59 59 0 0 1 7.6-5.7l2.4-1.4zm8.2.9c2 3.4 3.8 5.3 7.4 7.3l-.2.6c-1.5 3.2-3 8-3.8 12.4l-.2 1c-.5-2.5-.9-5.2-1.8-11.8l-1-7.5-.4-2zm4.3 2.7.7.5a48.5 48.5 0 0 0 5.8 2.5c.9 2.3 1.8 4.6 2.5 7l-.5.6-.4.4-.8.9-1.2 1.5-.3.5-.2.2h-.2c.1.1 0 .2-.6 1l-.4.6-.3.3-.1.2-.3.3a14.2 14.2 0 0 0-2.7 5.7 20 20 0 0 1-.8 2l-.1.3v-.4a74.6 74.6 0 0 1 4.9-19l.5-1.3-1.1-.7c-1.4-.8-3.1-1.9-3.9-2.6zm-137 2.6a19.7 19.7 0 0 1 3.6.2 22.6 22.6 0 0 1 10.7 6c4.7 4.6 6 10.6 4 17.4-.5 1.9-1.1 3.3-.8 2 .5-2 .7-4.5.5-6.3-.3-2.6-1.4-5.2-3-7.3a38 38 0 0 0-4.3-4 34.1 34.1 0 0 0-7.6-4.2l-.7-.2a10 10 0 0 0-4.4.3 13.7 13.7 0 0 0-3.7 2c-.1 0-.8.8-.8 1-.2 0-.5.3-.7.5 0 .1 0 .2 0 0 0 0-.2 0-.3.3l-.5.5-.3.4h-.1l-.2.2-.3.4-.6.7a13.6 13.6 0 0 1-1 1.1l-.3.5-.4.4-.2.3-.7 1c-1.5 2.2-2 2.8-2 2.7l2-4.4c2.4-5.2 5-8.6 8-10.3.8-.5 2.3-1 3.2-1.2h1zm140.1 2h.2-.2zm-98.4 9v.1zm0 .1c3.6 20.8 5.2 41.8 5.2 66.8v1.8l.9-.3a34 34 0 0 1 15.2-1.3c3.6.6 7.2 2 10.2 3.9l.3.1.3-.1.5-.3a127 127 0 0 1 4.1-1.6 338.8 338.8 0 0 0-4.9-9.8c-3.3-6.4-6.4-12-13.4-24.6-8.4-15-14-25.5-18.4-34.6zm-78.1 1.2-.2 1 .2-1zm-.4 1.6a25 25 0 0 1 6.4 9c.7 1.4 1.6 4.1 1.5 4.2h-.3c-.2 0-1.1-1-1.5-1.6a60.8 60.8 0 0 0-4.3-5.8c0-.2-1.4-1.5-1.6-1.5l-.2-.2c0-.2 0-.2-.2-.2h-.2l-.2-.3v-.2h-.1l.7-3.4zm74.5 2.3v.1c.1 0 .1.2 0 .2V-745zm.2.7.2.6a131.9 131.9 0 0 0 2 8.6l.4 2a75.3 75.3 0 0 0 1.6 7l.8 3.7c.3 2 1 11.7 1.2 17.5l.2 5.1v2h-.3l-.5.2c-.3 0-.3.1-.3 1.5v1.4h-.9l-.3-4.6a358.9 358.9 0 0 0-4.1-45zm70 .2 1.2 1.6-1.7-1c0-.2.1-.3.3-.4l.2-.2zm-109.8 0c1.8.2 3.3 1.5 4.5 4.1.4.7 2 6 2.6 8 .5 1.7.8 3.8.8 5.5 0 3.5-.8 6.4-3 11.3-.7 1.4-.8 1.7-.7 1.8 1.1.8 1 .8.9.8-.7.1-3.8-1.4-3.8-1.9h.2l.2-.1-.7-.5s0 .3.2.4l-.1.3c0 .3.8.8 2 1.4l.7.4-.5.8-.4.7-.2-.2c-.2-.2-.3-.3-.6-.2h-.3l.1-.6c.3-.8.3-1 0-1.3-.2-.4-.4-.2-.8 1s-.5 1.4-.4.8v-.4l-.1.3c0 .4-.3.8-.7 1.3-.9 1-2.2 1-3.1.3-1.1-1-.6-2.6 1.1-3.1.5-.2.5-.2.7-.7l.1-.5s0-.2.2-.2c.3-.1.4-.3.4-.4v-.1c-.2.3-1.5.6-2.4.6-.5 0-1-.2-1.1-.4 0-.4.4-.7 1-.9.8-.1.9-.2.2-.1-.3 0-.7 0-1 .2-1 .6-.4 1.5 1.2 1.4h.6l-.2.6c-.2.5-.2.6-.6.7-.6.3-.9.8-1 2l-.9 3c-.2.5-.1.6.2.1.4-.6.6-.4.4.4 0 .3-.3 1-.6 1.6l-.4 1a28 28 0 0 0 2.5-4.6c.3.1 1.2.1 1.6 0a3 3 0 0 0 1.5-1.1l.3-.4a30.5 30.5 0 0 1-1.5 3.2l.4-.3c.3 0 .3 0 .3.4.2 0 0 .3-.2.7l-.4.6.3.5.3.5.6-1a62.2 62.2 0 0 0 .5-.5l-1 1.7v.6c0 .7-.2 1.2-.7 1.7-.7.7-1.8 1-2.4.6a3 3 0 0 1-1-1.5c-.3-1 .4-2.7 1.3-3 .3-.2.3-.3 0-.1-.5.1-1 .7-1.4 1.3-.6 1.2-.4 2.6.5 3.4.2.3.5.4.5.4.4 0 .5.2.2.6l-1 1.5h.8l-.4.2h-.3l.3.1c.2 0 .2 0 0 .4a29 29 0 0 0-2.3 3.6c-.4.5-.4.5-.2.5s.6-.4 1.6-1.7c1.6-2 4.3-4.8 4.4-4.7l.6-.2.6-.2-2.4 2.6a259.7 259.7 0 0 0-5.8 6.4c0 .3.6.8 1 .9.2 0-.2.5-1.1 1.5-.7.9-1.4 1.6-1.4 1.8a36.5 36.5 0 0 0-1.9 2.2c-.6.6-.6.7-.6 1 .1.4.4.7.5.7l.2.1c.1 0 .1 0 0 0l.5-.8.7-1.3.5-1.2 2.3-3 1.8-2.3-1 1c0 .2-.6.2-.6.1l.5-.7a57.2 57.2 0 0 0 .9-.9c0 .3.8 1 1.2 1l.4.1-.3.4-.5.3v.3c-.1.1-.2.2-.4.1h-.3l.2.1.2.3.3.4.2.4 1.4-1.6c1.8-2.2 3.2-3.7 3.8-4.3.5-.4.6-.5 1-.5 1.4-.2 2.5-1.1 2.7-2.3 0-.3.1-.4 1.1-1 1.2-.8 2.6-1.6 3.8-2.1 1-.4 1-.6 1.1-1 0-.5 0-.5-.9-.1l-4 2.3-1.3.8v.7l-.1 1c-.5 1-2.2 1.6-3.1 1.2-.7-.3-1.1-1-1-1.7a3 3 0 0 1 2-2.1c.5-.2.3-.2-.2 0-.6 0-1.4.7-1.7 1.2-.6.9-.6 1.8 0 2.5l.3.4-1.4 1.3c-1.2 1.3-1.3 1.4-1.3 1.7 0 .7-1 1.2-1.8 1-.6-.2-1.1-.8-1.1-1.2 0-.4.2-.7.8-1l.2-.1h-.2a112.3 112.3 0 0 1 8.3-8.8c.8-.7 1.2-1.4.9-1.4l-.2-.2c-.1 0 0-.3.5-.8l1-1.3.3-.5.3.4.7.5.2.2-1.6 1.4a17.3 17.3 0 0 0-2.6 2.4l1.4-.5c2.3-1 6.2-2.2 6.4-2l-2.6 1.5c-2 1.1-3.6 2.2-4.6 3l-.4.3.4-.1c.3 0 .4 0 .4.2.1.1.1.1.8-.3a39.9 39.9 0 0 1 5.9-3.2l.3.7c.3.7.8 1.4 1.2 1.6l.5-.1c.2-.2.2-.2.1-.7 0-.3 0-.8-.2-1-.2-.6-.7-1.4-.7-1.3v.2c.3.3.7 1.6.7 2 0 .3-.4.5-.7.3-.3-.1-.8-1.2-1-2.1-.2-.6-.2-.7 0-.9v-.2l.1-.2c.2-.1.2-.4 0-.8l-.1-.4.8 1.3 1.4 2c.1-.2 0-.7-.4-1.5a4 4 0 0 1-.4-.8c.2 0 2.6-.4 3.8-.4 4.5-.3 9 .5 17.8 2.9l4.2.9h.3l.4 15.6v6.2l1.2-.3-3.7 1.1c-1.8-.4-3.6-.8-5.6-1l-.7-.2v-3a31.8 31.8 0 0 0 3-.5l5.3-.8h.5v-1.5a210.9 210.9 0 0 1-10.3 1.6v5.4l-1-.1a70.8 70.8 0 0 0-4.7-.6l-.1-.3-.1-.3-.1-.4-.1-.3a.6.6 0 0 1-.2-.4 1 1 0 0 0-.3-.5.9.9 0 0 1-.2-.5 1 1 0 0 0-.2-.5l-.2-.3-1.5.3a16.1 16.1 0 0 1-1.3.2l2.6-.8a47.5 47.5 0 0 0-9.6 2.7l-1.8.7c-1.1.4-1.2.4-1.2.6 0 .2.3.5.3.4 0-.1.7-.2.7 0h.3a47.5 47.5 0 0 0 3.8.7c4.5.8 8.7 2.4 12 4.5l1.3-1a32 32 0 0 0-7.9 7.4l-.5.8c-3.6.8-7 2-10.2 4h-.2l-2.6-2v-.8l-.9-.6c-1.6-1-3.2-2-3.4-1.8l-.2 1.2-.7-.2.2-1.1v-.4l-.8-.3c-1.1-.5-1.3-.5-1.5-.3l-.2.1.2-.3c0-.2.2-.4.1-.5-.1-.4-1.3-.6-3.3-.8l-1.5-.3-.2-.2c-.2 0-.9-.8-1.6-1.7-1.7-2-2.4-2.7-2.4-2.6-.1.4 1.8 3 3.2 4.3 1.2 1.2 1.3 1.3 1.4 1.6.1.5-.1 1.2-.6 2l-.2.2h-3.1c-2.5 0-5 .8-7.1 2l-1.2.7 1.2-.7c-5.4-6.6-10-14-13.4-21.9h.6c1 .2 1.6.4 3.2 1.2 1.8.9 3.1 1.3 3.3 1.1.1 0-.3-.3-2-1.1l-1.7-1-.6-.3.3-.3s.2-.2.3-.1l.4-.6.3-.2c0 .2 0 .2.1 0l.1-.3h.1c.4-.2.3-.5-.4-1.3a31.8 31.8 0 0 1-3.6-3.4v.2l-.2-.1c-.3-.2-.4-.3-.7-.3a7 7 0 0 1-1.2-.2l-1-.2-.5-1.8.6.3c.3.1.6.3.7.2l-1-1.3-.9-1-1.1-4.2 1.6 1.8c.5.5 1.2 1 1.2.7l-1-2c-.8-1.7-1.8-3.3-2.8-5a95 95 0 0 1-1.8-22.6l.3.1c3.6 2.5 6.6 6.4 8.8 11.7 1 2.2 1.3 3.7 1.7 6.2a44.1 44.1 0 0 0 3.7 12.5c.4.6.4.6.4.3l-.6-4c-.3-1.1-.3-1.2 0-1h.1l-.2-.1c-.4-.3-.3-1 .3-1.9a48.8 48.8 0 0 1 2.4-7.8 75.1 75.1 0 0 1 11.6-24c1.7-2.3 4-4.4 6-5.3 1-.5 1.8-.7 2.7-.6zm109.7 3.9c1 0 .8.8-.3 1.9l-1 .8c-.6.2-.7.3-1 0-.6-.6 1.1-2.7 2.3-2.7zm5 .1c.3 0 .5.1.7.3.7.5.2 1.7-1 2.3-.7.3-1.5.3-2 0-.3-.4-.3-.7 0-1.3.6-.8 1.6-1.3 2.3-1.3zm-5.4.5c-.4 0-.7.3-.7.6 0 .1 0 .1.4 0 .3 0 .3 0 .2.2l-.3.1v.1c0 .1 0 .2-.3.2-.2 0-.3.1-.3.2 0 .4.7 0 1.2-.7.2-.4.1-.7-.2-.7zm5.2.1c-.2 0-.4 0-.6.2-.3.4-.3.4.2.4.6 0 .7.2.3.5h-.6c-.3-.1-.6 0-.4.2.3.5 1.5-.2 1.5-.8 0-.2-.2-.4-.4-.5zm-67.4.3 10.5 19.5-.5-1a29.5 29.5 0 0 0-8.2-2c-.5-5.6-1-11.1-1.8-16.5zm63.2.4.9.6c.6.4.9.7 1 1l.5.8c.1.2 0 .1-.5-.1l-2.6-1.3c-.2 0 0-.1.2-.5zm5.9 0 .3.3c.2.3.3.5.2.6-.2.2-.8-.4-.7-.7 0-.2.1-.2.2-.2zm21.4.2.7.1.3.1-.1 1.2-.2 1.3-.8-2.4.1-.3zm-21.8.3.4.4c.3.2.4.3.6.2.1-.2.2-.1.6.4.3.3.4.5.3.5-.2.1.8 1 1.1 1 .2 0 .4 0 .6.2l.3.2.6.4.8.6.6.2h.5c.2 0 .3.2.4.3l.4.2.4.1.2.2c.4 0 .4-.3-.1-.8s-.5-.5-.3-.8c0-.2.2-.3.3-.3l1.3 1.5 1.3 1.5h1.4c2.3.1 3.8.8 5.5 2.5a7.5 7.5 0 0 1 2.5 5.3c0 1 0 1.7-.3 3.7-.4 2.8-.5 3.3-.9 4-.2.5-.5.7-1 .7-.2 0-.2 0 0-.3v-.8c.1-.8-.1-.9-.2 0 0 .3-.2.7-.3.8-.2.3-.2.5 0 1.1l.3.6.3.7a64.3 64.3 0 0 1 1 2.2c.4.5.4.5.7.3a20 20 0 0 0 2.4-3.8v.3l-.3.5c0 .2.6-.8.7-1.3.4-1.9.6-3.1.6-4.7 0-2-.4-4-1.3-6a11.4 11.4 0 0 0-5.6-5.6l-.6-.3c.7 0 1.3-.2 1.7-.3h.6l2.5-1c.6-.2 2.3-1 2.4-.9l-.2 2a88 88 0 0 0-.2 4l-.1 2.2.3.6c.6 1.3 1.3 1.3 2.7 0l2-2.2 2.3-3c2-2.6 3.8-4.4 6.3-6.7a95.3 95.3 0 0 1-.2 24.7l-1.7-.5-3.1-.9.7-.7.8-.9h-.4c-.3 0-.4 0-1.2-.8a40 40 0 0 0-7-5.3h-.3c-.2.2-.2.4 0 1.3l1 2.7c1 1.8 3.3 5.3 3.5 5.3.3 0 1.5-.6 2-1l.6-.4v.8c0 .8-.4 1.6-.7 1.6l-.3.4c-.2.4-.4.4-.6 0l-.4-.7c-.2-.2-.2-.2 0-.1.3 0 .3 0 0-.2-.3-.3-.3 0 0 .7l.5.7v.3c-.3.5-.5.3-.7-.7l-.3-1c0-.1-.2.2-.2.7a26.3 26.3 0 0 0 2 8 607.2 607.2 0 0 1 2.4 6 98 98 0 0 1-2 5.8h-2.4c-3 .3-6 1.5-8.3 3.5l-5 4a41 41 0 0 0-4.8-2.9 11 11 0 0 1-1-5.2v-2.5l-.5-.2-.5-.2c0-.3.5-1 .8-1 .4-.2.4-.3.4-.8l.1-.7c.1 0 .2-.1.1-.2 0-.2-.3-.4-.6-.5h-.2l-9 8a32 32 0 0 0-13.2.4l-2.9.9a1114.9 1114.9 0 0 0-10 3.2l-1.3-2.5-.9-1.7 1.5-1.8c2-2.4 4.3-5.4 6.2-8.2a38.1 38.1 0 0 1 13.1-12.8v.5c-.2.7 0 1.5.5 2l.3.5h-1l-.2.1c0 .2.5.2 1.8.3h1.1l.5-.5c.7-.6 1.1-1.5 1.2-2.5v-.8l.4.3c.2.3.4.4.5.4l4.2-.8c.2 0 .3-.1.2-.3 0-.1 0-.2.2-.3.3-.2 2-.4 2-.3 0 0 .4 0 .7-.2 1-.5 2-.2 2.3.8.2.4.2.6 0 1.2a4 4 0 0 1-1.6 2c-.4.2-1.2.2-1.7 0-.5-.3-.8-.8-.8-1.5v-.4l-.2.5c0 .2-.1.3-.8.5a359.6 359.6 0 0 0-10.8 3l-1 .1-.4-.4c-.4-.4-.9-.7-1.3-.7-1.2 0-1.2 2.3 0 3.6.4.6 1 1 1.4.8.4 0 .8-1 .7-1.7 0-.6 0-.6.3-.5a291.8 291.8 0 0 1 8.8-2.5l3.4-1 .3.3.6.3.4.5c0 .2.3.5.6.7l.4.4s-1.5.8-2.5 1l-1 .4-.2-.3a2 2 0 0 0-1.3-.7c-.7 0-.3-.7.6-1l.5-.4s.1-.2.3-.2c0 0 .2-.1.1-.2 0-.1-.3 0-.8.3l-.7.4c-.2 0-.4.3-.6.5 0 .3-.3.6-.4.7l-.2.3.4-.2c.7-.1 1 0 1.6.5.3.3.4.4.4.8 0 1-.7 2.3-1.5 2.5-.5.1-1.3-.3-1.7-1l-.3-.6c0-.5.3-1.2.6-1.6l.4-.5-.4.3c-.3.2-.7.3-1 .3-.4 0-.5 0-.5.2h1.1l-.1.4c-.3.5-.4 1.1-.2 1.7.2.4.2.6 0 .6-.2.2-2.2 1-2.4 1l-.5-.3a2 2 0 0 0-1.6-.4c-1.1.3-1.1 2 0 3.2 1.3 1.3 2.7.9 2.7-.9v-.6c.1 0 .8-.2 1.6-.7l1.4-.6s-.2.4-.5.6c-.3.5-.5.6-1 .6l-.6.2h.6c.8 0 1.2-.2 1.6-1 .2-.3.2-.3.6-.3.6.1 1.4-.4 1.8-1.1.3-.6.4-.7 2.3-1.6l2-1.1-1.9.7-1.9.7v-.3c0-.3 0-.3.2-.2.2 0 .6 0 1-.2l6.6-2.9c2.4-1.1 3.6-1.6 4-1.6.2 0 .2 0 .1.4 0 .6.3 2 .6 2.5s.4.5.7.4c.3 0 1.8-.8 1.8-1a68.6 68.6 0 0 0-1.5-3.5c-.5-1.5-.4-1.5-1.5-1.2l-1 .3v.6c0 .6-.1.7-.5.7-.2 0-.2 0-.2-.4 0-.7-.1-.8-1.2-.5l-1 .2v1c0 1 0 1-.2 1.1-.5.2-.6 0-.6-.8v-.8c-.1 0-.4 0-.6.2l-1.1.2h-.6l.2-.3.2-.8c0-.2 0-.3.2-.2.6.3 3.6-.1 3.5-.5 0-.3.5-.4 1.5-.4l1.8-.3a8 8 0 0 1 1.5-.3c.3 0 .4 0 .3.2-.1.7.8 3.9 1.4 4.5l.3.4.6-.5.6-.6-.5-1-.6-1.3-.7-1.4c-.4-.9-.7-1.2-.9-1.3h-1l-.2.1-.9.3c-.5.2-.8.3-1.1.2-.4 0-.4 0-.5-.8v-1.6c0-.8 0-.8-.3-.6v2.4l.2 1-.3.2c-.2 0-.4 0-.5-.2-.2-.2-.4-.2-.5.1-.1.4-.9.6-2.3.8-1.4.2-1.5.2-1.8-.2l-.2-.5 1-.1 1-.2-.6-.3c-.6-.3-.7-.3-1.8-.1-1.6.2-1.5.2-1.4-.5l.2-.9.8-1.8c-.2-.1-.3 0-.5.6l-.5 1-.3.5h-.7c-1.1-.2-1.1-.2-.7-1 .4-1 .6-1.3.8-1.3.2 0 .2 0 0-.2h-.3l-1 1.9c-.1.3-.2.3-1 .3l-1.4.2a13.6 13.6 0 0 1-4.4.3h-1l.2-.3c0-.2 0-.3-.2-.3h-.2c0-.1.6-.2 1.3-.2 1-.1 1.3-.2 1.4-.3 0-.2.2-.2.5 0 .4.2.8.2 2.4.2 1.8 0 1.8 0 2-.3 0-.2 0-.4-.3-.8l-.4-.5.3-.7c.4-.8.4-1.5 0-2.2 0-.2-.1-.4 0-.4a63.7 63.7 0 0 1 4 1l.6-1.4s0-.3.2-.4c.4-.4.1-.5-.3-.1l-.3.5v.3l-3.1-.6.7-1.4c.7-.7.5-.9-.1-.2l-.6.6-.7-.3-.9-.3.3-.8c.3-.7.3-1 0-.8l-.5.8c-.2.5-.3.6-.4.6l-.8-.2-.5-.2.5-.4c.5-.4 1-1 1.3-1.7l.3-.5 1.9 1.1c.5.5 2.6 1.8 4.3 2.7l1 .5h-1 .4c1 .3 1.5 1.2 1.4 2.3 0 1.2-1 2.3-2 2.4-1 0-1.6-.4-1.8-1.6-.1-.4-.2-.4-.2-.2v.3l-1.4-.2c-1.7-.3-1.8-.3-1.2.1.4.3.8.4 1.6.6.9.1 1.1.2 1.3.4l.2.4.4.3c.6.4 1.6.3 2.2 0 .3-.3.4-.3 2-.2.8 0 1.5.1 1.6 0v-.2c-.1-.3-.9-.5-1.7-.4-1 0-1-.1-.7-.8.4-1 .2-2-.6-2.8l-.3-.3.6.2.8.2s-1-.7-1.8-1l-.7-.5.3-.4c.1-.2.3-.5.3-.8v-.4l-1.1-.5c-1.2-.5-1.7-.8-1-.7h.3c0-.1.1-.4.4-.7.4-.5.5-.7.7-1.5l.2-.9-.6-.6-1-.9-1.8-1c-1.2-.8-1.3-1-1.2-1.2 0-.3-.2-1-.4-1.1l-.4-.6c-.2-.3-.5-.6-.8-.7-.2 0-.7-.4-1.1-.7a8 8 0 0 0-1-.6s0-.3.3-.5zm5.7.2c1 0 2 1.2 1.7 2.3a2 2 0 0 1-1 1.1h-1.2c-.9-.5-1.4-1.3-1.2-2 .1-.5.8-1.2 1.3-1.3h.4zm0 .8c-.2 0-.7.4-.8.8-.1.2 0 .7.4.9.5.4 1.3-.1 1.3-.8 0-.4-.5-.9-.8-.9zm.2.7c.4 0 .6.4.3.7-.2.3-.6 0-.6-.4 0-.2 0-.3.3-.3zm-5.3.5c.2 0 .5.1.7.3.5.2.8.9.8 1.3 0 .7-.9 1.8-1.7 2.1-.6.3-.7.3-1.2.1-1-.3-1.4-1.3-.8-2.4.5-.9 1.4-1.4 2.2-1.4zm-54.7.4a18.6 18.6 0 0 0 3 3.8c-.2 0-.9-.6-1.7-1.4l-1.3-2.4zm54.6.5h-.3c-.4.1-.7.4-.8.7 0 .4.1.4.5.1.5-.3.8-.2.9.2 0 .2 0 .4-.2.5-.2 0-.3.2-.2.2.2.1.8-.6.8-.9l-.3-.5a.9.9 0 0 0-.4-.3zm21.8.2-.4.3c-.8.3-1 .3-.2-.1l.6-.2zm-18.4.3c-.3 0 .6 1.4 1.7 2.5a33 33 0 0 0 4 3.2c.5.3.5.3.3.5l-.4.1-.4.2c-.2.2-.3.2-.7 0l-.5-.3.6.5 1.6 1.2c1.3 1 1.3 1 1 1.2-.2.2-.2.3 0 .5l1.7 1c1 .6 1.4.8 1.3 1-.2.3 0 1 .2 1.6l.3.5-.1-.6-.2-1.3-.2-.9-.1-.2v-.1c-.1.1-.7 0-1.8-.6-.9-.4-1-.5-.9-.8.3-1 .2-1.2-.4-1.3a5 5 0 0 1-1.7-1c0-.2.1-.3.3-.4h.4l.3-.4c.3-.4.5-1 .2-1a12 12 0 0 1-2.2-1.5l-.6-.5.7-.3c.8-.2 1-.4.6-.5a3 3 0 0 0-.9.3l-.7.3-.6-.5a88.3 88.3 0 0 1-2.8-2.4zm17 .3-.1.2c-.2 0-.2-.1 0-.2h.1zm-30.4.2c.2 0 .3.2.3.5 0 .9-.9 2.4-1.8 3-.5.4-.9.5-1.1.2-.2-.3 0-1.1.4-1.7 1-1.6 1.6-2.1 2.2-2zm4 0c.6 0 1.1.3 1.1 1 0 1-1 2.3-2 3-.7.4-1.2.5-1.7 0-.2-.2-.3-.3-.2-.9 0-.7.3-1 1-1.9.5-.7 1.2-1.1 1.8-1.2zm-4.8.8-.3.3c-.5.5-.4.9.2.6.3-.2.1.3-.4.8l-.2.4c.2 0 .6-.4.9-1 .3-.6.2-1.1-.2-1zm4.5.3c-.2 0-.5 0-.7.2-.3.3-.4.7 0 .5.3-.1.7 0 .8 0 0 .2-.1.4-.4.7l-.4.5h.3c.3-.3.8-1.1.8-1.4 0-.3-.2-.5-.4-.5zm-5 1-.1.2v.1l.2-.1v-.1zm-123.4 1v.3-.2zm-.1.5v.2-.2zm139.3.1a1 1 0 0 0-.7 1.7c0 .2.3.3.4.3.2 0 .2 0 .1-.4 0-.5.4-1 .7-.7.3.1.3.5.1.6l.1.1c.4 0 .4-.9 0-1.3a1 1 0 0 0-.7-.2zm-139.4.3v.3-.2s0-.1 0 0zm0 .5-.3 1.4-.9 5.1-.8 5-.5 1.9 2.4-13.4zm120 1c-1 0-2.4 3.1-1.9 4.2l.4.4c.6 0 1.9-2.1 2-3.4.1-.7-.1-1.1-.6-1.1zm13.2 0c-.3 0-1 .8-1 1 0 .4.1.3.5 0l.7-.2c.2 0 .2.1.2.6v.5c.2 0 .5-.9.4-1.2 0-.3-.5-.6-.8-.6zm-48.9.3.5.4c4.1 3.4 9 6.4 13.4 8.2 4.2 1.8 11 3.6 17 4.8v-.3.3l1 .2-1-.2.1 1c0 .4.2.7.4 1l-.7.1c-3.5 1-5 1.3-12.1 2.8-3 .7-5.4 1.2-7.4 1.8l-7.4-13.3-3.8-6.8zm64.1 0 .4.5c.7.6.9.7.9.5 0-.2-.4-.5-1.2-1zm-28.5 0c.2 0 .2.1.2.8 0 .8-.4 1.8-1 2.6-.3.5-.6.5-.7 0-.4-.8.8-3.5 1.5-3.4zm15.7.2.5.2 4.5 2.4 1.5.8-.2.3-.4.4-1.2-.7-1-.7c0-.2 0-.2-.1-.1-.2 0-1.8-.8-1.8-1l.2.2h.3l-1.1-.8c-.7-.4-1.3-.8-1.3-1zm-16.1.4c-.2 0-.5.7-.5 1 0 .3 0 .4.2.3l.2.1-.2.2s-.1 0 0 .2c0 0 0 .2-.2.3l-.1.3c0 .2.2 0 .4-.3.4-.6.6-1.5.4-1.8 0-.2-.2-.3-.2-.3zm22.4 1a3 3 0 0 0-.5 0l-.6.1.6.1c.6 0 .8 0 .7-.2h-.2zm-51.8.4.3.2a67.7 67.7 0 0 0-.3-.2zm61.3.3h-.1l.1.4c.4.9-.7 2.2-1.7 2-1-.3-1.1-.3-1-.1h.3l.2.1c.1.2.9.3 1.3.2 1-.3 1.7-1.8 1-2.5l-.1-.1zm-27.1.9c-.3 0-1 .6-1 1h.7c.6-.5.8 0 .3.7a2 2 0 0 0-.3.4l.4-.1c.3-.4.4-.8.4-1.3s-.1-.7-.5-.7zm21.8 1.8-.2.5-.6 1a2 2 0 0 0-.4.9c0 .4 0 .5-.3.4h-.3c0 .2.8.5 2.2.9l1.6.3c.3 0 .3 0 0-.2l-.6-.2-1.4-.4-1-.2v-.5c0-.4.2-.7.4-.8.3-.4.8-1.1.8-1.4 0-.2 0-.3-.2-.3zm-26.2 1c.7-.3 1.1.5 1 1.5-.1.7-.6 1.8-1 2.2-.6.7-1.2.2-1.2-1 0-1.1.7-2.6 1.2-2.8zm-2.9.4.3.1c.2.3.2.8.1 1.5 0 .5 0 .5-.1-.3 0-.5-.2-1-.3-1v-.3zm25 0c-1 0-1.6 1.3-1.1 2 .2.4.8.4.8 0s.4-1 .6-1l.2.2c.1.2 0 .6-.1.6l-.1.1h.3c.6-.5.1-1.8-.7-1.8zm-22.2.4c-.3 0-.6.3-.6 1 0 .3 0 .3.4.2h.5l-.1.3-.3.5-.1.3h.1c.2 0 .5-.5.6-1.2 0-.5 0-.7-.2-1a.5.5 0 0 0-.3-.1zm-52.2.3a28 28 0 0 1 8.2 2.3l1 .5 2.2 4 2 3.7a10.7 10.7 0 0 0-2-1 17.6 17.6 0 0 0-2.2-.8h-.6c0 .1 0 .1 0 0s0-.2-.3-.1a4 4 0 0 0-.5 0c-.2.1-.2 0-.2 0 .1-.2-.2-.3-.2-.2-.1.2-.6.1-.6 0l-.1-.1c-.3.1-.7 0-1.8-.1h-.5l-.5.1h-.3c0-.1 0 0-.2 0h-.5l-.7-.1a5.8 5.8 0 0 1-.8 0h-.7l-.7-8.2zm66 .2c-.3 0-.6.2-.8.4-.7.8-.4 1.6.3 1 .5-.5.8-.6 1-.5.2 0 .2.2.2.5-.1.4 0 .5.2.1s0-1-.2-1.2a1 1 0 0 0-.7-.3zm-5.9 0a8 8 0 0 1 2.6.6c1 .3 1 .6.3.7l-2.9-.2a44.3 44.3 0 0 0-3-.2l.4-.2c0-.4.6-.6 1.7-.6h1zm-71 .4.6 6.8-.4-.1c0-.2-.9-.2-1 0h-3.1a239.8 239.8 0 0 1-5.4.3 6 6 0 0 0-1.3.3h-.5l-2.2.4h-.6l-1.3.4a22.3 22.3 0 0 1-3 .6 14.2 14.2 0 0 1-1.7.4 2.7 2.7 0 0 1-.3.1h-.7l-.6.2-.2.1a11 11 0 0 0-3 1.2l-2 .8 1.5-1a95.5 95.5 0 0 1 25.2-10.5zm59.9.3h.1c.2.3.2.6 0 1-.2.5-.3.3-.3-.4v-.6h.2zm13.6.5h-.4.4zm.6.2c.1 0 0 0 0 0h-.2.2zm2.9.5v.2c.1 0 .1 0 0-.1v-.1zm17.6 0 .1.2c.2.4.2.4.2.2 0 0 0-.2-.2-.3l-.1-.1zm.4.7h-.1v.3c.1.2.1.2.2 0l-.1-.3zm-17.4 1.1v.1l-.1.1h-.1v-.2h.2zm-16.7.3.5.7c.1.4.2 1 .1 1.5v-.1c-.1-.7-.5-1.7-.6-1.8-.2 0-.2-.2-.2-.3h.2zm10.1.3h-.4.4zm.4 0h.3l-.2.1h-.1zm-2 .1-.1.2c-.2.1-.3.5 0 .7l-1.4.2-1.6.2c-.3.1-.9 0-1.3-.3l-.4-.4 2.1-.3a62.1 62.1 0 0 0 2.7-.3zm-109.9.2h-.2c-.2.3.1.5 1 .7 1.4.4 1.8.5 1.8.3 0-.1 0-.2-.3-.2h-.2c0-.2 0-.2-.1-.1l-1.7-.4-.2-.2v-.1zm103.7.2.5.3c.6.6.8 1.8.4 2.7-.3.5-.3.3-.3-.4.1-1.2-.3-2-1-2-.4 0-.4-.1-.1-.4.1-.2.3-.2.5-.2zm28.7.3.2.2c.2 0 .2-.1 0-.2h-.2zm-151.2 0V-715.6v-.2zm14.7 0-1.5.5c-.7.3-1.3.9-1.3 1.2 0 .5.7.6 1.6.3.6-.2 1.9-1 2-1.3v-.3c0 .2-1 .9-1.7 1.3-1 .4-1.3.4-1.3-.2 0-.5 1-1 2.2-1.2.3 0 .4-.1.3-.2h-.3zm106.7.3V-715.4v-.2zm-106.6 0-.7.4c0 .1-.4.6-.6.6v-.2l.1-.1c-.2 0-.4.2-.3.3l-.2.1c0 .2.3.2.8 0 .8-.4 1.2-.9 1-1zm126.4.1-.2.3c-.1.4-.1.4-1.6.6-1.3.1-1.3.1-1.2-.2 0-.3 0-.3-.5-.3s-.6 0-.5.2c.1.4-.3.6-1.1.7l-.9.2v-1c-.2 0-.2 0-.2.2l-.2.5c-.2.3-.3.4-1.2.5-1 .2-1 .2-1.1 0a3 3 0 0 0-.5-.7l-.5-.5 1.8-.1 6.4-.4zm-122.4 0-.3.3h.3v-.2zm101.2.2c.3 0 .3.2.3.5v.6c0 .2-.1.3-.2.3s-.4-.7-.4-1.1c0-.3 0-.3.3-.3zm-100.6 0-.3.1-.6.2h-.3c.2.2.9.1 1.2 0 .2 0 .2-.2 0-.3zm119.8.2-.4.1.1.1h.4c0 .1.2.1.2 0 .2-.1 0-.2-.3-.2zm-15.2.2.4.6c.1.3.4.4.9.3l-.4.2-.9.3c-.1.1-.1.1-.1-.8v-.6zm6.5 0h.5c.4.2 1 .6 1.2 1.1.4 1-.3 3-1.3 3.5-.5.2-.6.2-1.2 0-.4-.3-.6-.5-.9-1-.5-1-.3-1.7.5-2.8.3-.5.7-.7 1.2-.8zm-1.3.3h-.4.4zm-1.2.1h.3H25711.4zm-6.3 0 .2.2.5.1c.3 0 .3 0 .3.3v.6c-.2 0-.2.2 0 .3v.3l-.3.1c-.3 0-.7-.8-.7-1.4v-.4zm5.6.1h.3l-.2.1h-.1zm-6 .1v.5c-.2.3-.2 0-.1-.3v-.2zm5.2 0h.3c.1.1 0 .1-.1.1h-.2zm31.8.2c-.2.1-.2.2-.2.3 0 0 .2 0 .2-.2v-.1zm-32.2 0h-.2.2zm15 .2c-.4 0-.8.4-1 .9-.3.4-.3.7 0 1 .3.3.6.2 1-.3.5-.5.9-.6.8-.1 0 .4.2.4.3.1.2-.4 0-1-.2-1.3a.9.9 0 0 0-.4-.3 1 1 0 0 0-.4 0zm-10.7.2a1 1 0 0 0-1 .6c-.2.8.2 1.2.8.8.5-.4.8-.3.8.3v.4c.2 0 .4-.7.4-1 0-.4-.3-.9-.7-1l-.3-.1zm-106.2 0v.2h.1v-.2zm-10.4.4c-.2 0-.7.5-.8.9l-.4 1c-.4.6-.5 1.4-.3 2 .2.3.2.4 0 1.3-.3 1.7-.8 3.3-1.4 4.3a2 2 0 0 0-.3 1.3c0 .5 0 .7.3 1 .3.5.7.8 1 .8.3 0 .3 0 0 .3 0 .4-.2.4 0 .2 0-.2 0-.2-.1 0 0 0-.2.2-.2.5s0 .3.4-.4l.7-.8c.4-.3.7-.7.8-1.1l.6-1.2c.4-.8.4-1 0-.2-.3.5-.5.5-.5.2v-.3l-.1.5c0 1-.6 1.8-1.4 1.8-.8 0-1.3-1-1.1-1.9.1-.6.5-1.2.8-1.4.2 0 .3-.2.2-.2v-.5c.3-.4.8-2.1 1-3 0-.4.1-.5.3-.5.3.1 1-.2 1.3-.6a4 4 0 0 0 1-2.1v-.6.6c-.4 1.1-1.1 2.2-1.8 2.4-1 .3-1.6-1-1-2.3.2-.6.8-1.1 1.2-1.3.4-.1.5-.3 0-.2-.2.1-.2.1-.2-.2v-.3zm11.3 0-.1.2H25608.7l-.2-.1zm132.8.2zm0 0-.2.2-.1.3.3-.5zm-21.1.2c-.3 0-.3 0 0 .2s.6.2.4 0l-.4-.2zm-110.3.4h.1a93.3 93.3 0 0 1 3.2 2.4c-.4-.3-.7-.3-.9 0-.2 0-.2 0 .1.3l1.1 1c.8.8 1.4 1.6 1.3 2 0 .3-.8.3-1.4 0-.7-.3-1.4-.9-2-1.6-.7-.8-.9-1.2-.8-1.6 0-.3 0-.3.5-.3l.4-.1c0-.1-.6-.3-.7-.2v-.4c0-.4-.1-.8-.5-1l-.4-.5zm131 .1c-.1-.1-1 1.4-1 1.7l.1.3c.2.2.2.2.1-.1 0-.3 0-.5.2-.7.3-.5.7-1.1.6-1.2zm-19.4.2h-.2l.2.2h.2l-.2-.2zm27.4.2.1.2h.2c0-.2-.2-.3-.3-.2zm-23.8 0h-.1l-.2.1h.2v-.1zm27 0 1.7.5c.4 0 1.1.3 1.6.5l-.7 4.1-1-.6a9.1 9.1 0 0 1-2.8-2.5l.5-.6.7-1.4zm-154.5.3-.1.5c0 .3 0 .5-.2.7l-.3.4c0 .2.3 0 .6-.2.5-.4.6-.9.4-1.2-.1-.2-.3-.3-.4-.2zm106.8 0c.1.1-.7.4-2.9 1.3a45.6 45.6 0 0 0-4.2 1.9c-.2.4-.4.5-.7.4h-.3c0 .3-.7.9-1 .9l-.6.4a3 3 0 0 1-1 .5l-1.1.7-.8.5-.3.1-.3.2a79.6 79.6 0 0 1-5.3 3c-.3 0-.4.1-.7.3l-2.8-5 7.9-1.9a302 302 0 0 0 14.1-3.3zm-101.8.4zm0 0s-.1.1 0 .1c0 .2 0 .1 0 0v-.1zm1 0-.5.3c-.2.3-.3.3-.1.3.1 0 .3 0 .4-.2.2-.2.3-.4.1-.4zm127.5.1s0 .2-.3.3l-.5.1.8-.4zm-5 .4v1.8c-.3.2-.5 0-.6-.8-.1-.5-.1-.6.2-.8zm-129.3 0s-.2.3-.1.4c.1.2.2 0 .2-.2v-.2zm142.5.8s-.3 0-.6.3a5 5 0 0 0-.4.5l.5-.3.5-.5zm-124.8 0zm136.3 0v.1l-.5.5.5-.5zm-9.9.3v.4c0 .5-.3 1-.8 1.8-.4.5-1.4 1.4-1.5 1.3 0 0-.2 0-.2.2-.2.1-.2.1.1.1.3 0 .7-.2 1.2-.7l1.2-1.8v-1.3zm-10.5.1h-.1l-.2.2.3-.1zm-22.6.3h.3l.6.4c.6.5.9 1.2.9 1.8v.5l-.2-.5c-.5-1.1-1.2-2-1.9-2-.1 0 0 0 0-.1l.3-.1zm-95.8.3zm0 0v.1l.2.3v-.2l-.2-.2zm126 0v.9l.1-.4v-.5zm-.7.5-.3.3-.3.2c.1 0 .3 0 .4-.2zm-14.8 0-.2.1c0 .2.3.2.5.1s.2-.1-.3-.2zm6.3.1h-.3c-.6.1-1.5.6-1.4.7 0 .1.3.3.7.4.9.3 1.6.4 1.6.3l-.3-.6-.2-.7h-.1zm-115.4.2-.1.1v.1h.2l-.1-.2zm-16.1 0-.3.5c-.2.4-.3.8-.3 1.3l-.2 1.4v.9c.2.1.3 0 .5-1l.2-1.6.1-1.2v-.2zm139.3.4-.6.3c-.7.3-.6.2-1.1 2.8l-.3 1-.3.8a14.6 14.6 0 0 1-2.6 5.3v.5c.2.2.2.4 0 .8s-.3.4 0 .4c.1 0 .5-.8.4-1 0-.2-.1-.3-.2-.3l.4-.7c1.4-2.2 2.4-4.8 3-7.7.2-1.1.2-1.2.7-1.7zm-29 .3h.1l.6.2c.4 0 .5.2.5.9 0 .5 0 .6-.2.5-.3 0-1-.8-1-1.3v-.3zm8.8 0s-1.7.6-1.8.8v.3l-.1.2v.3c0 .1-.2.4-.5.6-.3.4-.5.4-.8.4h-.3c.7.6 1.7 0 1.9-1 0-.6.3-.9.8-1 .4 0 1-.5.8-.6zm10 .1h-.2.2c.1 0 .1 0 0 0zm-109.7 0 .5 1-.4-.6-.1-.3zm102.3 0c-.3.1-.6.3-.8.7-.3.5-.2.9 0 1.1.3.3.5.3 1 0l.6-.3c.3 0 .3 0 .2.3 0 .4.1.4.3 0 .3-.5.2-1-.2-1.4-.3-.3-.7-.4-1-.3zm7.5.2v.2h.1l-.1-.2zm.3.4-.1.1c0 .3 0 .3.1.1v-.2zm-145.5.2s.1 0 0 .2c0 .5-.1.6-.1.1v-.3zm146.8 0-.4.6a5 5 0 0 1-.8 1.3 30.2 30.2 0 0 1-5 4.5c-1.9 1.4-1.8 1.3-1.8 2 0 .6 0 .7-.4 1-.3.3-.5.3-1 .3h-.6c0-.1 0-.2-.1-.1l.1.2a2 2 0 0 0 1.6 0c.5-.2.7-.7.7-1.3 0-.4 0-.5.3-.8l.6-.5c.2 0 .4-.2.4-.3l.4-.3.6-.4.6-.5 1-.9.8-.6a15 15 0 0 0 2-2.1c.3-.4.4-.5.5-.2.1.2.1 0 .1-.2 0-.6.4-1.5.6-1.4l.3-.1c0-.1 0-.2-.2-.2h-.3zm.9.1-.1.2v.2c.2 0 .2 0 .2-.2l-.1-.2zm-111.8.1.1.1h.3v.2s0 .1 0 0l.2.1s0 .1-.1 0c0 0-.1 0 0 .1l.1.1.1.2.1.4-.3-.3a38 38 0 0 0-.5-.9zm120.7 0-.3.9-.3 1.5v.7c0 .2.7-2.2.6-2.5l.1-.2c.1-.2 0-.3-.1-.3zm-8.4.1-.3.2h.6c.1-.1 0-.2-.3-.2zm22.5 0 .4.3 1.8 1.5-.1.2a37 37 0 0 1-2-2zm-21.7.2c-.2-.1-.3 0-.3.1 0 .2.3.2.4 0l-.1-.1zm-128 .6-.2.1a1 1 0 0 0-.5.4c-.1.3 0 .4.1.2.4-.3 1 .1 1 .7 0 .5.2.4.4 0 .1-.4.1-.5 0-.8a1 1 0 0 0-.4-.5.7.7 0 0 0-.3 0zm14.8.8c-.2 0-.2 0-.2.3 0 .4.4 1.3.6 1.3l-.1-.4c-.2-.3-.2-.4-.1-.6.2-.3.1-.6-.2-.6zm117 .1a3 3 0 0 0-.5.4c-1 .9-1 1-1.4.8-.3 0-.4 0-.3.1.3.2.8.1 1.3-.2l1-1zm-6 .2-.3.1s0 .2.2.3c.2.2.2.2.2 0v-.1c-.2 0-.2-.1-.1-.2zm-15 .4c.2 0 .5 0 .8.2.6.3 1.2 1 1.2 1.4 0 .2-.2 0-.6-.4-.6-.7-1.3-1-1.8-.8-.4.2-.4.1-.1-.2.1-.2.3-.2.5-.2zm-117.3.2c-.3-.1-.7.2-.9.7-.2.5-.1 1 .2.5.2-.2.4 0 .4.4s.2.4.5.1c.5-.3.5-1 .1-1.5a.6.6 0 0 0-.3-.2zm135.6 0h-.1c-.2.1-.3.4-.5 1.7l-.2 1.2c-.2.4 0 .3.2 0l.5-2.2v-.6c.1 0 .1 0 0 0zm-3.1.1v.5c.2 0 .2-.1 0-.3v-.2zm-134.4.5-.7.7a45 45 0 0 1-2.5 3c-.2.2-.2.3-1 .3-3.5 0-6.8 2-7.3 4.5-.3 1.6-.2 2.7.3 4.3.7 2.1 2 4 4 6 .5.6 1 1 1 1.2l-.2.2v.1c.1 0 .2 0 .2-.2s.7-1 1-1.1h.4c.5 0 .4-.2 0-.6l-1-1-.9-.5c-.4 0-.6-.2-.7-.4l-.5-1c-.2.1-1.1-.9-1.4-1.4-.8-1.4-1-4-.3-6 .7-2.2 1.6-3 3.6-3.6.9-.3 2.3-.3 2.2-.1-.1.1-1 1-1.3 1.5-.2.2-.2.3-.1.4l1 .3a83.9 83.9 0 0 0 4.2-6.6zm134.8.4v.2h.2c0-.2 0-.2-.2-.2zm9 .1-.1.2v.4c-.1.7-2 2.7-2.4 2.5h-.2c0 .1-.2.2-.4.1h-.3c0 .3.9.2 1.4 0 .5-.2 1.4-1.1 1.8-1.8.3-.6.4-1.4.2-1.4zm-8.8.3c-.2.2-.2.2 0 .3V-702.5zm-133.8.3.2.1-.2-.1zm118.4 0 .7.1c.1 0 .3.9.2 1-.1.3-.7.1-1-.2-.7-.6-.7-.8 0-.8zm-110.3.1-.1.2h-.1l-.2.6c-.2.1-.3.3-.3.4v.1c-.1 0-.2 0-.1-.1l-.1-.2c-.2 0-.2 0 0 0 0 0 .1-.2 0-.2h.2c.2 0 .2 0 0-.1v-.1c.2 0 .3 0 .2-.3l.3-.2.2-.1zm13 .2c-.3 0-.8.4-1 .7-.3.6-.1 1.8.4 2.3l.4.2c.3.2.3.2-.7.5-3.3 1-5.8 2.6-8.4 5l-1 .8-.7.6c0 .2-1 1-1.6 1.6-.6.4-.8.6-.3.3l.4-.3.9-.4.7-.3.2.3c.2.4.7.6 1.3.6 1 0 1.7-.6 1.7-1.3v-.4l-.1.3c-.1.4-.7.9-1.2 1-1 .2-1.8-.5-1.7-1.3 0-.3.5-.7 1-.7l.8-.3c.6-.3 2-.7 3-.8h.7l.1.4c.3 1.1 1.9 1.1 3 0 .5-.6.8-1.1.8-1.8v-.7c-.1 0-.2.1-.2.5 0 .9-.6 1.8-1.5 2.2-.5.3-1 .3-1.3.1-.4-.2-.6-.6-.6-1 0-.6.8-1.6 1.7-2 .5-.2.6-.4.2-.2-.5.2-1 .5-1.5 1a3 3 0 0 0-.4.6l-.8.2a16.7 16.7 0 0 0-2 .5s1-.9 2-1.5a23.8 23.8 0 0 1 3.5-2c1.2-.6 1.3-.7 1.8-.6.3 0 .6 0 1-.2.6-.1.7-.2.9-.6l.3-.6v-.3c.1-.1.2 0 .2.2 0 .6.2 1.2.5 1.6.6.5 1 .3.8-.7v-.8c-.1-.1-.1-.1 0 0 .2.2.3.3.4.2v-1c-.4-1.6-.6-2.1-1-1.7v1c.2.5.2.6 0 .6-.3-.1-.4.2-.4.9v.5c-.2-.4-.1-1.3.2-1.5v-.3c0-.2 0-.2-.3-.1-.4.2-.5.2-.6-.3-.2-.4-.6-.8-.5-.5.2.4.4 1.4.4 1.7 0 .5-.4.7-1 .7-1 0-1.3-.2-1.4-1-.2-.8.1-1.4.8-1.7.1-.1.2-.2 0-.2zm113.5.2-.2.2-.3.3c-.1 0-.1 0 0 .1 0 .2.4.2.6-.2.1-.2.2-.3 0-.4zm-131.1.2-1.2 1.2c-.7.8-1 1.2-1.2 1.2h-.3l.1.1c.2 0 .1.1-.1.4l-.5.5c-.2 0-.2.1 0 .3l.3.5c0 .5.5 1.1 1 1.3.5.3.8.3 1.3 0 .7-.3 1-1 .8-1.5 0-.3 0-.3 0 0 0 .6-.2.8-.6 1-1 .8-2.2 0-2.2-1 0-.7.5-1.4 1-1.4.2 0 .5-.3 1-1.2l.6-1.4zm20.6 0v.2-.2zm-2.3.4c-.2-.1-.5 0-.7.2v1.1l.2.2v-.2c0-.2.2-.3.5-.4.3-.2.4-.3.4-.5s-.2-.4-.4-.4zm-14.7.2v.2c-.1 0-.2.1-.2 0l.2-.2zm-2.2 0s-1.2 1.3-1.6 2c-.2.3-.2.4-.1.5l.1.1.6-.7c.7-1 1-1.7 1-1.8zm130.5.3-.1.1-.2.2c0 .2.2 0 .3-.1v-.2zm-128.6.3v.2c-.2 0-.2 0-.1-.1v-.1zm128.2.3-.2.3a2 2 0 0 0-.4.7c0 .3.1.3.3.1l.2-.4.1-.6zm-115.5.2-1.1.4a25.4 25.4 0 0 0-9 6.2c-1 1-1 1-1.2 1-.2-.2-.2-.2-.1 0 0 .4 0 .4-.8 1.3-1 1-1 1-1.2.9l-.1-.1c-.1 0 0 0 0 .1l.3.2-.5.5c-.4.3-.5.5-.5.7 0 .3.3.8.5.8l1.4-1.8a23.9 23.9 0 0 1 11-9c.5-.2.7-.4 1-.7.3-.3.4-.5.3-.5zm-7.2.1c-.4 0-.5 0-.7.3l-.4.5c0 .2.1.2.4 0 .1-.2.4-.2.6-.2.2 0 .3 0 .4.2.1.4.3.4.5 0l-.1-.5c-.2-.2-.3-.3-.7-.3zm65.9 0 1.8 3.5s0 .1-.2 0l-.3.2c0 .2-.2.2-.3.2h-.2v.2l-.6.1a35.8 35.8 0 0 0-2.1.8c-.2-.1-1.6.9-2.5 1.8a25 25 0 0 1-3 2.5 3 3 0 0 1-.8.4h-1l-.1-1.4v-.7a62.7 62.7 0 0 0 8.5-6.7l.8-.8zm-72.9.2v.2h.1v-.2zm54.6.1c.8.5 1.4 1 1.7 1.6.3.4.3.6.3 1.2s0 .8-.3 1.4c-.3.6-.9 1.2-1.6 1.8l-.1-6zm-63 .3h-.1l.6.2.7.2a4 4 0 0 1-1.1 1.3c-.1 0-.1 0 0 0 0 0 0 .3-1.2 1.6a4 4 0 0 0-.6 1l.1.3c.2.1.2.1.4-.2l.4-.6 1.2-2 1-1.6-.6-.1-.7-.1zm27.1.2c.1 0 .2.2.2.5s0 .4-.2.2v-.3c0-.1 0-.2-.2-.2-.1 0-.1-.1 0-.2h.2zm106.2 0-.1.1v.2l.2-.2zm2.1.2-1 .1a5 5 0 0 1-.5 0c-.2.1-.2.1 0 .2h1.2l.6-.2-.3-.1zm-57.3.2-1.2 1.1a36 36 0 0 1-12.7 7.3l-1 .3v.5-3l2-.5a51.4 51.4 0 0 0 12.9-5.7zm-72.8 0-.2.1c-.2 0-.3.2-.4.3-.3.5-.3 1.1 0 .8.3-.1.7.2.6.4 0 .3.3.3.6 0 .5-.5.4-1.2-.3-1.5a1 1 0 0 0-.3 0zm9.2.3.2.1v-.1h-.2zm-2 .7-1.7 1.3c-.4.5-.5.5-.5.4 0-.2 0-.1-.1 0 0 .2-.1.4-.3.5l-.1.3.4-.3 1.2-1c.9-.8 1.2-1.1 1.1-1.2zm6.7.2a14 14 0 0 0-3.3 2.2c-.8.6-2.7 2.6-2.7 2.8l.9-.8a32.8 32.8 0 0 1 5-4.2zm-14.3.3v.2h.2l-.2-.2zm78.2.8zm56.4.4h-.1l-.4.3a4 4 0 0 1-1.8.6c-.1 0-.2 0-.2.2h.8l.3-.1c0 .2 1.4-.8 1.4-1zm-118 .6c-.4 0-.5 0-.8.4-.5.4-.6.8-.5 1.1 0 .3.2.2.3 0 .1-.3.7-.6 1-.6.2 0 .4-.3.3-.6 0-.2 0-.3-.4-.3zm-21.8.3-2.6 3.3s0 .2.2.3c.2.2.6.3.6.2l.5-1a13.7 13.7 0 0 0 1.2-2.6l.1-.2zm9.6.3c-.3 0-.7.3-.7.7 0 .2 0 .2.2.2.3-.1.6 0 .6.2 0 .3 0 .3.5.1.7-.3.3-1.2-.6-1.2zm-.4 1c-.1 0-.2 0 0 .1 0 .1.2.1.2 0l-.2-.1zm12 0-.2.1h.2v-.1zm109 0-.1.2v.1l.2-.1v-.1zm-125.6.6zm0 0v.3c.2.2.3.2.3 0h.1l.3-.1c.1-.1 0-.2-.1-.1a1 1 0 0 1-.4 0c-.1-.1-.2-.1-.2 0zm128.2.3-1.2 3-1.6-.5 2.8-2.5zm-117.6.5-.4.1c-.4.1-.6.4-.5.7 0 .3.4.6.5.6v-.2h-.3l.2-.1h.5c.2.3.6.2.9 0 .2-.2.2-.4 0-.7a.9.9 0 0 0-.6-.3h-.3zm-13.6.4zm0 0-.7 1-1 1h-.1v.2s-.2.1-.2 0l-.1.2-.4.6c-.4.4-.4.5-.4.8l.3.6.2.2.5-.8a43 43 0 0 0 2-3.7zm11.8.6v.2c-.3.2-.4.2-.2 0 0-.2.2-.2.2-.2zm56.9.2a12.5 12.5 0 0 0 1.2 5.8h.3c-2.4.1-5 .6-8.3 1.3v-4.3c2.5-.8 4.7-1.7 6.8-2.8zm-56.4.8.1.3c.2.3.3.3.2 0l-.1-.2h-.2zm-.8.3a29 29 0 0 0-2.1 2.6c0 .2 0 0 .7-.7 1-1.2 1.7-2 1.4-1.9zm-1 2c-.1 0-.2 0-.3.2-.2.2-.2.2.1.8l.3.9c0 .2.1.3.2.3v-.8c0-.8-.2-1.5-.4-1.5zm-1.1.8zm0 0c-.4 0-.4.3 0 1.2l.6 1.3.3.7c0 .3 0 .4.2.4 0 0 .1 0 0 0l.1-.7v-1c-.1-1-.8-2-1.2-1.9zm-.8.7c-.3 0-1 2.2-1 3.3l-.4 2.8v.5l.7-.3 1-.8.5-.5.3.4c.2.3.3.5.4.4l.1.1c0 .2.3.2.3 0l-.3-.1a1 1 0 0 1-.4-.5l-.2-.4.2-.7c.4-.8.4-1.2 0-1.7l-.2-.3-.1.3-.2.2v-.4c.2-.3.2-.4 0-.9l-.4-1c0-.3-.2-.4-.3-.4zm2.2 1 .2.2v-.1l-.2-.1zm-14 1.2v.5c.2.2.2.3.2.7l-.2.9c-.2.3-.2.3 1.1 1l1 .7.2-.1.3-.5 1-2c0-.2-.2-.2-.3 0a9.6 9.6 0 0 1-3.3-1.2zm33.4.5h.2-.2zm-23.1.4h-.2l-.6.4c-.6.2-.6.2-.7.7-.2.5-.6 1.3-.9 1.3a5 5 0 0 0-.8 1.6c0 .2 1.7 0 2.3-.1.2 0 .2 0 .3.2 0 .2.3.5.4.5l-.2-.3c-.2-.5-.2-.7 0-.9.2-.5.6-3.1.4-3.4zm-6 .5-.3.1-1.2 2.4 2.9 1c.6 0 .8 0 1-.3l.1-.5c.1-.2 0-.3-.2-.4-.4-.2-.8-.8-1-1.5 0-.4-.1-.6-.2-.6l-.7-.1h-.4zm85.7 1.6zm-45 1.3c.2-.1 2.1.2 4.1.6-.4.2-1 .3-1.2.5-.3 0-.6.2-1 .4v-.1c-1.8-.8-2.4-1.3-2-1.4zm-34.8 1.6.2.3c.1.3.2.3.2.2l-.2-.3zm149 1.6 11.7 2.5-11.1 51.3 8.2 1.8-2.4 10.9-8.2-1.8-3.7 17.5-13.4-3 3.8-17.4-33.7-7.3-4-10.8 9.7-8 23.3-19.3zm-138.4 7.3 1.8 1a36 36 0 0 1 3.2 2.1l1 .8 1-.4c-1-1-2-1.9-3-2.2-1.5-.7-4-1.5-4-1.3zm-6.4.7v.4h-.2l.2-.4zm142 7.4-36.7 30.2 28.8 6.2zm-111.7 7.4a50.4 50.4 0 0 1 7.5.7c2.3.4 4.4 1 6.3 1.6v7a29.2 29.2 0 0 0-6.2-1.8c-2.2-.4-4.6-.7-7-.7-5.9 0-10 1.6-12.5 4.7a22 22 0 0 0-3.5 13.6c0 5.5 1.3 9.7 3.9 12.6 2.6 2.8 6.7 4.2 12.2 4.2a33 33 0 0 0 13.2-2.3v7a39 39 0 0 1-13.8 2c-7.8 0-13.7-2-17.7-6.3s-5.9-10-5.9-17.2c0-5.2.8-9.7 2.5-13.4 1.7-3.7 4.3-6.6 7.8-8.6 3.4-2 7.8-3 13.2-3zm-61.4.7 2.6.1c2.4.3 4.6 1 6.3 2 2.4 1.3 4 3.2 5.2 5.6 1.1 2.3 1.7 5 1.7 8a15 15 0 0 1-4.4 11.3 16 16 0 0 1-11.7 4.3h-12.8v15.9h-8v-47.2zm22.2 0h8v47.2h-8zm60.9 0h8v25.7l16.7-21.2 3.5-4.4h7.4l-10.9 13.8-4.5 5.7 17.8 27.7h-8.5l-13.9-22-7.7 9.8v12.2h-8zm-96.2 6.2v18.8h11.3c3.2 0 5.6-.8 7.2-2.5a9.2 9.2 0 0 0 2.4-6.7c0-3-.8-5.4-2.3-7-1.5-1.7-3.8-2.6-6.9-2.6zm58.5 58.6a17.7 17.7 0 0 1 6.3 1v3.2a16 16 0 0 0-6-1c-2.7-.1-4.6.6-5.7 2a10 10 0 0 0-1.6 6.1c0 2.5.6 4.4 1.8 5.7 1.2 1.3 3 2 5.5 2l3-.3c1.1-.2 2.1-.4 3-.8v3.2a17.8 17.8 0 0 1-6.3.9c-3.5 0-6.1-1-8-2.9a11 11 0 0 1-2.6-7.8c0-2.3.4-4.3 1.1-6 .8-1.7 2-3 3.5-4 1.6-.8 3.6-1.3 6-1.3zm68 0a20 20 0 0 1 6.3 1v3c-1.8-.6-3.8-1-6-1-2.8 0-4.7.8-5.8 2.2-1 1.5-1.6 3.5-1.6 6.2 0 2.5.6 4.4 1.7 5.6 1.2 1.3 3 2 5.3 2 2 0 3.5-.3 4.6-.7v-6h-5.3v-2.3h8.4v10.2c-.7.5-1.6.9-3 1.3-1.2.3-2.8.5-4.8.5-3.5 0-6.1-1-8-2.8a10.9 10.9 0 0 1-2.6-7.8c0-2.3.4-4.3 1.2-6 .8-1.8 2-3 3.5-4 1.6-1 3.6-1.4 6-1.4zm-123.3.3h3.8l6.7 13.9 6.7-13.9h3.8v21.4h-3.6v-15.5l-5.8 11.8h-2.2l-5.8-11.8v15.5h-3.6zm31.3 0h3.7v21.4h-3.7zm40 0h3.6v9.3h10.3v-9.3h3.6v21.4h-3.6v-9.3h-10.3v9.3h-3.6zm28 0h3.5v21.4h-3.6zm48.9 0h4l8.1 21.4h-3.7l-2.1-5.5h-8.6l-2.1 5.5h-3.8zm21.9 0h3.1l11.2 15.7V-588h3.5v21.4h-3.1l-11.1-15.7v15.7h-3.6zm-20 3.3-3.6 9.8h7.4zM25537-557zm0 0z" style="-inkscape-font-specification:Kanit;fill:url(#b);stroke-linecap:round;stroke-linejoin:round;paint-order:stroke fill markers" transform="translate(-25537 851)"/></svg>