<svg xmlns="http://www.w3.org/2000/svg" xmlns:xlink="http://www.w3.org/1999/xlink" xml:space="preserve" width="944.8" height="1159" viewBox="0 0 250 306.6"><defs><linearGradient id="a"><stop offset="0" style="stop-color:#ff3e04;stop-opacity:1"/><stop offset="1" style="stop-color:#732a9e;stop-opacity:1"/></linearGradient><linearGradient xlink:href="#a" id="b" x1="25564.3" x2="25744" y1="162.7" y2="-99.4" gradientTransform="translate(-10177 -2957.5)" gradientUnits="userSpaceOnUse"/></defs><path d="m15485-3087.5-6.1.1-1.6.1a127.5 127.5 0 0 0-10.3 1l-1.9.3-4.3.8-1.4.3-5.7 1.3-.6.1-4.9 1.4-1.7.6a124.2 124.2 0 0 0-9 3.3l-2 .8-3.6 1.6-1.5.7-4.8 2.5-1.8 1-3 1.7-2.2 1.3a127 127 0 0 0-9.3 6.5l-.6.4c-2.5 2-4.9 3.9-7.2 6a125.4 125.4 0 0 0-22 26l-.5.6-2.2 3.8-.4.7-2.2 4c-3.1 5.9-5.7 12-7.8 18.2l-.1.4-1.4 4.5v.2c-3.2 11-5 22.5-5 34.5v-.1 20.2-.1c0 14.1 2.5 27.7 6.8 40.4l-.3.2-1.7 1.4-.5.5a15.3 15.3 0 0 0-4 8.2l-.2.5v49c0 4.3 1.7 8.2 4.7 11 1.8 1.7 9.2 9.4 11.6 11.4 2.1 1.7 4.8 3 7.7 3.3v13.7c0 3.2 1.2 6.1 3.2 8.4 1.7 1.9 8.8 9.3 11 11 2.3 1.6 5 2.6 7.8 2.6h3.6a13 13 0 0 0 6.9-2.9 13 13 0 0 0 6.8 2.9h3.6c1.5-.4 2.9-1 4.2-1.7 1.2.8 2.7 1.3 4.1 1.7h3.6c1.4-.3 2.6-.9 3.8-1.6 3.8 1.5 7.4 2 11 2 3.3 0 6.8-.5 10.3-2a27.3 27.3 0 0 0 11.3 2c4 0 8.4-.7 12.8-3.5a24.5 24.5 0 0 0 12.7 3.4c4.4 0 9.4-1.1 13.6-3.9a23.8 23.8 0 0 0 13.3 4c3.7 0 7.8-.9 11.5-2.8a13 13 0 0 0 5.9 2.4h3.6c1.4-.3 2.7-.9 3.9-1.6a13 13 0 0 0 5.3 1.6h3.8a13 13 0 0 0 5-1.2l2.7 1.2h3.7a13 13 0 0 0 12.9-13v-13.7c3.2-2.1 5.5-5.4 6.4-9.2l1-4.4c5.4-1.4 9.7-5.8 11-11.3l2.3-10.9c1.2-5.6-.8-11.4-5.3-15l8.3-38.1c1-5.1-.6-10.2-4-13.7a126.2 126.2 0 0 0 4-24.6v-.5l.3-7.2v-19.7a127.7 127.7 0 0 0-1.4-18.8c-.4-2.9-1-5.7-1.6-8.4l-.4-1.6a124.8 124.8 0 0 0-2-8l-1.3-3.7a125 125 0 0 0-37-54.5l-.5-.5c-2.3-2-4.6-3.8-7-5.5l-.7-.5c-2.4-1.7-4.8-3.4-7.3-4.9l-.3-.2c-2.5-1.5-5-3-7.7-4.3l-1.3-.7c-2.6-1.3-5.3-2.6-8-3.7h-.2a124 124 0 0 0-8-3.1l-1.6-.5a124.2 124.2 0 0 0-12.9-3.5l-.7-.1-5.5-1-1.8-.3a125.6 125.6 0 0 0-10-1h-2c-1.9-.2-3.8-.2-5.7-.2h-.1zm0 7.1c1.8 0 3.8 0 5.6.2h1.4l4.2.4 1.8.2a117.6 117.6 0 0 1 9.3 1.4l1.8.3 3.8.9 1.6.4 4.8 1.3.4.1 5.1 1.8 1.5.5 3.5 1.4 1.8.8a116.5 116.5 0 0 1 12.6 6.3l1.7 1 3.2 2 1.3.9.2.1c2.4 1.7 4.8 3.4 7 5.2l1 .7a118.4 118.4 0 0 1 13.5 12.7l.6.7c2 2.2 3.9 4.5 5.7 6.8v.1l1.5 2 1.7 2.3 1.4 2a121.7 121.7 0 0 1 6.7 11.5l1.2 2.3 1.1 2.5 1 2.3 1.7 4 1 2.8 1 2.9.8 2.4a111.7 111.7 0 0 1 5.2 32.7c-3.8-2-7.8-2.7-11-4.4-2.8-1.5-5.5-3-7.6-5a11 11 0 0 1-1.7-2.3v-.8l-.4-1.8a96.6 96.6 0 0 0-4.2-16.4l-.6-1.8-1-2.5-.8-1.8-1.1-2.6-.8-1.6-1.5-3-.6-1-2.2-4-.7-1-1.8-2.8-1-1.4-1.6-2.4-1.1-1.4a104 104 0 0 0-1.7-2.2l-1.2-1.4a99.8 99.8 0 0 0-8.2-8.6l-1.3-1.2a99 99 0 0 0-2.2-1.8l-1.3-1.1-2.3-1.9-1.3-1-2.6-1.8-1.1-.8a98.8 98.8 0 0 0-7.9-4.8l-1-.5-3-1.5-1.5-.7-2.7-1.3-1.7-.6-2.6-1-1.8-.7a97.7 97.7 0 0 0-16.1-4.2l-2.3-.4-2.4-.3-2.3-.2-2.3-.2-2.5-.2h-1.9l-2.9-.1a98.5 98.5 0 0 0-98.5 98.5v1a98 98 0 0 0 19.7 58l3.8 1.4a37.5 37.5 0 0 0-6.5-2.2h-.2a25.4 25.4 0 0 0-3.3-.5l-3.7-.2h-14.1a117.3 117.3 0 0 1-10.3-90.4l.8-2.8.8-2.3c1.2-3.6 2.6-7.2 4.2-10.7l.5-1c1.2-2.6 2.5-5.2 3.9-7.7l.5-1c3-5 6.2-9.8 9.8-14.4l.8-1 5.4-6.3 1-1.1 6-5.8.2-.2c2-1.9 4.2-3.7 6.3-5.4l1.5-1.1a118 118 0 0 1 6.4-4.6l1.6-1c2.2-1.4 4.4-2.8 6.7-4l.9-.5 7-3.5 2-.8a116.8 116.8 0 0 1 11.4-4.3l.5-.2c3.6-1.1 7.3-2 11-2.8l.7-.2 4.8-.8 1.2-.2 4.4-.6h1.3l4.8-.5h.9l5.8-.2zm0 23.2h1.5l2.9.1 2.2.1 2.3.2c.8 0 1.5.2 2.2.3a92.4 92.4 0 0 1 11 2c.7 0 1.4.3 2.2.5l2 .5 2.2.7 1.6.5c3 1 6.1 2.3 9 3.6l1 .4 2.7 1.4 1.1.5a93.7 93.7 0 0 1 6.3 3.7l.8.4a95 95 0 0 1 2.8 1.9l.3.3a94.7 94.7 0 0 1 38.6 58.7c-3.3-2-7-2.5-9.8-3.9-2.8-1.3-5.5-2-7.3-3.6-.3-.2-.6-.7-1-1.3-.4-.7-.9-1.6-1.8-2.4-3.2-2.3-7-2.3-9.5-3.3-2.9-1.2-5.8-3-9-4.3-6-2.7-12.1-4.3-17.5-7.2-4.4-2.3-8.1-7-13.8-9.1-3.6-1.4-8.1-3.5-12.7-3.4-1.4.1-2.8.4-4 1l-1.3-4.5a51 51 0 0 0-6.2-13.4l-1-1.4-.8-.8a21 21 0 0 0-2.3-2c-.9 1.1-1.6 2.3-2.3 3.5l-1.6 3.8a33.2 33.2 0 0 0-1.5 7.8c-.4 5.1.4 10 1.6 13.6-9.2-4.3-12.3-11-21.6-23.5-1.7 19.4 9.5 32 9.5 32.1-8.9 7.4-13.8 9.5-20.2 20.8-2 3.6 0 5.8-2 9.3-2.1 3.7-5 8.3-7.8 13-2.7 4.5-5.3 9.1-7.3 13.6-.8 1.8-1.6 3.6-2.1 5.3-4 12-3.8 16.2-1 23.6 2.4 5.7 9.3 9.6 17 9.2 1.1-.1 2.3-1.9 3.3-2.1 5-1.2 10 .3 11.6-3.3 4.4-10.3 16.7-17.5 25.4-27 3-3.3 6.2-3.4 8.3-1.7 10.6 8.3 19.1 22.4 27 38.2h-8.4a15.2 15.2 0 0 0-10.2 4.3 15.2 15.2 0 0 0-10-4.4h-8a15.3 15.3 0 0 0-6 1.6c-1.8-.5-3.6-1.1-5.6-1.5-1.6-.3-3.2-.5-4.9-.6h-.1l-4.3-.2h-.8c-1.9 0-3.7 0-5.5.2a43.8 43.8 0 0 0-8 1.6 35 35 0 0 0-7.5 3.3l-.1.1a15.2 15.2 0 0 0-10.2-4.6h-8l-2 .2-1 .3a15.2 15.2 0 0 0-2.2.6l-.4.2-1.4.7a94.2 94.2 0 0 1-21-55l-.1-4.5c0-19.6 5.9-37.7 16-52.8l.1-.2a94.8 94.8 0 0 1 78.5-41.7zm10.5 40.8c3.3-.2 7.5 1.6 11.3 3 4.5 1.8 8.2 6.2 13.4 9 5.9 3.1 12.1 4.8 17.8 7.3 3 1.3 5.8 3 9 4.3 3.4 1.4 6.8 1.5 8.8 3l.9 1.3c.3.6.8 1.5 1.7 2.3 2.6 2.1 5.6 3 8 4 4 1.9 8 2.5 10.7 4.6.6.4 1 1 1.5 1.8.6 4.2 1 8.4 1 12.7-27.4-14.4-54.3-36.4-79.1-42.9-.3-.7-.7-1.5-1.2-2.1-1-1.2-2.3-2-3.9-2.6l-1.6-5.3c.6-.2 1-.4 1.7-.4zm-25.3 29.5s-.4 6.4-2.7 8.9c-1.6 1.8-5.2 2.6-7.5 3h-.1l-1 .5c-.4.2-.8.4-1 .2-.4-.3.8-1.6.8-2.3 0-1.8 0-4 .8-5.8l1-1.5h.1c2.6-2.6 9.5-3 9.6-3zm12.4 16.4s3.7 10.5 1.2 15c-3.2 5.6-16.4 7.1-16.6 7.2.1 0 10-4 13-8.7 2.4-4 2.4-13.5 2.4-13.5zm100.5.1c2.2 1.8 4.6 3.2 7 4.5 4.1 2.2 8.5 3 11.8 4.9l.8.4v2.9l-.3 3.6v.7c-.3 3.7-.8 7.3-1.4 10.9l-2.8 1.4c2.1-7 .9-14.3.9-14.3-.3-1.5-2.3-2-3.2-.6 0 0-1 1.6-2.4 3.4-.9 1.2-2 2-3 3 0-.4 0-.8-.2-1.3-.6-1.7-1.4-3.5-2.2-5.1-1.6-3.3-3.2-6-3.2-6-.4-.6-1-.9-1.5-.9l-.3-7.5zm17.6 29.5v.7h-.1l.1-.7zm-168 11.4s-2 1.4-2.8 2.8c-.7 1-1.6 3.6-1.6 3.6s-1-3-.4-4.3c1-1.6 4.9-2 4.9-2zm140.4 1a15.2 15.2 0 0 0-10.6 3.5l-19.9 16.4v.2l-14.3 11.7 14.2-11.7.1-.2 19.9-16.4a15.2 15.2 0 0 1 10.6-3.5zm-.9 15.2 11.8 2.5-11.2 51.4 8.2 1.8-2.3 10.9-8.2-1.8-3.8 17.4-13.4-2.9 3.8-17.4-33.7-7.3-4-10.9 9.7-8 23.4-19.3h-.1zm33.2 2.6a15.2 15.2 0 0 1 .2.1l-.2-.1zm-84 7.4h.2-.1zm1.7.9.2.2-.2-.2zm1.6 1.1.3.4-.3-.4zm1.4 1.4.4.5-.4-.5zm1.2 1.5.5.8-.5-.8zm42 .6-36.6 30.1 28.8 6.2zm-111.6 7.4a50.4 50.4 0 0 1 7.4.6c2.3.4 4.5 1 6.4 1.6v7a29.2 29.2 0 0 0-6.3-1.8c-2.2-.4-4.5-.6-7-.6-5.8 0-10 1.5-12.4 4.7a22 22 0 0 0-3.6 13.5c0 5.5 1.3 9.7 4 12.6 2.6 2.8 6.7 4.3 12.2 4.3a33 33 0 0 0 13.2-2.3v7a39 39 0 0 1-13.9 2c-7.7 0-13.6-2.1-17.6-6.4-4-4.2-6-10-6-17.2 0-5.2.9-9.6 2.5-13.3 1.7-3.8 4.3-6.7 7.8-8.7 3.5-2 7.9-3 13.3-3zm-61.5.6 2.6.2c2.5.2 4.6.9 6.3 1.9 2.4 1.4 4.1 3.3 5.2 5.6 1.2 2.4 1.7 5 1.7 8.1a15 15 0 0 1-4.4 11.3 16 16 0 0 1-11.7 4.2h-12.8v16h-8v-47.3zm22.2 0h8v47.2h-8zm69 .1v25.7l16.7-21.3 3.5-4.3h7.4l-10.9 13.7-4.5 5.8 17.8 27.6h-8.5l-13.9-21.9-7.7 9.7v12.2h-8v-47.2zm-104.2 6.2v18.7h11.2c3.2 0 5.6-.8 7.2-2.5a9.3 9.3 0 0 0 2.4-6.7c0-3-.7-5.4-2.3-7-1.5-1.7-3.8-2.5-6.9-2.5zm62.4 58.6a21.6 21.6 0 0 1 6 .8v3.2c-1.6-.6-3.5-1-5.5-1-1.6 0-2.8.3-3.7.7-.9.4-1.3 1.2-1.3 2.3 0 .6.1 1.1.4 1.5.3.4.9.8 1.6 1 .8.4 1.9.7 3.2 1 1.8.5 3.1 1 4 1.6a5 5 0 0 1 2 2.1c.5.8.7 1.7.7 2.8 0 1.8-.7 3.3-2.1 4.4-1.4 1-3.5 1.6-6.3 1.6s-5-.4-6.7-1v-3.2a20.5 20.5 0 0 0 6.3 1.1c1.7 0 3-.2 3.8-.5.9-.4 1.3-1.2 1.3-2.4 0-.8-.2-1.4-.5-1.8a4 4 0 0 0-1.8-1.1c-.8-.4-2-.7-3.3-1a11 11 0 0 1-4.9-2.3c-1-1-1.4-2.2-1.4-3.8 0-1.9.7-3.4 2-4.4 1.4-1 3.5-1.6 6.2-1.6zm21.6 0a21.7 21.7 0 0 1 6 .8v3.2c-1.6-.6-3.5-1-5.5-1-1.6 0-2.9.3-3.8.7-.8.4-1.3 1.2-1.3 2.3 0 .6.2 1.1.5 1.5.3.4.8.8 1.6 1 .7.4 1.8.7 3.2 1 1.7.5 3 1 4 1.6a5 5 0 0 1 2 2.1c.4.8.6 1.7.6 2.8 0 1.8-.7 3.3-2 4.4-1.5 1-3.6 1.6-6.4 1.6-2.8 0-5-.4-6.7-1v-3.2a20.5 20.5 0 0 0 6.4 1.1c1.7 0 3-.2 3.8-.5.8-.4 1.3-1.2 1.3-2.4 0-.8-.2-1.4-.6-1.8a4 4 0 0 0-1.7-1.1c-.8-.4-2-.7-3.4-1a11 11 0 0 1-4.8-2.3c-1-1-1.4-2.2-1.4-3.8 0-1.9.7-3.4 2-4.4 1.4-1 3.4-1.6 6.2-1.6zm24.4 0c3.4 0 6 .9 7.6 2.6 1.7 1.7 2.5 4.6 2.5 8.5 0 3.7-.8 6.5-2.5 8.2-1.6 1.8-4.2 2.7-7.6 2.7-3.3 0-5.9-.9-7.6-2.7-1.6-1.7-2.5-4.5-2.5-8.2 0-4 .9-6.8 2.5-8.5 1.7-1.7 4.3-2.6 7.6-2.6zm-94.7.3h3.7l6.8 13.8 6.7-13.8h3.7v21.4h-3.6v-15.5l-5.7 11.8h-2.2l-5.8-11.8v15.5h-3.6zm29.2 0h3.7v21.4h-3.7zm83.1 0h3.7v13.3c0 1.8.4 3.1 1.4 4 1 .9 2.4 1.3 4.2 1.3a6 6 0 0 0 4.2-1.3c1-.9 1.5-2.2 1.5-4v-13.3h3.5v13.4c0 2.7-.8 4.8-2.4 6.2a10 10 0 0 1-6.8 2.1c-3 0-5.2-.7-6.8-2.1-1.7-1.4-2.5-3.5-2.5-6.2zm26.7 0h9.8c2.4 0 4.1.6 5.2 1.9a7.1 7.1 0 0 1 1.7 5c0 1.4-.4 2.7-1.2 3.8-.7 1-1.8 1.8-3.2 2.2l1 1 .6 1.3 2.7 6.2h-3.7l-2.7-6c-.2-.6-.5-1-.9-1.2-.3-.3-.9-.4-1.7-.4h-4v7.6h-3.6zm24.4 0h3.6v21.4h-3.6zm-68.7 2.8c-2.2 0-3.8.6-4.9 1.8-1 1.1-1.5 3.2-1.5 6.2 0 2.8.5 4.8 1.5 6 1 1.2 2.7 1.8 5 1.8 2.2 0 3.8-.6 4.8-1.8 1.1-1.2 1.6-3.2 1.6-6 0-3-.5-5-1.6-6.2-1-1.2-2.6-1.8-4.9-1.8zm48 0v8h5.1c1.4 0 2.4-.2 3.1-.9.8-.6 1.2-1.6 1.2-3 0-2.7-1.3-4-4-4zm-55.4 36h-.1.1z" style="-inkscape-font-specification:Kanit;fill:url(#b);stroke-linecap:round;stroke-linejoin:round;paint-order:stroke fill markers" transform="translate(-15360 3087.5)"/></svg>