<svg xmlns="http://www.w3.org/2000/svg" xmlns:xlink="http://www.w3.org/1999/xlink" xml:space="preserve" width="944.9" height="1159" viewBox="0 0 250 306.6"><defs><linearGradient id="a"><stop offset="0" style="stop-color:#8e1c6c;stop-opacity:1"/><stop offset="1" style="stop-color:#fff422;stop-opacity:1"/></linearGradient><linearGradient xlink:href="#a" id="b" x1="25537" x2="25750.7" y1="-177.4" y2="-447.1" gradientUnits="userSpaceOnUse"/></defs><path d="M25662-484c-69.2 0-125 55.7-125 125v19.2c0 3.7.2 7.3.5 10.9v.5a124.7 124.7 0 0 0 .8 6.4 125.6 125.6 0 0 0 1.2 7l.5 2.4a123.5 123.5 0 0 0 1.5 6.4l.1.2 2.2 7.1a15.2 15.2 0 0 0-6.8 12.6v47.2c0 5 2.5 9.8 6.8 12.6-.9 1.7-1.3 3.5-1.4 5.4v21.4c0 3 1 5.8 3 8 1.6 2 9.2 9.8 11.5 11.5 2.1 1.5 4.7 2.4 7.5 2.5h3.6a13 13 0 0 0 6.9-2.9 13 13 0 0 0 6.8 2.9h3.6a13 13 0 0 0 4.2-1.8 13 13 0 0 0 4.2 1.8h3.6a13 13 0 0 0 3.7-1.6c3.8 1.5 7.4 1.9 11 1.9 3.3 0 6.8-.4 10.4-2 3.8 1.6 7.5 2 11.2 2 3.5 0 7.3-.5 11.1-2.4a13 13 0 0 0 5 2h3.6a13 13 0 0 0 3.8-1.5c3.7 1.5 7.3 1.9 11 1.9 3.2 0 6.8-.4 10.3-2 3.8 1.6 7.5 2 11.2 2 3.5 0 7.4-.5 11.2-2.4a13 13 0 0 0 5 2h3.5a13 13 0 0 0 4.2-1.7 13 13 0 0 0 4.2 1.8h3.6a13 13 0 0 0 10-6 13 13 0 0 0 10 6h3.7a13 13 0 0 0 10-6 13 13 0 0 0 10 6h3.7a13 13 0 0 0 12.9-13V-212a13 13 0 0 0-4.8-9.9c2.2-2 3.8-4.5 4.5-7.4l2.4-10.9c1.2-5.6-.9-11.4-5.3-15l8.2-38.1c1.1-5-.4-10.2-4-13.8l.2-.8 1.1-4.5.3-1.1.6-3.5.2-.8.2-1.6c1.1-6.7 1.8-13.4 1.8-20.4V-359a130.7 130.7 0 0 0-.6-11.2c-5.6-64-59-113.9-124.4-113.9zm0 7.1c58.7 0 107.3 43 116.3 99.1-.6-.4-1.2-.8-2.2-1.1a167.9 167.9 0 0 0-18.7-4.3 98.5 98.5 0 0 0-167.9-42.5 132 132 0 0 0-29.8 8.2A117.7 117.7 0 0 1 25662-477zm0 23.2a94.7 94.7 0 0 1 91.3 69.8c-6.5-1-13-1.6-19.6-1.7l-3.3-.1-1.4-1c-3.9-2.8-10-6.8-17.6-11.6l-3.8-2.3a1.2 1.2 0 0 0-1.3 0l-2.2 1.7a304.2 304.2 0 0 0-17 14l-1.4.1a180.5 180.5 0 0 0-20.3 3c5-5.6 9.2-12.7 12.5-21.4.9-2.4.9-2.4.4-2.8l-.3-.3h-.1c-2.7 7.7-6 14.2-10 19.5a50 50 0 0 1-4.6 5.4c-8.5 1.8-17 4.3-25.3 7.5-3.4 1.2-3.7 1.5-5.9 4.2-2.4 3-4.4 6.2-6 9.4a76.5 76.5 0 0 1-20.6-2.2c-10.5-2.8-18-8-18-12.7 0-.7.3-1.6.6-2.2.2-.2.1-.2 0 0a6.2 6.2 0 0 0-1 5.2 7 7 0 0 0 .5 1.5c.1.1 0 .2 0 .2a64 64 0 0 1-29.7-29.4l-.5.5-.4.5.3.5.3.6-1.5.8a140 140 0 0 0-5 2.6v-.1c0-2.4.4-5 1.1-7.4l3-6.9a39 39 0 0 1 3.6-5.4c1.6-2 1.1-1.6 3.7-2.6a129 129 0 0 1 33.6-8l-.6.6-.6.5c-.3.3-1.2 1-2 1.9a30 30 0 0 0-6.5 8c-.8 1.6-1 2.5-1.2 3.8l-.1.5h.4c1.3-.2 1.8-.2 1.8 0l-.1 1c-.3 2 0 5 .7 7.2a23.2 23.2 0 0 0 3.8 6.9 35.4 35.4 0 0 0 11.7 9 44.4 44.4 0 0 1 7 4.2c.4.1.6.3 1 .9.1.4.2.5.7 1l1.5 1c.7.4.7.4.5-.2-.2-.5-.2-.6 0-1 .2-.2.2-.3.1-.5l-.1-.9c0-.5 0-.6.3-.8l.4-1 .1-.7s-.9.3-.9.5l-.2.4-.1.6c0 .2 0 .3-.3.4l-.4.1v-.5l.2-.7c0-.2 0-.3.2-.4l.8-.6.5-.4v-.3c0-.2 0-.3.5-.3l.8-.1c.2-.1.2-.1 0 0l-.3.3-.4.2c-.3.2-.3.2-.2.5 0 .1.1.1.4 0 .4-.1.6-.3.6-.5l.4-.5c.3-.3.4-.4 1.2-.7l1-.4.2-.6c0-.5 0-.5-.2-.4a1 1 0 0 0-.3.2v-.3c0-.5 0-.6.2-.4.2.1.6 0 .7-.4.2-.3 0-.3-.3 0l-.4-.1c-.4-.3-.6-.3-.9 0-.1 0-.2.2-.2.5 0 .5 0 .8-.2.8-.1 0-.3-.5-.2-.6l.2-.4c0-.3 0-.3-.2-.3l-.3.1c-.2.3-.5.4-.8.3-.6-.2-1.2 0-1.5.5-.2.4-.2.4-.5.4h-.5l-.5.2c-.5.2-.6.3-.6.7 0 .2 0 .3-.2.3-.1 0-.3.1-.3.3 0 .2-.5.5-.9.6v.5c.2.4.1.5 0 .8-.1.3-.7 1-.8 1l-2-1.4c-1.5-1-2.4-1.5-3.6-2.1a45.4 45.4 0 0 1-6.3-3.3 28.6 28.6 0 0 1-9-9.6c-2-4-2.4-8.2-1-12.5a42.5 42.5 0 0 1 8.8-12.6l1.5-1.4h.6a2 2 0 0 0 1-.3l1-1c3-2.6 6.7-5.6 12-9.8l1.2-.9 2.4 1.5a262 262 0 0 1 13.3 8.8l1.2.9.5.1 2.8.1a126.1 126.1 0 0 1 31.8 5c.6.2.7.3 1.1.6 2.1 1.6 5.1 4.4 6.8 6.4a29.5 29.5 0 0 1 7.7 16.5c.2 1.6 0 3.7-.3 4.7l-.1.5.2.7 1 1.2c1.6 1.5 3 3.3 4.3 5.2l1.2-1 .1-.2a43.2 43.2 0 0 0-5-6c.4-1.5.5-3.5.4-5.3a31.1 31.1 0 0 0-8.1-17.4c-1.9-2.2-4.8-5-7-6.7l-1.7-1-3.8-1a128 128 0 0 0-28.5-4h-2.5l-1-.8c-3-2.2-7.7-5.2-13.5-8.8l-2.9-1.8a.9.9 0 0 0-1 0l-1.6 1.3a232.2 232.2 0 0 0-13 10.7h-1l-1.8.2-.9.1a94.4 94.4 0 0 1 66.5-27.2zm-15.9 49zm0 0v.2l.1.1v-.2zm0 .7v.2c0 .1 0 .2 0 0v-.2zm-.3 1.1V-402.6c.1 0 .1-.1 0-.2zm0 .5zm0 0v.2-.2zm-.3.7zm0 0v.2c.1 0 .1 0 0-.2zm-.2 1-.1.1-.1.3h.1l.1-.4zm-.2.6h-.1l-.1.3.2-.3zm-.2.5-.5.8c-2.2 4.1-6.1 8-10.7 10.7a28.6 28.6 0 0 0-6.6 5.4c.3 0 1.2-.6 2.7-1.8a47 47 0 0 1 3.6-2.6 34.3 34.3 0 0 0 9.8-9.4l1.7-3.1zm62.2 1.4 3 2c7.7 4.7 13.7 8.6 17.6 11.4l1.6 1.2a1.2 1.2 0 0 0 .7.2l3.6.1a165.8 165.8 0 0 1 41.8 6.6c.8.2 1 .4 1.5.8l1.9 1.6a119 119 0 0 1-2.4 43.3c-2.8 3.5-6 7-9.5 9.8l-2.7-1-2.3-.5-3.2-.7-6.3-1.3a15.2 15.2 0 0 0-12.9 3.2l-19.8 16.4-.1.2-8.7 7.2c-4.3-.4-8-1-11.7-1.8a15.2 15.2 0 0 0-7.2-1.9c-12-3.8-20.2-10-20.2-15.6 0-1 .3-2.2.7-2.9.2-.3.2-.3-.1 0a8.1 8.1 0 0 0-1.3 6.7l.7 2c.2.2.1.4 0 .4a84 84 0 0 1-39-38.6c-.1 0-.4.2-.7.6l-.5.6.4.7.5.8-2 1-6.6 3.4v-.1c0-8.6 3.5-17.7 10-25.8 2.2-2.8 1.5-2.3 4.9-3.5 14.6-5.6 29.2-9 44.2-10.5l-.7.7-.9.7-2.6 2.5c-4.2 4-7 7.4-8.5 10.5a15 15 0 0 0-1.7 5v.7h.5c1.7-.3 2.4-.3 2.4-.1l-.2 1.4c-.4 2.7 0 6.6 1 9.5a30.4 30.4 0 0 0 4.9 9 46.5 46.5 0 0 0 15.4 11.8 57.8 57.8 0 0 1 9.1 5.5c.6.2 1 .5 1.3 1.2l1 1.4c.5.4 1.2 1 2 1.4 1 .4 1 .4.6-.4-.3-.6-.2-.8 0-1.2.3-.3.3-.5.2-.8l-.2-1.1c0-.7 0-.8.4-1.1.4-.3.5-.6.6-1.3.1-.5.2-.9.1-1 0 0-1.2.5-1.2.7 0 0 0 .3-.2.5a2 2 0 0 0-.2.8c0 .3 0 .4-.4.6-.2.1-.4.2-.5.1l.1-.6.2-1c0-.3 0-.4.3-.5l1-.7.7-.6c.1 0 .1-.1 0-.4 0-.3 0-.4.7-.4l1-.2c.3 0 .3 0 0 .1l-.4.4-.5.3c-.4.2-.4.2-.3.6h.5c.5-.2.8-.4.8-.6l.1-.2.5-.5c.3-.5.5-.6 1.5-1 .7-.1 1.3-.4 1.3-.5l.2-.8c.1-.6.1-.6-.1-.5-.2 0-.4.2-.5.3-.1.2-.1.1 0-.4 0-.7.1-.8.3-.6.2.2.7 0 1-.5.1-.3-.1-.4-.5 0-.2.1-.2.1-.5-.1-.5-.4-.8-.4-1.2 0-.2 0-.2.3-.2.6 0 .7-.1 1.1-.3 1.1-.2 0-.4-.7-.3-.8l.2-.5c.1-.4.1-.4-.1-.4s-.4 0-.5.2c-.3.4-.6.4-1 .3-.9-.3-1.6 0-2 .7-.2.5-.3.6-.7.5h-.6l-.7.3c-.6.2-.7.4-.7.9 0 .2-.1.3-.3.4-.2 0-.4.1-.4.4 0 .2-.6.7-1.1.8v1.6c-.3.5-1 1.4-1.2 1.4l-2.6-1.8c-2-1.4-3.1-2-4.7-2.8a59.5 59.5 0 0 1-8.3-4.4 37.6 37.6 0 0 1-12-12.5c-2.6-5.3-3-10.8-1-16.5.6-1.8 2.2-5 3.5-7 2.1-3.2 4-5.4 8-9.5l1.9-1.9h.7c.4 0 1-.2 1.4-.4l1.4-1.2c3.9-3.5 8.7-7.5 15.7-13zm-157.7 4a22.4 22.4 0 0 0 3 10.5c0 .2-.2.3-.5.8-3.2 5-5.4 10.4-6.7 16.8-.5 3-.9 6-1 9.4v-2.4c0-12.1 1.8-23.8 5.2-34.9v-.2zm71.5 6.4-.5.1c-.3.1-.3.2-.1.2l.2.2c0 .3.6.2.8 0 .2-.2.1-.2 0-.2-.2 0-.3 0-.3-.2l-.1-.1zm-68.4.2.2.2a100.2 100.2 0 0 0 5.8 4.6l4 3a48 48 0 0 0 5.7 3.6c.9.4.7.5-.8.2a22.3 22.3 0 0 1-13.2-7.2v-.7c0-.3-.2-.4-.2-.5-.3-.4-1-1.7-1.5-3.2zm67.2.2c-.2 0-.5.3-.5.6s.4.1.6-.3v-.3zm3.6.4h-.1l-.5.1c-.2 0-.2 0 0 .1h.5l.1-.2zm-2 0s-.2 0-.3.2l-.4.2v.1l.6-.4zm-5.6 0 .2.3v.2l-.4-.3.2-.1zm7.3.4-.5.2c0 .2.1.1.4 0 .2-.1.2-.2.1-.2zm-7 .2.7.4c0 .1-.3 0-.5-.2l-.1-.2zm3.3 0s-.2.1-.2.3h.1l.1-.2zm-5 .6c.3 0 .6 0 .5.2h-.5c-.2-.2-.2-.2 0-.2zm7.2 0zm0 0-.2.1v.2l.2-.2v-.1zm-6.1.2.8.2h-.7c-.4 0-.4-.3-.1-.2zm9.3 0v.1c-.1 0 0 0 0 0h.2-.2zm-5.7.2v.1l.3 1 .5 1c.2.2.2.3.1.5-.2.3-.1 1 0 1.5.2.4.1.6-.3.7-.3 0-.3 0-.3.7l.1.8.7-.1c.2-.2.2-.2.2-1-.1-.6 0-.7.1-1 .3-.4.3-1 0-1.4l-.2-.8-.1-.6c-.1-.3 0-.3.4.2.3.3.4.6.4.7 0 .3.3 1 .7 1.5l.3.4-.2.1c-.3.2-.3.8 0 1.1.1.3.1.3.4 0 .2-.2.2-.5 0-1.2-.2-.3-.3-.6-.3-1 .1-.4-.2-1.1-.5-1.2-.1 0-.4-.4-.5-.8-.3-.4-.3-.6-.2-.5l.2.2.1.1c.2 0 .1-.3-.1-.6-.3-.3-1.1-.5-1-.2.1 0 0 0 0 0h-.4l-.3-.2h-.1zm-.2 0v1.3c.1 1.4.1 1.5-.2 1.4-.1 0-.2 0-.2.7l-.2 1c0 .3 0 .3.5 0 .3-.1.3-.2.3-.9l.2-1c.2-.3.2-1-.2-2 0-.3-.2-.5-.2-.5zm4.7.2h.2c.1 0 .2 0 0 0h-.2zm-1.6.2h-.3c-.1.1-.1.2 0 .2.2 0 .4-.2.3-.2zm-3.3 0-.2.4-.4 1.1c0 .6-.1.8-.4.7-.2 0 0-1 .2-1.5l.3-.6-.3.4a3 3 0 0 0-.6.8 2 2 0 0 1-.3.5l.2.1.1.3c0 .3-.4 1.2-.6 1.5-.2.1-.1.1.1.2.4 0 .5.4.4 1-.1 1-.1 1 .2 1.1.4 0 .6.4.7 1.2l.2.8h.4l.5.4c0 .1.2.2.5.1.5 0 .5-.1.1-.5-.2-.2-.4-.5-.4-.9-.1-.5-.2-.6-.5-.7-.6-.2-.7-.5-.7-1.3 0-.7 0-.8-.3-.8-.7-.3-.5-1.6.2-2.1.4-.3.4-.3.5-1v-1c.1-.2.1-.2 0-.2zm4.6 0v.2h.2v-.2h-.2zm-5.9.2c-.2 0-1.1 1-1 1.2 0 .2-.2.6-.8 1.1-.4.5-.5.6-.4.7.4.3.2 1.2-.4 1.8-.1.2-.2.2 0 .3.4.1.7 1 .5 1.6l-.1.4.5.2.7.3c.5.2.6.1.3-.2-.1-.4-.2-.5-.1-1 0-.4 0-.5-.2-.6-.5-.5-.6-1.3-.3-1.8.2-.2.2-.3 0-.5v-.7c0-.4 0-.5.3-.8l.4-.7c0-.5.2-.8.5-1l.1-.3zm-3 .1h.2v.2c-.4.2-1.2.2-1.2.1s.6-.3 1-.3zm7.3.5h-.4l.5.1h.3l-.4-.1zm2.3.3h-.1l.1.1h.2l-.2-.1zm-1.8 0v.6c.2.2.4.2.4 0v-.2s0-.2-.2-.3h-.2zm1.3.1-.3.1c0 .2.2.2.4 0 .2 0 .1 0 0 0zm-.6 1.2v.1l.4.1c.6 0 .5 0 0-.1h-.4zm-69 0a16 16 0 0 0 2.4 2.6 22.4 22.4 0 0 0 4.1 2.7c1.5 1 4.5 2 7.8 2.6.9.2 1.3.3 1.7.6a93.2 93.2 0 0 0 10.4 4.7l2 .6 1.5.5c.4 0 .7.2.8.4l1.2 1.9a11.7 11.7 0 0 0 1.5 2l.5.5.7.8a24 24 0 0 0 4.4 3.5l1.1.6c2 1.1 3.6 1.9 6.4 2.8l2 .7.4 1.1a21.6 21.6 0 0 0 3.9 6.9 34 34 0 0 0 11.6 9l.5.3.4.2 3.2 1.4-.2-1c-2.6-1.1-5-2.4-7.1-3.9a31.7 31.7 0 0 1-8.8-8.7 25 25 0 0 1-2.5-5.5c0-.2 0-.2.7.1l3.3.8a108.8 108.8 0 0 0 16.7-4h.8v-.2a39.3 39.3 0 0 0-3.7 16.2c0 3 .4 5.3 1.4 8.3l.1.2-1.2.7-1.3.5-2.6 1.1c-2 .9-4.2 1.6-6.4 2.3a86.7 86.7 0 0 1-5.5 1.5 144.8 144.8 0 0 1-34.8 3.5h-5.3a260.6 260.6 0 0 1-15.4-.7h-.5l-.1-.1-.4-1.7a93 93 0 0 1-2.5-39 44 44 0 0 1 6.4-16l.4-.7zm58.9 1.6c.2 0 .3.2.2.5v1c0 .1-.1.2-.3.2-.2 0-.2 0-.1-.3l-.1-.7c-.2-.4-.2-.4 0-.6h.3zm8.8 2.3h-.5c-.2.2-.1.3 0 .8.2.3.6.4 1 .2v-.6c-.1-.3-.2-.4-.5-.4zm127.3 23V-355.4v-.3zm-.1.9V-354.5v-.3zm-.3 1.4V-353v-.2zm-.2.6V-352.5v-.3zm-.3 1v.3-.3zm-.3 1.3h-.1l-.1.4c0 .1 0 0 0 0 .2-.1.2-.3.2-.4zm-.3.7-.2.4c0 .1 0 0 .1 0l.1-.4zm-.2.7-.7 1.1c-2.8 5.4-8 10.6-14 14a37.6 37.6 0 0 0-8.7 7.1c.4 0 1.5-.8 3.5-2.4 1-.9 3.8-2.8 4.8-3.4a45.2 45.2 0 0 0 12.8-12.3 27 27 0 0 0 2.3-4.1zm-31.6 15.5-.6.2c-.4.1-.4.1-.1.2l.2.3c0 .3.8.3 1 0 .3-.3.3-.3 0-.3-.2 0-.3 0-.3-.2 0-.1 0-.2-.2-.2zm-89.8.3.3.2a126.3 126.3 0 0 0 7.6 6.1l5.3 4a63 63 0 0 0 7.4 4.6c1.1.6.9.7-1 .3a29.2 29.2 0 0 1-17.4-9.5v-.8c0-.4-.2-.6-.3-.7-.4-.6-1.2-2.3-1.9-4.2zm88.3.3c-.3-.1-.7.3-.7.7 0 .4.5.2.8-.3.1-.3.1-.4-.1-.4zm4.7.5h-.1l-.6.1c-.4 0-.4 0-.1.1.3.2.3.2.7 0l.1-.2zm-2.7 0-.3.2-.5.3s-.1 0 0 .2c0 .1.8-.4.8-.7zm-7.3.1.3.2v.3c-.1 0-.6-.2-.6-.4h.3zm-85 .2c.6 1.6 1.2 3.1 1.8 4l-.6 1.1a60.3 60.3 0 0 0-9.8 29.4l-1.3.7-.2.1a15.2 15.2 0 0 0-10.2-4.6h-8c-2.4 0-4.8.8-7 2a94.4 94.4 0 0 1-13.8-23l1-.1c13-.2 25.4-1.8 35.3-4.7 4.6-1.3 9-3 12.8-5zm94.6.2c-.3 0-.6.2-.6.3 0 .2.1.1.5 0 .3-.2.3-.3.1-.3zm-9.1.3.8.4c0 .2-.4.1-.7-.1l-.1-.3zm4.3 0c-.1 0-.4.1-.4.3h.2l.2-.3zm-6.6.7c.4 0 .7.1.6.3 0 .1-.3.1-.6-.1s-.3-.2 0-.2zm9.4 0s-.2 0-.2.2v.2l.2-.2v-.2zm-8 .3 1.1.3c0 .1-.5.2-1 0-.4 0-.5-.4 0-.3zm12.2.1.1.1h.2-.3zm-7.5.2v.1a56.8 56.8 0 0 1 1.2 3.3c-.2.3-.2 1.3 0 2 .3.5.2.8-.4.9-.3 0-.3 0-.3.9l.1 1c.1.2.5.1.9-.1.3-.2.3-.3.2-1.2 0-.9 0-1 .2-1.4.3-.5.4-1.3 0-1.9l-.3-1-.1-.8c-.1-.4 0-.3.5.3.4.4.6.7.6 1 0 .3.4 1.2 1 1.9l.3.5-.3.2c-.4.2-.4 1 0 1.4.2.3.2.3.5 0 .4-.3.3-.7 0-1.6-.3-.5-.3-.9-.3-1.2 0-.7-.3-1.6-.7-1.8-.2 0-.5-.4-.7-.9-.4-.6-.4-.8-.2-.7l.3.3c.3 0 .2-.3 0-.7-.4-.3-1.6-.7-1.4-.3.1.1.1.1-.1 0h-.5l-.4-.2h-.1zm-.2 0v1.6c.2 1.9.1 2-.2 2-.2-.1-.3 0-.4.9l-.1 1.3c-.1.4 0 .4.6 0 .4-.2.4-.3.4-1.2 0-.7 0-1.1.2-1.4.3-.4.2-1.4-.2-2.5l-.3-.7zm6.2.2.2.1h.1-.3zm-2.1.2-.4.1c-.2.2-.2.2 0 .2s.5-.2.4-.3zm-4.4 0-.3.6c-.2.4-.4 1-.4 1.5-.1.7-.3 1-.5.9-.3-.1-.2-1.3.2-2l.4-.7-.5.4a4 4 0 0 0-.7 1c-.1.4-.3.7-.4.7-.1.1-.1.2.2.2l.2.4c0 .4-.6 1.6-.8 1.9-.2.2-.2.2.2.3.5.1.6.5.5 1.4-.2 1.2-.2 1.4.2 1.4.6 0 .8.5 1 1.6l.2 1h.5c.3.2.6.3.7.5 0 .2.2.2.6.2.6-.1.7-.2.2-.7-.3-.3-.5-.7-.6-1.2-.1-.6-.2-.7-.6-.9-.8-.3-1-.7-1-1.7 0-.9 0-1-.3-1.1-.9-.4-.7-2 .3-2.7.4-.4.5-.4.6-1.3a38 38 0 0 1 .1-1.6zm6.4.1h-.3v.3h.2v-.3zm-8 .2c-.3 0-1.6 1.4-1.5 1.6 0 .3-.2.9-.9 1.5-.6.7-.7.8-.5 1 .4.3.1 1.5-.6 2.2-.2.3-.2.4 0 .4.5.2.9 1.3.7 2.2l-.2.5.7.3 1 .4c.6.2.7.1.3-.4-.2-.4-.2-.6-.2-1.1 0-.6 0-.7-.2-1-.6-.5-.8-1.6-.4-2.3.3-.3.3-.4 0-.6a2 2 0 0 1-.1-1c0-.5 0-.7.5-1 .3-.3.5-.6.5-1 .1-.5.3-1 .7-1.4l.1-.3zm-4.1.2h.3v.3c-.5.2-1.6.2-1.6.1l1.3-.4zm69 .6c-1 4-2.3 7.8-3.7 11.5-1-1.2-2.2-2.2-3.6-3a68 68 0 0 0 6.8-6.9l.5-1.6zm-227.7 0 1.6 5.5.6.2 2.8.2c5.8.3 8 .4 12.8.4h4.6c3.3 8.2 7.5 15.7 12.7 22.6a29 29 0 0 0-6.3-1.3l-3.7-.2h-14c-4.8-8.5-8.6-17.7-11.2-27.4zm168.3 0-.4.1.6.1c.3 0 .5 0 .4-.1h-.6zm3.1.4h-.2c0 .2 0 .2.2.2h.2l-.2-.2zm-2.4.2c-.2 0-.2.3 0 .6.3.2.6.3.6 0v-.2l-.3-.4h-.3zm1.8 0-.4.1c0 .2.3.2.5 0h-.1zm-91.6 1.6c1 1.3 2 2.3 3.2 3.4a29.5 29.5 0 0 0 5.4 3.5c2 1.3 5.9 2.6 10.3 3.5 1.1.2 1.7.4 2.2.7a122 122 0 0 0 13.7 6.1 2200.7 2200.7 0 0 1 5.6 2l1.6 2.5a15.3 15.3 0 0 0 2 2.6l.6.8.9 1a29 29 0 0 0 3 2.6l-1.4 1a15.2 15.2 0 0 0-10-4.4h-8l-3.4.6c-.8.2-1.7.6-2.5 1a49.3 49.3 0 0 0-10.5-2.1h-.2a72 72 0 0 0-4.4-.3h-.7a43 43 0 0 0-17.2 3.3c.3-2 .5-3.9 1-5.7 1.5-8.2 4.2-15 8.3-21.2l.5-.9zm91.2 0h-.5l.6.2c.7 0 .7 0 0-.2zm-13.8 2c.3 0 .4.3.3.7-.1.2 0 .5 0 .8v.6l-.3.2c-.3 0-.3 0-.2-.5 0-.3 0-.6-.2-.9-.2-.4-.2-.4.1-.7l.3-.1zm11.6 3-.6.1c-.2.2-.2.3 0 1 .2.5.7.6 1.2.2.2-.1.2-.2 0-.7-.1-.4-.2-.5-.6-.6zm-177.6 2.3zm210.5 9.6 11.8 2.5-11.1 51.4 8.2 1.7-2.4 11-8.2-1.8-3.7 17.4-13.4-2.9 3.8-17.4-33.8-7.3-4-10.9 9.8-8 23.3-19.3h-.1zm-64.6 8.4zm-4 .8-.9.3.9-.3zm-2.7 1.1-.3.2.3-.2zm-91 .9zm114.1.3zm1.6 1.4h.1zm1.4 1.5.2.3-.2-.3zm42.4 1-36.7 30.2 28.8 6.2zm-111.7 7.4a50.5 50.5 0 0 1 7.5.7c2.3.4 4.4 1 6.3 1.6v7a29.2 29.2 0 0 0-6.3-1.8c-2.1-.4-4.5-.6-7-.6-5.8 0-10 1.5-12.4 4.6a22 22 0 0 0-3.6 13.6c0 5.5 1.4 9.7 4 12.6 2.6 2.8 6.7 4.3 12.2 4.3a33 33 0 0 0 13.2-2.3v7a39 39 0 0 1-13.8 2c-7.8 0-13.7-2.1-17.7-6.4-4-4.2-6-10-6-17.2 0-5.2 1-9.6 2.6-13.3 1.7-3.8 4.3-6.7 7.7-8.7 3.5-2 8-3 13.3-3zm-61.5.7 2.6.2c2.5.2 4.6.9 6.4 1.9 2.3 1.4 4 3.2 5.2 5.6 1 2.4 1.7 5 1.7 8a15 15 0 0 1-4.4 11.4 16 16 0 0 1-11.8 4.2h-12.7v16h-8v-47.3zm22.2 0h8v47.2h-8zm61 .1h8v25.6l16.8-21.2 3.4-4.3h7.4l-10.8 13.7-4.6 5.7 17.8 27.7h-8.5l-13.8-21.9-7.7 9.7v12.2h-8zm-96.2 6.2v18.7h11.3c3.2 0 5.5-.8 7.2-2.5a9.3 9.3 0 0 0 2.4-6.7c0-3-.8-5.4-2.4-7-1.5-1.7-3.8-2.5-6.8-2.5zm43.8 58.6a21.6 21.6 0 0 1 6 .8v3.2c-1.6-.6-3.5-1-5.5-1-1.6 0-2.8.3-3.7.7-.9.4-1.3 1.2-1.3 2.3 0 .6.1 1.1.4 1.5.3.4.9.8 1.6 1 .8.3 1.9.7 3.2 1 1.7.5 3 1 4 1.6a5 5 0 0 1 2 2.1c.5.8.7 1.7.7 2.7 0 2-.7 3.4-2.1 4.5-1.4 1-3.5 1.6-6.4 1.6-2.7 0-5-.4-6.6-1v-3.3a20.5 20.5 0 0 0 6.3 1.2c1.7 0 3-.2 3.8-.6.9-.4 1.3-1.2 1.3-2.4 0-.7-.2-1.3-.5-1.7a4 4 0 0 0-1.8-1.1c-.8-.4-2-.7-3.4-1a11 11 0 0 1-4.8-2.3c-1-1-1.4-2.2-1.4-3.8 0-2 .7-3.4 2-4.4 1.4-1.1 3.5-1.6 6.2-1.6zm21.6 0a21.6 21.6 0 0 1 6 .8v3.2c-1.7-.6-3.5-1-5.5-1-1.6 0-2.9.3-3.8.7-.8.4-1.3 1.2-1.3 2.3 0 .6.2 1.1.5 1.5.3.4.8.8 1.6 1 .7.3 1.8.7 3.2 1 1.7.5 3 1 4 1.6a5 5 0 0 1 2 2.1c.4.8.6 1.7.6 2.7 0 2-.7 3.4-2 4.5-1.5 1-3.6 1.6-6.4 1.6-2.8 0-5-.4-6.7-1v-3.3a20.5 20.5 0 0 0 6.4 1.2c1.7 0 3-.2 3.8-.6.8-.4 1.3-1.2 1.3-2.4 0-.7-.2-1.3-.6-1.7a4 4 0 0 0-1.7-1.1c-.8-.4-2-.7-3.4-1a11 11 0 0 1-4.8-2.3c-1-1-1.4-2.2-1.4-3.8 0-2 .6-3.4 2-4.4 1.4-1.1 3.4-1.6 6.2-1.6zm34.4 0a21.6 21.6 0 0 1 6.1.8v3.2c-1.7-.6-3.5-1-5.6-1-1.6 0-2.8.3-3.7.7-.9.4-1.3 1.2-1.3 2.3 0 .6.1 1.1.5 1.5.3.4.8.8 1.6 1 .7.3 1.8.7 3.1 1 1.8.5 3.1 1 4 1.6a5 5 0 0 1 2.1 2.1c.4.8.6 1.7.6 2.7 0 2-.7 3.4-2 4.5-1.5 1-3.6 1.6-6.4 1.6-2.8 0-5-.4-6.7-1v-3.3a20.5 20.5 0 0 0 6.3 1.2c1.7 0 3-.2 3.9-.6.8-.4 1.3-1.2 1.3-2.4 0-.7-.2-1.3-.6-1.7a4 4 0 0 0-1.7-1.1c-.9-.4-2-.7-3.4-1a11 11 0 0 1-4.9-2.3c-.9-1-1.4-2.2-1.4-3.8 0-2 .7-3.4 2.1-4.4 1.4-1.1 3.4-1.6 6.1-1.6zm21.6 0a21.6 21.6 0 0 1 6 .8v3.2c-1.6-.6-3.5-1-5.5-1-1.6 0-2.8.3-3.7.7-1 .4-1.4 1.2-1.4 2.3 0 .6.2 1.1.5 1.5.3.4.9.8 1.6 1 .8.3 1.8.7 3.2 1 1.7.5 3 1 4 1.6a5 5 0 0 1 2 2.1c.5.8.6 1.7.6 2.7 0 2-.6 3.4-2 4.5-1.4 1-3.5 1.6-6.4 1.6-2.7 0-5-.4-6.6-1v-3.3a20.4 20.4 0 0 0 6.3 1.2c1.7 0 3-.2 3.8-.6.9-.4 1.3-1.2 1.3-2.4 0-.7-.2-1.3-.5-1.7a4 4 0 0 0-1.8-1.1c-.8-.4-2-.7-3.4-1a11 11 0 0 1-4.8-2.3c-1-1-1.4-2.2-1.4-3.8 0-2 .7-3.4 2-4.4 1.4-1.1 3.5-1.6 6.2-1.6zm-126.3.3h3.7l6.8 13.8 6.7-13.8h3.7v21.4h-3.6v-15.5l-5.7 11.8h-2.2l-5.8-11.8v15.5h-3.6zm29.2 0h3.7v21.4h-3.7zm56 0h3.7v21.4h-3.6zm56.1 0h3.6v21.4h-3.6zm12 0h9.5a8 8 0 0 1 4 1c1 .5 1.9 1.4 2.4 2.5.5 1 .7 2.3.7 3.6 0 2.1-.6 3.9-2 5.1-1.3 1.3-3 2-5.3 2h-5.7v7.2h-3.7zm23.7 0h9.5a8 8 0 0 1 4 1c1 .5 1.9 1.4 2.4 2.5.5 1 .7 2.3.7 3.6 0 2.1-.6 3.9-2 5.1-1.3 1.3-3 2-5.3 2h-5.7v7.2h-3.6zm23.7 0h3.6v21.4h-3.6zm-43.8 2.8v8.5h5c1.5 0 2.6-.4 3.3-1.1.7-.8 1.1-1.8 1.1-3 0-1.4-.3-2.5-1-3.3-.7-.7-1.8-1-3.2-1zm23.7 0v8.5h5c1.5 0 2.6-.4 3.3-1.1.7-.8 1.1-1.8 1.1-3 0-1.4-.3-2.5-1-3.3-.7-.7-1.8-1-3.2-1z" style="fill:url(#b);fill-opacity:1;stroke-width:.296424;stroke-linecap:round;stroke-linejoin:round" transform="translate(-25537 484)"/></svg>