<?xml version="1.0" encoding="UTF-8" standalone="no"?>
<!-- Created with Inkscape (http://www.inkscape.org/) -->

<svg
   width="944.88965"
   height="1157.7191"
   viewBox="0 0 250.00204 306.31319"
   version="1.1"
   id="svg1"
   inkscape:version="1.4 (86a8ad7, 2024-10-11)"
   sodipodi:docname="logos-3.svg"
   xml:space="preserve"
   inkscape:export-filename="W:\pick-4.com\wwwroot\images\arrow.svg"
   inkscape:export-xdpi="96"
   inkscape:export-ydpi="96"
   inkscape:export-batch-path="Icons"
   inkscape:export-batch-name="icon"
   xmlns:inkscape="http://www.inkscape.org/namespaces/inkscape"
   xmlns:sodipodi="http://sodipodi.sourceforge.net/DTD/sodipodi-0.dtd"
   xmlns:xlink="http://www.w3.org/1999/xlink"
   xmlns="http://www.w3.org/2000/svg"
   xmlns:svg="http://www.w3.org/2000/svg"><sodipodi:namedview
     id="namedview1"
     pagecolor="#ffffff"
     bordercolor="#000000"
     borderopacity="0.25"
     inkscape:showpageshadow="2"
     inkscape:pageopacity="0.0"
     inkscape:pagecheckerboard="0"
     inkscape:deskcolor="#ffffff"
     inkscape:document-units="mm"
     inkscape:zoom="0.22627417"
     inkscape:cx="-22094.877"
     inkscape:cy="1102.6446"
     inkscape:window-width="3840"
     inkscape:window-height="2066"
     inkscape:window-x="-11"
     inkscape:window-y="-11"
     inkscape:window-maximized="1"
     inkscape:current-layer="layer1"
     inkscape:lockguides="true"
     showgrid="false"
     showguides="false"><inkscape:page
       x="0"
       y="0"
       width="250.00204"
       height="306.3132"
       id="page2"
       margin="0"
       bleed="0" /></sodipodi:namedview><defs
     id="defs1"><linearGradient
       id="linearGradient331"
       inkscape:collect="always"><stop
         style="stop-color:#16135b;stop-opacity:1;"
         offset="0"
         id="stop330" /><stop
         style="stop-color:#ff1e1e;stop-opacity:1;"
         offset="1"
         id="stop331" /></linearGradient><linearGradient
       inkscape:collect="always"
       xlink:href="#linearGradient331"
       id="linearGradient325"
       x1="17766.014"
       y1="-3151.658"
       x2="17996.137"
       y2="-3457.9712"
       gradientUnits="userSpaceOnUse"
       gradientTransform="translate(0,3.10775)" /></defs><g
     inkscape:label="Layer 1"
     inkscape:groupmode="layer"
     id="layer1"
     transform="translate(-17746.135,3454.8634)"><path
       id="path323"
       style="fill:url(#linearGradient325);stroke-width:1.07707;stroke-linecap:round;stroke-linejoin:round"
       d="m 17871.129,-3454.8634 c -69.205,0.01 -124.994,55.7986 -124.994,125.0048 v 19.2583 c 0,14.3172 2.452,28.0255 6.868,40.8087 -4.124,2.7245 -6.853,7.3891 -6.855,12.7012 l -0.01,47.1785 c 0.03,4.2933 1.859,8.2399 4.843,11.0261 v 6e-4 l 10.401,10.4101 v -0.034 c 2.766,2.8139 6.577,4.5436 10.729,4.575 h 2.551 v 13.3743 c 0.03,3.1684 1.231,6.0895 3.205,8.3566 l -0.06,-0.011 0.61,0.6129 c 0.169,0.1713 0.33,0.349 0.508,0.511 l 8.686,8.7282 v -0.036 c 2.342,2.3666 5.558,3.8218 9.062,3.8479 h 158.689 c 9.029,0 15.266,-9.034 12.069,-17.4775 l -2.456,-6.4823 c 6.646,-0.5707 12.148,-5.4005 13.575,-11.9171 l 0.945,-4.3646 c 5.488,-1.4305 9.727,-5.7919 11,-11.3187 l 2.356,-10.8928 c 1.178,-5.5917 -0.872,-11.3727 -5.311,-14.9717 l 8.255,-38.1542 c 1.089,-5.0774 -0.514,-10.1112 -3.849,-13.6416 l 0.05,0.01 -0.187,-0.1875 c 2.795,-10.4084 4.328,-21.342 4.328,-32.6518 v -19.2588 c 0,-69.2098 -55.794,-125.0042 -125.005,-125.0042 z m 0.02,7.1747 c 1.667,0 3.32,0.057 4.97,0.1252 1.529,0.072 3.051,0.17 4.566,0.2914 60.635,4.8557 108.292,55.527 108.292,117.4161 0,14.6102 -2.714,28.5648 -7.579,41.4647 l -0.621,-0.6234 v 0.013 c -2.012,-1.9572 -4.555,-3.3653 -7.403,-3.9796 l -11.759,-2.5255 c -0.749,-0.161 -1.507,-0.2649 -2.27,-0.3116 v 0 c -0.762,-0.047 -1.528,-0.036 -2.291,0.032 v -5e-4 c -3.068,0.2748 -5.981,1.4738 -8.354,3.4386 l -19.836,16.4238 c -0.06,0.076 -0.114,0.1531 -0.17,0.2305 l -3.531,2.9093 c -2.266,-1.2526 -5.444,-2.957 -7.803,-4.1511 -4.788,-2.4261 -4.764,-2.4086 -6.757,-3.8535 -2.736,-1.9807 -5.782,-4.5544 -8.321,-7.0296 -1.823,-1.7767 -2.32,-2.3297 -3.527,-3.9181 -2.165,-2.8439 -3.288,-4.8829 -4.964,-9.0258 -0.362,-0.8963 -0.706,-1.7509 -0.966,-2.4045 -0.259,-0.6532 -0.454,-1.1763 -0.453,-1.171 0,0.029 -0.09,-0.3341 -0.143,-0.7436 -0.09,-0.4092 -0.162,-0.931 -0.242,-1.4598 -0.29,-1.9114 -0.351,-2.1119 -0.96,-3.4204 -0.348,-0.7497 -1.334,-2.7639 -2.208,-4.5089 -1.507,-3.0113 -1.583,-3.1884 -2.21,-5.239 -0.363,-1.1804 -0.723,-2.4728 -0.762,-2.6586 -0.09,-0.3738 -0.281,-1.095 -0.481,-1.7189 -0.35,-1.0922 -0.331,-0.8604 -0.214,-1.6608 0.04,-0.3858 0.308,-1.6077 0.546,-2.6139 l 0.48,-2.0385 -0.966,-2.1384 c -1.188,-2.6276 -2.009,-5.2289 -2.26,-7.091 -0.174,-1.2772 -0.295,-1.7323 -0.748,-2.8432 -0.376,-0.92 -0.586,-1.6402 -0.888,-3.0681 l -0.388,-1.8329 0.171,-2.5751 c 0.1,-1.4937 0.197,-2.094 0.1,-2.6427 -0.04,-0.2744 -0.214,-0.5451 -0.384,-0.7059 -0.174,-0.1607 -0.328,-0.2571 -0.532,-0.4206 -0.1,-0.074 -0.08,-0.031 -0.09,-0.053 0.04,-0.1462 0.1,-0.3053 0.1,-0.4707 0,-0.2036 -0.04,-0.3921 -0.116,-0.6274 -0.1,-0.3655 -0.127,-0.4993 -0.116,-0.7085 0,-0.2094 0.09,-0.543 0.235,-1.1798 l 0.302,-1.2474 -0.451,-1.9312 c -0.108,-0.4881 -0.219,-0.9726 -0.293,-1.3544 -0.03,-0.1905 -0.05,-0.3563 -0.09,-0.4801 -0.01,-0.1224 -0.01,-0.2285 -0.01,-0.1886 0,-0.2512 -0.04,-0.4618 -0.116,-0.8351 -0.08,-0.3741 -0.16,-0.8347 -0.25,-1.2986 -0.317,-1.5137 -0.334,-1.6979 -0.334,-3.2474 0,-2.2293 -0.143,-2.8695 -1.19,-5.2482 -0.192,-0.4359 -0.492,-1.1382 -0.662,-1.5457 -0.212,-0.5129 -0.386,-0.8758 -0.622,-1.1622 -0.235,-0.286 -0.673,-0.4969 -1.044,-0.4206 v 5e-4 c -0.364,0.078 -0.622,0.3658 -0.809,0.6981 -0.19,0.3342 -0.371,0.7819 -0.618,1.4527 -0.445,1.2045 -1.114,2.1518 -1.9,2.7579 -0.578,0.4438 -2.432,1.3798 -3.122,1.5782 -0.414,0.1176 -0.738,0.2282 -1.018,0.4687 -0.279,0.2404 -0.428,0.5555 -0.563,0.9132 -0.422,1.1284 -0.501,2.1266 -0.316,3.699 l 0.143,1.265 -0.251,0.7364 c -0.176,0.5174 -0.49,1.6372 -0.725,2.5626 l -0.44,1.741 0.126,2.3105 c 0.03,0.6049 0.04,1.2166 0.06,1.7094 v 0.955 c 0,0.016 -0.108,0.4788 -0.264,1.0154 -0.16,0.5367 -0.362,1.2094 -0.58,1.8805 l -0.835,2.5575 0.07,1.9591 c 0.04,1.3839 0.01,2.0858 -0.1,2.9212 -0.1,0.6957 -0.203,2.3033 -0.261,3.6711 -0.04,1.3413 -0.174,2.9257 -0.243,3.3843 -0.09,0.5824 -0.143,1.2175 -0.1,1.6542 0.01,0.1868 -0.01,0.8279 -0.143,1.5208 -0.18,1.034 -0.203,1.5363 -0.142,3.499 l 0.04,2.048 -1.535,2.2773 -1.75,2.603 0.09,0.816 c 0.03,0.2405 0.117,0.6222 0.22,1.1461 0.116,0.5239 0.259,1.1588 0.411,1.7829 l 0.515,2.111 -0.378,1.4361 -0.38,1.4433 -1.08,1.1978 c -0.644,0.7157 -1.346,1.4993 -1.569,1.7539 l -0.787,0.8899 0.668,0.5535 c -0.294,0.2319 -0.711,0.5456 -1.517,1.1234 -1.817,1.3031 -2.653,1.9952 -4.554,3.7651 -1.865,1.7359 -2.404,2.1768 -2.998,2.497 -0.361,0.1949 -2.432,1.1651 -4.445,2.0702 -2.516,1.1309 -4.777,2.2423 -7.12,3.499 -3.101,1.6639 -3.733,2.0505 -6.337,3.8721 -3.964,2.7706 -8.272,5.5945 -11.528,7.5603 -2.654,1.6026 -2.947,1.8111 -5.501,3.9321 -1.453,1.2035 -4.1,3.2691 -5.857,4.5666 -2.432,1.7985 -3.514,2.4926 -5.695,3.7734 -1.705,0.2968 -3.333,0.9127 -4.844,1.7632 -13.172,-16.2641 -21.095,-36.9564 -21.095,-59.5297 0,-4.477 0.333,-8.8742 0.932,-13.1852 l 51.306,-23.4875 c 0.313,-0.1448 0.411,-0.5431 0.201,-0.817 -1.397,-1.8156 -2.701,-3.723 -3.876,-5.7443 -0.01,-0.028 -0.05,-0.1196 -0.125,-0.2409 -0.07,-0.1203 -0.128,-0.198 -0.146,-0.2268 -1.163,-2.0352 -2.168,-4.1179 -3.045,-6.2394 -0.06,-0.1517 -0.189,-0.2671 -0.347,-0.3127 -0.159,-0.046 -0.329,-0.017 -0.463,0.079 l -42.279,30.0488 c 3.603,-16.6564 11.571,-31.6795 22.668,-43.7999 l 16.346,1.5456 c 0.343,0.031 0.628,-0.2648 0.583,-0.6072 -0.304,-2.2716 -0.48,-4.5744 -0.487,-6.9127 0,-0.032 0.01,-0.1313 0.01,-0.2713 0,-0.1389 -0.01,-0.2358 -0.01,-0.2692 0.01,-2.3437 0.181,-4.651 0.484,-6.9257 0.04,-0.3434 -0.24,-0.6399 -0.584,-0.6072 l -0.241,0.023 c 2.464,-1.7007 5.011,-3.2854 7.635,-4.7511 -0.996,3.8247 -1.54,7.8304 -1.54,11.9662 0,23.7039 17.436,43.806 40.901,47.1594 0.333,0.048 0.629,-0.2184 0.615,-0.555 -0.02,-0.4701 -0.03,-0.9922 -0.06,-1.5084 l -0.126,-2.2934 c 0,-0.153 0,-0.2646 0.02,-0.3297 v -0.011 l 0.44,-1.7415 c 0.24,-0.9472 0.545,-2.0386 0.751,-2.6448 l 0.133,-0.3932 c 0.02,-0.074 0.03,-0.1525 0.02,-0.2295 l -0.1,-0.8981 v -0.011 c -0.193,-1.6498 -0.1,-2.9347 0.375,-4.2033 v -0.011 c 0.157,-0.4118 0.378,-0.9245 0.865,-1.3441 0.464,-0.3994 0.969,-0.5581 1.418,-0.6857 0.148,-0.045 0.137,-0.054 0.218,-0.093 0.09,-0.038 0.186,-0.088 0.307,-0.1478 0.241,-0.1181 0.547,-0.2718 0.854,-0.4268 0.307,-0.1551 0.614,-0.3103 0.854,-0.4356 0.121,-0.062 0.224,-0.1179 0.305,-0.1618 0.09,-0.044 0.09,-0.037 0.209,-0.1245 0.596,-0.4596 1.156,-1.2266 1.544,-2.2759 0.252,-0.6854 0.439,-1.1613 0.692,-1.6071 0.26,-0.464 0.706,-1.0219 1.484,-1.2041 l -0.04,0.01 h -0.198 l -0.111,-0.1163 c 0.103,0.077 0.231,0.1143 0.359,0.1054 0.03,0.012 0.07,0.021 0.1,0.026 0.254,-0.052 0.472,-0.065 0.67,-0.048 0.593,0.052 1.019,0.3496 1.422,0.8403 0.359,0.436 0.559,0.8857 0.784,1.4304 0.164,0.3931 0.462,1.0952 0.651,1.5223 1.054,2.3979 1.28,3.4241 1.28,5.6819 0,1.4828 0.02,1.5748 0.3,2.9249 v 0.015 0.108 c 0.1,0.4539 0.166,0.8948 0.244,1.262 v 0.035 c 0.02,0.1034 0.08,0.4743 0.113,0.7974 0.04,0.323 0.08,0.6021 0.09,0.6666 v 0.038 c 0.06,0.3437 0.174,0.8149 0.282,1.2981 v 0.04 l 0.444,1.9125 c 0.03,0.1667 0.03,0.3424 0,0.509 l -0.297,1.2227 c -0.08,0.337 -0.128,0.6113 -0.156,0.7565 0,0.037 -0.01,0.064 -0.01,0.078 0,0.014 -0.02,0.043 0.02,-0.053 0,-0.012 0.01,-0.027 0.02,-0.048 0.01,-0.022 0.06,-0.09 0.06,-0.09 0,2e-4 0.08,-0.07 0.08,-0.069 0,10e-5 0.143,-0.078 0.142,-0.078 0,0 0.05,-0.011 0.1,-0.015 -0.236,0.033 -0.423,0.2168 -0.459,0.4527 v 0.082 0.038 0.015 0.017 c 0,0.038 0,0.087 0.02,0.1153 0,0.03 0.02,0.067 0.03,0.1012 0.02,0.068 0.04,0.2545 0.08,0.4486 0.06,0.2996 0.353,0.4913 0.65,0.4227 21.539,-5.0031 36.809,-24.1769 36.864,-46.2892 0,-4.1424 -0.546,-8.1534 -1.544,-11.9837 2.645,1.4748 5.212,3.071 7.691,4.7842 l -0.21,-0.021 c -0.344,-0.032 -0.628,0.2628 -0.585,0.6056 0.296,2.2705 0.461,4.5761 0.461,6.9144 v 0.022 c 0,0.032 -0.01,0.1381 -0.01,0.2739 v 0.065 c 0.01,0.054 0.01,0.1225 0.01,0.2087 0,2.3297 -0.17,4.6276 -0.464,6.8916 -0.04,0.343 0.24,0.6388 0.585,0.6062 l 16.318,-1.5431 c 11.097,12.1202 19.067,27.143 22.669,43.7994 l -42.258,-30.0323 c -0.134,-0.095 -0.304,-0.1248 -0.461,-0.08 -0.157,0.045 -0.287,0.1596 -0.349,0.3111 -0.88,2.1136 -1.889,4.1943 -3.058,6.2193 l -0.01,0.018 c 0,0.028 -0.09,0.113 -0.147,0.2305 -0.01,0.018 -0.02,0.037 -0.03,0.056 -0.02,0.052 -0.05,0.1114 -0.1,0.186 -1.165,2.0176 -2.461,3.9229 -3.849,5.7361 -0.21,0.2746 -0.111,0.6731 0.203,0.817 l 51.288,23.4802 c 0.6,4.3099 0.934,8.7058 0.934,13.1816 0,12.0137 -2.246,23.4942 -6.33,34.06 0.712,0.051 1.419,0.1402 2.118,0.2904 l 1.683,0.3612 c 4.076,-10.7965 6.32,-22.4898 6.32,-34.7105 0,-3.8321 -0.243,-7.6065 -0.669,-11.3249 -0.04,-0.421 -0.108,-0.839 -0.159,-1.2583 v -6e-4 c -0.122,-0.9543 -0.237,-1.9101 -0.386,-2.8556 -0.09,-0.5068 -0.183,-1.0059 -0.27,-1.51 v -5e-4 c -3.116,-17.9367 -11.082,-34.2034 -22.508,-47.4121 v -5e-4 c -0.289,-0.3335 -0.574,-0.6705 -0.867,-1 -3.406,-3.833 -7.092,-7.4104 -11.052,-10.6727 v 5e-4 c -0.51,-0.4209 -1.041,-0.8161 -1.56,-1.2268 v -5e-4 c -5.146,-4.069 -10.702,-7.6329 -16.605,-10.6221 -0.458,-0.2326 -0.911,-0.4781 -1.374,-0.7038 -13,-6.3287 -27.594,-9.8873 -43.018,-9.8873 v 0 c -15.422,0 -30.014,3.5575 -43.012,9.8841 v -5e-4 c -0.492,0.2395 -0.971,0.4998 -1.458,0.7472 -5.876,2.9819 -11.409,6.5329 -16.533,10.5854 -0.519,0.4111 -1.052,0.8075 -1.563,1.2289 -3.958,3.2611 -7.643,6.8373 -11.048,10.6686 -0.293,0.3294 -0.577,0.6662 -0.866,0.9994 v 6e-4 c -11.426,13.2098 -19.393,29.4777 -22.509,47.4162 -0.09,0.5046 -0.19,1.0039 -0.271,1.511 -0.148,0.9435 -0.262,1.8972 -0.384,2.8494 -0.05,0.4191 -0.112,0.8366 -0.161,1.2573 -0.426,3.7189 -0.669,7.4942 -0.669,11.327 0,22.1115 7.381,42.4602 19.7,58.8987 0.03,0.01 0.06,0.021 0.09,0.03 -1.966,-0.5752 -3.955,-0.9746 -5.93,-1.1757 -0.151,-0.015 -0.302,-0.029 -0.454,-0.039 -0.674,-0.048 -1.943,-0.1732 -3.679,-0.1732 h -14.072 c -9.551,-17.0142 -15.019,-36.6275 -15.019,-57.5391 0,-61.8859 47.657,-112.5554 108.287,-117.4156 1.515,-0.1215 3.038,-0.219 4.568,-0.2914 1.652,-0.069 3.307,-0.1261 4.977,-0.1261 z m -0.02,23.1531 0.02,5e-4 c 16.211,0 31.463,4.0762 44.799,11.2489 1.145,4.0382 1.771,8.2942 1.771,12.7 -0.05,21.4168 -14.718,39.9581 -35.465,45.0583 0.03,-0.1532 0.08,-0.3876 0.139,-0.6774 l 0.304,-1.2475 v -0.011 c 0.06,-0.3226 0.06,-0.6577 0,-0.9803 v -0.011 l -0.432,-1.851 v 0.014 c 0,-0.032 0,-0.063 -0.01,-0.094 -0.107,-0.4831 -0.212,-0.9465 -0.273,-1.2641 0,-0.04 -0.04,-0.329 -0.08,-0.6486 -0.04,-0.3299 -0.09,-0.6694 -0.126,-0.8809 v -0.015 c -0.06,-0.3262 -0.145,-0.7875 -0.243,-1.2728 v -0.011 -0.024 c -0.31,-1.5025 -0.286,-1.2685 -0.286,-2.8086 0,-2.339 -0.293,-3.6593 -1.374,-6.1154 -0.182,-0.4125 -0.482,-1.1182 -0.642,-1.5017 -0.23,-0.5571 -0.481,-1.1366 -0.946,-1.7022 -0.517,-0.6296 -1.234,-1.1484 -2.161,-1.2284 -0.256,-0.022 -0.532,0.011 -0.811,0.055 -0.03,-0.017 -0.06,-0.032 -0.1,-0.042 h -0.02 c -0.04,7e-4 -0.07,0.01 -0.109,0.013 -1.212,0.2579 -1.894,1.1389 -2.234,1.746 -0.303,0.5319 -0.511,1.0706 -0.766,1.7648 -0.327,0.8862 -0.807,1.4955 -1.193,1.7942 0.05,-0.039 0,4e-4 -0.08,0.035 -0.08,0.039 -0.169,0.093 -0.286,0.1535 -0.234,0.1219 -0.538,0.2759 -0.842,0.4294 -0.303,0.1535 -0.608,0.3057 -0.843,0.4207 -0.117,0.057 -0.218,0.1069 -0.291,0.1411 -0.08,0.033 -0.187,0.07 -0.08,0.036 -0.465,0.1323 -1.173,0.3429 -1.827,0.9049 -0.697,0.6003 -1,1.3328 -1.172,1.7797 v 0.033 c -0.531,1.4422 -0.637,2.9326 -0.432,4.685 l 0.09,0.7756 -0.1,0.2801 c -0.229,0.6711 -0.531,1.7609 -0.776,2.726 l -0.439,1.742 v -0.011 c -0.07,0.2487 -0.07,0.4628 -0.07,0.6253 v 0.029 l 0.125,2.3095 v 0.011 c 0.01,0.2525 0.02,0.5149 0.03,0.7762 -22.605,-3.5599 -39.333,-22.9902 -39.333,-45.9414 0,-4.4066 0.627,-8.6636 1.771,-12.7026 13.335,-7.1708 28.584,-11.2458 44.793,-11.2458 z m -54.017,17.8413 c -0.256,2.1036 -0.436,4.23 -0.448,6.397 0,0.14 0.01,0.2389 0.01,0.2713 0,0.032 -0.01,0.1312 -0.01,0.2713 0.01,2.1638 0.194,4.2869 0.451,6.3872 l -14.869,-1.4061 c 4.085,-4.3332 8.568,-8.2801 13.4,-11.7822 z m 108.098,0 1.433,0.1355 c 4.836,3.503 9.32,7.4513 13.405,11.7863 l -14.842,1.4031 c 0.25,-2.0939 0.429,-4.2081 0.429,-6.3655 0,-0.065 0,-0.17 -0.01,-0.2734 0,-0.032 0.01,-0.1382 0.01,-0.2739 v -0.022 c 0,-2.1647 -0.176,-4.2886 -0.425,-6.3898 z m -104.189,27.9084 c 0.829,1.9498 1.735,3.8824 2.81,5.764 0.07,0.1213 0.131,0.2 0.146,0.2279 0.01,0.028 0.05,0.1206 0.125,0.2418 1.091,1.8685 2.311,3.6163 3.584,5.3066 l -50.121,22.9444 c 0.211,-1.3868 0.465,-2.7602 0.736,-4.1264 z m 100.268,0.014 42.698,30.3424 c 0.271,1.3676 0.525,2.7423 0.737,4.1306 l -50.1,-22.9366 c 1.262,-1.6884 2.475,-3.4296 3.555,-5.298 0.03,-0.056 0.09,-0.1473 0.125,-0.2433 0.01,-0.028 0.09,-0.1126 0.148,-0.23 v -0.018 c 1.084,-1.8749 1.993,-3.8021 2.828,-5.7466 z m -45.435,4.5067 c 0.08,0.1301 0.162,0.2571 0.288,0.5592 0.173,0.4217 0.473,1.1218 0.671,1.5704 1.039,2.3558 1.095,2.593 1.095,4.7884 0,1.5641 0.04,1.9529 0.357,3.4814 0.1,0.4505 0.182,0.9012 0.243,1.2583 0.05,0.357 0.1,0.6969 0.1,0.6398 0,0.1399 0.01,0.2263 0.04,0.37 0.01,0.1445 0.04,0.3186 0.1,0.5183 0.09,0.3992 0.183,0.8943 0.3,1.3958 l 0.39,1.6665 -0.239,0.9845 c -0.158,0.6445 -0.245,1.0203 -0.264,1.3885 -0.01,0.3681 0.04,0.6794 0.159,1.0651 0.04,0.2039 0.09,0.3213 0.09,0.372 0,0.052 0,0.043 -0.01,0.108 -0.03,0.077 -0.06,0.1561 -0.09,0.2806 -0.01,0.1256 0,0.316 0.04,0.462 0.126,0.2919 0.29,0.3683 0.478,0.5199 0.242,0.1931 0.409,0.3099 0.465,0.3638 0.04,0.054 0.03,10e-5 0.04,0.082 0.03,0.1664 0,0.8527 -0.116,2.36 l -0.18,2.7322 0.419,1.9869 c 0.308,1.4578 0.548,2.2854 0.949,3.2639 0.442,1.084 0.502,1.3133 0.672,2.5652 0.277,2.0439 1.128,4.7037 2.35,7.4068 l 0.807,1.7849 -0.39,1.6614 c -0.243,1.0287 -0.49,2.2028 -0.563,2.7099 -0.127,0.8055 -0.1,1.0784 0.256,2.173 0.19,0.5923 0.401,1.363 0.448,1.5973 0.1,0.4225 0.421,1.5719 0.79,2.7673 0.63,2.0601 0.772,2.4007 2.28,5.4157 0.871,1.7385 1.865,3.7689 2.195,4.4788 0.304,0.6523 0.447,0.9528 0.551,1.3291 0.108,0.3763 0.171,0.8284 0.316,1.7828 0.09,0.5381 0.17,1.0666 0.245,1.4878 0.09,0.4216 0.116,0.6696 0.186,0.8919 0.07,0.1988 0.222,0.5854 0.482,1.2423 0.259,0.6568 0.601,1.513 0.964,2.4113 1.696,4.1879 2.905,6.3863 5.113,9.2898 1.223,1.6085 1.806,2.2555 3.64,4.0432 2.582,2.5174 5.659,5.1178 8.447,7.1375 1.997,1.446 2.123,1.5204 6.913,3.9466 2.212,1.1202 5.103,2.6783 7.337,3.9057 l -9.743,8.03 c -2.587,-4.9717 -7.695,-8.1213 -13.299,-8.1995 h -7.391 c -3.842,0.1253 -7.495,1.6992 -10.225,4.4054 -2.674,-2.6804 -6.25,-4.2692 -10.03,-4.4566 h -7.985 c -1.966,0.1347 -3.886,0.6491 -5.655,1.5152 -0.503,-0.1434 -1.015,-0.2665 -1.522,-0.399 0.02,0 0.03,0.01 0.05,0.011 0.08,-0.5886 0.154,-1.2248 0.249,-1.6206 l 0.262,-1.0842 -0.473,-1.2273 c -0.371,-0.9699 -0.613,-1.4174 -1.148,-2.1321 -0.373,-0.4977 -1.189,-1.7184 -1.816,-2.7136 l -1.139,-1.8097 0.315,-0.5705 0.315,-0.571 -0.258,-1.0677 c -0.143,-0.5875 -0.242,-1.1424 -0.226,-1.2324 0.01,-0.113 0.374,-0.2671 1.137,-0.4977 1.257,-0.3786 7.115,-2.0668 7.77,-2.2391 0.623,-0.1637 1.578,-1.0431 1.578,-1.4563 0,-0.2124 0.347,-0.8691 1.131,-2.1425 0.622,-1.0099 1.134,-1.9367 1.134,-2.0603 0,-0.3857 1.182,-3.8066 1.388,-4.0313 0.116,-0.1176 0.447,-0.824 0.75,-1.5704 0.306,-0.7464 0.625,-1.5204 0.709,-1.7203 0.16,-0.362 1.182,-1.3494 3.043,-2.9332 0.828,-0.7043 0.94,-0.8401 1.145,-1.4051 0.249,-0.6911 0.911,-2.0433 1.122,-2.2918 0.05,-0.066 0.126,-0.1034 0.262,-0.1163 0.137,-0.013 0.342,7e-4 0.675,0.028 0.834,0.071 5.365,-0.1767 5.508,-0.3028 0.04,-0.039 0,-0.1635 -0.1,-0.277 l -0.179,-0.2057 -2.262,0.2569 -2.262,0.2568 -1.659,-0.1721 c -2.419,-0.2511 -2.311,-0.2223 -2.311,-0.6222 0,-0.3008 0.166,-0.5032 1.547,-1.8825 1.501,-1.4974 1.567,-1.5811 2.128,-2.6929 0.827,-1.6503 1.057,-2.4518 0.99,-3.4587 -0.04,-0.6289 0.03,-1.3957 0.348,-3.5181 l 0.403,-2.7136 0.749,-1.9595 c 0.411,-1.0781 0.886,-2.2644 1.054,-2.6355 l 0.307,-0.6743 1.326,-0.6647 c 0.88,-0.4412 1.292,-0.6977 1.225,-0.7642 -0.08,-0.067 -0.497,-0.062 -1.281,0.016 -0.946,0.088 -1.547,0.079 -3.004,-0.044 -2.129,-0.1807 -3.279,-0.3451 -3.279,-0.4687 0,-0.048 0.158,-0.4701 0.34,-0.9364 0.343,-0.8467 0.343,-0.8495 0.411,-3.0385 0.04,-1.2053 0.143,-3.1735 0.255,-4.3734 l 0.186,-2.1818 -0.292,-1.6376 c -0.49,-2.7552 -0.6,-4.5699 -0.435,-7.1675 0.192,-2.9948 0.158,-4.0204 -0.175,-5.7785 -0.539,-2.8341 -0.541,-2.8371 -0.357,-4.286 0.09,-0.7234 0.167,-1.5485 0.167,-1.834 0,-0.2852 0.1,-0.778 0.205,-1.0945 0.344,-0.9487 0.704,-2.76 0.58,-2.9099 -0.05,-0.074 -0.1,-0.526 -0.09,-1.077 0,-0.8527 0,-0.9593 -0.182,-1.0552 -0.117,-0.059 -0.29,-0.1075 -0.402,-0.1075 -0.158,0 -0.239,-0.1241 -0.376,-0.555 -0.172,-0.5438 -0.172,-0.5638 0.04,-0.9979 0.177,-0.3638 0.202,-0.5306 0.142,-0.9353 -0.04,-0.3565 -0.03,-0.6017 0.09,-0.8868 0.117,-0.2978 0.159,-0.843 0.159,-2.2283 z m -37.852,16.3753 c -0.159,0.04 -0.292,0.15 -0.36,0.2992 l -32.103,70.1285 c -0.253,0.5866 0.544,1.0477 0.926,0.5354 l 44.685,-62.8706 c 0.2,-0.2824 0.09,-0.6771 -0.235,-0.8088 -2.119,-0.8732 -4.201,-1.8727 -6.23,-3.0354 -0.03,-0.016 -0.108,-0.076 -0.228,-0.1468 -0.121,-0.069 -0.211,-0.1066 -0.24,-0.1235 -2.024,-1.1812 -3.937,-2.4821 -5.756,-3.8819 -0.131,-0.1002 -0.3,-0.135 -0.459,-0.096 z m 66.32,0.014 v 0 c -0.158,-0.04 -0.326,0 -0.456,0.095 -1.819,1.3906 -3.734,2.687 -5.758,3.8561 l -0.02,0.011 c -0.03,0.016 -0.125,0.058 -0.242,0.1256 -0.02,0.011 -0.03,0.02 -0.05,0.032 -0.04,0.037 -0.1,0.071 -0.176,0.1137 -2.018,1.1649 -4.093,2.1661 -6.2,3.0427 -0.32,0.1325 -0.433,0.5279 -0.233,0.8098 l 44.669,62.853 c 0.161,0.2267 0.468,0.2936 0.709,0.1545 0.239,-0.1398 0.334,-0.4386 0.218,-0.6904 l -32.096,-70.1063 c -0.06,-0.149 -0.2,-0.2597 -0.359,-0.2992 z m -65.964,1.3091 c 1.695,1.2737 3.445,2.4946 5.318,3.5868 0.121,0.07 0.213,0.1085 0.24,0.1246 0.03,0.016 0.108,0.077 0.228,0.1467 1.88,1.0726 3.81,1.976 5.757,2.8035 l -41.019,57.7152 z m 65.589,0.02 v 0 6e-4 l 29.462,64.3598 -41.007,-57.7013 c 1.939,-0.8306 3.859,-1.7326 5.728,-2.8113 0.05,-0.032 0.146,-0.085 0.23,-0.1478 0.03,-0.016 0.126,-0.058 0.243,-0.1256 l 0.02,-0.011 c 1.875,-1.0823 3.627,-2.2968 5.322,-3.5636 z m -21.964,0.6367 c 0.03,0.029 0.103,0.077 0.103,0.077 0,-1e-4 0.07,0.088 0.07,0.088 0,-5e-4 0.04,0.083 0.05,0.1075 0.01,0.05 0.01,0.071 0.02,0.086 v 0.017 c -0.06,-0.1515 -0.175,-0.2704 -0.327,-0.324 0.03,-0.015 0.06,-0.032 0.08,-0.051 z m 76.418,75.2884 11.758,2.5285 -11.114,51.3613 8.168,1.7662 -2.355,10.8928 -8.168,-1.7689 -3.777,17.4491 -13.364,-2.8918 3.776,-17.4486 -33.72,-7.2967 -4.068,-10.8551 9.78,-8.0631 23.359,-19.25 h -0.112 z m -114.524,7.6197 c 0,-2e-4 0,3e-4 0,0 1.914,0 3.628,0.1009 5.095,0.2145 0.06,0 0.116,-1e-4 0.176,0.014 1.667,0.1485 3.34,0.3805 5.022,0.7075 0.03,0.01 0.06,0.014 0.09,0.019 -0.03,-0.01 -0.06,-0.014 -0.09,-0.019 -1.682,-0.327 -3.355,-0.559 -5.022,-0.7075 -0.06,-0.01 -0.117,-0.01 -0.176,-0.014 -1.466,-0.1135 -3.178,-0.2143 -5.089,-0.2145 z m -31.291,0.6878 v 0 c 3.85,0.1908 7.485,1.8349 10.171,4.6003 0,7e-4 0,0 0,0 -2.686,-2.7671 -6.323,-4.412 -10.174,-4.6028 z m -53.263,0.1514 c -0.152,0.021 -0.303,0.045 -0.454,0.07 0.151,-0.025 0.302,-0.049 0.454,-0.07 z m -4.173,1.2051 c -0.746,0.3357 -1.467,0.7172 -2.143,1.1638 0.676,-0.4467 1.398,-0.8266 2.143,-1.1638 z m 39.09,0.5943 c 0.685,0.2394 1.366,0.5013 2.038,0.8 0,5e-4 0,0 0,0 -0.671,-0.2984 -1.353,-0.5559 -2.036,-0.8015 z m 161.337,5.1966 -36.708,30.1444 28.836,6.2404 z m -111.699,7.3939 c 1.365,2e-4 2.669,0.074 3.912,0.1695 1.245,0.111 2.43,0.2739 3.554,0.496 2.294,0.3922 4.419,0.931 6.372,1.6149 v 6.9598 c -0.977,-0.3926 -1.99,-0.7334 -3.039,-1.0263 -1.05,-0.2962 -2.137,-0.5401 -3.259,-0.7327 -2.198,-0.4368 -4.518,-0.6594 -6.96,-0.6594 -5.86,0 -10.013,1.5574 -12.457,4.6813 -2.393,3.1247 -3.595,7.6433 -3.595,13.5522 0,5.5188 1.312,9.7183 3.948,12.6008 2.636,2.8338 6.714,4.256 12.232,4.256 2.248,0 4.493,-0.1709 6.74,-0.5111 2.295,-0.3925 4.445,-0.9739 6.448,-1.7549 v 7.0342 c -1.954,0.6367 -4.078,1.1199 -6.375,1.4604 -2.246,0.3405 -4.738,0.5105 -7.473,0.5105 -7.765,0 -13.648,-2.131 -17.65,-6.381 -3.954,-4.2514 -5.926,-9.99 -5.926,-17.218 0,-5.1767 0.835,-9.6202 2.498,-13.331 1.711,-3.7599 4.3,-6.6405 7.768,-8.6413 3.469,-2.0493 7.89,-3.0701 13.262,-3.0701 z m -61.477,0.6852 c 0.903,0 1.767,0.075 2.591,0.1338 2.472,0.2517 4.588,0.9002 6.345,1.927 2.344,1.3679 4.077,3.2502 5.199,5.6436 1.122,2.3443 1.68,5.0301 1.68,8.0584 0,4.689 -1.469,8.4486 -4.4,11.2795 -2.883,2.8314 -6.791,4.2426 -11.724,4.2426 h -12.747 v 15.8962 h -7.985 l 0.01,-47.1785 z m 22.197,0 h 7.984 v 47.178 h -7.984 z m 68.932,0.074 v 25.6372 l 16.787,-21.2638 v 0.074 l 3.468,-4.3956 h 7.392 l -10.86,13.7397 -4.548,5.7521 17.79,27.6887 h -8.499 l -13.839,-21.933 -7.691,9.7297 v 12.1915 h -7.985 v -47.2199 z m -104.172,6.1639 v 18.7524 h 11.282 c 3.175,0 5.567,-0.8269 7.18,-2.4867 1.613,-1.6594 2.421,-3.9045 2.421,-6.7376 0,-3.0276 -0.779,-5.3711 -2.341,-7.0331 -1.514,-1.6598 -3.808,-2.495 -6.884,-2.495 z m 127.127,58.6011 c 1.238,0 2.398,0.088 3.481,0.2651 1.106,0.1767 1.968,0.3759 2.587,0.5969 v 3.1833 c -1.68,-0.641 -3.537,-0.9612 -5.571,-0.9612 -1.591,0 -2.829,0.2095 -3.713,0.6294 -0.885,0.42 -1.326,1.1829 -1.326,2.2882 0,0.641 0.155,1.1602 0.464,1.5581 0.309,0.3979 0.839,0.7409 1.591,1.0283 0.774,0.2873 1.835,0.6075 3.184,0.9612 1.746,0.4421 3.094,0.9727 4.045,1.5916 0.972,0.5969 1.646,1.3039 2.022,2.1219 0.398,0.7957 0.597,1.7019 0.597,2.7187 0,1.879 -0.697,3.3605 -2.089,4.4436 -1.393,1.061 -3.504,1.5911 -6.333,1.5911 -2.763,0 -4.985,-0.3536 -6.665,-1.0609 v -3.1827 c 0.95,0.3536 1.968,0.6408 3.051,0.8619 1.106,0.221 2.199,0.3313 3.283,0.3313 1.701,0 2.972,-0.199 3.812,-0.5969 0.862,-0.3979 1.294,-1.1937 1.294,-2.3874 0,-0.7294 -0.178,-1.3149 -0.531,-1.757 -0.354,-0.4421 -0.939,-0.8181 -1.757,-1.1276 -0.818,-0.3315 -1.945,-0.6742 -3.382,-1.0278 -2.299,-0.5969 -3.913,-1.3484 -4.841,-2.2547 -0.928,-0.9284 -1.393,-2.1991 -1.393,-3.8127 0,-1.8789 0.686,-3.349 2.056,-4.41 1.371,-1.0611 3.416,-1.5917 6.134,-1.5917 z m -108.921,0.3313 h 3.183 l 11.141,15.7168 v -15.7168 h 3.581 v 21.3532 h -3.183 l -11.108,-15.6828 v 15.6828 h -3.614 z m 22.116,0 h 14.887 v 2.8189 h -11.273 v 6.4658 h 10.047 v 2.7848 h -10.047 v 6.4988 h 11.273 v 2.7849 h -14.887 z m 18.237,0 h 10.345 c 2.121,0 3.691,0.4977 4.708,1.4924 1.016,0.9948 1.525,2.3986 1.525,4.2111 0,1.1495 -0.232,2.1219 -0.697,2.9176 -0.464,0.7738 -1.083,1.3598 -1.856,1.7576 1.038,0.2874 1.856,0.807 2.453,1.5585 0.619,0.7295 0.929,1.8121 0.929,3.2489 0,2.0779 -0.564,3.6253 -1.691,4.6421 -1.106,1.0168 -2.742,1.525 -4.908,1.525 h -10.808 z m 20.921,0 h 9.815 c 2.387,0 4.122,0.6194 5.205,1.8572 1.106,1.2158 1.658,2.8734 1.658,4.9734 0,1.5031 -0.375,2.7852 -1.127,3.8462 -0.751,1.061 -1.835,1.8017 -3.249,2.2216 0.398,0.2874 0.707,0.597 0.928,0.9286 0.221,0.3315 0.442,0.7735 0.663,1.326 l 2.686,6.2002 h -3.713 l -2.62,-5.9676 c -0.243,-0.5747 -0.542,-0.9841 -0.895,-1.2273 -0.332,-0.2431 -0.906,-0.3643 -1.724,-0.3643 h -4.013 v 7.5592 h -3.614 z m 26.26,0 h 4.046 l 8.09,21.3532 h -3.713 l -2.123,-5.5041 h -8.587 l -2.122,5.5041 h -3.747 z m 32.263,0 h 3.613 v 9.8149 l 9.086,-9.8149 h 4.177 l -7.858,8.6211 8.19,12.7321 h -3.846 l -6.599,-10.4438 -3.15,3.3817 v 7.0621 h -3.613 z m 26.757,0 h 4.046 l 8.09,21.3532 h -3.714 l -2.122,-5.5041 h -8.588 l -2.122,5.5041 h -3.746 z m -102.588,2.7192 v 6.3991 h 6.234 c 1.216,0 2.078,-0.2763 2.586,-0.8289 0.531,-0.5747 0.796,-1.3372 0.796,-2.2877 0,-1.1052 -0.265,-1.923 -0.796,-2.4536 -0.53,-0.5526 -1.525,-0.8289 -2.984,-0.8289 z m 20.922,0.099 v 8.0569 h 5.239 c 1.304,0 2.332,-0.3205 3.084,-0.9617 0.751,-0.6409 1.127,-1.669 1.127,-3.0836 0,-2.6747 -1.293,-4.0116 -3.879,-4.0116 z m 24.636,0.4641 -3.713,9.7813 h 7.427 z m 59.019,0 -3.713,9.7813 h 7.427 z m -104.577,8.4883 v 6.9298 h 6.433 c 1.282,0 2.222,-0.2657 2.818,-0.7963 0.597,-0.5525 0.896,-1.5031 0.896,-2.8515 0,-1.1051 -0.299,-1.9226 -0.896,-2.4531 -0.575,-0.5526 -1.636,-0.8289 -3.183,-0.8289 z" /></g></svg>
