<svg xmlns="http://www.w3.org/2000/svg" xmlns:xlink="http://www.w3.org/1999/xlink" xml:space="preserve" width="1074.3" height="1157.7" viewBox="0 0 284.2 306.3"><defs><linearGradient id="a"><stop offset="0" style="stop-color:#172315;stop-opacity:1"/><stop offset="1" style="stop-color:#008933;stop-opacity:1"/></linearGradient><linearGradient xlink:href="#a" id="b" x1="16523.1" x2="16747.7" y1="-4040.2" y2="-4314.9" gradientTransform="translate(16.3 72.3)" gradientUnits="userSpaceOnUse"/></defs><path d="M16681-4274.1a124.8 124.8 0 0 0-125 125v19.2a127.2 127.2 0 0 0 4 31.3c.5 2 1 4 1.7 6l1.3 3.8a15.2 15.2 0 0 0-6.9 12.4v47.2c0 1.8.4 3.7 1 5.4a13 13 0 0 0-1.6-.3h-3.2a13 13 0 0 0-13 12.9v21.4c.1 3.1 1.4 6.1 3.4 8.3 1.7 1.9 8.6 9 10.6 10.6 2.2 1.9 5 3 8.1 3h249.3a13 13 0 0 0 13-12.8v-2.8a13 13 0 0 0-2-4.8l.7-1.7v-2.8l-.7-1.8c1-1.4 1.6-3 2-4.7v-2.8a13 13 0 0 0-4.5-9.5c-1.5-1.3-6.8-6.6-8.1-8.1a12.9 12.9 0 0 0-9.5-4.4h-.1l1.3-6.2c1.2-5.6-.9-11.4-5.3-15l8.2-38.1c1-5-.4-10.2-4-13.8l1.4-5.8.3-1.2c.6-2.5 1-5 1.4-7.6l.2-2c.3-1.9.5-4 .6-6l.2-2.2c.2-2.6.3-5.2.3-7.9v-19.2a127.8 127.8 0 0 0-4-31.3 124.8 124.8 0 0 0-121-93.7zm0 7.1a117.8 117.8 0 0 1 110.3 159.6c-2.1-2.4-4.9-4.1-8-4.9l-10-2.1a98.5 98.5 0 1 0-176.5 16h-.6a23.4 23.4 0 0 0-8.6 2.6l-.5.1c-.3 0-.5 0-.8.2-.1 0-.3 0-.4.2v.1h-.1c-.7 0-1.2 0-1.8.6l-.1.1c-.5 0-.9 0-1.3.3a51.6 51.6 0 0 1-2.6 1.3l-.4.3-.3.4c-.4 0-.7.3-1 .6A117.8 117.8 0 0 1 16681-4267zm0 23.2a94.5 94.5 0 0 1 74 35.5l-5 11.5c-.7-.1-1.9-.4-3.9-.3-1.2.1-2.5.3-3.7 1a5.3 5.3 0 0 0-2.7 3l-3.1 10-1.8.4c-1.6.4-3 .9-4 1.6-.5.4-.8.9-1.1 1.5l-1.1 2.4-2.5 6.2-2.8 8-15.1 3.5a23.2 23.2 0 0 0-5.3-2.9l-1-.3-.1-2.4v-2.3l2.6-.6 4.8-1.3.6-.3.4-.6c.2-.5.1-.7.1-.8l-.2-1a2 2 0 0 0-1-.8 1305.1 1305.1 0 0 1-7.7-2.9l-.9-.3v-.9l-.3-7.2-.1-8.3 7.5-9 7.6-9.2 1-.3c1-.3 1.8-.6 2.5-1 .6-.3 1.1-.6 1.4-1.2.3-.5.3-.8.3-1.2l.1-1.5c0-1 0-1.8-.4-2.5s-1-1.2-1.8-1.5a41.7 41.7 0 0 0-4.9-1.5l-1.2-.3h.3-.2l-.9-.5-2.5-1.6-3-2v-1.9a31.6 31.6 0 0 0-.1-2.5v-.3l-.2-.4c-.4-.6-1-.8-1.6-1.1l-2.3-.7a45 45 0 0 0-10.4-.8 55.4 55.4 0 0 0-12.8 1.4l-1.3.5-1.2.7v3.2l-.1 2-2.9 2c-3 2.1-3 2.2-5.4 2.8-3 .7-4.5 1.2-5.5 2.3-.2.3-.5.8-.5 1.3v4.8l1.8.9 2.6 1 .4.2a289.8 289.8 0 0 1 8 9l7.5 8.8v6.6l-2.3-.1c-2.4-.1-3.4-.2-4.1-.5a55 55 0 0 0-28.3-2.9c-4.7.9-11 2.9-22.5 7-3.4 1.2-9.5 3.1-13.5 4.3l-7.3 2-6.8 3.3a112.4 112.4 0 0 0-7 3.7 2 2 0 0 0-.4 1v1l.4.5c.1.2.5.3.8.3h.3a14.8 14.8 0 0 0 1.4-.3 334.3 334.3 0 0 0 6.2-1.7c.4 0 .5-.1.7-.2v5.9l-.8 49.6v4H16604.5l.1.4.7.4c.5.2.8.1 1.4.1h.3v.1h-.4c-.6 0-1 0-1.5.2-.2 0-.5.3-.7.6-.2.3-.2.5-.2.7l.2.8.4.2-.4.5c-.2.3-.2.6-.1 1 0 .3.4.8.8 1l.8.2a43 43 0 0 0-.9 5.5v1h-2.5a94.6 94.6 0 0 1 78.6-147.4zm10.3 12.4h3v.8l.2 2.4v.9l1.3.1c2.6.3 5.4.9 6.1 1.3.5.2 1.3.8 2 1.3.6.6 1.9 1.6 2.8 2.2l1.6 1.2-2.2-.2c-6.5-.4-7.4-.4-7.4-.1l-.4.2c-.4 0-.4 0-.1.3.3.1.3.2 0 .2-.2 0-.2 0 0 .4.3.3.3.3 0 .2-.3-.2-.3-.2 0 0 .2.4 0 1-.3 1.3-.2 0-2.8.2-6 .2-13.7 0-25.2 1.5-28.4 3.6v-1.9l.1-.2c.2-.3 1.7-1 4.5-1.7 2.4-.7 3-1 6-3l3.7-2.6.1-3v-2.1l.3-.2 1-.3 1.5-.4c2.9-.6 6.8-1 10.6-1zm65 24.9c1.6 2 3 4 4.5 6.2a20.4 20.4 0 0 1-3.5 6.8c-3.4 3.8-10.7 9-11 9.2l-6.3.6-1.2.2 2.8-9c.3-1 .8-1.5 1.7-1.9.8-.4 1.9-.6 3-.7 2-.1 4 .3 4 .3.5.1 1-.1 1.2-.6zm5.8 8.3a94.2 94.2 0 0 1 13.6 48 1 1 0 0 0-.4.2s-3.5 1.8-7 4.6-7.2 6.6-7.5 11.1l-1.9 21.9-6.8 4.2h-.1c-1.4 1.2-2.4 2.8-3.1 4.6l-10.1 8.4-.1.2-14.2 11.7a15.2 15.2 0 0 0-5.5-5.6c0-2.4 0-4.8-.4-7.7l-.2-1.7.7-.5c.5-.5.9-.9 1.1-1.3.3-.5.4-1.1.2-1.7a2 2 0 0 0-1.2-1c-.5-.2-1.1-.3-1.8-.3h-.1l-.3-.8-.2-.7h.7a26.8 26.8 0 0 0 2-.3l.4-.2c.3-.4.2-.4.2-.5v-.1l.1-.3v-.7l.2-2.2.1-2c0-.3.1-.4 0-.4h.1l1.3-.1c.8-.2 1.3-.2 1.7-.4.3 0 .5-.2.7-.4.3-.3.4-.7.4-.9 0-.4-.3-.8-.5-1a2 2 0 0 0-.8-.4h-.3l.8-.2.7-.5.3-.9c0-.3-.2-.7-.4-.8l-.5-.3-.9-.1-3.7-.2-7.7-.2h-.5a27.2 27.2 0 0 0-1-40.2l14.1-3.3c.4 0 .6-.3.7-.6l3-8.5a115.4 115.4 0 0 1 3.4-8.3l.6-.9c.5-.4 1.8-.9 3.3-1.3a48 48 0 0 1 5-.9c3.3-.5 6.4-.7 6.4-.7l.5-.1s7.7-5.4 11.5-9.7c1.4-1.5 2.4-3.7 3.2-5.5l.2-.5zm-72.7 4.3c1.6 0 3.1 0 3.4.2.2 0 .3 1.2.3 3.4v15.3c0 13 .1 12.4-1.3 12.4a24.2 24.2 0 0 0-20 22.3 19 19 0 0 0 0 5.5v2.2h-.8c-.4 0-.9 0-1 .2h-.4c-.2-.2-.4-.2-.6 0-.2.3-.4.3-.9.1-.3-.1-.5 0-.4 0 .2.4 0 .4-.6 0-.3-.1-.5 0-.7.2-.2.2-.4.2-.7 0-.3-.1-.4 0-.4.1 0 .3 0 .3-.2 0 0-.1-.2-.2-.3-.1-.4.2-2.8.4-2.8.2l-.1-.7a27 27 0 0 1 0-8.6 32 32 0 0 1 2.7-7.6c.7-1.4 3.5-5 4-5.4l1.6-1.3a26 26 0 0 1 12.3-5.1c.6-.2.6-.3.6-1.1v-1l-1.8.2c-2.5.2-6 1.3-8.5 2.7a26.4 26.4 0 0 0-13.2 24.9 34.7 34.7 0 0 0 2.7 10.6c0 .2-1.6 1.2-1.8 1-.8-1.2-1.6-2.9-2.3-5-.8-2.3-1-2.7-1.4-2.7a2 2 0 0 0-.8.3c-.2 0-.2 0-.1-.1.1-.3 0-.3-.3-.1a5 5 0 0 1-1.7.2l-1.4.1c0 .1-.5.2-1.2.2a19.7 19.7 0 0 0-4.7.5h-.6c-.2-.2-.4-.2-.4 0h-.6l-1 .2h-1.2c-.3.2-.6.2-.7.1-.2 0-.4 0-.6.2-.6.5-1-.3-1.2-2.6-1-7.4 2.4-15.8 8.3-20.6a22 22 0 0 1 9.3-4.5l3.8-1c.2 0 .3-.4.3-.7l.2-.9c0-.3-.1-.4-1.1-.4s-1.1 0-.3-.1c1.3-.2 1.6-.3 1.3-.6-.3-.3-6.1-.5-20.8-.8a229.3 229.3 0 0 1-9.7-.2l-.3 24.5c0 13.3-.2 24.3-.3 24.3l-.5.3c-.3 0-.3-1.7-.2-11.7a3752.2 3752.2 0 0 1 .4-38h7.3a2641.6 2641.6 0 0 0 22.4.6l1.6.1v-4.7l.2-15.1c0-.4 3-2.7 3.7-3 1.1-.3 4.2-.6 6.6-.6h.7l1.6.4c1 .4 2.2.6 4.8.6l4.3.2v-9.4l1.2-.3a30 30 0 0 1 4.3-.3zm-10.6 11.1v8.8l.1 9.2c0 .5.2.6 1.6.6l2.1-.2.5-.1v-18.2h-2.1zm-74.7 8.9c-.4.4-1.6 1-6.4 3.3l-2.7 1.3c-.4 0-.7.2-1 .3.9-.5 1.7-1 3.9-2zm9.3 1.8v13.3c0 8.2-.1 15.4-.2 16.1 0 .7-.2 8.2-.2 16.6l-.3 15.7c0 .4-.5.4-3.7.4h-2.9c-.1-.2-.1-.4-.3-.5-.3-.3-.6-.3-.9-.4h-4.3v-2l.5-29.7c0 2.8 0 4.1.3 4.1.2 0 .4-.1.4-.3l.3-9c0-4.7.1-8.7.2-8.7.3-.2 1.6-.8 1.9-.8.2 0 .5 0 .7-.2l.8-.3c.3-.1.4-.4.4-.8v-.7l-2.2.8c-1.3.4-2.4.9-2.4 1l-.3 7.1.2-9.5 1.9-.7c5-1.9 6.2-2.3 7.7-2.4 1.7-.2 1.5 0 1.8-3.7a69.7 69.7 0 0 1 .6-5.4zm3.4 9.3a117 117 0 0 1 12.2.7c-.2.2-1.6.2-6.2 0h-6v4.6c-.2 2.6-.2 6.2-.2 8 0 3 0 3.3-.5 3.6l-.5.3.1-8.2.2-8.7c0-.2 0-.3.9-.3zm-5 1.6c-.5 0-4.5 1.4-4.6 1.7a328.5 328.5 0 0 0-.2 19.8c.7 0 .8-.5.9-7.2l.2-9 .1-2.6c0-.2.8-.7 2-1.3 1.8-1 2.4-1.4 1.7-1.4zm6 0h2.4c3.2 0 4.4.2 4 .6-.1.2-.4.2-.5.1h-.1c0 .2 0 .4-.2.6-.2.2-.3.5-.2.6.1.1 0 .2-.1 0-.2 0-.3 0-.3.3s0 .4-.2.1c-.1-.2-.2-.2-.3 0l.1.5c.2 0 0 0-.2.2-.4.2-.5.4-.4.6v.3c-.2 0-.4.4-.7.8-.2.4-.7 1-1 1.2-.4.2-.5.3-.2.2.4 0 .4 0 .2.2l-.5.3a40 40 0 0 1-.6.3c.1.2-.5.7-.7.6v.2c.1.3 0 .4-.2.4-.3 0-.3-.6-.4-4zm17.3.3h2.4-2.4zm-2.7 0c.2.2.2.5 0 .7v-.6zm14.8.2h-4.1 4.1zm5 .2zm42.2 1.3c1.1 0 2.2.1 3.2.3 2.3.3 3.9 1 4.3 1.8.2.4.9 1 1.5 1.2 1.2.6 1.6 1 1.4 1.6a3 3 0 0 0-.3 1h-.5a17 17 0 0 0-10.3-1.3c-4.4 1-8.3 4-10.4 8.1-1.6 3.2-2 4.5-2 8.2 0 3.3.6 5.7 1.6 7.7.6 1.2.6 1.6 0 1.6-.5 0-.5 0-.2.2s.3.3 0 .3l-1 .1c-.3 0-.6 0-1-.7-.5-.9-.8-.9-3-.2-.5 0-.6 0-.9-.5a22 22 0 0 1 4.2-23.5 19 19 0 0 1 13.4-5.9zm-82.3.6-2 .6-1.6.6-.1 1.8-.2 7.6v5.6l.7-.1 2-.6 1.2-.4.2-1.7a148.1 148.1 0 0 0-.2-13.4zm43.3 0-.6.3a28 28 0 0 0-7.4 4.2 26.7 26.7 0 0 0-9.3 22.5l.1 2.8h-.7l-.8.1c-.1.2-.2.2-.2 0s0-.3-.2-.2c-.5.3-1.6.4-1.8 0a24.7 24.7 0 0 1 21-29.8zm7.8 1.3a2 2 0 0 0-1 .3c-.2.1-.2.2.2.2l.9-.2c.4-.2.4-.2-.1-.3zm-57.4.8-1.8.6-1.6.5v3.9l-.1 7.2-.2 3.3.6-.1 1.8-.4 1.3-.3.2-3.6c.2-6.2.2-11.2-.2-11.1zm91 2.2c1.6 0 3.2.2 4.6.7 1.8.7 2.1 1 2.1 1.7 0 .6 0 .7-.5.5-1.4-.4-2-.5-2-.2.1.2 0 .4 0 .4-.2 0-.4.4-.4.8 0 .3-.2.7-.4.9-.2.2-.2.2 0 0l-.1-.4c-.2 0-.3.2-.3.4s-.1.4-.3.4h.3c.6-.1.6 0 .1.2-.2.2-.3.5-.2.7.2.3.1.3-.2 0-.4-.3-.4-.3-.2 0 0 .4 0 .5-.2.3-.3-.1-.3-.1 0 .1.3.4.3.7 0 .7-.1 0-.2-.1 0-.3 0-.2 0-.2-.3 0-.3.3-.3.5-.1.7.1.2.2.4.1.6 0 .2-.1.2-.1 0 0-.3-.2-.4-.5-.4l-.2.1.2.2c.2.2.2.4 0 .9 0 .3-.2.5-.3.4v-.6c.2-.2.2-.6.1-.7v-.2l-.1.3c0 .2 0 .4-.2.4-.1 0-.2 0-.2.2v.8c0 .5-.1.6-.3.5-.2-.1-.1 0 .1.3.3.3.4.5.2.6l-.2.6c0 .3-.2.5-.3.6-.2.1-.2 0-.1-.2l-.1-.3-.2.5c0 .2-.2.4-.4.4s-.3 0-.2.2c0 .1 0 .2-.2.2l-.4.2c0 .5 0 .8-.2.6-.2 0-.3 0-.3.3 0 .2 0 .3-.2.2-.2-.1-.3.2-.2.8l-.2.2c-.5 0-.8 0-.6.3 0 .1 0 .2-.2.2s-.4.1-.5.3v-.3c0-.4 0-.5-.3-.4l-.5.2v.2c.2.2.1.3-.1.2-.2-.1-.4 0-.4 0 0 .2-.1.2-.3.1-.2 0-.1 0 .1.3.4.4.4.5-.1.5-.4 0-.4 0-.2-.2.3-.1.3-.2-.1-.1-.3 0-.5 0-.4.2l-.2.6c-.3.4-.3.4-.6 0-.2-.2-.3-.2-.3 0 0 .1-.1.2-.2.1l-.3.1.4.4c.2 0 .3.2.3.3-.1 0-.4 0-.6-.2-.5-.2-.8 0-.4.3.1 0 .1 0 0 0-.2 0-.4.1-.4.3 0 .1 0 .1-.2 0-.1-.3-.2-.3-.3-.1-.1.1-.1.3 0 .4.2.2-.4.7-.9.6l-.4.1c0 .2-.1.2-.2.2h-.3c0 .2 0 .3-.2.2-.1 0-.3 0-.5.2-.2.3-.2.4 0 .6.3.2.3.2 0 .2l.2 1.1c.4 1 .4 1 0 1.3-.3.2-.8.4-1.2.4-.5.2-.6 0-1.2-1-1-2.3-1.3-3.7-1.4-7.1 0-3.5.3-4.6 1.8-7.6 1.7-3.5 5-6.3 8.4-7.6 1.4-.4 3-.6 4.7-.6zm-68.5 3.4v2.4l.1 2.4h-.9c-.8-.1-.8-.1 0-.2l.7-.1v-2.3zm147.4 3a94.5 94.5 0 0 1-4.5 27.9l-10.2 6.3 1.8-20.4c.2-3.5 3.4-7.1 6.8-9.8 2.6-2 5.1-3.5 6.1-4zm-64.6 2.7.4.8.3 1c-.1 0-.2 0-.3-.3l-.3-1c-.2-.3-.2-.5-.1-.5zm-95.4.4 3.7.1 6.8.2c2.7 0 3 0 2.6.4-.2.3-1 .3-6.2.2h-6l-.1 4.1-.2 6.9c0 1.8 0 2.8-.2 3l-.5.2c-.2 0-.2-7.3 0-12.3zm1.8 1.6 3 .2c1.6 0 3 .2 3 .2v.5c-.2.3-.3.5-.2.6 0 .1 0 .2-.2 0-.1 0-.4.2-.5.5-.3.6-1.1 1.3-1.4 1.3-.2 0-.2.2-.2.5v.3a49.7 49.7 0 0 0-2.4 2.3c-.8.9-.8.9-1 .4l-.1-3.7zm94.4.2h.1v.5l-.1-.3v-.2zm.3.9v.5-.5zm-25.1 6.6-.3.2c-.3.3-.2.3 0 .2.3-.1.5 0 .5.1 0 .2 0 .2.2.1l-.2-.4-.2-.2zm-59 1.7.3.3-.2.1c-.2 0-.3-.1-.3-.2l.1-.2zm0 .8c.2 0 .3.5.2 1l-.1 1.4c0 .3-.2.5-.6.4-.4 0-.5 0 0-.3.2-.2.4-.6.4-1.5 0-.6 0-1.1.2-1zm-12.7 4.7h6.8c6 0 6.7 0 6.4.4-.2.2-1.2.3-6.3.3h-6v.9c0 4.8-.3 13.9-.5 14.1-.6.8-.7.1-.5-7l.1-8zm1.8 1.6h3.2c1.7 0 3.2.1 3.2.2.1.2-.3.7-.8 1.2l-.8 1c.1 0 0 0 0 .2a116.1 116.1 0 0 0-2.7 3c-.1 0-.2 0-.2.2s-.4.7-.9 1.1l-.9.8v-3.9zm77.7 5.2h.5c0 .1-.1.2-.4.1-.2 0-.3 0 0 0zm-66.9 3.3v.6-.6zm0 1c.1 0 .2 1 .2 2.2 0 1.9 0 2.2-.4 2.2-.2 0-.3 0-.2-.2l.2-2 .3-2.1zm142.1.2-.8 2h-2.3zm-100.8.4.1.2-.1.5a205.3 205.3 0 0 1-27.1 4.7c-8.5 1-10.5 1.2-15.4 1.4-5.5.1-5.6.1-5.6-.3 0-.5.2-.5 5-.7 2.6 0 6.2-.3 7.9-.4a416.1 416.1 0 0 0 27.8-3.7 158.2 158.2 0 0 0 7.4-1.7zm-.1 3.3c.3.3-.6.5-3.4 1l-7.9 1.5c-2.7.6-9.5 1.8-15.3 2.7l-10.4 1.6h-5.8c-4.7.1-5.9 0-5.9-.2s.5-.3 2-.3c7.1 0 9.7-.2 19.7-1.7a470.8 470.8 0 0 0 27-4.6zm4.3 2.5v2.2a20 20 0 0 1-.2 2.7s-.7.2-1.6.2c-2.4.2-2.5.3-2.3 1 .2.2.5 1.9.8 3.5.5 2.6.8 3.3 1.4 4.2l1 1.6c0 .3.2.5.4.5l-.8.2c-.9.1-1 .2-1 .7-.3 1.7-.4 2.2-.6 1.9l-.2-.2c0 .2.1.5.4.7.3.4.3.4 0 .4-.2 0-.3.3-.4 1l-.8.3c0-2.2 0-3-.4-3l-.2.2-.3-.4-.4-.1v-.4c0-1.2 0-1.3-.6-1.4-.4-.1-.6-.3-.5-.6l.8-3.3c0-.6.2-.9.5-.9.5 0 .8-.8.5-1.3-.1-.2-.2-.3-.2-.1 0 .1-.7.3-1.8.3-.9.1-2 .3-2.2.5-.3.1-1.4 1-2.4 2s-2.5 2.2-3.4 2.8l-1.4 1h-.8l.2-1.3c0 .3 0 .5.3.5s1.1-.3 1.4-.5l.4-2c.4-2 .4-2.2 0-3-.3-.9-.4-1-.7-.6-.3.4-.9 2.6-1.2 4.2v-.6l-.6-.6a103.4 103.4 0 0 1 .9-4l-4 .7c-2 .5-3.8.9-3.9.8l-.3-1a3 3 0 0 0-1.3-1.7c-1.2-.9-1.3-.9-.9 0 .4.6.4.7 0 1.3-.1.4-.4.6-.5.6-.2 0-.5.2-.8.5l-.4.6c.1 0-.3.5-.9 1l-1 1.3-.7.6c-.4.2-.7.6-.7.8 0 1-2.5 2.3-3.4 1.6-.1-.1-.4-.2-.5 0-.1 0-.6-.2-1-.6l-.7-.6.1.8.2.8-.5-.6c-.4-.5-.7-.5-3.6-.6-2.7 0-3.1 0-3.3.3-.2.3-.3.2-.6-.5l-.4-1v-.4l-.1-.4c-.1-1 0-2 .3-2.8l.5-1h-2.5l-1.2 1.7a66 66 0 0 0-2 2.6c1.4-2.3 1.8-3.4 1.4-4.6-.1-.4 0-.5.1-.4.1.1.8-.4 1.5-1.1 1.4-1.5 2-1.6 3.6-.8l1 .4 1.1-.5c1-.5 1.3-.5 7-.5 3.2 0 6.2.1 6.5.3.4.1 1.2 0 2.5-.1l3.5-.4c.8-.1 1.7-.3 2-.5.3-.2 1.3-.3 2.7-.3 1.7 0 2.4-.1 3-.4l.7-.6c0-.1 0-.2.2-.2l1.7-.6c1.2-.6 1.4-.6 2.3-.4a4 4 0 0 0 1.8 0h1c0 .1.2.3.6.5.5.2 1 .2 2 0 .8 0 1.7-.3 2.2-.3.9-.2 1.4-.7 1.4-1.5l.2-1v-.1zm-9.6 3.8c-.3 0-.4.6-.5 3.4 0 3.2 0 3.4.4 3.2.6-.4 1.3-1.1 1.3-1.6l.1-1.8c0-.8.2-1.3.3-1.2.4.2.3-.2-.2-.8-.5-.7-1-1.1-1.4-1.2zm-1 0c-.3 0-.7.2-1.3.5-.8.5-2.7 3.2-2.5 3.6l.7.4c.4 0 .7.1.7.2l.7-1a7 7 0 0 1 1.3-1.6c.5-.4.7-.7.7-1.3 0-.5-.1-.7-.4-.7zm-44.2 1.3c1.2 0 2.3.3 2.8.8.7.6.4 2.1-.4 2.2-.3.1-2 1.8-1.9 2l-1.3 1.5c-.7.7-1.6 1.6-1.8 2-.6.6-1.5.8-2 .3l-.6-.2-.2-.2c-.2-.3-.3-.4-.5-.1 0 .2-.2.1-.3-.3-.1-.5-.3-.6-1-.6-.6 0-1.2 0-1.3.2-.3.2-.4.1-.4-.2 0-.2 0-.6-.2-.7-.3-.3.1-2.1.9-3.6.5-1 .5-1.1.1-1.3-.3-.2-1.7-.3-3-.3h.4l.8-.6c.2 0 .3.2.8.2.7 0 1.4 0 1.6.2.3.1.6 0 1-.3 1-.6 2.3-1 3-.9.3.1.7.2.8.1a179 179 0 0 0 2.7-.2zm174.3.6zm-165 3.4v1.4c0 .7-.2 1.3-.3 1.4h-.1a1 1 0 0 0-.8-.1 1.1 1.1 0 0 0-.8 1c0 .5 0 .8.2 1.3a1 1 0 0 0-.7-.3h-.2v-.4c-.2-.6.4-1.9.9-1.9.2 0 .3-.2.3-.4s.3-.8.7-1.2zm-20 .4h.2c.2.1.2 1 .1 3v1.6c0-.2-.2-.3-.5-.4h-.5l-.1-1.3.4-2.5c.2 0 .4 0 .4-.2v-.2zm58 1.3c.4 0 .4 0 0 1-.4 1.3-1 1.5-1 .3 0-.8.4-1.3 1-1.3zm102.3.1 11.8 2.5-11.1 51.4 8.2 1.7-2.4 11-8.2-1.8-3.7 17.4-13.4-2.9 3.8-17.4-33.8-7.3-4-10.9 9.8-8 23.3-19.3zm30.2.2zm-135 1.8v.9c0 .5-.2 1-.3 1-.1.1-.3.5-.3 1 0 .6 0 .6-.5.2-.7-.4-1-.1-.7.8.1.6 0 .7-.8 1H16658.5c.1-.8.3-1.3 1-1.8l2.4-1.8zm-54.8 1 .1.1c.1.2.1.4 0 .4l-.1-.3v-.2zm46.5 0v.3h-1l-2.7-.2h2l1.7-.1zm-32.5.4-.1.4c-.1.3-.3.5-.4.5l.2-.5.3-.4zm-15.1 0 .4.3.3.3c0 .2 0 0 0 0v.1s0 .2-.3.4l-.6.1c-.3-.2-.3-.4-.2-1.1h.4zm2.5.2h.5l.4.8-.2.2-.6.2c-.2-.1-.3-.4-.2-1l.2-.2zm17.8 0v1.2c0 1.7.3 2 .7.9l.5-.7c.3 0 .3 0-.2 1.3-.3.6-.5 1.1-.4 1.2l.6.1v1.6c-.3 0-.5 0-.5.2v.6a15 15 0 0 0-.7-.4v-.3l-.7-.7.5-.6v-.5l-.1-1-.4-1v-.3c.1 0 .3-.2.3-.4 0-.3-.3-.5-.7-.6l-.1-.3v-.1zm18 .3 2 .1h1.3l-.1.5h-.1l-.3.4-3.3-.2v-.5l.5-.3zm-37.4.3v.6c-.1.6 0 .7.5.7.3 0 .7.1.8.3 0 .2.2.4.3.4v-.3l-.1-.5c.3 0 .6 0 .8-.2-.1 0-.2.7-.2 1.6 0 .8-.2 1.6-.3 1.7v.6l-1.7.8c-.2-1.4-.4-1.9-.8-2-.5-.1-.5-.2-.3-.3.3-.2.3-.3 0-.6l-.9-.5h-.4v.4c0 .6.9 1.3 1.4 1.2l.1.3c0 .2 0 .3-.2.2-.2-.1-.2 0-.1.2l-.3 1.8 1.4-.7c-.8.4-1.7.8-2.4 1.3l-1-.4c.5 0 .8-.1.7-.3 0-.2-.5-.3-1.6-.2h-.4l-1.2-.4h.6c1.6 0 2.7-.1 2.7-.3l-4.7-.2-1.2-.3c4.5 0 5.9 0 5.9-.4 0-.2-2.2-.2-6.7-.2H16595a78 78 0 0 1 5.1-.2 29 29 0 0 0 5.8-.3l-6-.3h-6 5.7l6-.3c.2-.1-2-.3-5-.3l-5.5-.1h5.3c3.5-.1 5.2-.2 5.2-.4s-1-.2-3.2-.2h-3.2c0-.2 1.5-.3 3.4-.3h3.4l-4.2-.2-4.2-.1h4c2.1 0 3.4-.2 3.8-.3h.8c.2.5.8.5 1.2 0l.2-.1h.1l.5-.4.1-.3.2-.5zm15.3.4v.6h-.1v-.6zm-38 .2-.3.2.2-.2zm25.3 0c.2.4.3.8.3 1.5v1.1l-.2-1c-.1-.7-.3-1.2-.4-1.2h.1l.2-.4zm-20 0-.6.5c-1 1-1 2-.1 3h-3.8.3c0-.2-1.3-.3-3.3-.3h-1.4l.6-.3h1.4c1.5 0 2.7 0 2.7-.2l-2.8-.2.9-.3c.9 0 1.7 0 1.8-.2l-1-.1.7-.1c.2 0 .3-.1.5-.3.5 0 .8-.2 1.2-.3l1.2-.5 1.8-.7zm73.6 0c.1.1 0 .7-.2 1.4l-.3 1.2 1.1.1v.6l.1.8-1.4-.4-1-.1v-.4a1 1 0 0 0-.5-.8l-.2-.2c.1-.4.7-.8 1.3-.8.4 0 .6-.2.8-.7l.3-.6zm52 .5.4 3.5-.1 1a15.2 15.2 0 0 1-.4-.3v-.6h-.3l.2-.5v-1.1l-.1-.8.4-1.2zm-2.4 0 .2 2h-.8l.2-1.2.4-.7zm-102 .3c.2 0 .3.3.3.6s.3.4 1.6.4l2.1.1.7.2v1.4h-.5c0-.4-.1-.5-.6-.5-.6 0-.7 0-.7.4v.1h-.7l-.6.1c.2-.5-.3-1-.8-1-.6 0-.6.3 0 .9 0 .1.1.2.3.2l-1.2.2c0-1 0-2.4-.3-2.7-.2-.3 0-.5.4-.4zm-25 0c0 .3-.1.5-.2.5l.2-.4zm10.6.6 1 .1c0 .1-.5.2-1.1.2-.6 0-1.1 0-1-.1 0-.2.6-.2 1.1-.2zm23.1.3-.3.6c-.1.4-.4.7-.5.7-.3 0-.2-.2.3-.8zm28.9 0 2.6.1 2.2.1v1h-.9c-1.8 0-3.6 0-5.4.2.4-.3.8-.6 1-1zm-40.8.4c-.5 0-.7 0-.7.4 0 .3.2.5.5.5.2 0 .5 0 .6.2l.5.2c.2 0 .3 0 .3-.2 0-.1-.1-.2-.3-.2-.2 0-.2-.1 0-.3.4-.2.4-.2 0-.4l-1-.2zm60 .5c.2 0 .3 0 .3.3 0 .1 0 .2-.2.2v-.5zm-89.4 0-.2.2.2-.1zm54.5.7.2.5V-4087.9l-.6.3v-.9c0-2.9.1-3.4.4-3.3zm-62.9.2zm132.6 0h.5v.1h-.7l-.4.1v-.2h.6zm-9.5 0v3.9l-.9.6c-1.2-1-2.5-2-4-2.7l.2-1.3v-.4h2.4zm-11 0zm-38.5.1-.6.1h.6zm28 .1zm-39.6.4v.2h-.1l.1-.2zm3 .1h.8l2.7.2 1.2.1c-1.6.5-3.2 1-4.7 1.7v-.6zm-7.4 1.2.2.1h-.2zm2.3.3h.6v.5h-.2l-.3-.1v-.3l-.1-.1zm134.3 5-36.7 30 28.8 6.3zm-111.7 7.3a50.4 50.4 0 0 1 7.5.7c2.3.4 4.4 1 6.4 1.6v7a29.2 29.2 0 0 0-6.3-1.8c-2.2-.4-4.6-.6-7-.6-5.9 0-10 1.5-12.5 4.6a22 22 0 0 0-3.6 13.6c0 5.5 1.4 9.7 4 12.6 2.6 2.8 6.7 4.3 12.2 4.3a33 33 0 0 0 13.2-2.3v7a39 39 0 0 1-13.8 2c-7.8 0-13.7-2.1-17.7-6.4-4-4.2-6-10-6-17.2 0-5.2 1-9.6 2.6-13.3 1.7-3.8 4.3-6.7 7.8-8.7 3.4-2 7.8-3 13.2-3zm-61.5.7 2.6.2c2.5.2 4.6.9 6.4 1.9 2.3 1.4 4 3.2 5.2 5.6 1.1 2.4 1.7 5 1.7 8a15 15 0 0 1-4.4 11.4 16 16 0 0 1-11.8 4.2h-12.7v16h-8v-47.3zm22.2 0h8v47.2h-8zm69 .1v25.6l16.8-21.2 3.4-4.3h7.4l-10.8 13.7-4.6 5.7 17.8 27.7h-8.5l-13.8-21.9-7.7 9.7v12.2h-8v-47.2zm-104.2 6.2v18.7h11.3c3.2 0 5.6-.8 7.2-2.5a9.3 9.3 0 0 0 2.4-6.7c0-3-.8-5.4-2.4-7-1.5-1.7-3.8-2.5-6.8-2.5zm146.9 58.6a21.6 21.6 0 0 1 6 .8v3.2c-1.7-.6-3.5-1-5.5-1-1.6 0-2.9.3-3.8.7-.8.4-1.3 1.2-1.3 2.3 0 .6.2 1.1.5 1.5.3.4.8.8 1.6 1 .7.3 1.8.7 3.2 1 1.7.5 3 1 4 1.6a5 5 0 0 1 2 2.1c.4.8.6 1.7.6 2.7 0 2-.7 3.4-2 4.5-1.5 1-3.6 1.6-6.4 1.6-2.8 0-5-.4-6.7-1v-3.3a20.5 20.5 0 0 0 6.4 1.2c1.7 0 3-.2 3.8-.6.8-.4 1.3-1.2 1.3-2.4 0-.7-.2-1.3-.6-1.7a4 4 0 0 0-1.7-1.1c-.8-.4-2-.7-3.4-1a11 11 0 0 1-4.8-2.3c-1-1-1.4-2.2-1.4-3.8 0-2 .7-3.4 2-4.4 1.4-1.1 3.4-1.6 6.2-1.6zm-174 .3h3.3l11.1 15.7v-15.7h3.6v21.4h-3.2l-11.1-15.7v15.7h-3.6zm22.2 0h14.9v2.8h-11.3v6.5h10v2.8h-10v6.5h11.3v2.8h-14.9zm17.6 0h3.6l3.6 16 4-13.4v-2.6h3l4.5 16 3.7-16h3.5l-5 21.4h-3.5l-4.3-15-4.5 15h-3.6zm37 0h3.7v9.3h10.3v-9.3h3.6v21.4h-3.6v-9.3h-10.3v9.3h-3.6zm29.3 0h4l8.1 21.4h-3.7l-2.1-5.6h-8.6l-2.1 5.6h-3.8zm15.7 0h3.7l6.7 13.8 6.8-13.8h3.7v21.4h-3.6v-15.5l-5.8 11.8h-2.1l-5.8-11.8v15.5h-3.6zm25 0h9.6a8 8 0 0 1 4 1c1 .5 1.9 1.4 2.4 2.5.5 1 .7 2.3.7 3.6 0 2.1-.6 3.9-2 5.1-1.2 1.3-3 2-5.2 2h-5.8v7.2h-3.6zm38 0h3.6v9.3h10.3v-9.3h3.6v21.4h-3.6v-9.3h-10.3v9.3h-3.6zm21.7 0h3.6v21.4h-3.6zm7.8 0h9.8c2.4 0 4.1.6 5.2 1.9a7.1 7.1 0 0 1 1.7 5c0 1.4-.4 2.7-1.1 3.8-.8 1-1.9 1.8-3.3 2.2l1 1 .6 1.3 2.7 6.2h-3.7l-2.6-6c-.3-.6-.6-1-1-1.2-.3-.3-.8-.4-1.7-.4h-4v7.6h-3.6zm20.2 0h15v2.8h-11.4v6.5h10.1v2.8h-10v6.5h11.2v2.8h-14.9zm-84 2.8v8.5h5c1.5 0 2.6-.4 3.3-1.1.8-.8 1.1-1.8 1.1-3 0-1.4-.3-2.5-1-3.3-.7-.7-1.8-1-3.1-1zm67.4 0v8h5.3c1.3 0 2.3-.2 3-.9.8-.6 1.2-1.7 1.2-3 0-2.7-1.3-4-4-4zm-109.8.5-3.7 9.8h7.4z" style="color:#000;fill:url(#b);fill-opacity:1;stroke-width:2.45097;stroke-linecap:round;stroke-linejoin:round;-inkscape-stroke:none;paint-order:fill markers stroke" transform="translate(-16539.4 4274.1)"/></svg>