<svg xmlns="http://www.w3.org/2000/svg" xmlns:xlink="http://www.w3.org/1999/xlink" xml:space="preserve" width="969.9" height="1159" viewBox="0 0 256.6 306.6"><defs><linearGradient id="a"><stop offset="0" style="stop-color:#00589c;stop-opacity:1"/><stop offset="1" style="stop-color:#00f8e1;stop-opacity:1"/></linearGradient><linearGradient xlink:href="#a" id="b" x1="11874.5" x2="12103.4" y1="1190" y2="920.6" gradientUnits="userSpaceOnUse"/></defs><path d="M12002.8 891.5c-69.2 0-125 55.8-125 125v19.2a125 125 0 0 0 7 41.1l-.5-.1a15.2 15.2 0 0 0-6.8 12.6v47.1c0 2.8.8 5.5 2.3 7.9a13 13 0 0 0-5.3 10.1v21.4c0 3 1.1 5.7 3 8 1.6 2 9 9.3 11 11 2.2 1.8 5 3 8 3h3.6a13 13 0 0 0 4.7-2 13 13 0 0 0 6.4 2h3.2c1.5-.3 3-1 4.2-1.7 1.3.8 2.7 1.4 4.2 1.7h14.9c2-.3 3.8-1 5.4-2.2a13 13 0 0 0 6.4 2.2h3.6c1.6-.2 3-.7 4.5-1.5a13 13 0 0 0 4.3 1.5h3.6a13 13 0 0 0 11.6-8.5 13 13 0 0 0 6.7 7.2 25 25 0 0 0 19.5-.8 13 13 0 0 0 5 2.1h15c1.2-.3 2.5-.8 3.7-1.6 1.1.8 2.4 1.3 3.7 1.6h3.6c1.4-.3 2.7-.9 3.9-1.6a13 13 0 0 0 5.4 1.6h3.7a13 13 0 0 0 4.9-1c3.2.9 6.2 1.3 9.3 1.3 3.5 0 7.4-.4 11.2-2.4a13 13 0 0 0 5 2.1h14.8a13 13 0 0 0 7.3-3 13 13 0 0 0 7.2 3h3.6a13 13 0 0 0 12.9-12.9v-4.5l6-10.5a13 13 0 0 0-8-18.8 13 13 0 0 0-.8-2.3c.5-.8.9-1.7 1.1-2.6l2.4-10.9c1.2-5.6-.9-11.4-5.3-15l8.2-38c1-5-.3-10-3.7-13.6a125 125 0 0 0 4.4-33v-19.2c0-22.3-5.8-43.3-16-61.4l-1.7-3a124.7 124.7 0 0 0-107.2-60.6zm0 7.2c15.6 0 30.5 3 44.1 8.5l.2.3c1 1.7 2 3.4 2.7 5 .7 1.5 1 2.8 1 3.3-.5 1.4-1 2.2-1 2.1a1 1 0 0 0 .6 1.8c1 .1 4.8.7 7.8 2.1 1.4.7 2.7 1.7 3.3 2.7.5 1 .6 2-.2 3.7l-.1.1a29.5 29.5 0 0 1-3.2 2.6c-1 .7-2 1.4-3.2 2a98.5 98.5 0 0 0-131.8 141.3c-1.3.2-2.8.3-4.2.2l-1-.2H11916.2a46.9 46.9 0 0 1-4.4-.9h-.4l-.1-.1h-.4l-.4.4a.7.7 0 0 0 0 .4h-10.4a117.8 117.8 0 0 1 102.8-175.4zm41 .9zm0 1v.1zm6.2 8c22.4 9.7 41.1 26.2 53.6 46.8l-2.2-.4c-.9 0-1.5.4-2 .8l-1.2 1.7c-.9 1.4-1.8 3.2-2.7 5l-2.3 4.7-.6 1.1c-.6-.3-1-.6-1.6-.6-.9 0-1.7.3-2.6.7-1.7.8-3.5 2.2-5.2 3.8-2.5 2.2-4.2 4.3-6 6.4l.9-4.7c.6-4.7.8-10.4-1.9-14.6a1 1 0 0 0-.4-.4c-3.5-1.8-7.9-.7-11.2.5l-4 1.6c0-.5 0-1-.2-1.4a7.7 7.7 0 0 0-2.4-2.1 40.8 40.8 0 0 0-16.5-4.4l-2.3.1c4.5-3.8 8.7-8.1 12-15.7.3-.4.1-.8 0-1.2.3 0 .6.2 1 .1 2.3-.8 4.9-2.4 7-3.9a48.4 48.4 0 0 0 3.4-2.7l.4-.5a1 1 0 0 0 .2-.2c1-2.1 1-4.1 0-5.7a9.4 9.4 0 0 0-4.2-3.4c-2.8-1.4-5.5-1.8-7-2 .2-.5.5-.7.8-1.7a1 1 0 0 0 0-.3c.2-1.3-.4-2.7-1.1-4.4-.5-1-1-2-1.7-3zm-47.2 13.2a94.3 94.3 0 0 1 45.3 11.7c-.1.3-.2.7-.1 1 0 .3.1.5.3.7l.7.9.4.5c-3.9 9-8.6 13.3-14.3 17.7-.2.1-.5.3-.5 1 0 .2.2.6.4.7.1.2.3.2.4.3h1a1 1 0 0 0 .6-.4c.2-.1.6-.4 1.4-.5a14 14 0 0 1 3.1-.2 39 39 0 0 1 15.5 4c.8.6 1.4 1.1 1.7 1.6.3.4.4.6.3.9v-.1l-.2.4a1.1 1.1 0 0 0 1 1.3h.4c.5 0 .8-.2 1.3-.4l3.9-1.6c3-1 6.6-1.7 9.2-.6 2 3.5 2 8.6 1.5 13a52.5 52.5 0 0 1-1.6 7.5l-.2.5v.7l.5.6a1 1 0 0 0 1.2-.2c2-2 5.3-6 8.6-9 .7-.7 1.3-1.1 2-1.6a94.3 94.3 0 0 1 10.6 51v-.2a46.4 46.4 0 0 0-5.7-7.8c-5-5.8-12.3-12.9-20.6-20-16-13.7-35.7-27.4-50.1-32.3 1.8-8.1-2-15.8-8.4-21.1a37.7 37.7 0 0 0-24.5-9c-4 .2-7.8 1.3-10.9 3.5-2.8 2-4.8 5.1-5.9 9-5.3 1.8-11.2 2.8-16.7 5.5l-.4.3-.4.4-.3.7v.6a269.2 269.2 0 0 0 .6 1.2c.3.3.4.3.5.3l.5.3 1.4.5a148.2 148.2 0 0 0 8.8 3c1.4.3 2.3.6 3.3.7l2.6.1c.7 3.8 1.9 8 3.7 12.7-3.9 15 2.1 29.4 12.4 40.7a85.2 85.2 0 0 0 20.3 16c2.6 6.2 5 9.8 7 11.5l.6 7.8.3 2.3-9.4-4.2-32.9-25.5-3.5-3.7-7.4 5.2 2 5-14.9-2.3-3.7 18.2 26.5 2.7 25.7 21.3 13.3 4.6c.7 1.2 1.6 1.8 2.7 1.3l.4-.3 7.4 2.6c-2.5.7-4.8 2-6.6 3.8a15.2 15.2 0 0 0-10-4.5h-8c-2 .1-4 .7-6 1.6-1.8-.5-3.6-1.1-5.5-1.4-1.3-.3-2.6-.4-4-.6l-1-.6s0 .1 0 0v-.5l.1-.8v-.5l-.6-.6h-.7l-.2.2-.2.3v.3a11.9 11.9 0 0 1-.5 1.1v.1c-1.5.4-3.6.6-5.3.5a41.5 41.5 0 0 1-3-.1c-1.2-.7-1.6-1.4-1.7-2.2 0-.8.3-1.9.9-3 1.1-2 3.2-3.9 3.7-4.4a.7.7 0 0 0-.4-1.2l-1.5-.9a7 7 0 0 1-.7-2.4 38.7 38.7 0 0 1-.6-7.8V1049.4l-.1-.2a.7.7 0 0 0-.1 0 .7.7 0 0 0 0-.1h-.1l-.1-.2h-.2a.7.7 0 0 0-.2 0H11968.6l-.2.1s-.1.2-.3.2a355.5 355.5 0 0 1-4 2.9l-3.6 2a7 7 0 0 1-2.3.9l-1.6-.7a.7.7 0 0 0-1.2.4c-.1.7-.4 3.5-1.4 5.7-.5 1-1.1 2-1.8 2.4-.7.4-1.5.5-2.7 0v-.1l-.6-.6a33 33 0 0 1-4.1-6.2v-.1l.3-.5.4-.6.2-.2.1-.2v-.4l-.1-.3-.3-.2c-.2-.1-.5-.2-.7-.1l-.5.2-.6.5-.4.4c-.1 0 0 0 0 0a30 30 0 0 1-13-10c-.1 0-.2-.3-.7-.3-.3 0-.5.2-.6.3l-.2.3v.7a.7.7 0 0 0 .3.5l.5 1 .2 2.2a28.2 28.2 0 0 1-2.6 11.2l-1 1.3c-.4.2-.5.2-.8.1h.1-.3c-.2 0-.4 0-.6.2-.2.1-.3.4-.3.5v.3l.3.9 1.2 2.7c.8 2 1.3 4.4.8 6.2a94.6 94.6 0 0 1 76.3-150.7zm33.2 32.5-.6.3zm65 2.8a1 1 0 0 0 .2 0 8 8 0 0 1 4.2 1.5 117.3 117.3 0 0 1 7.5 99.8l-.1-.4c-.9-.9-1.8-1.6-2.8-2.3l-2.8-2.6c-3-2.8-6.4-5.7-10-8.8a98.3 98.3 0 0 0-7.5-74.2l-.4.2c.7-.4 1.3-.5 1.7-.5.5 0 .8.1 1 .4l.9.3.6-.2.6-.6 1-1.5 2.3-4.8a52.2 52.2 0 0 1 3.6-6.1c.2-.3.3-.2 0-.2zm7.3 4.6a1 1 0 0 0 .2.8 1 1 0 0 1-.2-.8zm-47.6.5.1.1v-.1zm49.5.2a1 1 0 0 1-.7.5 1 1 0 0 0 .7-.5zm-13.8 68.3a94 94 0 0 1-2.3 11l-12.2-10.3c2.8.2 6 .5 8 .4a25.4 25.4 0 0 0 6.5-1zm-74.4 4.4 3.5 1.3a29.2 29.2 0 0 0 7.8 9.5l.2 1.4.7 9 .2 2-9.3-4c-.1-.9-.9-3.6-3.8-4.8 0-1.1-.6-6.4-1-10.2.7-1 1.3-2.5 1.7-4.2zm19.9 7.8 6 3.6a158 158 0 0 0 22.4 11.6l3.3 1.2-13 10.8-16.4-7.4c-.2-1-1.1-3.4-3.7-4.4l-.7-5.1c-.4-1.6-.7-4-1-6.3 1-.3 1.9-1 2.5-1.8.4-.6.4-1.5.6-2.2zm-112 1.8.3.4c-.2 0-.2-.3-.3-.4zm1 2.7c3 3.2 6.1 6 11.6 8.3h.9c0 .2-.2.4 0 .6.6 1.7 1.8 3.5 2.9 5a35 35 0 0 0 2 2.4l.4.3a.7.7 0 0 0 .1 0c1.6.8 3 .7 4.1 0 1.1-.7 1.9-1.9 2.4-3 1-2.2 1.1-4 1.3-5.2l1.2.6a.7.7 0 0 0 .2 0c1 0 2-.4 3.2-1a39.8 39.8 0 0 0 7-4.4v.2l.1 3.9.5 4.2c.2 1.3.5 2.3 1 3a.7.7 0 0 0 .2.2c.7.5.9.5 1.3.7-.9.8-2.3 2-3.4 4a6.7 6.7 0 0 0-1 3.8c0 1 .6 2 1.5 2.8-4.9.7-9.7 2.1-14.1 4.7l-.2.1a15.2 15.2 0 0 0-10.2-4.6h-8c-2.4.2-4.8.9-7 2.2l-.9 2.6-4.3-3.2c1.4-.3 2.6-.7 3.7-1.5a.7.7 0 0 0 .3-.3c1.2-2.6.3-5.6-.6-8l-1.2-2.8c.3-.1.7 0 1-.2.5-.4 1-1 1.4-1.8a29.3 29.3 0 0 0 2.8-12c0-.5 0-1-.2-1.6zm38.2 1.5zm-.9.3zm0 0a.7.7 0 0 0 0 .1zm0 .2a.7.7 0 0 0 0 .1.7.7 0 0 0 .2.5h-.1l-.1-.3V1049.4zm1.4.1zm-.8 0-.2.6zm.2.7a.7.7 0 0 0 .2 0h-.3a.7.7 0 0 0 .1 0zm-44 13h-.1zm164.7 2.5 11.8 2.6-11.1 51.3 8.2 1.8-2.4 10.9-8.2-1.8-3.7 17.5-13.4-3 3.8-17.4-33.7-7.3-4.1-10.8 9.8-8 23.3-19.3zm-2.8 15.5-36.7 30.1 28.9 6.3zm-111.7 7.4a50.4 50.4 0 0 1 7.5.6c2.3.4 4.4 1 6.4 1.7v7a29.2 29.2 0 0 0-6.3-1.8c-2.2-.5-4.6-.7-7-.7-5.9 0-10 1.6-12.5 4.7a22 22 0 0 0-3.6 13.5c0 5.6 1.4 9.8 4 12.6 2.6 2.9 6.7 4.3 12.2 4.3a33 33 0 0 0 13.2-2.3v7a39 39 0 0 1-13.8 2c-7.8 0-13.7-2.1-17.7-6.3-4-4.3-6-10-6-17.3 0-5.1 1-9.6 2.6-13.3 1.7-3.8 4.3-6.6 7.8-8.6 3.4-2 7.8-3.1 13.2-3.1zm-61.5.7 2.6.1c2.5.3 4.6.9 6.4 2 2.3 1.3 4 3.2 5.2 5.6 1.1 2.3 1.7 5 1.7 8a15 15 0 0 1-4.4 11.3 16 16 0 0 1-11.8 4.3h-12.7v15.8h-8v-47.1zm22.2 0h8v47.1h-8zm69 0v25.7l16.8-21.3 3.4-4.3h7.4l-10.8 13.7-4.6 5.8 17.8 27.7h-8.5l-13.8-22-7.7 9.8v12.2h-8v-47.3zm-104.2 6.2v18.8h11.3c3.2 0 5.6-.9 7.2-2.5a9.3 9.3 0 0 0 2.4-6.8c0-3-.8-5.3-2.3-7-1.6-1.7-3.9-2.5-7-2.5zm152.8 58.6a21.6 21.6 0 0 1 6 .9v3.2c-1.6-.7-3.5-1-5.5-1-1.6 0-2.8.2-3.7.6-1 .4-1.3 1.2-1.3 2.3 0 .6.1 1.2.4 1.6.3.4.9.7 1.6 1l3.2 1c1.7.4 3 1 4 1.5a5 5 0 0 1 2 2.2c.5.8.7 1.7.7 2.7 0 1.9-.7 3.3-2.1 4.4-1.4 1-3.5 1.6-6.4 1.6-2.7 0-5-.3-6.6-1v-3.2a20.5 20.5 0 0 0 6.3 1.2c1.7 0 3-.2 3.8-.6.9-.4 1.3-1.2 1.3-2.4 0-.7-.2-1.3-.5-1.8a4 4 0 0 0-1.8-1.1c-.8-.3-2-.7-3.4-1a11 11 0 0 1-4.8-2.3c-1-1-1.4-2.2-1.4-3.8 0-1.9.7-3.3 2-4.4 1.4-1 3.5-1.6 6.2-1.6zm-166 .3h3.1l11.1 15.8v-15.8h3.6v21.4h-3.2l-11-15.7v15.7h-3.7zm26.2 0h14.9v2.9h-11.3v6.4h10v2.8h-10v6.5h11.3v2.8h-15zm21.7 0h3.6l3.6 16 4-13.4v-2.6h3l4.5 16 3.7-16h3.5l-5 21.4h-3.5l-4.2-15-4.6 15h-3.6zm52 0h3.7v15.4c0 2-.6 3.6-1.8 4.7-1.1 1-2.9 1.6-5.2 1.6-1.8 0-3.4-.2-4.6-.7v-3a11 11 0 0 0 4 .7c1.5 0 2.5-.3 3-1 .6-.5 1-1.5 1-2.9zm11.8 0h15v2.9h-11.4v6.4h10v2.8h-10v6.5h11.3v2.8h-14.9zm22.4 0h9.8c2.4 0 4.1.7 5.2 1.9a7.1 7.1 0 0 1 1.7 5c0 1.5-.4 2.8-1.2 3.8-.7 1-1.8 1.8-3.2 2.2l1 1 .6 1.3 2.7 6.2h-3.7l-2.7-6c-.2-.6-.5-1-.9-1.2-.3-.2-.9-.4-1.7-.4h-4v7.6h-3.6zm47 0h14.8v2.9h-11.3v6.4h10v2.8h-10v6.5h11.3v2.8h-14.9zm21.6 0h3.8l5.7 10.4 5.7-10.4h3.7l-7.6 13.5v7.9h-3.6v-8zm-65 2.9v8h5.3c1.3 0 2.3-.3 3-1 .8-.6 1.2-1.6 1.2-3 0-2.7-1.3-4-4-4zm-18 35.7z" style="color:#000;fill:url(#b);fill-opacity:1;stroke-width:2.45098;stroke-linecap:round;stroke-linejoin:round;-inkscape-stroke:none;paint-order:fill markers stroke" transform="translate(-11874.5 -891.5)"/></svg>