<svg xmlns="http://www.w3.org/2000/svg" xmlns:xlink="http://www.w3.org/1999/xlink" xml:space="preserve" width="981.9" height="1159" viewBox="0 0 259.8 306.6"><defs><linearGradient id="a"><stop offset="0" style="stop-color:#f45c15;stop-opacity:1"/><stop offset="1" style="stop-color:#fff031;stop-opacity:1"/></linearGradient><linearGradient xlink:href="#a" id="b" x1="25685.5" x2="25917.6" y1="-2157.1" y2="-2157.1" gradientTransform="translate(-11501.5 -2606.1) scale(1.077)" gradientUnits="userSpaceOnUse"/></defs><path d="M16287.5-5064c-69.2 0-125 55.8-125 125v19.3c0 14.3 2.4 28 6.8 40.8a15.2 15.2 0 0 0-6.8 12.7v47.2c0 2.5.7 4.9 2 7a13 13 0 0 0-6.5 11v21.3c0 3.2 1.2 6.2 3.2 8.4 1.7 1.9 8.5 8.6 10.3 10.3 2.3 2 5.2 3.3 8.5 3.4h3.6c1.6-.4 3.2-1 4.6-2a13 13 0 0 0 6.5 2h3.2c1.5-.4 2.9-1 4.2-1.8 1.2.8 2.6 1.4 4.1 1.8h15c1.9-.4 3.7-1.1 5.3-2.3a13 13 0 0 0 6.5 2.3h3.6c1.5-.3 3-.8 4.4-1.5 1.4.7 2.9 1.2 4.4 1.5h3.5c6 0 11-4 12.5-9.8h.4a13 13 0 0 0 11.5 9.8h3.6c2.5-.3 5-1.3 6.9-2.9a13 13 0 0 0 6.9 2.9h3.6c1.4-.4 2.8-1 4.1-1.8 1.3.8 2.7 1.4 4.2 1.8h14.9c1-.3 2-.7 2.9-1.2l3 1.2h4.3c2 0 3.8-.5 5.6-1.4a13 13 0 0 0 5.5 1.4h4.2a13 13 0 0 0 4.8-1l2.3 1h3.6a13 13 0 0 0 6.4-2.7 26 26 0 0 0 17.2 2.6c1.7-.2 3.3-.6 5-1.1l1.4-1c3.6 1.7 7.5 2.5 11 2.5 5.7 0 12.4-1.8 17-6.7 4.8-5.1 6-11.5 6-17.2a24 24 0 0 0-6-17.3c-1.7-1.8-3.6-3-5.6-4l-1.2-2.1c.9-1.4 1.6-3 2-4.6l2.3-10.9c1.2-5.6-.8-11.4-5.3-15l8.3-38.1c1-5.2-.6-10.3-4-13.8 2.8-10.4 4.3-21.4 4.3-32.7v-19.3c0-69.2-55.8-125-125-125zm0 7.2a117.8 117.8 0 0 1 110.3 159.3l-.7-.6c-2-2-4.5-3.4-7.4-4l-10.1-2.2a97.6 97.6 0 0 0 4.8-17.4c1.3-1.6 2.4-3.1 3.4-4.8 2.2-4 3.1-7 4.1-14.6.9-6.5-.2-14.3-2.8-20a22.4 22.4 0 0 0-6.7-8.5l-2.4-1.9.6.5a98.5 98.5 0 0 0-133.9-57.6c-.6-1.2-1.3-2.4-1.9-3.1l-.9-1.3c-1.2-2-2.6-3.3-5.4-4.6l-1.3-.7c-1-.6-2.5-1-3.8-1-.3 0-.9-.1-.8 0a52.4 52.4 0 0 0-5.2-.3h-1.3c17.9-10.9 39-17.2 61.4-17.2zm-66.7 18.6c-.6.2-1.3.5-1.7 1l-.6.3.6-.3c.4-.5 1-.8 1.7-1zm10 .2h1c.5.3 1 .4 1.6.4a7 7 0 0 1 3 .8l1.4.7c2.6 1.3 3.6 2 4.7 4l1 1.4c1 1.1 2.4 4.1 2.9 6 .5 2.2.6 4.8.3 6.9v.5h-.1c-.2.2-.3.3-.4.2l-.1-1.7a58.3 58.3 0 0 0-.5-5l-.2 1c0 2.6-1.2 6.3-2.6 7.9-.5.5-.6.5-.7.4-.2-.3-.2-.9 0-2.7a42 42 0 0 0-.6-11.2c-.2-1.1-1-4.1-1.1-4l.2 1.4c.6 3 .7 6.4.2 9.5-.5 3-2 6.9-2.9 7.7-.5.4-.7-.2-1-3.7-.3-4-.9-6.7-1.2-6-.1 0-.4 1.3-.6 2.7-.9 4.7-1.2 5.5-2.4 5.5-.6 0-.8-.1-2-1.6-.4-.4-.7-.7-.9-.7-.1 0-.4.2-.6.5-.5.6-.7.5-1.5-.7-.3-.5-.6-.8-.7-.8-.3 0-.7.9-.7 1.8 0 1.5-.2 2.9-.6 3.2-.5.4-.7.3-1.6-.6-1-1.1-2.5-3.8-3.7-6.6-1.4-3.5-1.3-3.3-1.3-2.3 0 1.5.7 5 1.8 8.4.9 2.9 1 3.4.2 3.2a18 18 0 0 1-4.5-5.5 22.2 22.2 0 0 1-2.6-7.5c-.1-1-.3-1.1-.2 0 .2 3.7.9 6.5 2.4 10.4l.8 2.1c0 .5 0 .5-.3.4-1-.3-3.4-3.3-4.3-5.7v-.1l-.3-3c0-4.6.3-7 1.2-8.8a13.5 13.5 0 0 1 2.2-3.1c0-.1.2-.2.2-.5 0 .4-.1.3-.1.3v-.1l.3-.4c.6-.9 2.2-2 3.1-2.3l1.2-.7a6.1 6.1 0 0 1 2.8-1c.7-.2 1.3-.2 1.8-.6l.7-.3 2-.1h3.2zm56.7 4.4a94.7 94.7 0 0 1 88 59.6c-1.2-.5-2.4-1-3.4-1l-1.2-.5c-1.3-.6-3.9-1-6.4-1.1l-1.5-.1-.7-.1c-.4-.2-.7-.2-1.1-.2h-1.5a28 28 0 0 0-5 .3c-2.5 0-4.3.2-5.4.7a5 5 0 0 1-.9.2c-1.4 0-3.6.7-5.4 1.3a.8.8 0 0 0-.5 1l.7 1.8a79.2 79.2 0 0 1 4.2 15.4 81.9 81.9 0 0 1 2.1 21.4 56.8 56.8 0 0 1-6.2 23.9.8.8 0 0 0 .2 1 155.5 155.5 0 0 1 4.6 4.2l1.2 3.9a229.4 229.4 0 0 0 1.1 3.6l.1.3.1.3.5.4.4.3v1l.2 2v.4h-.1l-.7.6-.4.8c0 .4 0 .9.2 1.3l.8.7-6.3 5.2-.1.2-14.2 11.7a15.2 15.2 0 0 0-11.9-8c1.5-1.6 2.6-3 4.2-4.6a97.7 97.7 0 0 0 20.9-28 56.4 56.4 0 0 0 5-28.8 81.7 81.7 0 0 0-2.8-17c-.4-2.7-2-8.4-3.5-12.1a41 41 0 0 0-20.6-24l-.5-.3-.8-.6-1.4-1a20.6 20.6 0 0 0-5.4-2.6c-4.1-1.5-6-2-8.7-2.2-1.8 0-1.6 0-2.6-.5-1.4-.7-3-1.1-4.6-1.1a29 29 0 0 1-2.7-.3 13 13 0 0 0-5 0c-2.6.5-3 .5-5.2-.1a7 7 0 0 0-1.4-.3l-1.3.1-3.4.3c-2.3 0-2.6.2-3.9.7l-1.5.7h-.2a18.8 18.8 0 0 1-2.7.1c-2.9 0-3.1.1-5.1.7l-3.3.9a10 10 0 0 0-4 1.7l-.8.5-1.6.4c-2.4.5-4.3 1.2-6.3 2.4l-3.3 1.8c-1.5.9-2.3 1.5-3.8 2.8a58.5 58.5 0 0 0-1.7 1.7l-.1.1-.3.2-.8.6a39 39 0 0 0-16 26 68.7 68.7 0 0 0-1.7 13c0 .6 0 2-.2 3.1l-.2 6.2a62.7 62.7 0 0 0 19 47c4 4 7.6 6.9 14 11.8l-.7.1-1.4-1a.8.8 0 0 0-.2-.2 29.5 29.5 0 0 0-12.8-2c-2.2 0-4.5.3-6.6.7-3 .5-5.3 1.5-7.3 2.8h-4.7c-2.5 0-5 .8-7 2a94.2 94.2 0 0 1-20.6-50.1c2.2 2 4 3.5 8.8 6.8a120.2 120.2 0 0 1 7.6 5.9l1 2.4a1324.2 1324.2 0 0 0 1.9 4.9c.2.3.5.5.8.6.2.1 0 0 0 .1l.3 1.9v1c-.2 0-.5.3-.7.7-.2.4-.1.6-.1 1l.1 1.1.5.5.4.2v1.5c-.1 1.5-.2 2.5.2 3.3.2.5.6.8 1 1l1.4.3c2 .3 6.5 0 8.6-.7a8 8 0 0 0 1.6-.6c.4-.2.8-.3 1-1 .1-.5.2-1 .1-1.5l-.3-1.9-.3-1.2v-.3l.6-.6c.2-.4.1-.7.1-1 0-.5 0-1-.3-1.3-.2-.4-.5-.6-.9-.7l-.2-2v-.8l.1-.1.6-.7a.8.8 0 0 0 0-.8 66.6 66.6 0 0 1-5.8-35.3l.2-3a549.4 549.4 0 0 0 .7-7.2 68.2 68.2 0 0 1 5.8-19.3 27.5 27.5 0 0 1 3.8-5.6.8.8 0 0 0-.4-1.4h-.3a18.4 18.4 0 0 0-8.3-2.1l-2.2-.4-1.2-.3h-2.1a229 229 0 0 1-7.8.4c-.8.1-1.5.3-2 .6l-1.8.3-1.4.2c4-7.1 8.8-13.6 14.3-19.5 1.2 1 2.4 1.7 4.7 3l3 1.5c-.3-.1 0 0 .2.4l.7 1.3.7 1.5.6 1 .3.4c0 .2-.2.2 0 0-.5.5-.5 1-.5 1.6 0 .5.2 1 .7 1.5.1.1 0 0 0 0v.4c0 .9.1 1.7.6 2.3.5.6 1.3.8 2.2 1h1.2l1-.1c.6 0 1.2-.2 1.7-.4s1-.5 1.4-.9c.6-.7.7-1.8.3-3l-.1-.4c.5-.8.3-1.9-.4-2.6a1 1 0 0 1-.2-.4v-.2l.1-.3.1-.2.2-.6.3-1.6.3-1.9 1-.9c1.5-1.4 4.7-4.6 5.7-5.8 2-2.3 3-4.7 3.4-7.7l.3-2.3a19 19 0 0 0-.3-7.7v.2c12-5.5 25.4-8.6 39.5-8.6zm-76.2 4.8c-.7 2-1 4.5-.9 8.4.2 5.7 1.4 9.1 4.8 12.7l.9 1a98.7 98.7 0 0 0-16.8 24l-.3.2h-.2.2l-.8.2-1 .4a19.3 19.3 0 0 0-7.7 6.1c-1.1 1-2.7 3.3-3.7 5a28 28 0 0 0-2.8 10.3 47 47 0 0 0 2.7 19.7c.9 2.3 2 4.4 3.5 6.4a98 98 0 0 0 19.5 54.5 29 29 0 0 0-6.2-1.3l-3.7-.2h-14a117.5 117.5 0 0 1 26.6-147.4zm34.1 4zm0 0V-5024.5v-.3zm-33 7.6.2 1.2.3 1.5c-.3-.8-.4-1.7-.6-2.7zm21.8 13 .4.3c.3.4.5.4.8.3.4 0 .4 0 .4.8l-.3 4.4-1-.1c-.8-.2-1.4-.2-2.2 0-.6 0-1.4.3-1.9.5l-.7.3-.2-.4-.8-2.2-.7-2 .2-.5c.3-.6.3-.6.8-.4.4.2.5.1.8-.3l.4-.5.6.3c.5.2.5.2.9-.1.5-.5.6-.5 1.2-.1l.4.3.4-.3zm49.6 1.2 1 .3c2.4.6 3.3.6 6 .1 1.7-.3 2.5-.3 4.4 0l3 .3c1.2 0 2.8.4 3.8 1 1 .5 1.5.6 3.3.7 2.5.1 4.1.5 8.2 2a18.3 18.3 0 0 1 6.4 3.4l.7.5.8.6 1.2.5 3.6 2.2a39.2 39.2 0 0 1 15 20.4 82 82 0 0 1 4.2 15.2 59 59 0 0 1 1 5v2.6a66.4 66.4 0 0 1-3.1 22c-1.4 3.8-2.4 6-4 8.7a20.2 20.2 0 0 1-4 5.2 6 6 0 0 1-1 .8c-.1 0-.3-.3-.4-.7-.3-.7-.3-.7 0-2l.4-2.6c0-.6.4-2.4.7-4a57.8 57.8 0 0 0 1.2-8 106.2 106.2 0 0 0-.4-30.7l-.7-4a104 104 0 0 0-1.7-6.5 99 99 0 0 1 0 37.2 77.2 77.2 0 0 1-10.9 24.4 12.4 12.4 0 0 1-3.2 3.2c-.3.3-.3.3-.8-.2-.4-.5-.5-.7-.6-1.5-.2-1.8-.1-5 .4-11.3a117.3 117.3 0 0 0-.9-25.5l-.3-1c-.3-.6-1 1.9-1.6 4.8-2.8 15.8-6.8 28-10 31-1 1-2 1.3-3 1.1-1.8-.2-3.1-1.2-4.2-3.2l-.6-1.1c0-.3-2.8-5.8-3.4-6.5-.6-.8-.8-1-1.4-1.2l-.7-.3-.7.5c-.6.4-1.1 1.2-2.5 3.8a6 6 0 0 1-1.2 1.7c-.5.4-.5.4-1 .1-.5-.3-1-.8-1.8-2a9 9 0 0 0-2.8-3c-.7-.3-.7-.3-1.3 0-1 .6-1.8 2.4-3.2 7.3-1.1 4-2.1 5.4-4 6-.7.2-2 .3-2.6 0-3.7-1.3-9.7-12.8-15.2-29-1-2.7-2.3-5.7-2.5-5.4-.6 1-.5 7 .2 13a156.4 156.4 0 0 0 4.1 21.2c.2.7.4 2 .4 3 .1 1.5.1 1.5-.3 2l-.4.6-1.2-.6c-1-.5-1.4-.7-3.3-2.7a75.4 75.4 0 0 1-19-43.3 98.7 98.7 0 0 1-.4-17.9 119.9 119.9 0 0 0-.7 20.9 119 119 0 0 0 8.3 36.2c.5 1.4.6 1.9.5 2.2l-.1.7c0 .2-.1.3-.2.3l-1.4-.7c-1.6-1.1-4.4-4.1-6.7-7.4-1.4-2-4.8-8-5.4-9.7a63.1 63.1 0 0 1-3.4-34.6l1-5.7a46.7 46.7 0 0 1 8-17.9 38.3 38.3 0 0 1 8.5-7.9l.2-.1v-.1l.1-.1v-.4.4l.4-.4 1.2-1.2c1.5-1.3 2-1.7 3.5-2.5l3.3-1.9c1.9-1 3.6-1.7 5.8-2.2l1.9-.4 1.2-.7c1-.8 1.9-1.2 3.4-1.5l3.3-1c2-.5 1.8-.5 4.7-.5a73.5 73.5 0 0 0 2.9-.1h.2l.3-.1 1.7-.7c1.3-.6 1-.6 3.3-.7l3.5-.2 1-.2zm-51.5 5 .2 1.1c.1.8.2 1 .4 1.1.2 0 .2 0 .1-.6l-.1-1.2c0-.6 0-.4.3 1.4.1.3.2.4.4.4.1 0 .2 0 .1-.3l-.2-1.2c0-.7 0-.8.1-.3l.2 1.2c0 .4.2.6.3.6v-.1c0 .2 0 .4.2.6l.1.2c-1.3 0-2.5.1-3.3.4l.1-.4v-.4s0-1.6-.2-2.1v-.1c.2 0 .3.6.4 1.1 0 .6.1 1 .2 1 .2 0 .2-.7 0-1.7v-.6l.3 1.2.3 1c.2 0 .2-.7 0-1.7v-.6zm2.3 0 .2 1 .1.3h-.2l-.2-1v-.2zm-.5.3v.3l.3 1-.2.2v-1.5zm1 0 .1.5.1.5h-.2l-.1-.8v-.1zm.3.3.1.1v.2-.1.3l-.1-.5zm-4.8.1.3 1 .2.6-.2-.3h-.2v-.2l-.1-1v-.1zm-.3.3.1.3v.5h-.2v-.3l.1-.5zm-.3.2.1.5-.1-.2zm5.2.4v.7l.2.5h-.1a.7.7 0 0 1-.5-.2l-.1-.2a.8.8 0 0 0 .6.4l-.6-.4v-.2l.1-.4.2-.1v.3l.1-.4zm-.7.3v.2l.1.5v.2l-.2-.6v-.2zm-4.1.3h.1c.1.4.2.3.2 0l.3.4c.1.2 0 .2 0 .2s.1.1-.1.4h-.3v-.4l-.2-.6zm2.6 1c1.1 0 1.3 0 2 .7l.8 1v.2l.2.8h-1.3c-1.5 0-2 .2-3 .5l-.8.2v-1l-.2-.3c.4-1.3 1.1-2 2.3-2zm9.2 6v.1zm-22.7 4.4.7.1c.6.3 1.5.4 2.7.4 2 .1 4.7.8 5.6 1.2l1.5.6a50.9 50.9 0 0 0-9.2 24.9 581.3 581.3 0 0 1-.7 7.3l-.2 3c-.2 1.4-.3 3.7-.3 6.4v.4c-.6-.2-1-.6-1.8-1.8-1.4-2-2-2.5-2.4-2.6-.6-.2-1 0-1.6 1.1l-.8 1c-.3.2-.8-.2-1.9-1.8a4 4 0 0 0-1-1c-.7-.3-1 .3-1.4 3.5-.3 3.2-.7 4-1.9 4.2-.7 0-1.3-.3-2.4-1.4a42 42 0 0 1-6.8-13l-1-2.8-.2-.5-.1.4a59.7 59.7 0 0 0 2.8 14.4c1.2 3.6 1.4 4.9 1.2 5.4-.2.4-.2.4-1 0a33 33 0 0 1-11.4-20.5v.8c.2 3.6 2 10.8 3.6 14.2 1 2.2 1.5 4.3 1.2 4.3-.5 0-1.6-.9-2.7-2-1.2-1.5-2.4-3.2-3.3-5a78 78 0 0 1-2-9.1c-.3-2-.3-5.8-.1-8a21.5 21.5 0 0 1 6-14.2c.5-.4 1-1 1.4-1.6a18 18 0 0 1 6.7-4.7h.2l.5-.1.3-.1.7-.4c1-.7 3.9-1.6 5.7-1.7a6 6 0 0 0 2.4-.6l1.4-.3 3.2-.2a243.9 243.9 0 0 0 6.4-.2zm140.2 9h1.4l.7.1c.3.2.6.2 1 .2l1.7.1a22.9 22.9 0 0 1 7.4 1.6 21.9 21.9 0 0 1 9.4 5c2.9 2.3 4.9 4.8 6.3 8a38 38 0 0 1 2.7 19.1l-1 6.1a23 23 0 0 1-2.6 5 13 13 0 0 1-1.8 2l-.7.5-.1-.4c-.1-.5 0-1.6.7-4 1.5-4.8 2.1-9.7 2-15.1v-2.9 2a35.3 35.3 0 0 1-6 18.7 17 17 0 0 1-3.9 4.4c-.5.3-.5.3-.7 0-.4-.4-.3-1.1.7-5.5a68.8 68.8 0 0 0 1.3-17.1l-.6 2.2c-1 5.4-2.5 10.2-4.5 14.3-2.2 4.2-3.7 5.6-5 4.5-.7-.6-1-1.5-1.5-5-.3-1.6-.7-2.8-1.1-3.2-.3-.2-.4-.2-.7 0-.1.1-.7 1-1.1 1.9-1 1.7-1.4 2.3-1.7 2.3l-1-.8c-.7-.6-.9-.7-1.3-.7-.5 0-.6 0-1.1.6l-1.4 1.7c-.8 1.3-1.4 1.8-2.4 2-1 .2-2-.1-2.5-.9-.4-.5-.9-1.6-1.4-3l.3-3.1c.1-3 0-4.5-.1-7.8a83 83 0 0 0-2.7-17.1c-.5-3-2.2-8.7-3.6-12.6l-.4-.9a20 20 0 0 1 4-.9c.6 0 1-.1 1.6-.4.6-.2 2.3-.5 4.8-.5l1.6-.1c.5 0 .9 0 1.2-.2h2.1zm-126.2 9.4zm0 0V-4965.7v-.3zm-45.7 9.2v.4-.4zm158.7 6.6a88.3 88.3 0 0 1 1 15c-.5 3.8-.7 4.8-1.4 6.3l-.5 1v-1.4c-.1-1 0-2.1.4-4.5a72 72 0 0 0 .6-14.9zm-123.1 9.2.1 2.3a72 72 0 0 0 2.8 13.7c.9 2.7 1.4 5.2 1.3 5.8 0 .3-1-1.2-1.7-2.6l-1.3-4.3c-.8-4.5-1.2-9.3-1.2-14.5zm-4 18.8 1 .5.8.5c.1 0 .4-.1.6-.4.9 3 1.9 6 3.1 8.9v.4l-3 .1a20.1 20.1 0 0 0-7.3 1h-.3l-1.3-4.2-1.2-4 .3-.7.6-.9.9.3.7.4.6-.7c.4-.4.8-.7 1-.7 0 0 .5.1.9.4.8.5 1 .4 1.8-.4l.7-.5zm160 5.8c-.9 4-2.1 7.8-3.6 11.5a15.3 15.3 0 0 0-8.4 1.9 129 129 0 0 1 .8-3l.1-.3.1-.1a23 23 0 0 1 2.2-2.1 191.7 191.7 0 0 1 8.9-8zm-158.2 4.9.2.4v1h-.3v-.5l.1-1zm1 .1c.1 0 .2.4.2.9l.1.3h-.3V-4911.4zm1 0c.2 0 .2.3.2.6l.1.4H16223.2v-1zm-4.2.1c.1 0 .2.3.2.7v.7l-.3.1v-.5l.1-1zm-1 .1.2 1.1v.3l-.2.1h-.1v-1.5zm2.2 0 .1 1.1v.1h-.2v-1.1zm-3.2.3.1.9v.1h-.1v.1-1.1zm7.1 0v.2l.1.2h-.2l.1-.4zm.8.2zm-8.8 0 .2.5v.4l-.2-.1v-.7zm-.7.4v.3h-.1v-.3zm142.3.5c.4 0 .7.2 1.2.7.6.4.9.4 1.6-.2l1-.5 1 .7c.3.3.7.6.8.5l.6-.4c.7-.5 1-.5 1.4.1 0 .3.3.6.4.7.2.2 0 .9-.7 4.7l-.5 2.5-2.2 1.8a37.3 37.3 0 0 0-9.2.2 503.6 503.6 0 0 0-2-9.5c.2-.1.4-.1.8 0l.7.2.6-.7c.3-.4.7-.7.9-.7l.8.5c.8.6 1 .6 1.7 0 .5-.4.8-.6 1.1-.6zm-132.3 3.5.1.3.2.1h-.9c-3.3 0-7 .4-9.6 1l-.1.1a.8.8 0 0 0 .3-.3l.2-.1h.7l.3-.2h.2c.2 0 .4 0 .6-.2l.3.1.6-.2h.7c.2 0 .2-.1.3-.2l.5.1.5-.1.2-.2.4.2.3-.1H16225l.2-.2.2-.1zm-4.1 1.4 1.3.1c1.1.6 3.7 4 3.3 4.3a179 179 0 0 0-10.3 1.3V-4901.6c.8-1.8 1.7-3 2.7-3l1-.2a12 12 0 0 1 2-.1zm135.6 6.1v.8c0 .3.1.3.2.4h-.2v-.4zm1.1.2c.1 0 .2.2.2.6v.3h-.2v-.9zm1.2 0 .2.6v.4l-.3-.1v-.1l.1-.8zm1.2 0v.8h-.2v-.2c0-.5 0-.7.2-.6zm1 0v.2-.1zm-5.6.2c.1 0 .2.2.2.6l-.3-.1.1-.5zm-1 0 .1.7v.1h-.3v-.3c0-.5.1-.7.2-.5zm-1.6 5.3a.8.8 0 0 0 1 .3h.3l-.3.4h-1.4c.1 0 .3-.2.3-.4l.1-.3zm21.6 3.4 11.7 2.5-11 51.4 8 1.7-2.3 11-8.1-1.8-3.8 17.4-13.4-2.9 3.8-17.4-33.7-7.3-4-10.9 9.7-8 23.3-19.3zm-135.2 6.4a28.3 28.3 0 0 1 12.1 2c-4.3.7-8.5 2-12.4 4.4h-.2a15.2 15.2 0 0 0-10-4.5c1.3-.5 2.6-1 4.3-1.2 2-.4 4.2-.6 6.2-.7zm21.8 1.2zm-85.7.8zm196.2 7-36.7 30.2 28.9 6.2zm-111.7 7.4a50.4 50.4 0 0 1 7.5.7c2.3.4 4.4 1 6.4 1.6v7a29.2 29.2 0 0 0-6.3-1.8c-2.2-.4-4.5-.6-7-.6-5.8 0-10 1.5-12.4 4.6a22 22 0 0 0-3.6 13.6c0 5.5 1.3 9.7 4 12.6 2.6 2.8 6.6 4.2 12.2 4.2a33 33 0 0 0 13.2-2.3v7.1a39 39 0 0 1-14 2c-7.7 0-13.6-2.2-17.6-6.4-4-4.3-5.9-10-5.9-17.2 0-5.2.9-9.6 2.5-13.4 1.7-3.7 4.3-6.6 7.8-8.6s7.9-3 13.2-3zm-61.4.7 2.6.1c2.4.3 4.5 1 6.3 2 2.3 1.3 4 3.2 5.2 5.6 1.1 2.4 1.7 5 1.7 8a15 15 0 0 1-4.4 11.4 16 16 0 0 1-11.7 4.2h-12.8v15.9h-8v-47.2zm22.2 0h8v47.2h-8zm61 0h7.9v25.7l16.8-21.2 3.5-4.4h7.3l-10.8 13.8-4.6 5.7 17.8 27.7h-8.5l-13.8-22-7.7 9.8v12.2h-8zm-96.3 6.3v18.7h11.3c3.2 0 5.6-.8 7.2-2.5a9.3 9.3 0 0 0 2.4-6.7c0-3-.8-5.4-2.3-7-1.5-1.7-3.8-2.5-7-2.5zm177.2 58.6a17.6 17.6 0 0 1 6.2 1v3.1l-2.8-.8c-1-.2-2-.3-3.2-.3-2.6 0-4.5.7-5.6 2.2a10 10 0 0 0-1.6 6c0 2.6.6 4.5 1.8 5.8 1.2 1.3 3 2 5.5 2l3-.3 3-.8v3.2a17.8 17.8 0 0 1-6.3.9c-3.5 0-6.2-1-8-3a11 11 0 0 1-2.7-7.7c0-2.4.4-4.4 1.2-6 .7-1.7 1.9-3 3.5-4 1.5-.9 3.5-1.3 6-1.3zm22.7 0c3.4 0 6 .8 7.6 2.6 1.7 1.7 2.5 4.5 2.5 8.4 0 3.8-.8 6.5-2.5 8.3-1.6 1.8-4.2 2.7-7.6 2.7-3.4 0-5.9-1-7.6-2.7-1.7-1.8-2.5-4.5-2.5-8.3 0-3.9.8-6.7 2.5-8.4 1.7-1.8 4.2-2.6 7.6-2.6zm-214.7.3h3.1l11.2 15.7v-15.7h3.6v21.3h-3.2l-11.1-15.6v15.6h-3.6zm26.2 0h15v2.8h-11.4v6.5h10v2.8h-10v6.5h11.3v2.7h-14.9zm21.8 0h3.5l3.6 16 4-13.4v-2.6h3l4.6 16 3.7-16h3.5l-5 21.3h-3.5l-4.3-15-4.5 15h-3.7zm45.3 0h3.7l6.8 13.8 6.7-13.8h3.8v21.3h-3.6v-15.4l-5.8 11.8h-2.2l-5.8-11.8v15.4h-3.6zm29.3 0h14.9v2.8h-11.3v6.5h10v2.8h-10v6.5h11.3v2.7h-15zm21 0h4.2l5.4 8 5.5-8h4.2l-7.5 10.7 7.6 10.6h-4.2l-5.6-7.8-5.5 7.8h-4.2l7.6-10.6zm26.5 0h3.6v21.3h-3.6zm44.6 2.7c-2.2 0-3.8.6-4.9 1.8-1 1.2-1.5 3.3-1.5 6.2 0 2.8.5 4.9 1.5 6 1 1.3 2.7 2 5 2 2.2 0 3.8-.7 4.8-2 1-1.1 1.6-3.2 1.6-6 0-3-.5-5-1.6-6.2-1-1.2-2.6-1.8-4.9-1.8zm23.6 2.3.2.2-.1-.1-.1-.1z" style="color:#000;fill:url(#b);fill-opacity:1;stroke-width:2.45096;stroke-linecap:round;stroke-linejoin:round;-inkscape-stroke:none;paint-order:fill markers stroke" transform="translate(-16158 5064)"/></svg>