<svg xmlns="http://www.w3.org/2000/svg" xmlns:xlink="http://www.w3.org/1999/xlink" xml:space="preserve" width="946.7" height="1159.2" viewBox="0 0 250.5 306.7"><defs><linearGradient id="a"><stop offset="0" style="stop-color:#d82149;stop-opacity:1"/><stop offset="1" style="stop-color:#2760e0;stop-opacity:1"/></linearGradient><linearGradient xlink:href="#a" id="b" x1="12096.3" x2="11877.6" y1="1292.3" y2="1545.8" gradientUnits="userSpaceOnUse"/></defs><path d="M12002.8 1239c-69.2 0-125 55.9-125 125v19.3c0 14.3 2.4 28 6.8 40.9l-1 .7c-3.7 2.8-6 7.2-6 12v47.1c0 2.7.8 5.3 2.2 7.6-1.2 1.9-1.8 4-1.9 6.3v25.5a13 13 0 0 0 3.8 9c1.5 1.6 8.7 9.2 11.3 10.9 2 1.3 4.4 2 7 2h4.3a13 13 0 0 0 6-2.4c2.1 1.5 4.6 2.4 7.2 2.5h3.8a13 13 0 0 0 4.6-2c1.4 1 3 1.7 4.5 2h17.8a13 13 0 0 0 6-2.5 13 13 0 0 0 7.3 2.5h4.3a13 13 0 0 0 5.3-1.8 13 13 0 0 0 5.2 1.8h4.2a13 13 0 0 0 12.6-10l1.9-8a62.1 62.1 0 0 0 13.8 15.5c2.2 1.5 4.8 2.5 7.6 2.5h4.2a13 13 0 0 0 9.5-4.7 27.6 27.6 0 0 0 29.1 1.8 13 13 0 0 0 7.2 2.9h4.3a13 13 0 0 0 4.6-2 13 13 0 0 0 6.4 2h4.4c1.9 0 3.7-.5 5.4-1.3 1 .5 2 1 3.1 1.3h4.3a13 13 0 0 0 5-2c2 1.2 4.3 2 6.7 2h4.5a13 13 0 0 0 10.9-19.9l-4.4-6.8 2.7-3a13 13 0 0 0-3.2-19.8l.8-2 2.4-11c1.2-5.6-.9-11.4-5.3-15l8.2-38c1-4.5 0-9.1-2.8-12.7l-1.1-.4c2.9-10.6 4.5-21.9 4.5-33.5v-19.2c0-69.2-55.8-125-125-125zm0 7.2a117.8 117.8 0 0 1 110 160.1l-.5-1.2c-2-2-4.6-3.5-7.5-4.2l-6.1-1.3h-4.1a98.5 98.5 0 1 0-168.5 26.1l-2.4-1.8-2.8-1.6a25.6 25.6 0 0 0-3.4-.5l-3.6-.2h-13.9a117.8 117.8 0 0 1 102.8-175.4zm0 23.2c16.2 0 31.4 4 44.7 11.2-4.6 6-7.2 13.4-7.2 21 0 3.1.7 6.2 1.5 9.1-1.7-.3-3.4-.7-5.1-.7-5.7 0-11 2-15.2 5.2-3.3-8-7.9-15.4-12-23.5a2.6 2.6 0 0 0-3-1.3c-1.2.4-2 1.6-1.7 2.9a49 49 0 0 1-3 27.5 31.5 31.5 0 0 1-5 8.3c-1.7 2-3.3 2.8-3.8 2.8 0 0-.3 0-.8-.7s-1-2.2-1.2-4.4a41.7 41.7 0 0 1 7-21.6c1.5-2.5-1.7-5.1-3.9-3.2-7 6-12.6 12.7-15.9 20.1-3.3 7.5-4 16-1.6 25.2 1 3.8 3 7.2 5.3 10.3-1.4.4-2.9.7-4 1.2-.7.4-1.4.8-2 1.4a4 4 0 0 0-1.3 2.8V1377c0 1.7 1.2 2.8 2.3 3.5 1 .6 2.2 1 3.6 1.5 2.2.7 5.4 1 8.8 1.4v2.3l-2.2 2.5-1 1.4-6.5 14c-2 4.4.5 10.1 1.2 15.1l.6 2.5-.8-.1h-.2l-1.5-.1c.2-.7.3-1.5.3-2.3a14.3 14.3 0 0 0-14.4-14.3h-.7a26 26 0 0 0-23.7-17.2l.2-1.8a18.8 18.8 0 0 0-18.8-18.8c-5 .1-9.8 2.2-13.2 5.7a94.6 94.6 0 0 1 94.3-103zm46.2 13.5a93.3 93.3 0 0 1 47.1 79.2 37 37 0 0 1-18.7-8c-.5-.5-1.3-.4-1.7.1a16.6 16.6 0 0 1-25.4 0c-.4-.4-1.1-.5-1.6-.2a22.5 22.5 0 1 1-5.7-40.7c1 .3 1.8-.6 1.5-1.5a32.3 32.3 0 0 1-1.7-10.1c0-6.8 2.3-13.3 6.2-18.8zm-41.7 9.9c4.2 8.5 9 16.2 12.1 24.1a24.9 24.9 0 0 0 0 36c-1 2-2 3.7-3.4 5.3a91.7 91.7 0 0 0-31 0 30.2 30.2 0 0 1-6-11.6c-4.6-17.5 3.2-30.8 16.8-42.7-11.7 20.2-7 30.9-2.6 30.5 6.5-.5 18.1-19.3 14-41.6zm13.9 61.7a24.8 24.8 0 0 0 28 2 19 19 0 0 0 13.7 6.1 19 19 0 0 0 13.8-6.1c6 4.7 13 7.7 20.7 8.4 0 12.1-2.5 23.6-6.7 34.2l-1.7-.8c-3.2.2-6.3 1.2-8.9 3.3l-19.8 16.4-.1.2-14.2 11.7c-2.2-4.2-6.2-7-10.7-7.9.7-10.4-5.7-18.2-13.8-29-2.3-3.2-3.3-8.5-4-10.3l2.8-.6c1.4-.4 2.5-.9 3.6-1.5 1-.7 2.2-1.8 2.2-3.6V1363a4 4 0 0 0-1.3-2.7c-.6-.6-1.3-1-2-1.4-1-.5-2.4-.8-3.7-1l2-3.3zm-20.9 3.8c12.8 0 23.2 2 23.2 4.6v11.4l-1.1-.6c-1.4-.7-3.2-1.2-5.4-1.6a89.1 89.1 0 0 0-16.7-1.4c-6.4 0-12.3.5-16.7 1.4a23.6 23.6 0 0 0-6.4 2.2V1363c0-2.5 10.3-4.6 23.1-4.6zm-78.6 10.3a17 17 0 0 1 16.8 19.4 1 1 0 0 0 1 1h.1c10.5 0 19.8 6.8 23 16.8.2.4.6.7 1 .6h1.2a12.5 12.5 0 0 1 12.3 14.6H11975.3c-7.3 0-14.5 1.3-21 5.1v.1a15.2 15.2 0 0 0-10.3-4.6h-8c-2.2.1-4.4.8-6.4 1.9l-.2.3a94.2 94.2 0 0 1-20.6-48.9c3.1-3.9 7.8-6.3 13-6.3zm78.6 3.8c12.8 0 23.2 2.1 23.2 4.7 0 1.6-4.6 3.2-11.9 4 .1-1 0-2.1-.6-3a5.3 5.3 0 0 0-3.1-2.6l-1.4-.3c-1 0-1.9.2-2.7.7-1-.2-2.2-.2-3.4-.2-5 0-8.9.8-8.9 1.8v1.1c0-.2.3-.4.8-.6.2-.2.4-.2.7-.3 1.6-.5 4.3-.8 7.3-.8h1.5l-7.6 4-1.4 1.1-1 1.2-.1-1.9c-8.8-.7-14.5-2.4-14.5-4.3 0-2.5 10.3-4.6 23.1-4.6zm15 10.6c-1.6 1.3-2.3 3-3 5.4v.1l-1-.1.1-4.9 4-.5zm-6.5 2.2-.1 3-4.6-.3c-.2 0-.4 0-.6.2zm-3.5 13.4 2.9.2-.1 1c-.7 0-1.5 0-2.2.2l-3.8 1zm84.5 14.7 11.8 2.5-11.1 51.4 8.2 1.8-2.4 10.9-8.2-1.8-3.7 17.4-13.4-2.8 3.8-17.5-33.8-7.3-4-10.8 9.8-8.1 23.3-19.3zm-85.6 7.2 2.9.5v1l-2.1-.3h-7.9l1.2-.8zm82.8 8.3-36.7 30.1 28.8 6.3zm-111.7 7.4a50.9 50.9 0 0 1 7.5.6c2.3.4 4.4 1 6.4 1.6v7a29.2 29.2 0 0 0-6.3-1.8c-2.2-.4-4.6-.6-7-.6-5.9 0-10 1.5-12.5 4.7a22 22 0 0 0-3.6 13.5c0 5.5 1.4 9.7 4 12.6 2.6 2.9 6.7 4.3 12.2 4.3a33 33 0 0 0 13.2-2.3v7a39 39 0 0 1-13.8 2c-7.8 0-13.7-2.1-17.7-6.4-4-4.2-6-10-6-17.2 0-5.2 1-9.6 2.6-13.3 1.7-3.8 4.3-6.7 7.8-8.7 3.4-2 7.8-3 13.2-3zm-61.5.6 2.6.2c2.5.2 4.6.9 6.4 2 2.3 1.3 4 3.2 5.2 5.6 1.1 2.3 1.7 5 1.7 8a15 15 0 0 1-4.4 11.3 16 16 0 0 1-11.8 4.2h-12.7v16h-8v-47.2zm22.2 0h8v47.2h-8zm61 .1h8v25.7l16.8-21.3 3.4-4.3h7.4l-10.8 13.7-4.6 5.8 17.8 27.7h-8.5l-13.8-22-7.7 9.8v12.1h-8zm-96.2 6.2v18.7h11.3c3.2 0 5.6-.8 7.2-2.4a9.3 9.3 0 0 0 2.4-6.8c0-3-.8-5.4-2.4-7-1.5-1.7-3.8-2.5-6.8-2.5zm136 54.4c4.1 0 7.2 1 9.1 3.2 2 2 3 5.4 3 10 0 4.5-1 7.8-3 10-2 2-5 3-9 3s-7-1-9-3c-2-2.2-3-5.5-3-10 0-4.6 1-8 3-10 2-2.1 5-3.2 9-3.2zm-146 .4h3.8l13.3 18.8v-18.8h4.3v25.5h-3.8l-13.3-18.7v18.7h-4.3zm30.5 0h17.8v3.4h-13.5v7.7h12v3.3h-12v7.8h13.5v3.3h-17.8zm25.2 0h4.2l4.3 19.1 4.8-16v-3h3.5l5.4 19 4.4-19h4.2l-5.9 25.4h-4.2l-5-17.8-5.5 17.8h-4.3zm51.6 0h4.5l6.8 12.4 6.8-12.4h4.5l-9.2 16v9.5h-4.2v-9.5zm59.2 0h11.7c2.8 0 4.9.8 6.2 2.2 1.3 1.5 2 3.5 2 6 0 1.8-.5 3.3-1.4 4.5a7 7 0 0 1-3.9 2.7c.5.3.9.7 1.1 1.1l.8 1.6 3.2 7.4h-4.4l-3.1-7.1c-.3-.7-.7-1.2-1-1.5-.5-.3-1.2-.4-2.1-.4h-4.8v9h-4.3zm28.2 0h4.3v11.7l10.9-11.7h5l-9.4 10.3 9.7 15.2h-4.6l-7.8-12.5-3.8 4v8.5h-4.3zm-48.6 3.3c-2.6 0-4.6.7-5.9 2.1-1.2 1.4-1.8 3.9-1.8 7.4 0 3.4.6 5.8 1.8 7.3 1.3 1.4 3.3 2.1 5.9 2.1 2.7 0 4.6-.7 5.8-2.1 1.3-1.5 2-4 2-7.3 0-3.5-.7-6-2-7.4-1.2-1.4-3.1-2-5.8-2zm24.7 0v9.7h6.2c1.6 0 2.8-.4 3.7-1.2.9-.7 1.3-2 1.3-3.6 0-3.2-1.5-4.8-4.6-4.8z" style="color:#000;fill:url(#b);fill-opacity:1;stroke-width:2.45097;stroke-linecap:round;stroke-linejoin:round;-inkscape-stroke:none;paint-order:fill markers stroke" transform="translate(-11877.6 -1239)"/></svg>