<svg xmlns="http://www.w3.org/2000/svg" xmlns:xlink="http://www.w3.org/1999/xlink" xml:space="preserve" width="944.9" height="1158.7" viewBox="0 0 250 306.6"><defs><linearGradient id="a"><stop offset="0" style="stop-color:#282d8c;stop-opacity:1"/><stop offset="1" style="stop-color:#3281c9;stop-opacity:1"/></linearGradient><linearGradient xlink:href="#a" id="b" x1="22264.7" x2="22514.7" y1="-1620.9" y2="-1927.5" gradientUnits="userSpaceOnUse"/></defs><path d="M22389.7-1927.5c-69.2 0-125 55.8-125 125v19.3c0 7.1.7 14.2 1.8 21l1-5.1c.5-3 .9-4.8 1.4-6.2a7.9 7.9 0 0 1 2.4-3.4c.8-.7 1.6-1.2 2.5-1.4l.6-.1a117.8 117.8 0 1 1 225.6 17.5c-2.1-2.4-5-4-8-4.7l-3.7-.8-1-4.7a37 37 0 0 0-2.3-6.5 98.6 98.6 0 0 0-4.4-62.9l.8-2.3a31.2 31.2 0 0 0 .8-21.5c-1-2.4-2.3-5.1-3.7-7.3a65.5 65.5 0 0 0-34.3-26c-3.1-1-6.3-1.8-9.4-2.1-6.3-.7-12.5.1-18 2.5a98.5 98.5 0 0 0-125.1 86.8l.7.2c1.2 0 2.1.3 3 .5a94.6 94.6 0 0 1 116.4-84.8 35.1 35.1 0 0 0-6.7 5.6 48.8 48.8 0 0 0-6.5 8.1 57 57 0 0 0-3.5 5.2c-.5.8-1 1.6-1.8 2.5a62.1 62.1 0 0 0-4.9 6.2l-.2.3.1-.2v.1a15.6 15.6 0 0 1-1.6 1.7l-2.8 2.8a38 38 0 0 1-10.2 6.5h.1l-5-.3c-4.5-.4-4.9-.4-9-.2-4 .1-4.7.2-8.3.8-3.8.6-4.2.6-8 1.8a39.2 39.2 0 0 0-10 4.1l-1 .5c-.2 0-.3.1-.5.3l-1.1.6a44.8 44.8 0 0 0-7.3 4.4l-1 .7-1.5 1.3a38 38 0 0 0-8.7 11.5c-.9 2-1 2.3-1.7 4.6-.6 2.4-.7 2.7-.9 5-.4 4.9.3 9.6 2 14.7l.9 2c.7 0 1.5 0 2.3.3 1.3.3 2.7 1 4.4 1.8l2.8 1.3c.6-2.4 1.2-4.6 1.6-6.9.3-1.6.5-2.6.9-3.5.2-.5.6-1 1-1.3l.3-.3h.2l.6-.3.8-.2a30.4 30.4 0 0 1 3.1-.5c2.8-.3 7.2-1 11.7-2 5.1-.9 8.7-.3 12 2.4 2.7 2 4.8 5.7 6 9.8.3.7.4 1.4.5 2 .7-2 1.3-4.2 2.2-6.2 1.8-4.2 4-7.2 7-8.6 1.1-.5 2.2-.8 3.5-1h2.2l2.8.3a135.2 135.2 0 0 0 12.3 1l.9.2c.7.3 1.3.8 2 1.6a264.7 264.7 0 0 0 5.7 9l1.7 2.8a986.2 986.2 0 0 1 14.7-22.7l2.8 1.4a2234.6 2234.6 0 0 0 3.2 2l-2.6 5.8a898 898 0 0 1-11.8 24.9c-4.2 8.5-5.3 11-6 13.4 3.5-.3 6.6 0 9.2 1a14.1 14.1 0 0 1 7.1 6.6c.8 1.5 1.5 3.3 2.6 6.3a415.5 415.5 0 0 0 4.7 12.6l.2 1c.1.6 0 1.4-.3 2-.2.7-.6 1.4-1.1 2.2l-1 1.5-1.2-.2 1.1-2c.5-.8.9-1.4 1-2 .3-.4.3-1 .3-1.4l-.2-.8-.4-1-1.2-3.2a427.7 427.7 0 0 1-5.6-14.4 12.7 12.7 0 0 0-6.4-6 24.7 24.7 0 0 0-12.8-.6l-3.9.8a39.3 39.3 0 0 0 7.8-7.9 14 14 0 0 0 3-9.4c-.3-1.5-.5-2.7-1.3-4.3-.8-1.6-2.2-3.8-4.7-7.7a269.6 269.6 0 0 1-5.7-9c-.5-.6-1-1-1.4-1.1l-.6-.1-.8-.1-2.2-.2a137 137 0 0 1-12-1h-1.5c-1.4 0-2.5.3-3.6.9-2.5 1.2-4.6 3.8-6.4 7.9-1.4 3.3-2.7 7-3.6 10.5-.3-2.2-.6-4.3-1.3-6.5-1.3-3.9-3.4-7.4-5.6-9.2-3.2-2.4-6.1-3-11-2a217 217 0 0 1-14.9 2.4l-.5.1-.8.5c-.3.2-.5.5-.6.8a111 111 0 0 1-3.2 13.3 28.9 28.9 0 0 0-1.7 7.8c0 2 .2 3.5 1 5.5a32 32 0 0 0 7.6 10.9c2 2 2.7 2.8 4 3.8l.4.3c-3.8-.5-7.7 0-11 1.7a12.4 12.4 0 0 0-6.9 9.6l-.5 7-.4 8.2-.4.3c-2.5-1.1-5.1-2-7.7-2.4.9-.8 2-2 2.6-2.8a38.8 38.8 0 0 0 6-13.4l-2.2 1.8a75 75 0 0 1-5.8 4.8 69.2 69.2 0 0 0-8.6 7.6l1.2.8c.4.1.8.4 1.3.7h-4.6.1c2-1.5 1.8-1.3 1.6-3l-.5-3.6c-.6-3.6-.4-4.4 1.2-6a13 13 0 0 1 6.1-2.7l8.3-.9c2-.1 2-.1.6-1.1a55 55 0 0 0-9.7-5 39.1 39.1 0 0 1-7.4-3.9l-1.5-1 .2 1.6a64.6 64.6 0 0 1 .7 6.2c.2.8.9 1.7 1.6 2.2a11 11 0 0 0 5 1.7c.5 0 .8.1.8.2l-27.8 3c-3.2.3-6.5.4-7.7.4h-.7v-.6l.8-4a652.4 652.4 0 0 0 2-10.3c1.3-4.7 4.5-5.7 12.7-4.4 3.1.5 7.6 1.8 10.6 3.1l1.7.7.8-.5c.5-.4 1.4-1 2.1-1.7 1.5-1.2 1.9-1.4 2.6-1.4 1.2 0 3 1.1 5.5 3a34.6 34.6 0 0 1 9 11.3c.2 0 0-2-.2-3.3-.2-1.6-.8-3.2-2.2-6.7-1.6-4.2-2-5.7-2-8.5-.1-1.4-.3-1.7-.6-1.4-.1.1-1.9 1-3.3 1.5-1.2.5-1.5 1-1.5 2.4v1.2l-3.6-4c-8.4-9.2-9.7-10.6-11.9-13.6a32.5 32.5 0 0 1-6.5-15.3c.2-.1.7 0 2.2.3l5.8 1c3.6.3 4.8.8 6.5 2.6 1.1 1.3 2 2.5 3.5 5.4a241 241 0 0 1 8.6 16.6l.8 1.8 2.2 2.5c2.4 2.8 2.9 3.6 3.3 5.1.4 1.3 1 4.3 1 6a10 10 0 0 1-1.7 6.4l-.2.3h.2l.2-.4c1-2.2 3-4.3 5.2-5.7a3 3 0 0 0-1.3-1.2l-.7-.2.2-1.4.5-4.7c.2-3.8.4-5.2.8-6.8l.3-1.2-.3-.6c-.7-2-1-3.8-1-5.9.1-2 .4-3.4 1.7-8l.5-1.7-3.3-1.6a21 21 0 0 0-4.2-1.7 5.5 5.5 0 0 0-3 0c-2.2.6-3.8 2.8-4.3 5.4a17 17 0 0 0-.3 4.7c-.4-1-.8-1.5-1.3-2.5a51.2 51.2 0 0 0-6.9-11.3c-1.7-1.9-3.4-2.6-6.6-2.9a42.7 42.7 0 0 1-7.8-1.3h-.4c-.3 0-.7.1-.9.3l-.6.8a288.1 288.1 0 0 1-4 9.3 31 31 0 0 0-2.2 5.8c-1.2 5.5 1.4 11 7.4 16l2.1 1.6-2-.5c-4.3-.7-7.4-.8-9.8-.1-.7.2-1.2.5-2 1.2-.9.7-1.5 1.5-2 2.8-.5 1.3-.9 3-1.4 6a504.3 504.3 0 0 1-1.5 8.4c.4 2.2 1 4.2 1.5 6.3l4.2 9.4-1.1.6-.9-1.8.7 1.9a15.2 15.2 0 0 0-6.8 12.6v47.2c0 5.3 2.8 10.2 7.4 13a13 13 0 0 0-5.4 10.4v16a13 13 0 0 0 3.8 9c1.5 1.5 9.2 9.8 12.3 11.5 1.8.9 3.8 1.4 5.9 1.4h2.7a13 13 0 0 0 8-3.3c2.2 2 5 3.2 8 3.3h11a13 13 0 0 0 3.4-.9c1 .5 2.2.8 3.3 1h2.7c1.4-.2 2.7-.6 4-1.1 1.3.6 2.8 1 4.3 1h2.4a13 13 0 0 0 3.6-1c1.2.6 2.4.9 3.6 1h2.7a13 13 0 0 0 4-1c1.3.6 2.8 1 4.3 1h2.4a13 13 0 0 0 3.9-1c2.8 1 5.6 1.3 8.2 1.3 2.9 0 6.3-.4 9.7-2.2a13 13 0 0 0 6.7 2h2.6a13 13 0 0 0 6-1.7 13 13 0 0 0 6 1.6h10.8c1.5-.1 3-.5 4.4-1.1 1.1.5 2.4 1 3.7 1.1h3a13 13 0 0 0 4.7-1.4 13 13 0 0 0 4.3 1.4h2.8a13 13 0 0 0 4.8-1.4c1.5.8 3 1.3 4.8 1.4h2.7c1.4 0 2.8-.2 4.2-.7.8.4 1.7.6 2.6.7h2.7a13 13 0 0 0 4-1c1.3.6 2.8 1 4.3 1h2.3c1.3-.1 2.5-.4 3.7-1 1.1.6 2.4.9 3.6 1h2.7c1.3-.1 2.6-.5 3.8-1 1 .5 2 .8 3 1h2.8a13 13 0 0 0 4.8-1.4 13 13 0 0 0 4.7 1.4h2.8c9 0 15.3-9 12-17.4l-6-16a13 13 0 0 0-7.3-7.3c5-1.6 8.9-5.7 10.1-10.8l2.4-11c1.1-5.5-.9-11.3-5.3-15l8.2-38c1-5-.4-10.2-4-13.9 2.8-10.4 4.3-21.3 4.3-32.6v-19.3c0-69.2-55.8-125-125-125zm40 29.4a47 47 0 0 1 14 2.2 64.1 64.1 0 0 1 33.3 25.3 39 39 0 0 1 3.4 7 24.3 24.3 0 0 1 .7 16 33 33 0 0 1-1 3.1 7 7 0 0 0 0-1.7l-.1-1.6c0-.9-1-4.3-1.6-6-4.6-12.4-19.2-26-35.5-33a67.2 67.2 0 0 0-14.5-4.1c-5.4-.7-11.8 0-16.6 1.8-3 1.1-5.6 2.6-8 4.5l2.6-3a32.2 32.2 0 0 1 23.3-10.5zm-5.5 7.2c4.2.2 8.4 1 12.8 2.3a73 73 0 0 1 37.3 27.2c1.9 3 3.8 6.8 4.6 9.5.7 2.5 1 5.7.8 8v.4l-1 2.5a11 11 0 0 0 0-3.6c0-1.1-.7-4-1.5-6.2-4.1-11.2-16.7-23.7-31.7-31.2a58.9 58.9 0 0 0-23.3-6.5c-8.1 0-15.2 2.4-20.4 6.7l.2-.3 1.4-1.9 3-2.2c4.9-3.2 11.5-4.9 17.8-4.7zm-2.1 2.7a41.9 41.9 0 0 1 12.4 2.1 78.8 78.8 0 0 1 38.3 27.5c2 3 4.1 7.2 4.9 9.7.3 1.4.8 3.8.8 5.3.1 1.2 0 2.5-.2 3.7a34.3 34.3 0 0 1-2.7 6.3v-1.5l-.1-1.6a31.9 31.9 0 0 0-6-13.8 78.3 78.3 0 0 0-40.5-28.6l-5-1.5-2.2-.3a34.3 34.3 0 0 0-20.2 3c-1.4.7-3.2 1.8-4.7 3 .8-1.4 2-3 3.2-4.7l1-1.4c2.8-2.4 6-4.2 9.6-5.5a32 32 0 0 1 11.3-1.7zm-5 7.3a41 41 0 0 1 11.4 1.8 77.6 77.6 0 0 1 38 24.8c6.3 7.6 9.3 14.9 8.8 21.4l-1 2.4.1-.8-.1-1.8a49 49 0 0 0-14.6-24c-2.1-2-5.8-5-9.6-7.8-2.2-1.7-8-5-11.2-6.7a61.9 61.9 0 0 0-12-4.6l-5-1.5-2.2-.2c-1.6-.3-2.8-.3-4.6-.3-5 0-8.6.5-12.3 1.8-2.8 1-5.5 2.4-7.7 4l1.5-2a30.5 30.5 0 0 1 20.5-6.5zm-4.8 3a62.6 62.6 0 0 1 12 1.2l3.9 1a83 83 0 0 1 27.2 15.2c11.1 9.3 18 19.6 18.6 28v3l-1.9 5.7a49.8 49.8 0 0 0-2.1 24v.6l-.8-1.6c-3.4-6-9.7-13.5-16.7-20-4.3-3.8-11.4-9.6-12-9.5 0 0-.1 0 0 0 0 .2 1.4 1.3 3.1 2.7 4.6 3.6 4.5 3.5 8.6 7.1l5.9 5.8a76.3 76.3 0 0 1 5.8 7 118.3 118.3 0 0 0-22.5-20.8s1.2 1.2 3.3 2.8a182.8 182.8 0 0 1 14.2 12.9c1 1.2 4 4.4 4.6 5.3a147.6 147.6 0 0 1 5.7 7.5l1 1 .2 1.6.7.8a273.4 273.4 0 0 1 8 11.7c1.9 3 2.4 4 3.6 6.6 1.8 4 1.7 4 2.7 7.7l1 3.8-.6-.1-.4-1.2a42 42 0 0 0-3.1-6.3c-3.8-6.7-9.1-13.4-16.3-20.8a113.8 113.8 0 0 0-10.1-9.1l1.3 1.3c3 2.6 9.5 9 11.4 11.2 2.3 2.5 5.2 5.8 6 7a73.8 73.8 0 0 1 9.9 15.6l.9 2.2-.7-.2a50.2 50.2 0 0 0-7-11.9 120.4 120.4 0 0 0-20-21.2c2 1.8 8.4 8 10 9.7l6.7 7.8 4.9 6.7c1.7 2.8 3.7 6 4 6.8l.9 2-2-.4-2-3.3-2-3.5a84.6 84.6 0 0 0-8.6-10.5 164.7 164.7 0 0 0-15.2-14.8l.1-1a55.7 55.7 0 0 0 .3-7c-.3-3.8-.8-5.8-1.8-7.4-.5-.9-3-3.3-6-5.9l-2.8-2.5c-1-1-1.2-1.2-1.4-1.8l-1-1.7a53 53 0 0 1-5.2-10.2c-1.7-4-2-4.9-2-5.2 0-.6 3-9.9 3.8-12a247 247 0 0 1 3.6-8.5l.5-1-1-.6-1-.5-3.3 7.4c-1.6 3.9-2 5.3-3.4 9.8l-1.4 4.5.3.8a116.1 116.1 0 0 0 4.2 9.4l-.6-.4a134.9 134.9 0 0 0-37-17.7l-5.6-1.7-3.1-.5c-3-.5-3.4-.6-7-.7a30 30 0 0 0-6.8 0c.4.2 2.8.6 3.3.6l6.3.6a89 89 0 0 1 16.1 4c4.7 1.6 4.7 1.7 8.5 3.3 3.9 1.6 4 1.7 7.2 3.3a144.3 144.3 0 0 1 20.8 12.8 35.9 35.9 0 0 0 2 3c.4.8.6 1 2 2.2 2 1.7 5.7 5 7 6.4 1 1.2 1.6 2.3 2 3.8.4 1.1.9 3.7 1 5.3l.1 1.3-.8 1a25 25 0 0 1-2.5 2.8l-4.2-3.2a232.6 232.6 0 0 0-60.5-33.7 102.1 102.1 0 0 0-19.7-5.5c-4.6-.9-5-1-9-1.3l-4.4-.5s-7.7 0-7.8.2c0 0-1.7.4-3.6.6a38.1 38.1 0 0 0-12.4 3.6c-2.4 1-3 1.4-5 2.7l-.7.5 1.4-1.1.7-.6 1-.8 3.7-2.2.8-.4c2.2-1 3-1.3 5.7-2.1a46.7 46.7 0 0 1 15.5-2.1c2.7 0 5.8 0 10.1.6 3.8.4 8.8 1.4 15 3l5 1.4 5.4 1.9a246.4 246.4 0 0 1 16.4 6.7l11.1 5.6c3.2 1.8 9 5 9.8 5.6a698.5 698.5 0 0 1 11.8 7.6 253.2 253.2 0 0 1 14.7 10.6c.3 0-1-1-4-3.5-3.2-2.6-3.8-3-8.2-6-9.4-6.4-9.8-6.7-17.4-11a202.6 202.6 0 0 0-42.2-18.7l-6.5-2-5-1-4.8-.8-4.4-.3a62 62 0 0 0-23.7 2.1h.2a45.2 45.2 0 0 1 9.6-2.4c2.7-.5 4-.6 5.5-.6l4.1-.1a148.4 148.4 0 0 1 11.7 1 140.3 140.3 0 0 1 31 9c5.6 2.4 6.1 2.6 10.6 4.8 5.3 2.6 6 3 10.8 5.6a206 206 0 0 1 31.8 21.3c2.2 1.8 2.4 2 2.7 2 .4-.1.4-.3.1-.6l-5.6-4.2c-17-13-33.5-22.5-51.2-29.7-6-2.5-9-3.5-17.8-6.2l-4.4-1.3-4.7-.8-4.8-.9-5-.3a66.2 66.2 0 0 0-18.3 1l-2.9.8c2.2-1 3-1.3 6.3-2.3 3.8-1.2 3.9-1.2 7.7-1.8 3.6-.6 4-.6 8-.8 4.2-.1 4.3-.1 9 .2l4.9.4.7-.1.6-.3a33.5 33.5 0 0 0 5-2.7 40.6 40.6 0 0 0 9.7-8.6l.2-.2.2-.4v.1-.1a24.4 24.4 0 0 1 1.7-2.2 76.7 76.7 0 0 0 2.9-3.5c1.6-1.3 3.4-2.4 5.3-3.3 3.7-1.7 7.6-2.6 12.3-2.9zm-23.4 24.6c.3 0 1.1.2 1 .3l-.7-.1c-.4-.1-.5-.2-.3-.2zm4.4 1a55 55 0 0 1 9 2.3 109.2 109.2 0 0 1 21.1 9.2 120.8 120.8 0 0 1 14.3 9c.1.3.2.5 0 .5l-1-.8a137.6 137.6 0 0 0-43.4-20.3zm85.2 17a94.5 94.5 0 0 1 4 52.3 80.8 80.8 0 0 0-6.6-10.3l-3.3-4.5-.4-.4-.3-2a48.9 48.9 0 0 1 2-22.8l2.2-6.6c.5-1.8.8-2.4 1-2.7l1-2 .4-1zm-132.3 21.7c2.7-.1 4.9.6 6.9 2.2 2.7 2.1 5 6.5 6.2 12 .8 3.2 1 8.5.7 12.4l-.2 1.9.5.2a67.1 67.1 0 0 1 4.7 2.5c1.4.7 1.6 1 2.4 1.7.7.8.8.9 1 1.8.4 1.2.3 2.8 0 4.3l-.2 1 .7-1 5.6-8.5c7.5-11 10-15.1 12.5-19.9a53.5 53.5 0 0 0 4.4-10.2c.2-.2.7.6 2.4 3.2l5.4 8.7c3.4 5.1 4.2 7 4.3 9.9.2 4-2.4 8.6-7.4 13.3a52.4 52.4 0 0 1-10.7 7.3l-1.7.8-.2 4.4c0 4.7-.2 5.3-1.1 6.3-1.4 1.6-5 2.7-8.7 2.8a90.7 90.7 0 0 1-13.8-1.6 34 34 0 0 0 3.8 3.6c1.1 1 2.5 2 9.3 6.7 2.3 1.6 4 3 5.5 4.4l-.2.1-5.6-1.4c-1.7-.3-3.3-.6-5-.7h-.1l-2.8-.1c-.7-1-1.2-2.1-2-3.8a37 37 0 0 1-3.2-8.5c-.1 0-1 2.7-1.4 4.6-.3 1-.7 3.4-1 5.2l-.4 2.7c-2.3.3-4.6.7-6.8 1.3l-1-2.2c-.4-2.3.8-5.4 2.6-7.2a35 35 0 0 1 7.9-4.8l-1-.3c-1.5-.4-4.2-1.4-6.2-2.3a50.1 50.1 0 0 0-11.4-4.6l.5 1.4 1.3 4c1.1 3.3 1.4 4 2.4 4.9a7.6 7.6 0 0 0 5.6 1.5c.9-.2.8 0-.9.9l-7.9 4.6-6.7 4c-1.3-.5-2.7-.8-4-.8h-8c-2.5 0-4.9.8-7 2 .2-1.7.3-3.7.4-7.4.2-6.1.5-8 1.2-9.9a8.6 8.6 0 0 1 2.8-4 9 9 0 0 1 2.8-2c2.2-1.1 5-1.8 7.8-1.9a20.3 20.3 0 0 1 9.5 2.5c.1 0 1.8-2 3.5-4.4 1.2-1.7 1.5-2 2-2.3 1.2-.7 2.4-.7 3.8.2l.6.3-3.8-8.3c-5-10.7-6.5-13.6-9.3-18a48 48 0 0 0-7-8.6c-1.9-2-3.4-3.8-3.3-3.8.2-.3 1.2-.5 3.7-.8a252.8 252.8 0 0 0 15.3-2.3zm13.5 28.7zm0 0a63 63 0 0 0-5.5 4.5c-1 1-1.1 1-1.4 2-.7 1.9-.4 5.9.7 9.2.8 2.5 3.2 7 4.8 9.1l.9 1.2.4.6v-.4a63.5 63.5 0 0 1 0-12.7 65.7 65.7 0 0 0 .1-13.5zm15.5 9.5c-1 0-2 .3-3.2 1a22.7 22.7 0 0 0-5 4.3 75 75 0 0 0-7.2 11.8l2.4-1.2a1183 1183 0 0 1 21.2-10.4l-.2-.4a85.3 85.3 0 0 0-8-5zm.8 19.7 3.6.3 9.4.9a162 162 0 0 1 34.3 5.2c.1.1-.4 1.2-1.1 2.4l-1.4 2.3-1-.2h-7.4c-3.8.1-7.5 1.7-10.2 4.4a15.2 15.2 0 0 0-10-4.5h-8l-2.5.4.4-3c.3-1.7.3-2.5-.1-3.6-.6-1.5-2.3-2.9-4.8-4l-1.2-.6zm101 2.5 11.8 2.5-11.1 51.3 8.1 1.8-2.3 10.9-8.2-1.8-3.8 17.5-13.3-3 3.7-17.4-33.7-7.3-4-10.8 9.7-8 23.4-19.3h-.1zm-2.8 15.4-36.7 30.2 28.8 6.2zm-111.7 7.4a50.4 50.4 0 0 1 7.4.7c2.3.4 4.5.9 6.4 1.6v7a29.2 29.2 0 0 0-6.3-1.8c-2.2-.5-4.5-.7-7-.7-5.8 0-10 1.6-12.4 4.7a22 22 0 0 0-3.6 13.6c0 5.5 1.3 9.7 4 12.6 2.6 2.8 6.7 4.2 12.2 4.2a33 33 0 0 0 13.2-2.3v7a39 39 0 0 1-13.9 2c-7.7 0-13.6-2-17.6-6.3-4-4.3-6-10-6-17.2 0-5.2.9-9.7 2.6-13.4 1.7-3.7 4.3-6.6 7.7-8.6 3.5-2 8-3 13.3-3v-.1zm-61.5.7 2.6.1c2.5.3 4.6 1 6.3 2 2.4 1.3 4.1 3.2 5.2 5.6 1.2 2.3 1.7 5 1.7 8a15 15 0 0 1-4.4 11.3 16 16 0 0 1-11.7 4.3h-12.7v15.9h-8v-47.2zm22.2 0h8v47.2h-8zm61 0h8v25.7l16.7-21.3v.1l3.5-4.4h7.4l-10.9 13.8-4.5 5.7 17.8 27.7h-8.5l-13.9-22-7.7 9.8v12.2h-8zm-96.2 6.2v18.8h11.3c3.1 0 5.5-.8 7.1-2.5a9.3 9.3 0 0 0 2.5-6.7c0-3-.8-5.4-2.4-7-1.5-1.7-3.8-2.6-6.9-2.6zm75 64.2a16.1 16.1 0 0 1 4.5.6v2.4c-1.3-.5-2.7-.7-4.2-.7-1.2 0-2 .1-2.7.4-.7.3-1 1-1 1.7 0 .5 0 .9.3 1.2.2.3.6.5 1.2.8l2.4.7c1.3.3 2.3.7 3 1.2.7.4 1.2 1 1.5 1.5.3.6.4 1.3.4 2a4 4 0 0 1-1.5 3.4c-1 .8-2.6 1.2-4.7 1.2s-3.8-.3-5-.8v-2.4a15.3 15.3 0 0 0 4.7.9 7 7 0 0 0 2.9-.5c.6-.3 1-.8 1-1.7 0-.6-.2-1-.5-1.3a3 3 0 0 0-1.3-.9l-2.5-.8c-1.7-.4-3-1-3.6-1.6-.7-.7-1-1.7-1-2.9a4 4 0 0 1 1.5-3.3c1-.7 2.5-1.1 4.6-1.1zm-83.3.2h7a6 6 0 0 1 3 .7c.9.5 1.4 1 1.8 1.9.4.8.6 1.7.6 2.7a5 5 0 0 1-1.5 3.8c-1 1-2.3 1.5-4 1.5h-4.2v5.3h-2.7zm18.7 0h11v2.1h-8.3v4.8h7.5v2.1h-7.5v4.8h8.4v2.1h-11.1zm17.7 0h2.4l8.3 11.7v-11.7h2.6v16h-2.3l-8.3-11.8v11.7h-2.7zm20.6 0h2.4l8.3 11.7v-11.7h2.7v16h-2.4l-8.3-11.8v11.7h-2.7zm36.2 0h2.7l4.3 7.7 4.2-7.7h2.8l-5.7 10v6h-2.6v-6zm20.3 0h2.7v13.8h8.1v2.1h-10.8zm12.8 0h2.8l4.8 13 4.7-13h2.8l-6 16h-3zm24.2 0h3l6 16h-2.7l-1.6-4.2h-6.4l-1.6 4.1h-2.8zm15.8 0h2.4l8.3 11.7v-11.7h2.6v16h-2.3l-8.3-11.8v11.7h-2.7zm20.6 0h2.7v16h-2.7zm15.6 0h3l6 16h-2.8l-1.5-4.2h-6.4l-1.6 4.1h-2.8zm-199.8 2.1v6.3h3.8c1 0 1.8-.3 2.4-.8.5-.6.8-1.3.8-2.3 0-1-.3-1.8-.8-2.4-.5-.5-1.3-.8-2.3-.8zm149.3.4-2.8 7.2h5.5zm52 0-2.8 7.2h5.5z" style="color:#000;fill:url(#b);fill-opacity:1;stroke-width:2.45097;stroke-linecap:round;stroke-linejoin:round;-inkscape-stroke:none;paint-order:fill markers stroke" transform="translate(-22264.7 1927.5)"/></svg>