<svg xmlns="http://www.w3.org/2000/svg" xmlns:xlink="http://www.w3.org/1999/xlink" xml:space="preserve" width="944.9" height="1159" viewBox="0 0 250 306.6"><defs><linearGradient id="a"><stop offset="0" style="stop-color:#35944a;stop-opacity:1"/><stop offset="1" style="stop-color:#24ec94;stop-opacity:1"/></linearGradient><linearGradient xlink:href="#a" id="b" x1="11877.8" x2="12094.1" y1="1893.4" y2="1623.3" gradientUnits="userSpaceOnUse"/></defs><path d="M12002.8 1586.7zm0 0a124.8 124.8 0 0 0-119.4 87.9l-.3 1.2a125 125 0 0 0-5.3 36v19.2a126.7 126.7 0 0 0 1 15.4c0 8.8 3.1 17.3 6 25.5h-.2a15.2 15.2 0 0 0-6.8 12.6v47.2c0 3.7 1.4 7.2 3.8 9.9 2 2.2 10.6 11.2 13.4 13.2 2.5 1.8 5.6 2.8 8.8 2.8h4.5l6.8 18c.6 1.5 1.5 2.9 2.5 4 1.6 1.8 9.6 10.2 12 11.6 2 1.2 4.3 1.8 6.7 1.8h4c3 0 5.7-1.1 8-3a13 13 0 0 0 7.3 3h3.6a13 13 0 0 0 4.2-1.7c1.3.8 2.7 1.4 4.2 1.7h3.6c1.3-.3 2.6-.8 3.8-1.6a13 13 0 0 0 5.4 1.6h3.7c2.4 0 4.7-.7 6.6-2a29.6 29.6 0 0 0 19 1.3h.2l2.8-1c1.3.8 2.7 1.4 4.1 1.7h3.6a13 13 0 0 0 4.2-1.7 13 13 0 0 0 4.2 1.7h3.6c1.6-.3 3.2-1 4.6-1.9 2 1.2 4.2 1.9 6.5 2h3.2a13 13 0 0 0 4.2-1.8c1.2.8 2.6 1.4 4.1 1.7h3.6a13 13 0 0 0 3.5-1.4 13 13 0 0 0 4.2 1.4h3.8a13 13 0 0 0 6.4-2 13 13 0 0 0 6.4 2h3.7c9 0 15.3-9 12-17.4l-2.4-6.6c6.8-.3 12.5-5.2 14-11.8l1-4.4c5.5-1.4 9.7-5.8 11-11.3l2.3-11c1.2-5.5-.8-11.3-5.3-15l8.3-38c1-5-.4-10.2-4-13.9 2.8-10.4 4.3-21.3 4.3-32.6v-19.3c0-69.2-55.8-125-125-125zm0 7.2a117.8 117.8 0 0 1 110.4 159.1l-.1.2c-2.1-2.3-5-4-8-4.6l-2.4-.5a25.7 25.7 0 0 0 9.6-11.3c.5-1 .8-2 .8-2.6.1-1.4-.5-3-1.9-5a39.1 39.1 0 0 0-4-4.8l-.4-.2-.5.1.1-.5v-.3l-.2-.2a99.3 99.3 0 0 0-34.4-23.2l-.5-.3h-.4l-.3-.2-.9-.3a108 108 0 0 0-76.8 0c-4 1.6-8.4 3.9-11.1 5.8.1-.8.3-1.7 0-2.4 0-.3-.2-.7-.5-1l-.1-.2a35 35 0 0 0 12.9-10l.3-.5v-.6a1 1 0 0 0-.4-.6l-.6-.1a2 2 0 0 0-1 .3c-.4.2-.6.5-.9.9a27.4 27.4 0 0 1-14.2 9.4h-.2a14 14 0 0 1-2.7-2 14 14 0 0 1-3.5-7.3c-.2-1-.1-3 .1-3.9.1-.5.2-1 0-1.5-.2-.4-.7-.7-1.2-.8h-.7c-.3 0-.6.1-.7.4-.4.4-.5.9-.6 1.6-.3 1.1-.2 3.4 0 4.6a17.4 17.4 0 0 0 3.8 7.7l.2.2c-.6 0-1.2.2-1.6.3a9 9 0 0 0-4 2.3 35 35 0 0 0-5.5-8.4 94.3 94.3 0 0 0-41.8-25.6 94.6 94.6 0 0 1 178.6 43.8v3.4l2.7 2.3.9.8.2-6.5a98.5 98.5 0 0 0-186.2-44.6l.9.2-5.7-1a44.4 44.4 0 0 0-8.5.1 35 35 0 0 0-8.6 2.2 117.8 117.8 0 0 1 109.6-74.7zm22.1 28.5h-1.6a25.1 25.1 0 0 0-8.5 1.8 27 27 0 0 0-13.8 11.6c-2 3.4-3 6.8-3 9.8 0 .8 0 1.3.3 2.1a48.2 48.2 0 0 0-14.5 1.3c-1.5.5-2.8 1-4 1.8-1.2.8-2 1.5-2.6 2.6-1 1.7-1.8 3.9-2.1 6.4a24.6 24.6 0 0 0 .5 9.5c.9 2.5 2.3 4.3 4.2 5.2.9.4 2.1.5 3.2.5v-.1.1l.5.1h-.4c.2.7.5 1.3 1 1.8l1.5 1.2a14 14 0 0 0 4.4 1.6 33.5 33.5 0 0 0 16.9-1 38.7 38.7 0 0 0 15-8.6l.5-.4h.3a109.9 109.9 0 0 0 14-7l-.5.1s5 8.9 8.9 12c9.3 7.2 40.5 18.2 49.2 21.2-.6-3.8-1.5-7.6-2.6-11.2-11-3.2-35.7-10.7-43.7-15.4-3.5-2-8.7-8.4-8.8-8.5 2.4-1.5 4.7-3.1 6.5-4.5l.4-.4.9-.2a45.4 45.4 0 0 0 20-11.7l-.5-.5a44.2 44.2 0 0 1-19.7 11.5l-1 .3-.5.4a116 116 0 0 1-22.9 13.1l-.4.2-.6.5-1.8 1.6a37.9 37.9 0 0 1-29.4 7.8c-1.8-.4-3-.9-4.2-1.5-.6-.4-1-.7-1.3-1.1-.5-.5-.8-1-1-1.7v-.4h-.2c-1.2 0-2.6-.2-3.4-.5-1.7-.8-3-2.4-3.7-4.7l-.7-3c-.2-2-.2-4.1.1-6.2.4-2.5 1-4.6 2-6 .7-1.2 1.2-1.7 2.4-2.5 1.1-.6 2.4-1.2 3.9-1.7a36.1 36.1 0 0 1 15-1.1v-1c-.3-.9-.3-1.2-.4-2 0-2.8 1-6 3-9.4a26.2 26.2 0 0 1 21.7-13 20 20 0 0 1 11.2 2.5l.5.2.1-.2 1-1.6-.7-.3-.7 1a20.3 20.3 0 0 0-9.9-2.4zm-.4 1.5a25 25 0 0 0-7.1 1 25.4 25.4 0 0 0-16.5 14.4c-1 2.6-1.6 4.9-1.4 7 0 .4.3 1.7.5 2v.3l1.1.1 5.1.6a145.8 145.8 0 0 0 18.7 1.3l.5-.3a55.7 55.7 0 0 1 12.5-4.3l.3-.8c1.5-3.4 2.1-6.5 2-9.3l-.4-2.2c-.3-1.2-.7-2.2-1.3-3.3a13 13 0 0 0-6.2-5c-2.3-1-5-1.5-7.8-1.5zm12.4.4-1 1.7-.2.4.3.2a12.3 12.3 0 0 1 4.8 8.2c.4 3.3-.2 6.8-1.8 10.6l-.2.6h.5c1.6 0 3 .2 4 .8.3.1.4.2.5.1l.7-.5a29.2 29.2 0 0 0 3.9-3.4l1.3-1.6c2-2.5 4-4.8 5.9-6.8-5.8-4.1-12-7.5-18.7-10.3zm-.4 1.7.2.1h-.2zm19.7 9c-2.1 2.4-4.4 5-6.7 7.9a15.4 15.4 0 0 1-2.8 2.8 57 57 0 0 1-6.5 4.5l-4.7 2.9 1.2-.5c4.8-2.2 9.4-4 10.6-4.2 1.5-.3 2.4-.1 3 .4.4.4.5 1 .3 1.6-.3.8-1.4 2-2.8 3.3-.6.5-.6.5-.1.3l1-.3a44 44 0 0 0 16.9-10.3l.3-.4c-3-2.8-6.3-5.5-9.7-8zm-17 11.7c-.9 0-1.9.2-3 .4a43.2 43.2 0 0 0-11.6 4.6c-1.4.9-2.8 2-3.7 3-1.9 2.2-2.8 4.6-2.5 6.6v.3l.6-.2a71.4 71.4 0 0 0 12.4-6.4c1.2-1 2.7-2 6-4l5.6-3.5-1.4-.6a9 9 0 0 0-2.4-.2zm9.9 2.3c-.6 0-1.6 0-2.2.2-3.3 1-9.5 3.8-14.7 6.3-7.4 3.7-12.4 7-14.6 9.6l-.9 1.5-.1.6v.7l.3.6.3.3c.8.4 2.3.3 4.5-.5 3.7-1.2 9.2-4 15-7.6 7-4.3 12.3-8.6 13-10.5.2-.3.2-.6.2-.7-.1-.2-.4-.4-.8-.5zm-55.4.1a50.3 50.3 0 0 0-7.3.8c-1.3.2-2.6.6-3.7 1.1-1.1.5-2.4 1.2-3 1.8-2.3 1.8-3.7 7.2-3.3 12.2.3 3.8 1.5 6.6 3.4 7.7.9.6 1.7.8 3.3.8h.5l.1-.2.2-.6.8-1.2c1.5-1.8 4.6-3.5 9-4.9a124.4 124.4 0 0 1 21.5-4.1l2.3-.6h.2v-.4a7 7 0 0 1 0-2.6c.6-2 1.9-4.1 4-6a20.6 20.6 0 0 1 1.8-1.5h-.7c-4.1 0-8-.4-17.8-1.5a93 93 0 0 0-11.3-.8zm23.2 12.2v.3-.3zm3.2.5h-.2l-.7.3-3.1 1-1.3.3-1.7.2a148.1 148.1 0 0 0-14.8 2.6l-3.9 1c-6 1.9-9.4 4-10 6.3 0 .5 0 1.2.3 1.7 1.3 2.4 6.5 3.8 12.7 3.6a38 38 0 0 0 22.1-8.6l.8-.6h-.4l-.8.2c-1.5.1-2.4-.2-3-1a2 2 0 0 1-.2-.7v-1.3c.2-1.3 1.3-2.7 3.3-4.3l.7-.6zm-114.3 6.1c2.2 0 4.5.2 6.8.5a79.6 79.6 0 0 1 49.9 30.7 27.4 27.4 0 0 1 2.6 5l.5.4v.1a49.3 49.3 0 0 0-2.8 5.6l-.3.7a18.7 18.7 0 0 0-1.2 8.6 7 7 0 0 0 2.8 4.1c.4.3.8.4 1.3.3a10 10 0 0 0 5.4-2.8 43.9 43.9 0 0 0 8.8-12.5l.5-.9h.5a85.6 85.6 0 0 1 40.1-13.3 117.3 117.3 0 0 1 37.8 3.2 43.8 43.8 0 0 0 4 1.2 100.7 100.7 0 0 1 40.6 23.8l1 1c-.7.8-3.2 2.7-4.7 3.6a52 52 0 0 1-24.4 6.4c-5.1.3-6 .3-27.1.4h-16.1l-2.7.1a263.6 263.6 0 0 0-18.3 1.4c-1 .3-2.3 1.3-4 2.9a215 215 0 0 0-9.9 9.8 1258.5 1258.5 0 0 0-11.1 11.7c-1.7 1.9-6.8 7-8.6 8.7h-1.6c-7.3 0-14.6 1.4-21 5.2h-.2a15.2 15.2 0 0 0-10.1-4.5h-8c-2.5.1-4.9.8-7 2.1l-.3.7-1.2-.4-7.5-2.8c-2.2-.9-5.8-2.7-7.7-4a23 23 0 0 1-10.7-14.8 12 12 0 0 1-.1-3.7 82.1 82.1 0 0 1 1-7.5 736.6 736.6 0 0 1 2.5-14.5l.2-1.1c.7-3.5 1.4-9 1.5-11 0-1 0-1.6-.4-2.2-.3-.6-.9-1-1.9-1.8a532.1 532.1 0 0 0-18.5-13.3 117 117 0 0 1 6-24v-.3a31.7 31.7 0 0 1 13.6-2.8zm-14 1.3h-.1zm91.2 3.6v.3zm-101.1 7.2-.4 1.5.4-1.5zm-2.6 12.3v.4-.4zm6.7 4.5 1.6 1.3-1.3-1-.3-.3zm-.3 2.2 5.9 4.3a686.2 686.2 0 0 1 11.2 8.1v2.7c-.2 1.5-.5 3.5-1 5.6l-.2 1.8-.3 1.5a72.2 72.2 0 0 0-.7 3.8l-.3 1.5-.1.5-.3 1.6-.5 2.5-.2 1.5-.2.9-.1.8-.3 1.6-.3 1.5-.1.9v.3s-.1.1 0 0v.1l-.1.2v.4l-.1.5v.2a48 48 0 0 0-.7 5.3c0 1.4 0 2.4.5 4.2a26.6 26.6 0 0 0 12.3 16.5l2.4 1.5h-12.5s-5 0-9.4 1a39.4 39.4 0 0 1 3-3.2c.1-.2.3-.4.2-.7a1 1 0 0 0-.3-.6 10 10 0 0 1-10-8.5c-.1-.4 0-1.2.3-2.1.4-1 1-2 1.7-2.8l.9-1 .3-.5.2-.2v-.1l.1-.3c0-.3-.1-.4-.2-.5l-.2-.2-.4-.2c-2-.8-3.2-1.6-4.2-2.3-1-.9-2-2-2.2-2.8-.1-.4-.2-1.5 0-1.9.1-.5.7-1.4 1.5-2.2a15.5 15.5 0 0 1 3.4-2.7l.1-.2s.2-.1.2-.4l-.1-.4-.1-.2-.2-.2-.6-.5a24.6 24.6 0 0 1-3.1-3 2 2 0 0 1-.3-1.2c0-1.2.6-3 1.8-5.3a51 51 0 0 1 6.2-9.6V1716.2c0-.3-.1-.4-.2-.4l-.1-.2-.2-.1-.6-.3-2.5-1v-2.5c0-4.2.2-8.4.7-12.6zm87 3h1c.7 0 1.4.3 2 .5.4.2.8.3 1.5.3 1 0 1.7.5 1.8.7l.2 1-.3 1.6-1.2 2.3a72 72 0 0 1-1.8 3.2c-3.7 6.2-7.2 9.7-10 10.5a2 2 0 0 1-.5.1l-.3-.1a5.2 5.2 0 0 1-1.7-2.8c-.3-1-.2-3.7.3-5.5l.8-2.2v-.3c.1 0 .2 0 .2-.3 0 .1 0 0 0 0a14.2 14.2 0 0 1 .7-1.6l.2-.6.1-.1v-.1l.2-.4a89.8 89.8 0 0 1 2-3.4c.5-1 2.5-2.5 4-2.8h.8zm-94.9 9h.3-.3zm4.6 2.2.6.2.9.4-1-.4-.5-.2zm22.4.4v.9l-.1.4.1-1.3zm-19.7 2.6 1.1.5-.4.6-.6 1-.1-2zm221.6 10.3.6.6 1.9 2.4c.6.9.8 1.4 1.1 2.2l-.1-.2-1.8-2.2c-.9-1-1.2-1.5-1.9-1.8-.3-.1-.8 0-1 .1l-.8.6a45.7 45.7 0 0 1-3.3 2.7l-.2.4h-.7l-.3.2a44.3 44.3 0 0 0-3.3 1.7 12 12 0 0 0-1.3.7l-.3.3v.8l-.4-.4c-.2-.2-.5-.2-.7-.2h-.3l-.4.1-1 .3a62.9 62.9 0 0 1-4.2 1.2l-.3.2c-.4.3-.4.7-.4 1 0 .3 0 .5.2.9l-.2-.5c-.3-.5-.7-.9-1.3-1l-.2-.1H12085.5l-1.2.2a132.6 132.6 0 0 1-4.7.7c-.3 0-.6.2-.8.4-.2.3-.3.8-.3 1.2l.5 1.4 3.3 7.1.1.4-1.2.8v-.3l-.4-1.2a177.7 177.7 0 0 0-3-7.8l-.3-.7c-.4-.6-1-1-1.7-1a21.3 21.3 0 0 0-2.7.2 195 195 0 0 0-4.6.4c-.3.1-.6.4-.7.8-.3.7 0 1.2.3 2.3a535.3 535.3 0 0 1 2.8 8.4c.2.4.4.6.7.8l.9.3h1.8a82 82 0 0 0 4.4-.3l-3.4 2.8a159.8 159.8 0 0 1-14.4.1H12059.1l-1.9-.1-5.3-.3-1.6-.1a53.4 53.4 0 0 1-2.4-.2c-3.7-.3-12-1-15.2-1.5l-1.9-.2a295 295 0 0 1-7-1c-1.4-.3-2-.5-2.6-.5-.3 0-.6.1-.8.3l-.3.6a24.2 24.2 0 0 1-1.3 3.6l-2.8 5.7c-.5 1-1.3 2.2-2 3.2a16.7 16.7 0 0 1-4.6 4.3c-1 .6-4.1 1-8 1.2-.6 0-1 0-1.4.3a1 1 0 0 0-.4.5h-2.4c-1.2.1-2.4.4-3.6.7h-1.3c-.8 0-1.6.2-2.3.6a41 41 0 0 0-4.2-1.1l-3.6-.5.6-.6 3.8-3.8 2.2-2.4a525.7 525.7 0 0 0 10.8-11.4l8.5-8.5a32.5 32.5 0 0 1 4.6-3.8h1a1218.7 1218.7 0 0 0 8.7-.6 774 774 0 0 0 9.4-.4h10.7c28.9 0 30 0 35.7-.4 12.7-1 21.5-4.2 28.2-10.3zm-219.9.6c-1-.2-2 0-3 .5-1.3.6-2.2 1.7-2.3 3 0 .7.2 1.5.8 2a4 4 0 0 0 2.1 1 6 6 0 0 0 2.6-.2 4.4 4.4 0 0 0 2.7-2c.5-1 .4-2.2-.4-3a3.9 3.9 0 0 0-2.5-1.3zm-.9 1.8c.4 0 .8 0 1.2.2.4.2.7.4.8.7 0 .2 0 .5-.2.9-.2.5-.3.5-1 .9l-1 .2h-1c-.8-.2-1.1-.7-1.1-1.2s.4-1 1.1-1.4l1.2-.3zm220.3.7.6.6a125.2 125.2 0 0 1 2.8 3.4l-.1.3-.6 1-1.6 2.2-.2.2a41.5 41.5 0 0 1-3.3-4.3l-.7-1c.2 0 .3-.2.5-.3a31.2 31.2 0 0 0 2.6-2.1zm-5.2 3.8.6.8a150.8 150.8 0 0 1 3.5 5.2l-.2.3a19 19 0 0 1-3.5 2.5l-1-1.5a424.4 424.4 0 0 0-3-5.2l-.2-.2a40.3 40.3 0 0 0 3.8-1.9zm10.1 1.1v.3-.3zm-17 2 .4.4a61.8 61.8 0 0 1 4 6.7v.1c-.1.2-.4.3-.8.5a33.8 33.8 0 0 1-3.8 1.4 25.6 25.6 0 0 1-1.3-2.3 352.8 352.8 0 0 0-2.9-5.5l.8-.3 2.7-.8zm15.7.5c-.6 1.2-1.1 2.6-2 3.8a25 25 0 0 1-8 6.7l-3-.7.8-.3 2.3-1.1.6-.6.1-.7-.1-.3.2.2c.2.2.4.3.8.3l.5-.2.5-.2 1.2-.8c1-.6 2-1.4 2.6-2l.8-.8v-.8h-.1.2c.2 0 .5 0 .8-.2l.5-.6 1.3-1.7zm-23.9 1.5.2.2a50.4 50.4 0 0 1 2 4l1.5 3v.3c-1.9 0-3.7.4-5.5 1.1a352.7 352.7 0 0 0-3.5-7.8 276.8 276.8 0 0 0 5.3-.8zm2.2.1.4.8-.1-.2-.3-.6zm-202 1c-1.3 0-2.7.4-3.7 1.4-.7.7-1.1 1.5-1.1 2.4 0 1.3 1 2.4 2.4 2.9v.2h.5c.8.3 2 .3 2.8 0a4.3 4.3 0 0 0 2.9-2 3 3 0 0 0-.3-3.2c-.8-1-2.1-1.6-3.5-1.6zm189.8.2.1.1.3.8a334.6 334.6 0 0 1 2.9 7.8l-1.6.2a102 102 0 0 1-5.1 0 382.8 382.8 0 0 0-2.7-8.5l1-.1a256 256 0 0 0 4.7-.3h.4zm13 .3a483.4 483.4 0 0 1 3.2 6h-.3a74 74 0 0 0-1.8-3.8l-1.2-2.2zm-202.8 1.5c.9 0 1.6.5 1.8 1 .2.4.2.7 0 1 0 .4-.4.7-1 1-.4.1-.5.2-1.2.2-1 0-1.3 0-1.9-.6-.3-.3-.4-.6-.4-.9 0-.3 0-.6.5-1a3 3 0 0 1 2.2-.7zm135.8 10 .6.1a135.3 135.3 0 0 0 14 2 804.7 804.7 0 0 1 6.3.6l2.8.3a323.5 323.5 0 0 0 12.2.8h1.3a227.1 227.1 0 0 0 8.1.2l5.7-.2-12.4 10.3v.2l-14.3 11.6c-2.6-5-7.7-8-13.3-8.1h-7.4c-3.9.1-7.5 1.7-10.3 4.4-2-2-4.4-3.4-7.1-4a10 10 0 0 0 5.4-3.2c2-2 3.7-4.4 5.4-7.9 1-2 2.3-4.9 2.8-6.4l.2-.7zm-132 2h-1.4c-1.7.6-3.1 1.9-3.1 3.5 0 2 1.8 3.7 4.1 4 1.7.1 3.2-.3 4.2-1.2 1-.9 1.4-2.3.8-3.6-.4-1.3-1.8-2.3-3.2-2.6a6 6 0 0 0-1.4-.2zm0 2c.9 0 .8-.1 1.3.1.6.3 1 .6 1.1.8.2.3.3.6.3 1 0 .7-.4 1.2-1.5 1.5-.9.2-1.8 0-2.5-.3-.6-.4-1-.9-1-1.5 0-.5.3-1 1-1.4.6-.3.5-.3 1.3-.3zm116.7 3.9c-1.6 0-2.9.5-4 1.4-.8.9-1.2 2-1 3 .3 1 1 2 2.2 2.6.5.2 1 .4 1.5.4 1.9.4 3.8-.1 5-1.4 1-1 1.2-2.1.8-3.3-.7-1.7-2.5-2.7-4.5-2.7zm83.5 1.5 11.7 2.5-11 51.4 8.1 1.7-2.4 11-8.1-1.9-3.8 17.5-13.4-2.9 3.8-17.4-33.7-7.3-4-10.9 9.7-8 23.4-19.3h-.2zm-83.6.5 1.2.1c.7.3 1 .7 1.2 1 .2.4.2.8 0 1.2-.3.6-.8 1-1.7 1.2-1.2.3-2.3 0-3-.7-.5-.6-.5-1-.2-1.6.2-.5.5-.7 1-1l.6-.2h.9zm80.8 15-36.7 30 28.8 6.3zm-111.7 7.3a50.9 50.9 0 0 1 7.4.7c2.3.4 4.4 1 6.4 1.6v7a29.2 29.2 0 0 0-6.3-1.8c-2.2-.4-4.5-.7-7-.7-5.8 0-10 1.6-12.4 4.7a22 22 0 0 0-3.6 13.6c0 5.5 1.3 9.7 4 12.6 2.6 2.8 6.6 4.2 12.2 4.2a33 33 0 0 0 13.2-2.3v7a39 39 0 0 1-13.9 2c-7.8 0-13.6-2-17.6-6.3-4-4.3-6-10-6-17.2 0-5.2.9-9.7 2.5-13.4 1.7-3.7 4.3-6.6 7.8-8.6s7.9-3 13.3-3zm-61.5.7 2.6.1c2.4.3 4.6 1 6.3 2 2.4 1.3 4.1 3.2 5.2 5.6 1.1 2.3 1.7 5 1.7 8a15 15 0 0 1-4.4 11.3 16 16 0 0 1-11.7 4.3h-12.8v15.9h-8v-47.2zm22.2 0h8v47.2h-8zm61 0h8v25.7l16.7-21.3v.1l3.5-4.4h7.4l-10.9 13.8-4.5 5.7 17.7 27.7h-8.5l-13.8-22-7.7 9.8v12.2h-8zm-96.3 6.2v18.8h11.3c3.2 0 5.6-.8 7.2-2.5a9.3 9.3 0 0 0 2.4-6.7c0-3-.7-5.4-2.3-7-1.5-1.7-3.8-2.6-6.9-2.6zm91.4 58.6a20 20 0 0 1 6.3 1v3.1c-1.8-.7-3.8-1-6-1-2.7 0-4.7.7-5.8 2.2-1 1.4-1.6 3.5-1.6 6.2 0 2.4.6 4.3 1.7 5.6 1.2 1.3 3 1.9 5.4 1.9 1.9 0 3.4-.2 4.6-.7v-6h-5.4v-2.3h8.5v10.3c-.7.4-1.7.8-3 1.2-1.2.4-2.9.6-4.8.6-3.5 0-6.2-1-8-2.9a10.9 10.9 0 0 1-2.6-7.7c0-2.4.4-4.4 1.1-6 .8-1.8 2-3.1 3.5-4 1.6-1 3.6-1.5 6-1.5zm-73.4.4h3.8l6.4 17.4 6.4-17.4h3.7l-8 21.3h-4.1zm27.5 0h3.6v21.3h-3.6zm12 0h9.8c2.4 0 4.1.6 5.2 1.8a7.1 7.1 0 0 1 1.6 5c0 1.5-.3 2.8-1 3.8-.8 1.1-2 1.8-3.3 2.3l.9.9.7 1.3 2.6 6.2h-3.7l-2.6-6c-.2-.5-.5-1-.9-1.2-.3-.2-.9-.3-1.7-.3h-4v7.5h-3.6zm49.2 0h3.6v21.3h-3.6zm12 0h3.1l11.2 15.7v-15.7h3.6v21.3h-3.2l-11.1-15.7v15.7h-3.6zm26.2 0h3.6v21.3h-3.6zm19.5 0h4l8.1 21.3h-3.7l-2.1-5.5h-8.6l-2.1 5.5h-3.8zm-103.3 2.8v8h5.2c1.3 0 2.3-.3 3.1-1 .7-.6 1.1-1.6 1.1-3 0-2.7-1.3-4-3.9-4zm105.3.4-3.7 9.8h7.4z" style="color:#000;fill:url(#b);fill-opacity:1;stroke-width:2.45097;stroke-linecap:round;stroke-linejoin:round;-inkscape-stroke:none;paint-order:fill markers stroke" transform="translate(-11877.8 -1586.7)"/></svg>