<svg xmlns="http://www.w3.org/2000/svg" xmlns:xlink="http://www.w3.org/1999/xlink" xml:space="preserve" width="944.1" height="1157.1" viewBox="0 0 249.8 306.1"><defs><linearGradient id="a"><stop offset="0" style="stop-color:#962424;stop-opacity:1"/><stop offset="1" style="stop-color:#ff0553;stop-opacity:1"/></linearGradient><linearGradient xlink:href="#a" id="b" x1="17169.2" x2="17372.3" y1="-2807.9" y2="-3056.8" gradientUnits="userSpaceOnUse"/></defs><path d="M17277.3-3087a124.9 124.9 0 0 0-120.3 103c-1.7 10-1.8 11.1-1.7 31.8 0 16.3 0 19.8.5 23 1.1 8.8 3 17.5 5 23.7l1 3.3-1.9 1.8a15.3 15.3 0 0 0-3 4.2 10.3 10.3 0 0 0-1.5 5.4c-.4 4.2-.3 48.5 0 51 .2 1.4.6 2.8 1.3 4.3 1 2 1.8 2.8 7.8 8.8 6.9 7 8.7 8.4 12 9.5 1 .3 1.9.8 2 1l3.7 9.4c2 4.9 3.8 9.5 4.2 10.2.4.8 3 3.6 6.8 7.4 8 8 7.7 7.9 15.1 8 7.9.3 148.9.3 155 0 4.7 0 5.2-.2 6.7-1 2.3-1 5-3.5 6-5.6 1.2-2.3 1.6-4.3 1.6-9.6v-4.4l1.4-1.1c1.7-1.2 3-3 4.3-5.6a36 36 0 0 1 2-3.3c1.2-1.8 2-3.8 2.7-7 .3-1.3.7-2.4.8-2.4l2.5-1c2.9-1.5 5.4-4 6.8-7a71 71 0 0 0 4-17.8c0-3.2-1.7-7.3-4-10l-1.5-1.5 2.9-13.3c5.3-24.8 5.3-24.7 5.3-28 0-3.6-.5-5.3-2.6-8.6l-1.3-2 .9-4c1-4.9 1.9-9.5 2.6-14.5.7-5.8.7-41 0-47.2a125.5 125.5 0 0 0-107.1-110c-6-.8-13-1.1-20-1zm3 7.3c11 0 13 .2 21.5 1.7a116.7 116.7 0 0 1 62.8 33.8 117 117 0 0 1 26 123.1c-.2.1-1-.3-1.9-1a16.5 16.5 0 0 0-7.5-3.4l-3.2-.8-.4-1.3c-.2-.7-.5-1.5-.8-1.8-.4-.4-.5-1-.4-2.3 0-1.2-.1-2.1-.6-3.2l-.6-1.4.7-3.2c2-8.7 2.7-15.5 2.5-25.6a99 99 0 0 0-101-95.4 99 99 0 0 0-95.6 98c-.1 15.9 3.3 30.2 10.4 44.8 1.5 3 1.7 4 1.2 4.3-.6.3-.3 2 .4 2.5.7.6.7.7.2 1.4-.4.6-.4 1 0 2.3l.3 2.2c0 .5-.5.6-11.9.2l-5.2-.1-1.8-3.5a121 121 0 0 1-12.3-40.4c-.7-5.5-.7-22 0-27.1a118.2 118.2 0 0 1 94.6-102c8-1.5 11.8-1.9 22.7-1.8zm2 23a94.8 94.8 0 0 1 91.2 109.8c-.6 3.5-1.2 5.2-1.2 3.4 0-1-1.2-3.3-2.2-4.3-.5-.5-1.1-.8-1.6-.8-1 0-1.1-.4-.4-1 .2-.1.4-.7.4-1.1 0-.8 0-.9-1-.9s-1 0-1-1c0-.7-.3-1.2-.9-1.9-1-1.1-2-1.2-1.7-.1 0 .4 0 .7-.2.7-.3 0-.4-.2-.2-.6.1-.7-.4-1.1-1.4-1.2-.5 0-.6 0-.3-.7.7-1.8 0-3-1.2-2.2-.6.3-.7.2-1-.9-.2-1-1-2-1.7-2.2l.3-.1-.6-.8c-.7-.7-1.3-1-2.6-1.3l-1-.2-.5-.7c-.4-1-1.2-1.3-2.7-1.3-1.1 0-1.4-.2-2.8-1.5a6 6 0 0 0-1.9-1.5c-.9-.5-1.7-.7-2.4-.7-.8 0-1.2-.1-2.1-.8l-1.2-.6c-.3-.2-1.4-.2-1.8-.1-.3 0-.3 0-.4.3h-.8c-1 .2-1 .1-1-.4 0-.3-.2-.7-.3-.8-.2 0-.3-1-.1-2.4 0-1.8 0-2.3-.3-2.6-.4-.4-.4-.7.4-2.7 1-2.6 1.4-5.2.8-6.4a3 3 0 0 0-1.4-1.4l-1.2-.6 1-.9c.9-1 .8-1.5-.1-1.5-.8 0-.8-.2 0-1.3 1.3-1.6 1.7-2.7 1.4-3-.2-.3-.5-.4-.8-.4-.2 0-.3-.3-.3-.6 0-.5-.2-.6-.7-.5-.5 0-.7.3-1 1.6-.2 1.6-.6 2-2.3 2.5-.6.2-.7.2-.4-.7.3-1.2 1.4-3.2 2.4-4.4.7-.7 1-1 1.6-.9.7.1.7 0 .5-1 0-.6-.6-1.6-1-2.2-.8-1-1-1.6-1.2-3.2-.3-2.2-.3-2.4-1.5-3.7-.9-1-1.7-1.2-1.9-.4 0 .4-.5.7-.9.8-.8.2-2.7 2.4-2.7 3.1 0 .3.2.5.4.5 1 0 .4 1.2-2.1 4-1 1-1.9 2.4-2.2 3.1-.4.8-.8 1.3-1.1 1.3-.3 0-1 .4-1.4 1-.6.7-.8.9-.8.4 0-.3-.2-1-.5-1.5l-.5-1 .7-.6c.4-.4.8-.8.8-1l.6-1c.4-.5.5-.5.5-.2 0 .7 1 .6 1.6 0 .6-.7.7-1.7 0-1.4-.3 0-.3 0-.2-.2.1-.2-.1-.3-.9-.2l-1 .2v-1.4c0-1 .1-1.5.4-1.8.3-.2.7-.8 1-1.2l.4-.9-1 .2c-1 .2-1.1.1-1.7-1l-.6-1.6c0-.5 1.7-1.9 2.2-1.9.2 0 .9-.6 1.4-1.4a13 13 0 0 1 2.1-2.2c.8-.7 1-1 1-1.8 0-1 0-1 .8-.9l.4.1h-.5s0 .3.2.5c.4.9.6 2 .7 3.6v3.2c-.2 1.6-.1 2 .1 2.1l.3.1 1.6-1.3 1.1-1v.9h.1c.2-.2.4-.2.7 0h.3l.3-2.5c0-.2-.2-.3-.5-.3-.4 0-1 .3-2 1.3l-.7.7v-1.5c-.2-3.8-.3-4.4-.8-5.6-.3-.5-.4-.7-.6-.7v.2l-.8-1.9c-1-2.4-1.7-3-3.2-3h-1.2l.4-1c1-2.4-.1-3.1-1.6-1-.7 1-.9 1-1 .5 0-.2-.2-.3-.3-.4h.2v-.6a9.3 9.3 0 0 0-1.5-3.9 41.5 41.5 0 0 1-2.8-3.2 4.1 4.1 0 0 0-3.7-1.5 5.3 5.3 0 0 0-1.7.3v-1.5c.1-1.5.1-1.6-.1-1.8-.7-.7-1.3 0-2.2 2.4l-.6 1.2-.7.3a7 7 0 0 0-3 1.5c-1.2 1-1 1-1.1-.3-.3-4.2-.4-5-.6-5.5a5.1 5.1 0 0 0-1.6-1.5c-.6-.1-1.7.6-2.6 2-.2.4-.5.6-.6.6l-.2-.4a12 12 0 0 0-2-4.2c-.3-.4-1-.8-1.3-.8v.2c-.2-.2-.6-.3-1.6-.5-1 0-2-.4-2.4-.6-.4-.4-.8-.5-1-.5.1-.2 0-.3-.6-.5-1.2-.6-2-.6-3.6-.2-.8.2-.9.2-1.5 0-1.5-.3-2.7 0-3.6 1l-.6.5-.5-.4c-.8-.6-1.4-.9-2.6-1-1.5-.2-2.4-.1-3.2.3-.8.5-1.7 1.4-2.3 2.4-.6 1.2-.7 1.2-1.6-.2-1-1.4-1.3-1.7-2.1-1.7-.7 0-1.6.6-1.8 1.2l-.9.1c-.7 0-1 0-1.6.2l-.7.3-1-.2c-.5-.2-1-.2-1.4-.2-1.7.1-3.8 2.2-4.5 4.3 0 .3-.2.5-.3.5-.1 0-.7 0-1.2-.2-2-.5-3.2-.3-3.8.7a24 24 0 0 0-1.7 3.7c-.5 1.2-.5 1.3-1 1.2-.2 0-.4 0-.7.4-.3.2-.4.5-.7 1.5l-.4 1.1-.7-.6c-2-1.7-3.6-2.2-5.1-1.4-1.6.7-2 1.6-2.3 5.3-.2 2.2-.3 2.5-.5 2.5l-.8-.6c-.3-.3-.7-.7-1-.8-.7-.5-1.9 0-2.7 1.3l-.6.6c-.8.3-1.8 1.7-2.2 3.3-.2.6-.5 2.6-.4 2.7h.1c-.5.2-1 .8-1 1.3 0 .4-.3.6-.7.6-1.3 0-1.5 4-.4 7.9 1 3.1 1 3.4-.2 2-1.3-1.4-1.7-1.7-2.5-1.7-1 0-.8 1 .7 4l1.3 2.8s-.3.2-.7.2c-.4 0-1.2.3-1.8.7-.8.6-1.2.7-1.6.4-.7-.3-1.7-.3-2 0 0 .2.1.7.4 1.2.4.9.4 1-.4 2-.5.5-1 1.3-1 1.7 0 .3 0 .5.2.5l-.2-.1v.3a47.5 47.5 0 0 0 .8 6.7l.1 1.6c0 1.4 0 1.6-.5 1.7-1 .3-.7 1.3 1 3.1l1.6 2-.9.9c-.8.6-.9.9-.9 2.2l.3 2.6c.4 1.2 3 5.6 4 6.7.8.8.8.8.2.8-1.8 0-2 1-.5 2.3.5.5 1 1.1 1 1.4 0 .6.8.5 1.7-.2a3 3 0 0 1 1.6-.5c1 0 1-.2.4-1.4-.6-1-.6-1.6 0-1.6.7 0 1.3 1 1.1 2-.2.8 0 1 1.6 2 1 .5 2 1 2.3 1 .3 0 1 .5 1.4 1 .5.7 1 1 1.4 1h.7l-.7-1.8c-.8-2.2-.7-2.7.5-3.3 1-.5 1-.4.3-2.4l-.6-2c0-.7.5-.4 1 .6 1.5 2.7 2.6 4 4.4 4.8 1 .5 2.4 1.4 3.1 2 1.4 1.3 2.3 1.6 2.3.8 0-.2.1-.3.3-.2.2 0 .8-.3 1.3-.8 1.3-1 2.1-1.3 3.6-.9.6.2 1.1.3 1.2.2 0 0-.8-2-2-4.3-1.9-3.7-2.1-4.3-2.3-6.3 0-1.4 0-2.1.2-2.1.3 0 2.6 2.4 3.9 4.1.4.6 1 1.8 1.1 2.7.2.8 1 2.7 1.7 4.2l1.2 3-.8.3c-1 .4-1.1.7-.4 1.7.3.5.6.7 1.2.6a10 10 0 0 1 5.6 1.6c1.2 1 1.3 1 1.4 2.4 0 .8 0 1.8-.3 2.3-.3.7-.3.9 0 1 1.2.4 3.6 3.3 3.6 4.3 0 .4-1.4 1-2 .8-.5-.1-.7 0-.7.7s0 .6-.7-.8c-.7-1.5-.7-2.2 0-1.5.4.5 1.2.4 1.5-.1.3-1 .1-1.3-.7-1.3-.4 0-1-.3-1.6-.8-.8-.8-.8-.8-1.6-.3-.5.3-.8.8-.9 1.3 0 .7-.2.9-.5.8-.6-.2-1 1-1 2.8v1.4l1.4-.2c.8 0 1.5-.3 1.7-.6.4-.4.4-.4.4 0 0 .3.3.8.6 1.2.7.9 2.1 1.2 4.2.8 2-.3 2.6 0 2.5 1.4l-.1 1.1-1.8.2c-1.4.2-1.7.2-2-.2-.2-.5-1.2-.6-1.5-.1-.1.2-.3 1-.3 2-.1 1.2-.3 1.8-.8 2.3-.9.8-1.3.6-1.6-.7 0-.6-.4-1.3-.7-1.6-.3-.3-.5-1-.5-1.5 0-.6-.2-.8-.6-.8a1 1 0 0 0-.9.5c-.2.4-.3.4-1.6-.1-1.6-.7-2-1.2-1-1.5.7-.2.8-1.3 0-1.3-.7 0-1.7.8-2.2 1.8-.2.4-.6.8-1 1-.9.4-.8.8.3 2.3.7.8.8 1.2.6 1.3-.6.2-.4.8.5 2.7 1 1.9 1.1 3 .5 3-.3 0-.5 0-.5.2 0 .1-.2.5-.5.7-.2.3-.5 1-.6 1.7-.1 1-.2 1.1-.7 1-.3 0-.5 0-.5.4 0 .2-.2.7-.5 1-.4.6-.4.6-1 0-.4-.6-.7-.7-3-.8-1.9 0-2.7-.2-3-.6-.5-.4-.5-.5.7-.5a7 7 0 0 1 2 .3c.7.3.9.2 1.6-.5 1.2-1.1 1-1.5-.4-1.5-.7 0-1.1 0-1-.2.3-.3 3.1-.7 4-.4l.9.2v-1.8c0-1-.2-2-.4-2-.2-.2-.2-.7-.1-1.4.3-1.6 0-3-.8-3-.7 0-1.7.6-2.2 1.3-.5.7-1.7.7-2.1 0-.5-1 .1-2.4 1.9-4.2 1.8-1.9 2.4-2.1 3.9-1.7l1.2.2c.1-.2-1.9-4.4-3-6.1-1.2-1.9-1.2-1.8.2-3.5 1.1-1.3 3-1.8 4.2-1 1 .8 1.6.6 1.6-.7 0-1.6-.5-2.6-1.2-2.6-.4 0-.6.2-.7.9-.2.8-.2.8-2.4.8-2 0-2.1 0-2.9.9a4 4 0 0 1-1.7 1c-.7.2-.8.4-.8 1.2 0 1.4-.5 2.2-1.2 2.2s-3.2 1.7-4 2.8c-.4.5-.6 1.2-.6 2.1v1.4l-1-1.6c-.6-.9-1.4-2.3-1.7-3.2-.3-1-.7-1.8-.9-2l-1.4-3c-1.7-4.2-3-7.2-3.4-7.4-.5-.4-1.3-.2-1.9.4-.5.6-.6 1-.5 3.5.2 3.3.8 5.1 4.2 10.8l2.2 3.9h-1.4c-1 0-1.4-.2-1.6-.5-.2-.4-.2-.6 0-.7.3-.2-4.6-8-5.7-9.1l-1.1-2.9c-.6-1.9-1-2.5-1.4-2.7-1.1-.4-1.6-1.1-1.1-1.8l.3-1.2c0-.7-.1-.7-1.4-.7-1.2 0-1.6 0-2 .7-.3.2-.4.4-.5.7v-.1l.1-.3h-.3a6.1 6.1 0 0 0-2-.2c-.8.1-1.6.4-2.1.8a5 5 0 0 0-1.4 2.4c-.2.5-.2.5.3.3h.1c-.3 0-.6.3-.7.6 0 .4-.3.5-.5.4l-.3.1.1-.2-.5-.4c-.7-.5-1.1-.7-1.5-.7-.3 0-.5 0-.7.4-.2.3-.2.7 0 1.2v.5c-.2.5-.4.7-1.3.9-2.2.4-3.6 1.4-4.5 2.9-.5.9-1.5 2-1.8 2-.2 0-.5.3-.6.7l-.1.6-.1.5-.8.5-.9.5-1 1.6-.3.8c0 .5-.2.8-1 1.6a4 4 0 0 0-1 1.7c0 .5-.4 1-.8 1.6-.4.4-.6.8-.6 1.2-.1.4 0 .7.1 1.5l.1.5v.2l-1.4.4-.4.1v.3c0 .3 0 .5.5.8l.4.4-.3.4c-.8.7-1.3 1.3-1.6 2l-.1 1.3c0 1 0 1.2.3 1.8l.1.2.3-.1-.6.4c-.3.4-.8.6-1 .5a90.8 90.8 0 0 1-7.9-42.8 93.4 93.4 0 0 1 35-68.5 95.7 95.7 0 0 1 61.6-21zm3.5 14.2c.5 0 1 0 1.4.2.4.2.6.3.7.2 0 .6-.1 1-1 1.9-1 .8-1.1 1.3-1.1 2.2 0 .8-.1 1-.6 1-.4 0-.6.5-.9 2.1a7.3 7.3 0 0 1-.6 2.2c-.1 0-.7-.4-1.2-1l-1.3-1.7-.5-.9c-.3-.9-2-1.6-4-1.7-2.2-.2-3 .1-3.8 1.5-.4.6-.5 1-.5 1.2 0 0-.1-.1-.2 0-.3 0-.3-1.2 0-4.3 0-.7 0-.7-.2-.7-.5 0-.6 0-.6-.2-.2-.5.5-1.4.8-1.2.1 0 .4 0 .6-.2.4-.3.4-.3 1.7-.3l1.6.2c.2 0 .7.5 1.2.8 1.2 1 1.3 1 1.6.7l.6-.9.6-.7c.4-.3 1.2-.3 2.2 0l1 .2.8-.3a6 6 0 0 1 1.7-.3zm-19.9 1.2c.3 0 1.4 1.4 2.2 2.8l.6.8c.4.3.5.8 1 4.2l.7 12 1 13.1c.1.3.7 0 1.3-.6.4-.4.5-.7.2-1.9l-.1-1.2c0-.4 0-.4.2-.3.4 0 .4-.1 0-1.2l-.3-1.6c-.2-1.4-.8-6.1-.7-6.2l.5-.1h.4l-.4-1.4c-.5-1.8-.7-2.9-.7-4.7 0-1.8 0-1.9.6-1.8.3.1.3.2 0-1.3-.2-.6-.3-1-.2-1.2.1-.4.1-.4.6-.3.6 0 .6 0 .3-.9-.3-.7-.3-.9 0-1.5l.3-.4c.6 0 .6 0 .8 1l.4 2.3c.1.9 0 1-.4.8-.9-.3-1 0-.4 2.4.7 2.8.7 3.4.1 3.2-.6-.3-.5.1.4 3.6.6 2.5.7 3.7.8 7.3v4.3l1 1c1 1.3 1 1.5.3 4.7-.5 2.2-.5 3.1-.4 7.2.2 3.5.1 4.7-.1 4.7s-1-.5-1.9-1.2a10 10 0 0 0-4.9-2.3c-1.1-.3-1.5-.5-1.7-1-.2-.4-.6-3.1-1-6l-.8-6c-.3-.8-1.1-1-1.7-.4-.3.3-.3 0-.3-1.4 0-1 0-2 .2-2 .2-.1.3-.8.3-1.5 0-1.2 0-1.3-.6-1.2-.5 0-.7.3-.8 1.2-.4 1.9-.6 1.5-.6-.8 0-1.2-.1-2.3-.3-2.4-.2 0-.3-.6-.3-1.1 0-.5.1-.7.2-.5.3.8 1 1.5 1.6 1.5.5 0 .5-.3.4-4a22 22 0 0 1 .3-6.3c.5-2.7.5-3.2 0-3.4-1-.4-3.6 3.3-4.6 6.6-.6 2.1-1 1.5-.7-1.5.3-4.2.7-6.2 1.8-8 1-1.8 1.1-2.2.2-2.7-.5-.3-.7-.2-1.2.3-1 1.1-1.9 2.9-1.7 3.7.1.4 0 1-.2 1.3-.3.4-.6 1.8-.7 3.1a7.6 7.6 0 0 1-.4 2.4c-.3 0-1.4-1.3-2-2.5-.3-.8-.7-1.2-1.1-1.3-.7 0-.7 0-.6 1l.1 1-1-1c-.6-.5-1.3-1-1.6-1-.5 0-.5.1-.3 1.7l.2 3.8c0 2 .2 2.5 1.2 4.4 1 2 1 2.6 0 1.5-.2-.3-.5-.4-.7-.5.2 0 .2-.1 0-.5-.3-.4-.6-.5-1.1-.4h-.4l-.5-2.6a12.6 12.6 0 0 1 .4-8l.2-.8h-1c-.2.2-.3.2-.3 0a19 19 0 0 1 2-4c.3-.4 1-.4 2-.1 1 .2 2.2.3 2.6.2.2 0 .3-.2.6-1 .7-2.2 2.2-3.8 3.6-3.8.6 0 1.5.3 1.8.5.2.2.2.2 0 1v.7l.8-.1c1.1-.2 1.5 0 1.4.7v.4h.7c.6 0 .9 0 1.7.4.9.4 1.3.5 1.4.4.1-.2-.6-1.7-1.2-2.5-.7-1.2-.7-1-.4-1.7.3-.6.7-1.1 1-1.1zm27.4.9c0 .2 0 .3.2.4l.2.4c0 .2 0 .3.2.4.6.2.7 1 .4 2.2-.3.9-.2 1.3.2 1.2.4 0 .4.6 0 1.9-.6 1.6-.6 1.8-.3 2 .4.5 1.4.3 1.4-.2l.8-1c.6-.6 1-1 1.4-1.8a9 9 0 0 1 1.2-1.8c.7-.8.8-.8 1.2 0 .3.5.4 1.2.7 4.8 0 1.7.2 3.2.3 3.3 0 .2.2.3.3.3.1 0 .6-.3 1-.8 1.4-1.3 2.8-2.3 3-2.1l.4-.2a4 4 0 0 1 1-.3c.8-.1 1.1-.3 1.2-.5l.1.1.3.6c.2.3.2.3.2 3v2.7h.2c.4 0 .7-.2.8-.6a46.2 46.2 0 0 0 .7-5.6c.1-.3.1-.3.7-.3l.7-.1c.1-.2.8-.2 1 0 .2 0 .4.9.4 2 0 .9.1 1.3.4 1.4l1-.5.8-.4c.2 0 1.5 1.3 1.8 1.7a7.7 7.7 0 0 1 1.1 3.4c0 .1 0 .2.2.2-.2.2-.3.7-.3 2 0 1.2-.1 2-.2 1.6l-.4-2c-.3-2-1.4-3.1-2.7-3.1-1 0-1.8.4-3.2 1.7l-1.1 1v-.8c.2-.8 0-.9-.6-1-.6 0-1.2.2-1.7.7l-1.5.9a5 5 0 0 0-1.4 1c-.9.9-1.5 1.1-1.5.6 0-1-3 .7-4.2 2.4-.4.5-1.3 2.4-2 4.1-1.9 5.4-2.3 4.8-.8-1.3 1.2-5.2 1.6-8.2 1.2-9.1-.7-1.7-2-.5-4.1 3.8-.9 1.7-1.7 3-2 3-.6 0-.9 1-1.2 4.2l-.5 3.7c-.2.6-.2.7.9.5l1-.2v3.2c-.2 2.9-.1 3.2.3 3.2.3 0 .7-.3 1-.7.5-.8 1-1 1-.3s1.2.5 1.7-.3c.2-.4.7-.7 1-.7.7 0 1.4 1 1.4 1.8 0 .5.2.8.3.8.6 0 .3 1-1.1 4-.8 1.8-1.6 3.5-1.7 4-.1.7-.2.8-.6.4-.6-.5-2.3-1-3.2-1-.4 0-1.4.2-2.1.6-.8.4-1.8.8-2.2.8-.6 0-.7.2-1 2a25 25 0 0 0-.4 2.8c0 .4 0 .7-.2.7-.1 0-.2.5-.1 1 .1 1 0 1-.8 1.1-1 .1-1 .2-1.9 2.8-.9 2.5-1 2.6-2.4 3.3-1.1.6-1.4 1-1.5 1.6-.1.7 0 .8.7.6.9-.3.9-.4-.2 3.4-1 3.4-1.7 4-1.7 1.3 0-1-.2-1.6-.3-1.5-.2.1-.4 0-.5-.1-.2-.5.2-1.8.6-1.8.3 0 .4-.6.3-2.7-.2-3.5.2-8 .7-7.9.2 0 .6-.5 1-1.1.6-1.4 3.6-4.6 4.2-4.6.6 0 1-.7 1.7-3.4 1-3.3.9-4.4-.7-7l-1.2-2.5c0-.1-.2-.3-.4-.3-.3 0-.9-.4-1.4-.8l-.9-.8.5-2.8c.3-1.5.5-5 .6-7.7l.2-5 1.3-3.4c1.6-3.9 2.8-5.9 6.8-11.1.6-.8.6-.8.1-1.1-.4-.3-.2-.3.9-.2l1.3-.1zm-53.5 11.2c1.1 0 2.6 1 4.1 2.9l1.7 1.8c.3.1 1.1 1.7 2 3.9.4 1 .8 2 1 2.1.2.4.5.4.7.2l.4-.1.2-.1c0 .3.3 1 .6 1.5.8 1.4 1.4 2.9 1.2 2.9l-.9-1.2c-.4-.7-1-1.2-1.3-1.2-.5 0-.6.3-.6 2.8 0 2.6.1 3 1.5 6.5a75 75 0 0 1 3.4 10.5c0 .1-.8-.3-1.6-.9-.8-.6-2.5-1.6-3.9-2.2-2-1-2.5-1.2-3-.9-.7.5-1 .2-1.6-1.9-1.4-4.5-1.6-13.3-.4-15.3.5-1 .7-1 1.8-1l1.2.1-1.2-2.3c-1.3-2.6-2-3-2.4-1.3-.3 1-.5 1.1-2 .7-1.5-.5-2.6.2-3.4 2-.4.9-1 1.8-1.3 2.2l-.5.8c0 .1-.8 0-1.7-.4-2.2-.7-2.6-.7-3.6.4l-1 .8v-.6c.2-1.8 1.1-4 1.7-4 .1 0 .4-.1.7-.4.4-.4.7-.5.8-.3l.4.2c.3 0 1 .3 1.5.6l1.3.5c.2 0 .8-.6 1-1.2.4-.6.6-1.8.8-4l.2-2.2.5-1c.1.3.5.1.6-.3.2-.3.3-.4.6-.5h.5zm7.2.4v.3V-3028.8zm73 7.4-.8 3.2a14 14 0 0 1-1 2.8c-.2.2-.3 0-.2-.3l.8-3c.4-1.2.8-2.4 1-2.6 0 0 0-.1.1 0zm-10.7 1-.9 2.7c-.5 1.4-1 2.4-1 2.2 0-.5 1.8-5.1 2-5zm17.6 2.8-.1.2.1-.2zm-90.7 2.8.3.1.7 1.5c.4 1.2.3 1.8-.2 1a10.8 10.8 0 0 1-.8-2.6zm-8 .7c.2 0 .3.3.4.7.3 1 .2 1-.8.5-.9-.4-.9-.4-.3-.8.3-.3.6-.4.8-.4zm83 1.7c.9 0 .8 1-.4 3.8l-1.8 5c-.5 1.4-1 2.8-1.3 3.2-.2.3-.8.6-1.2.8-.7.1-.8 0-1.2-1-.2-.9-.2-1.5 0-2.7.5-2 .5-2.1-.4-2-.6.1-.7 0-.7-.6 0-1 1-4.2 1.6-5.3.6-1 .5-.7-.3 2.2-.4 1.4-.7 2.6-.6 2.7h1c.8-.2 1.3-.8 2.8-3.2 1.4-2 2-2.9 2.5-2.9zm-80 .3c.8 0 3.7 1.1 3.7 1.4l-.6 2.2c-.4 1.4-1 2.4-1.5 2.9-1 1-1.2 1.9-1 4v1.8l-1-1.7c-.6-1.5-.7-2-.8-5.3-.1-4.2.1-5.3 1.3-5.3zm20.7 1.8.3.4c.1.2.2.6.1.8 0 .3-.1.3-.1 0l-.2-.8-.1-.4zm1.4 4.3c0-.3 1.3 1.2 1.8 2.2.5 1 0 .5-.9-.7l-.9-1.5zm-14.2 1.7.2.4c.2.4.3.8.2 1-.1.4-.5-.6-.5-1.2 0-.2 0-.3.1-.2zm2.2 1.6c.1 0 .3.3.4.7.2.8 0 1-.3.2 0-.3-.2-.6-.3-.7 0-.1 0-.2.2-.2zm13.6 1 .6.9.3 1c-.2 0-1-1.8-1-2zm1.7 2.3c.3-.3 2.9 3.7 3.9 6a37.4 37.4 0 0 1 4 17.8l-.1 1.6-.7-.7c-.3-.5-.9-.8-1.2-.8-.6 0-.6 0-.4.8l.1 1c-.4 0-1.4-5.2-2-9.4-.5-4-.7-4.7-1-4.7-.2 0-.4-.3-.5-.6-.3-1-1.3-.6-2.1.9-.7 1.1-.8 1.7-.9 4.9-.1 4.2-.5 4.5-1.3 1a10 10 0 0 1 .7-7.5c1-2 1.5-2.4 2.7-2 1.1.5 1.8.4 1.6 0-.1-.3 0-.4.5-.3 1.2.2.9-1-.7-2.5s-2.6-3.2-2-3.3c.2-.1.1-.5-.2-1.1-.3-.5-.4-1-.4-1.1zm-15.3 1.7c.6.1 1.2.6 1.3 1.2.3 1.1 4 7.5 5.5 9.7.8 1 1.8 2 2.2 2.3l.8.3-.8.1c-.6.1-.8.3-.8 1s0 .8-.5.7c-1.9-.5-2.8-.5-4.2.2-1.4.6-1.6 1-1.1 2 .2.4.2.5-.3.4-1-.3-.7.6 1.3 4.2 1.8 3.3 2.3 4.4 1.6 4-.5-.3-.3 1 .3 1.7.7.9.6 1-.3.5-.5-.2-.7-.2-1 0-.3.2-.6 0-1.3-.8-1.4-1.7-2.1-4.1-2.4-8.1-.3-4.2-1.6-9.4-2.6-10.6l-.8-1.1a43.3 43.3 0 0 1-4.3-6.5s1 .6 1.9 1.5c2.1 2 3 2.1 3 .5 0-1.3 1-2.8 2-3.1h.5zm72.8 2c.2 0 .3.1.4.3.2.2 0 .3-.5.3-.8 0-.8 0-.4-.4l.5-.1zm-10.6 1.8-.8 2.6c-1 2.5-1.7 3.8-1.3 2.2.2-1 2-5 2.1-4.8zm21.7.5c.2 0 .3.3.3.7 0 .3.2.9.5 1.2.2.3.3.7.2.8-.2.3-.8.3-1 0-.4-.3-.3-2.7 0-2.7zm-105.8 1.4c.3 0 .4.3.4 1.1 0 0-.3 0-.3-.2l-.1-.6v-.3zm0 1.6a124 124 0 0 1 4.9 5c4.3 4.5 4.5 4.7 5.2 4.4 1.2-.6 2-.5 2.9.4 1 1 4.8 6 4.8 6.3 0 .3-.6.2-1.4-.2-1.2-.7-1.7-.5-2.2.6-.4.8-.5 1.6-.4 3.2v2.2c-.3 0-2.2-3.3-3-5.1-1-2.8-1-2.8-2.5-3.3-1.6-.5-2.4-.5-2.8.2l-.5.6c-.4 0-1.8-3.4-1.8-4.2 0-.8 1-2.3 1.7-2.3.6 0 .5-.3-.3-1-1-1-1.6-1.2-3.4-1.4h-.5v-.2a34 34 0 0 1-.7-5.2zm86.2.5v.8c0 .8-.5 2.1-.5 1.4 0-.4-1.2-.8-1.6-.4-.8.5-1.4.6-1.4 0 0-.5.2-.6 1.2-.6.8 0 1.4-.2 1.8-.6zm25.2.7c.3 0 0 .4-1 1.5-.7.7-1.6 1.4-2 1.6-.5.4-.5.4-.1-.5a6.2 6.2 0 0 1 3-2.6zm-16.2.9s0 .5-.3 1c-.4.9-1 1.5-1 1 0-.3 1.2-2.1 1.3-2zm-8.3 1 .1.1v1c0 .3-.1.1-.1-.4v-.6zm-20.4.3v1.1-1.1zm48.6.4c.6-.2 0 3.8-.9 4.9-.3.4-.9.4-1.3 0-.3-.4-.1-1 .8-2.6a8.8 8.8 0 0 1 1.4-2.3zm-49 1.5.2.2v.5c-.1.1-.2 0-.2-.4v-.3zm14.7 1.1.5.1c0 .4-1.8 3.5-2.4 4.2-.9.9-3.9 1-4.3 0-.4-.6-.4-1.6 0-1.8l.6-1c.1-.5.3-.6.5-.4.1.2.5.1 1.3-.2 1-.5 3-.9 3.8-.9zm27.8 2.4-.6 1.8c-.4.9-.7 2-.7 2.3 0 .8-.7 1.7-1.3 1.7-.2 0-.6 0-1 .2-.5.1-.7 0-.6-.4 0-.4 0-.5-.4-.5-.3 0-.5 0-.5-.2 0-.6 2.9-3.4 4-4 .5-.2 1-.6 1-.7 0-.2 0-.3.1-.2zm-36.8 5.2.1.4c0 .4-.1.8-.3 1-.2.4-.2.2 0-.4l.2-1zm-25 2.1c.2 0 .6 1.4 1 3.2a38 38 0 0 0 1.7 5.8c-.5 0-3-8.5-2.6-9zm62.4 2.2c1.7 0 3.2.7 3.8 1.8.5 1 .6 1.5 0 1.5-.3 0-.4.2-.2.5.1.4.1.5-.3.1-.4-.3-.7-.3-1.5.2l-1.4 1c-.4.6-.5.6-1.6 0-1-.7-1.2-1-1.4-3.2l-.2-1.5 1-.2 1.8-.2zm9.6 1.8c0 .3.1.3.2.3.8-.2 1.2-.2 1.7 0s1.5 1.1 1.5 1.4c0 .2.1.2 1 .1h1v.3c-.2.6-.2.8.3 1.2l.5.5-.1.6c-.4 1-.2 1.4.5 1.1.6-.3.6-.2.6.7 0 1 .1 1.5.4 1.5.3 0 1.9-1.2 2.2-1.8l.5-.6c.2-.2.3-.2.5-.1l.2.4c0 .2 0 .3.2.3-.3 0-1.2.6-2.1 1.3l-2.1 1.3c-.6 0-2.4 1-2.4 1.3 0 .4-.6 1.2-3.2 4.5-1.5 2-2 2.4-2.7 2.4-.5 0-1 .2-1.1.6-.3.4-.5.5-1.2.4-.8-.2-.9-.1-.9.5 0 .4-.2 1-.4 1.1-.3.2-.5.9-.5 1.6v1.2l-.5-.7c-.5-.7-.7-.7-1.3-.4-.6.3-.8.3-.8 0a20.9 20.9 0 0 1 1.8-5 15 15 0 0 1 1.5-4.4c.2-.2.6-1 .8-2l1.2-4c.5-1.4.8-3 .8-3.6 0-1 .1-1 1-1.4.6-.2.8-.4 1-.6zm-25.3 0v.4c0 .7 1.8 1.4 3 1.2.7-.2.9 0 .9.3 0 .4.1.5.6.4.8-.2 1.4.2 1.4 1 0 .4-.2.4-1.4.3-3.3-.3-3.1-.3-3.1.5 0 .6.2.9 1.1 1.3a9 9 0 0 1 2 1.3l.8.7-2 .5c-1.1.3-2 .4-2.2.3-.2-.2-.5-.3-.8-.3-.5 0-.6.2-.5.6.1.3-.1 1.2-.5 2-.4.7-.7 1.5-.7 1.7 0 .2-.1.4-.3.4-.2 0-.3-.1-.3-.2l-.4-.8c-.4-.6-.4-.6-1.7 0-.7.4-1.7.8-2.3.8-1 .2-1.7 1-4 4.2a5 5 0 0 0-.7 2.5l-.1 1.5-.7-1.5c-.5-1.4-.7-1.6-1.3-1.5-.5.1-.8 0-.8-.2s-.2-.4-.6-.4c-.3 0-.6-.2-.7-.5-.1-.2-.4-.4-.7-.4-1 0-3.5 1.4-4.6 2.7l-1.1 1.4-1.3-1c-1.5-.9-2-1.5-1.7-2 .3-.7 1.3-.6 1.9 0 .7 1 1.4.8 2-.5.8-1.4 1.7-2 3.2-2.3.9 0 1.3 0 1.6.4.3.2.7.4 1 .4.2 0 .4.2.4.5s.3.4.9.4h.8l-.4-1.7c-.5-1.9-.9-2.4-1.5-2.4l-1-.1c-.3-.1-1.4-.2-2.4-.1h-2l.9-.6c.9-.7 1.5-.8 2-.3.2.2 1 .4 1.7.4h1.3v-1.1c.2-1.2.2-1.2.8 1 .7 3 1.3 3.3 2.4 1.3.4-.8 1.3-2 2.1-2.7 1.2-1.1 1.6-1.3 2.6-1.3 1.4 0 2.4.4 2.4 1 0 .4 1 .8 1.5.6.9-.6-.8-3.4-2-3.4-.6 0-1.6-.8-1.6-1.3 0-.2-.2-.7-.6-1l-.6-.8 1.1-1c1.5-1.2 3-1.8 4.2-1.6.8.2 1.1 0 1.5-.5l.5-.4zm10.9.3.5 1.5c.2.8.8 2 1.3 2.5l1 1-1.4 2.7c-.8 1.5-2 4.4-2.6 6.5-1.2 3.6-1.8 4.9-1.8 3.9l.5-1.7a65 65 0 0 0 1.6-7.9c0-.2-.1-.3-.3-.2-.2.2-.2 0 0-.5s.3-1.1.3-1.6-.1-.7-.6-.6c-.5.2-.5.1-.2-.9.2-.6.3-1.6.3-2.3-.1-1-.2-1.2-.9-1.2-.3 0-.7-.1-.7-.3 0-.2.4-.2.8-.1.4 0 1 0 1.3-.3l.9-.5zm23.9 4 .4.5c-.2 0-.5-.4-.5-.5zm-45.6.2c.4-.2 1 .3 1.9 1.6l1 1.5-1 .3-1.4.6c-.5.5-.7.3-1-.8-.4-1.5-.4-2.2 0-2.8.2-.2.3-.4.5-.4zm49.1.9c.2 0 .5 0 .7.2.4.2.6.5.6 1 0 .3.2.7.4.8.3 0 .4.2.3.6 0 .7.4.7 1.1 0 .4-.3.5-.4.7-.3.6.1 1 .3 1.4.6l.6.3s-.1.1 0 .2c.2.4-1.4.6-3.3.4-1.8-.2-2-.2-2.5-1.2-.5-1.1-1-1.7-1.3-2l.2-.2.5-.2.4-.1.2-.1zm-73.2 2c.2 0 0 1.6-.4 3.8l-.8 3.1a20.4 20.4 0 0 1 1.2-7zm79.5 3.8c1.1 1.5 1.4 2.7.6 3-.9.3-1.3.2-1.3-.4 0-.4-.2-.6-.6-.6-.3 0-.6-.1-.6-.3 0-.3 1.7-2 1.9-1.7zm-77.9 1.2-.1 2c-.1 1.5 0 2 .2 2 .3 0 1.1 1.2 1.1 1.7 0 .1-.5.2-1.2.2h-1.2l.2-1.8c0-1 .3-2.2.6-2.9zm-58.3 1v2.8c-.2 1.4-.3 1.6-1.4 2.2l-1.1.7-1-1c-.6-.5-1-1.2-1-1.5 0-.3-.3-.5-.5-.5h.4v-.3c.3-.9 1-1.6 1.8-1.9a5 5 0 0 1 2.4 0h.4v-.5zm49.6.4s.2 0 .3.2c.2.2.3.4.2.6-.1.5-.5 0-.5-.5v-.3zm.6 1.4.5.4.6.7c0 .4-.6 0-.9-.6l-.2-.5zm91 .6c.3 0 .4.1.3.3-.1.2-.3.3-.5.3-.1 0-.2-.1-.2-.3 0-.2.2-.3.4-.3zm-13.5.6c.1-.2.1.6-.1 1.6-.4 1.6-.2 2.2.8 2.2 1.6 0 1.7.4.4 1.5-1.7 1.6-2.2 1.8-2.8 1.2l-.4-1c0-.5-.2-.6-.7-.4-.6.1-.5 0 .2-.6.8-.6 1.8-2.3 2.3-4l.3-.5zm-37.5 0 1.3.3c.9.4 1.7 2.3 1.4 3.5-.1.8-.2.8-1.2.8-.6 0-1.4 0-1.7.2-.6.2-.8 0-1.1-.8-.7-1.6-.5-3.4.3-3.4.2 0 .4-.2.4-.3 0-.2.3-.3.6-.3zm-26.7.9-.2.4c-.4.5-.9.6-.9.2 0-.2.2-.4.5-.5l.6-.1zm-71.5.4s.3 0 .7.4l.5.2v-.4c0 .4.3.7 1 1 1 .5 2 1.5 3.4 3.8l1 1.5 2 .2c1.1 0 2.7.3 3.5.5 1.7.5 1.8.7 7 8.8 2.4 3.7 3 5 3.2 6l.5 3c.1 1 .2 2 0 2.5 0 .6-.3.7-1.2.7-2.3 0-2.4 1.4-.2 2 1.3.5 1.4.5 1.4 1.6v1.2l-1.6-.2c-.9 0-2.1-.4-2.8-.8-2.8-1.4-2.8-.1 0 2.5l2.2 2-.2 1.5-.4 3c-.2 1.3-.1 1.7.4 2.6.3.5.6 1.3.6 1.6 0 .6-.1.6-3.7.3-4-.5-13.6-2.9-11.4-3 .6 0 .6-.2.2-1.2-.3-.7-.2-1.7.4-3.2.4-.8-.5-.7-2.2.3-1.5.8-1.7 1.3-1 2.1.3.3.5.7.4.8-.1 0-1.3-.6-2.6-1.6-1.2-1-2.5-1.8-2.9-1.8-1 0-2 .6-2 1.2 0 1-.7.7-2.3-1.2-1.6-2-1.6-2.2-1.4-3.2.2-.7.6-1.2 1.3-1.6 1-.6 1-.6 1.7 0l2.8 2 2 1.4 3 .2c1.7 0 3 .2 3 .3 0 .5 1 .3 1.7-.3l.7-.7-2.6-2.5c-1.9-1.7-3-3-3.5-4.2-.8-1.5-1.5-2-1.9-1.4l-.2 2.1a6 6 0 0 0 1 3.8c1 2 .9 2-1.4 0a13 13 0 0 0-6.3-3c-4.8-1.3-6-1.4-6.7-.2-.3.4-.2.8.3 1.5.8 1.3.8 2.6 0 2.8-.5 0-.6.3-.5 1.2 0 1 0 1-1.3 1.6l-1.4.6-1-.8c-1.4-.9-2-2.1-2-4v-1.6l1.1 1c1.6 1.5 2.5 2 3.4 2 1 0 1-.2-.2-1.4a7 7 0 0 1-2.5-4.7c-.1-1.4-.5-2-1-1.7H17195.8l-.1-.4c-.2-.4-.2-.8-.2-.9l.2.1c.5.4.8.3 1.7-.3.8-.6.9-.6 2.4-.7 1.1 0 1.4 0 1.4-.3l-1.1-1-1-.7-.2-.1.1-.1.2-.2c0-.1-.4-.5-1-.9l-.7-.6s0-.2.2-.2c.4-.2 1-.6 1-.8.2-.3.2-.5 0-1.5-.4-1.3-.4-1.3 0-1.7.3-.3.5-.8.8-1.6.2-.7.4-1 .6-1.3a7 7 0 0 1 1.3-1.2l.2.5c.2.6.4.8.6 1l2.6.6s0-.3-.2-.5a8 8 0 0 0-.6-.7c-.8-.9-1.5-2-1.7-2.8-.1-.4-.1-.5 0-.8.3-.3 1.2-.9 1.7-1 .5 0 .5 0 .7-.3.1-.2.1-.2.3-.1.1 0 .6 0 1 .2 1 .3 1 .3.9 0l-.3-1.2c-.3-1.5-.3-1.7 0-2.2.3-.2.5-.6.5-.8 0-.2.5-.8 1.1-1.3.7-.4 1.6-.8 2.5-1 .5 0 .7 0 1.8.3l.8.2c.2 0 .2-.4-.1-1-.3-.5-.3-.6-.2-1v-.6l.1-.2zm62 .4c1 0 1.2.4.8 1.3-.3.8-.7 1-1 .5-.1-.2 0-.2.3-.1s.4 0 .4-.5c0-.4-.2-.6-.5-.6s-.7-.1-.8-.3c0-.1.2-.3.7-.3zm-3.2 0 .4.5.4.8c0 .3-.4.3-.7 0l-.2-.8.1-.4zm33.9.6c.2-.2.5 0 1.3 1 1.8 2 1.7 3-.4 3.9-1.4.6-1.6 1.2-.7 2 .6.5.8.5 1.8.2.6-.1 1.2-.2 1.3 0l.3 1.5c.2 1.6 0 2.1-1.8 4l-1.6 1.5c-.4 0-1.3-1.7-1.7-3-.3-1.3-.3-1.6.1-1.8.4-.2.4-.3-.1-1.2-.4-.7-.5-1-.3-1.1.5-.2 0-1.4-.7-1.7-.4-.2-.5-.3-.1-.3.2 0 .5-.2.7-.5.2-.5.2-.8.3-2 0-.2.3-.4.7-.4.4 0 .5-.2.4-.7-.1-.3 0-.9.2-1.2l.3-.2zm-23.3 0c.6 0 1.1.2 1.3.5.2.2.6.4.9.4.3 0 .3.1 0 .2-.1 0-.3.5-.3.8 0 .7-.1.7-1.7.8-1.4.1-1.7.2-1.7.7 0 .5-.2.6-1.4.6-.7 0-1.3 0-1.3-.2 0-.1-.4-.3-.8-.3s-.7-.1-.7-.4c0-.3.2-.4.5-.3h2.1c1.2-.2 1.7-.4 1.7-.8.1-.4 0-.5-.8-.5h-1l.9-.4 1.1-.7c.2-.3.7-.4 1.2-.4zm-17 .2c.2-.3 3.4 2.4 3.8 3.1l.8 1.9c.5 1 .5 1.3.1 1.7-.4.6-.4.5-.7-.2a5 5 0 0 1-.3-1.1c0-.2-.3-.4-.6-.6-.3-.2-.6-.6-.6-1 0-.5-.1-.7-.4-.7-.4 0-2.4-2.9-2.1-3.1zm55.7.9-.2 1c0 .5-.3 1.5-.5 2l-.4 1 .1-1.2c.1-.7.4-1.7.6-2zm-48.7 1.6.9.2 1.8.6c1.2.3 1.3.4 1.6 1.9.4 1.4.3 1.5-.3 1.9-.3.2-.6.7-.6 1 0 1.5-1.4 2.6-2.1 1.6-.3-.4 0-1.8.4-2 .5-.3 0-.9-.7-.8-.9.1-1-1-.2-1.3.3 0 .6-.4.6-.7 0-.5-.2-.6-.9-.5-.8.2-1.6-.5-1-.7.3 0 .4-.4.4-.7l.1-.5zm41.7.7s0 .3-.2.5c-.3.3-.4.3-.2-.2.1-.2.3-.4.4-.3zm-11.9 1.4.1.1v.6c0 .1-.2 0-.1-.4v-.3zm29.2 0 .2.1v.6c-.2.1-.2 0-.2-.4v-.3zm35.2.2c.2 0 .5.3.6.6.1.4 0 .8-.2 1-.4.4-.5.4-.8 0-.5-.5-.2-1.6.4-1.6zm-73 .9c.2 0 .8.7 1.3 1.6l1.4 1.8c.2 0 .6.7.9 1.3.5 1 .5 1.3.2 1.5l-.6.2c-.1 0-.7.4-1.2 1l-1 .8-.6-1.3c-1-2.1-1.2-7-.4-7zm-72 0c-.3 0-.4.2-.5.5l-.2.8c-.2 1.4-.3 1.5-.6 1.4-.3 0-.4 0-.4.3s.2.6.5 1c.4.4.4.5 0 1.4l-.3 1.2a10 10 0 0 0-.2 2.2c0 .2 0 .2 1.2-.2a7 7 0 0 1 1.8-.4 23.3 23.3 0 0 1 4.6.4l-.5-1.3c-1-2.5-1.5-4-1.7-5 0-.7-.1-.8-.6-.7-.4 0-.5.1-.5.4v.2l-.5-.1a2 2 0 0 0-.5-.2l-.2-.2-.5-1c-.4-.4-.7-.6-1-.6zm98.2.4c.2-.1.3.4.7 1.8.2 1 0 2.4-.4 6-.7 5-.9 8.2-.5 8.2.2 0 .2.3.1.7 0 .4-.3.7-.5.7s-.6 1-1 2.4c-.9 3.4-.8 3.3-1.6 3.1-.7-.1-.7 0-.9 2.3-.2 3-.1 3.4 1.1 3.3 1-.1 1-.2 1.8-3.1.6-2.2 1-3 1.4-3.1.7-.2.7 0-.5 3.4a29.4 29.4 0 0 0-1.4 5.3l-1 .3c-.9.1-1.1 0-1.8-.7-1-1.1-2-1.3-2.5-.4l-.6.9c-.3.3 0-5.6.5-7.7.3-1.3.3-1.8 0-2.3-.3-.4-.3-1.6-.2-4.7l.2-4 .6 1.4c.2.8.6 2.5.7 3.8.2 2 .3 2.3.9 2.4.6 0 .6-.1.8-1.5.5-3.7.9-5.8 1.7-8.2 1-3 1-3.1.2-3.1-.6 0-.6-.1-.5-1.3.3-1.6 1.5-4.4 2-4.6.3-.1.6-.5.6-.9l.2-.4zm-36.6 0 .4.2c.2.2.4.6.4 1l1 3 1 2.5c-.1.2-2.3-2.7-3-3.7l-.3-1.2a23.2 23.2 0 0 0 .5-1.8zm4.8.2s.2 0 .3.2c.8.4.8 1 0 1.5-1.1.5-1.2.4-1-.6.2-.9.3-1.2.7-1.1zm25.6 1.5.1.2v.5c0 .1-.2 0-.1-.4v-.3zm-63.7.3.1.2v.5c-.1.1-.2 0-.2-.4v-.3zm30.2 2.7c.3 0 .4.4.4 1 0 .3-.1.6-.3.6-.3 0-.6-1.4-.3-1.6h.2zm91.6.1c.2 0 .2.2.1.5 0 .2-.2.4-.3.4v-.4c0-.3 0-.5.2-.5zm-94.8.7v.5c0 .6.2.6.9.5.8-.1.8-.1.9 1.3v1.4l-.7-.3-1-.6c-.5-.2-.7-1.8-.3-2.5l.2-.3zm-2.2 0c.1.2 0 .6-.2 1l-1 3.3-.7 2.6c-.3.3-.3-2.7 0-3.2l1-2.1c.3-1 .7-1.6.9-1.5zm95.2.6c.1 0 .3 0 .5.2.7.6.5 1-.7 1.6l-1.4.5c-.2 0 .3-.9 1-1.8.3-.3.4-.5.6-.5zm-161.7.2c-.9 0-1.5.2-1.8.7-.1.2-.2.3-.2 1.3 0 1.2.2 2.2.4 3.1l.2.8-1.8.7c-2 .7-2.9 1.3-2.9 2.2 0 1.1 2 3.1 4.2 4.2l1.8.7 1.5.6c.5.2.7.2.9 0 .2-.2.2-.3 0-.6s-.7-.6-1.5-.8l-1-.4c0-.2.5-.8 1-1.2.6-.5.9-.6 2-.7 2-.2 4.2.2 5.8 1 .6.3 1.1.4 1.4.4.2 0 .2-.1.1-.3 0-.3.2-.5.8-.4h.4v-.8l.2-.3c0-.2 0-.2-.4-.2-.5 0-1.1-.5-1.5-1.1-.3-.4-.3-.6-.1-.7.1 0 .1-.3 0-.4a2 2 0 0 1-.5-.7l.1-.3c.2-.1.2-.3.3-.8l.1-.9v-.2c0-.2-.8-.1-1 0-.3.2-.6.8-.6 1.3l-.2.5s-.5 0-.8-.2c-.3-.1-.6-.5-.6-.6l-.5-.7c-.5-.5-.8-.6-.8-.4l-1.1-1.1c0-.1 0-.1.2 0 .4 0 .4 0 .2-.8a5 5 0 0 1-.1-.8c0-.2 0-.4-.2-.6-.1-.4-.6-.6-1.7-1-.9-.3-1.7-.5-2.3-.5zm139.8 1-.6 1c-.7.7-1.1.8-1.1.4s1.5-1.6 1.7-1.4zm-63 .1c.2.1.4.7 1 2.2.5 1.7 1 2.5 1.6 3 .7.5.8.6.3.8-.9.3-2.6.2-3-.2-1.2-.8-1.3-4.8-.2-5.7h.2zm18 .5c.5-.4 1.4 1.2 2.5 4.2.6 1.7 1.4 3.4 1.7 4a4.6 4.6 0 0 1 .6 2.8l-.5-.6c-.4-.4-.8-.5-2-.4l-1.6.2-.4-1.5c-.5-1.4-.6-8.3-.2-8.7zm68.3.5c.3.4 0 .8-.4.6-.3-.2-.3-.3 0-.5.1-.1.3-.1.4 0zm-132.2 2.2.4.5.3 1c-.2.1-.8-1-.8-1.5h.1zm54 .4c.4 0 .9.1 1 .3l-.1.3c-.3 0-.8 1.7-1 3.7-.2 1-.1 1.3 1 2.9l1.1 2c0 1-1 0-2.1-2.1-.6-1-1.3-1.3-1.6-.5-.4 1-.6-1.7-.4-3.5.3-2.2 1-3.1 2-3.1zm-23.8.1c.1.1 0 .3-.2.5-.3.3-.3.3-.1-.1 0-.3.2-.5.3-.4zm-29 1.8.3.3.4.8c0 .4-.5.2-.7-.3-.2-.6-.2-1 0-.8zm20.7 1.8c1.2.2 1.3.8.5 2.5-.8 1.6-1.3 2-2.6 2l-2 .4c-1.4.5-1.6.3-.8-1.4 1-2.4 3-3.8 4.9-3.5zm113.2 1.6.5.1c1 .3 1 .4.5.7-.7.5-1.2.3-1.2-.5 0-.1 0-.2.2-.3zm-85 1v.4l-.6.3c-.2 0-.1-.2 0-.4l.6-.4zm-2.3 2.5c.2 0 .3 0 .2.2l-.3.3c-.1 0-.2 0-.2-.3l.3-.2zm13.5.7.2.6c0 .4 0 1-.3 1.3-.4.5-.4.8-.2 1.2.2.4.2.9 0 1.6-.2.6-.5 2.2-.6 3.6-.1 2.4-.2 2.5-.8 2.4-.7 0-.7 0-.5 1 .1.6.8 2.1 1.5 3.3l1.3 2.4c0 1.5-3.5-4.2-4.6-7.5l-.4-1.1.6.8c.4.4.9.8 1.3.8.6 0 .6 0 .3-1.4s0-3 1-6.6c.4-1.7 1-2.6 1.2-2.4zm-5.2 1 .2.2c.2.2.3.5.2.5 0 .1-.2 0-.3-.3l-.1-.4zm-51.7.6c.5 0 1.6 1.2 1.6 1.8 0 .8.9 1.4 2 1.4.6 0 1 .1 1 .4 0 .3-.3.5-.6.5-.8 0-.8.7 0 2.7l.6 1.6-.8.8-.7.8-.9-1.4c-.5-.8-1-2-1.2-2.6l-.8-3c-.7-2-.8-3-.2-3zm63.4 1c0-.4.4.3 1.2 2l1 2a14.6 14.6 0 0 1-2.2-4zm21.6 2.8c.2 0 .2 0 .2.2 0 .5-2.5 2.3-4.7 3.3l-3.3 1.3-.9.2 1-.9c.5-.5 1.2-1 1.6-1a23.4 23.4 0 0 0 3.7-1.4c.5-.2 1-.6 1.2-1 .2-.5.9-.8 1.2-.7zm-71 .4.3.8c.2.5.2 1 .1 1 0 .1-.2-.2-.3-.7-.2-.6-.2-1-.1-1.1zm29 0c.3 0 .5.3.7 1l1.2 2.7c.7 1.2.8 1.6.5 1.8-.5.3-.7.3-1.2-.3a7 7 0 0 1-1.6-4c0-.8.2-1.2.5-1.2zm-33.2 2.2c.2 0 .3.4.3 1 0 .9-.1 1-1.1 1.4l-1.2.5.3 1.3c.3 1.5.4 1.6 1.6 1.7 1.3.2 1.3 1.1-.2 3l-1.1 2c0 .4-.3.5-1.1.5-1.2 0-2.2-.4-2.2-1l-1-1.6c-.7-.7-1-1.1-.6-1 .8.7 1.4.3 1.3-1v-1c.2 0 1-1.1 2-2.4 1.7-2.3 2.6-3.3 3-3.4zm39.6 2.7c.1.1-.1.7-.5 1.3-.7 1-.8 1-.8.5 0-.7 1-2 1.3-1.8zm8 1c.2-.2.5-.2.7 0h-.7zm66.7.2a265 265 0 0 0 10.9 2.5c.1.1-2.2 11.5-5.2 25.3l-5.4 25.6c0 .4.7.6 3.9 1.4 3 .6 3.8 1 3.8 1.3-.1 1.2-2 9.6-2.1 9.9-.2.3-1.2.1-4-.4-2.2-.5-3.8-.7-4-.5l-2 8c-1 4.4-1.8 8.1-2 8.4 0 .2-.4.4-.8.3a242 242 0 0 1-12.1-2.6c-.2-.1.5-3.9 1.5-8.4s1.7-8.3 1.7-8.6c0-.4-1.7-.8-8.5-2.3l-16.7-3.6-8-1.8-1-2-2-5.3c-1.3-3.4-1.3-3.5-.7-4a4225.3 4225.3 0 0 1 52.7-43.2zm-157 .7c.1-.1.5 0 .8.2.5.5.5.5 0 .5-.8 0-1.2-.5-.8-.7zm115.1.1c2.2 0 2.4.1 1.4.3-1.6.3-3.6.3-3.8 0 0-.2.8-.3 2.4-.3zm-62.3.7c.3.2-1.2 3.7-1.7 4.3l-.8 1.3c-.1.4-.4.7-.5.7-.2 0 .2-1.1.9-2.5 1.2-2.7 2-4 2.1-3.8zm45.2.2.7.5c.4.3.6.6.5.7l.2 2.4.3 2.6c-.1.2-.3-.2-.4-1-.2-1.1-.8-2.4-1-2.2-.1 0-.2-.6-.2-1.4zm15.6.6c.2 0 .5.1.7.3.3.1.3.2.2.2-.2 0-.5 0-.8-.2-.2-.2-.3-.3-.1-.3zm-126.3.3c.7 0 1.5.5 2.3 1.1l2.7 2c.7.4 1.3.8 1.3 1 0 .5-.9 1.1-2.2 1.4-3.5.7-3.2.8-4.5-.5-1.2-1.1-1.2-1.3-1.1-2.5 0-1.2 0-1.4-.5-1.4-.6 0-.6 0 0-.6.7-.5 1.3-.6 2-.5zm128.7.3h.6c0 .2 0 .2-.4.2-.3 0-.4 0-.2-.2zm1.3.3c.2 0 .6 0 1.1.2.6.2.6.3.2.3-.3 0-.9-.1-1.2-.3-.4-.1-.4-.2-.1-.2zm-85 .4h.3l.5.3c0 .2-.6.1-.8-.2v-.1zm-32.5 1 1.4.1c.9.1 2.3.4 3 .7.8.2 2.3.4 3.3.4 2.5 0 6.9.7 9.8 1.6 1.3.4 3.2 1 4.1 1.1 1.5.4 3.4 1.5 3.5 2l-2 1.2-2 1-1.6-1.1c-1.9-1.4-4-2.4-6.2-3-1-.3-2.1-.8-2.7-1.3-.6-.5-1.1-1-1.3-1-.1 0-.6.4-1 .9-.6.8-.8.8-4.1 1-2 0-3.8.3-4.2.4-.7.2-.7.2-.5-1.4l.2-2.1c0-.3.1-.4.3-.4zm44.2 1.5.4.3c.2.3.4.6.3.8-.1.5-.8-.2-.8-.8v-.3zm71 .3c.4 0 2.6 1.5 2.3 1.6-.5.2-.4 1.1.1 1.6.2.2.4.4.4.6 0 .1 0 .2-.2.2-.4 0-2.8-1.7-3-2.2-.4-.5 0-1.8.3-1.8zm-16.9.9c.1 0-.1.4-.4.7-.3.3-.6.4-.6.2 0-.4.8-1.1 1-1zm-61.9.3h.6c0 .1 0 .2-.4.2-.3 0-.4 0-.2-.2zm-9.5.2c1.9 0 3.7.4 3.7.8 0 .5-.5.5-2.9-.2-1.7-.5-1.8-.5-.8-.6zm92.5.5.6.5.7.7c0 .2-.3 0-.8-.6zm-15 .4c.3 0 .7.3 1.1.6.4.3.6.5.4.6-.2 0-.7-.3-1-.6-.4-.3-.6-.6-.4-.6zm8.3 3c.2 0 .4 0 .8.5.5.5.5.6 0 .6-.6 0-.6 1 .2 1.6.3.3.5.6.5.8 0 .5-.8.2-2.4-1-1.6-1.3-2.1-2-1.1-1.6l1.3.4c.8.1.8.1.6-.6l.1-.8zm3.7 1.5-.1.3c-.4.5-.5.5-.7.2-.1-.1 0-.3.4-.4.3 0 .4-.1.4 0zm36.9 3.2c-.5 0-3 2-17.1 13.6-14.8 12-18.2 15-18.3 15.3 0 .1.1.3.4.4l7.8 1.7a4772.6 4772.6 0 0 1 19.5 4.3c.3 0 .2.1 1.4-5.3a664.4 664.4 0 0 0 6.3-30zm-108.5 6.7c3.1 0 5.4.4 9 1.4l2.3.6v3.4c0 3.7 0 3.6-2 2.8-3.9-1.3-12.3-2-16-1.3-5.6 1-9 4.5-10.5 10.1-1.2 4.4-1.1 11.2 0 15a13 13 0 0 0 6.7 8c2.8 1.3 4.4 1.5 10.3 1.4 4.4-.2 5.6-.3 8-1 1.6-.4 3-.7 3.2-.6.2.1.3 1.6.3 3.4v3.1l-1.2.4-3.3.8a59 59 0 0 1-16.4 0 20 20 0 0 1-15.7-15.4c-.6-2.2-.7-3.2-.6-7.8 0-4.7 0-5.5.7-8.2 2.2-8.2 6.7-13.1 14.3-15.3a73.8 73.8 0 0 1 10.9-.8zm-85.2.5h11c6.1 0 12.2.1 13.6.3 5.5.6 9.7 4.2 11.4 9.8 1 2.9 1 8.2 0 10.9a14 14 0 0 1-9.1 9.1l-2.4.9h-16.6v16h-3.8l-4-.1-.1-23.6zm43.3 0h7.9v47.1h-8v-23.6zm61 0H17282.4v8.7c0 4.8 0 10.2.2 12 .1 3 .2 3.3.7 3.3.4 0 10.2-12 18.6-22.8l.8-1 3.5.2h3.6l-4.8 6.2c-7.2 9.1-9.8 12.5-9.8 13 0 .3 3 5.1 6.6 10.8l8.7 13.5 2 3.2h-8.4l-5.9-9.3c-6.7-10.6-7.5-11.8-8-11.8-.3 0-2.2 2-4.2 4.6l-3.6 4.6v11.9h-7.6v-23.6zm-96.3 6.1V-2864.5h5.4l7-.1c4.4-.4 7.2-2.5 8-6 .4-1.6.4-5 0-6.5a7.5 7.5 0 0 0-5-5.5c-1.3-.4-4.5-.6-10.4-.6zm124.2 58.8c3.5 0 5.2.6 7.1 2.5 2.1 2 2.6 3.7 2.6 8.6 0 3-.1 4-.7 5.3a8 8 0 0 1-5.2 4.7 17 17 0 0 1-8.2 0c-4.2-1.5-5.8-4.5-5.6-11.2.1-3.4.2-3.8 1-5.4 1.6-3.1 4.3-4.5 9-4.5zm-63.2.2 6.4.1 6.4.1 1.1.8c1.8 1.3 2.5 2.8 2.5 5.5 0 2.9-.6 4.2-3 6-.6.4-.6.5 1.2 4.3l1.8 4.2h-3.6l-1.4-3.2-1.8-3.5c-.2-.4-1-.5-3.2-.5h-2.9V-2803h-3.5v-10.5zm-22.2 0h14.6v2.7h-11.4v6.5h10.2v2.6h-2.5c-1.4 0-3.7 0-5 .2l-2.4.2V-2805.7h11.1v2.6h-14.6v-10.5zm-11 0h1.6c1 0 1.8.2 1.8.3l-4 10.5-3.8 10.2h-2l-2.1.2-3.8-10c-2.1-5.6-4-10.3-4-10.6-.3-.5-.1-.5 1.6-.5l1.8.1 2.6 6.9 2.8 7.7c.2.5.6.8 1 .8.6 0 1-.6 3.4-7.4l2.4-6.4zm57.5 0h3.8l3 6.2c2.8 5.5 3.2 6.2 3.8 6.1.5 0 1.2-1.2 3.6-6.1l3-6.1h3.8v21h-3.5v-6.5c-.1-6-.2-6.5-.7-6.6-.4 0-1 1-2.8 4.8l-2.4 4.8h-2.1l-2.3-4.6c-1.8-3.9-2.3-4.7-2.8-4.7-.6 0-.6.1-.6 6.4v6.4h-3.8v-10.5zm56.7 0h3.1l2.7 4c5.5 7.8 7.3 10.1 8 10.1.5 0 .5-.3.5-7v-7h3.5v21h-3.4l-2.7-4c-5.5-7.7-7-9.7-7.6-9.7-.6 0-.6.2-.6 6.9v6.8h-4l.3-5.7.2-10.5zm24.8 0H17362.4v2.7h-6.8v18.4h-3.8v-18.4H17345.1v-1.3zm-42.8 2.7c-1.2 0-2.2.3-3.3.8-1.8.9-2.6 2.2-2.9 4.9-.2 1.6 0 4.7.3 5.8a5.2 5.2 0 0 0 4.8 4.2h1c.5.1 2.7-.2 3.3-.5a5.9 5.9 0 0 0 3-3.7c.4-2 .4-5.6-.2-7.6-.8-2.4-2.4-3.6-5.4-3.8h-.6zm-59.4.1v8H17247.6c1.8-.1 2-.2 2.7-.5 1.4-.7 2-1.7 2-3.6 0-1.7-.6-2.8-1.5-3.3-.7-.4-.8-.4-4.3-.5z" style="fill:url(#b);stroke-width:.441941;stroke-linecap:round;stroke-linejoin:round;paint-order:markers stroke fill" transform="translate(-17155.1 3087)"/></svg>