<svg xmlns="http://www.w3.org/2000/svg" xmlns:xlink="http://www.w3.org/1999/xlink" xml:space="preserve" width="944.9" height="1159" viewBox="0 0 250 306.6"><defs><linearGradient id="a"><stop offset="0" style="stop-color:#21eab6;stop-opacity:1"/><stop offset="1" style="stop-color:#ac5cff;stop-opacity:1"/></linearGradient><linearGradient xlink:href="#a" id="b" x1="23344.3" x2="23594.3" y1="-1619.3" y2="-1926" gradientUnits="userSpaceOnUse"/></defs><path d="M23469.4-1926h-.1zm0 0h-.2l-5.7.2-2 .1a127.6 127.6 0 0 0-9.8 1l-2 .3-4.5.8-1.3.2-5.5 1.3-1.6.4-3.8 1.1-2 .6-3.5 1.2-2 .7-3.6 1.5-1.6.6-5 2.3-1.1.5-3.9 2-1.7 1a122 122 0 0 0-8 4.8l-1.6 1a124.5 124.5 0 0 0-8.8 6.6l-1.4 1.2a123.4 123.4 0 0 0-7 6.3l-1.4 1.4-3 3.1-.8.9a123 123 0 0 0-3.5 4.1l-1 1.3-2.5 3-1.2 1.7a125.7 125.7 0 0 0-5.3 8l-.9 1.3c-1 1.5-1.8 3.1-2.7 4.8l-.5 1-2 4-.9 1.7a130.7 130.7 0 0 0-3.7 8.8l-.7 1.7-1.7 5.3a125.2 125.2 0 0 0-5.7 37.3v19.3a123.1 123.1 0 0 0 2.6 25.2c.8 4 1.8 8 3 12l.2.6 1 3c-4 2.7-6.7 7.3-6.7 12.6v47.2c0 6.1 3.7 11.6 9.4 14-.8 2.2-1 4.6-.5 7l5 21.3c.6 2.5 2 4.7 3.7 6.4 1.6 1.4 8.4 9 11.1 10.7 2 1.2 4.4 2 6.8 2h3.7c1.5-.3 3-.8 4.4-1.5a13 13 0 0 0 4.4 1.4h3.5a13 13 0 0 0 6.9-2.3 13 13 0 0 0 5.8 2.3h3.6c1.3-.3 2.6-.8 3.7-1.5 3.8 1.5 7.4 1.9 11 1.9 4.2 0 8.7-.7 13-3.6 4.2 2.5 8.9 3.6 13.2 3.6a35.2 35.2 0 0 0 10.2-1.5l1.4-1a25.8 25.8 0 0 0 22.7-.4 13 13 0 0 0 6.1 2.5h3.7c1.6-.3 3.2-1 4.6-1.9 2 1.2 4.2 1.9 6.5 2h3.1a13 13 0 0 0 3.8-1.6c3.8 1.5 7.4 1.9 11 1.9 3.6 0 7.4-.5 11.2-2.4 1.5 1 3.2 1.7 5 2h3.6a13 13 0 0 0 4.1-1.7 13 13 0 0 0 4.2 1.7h3.6c1.6-.3 3.2-1 4.6-1.9 2 1.2 4.2 1.9 6.5 2h3.2a13 13 0 0 0 12.9-13v-21.3c0-3-1-5.8-3-8 3.3-2.2 5.7-5.5 6.6-9.3l2.4-11c1.2-5.5-.9-11.3-5.3-15l8.2-38c1.1-5.2-.6-10.4-4.1-14a15.2 15.2 0 0 1 .1.2v-.1c.5-1.5.8-3 1.2-4.6l.2-1 1-4.6.1-1.1.7-4.6v-.6c.7-5.3 1.1-10.6 1.1-16v-19.3c0-26.1-8-50.3-21.5-70.4a126 126 0 0 0-8.8-11.3l-.7-.9-4.6-4.9-.2-.2c-3.4-3.5-7-6.7-10.7-9.8l-.7-.5h-.1c-1.6-1.3-3.2-2.6-5-3.8l-.7-.5-.3-.2a123.9 123.9 0 0 0-25.2-13.6l-.1-.1c-2.3-1-4.6-1.8-7-2.5l-1.2-.4a124.6 124.6 0 0 0-38.2-6zm0 7.2c2.3 0 4.5 0 6.8.2l1.9.2c1.6 0 3.2.2 4.8.4l2.1.3 4.7.7 2 .3 5.1 1.1 1.2.3a116.8 116.8 0 0 1 19.2 6.6l.3.2a118.4 118.4 0 0 1 46.9 37.9v-.1a117.4 117.4 0 0 1 18.2 102.8l-.1.2v.1c-6.4 0-12.7.6-18.7 1.8l-2.2-.4.8-2.4a109.5 109.5 0 0 0 2.3-7.3l.4-1.7a98 98 0 0 0 2.4-14.8l.1-1a98.3 98.3 0 0 0-78.3-104 98.5 98.5 0 0 0-98.8 155.5 29 29 0 0 0-6.2-1.4l-3.7-.1h-14l-1.5-2.6-.4-.7-2.5-5.2-.5-1.1-2.2-5.3-.4-.9c-1.6-4.2-3-8.5-4-13l-.2-.7-1.2-5.7-.3-1.7a113.9 113.9 0 0 1-1.5-12.1l-.2-1.6-.2-7c0-65 52.8-117.8 117.9-117.8zm0 23.2a94.7 94.7 0 0 1 94.7 94.7v.1c0 2.3-.1 4.5-.3 6.7v1.6l-.9 6.6-.1.9-1.3 6-.2 1a94.8 94.8 0 0 1-2.1 7.3l-1.5 3.8h-2.5l-1.5.3a26.4 26.4 0 0 0-7.9-12.6 31.8 31.8 0 0 0-9-6l-.6-26.1a6310 6310 0 0 0-.6-27l-.1-1.6V-1840.6l-.1-.2v-.2l-.5-.6-.3-.2h-.1l-.3-.2-1-.4a1058.8 1058.8 0 0 0-23.1-10.5 968.4 968.4 0 0 0-4.6-2l-.3-.2c-.6-.2-.7 0-.8 0h-.2l-.2.1-.3.1a35 35 0 0 0-3 1.6l-2.2 1.1a13.4 13.4 0 0 1-3-5.6c-.1-.5-.1-.8-.4-1.3a3 3 0 0 0-1.2-1 17287.3 17287.3 0 0 0-45.3-20.4l-1.5-.8-.8-.3c-2-.7-4.1-1.1-6-1-.7 0-1.4.1-2 .3-1.4.3-2.7.8-3.6 1.8l-.4.5a70.6 70.6 0 0 0-2.7 3.6l-6.4 8.8-14.3 19.7a1345.4 1345.4 0 0 0-5.2 7.1l-.4.6v.1l-.2.3c-.4.7-.3.7-.3 1v1.5c-.2 1.2-.2 3-.3 5.8l-.2 5.3V-1823.5l.1.2.3.5a384 384 0 0 0 .7.4H23406.3a26.2 26.2 0 0 0 2.5-.2l2.5-.2 2.7.2c2.7.2 2.7.2 5 .8 2.2.5 2.6.7 4.6 1.6 2 .9 2.2 1 4.1 2.4 2 1.4 2.1 1.5 3.6 3.2 1.5 1.6 1.6 1.7 2.7 3.6 1.2 2 1.2 2 1.9 4 .7 2.2.6 2 .8 4.4l.2 2.2-.3 2.3c-.3 2.3-.3 2.2-1 4.1l-.4 1.3h-.3c-1.4.4-3 1.2-16.4 8a8435 8435 0 0 0-14.7 7.5l-.3.1-.1.1-.2.1c-.7.6-.6.8-.6 1v.3l-.2.6v1.8l-1.2 30c-1.9.2-3.7.8-5.4 1.8a94.5 94.5 0 0 1-17.1-32.1v-.1c-.5-1.4-.9-2.8-1.2-4.3l-.1-.4-.9-4-.2-1-.6-3.5-.2-1.3-.4-3.3v-1.6c-.2-1-.3-2.1-.3-3.2v-1.6l-.1-3.1a94.7 94.7 0 0 1 94.7-94.7zm-28.6 14.7c1.8 0 3 .2 4.6.7l24.6 11 23.7 10.7v.5a17 17 0 0 0 1.9 4.8c1.5 2.5 3.3 4 5.1 4 1.8.2 3-1 3.6-3.5.2-.7.3-.8.5-.7l29 13 1.3 54.5c-3.1-1-6.3-1.5-9.2-1.1-.2-.3-.7-.6-1-.6h-.8l-.6-.2c-.7 0-1 .2-1.2.3a2 2 0 0 0-1 0l-.5.3a24.6 24.6 0 0 0-9.2-6.7l.1-.4c0-.3 0-1-.3-1.5-.4-.4-.8-.5-1-.5l-.3-.1-1.6-.2a39.2 39.2 0 0 0-5.3.6l-1 .3a2 2 0 0 0-1.1 1.4c-.2.5 0 1 .2 1.4a24 24 0 0 0-7.2 7l-.4.7-1.6-.3v-.6l-.1-.4c-.1-.2-.3-.6-.7-.9l-.7-.2c-.3-.3-.7-.3-1-.3l-.6.1h-.2a2 2 0 0 0-.5 0c-.5 0-.7.2-1 .3.2 0-.2 0 0 0-.6 0-.9 0-1.4.4l-.3.1h.2c-.6 0-1 0-1.5.4-.1.2.2 0-.4.1l-.8.4-.3.3a2 2 0 0 0-1 .7h.1-.2l-.2.4c0-.2.1-.3.2-.3-.2 0-.5.1-.8.7-.2.3-.2.7-.2 1v.8c.1.4.3.6.4.7l-.1.2a32 32 0 0 0-2 2.2 17.3 17.3 0 0 0-5.2-2.5 9.2 9.2 0 0 0-3.5-.5c-1.8 0-2 0-3.6.5-1.6.4-1.9.5-3.4 1.4-1.4.8-2 1.2-3 2.2a33 33 0 0 1-1.4 1.3l-1.5 2.1a20.5 20.5 0 0 0-2.4 4.2 24 24 0 0 0-1.6 4.6c-.4 1.6-.6 2.5-.7 3.8a19 19 0 0 0-5.2 1.3c-.3-.3-.7-.6-1.2-.7l-.8.1a2 2 0 0 0-.8 0c-.6.1-.6.3-.7.4l-.2.1a2 2 0 0 0-.8.3 2 2 0 0 0-.7.6 2 2 0 0 0-1.4 1.1 2 2 0 0 0-1 1.3c-.3.1-.5.2-.7.7a2 2 0 0 0-.3.8l-.4.6a2 2 0 0 0 0 1.2l-.1.2c0 .3 0 .7.2 1.1.1.3.3.5.5.6a21.4 21.4 0 0 0-1.7 8.7l-1.6.2v-14.4l.2-33.2h.9c.7 0 1.4.1 4.4 1l3.5.9h2.8l2.9.1 2.7-.6 2.7-.6 2.4-1.3 2.4-1.3 2-1.8c2-1.7 2.1-1.8 3.7-4s1.7-2.4 2.8-5c1.2-2.5 1.2-2.8 2-5.7.7-3 .7-3 1-6.2l.2-3.1-.3-3.3c-.2-3.2-.2-3.5-.9-6.7a42.2 42.2 0 0 0-8-18.5 35.3 35.3 0 0 0-4.2-5.2c-2.1-2.2-2.5-2.6-4.9-4.4-1.7-1.4-3-2.2-3.7-2.6-4.7-2.5-4.2-2.3-7.4-3.2-2.7-.8-3-.8-3.4-.7-.4.1-1.4.7-2.1 1.2l-.2.1a566 566 0 0 1 1.7-18.6l1.8-.1zm46 39zm0 0c-2.2-.1-3.9 1.5-4.6 4.4-.4 1.3-.4 4-.1 5.4 1 4.3 3 7.6 5.8 8.8.9.4 1.1.4 2 .4.6 0 1-.2 1.3-.3 2.1-1 3.1-3.3 3.1-6.8 0-5.3-3-10.6-6.6-11.7l-1-.2zm24 9.4c-6.4-.2-10.5 9.3-8.3 20.4 1.3 6.3 4.5 12 8.3 14.5 1 .7 2.4 1.3 3.2 1.5.9.2 2.3.1 3.2-.1 3.2-.9 5.8-4.7 6.6-9.7.3-1.8.5-4.8.3-6.8-.8-9.7-6-18.3-11.9-19.6a7 7 0 0 0-1.3-.2zm-7.1 13a14 14 0 0 1 8.4 10.8c.2 1.5.2 1.4 0 2.9-.1 2-.7 3.6-1.7 5.4l-.2.2c-.7-.8-1.6-1.8-2.2-2.7a28.9 28.9 0 0 1-4.3-16.5zm4.6 24.6c1.2 0 1.8.1 1.7.3-.2.2-2.3.2-3 0h-.3c-.1.2-.9.2-1 0l1.2-.2h1.4zm-3.4.3c.6 0 .7.1.2.3h-.9c-.2.2-.5.3-.7.2-.1-.2 0-.3.4-.3l.5-.1c0-.1.2-.2.5-.2zm-1.7.4s.1 0 0 .2h-.2c0-.1 0-.2.2-.2zm4.2.8c1 0 1.3 0 1.6.2l1.4.6a22.3 22.3 0 0 1 9.4 6.8c.4.5.5.6.9.6s.5-.1.7-.3c.3-.3.7-.4.8-.2.1.2.4.1.7-.2.5-.3.5-.3.5 0s.3.4.8.2c.5-.3.5-.3.4.1v.4h.5c5-.8 10 .4 15 3.6a27.4 27.4 0 0 1 11.6 14.3l.1 1.2c-1.7.5-3.4 1.4-5 2.6l-7 5.9c-2.2-.7-4.6-1.7-7-3.3-1.4-.8-4.2-3-5.9-4.4-3-2.7-5.9-6.2-6.7-8-.7-2-.8-4.7-.2-5.5.2-.2.5 0 .5.3l.1.2.8-.8c.2-.3.2-.3.5-.3l.4.2c0 .2.2 0 .5-.6.3-.5.5-.6.8-.6l.4-.1c.2-.7.4-1 .7-1 .2-.1.2-.2.2-.3 0-.1 0-.4.2-.6l.3-.4c0-.2-.5 0-.8.1-.2.2-.2.3-.2.6 0 .2 0 .3-.2.2-.4-.1-.8.2-1 .6-.1.4-.1.4-.5.2-.3-.2-.3-.2-.7.2-.4.5-.7.5-.8.3-.1-.3-.4-.3-.6 0-.3.3-.8.3-.8 0 0-.2-.2-.3-.5-.1-.4.2-.6 0-.5-.3 0-.3 0-.3-.4-.3s-.4 0-.3-.2c.3-.4.3-.4-.1-.6-.4-.2-.6 0-.4.2.1.1 0 .3-.7 1-2.3 2.3-4.3 6-5.1 9.4l-.3 1 .4.8c.9 1.9 3 9 3.1 10.5l.1.7-1 .4a23.5 23.5 0 0 0-10.3 8.3c-.4.5-.4.5-2 .3a20 20 0 0 1-7-2.3 30.2 30.2 0 0 1-12.6-16.4c-1.5-4.4-1.5-7.6-.1-10.5.5-1.1 2-3 1.6-2.2-.1.3 0 .2.6-.2.4-.2.6-.3.8-.2.2 0 .4 0 .8-.3l.5-.4h.3c.2 0 .4 0 .8-.4l.8-.4c.2 0 .3 0 .4-.2l.4-.3c.1 0 .3 0 .3-.2l.4-.2c.1 0 .2 0 .2-.2h1.1c1.4.1 3.2.5 4.7 1l1.3.3.1-.6c.4-1.7 1-3.5 1.8-4.9a15 15 0 0 1 3.5-3.6c1-.6 2-1.2 2.3-1.2 0 0 .2 0 .3-.2 0 0 .2-.1.4 0l.5-.1c.1-.2.6-.2 1.4-.2zm-17.6 5.8zm33.7.3c-.1 0 0 0 0 0zm-34 1.1c.2 0 .3 0 .2.2h.4c.4 0 .4 0 .3.2-.1.2-.1.2 0 .2.2 0 .2 0 0 .3l-.4.4-.6.4c-.2 0-.5.2-.5.3l-.3.1-.7.3c-.4.2-.6.3-.8.2-.1 0-.4 0-.6.3-.5.3-.8.3-1 .1l-.4.1c-.3.3-.9.4-.9.1 0-.1 0-.1-.2 0l-.6.2c-.2 0-.2 0-.2-.2.1-.3 0-.3-.1-.2-.3.2-.5.1-.3-.1.1-.1.1-.2 0-.2-.2 0 0-.2.3-.3.2-.1.3-.2.2-.3-.2 0 0-.2.4-.3.2 0 .4-.1.5-.3 0-.1.1-.2.3-.2.2 0 .5 0 .8-.2l2.1-.7.8-.2c.2-.2.2-.2.4 0h.4l.6-.2zm36 1.2-.3.3v.3c.1 0 .2-.1.2-.3v-.3zm-2.6.1v.1l-.2.4c0 .1 0 .1.1 0l.2-.4zm.8.2-.6.8-.2.4.3-.3.4-.5.1-.4zm-4.8.4v.4-.4zm5.3 0-.7.7c-.4.3-.6.7-.6.7v.2c-.2 0-.2 0 0 .2l-.2.2h.7c.2 0 .2 0 .2-.2s.1-.3.3-.4c.2-.1.2-.3.2-.8zm1.4.3-.3.2c-.2.2-.3.3-.2.4.1.2.2.2.5-.1.2-.4.2-.5 0-.5zm-7.6.7v.3c.4.4.5.3.3 0l-.3-.3zm4.6 1.2c-.2 0-.3.1-.2.3.2.1.4 0 .4-.1s0-.2-.2-.2zm-50.6 5.6a2 2 0 0 1-.3 0h.3zm-.2 1.7.2.1h.4c.4-.1.4 0 0 .6l-.3.8c0 .3.2.3 1 .4 1.2.1 3.4.4 3.5.6l-.5 1.6c-1 3.3-1.5 6.4-1.6 9.9v2.3l-.8 1.5-.8 1.5.2.2.6.8.3.5h1.5a39.2 39.2 0 0 1 26 10.9l-2.1-.2h-7.4c-3.9.1-7.5 1.7-10.2 4.4a15.2 15.2 0 0 0-10-4.4h-8c-.2-1.2-.2-2.2 0-3.1a16 16 0 0 1 1.7-4.7l.8-.7.6-.3v-1.4l-.1.1-.1.8c0 .5 0 .5-.5.7l-.5.3-.6.4-.8.6-.4.3-.5.4-.3.3-.5-.4c-.5-.5-1.1-.8-1.3-.7l-.1.3c0 .3 0 .3 1 .8.4.3.5.5.3.6h-.3c-.1-.2-.5-.3-.8-.4a19.3 19.3 0 0 1-1-.2c.2.1 0 .7-.3.7-.2 0-.3.2-.1.4.2 0 .2 0 0 .3-.2.2-.2.2.2.4l1 .3h.5l-.5 1-.8 1.4c-.3.1-.7.6-1 1-.5.8-.5.8-.3 1l.4.2h.3l-.1.4-1.9.7-5.5-1.4-5-.7h-.7l-.6-.7a11.5 11.5 0 0 1-2.5-6.8c0-1.3 0-1.6.3-1.5.2 0 .4 0 .7-.6.2-.3.5-.6.5-.8l.3-.2c.2 0 .6-.7.6-1l.3-.3c.2-.1.3-.3.3-.5l.1-.5.3-.9v-.7l-.4.5c-.4.4-.4.4-.2.5.2.2.1.4-.1.4-.3 0-.6.4-.6.8 0 .3-.1.3-.4.3-.3 0-.4.2-.7.9-.1.3-.2.3-.7.1-.1 0-.2 0-.4.4-.2.6-.5.7-.7.4-.2-.2-.2-.2-.4.2s-.6.4-.7.1c0-.3-.1-.3-.4 0-.3.2-.5 0-.4-.3.1-.2 0-.2-.2-.2-.3 0-.3 0 0-.4l-.1-.3c-.2-.2-.2-.2 0-.5.2-.2.3-.3.2-.5v-.3c.3 0 .8-.7.8-.9 0-.2 0-.3.3-.4l.6-.5c.2-.5.3-.6.7-.6h.2l.3-.5c.3-.2.4-.3.5-.1.1 0 .3 0 .6-.3l.4-.3.2.2c0 .2.1.2.4 0 .4-.4.6-.3.5.2 0 .2 0 .2.2.1.4-.2.5 0 .3.4-.3.5-.3.5 0 .5l.1-.2c0-.2 2.1-1 3.5-1.4a22 22 0 0 1 8.3-.6 37.8 37.8 0 0 1 5.1 1v-1.3c0-2.1.4-4.6 1.1-6.3.5-1.2 1.1-2.1 2.2-3.3l1-1.4c0-.3-.3-.8-.8-1-.4-.2-.3-.3.3-.5.4 0 .5 0 .4.2v.5c0 .3.7.6.9.5.1-.2-.2-1-.5-1.2-.4-.3-.3-.4.5-.5l.4-.1v.5c-.1.4 0 .5.2.7.2.2.3.2.3 0l.1-.3c.3-.2.2-.6-.2-.7-.3-.2-.3-.5 0-.4.2 0 .5 0 .7-.2l.6-.1h.6l.3-.1zm0 .5v.3c-.2.2-.2.4-.2.5l.1.2.2-.1v-.8zm-1 .1c-.3 0-.4.1-.4.4v.4h.7v-.5c0-.2-.1-.3-.3-.3zm2 0c-.1.2-.2.3-.2.1 0 .2 0 .1.1 0zm-7.2 0zm1.4 3.1-.1.2v-.1zm109.5 9a15.2 15.2 0 0 1 .3.3l-.3-.2zm-53.8 2.3a21.7 21.7 0 0 1 13.9 4.9l-9.5 7.9-.2.2-2.8 2.3-2.1 1.7c.2-.1.2-.3.2-.5l-.2-.3h-.2l.2.3c.1.3.1.3-.3.5l-.5.3s-.2 0-.3.2c-.1.1 0 .2 0 .4l-2.2 1.9c-.7-.2-1.4-.4-2.6-1.2a14.4 14.4 0 0 1-5-8.3 12 12 0 0 1 0-3.7c0-.4.4-1.1.6-1.7.9-1.8 2.3-3 4.6-3.9 1.7-.6 4-1 6.4-1zm-77.9.8-.2 1-.2 1a5.8 5.8 0 0 0 .4-2zm.7 0zm0 0-.3.6a23.7 23.7 0 0 0-1 2.8l.5-.5c.2 0 .4-.2.4-.3 0-.1.1-.4.3-.5.2-.3.6-1.4.4-1.5h-.2c-.2.2-.2.2-.1-.2v-.3zm-1.5.6v.4-.4zm136.6.2a15.2 15.2 0 0 1 .2.2l-.2-.2zm-140.2 1.9h.3-.3zm-1.3 2.3v.2-.2zm-.1.4v.2-.2zm24.6.7v.1l.3.6c.2.5.4.7.4.4 0-.2-.5-1-.7-1zm-1.1 1c-.4 0 0 .7.5 1.2.3.2.6.4.6.2 0-.3-.8-1.4-1.1-1.4zm94.1.2 11.8 2.5-11.1 51.4 8.1 1.7-2.3 11-8.2-1.8-3.8 17.4-13.3-2.9 3.7-17.4-33.7-7.3-4-10.9 9.7-8 23.4-19.3h-.1zm30 0a15.2 15.2 0 0 1 .6.4l-.7-.4zm-143.4 7.6zm-11 1h-.2.1zm-3.9 1h-.2.2zm-3.2 1.2-.8.3c.3 0 .5-.2.8-.3zm128.7 4.6-36.7 30.2 28.8 6.2zm-111.7 7.4a50.4 50.4 0 0 1 7.4.7c2.3.4 4.5 1 6.4 1.6v7a29.2 29.2 0 0 0-6.3-1.8c-2.2-.4-4.5-.7-7-.7-5.8 0-10 1.6-12.4 4.7a22 22 0 0 0-3.6 13.6c0 5.5 1.3 9.7 4 12.6 2.6 2.8 6.7 4.2 12.2 4.2a33 33 0 0 0 13.2-2.3v7.1a39 39 0 0 1-13.9 2c-7.7 0-13.6-2.2-17.6-6.4-4-4.3-6-10-6-17.2 0-5.2.9-9.6 2.5-13.4 1.8-3.7 4.3-6.6 7.8-8.6s8-3 13.3-3zm-61.5.7 2.6.1c2.5.3 4.6 1 6.3 2 2.4 1.3 4.1 3.2 5.2 5.6 1.2 2.4 1.7 5 1.7 8a15 15 0 0 1-4.4 11.3 16 16 0 0 1-11.7 4.3h-12.8v15.9h-8v-47.2zm22.2 0h8v47.2h-8zm61 0h8v25.7l16.7-21.2 3.5-4.4h7.4l-10.9 13.8-4.5 5.7 17.8 27.7h-8.5l-13.9-22-7.7 9.8v12.2h-8zm-96.2 6.2v18.8h11.2c3.2 0 5.6-.8 7.2-2.5a9.3 9.3 0 0 0 2.4-6.7c0-3-.7-5.4-2.3-7-1.5-1.7-3.8-2.6-6.9-2.6zm51.3 58.6a21.6 21.6 0 0 1 6 1v3c-1.6-.5-3.5-.9-5.5-.9-1.6 0-2.8.2-3.7.7-.9.4-1.3 1.1-1.3 2.2 0 .7.1 1.2.4 1.6.3.4.9.7 1.6 1l3.2 1c1.8.4 3.1 1 4 1.6a5 5 0 0 1 2 2.1c.5.8.7 1.7.7 2.7 0 2-.7 3.4-2.1 4.5-1.4 1-3.5 1.6-6.3 1.6s-5-.4-6.7-1.1v-3.2a20.5 20.5 0 0 0 6.3 1.2c1.7 0 3-.2 3.8-.6.9-.4 1.3-1.2 1.3-2.4 0-.7-.2-1.3-.5-1.7a4 4 0 0 0-1.8-1.2l-3.3-1a11 11 0 0 1-4.9-2.2c-1-1-1.4-2.2-1.4-3.9 0-1.8.7-3.3 2-4.4 1.4-1 3.5-1.6 6.2-1.6zm25 0a17.6 17.6 0 0 1 6.3 1v3.2l-2.9-.8c-1-.2-2-.3-3.1-.3-2.7 0-4.6.7-5.7 2.2a10 10 0 0 0-1.6 6c0 2.6.6 4.5 1.8 5.8 1.2 1.3 3 2 5.5 2l3-.3 3-.8v3.2a17.8 17.8 0 0 1-6.3.9c-3.5 0-6.1-1-8-3a11 11 0 0 1-2.6-7.7c0-2.4.3-4.4 1.1-6 .8-1.8 2-3 3.5-4 1.6-.9 3.6-1.4 6-1.4zm22.8 0c3.4 0 5.9 1 7.6 2.7 1.6 1.7 2.5 4.5 2.5 8.4 0 3.8-.9 6.5-2.5 8.3-1.7 1.8-4.2 2.7-7.6 2.7-3.4 0-6-1-7.6-2.7-1.7-1.8-2.6-4.5-2.6-8.3 0-3.9.9-6.7 2.6-8.4 1.6-1.8 4.2-2.7 7.6-2.7zm51.5 0a21.6 21.6 0 0 1 6 1v3c-1.6-.5-3.5-.9-5.5-.9-1.6 0-2.8.2-3.7.7-.9.4-1.3 1.1-1.3 2.2 0 .7.1 1.2.4 1.6.3.4.9.7 1.6 1l3.2 1c1.8.4 3.1 1 4 1.6a5 5 0 0 1 2 2.1c.5.8.7 1.7.7 2.7 0 2-.7 3.4-2.1 4.5-1.4 1-3.5 1.6-6.3 1.6s-5-.4-6.7-1.1v-3.2a20.5 20.5 0 0 0 6.3 1.2c1.7 0 3-.2 3.8-.6.9-.4 1.3-1.2 1.3-2.4 0-.7-.1-1.3-.5-1.7a4 4 0 0 0-1.8-1.2l-3.3-1a11 11 0 0 1-4.9-2.2c-1-1-1.4-2.2-1.4-3.9 0-1.8.7-3.3 2-4.4 1.5-1 3.5-1.6 6.2-1.6zm-152.3.4h3.5l3.6 16 4-13.4v-2.6h3l4.6 16 3.6-16h3.6l-5 21.3h-3.5l-4.3-15-4.5 15h-3.7zm33.6 0h3.6v21.3h-3.6zm85 0h3.1l11.2 15.7v-15.7h3.5v21.3h-3.1l-11.2-15.7v15.7h-3.6zm48.7 0h3.6v21.3h-3.6zm12 0h3.2l11.1 15.7v-15.7h3.6v21.3h-3.2l-11.1-15.7v15.7h-3.6zm-78.5 2.7c-2.3 0-3.9.6-5 1.8-1 1.2-1.5 3.3-1.5 6.2 0 2.8.5 4.8 1.6 6 1 1.3 2.6 2 4.9 2 2.2 0 3.8-.7 4.9-2 1-1.2 1.6-3.2 1.6-6 0-3-.6-5-1.6-6.2-1-1.2-2.7-1.8-5-1.8zm-30.7 36-.2.1h.2z" style="-inkscape-font-specification:Kanit;fill:url(#b);stroke-linecap:round;stroke-linejoin:round;paint-order:stroke fill markers" transform="translate(-23344.3 1926)"/></svg>