<svg xmlns="http://www.w3.org/2000/svg" xmlns:xlink="http://www.w3.org/1999/xlink" xml:space="preserve" width="1080.472" height="1158.978" viewBox="0 0 285.875 306.646"><defs><linearGradient id="a"><stop offset="0" style="stop-color:#2153b9;stop-opacity:1"/><stop offset="1" style="stop-color:#91a5ff;stop-opacity:1"/></linearGradient><linearGradient xlink:href="#a" id="b" x1="23338.648" x2="23561.926" y1="-556.16" y2="-810.084" gradientUnits="userSpaceOnUse"/></defs><path d="m23469.338-850.968-.01.01v.001c-15.787 0-30.87 2.908-44.753 8.215a124.104 124.104 0 0 0-17.148 8.107 125.137 125.137 0 0 0-29.382 23.193v.001a125.27 125.27 0 0 0-14.95 19.481 124.75 124.75 0 0 0-3.731 6.375c-.262.485-.501.984-.751 1.477-.351.691-.706 1.378-1.054 2.071-.34.682-.706 1.35-1.036 2.038-.09.191-.171.39-.262.581-.02.05-.03.103-.07.152 0 .017 0 .026-.02.038-.929 1.984-1.803 4-2.631 6.04.119-.286.215-.58.333-.866a120.059 120.059 0 0 0-1.994 5.18c-.09.23-.182.454-.264.684a126.398 126.398 0 0 0-1.996 6.089 124.296 124.296 0 0 0-1.955 7.386c-.09.36-.137.73-.226 1.093 0 .029 0 .06-.02.088a126.197 126.197 0 0 0-1.074 5.217c-.38 2.108-.703 4.234-.975 6.379-.171 1.319-.276 2.656-.4 3.988v.019c-.09.864-.194 1.72-.259 2.59-.07.993-.102 2-.137 3v.215c-.05 1.162-.136 2.316-.171 3.485-.02.892-.07 1.776-.07 2.672v19.259c0 2.163.05 4.312.171 6.447.103 2.136.269 4.256.481 6.361.212 2.106.477 4.195.793 6.268.315 2.072.681 4.127 1.097 6.165 1.107 5.437 2.621 10.719 4.406 15.87a15.23 15.23 0 0 0-6.92 12.406l-.02 47.178c.03 1.788.368 3.557 1.008 5.227-2.546.449-5.117 1.25-7.573 2.692-3.778 2.2-6.985 5.82-8.753 9.71l-.03.073c-1.664 3.721-2.252 7.58-2.252 11.303 0 5.626 1.869 11.992 6.147 16.586l.06.059c1.669 1.771 3.624 3.148 5.706 4.205.889 1.734 1.977 3.382 3.334 4.84l.06.058c4.668 4.953 11.513 6.94 17.381 6.94h233.486c7.127 0 12.904-6.11 12.905-13.236v-8.16a12.907 12.907 0 0 0 6.796-10.376v-2.818a12.907 12.907 0 0 0-9.73-12.273 12.906 12.906 0 0 0-12.274-9.737h-.887l1.337-6.183a15.23 15.23 0 0 0-5.301-15.012l8.246-38.111a15.23 15.23 0 0 0-4.004-13.812c.659-2.454 1.293-4.918 1.805-7.43a124.976 124.976 0 0 0 1.889-12.432c.214-2.105.375-4.225.482-6.36v-.001c.103-2.135.171-4.284.171-6.447v-19.259c0-2.162-.05-4.312-.171-6.447a119.052 119.052 0 0 0-.482-6.361 124.45 124.45 0 0 0-1.889-12.433 123.672 123.672 0 0 0-1.392-6.055c-.511-2-1.072-3.98-1.68-5.938a120.884 120.884 0 0 0-1.962-5.813 123.88 123.88 0 0 0-4.729-11.22 124.696 124.696 0 0 0-9.006-15.697c-.288-.425-.613-.82-.903-1.241-.274-.395-.57-.773-.849-1.165-2.904-4.09-5.992-8.041-9.356-11.745a125.082 125.082 0 0 0-8.474-8.472 124.757 124.757 0 0 0-24.456-17.36 124.116 124.116 0 0 0-34.418-12.52 125.786 125.786 0 0 0-18.793-2.37 127.904 127.904 0 0 0-6.447-.162zm0 7.178-.02.005c36.975 0 69.94 17.02 91.537 43.644a6.42 6.42 0 0 0-1.125-.118c-.5 0-.951.067-1.364.203-.838.279-1.469.847-1.914 1.551-.444.705-.723 1.546-.932 2.457-.416 1.823-.552 3.95-.918 5.853-.368 1.904-.962 3.537-2.147 4.46-1.054.82-2.482 1.075-3.986 1.254-17.942-24.221-46.709-39.946-79.151-39.946-1.696 0-3.38.043-5.055.129-.778.039-1.548.118-2.321.175-.891.067-1.788.115-2.674.204-.865.087-1.722.217-2.583.327-.776.101-1.56.18-2.331.298-1.126.171-2.234.386-3.344.595-.496.093-.998.166-1.49.267-1.148.234-2.28.511-3.413.786-.446.107-.899.196-1.342.31-1.1.283-2.183.607-3.268.926-.463.137-.937.254-1.397.397a97.137 97.137 0 0 0-3.787 1.28c-.255.09-.515.167-.768.259a98.065 98.065 0 0 0-3.786 1.49c-.224.092-.455.172-.679.266a99.471 99.471 0 0 0-4.054 1.83c-.102.046-.195.085-.291.131a98.293 98.293 0 0 0-12.334 7.072 99.876 99.876 0 0 0-3.856 2.733c-1.252.934-2.48 1.897-3.688 2.888 0 .017-.02.017-.03.022a99.426 99.426 0 0 0-6.975 6.315v.018a99.017 99.017 0 0 0-12.217 14.786 98.2 98.2 0 0 0-3.083 4.906 100.187 100.187 0 0 0-4.628 8.822c-.02.039-.03.08-.05.119a98.465 98.465 0 0 0-5.497 15.078 96.703 96.703 0 0 0-1.237 5.03 96.63 96.63 0 0 0-.949 4.959c0 .071-.03.142-.03.214a99.502 99.502 0 0 0-.653 4.799c-.02.147-.03.293-.05.441a99.462 99.462 0 0 0-.577 10.598c0 17.888 4.798 34.649 13.147 49.105.03.075.09.154.12.23a98.613 98.613 0 0 0 6.441 9.691c-1.939-.618-3.898-1.076-5.859-1.276a14.891 14.891 0 0 0-.455-.039c-.669-.048-1.937-.172-3.676-.172l-13.987.002c-3.68-6.56-6.783-13.482-9.17-20.746l-7.613 3.424v-.001l7.576-3.406c-.797-2.423-1.545-4.868-2.185-7.358l.07-.027a117.815 117.815 0 0 1-3.632-25.37l-.04.007c-.05-1.35-.103-2.697-.103-4.059 0-1.14.05-2.268.09-3.401.12-4.224.46-8.392 1.011-12.493V-741.904a116.663 116.663 0 0 1 2.275-12.076c.571-2.344 1.187-4.671 1.897-6.958 2.396-7.725 5.58-15.1 9.432-22.053a117.238 117.238 0 0 1 3.559-5.973 118.287 118.287 0 0 1 14.211-18.202c21.463-22.55 51.746-36.624 85.351-36.624zm-.01 23.15v.008c30.5 0 57.593 14.424 74.906 36.803-.45.122-.898.248-1.321.454-1.045.51-1.965 1.351-2.576 2.66-1.686 3.617-.378 7.034.503 9.701.44 1.334.76 2.492.659 3.356-.103.864-.517 1.508-1.882 2.093-.535.23-1.221.198-2.02.17-.797-.028-1.716-.038-2.593.449-1.098.61-1.401 1.673-1.725 2.416-.153.372-.326.67-.559.89-.233.221-.542.39-1.103.467-.912.125-2.354-.4-3.854-.855-1.498-.456-3.147-.841-4.548 0-1.158.695-1.954 1.502-2.79 2.111-.837.609-1.694 1.047-3.117 1.121-3.972.21-8.046-1.488-12.411-.312-.503.135-1.306.525-2.334 1.117-1.028.593-2.22 1.378-3.279 2.268-1.057.89-1.987 1.874-2.461 2.947-.476 1.074-.397 2.33.559 3.285 1.209 1.21 2.431 1.511 3.466 1.17 1.035-.34 1.832-1.17 2.617-1.957.783-.787 1.555-1.545 2.318-1.867.764-.323 1.512-.325 2.637.52 2.356 1.767 5.036 4.234 8.053 6.009 3.02 1.775 6.435 2.859 10.144 1.746 1.358-.407 2.533-1.302 3.736-1.941 1.202-.64 2.362-1.037 3.77-.635 1.715.49 2.644 1.433 3.771 2.322 1.128.89 2.489 1.68 4.742 1.534 2-.129 3.459-.99 4.829-1.78 1.368-.789 2.644-1.509 4.423-1.593 1.675-.08 3.464.698 5.409 1.511 1.589.665 3.295 1.314 5.139 1.437 1.007 5.536 1.566 11.229 1.566 17.057 0 2.515-.119 4.999-.318 7.464-.03.392-.05.787-.08 1.177a95.242 95.242 0 0 1-.893 6.939c-.07.45-.154.898-.236 1.346a94.556 94.556 0 0 1-1.47 6.79c-.08.305-.171.603-.251.905a94.422 94.422 0 0 1-1.955 6.384c-.09.237-.154.48-.238.717-.3.845-.655 1.662-.997 2.486a15.231 15.231 0 0 0-2.311-.141c-.292.062-.582.133-.87.213l-.03-.002c-2.324-.086-4.517-.274-6.325-1.588-1.271-.924-2.087-2.364-3.029-3.756-.943-1.392-2.058-2.76-3.957-3.235-2.867-.716-4.834.88-6.488 1.901-.828.51-1.579.876-2.359.888-.78.018-1.664-.3-2.834-1.364-.573-.522-.823-1.185-.902-2.026-.08-.84.03-1.837.194-2.881.318-2.09.857-4.384-.07-6.246-.275-.553-.759-.904-1.271-1.086-.511-.181-1.059-.227-1.606-.248-1.095-.041-2.205-.017-2.88-.313-1.052-.477-1.714-1.43-2.505-2.373-.792-.942-1.799-1.876-3.421-1.876-.533 0-1.018.225-1.498.501-.483.277-.963.622-1.417.94-.453.318-.884.608-1.219.771-.337.165-.517.152-.53.146-1.076-.54-1.651-1.202-2.017-1.98-.366-.78-.506-1.695-.597-2.677-.18-1.965-.154-4.246-1.851-5.95-.648-.648-1.32-.98-1.965-1.065-.645-.086-1.232.067-1.75.246-.518.18-.984.392-1.393.504-.408.111-.732.133-1.074 0-1.091-.436-2.176-1.453-3.287-2.64-1.112-1.188-2.255-2.532-3.582-3.561-1.16-.901-2.494-1.565-4.03-1.6-.219-.018-.443 0-.671.023-.556.053-1.141.22-1.739.445-.03-.147-.05-.289-.177-.495v-.017c0-.23-.02-.606-.02-1.343 0-.83 0-1.344-.03-1.764 0-.21-.02-.39-.12-.674-.08-.286-.366-.893-1.045-1.154-.253-.096-.272-.084-.363-.105a22.353 22.353 0 0 0-1.026-.181l.489.073.03-2.916c0-1.887.02-2.963 0-3.645 0-.34-.02-.57-.09-.867-.03-.149-.05-.324-.198-.586-.137-.262-.484-.641-.898-.8.347.133.343.183.381.213 0-.017 0-.017-.03-.035-.09-.091-.234-.24-.407-.426-.342-.37-.809-.887-1.299-1.447l-1.811-2.07a1.616 1.616 0 0 0-.742-.481l-1.413-.435-.62-.189-.511-1.54c-.337-1.02-.535-1.608-.739-2.076-.103-.234-.2-.45-.398-.707a2.333 2.333 0 0 0-.875-.653c-.494-.188-.653-.154-.93-.177a10.974 10.974 0 0 0-.867-.03l-.09-.018c-.297 0-.592.018-.867.03-.275.02-.428-.02-.939.178-.375.144-.717.458-.893.704-.176.245-.27.45-.37.682-.198.464-.402 1.059-.732 2.052l-.518 1.555-.306.094c-.59.183-1.328.393-1.316.39-.662.163-.715.335-.894.486a7.72 7.72 0 0 0-.556.516c-.34.341-.807.856-1.324 1.433l-62.787-45.273a95.126 95.126 0 0 1 17.743-13.736.15.15 0 0 1 .07-.036 93.468 93.468 0 0 1 3.872-2.199c0-.017.03-.017.03-.02a94.3 94.3 0 0 1 3.987-2.018c.08-.043.183-.08.272-.123a93.826 93.826 0 0 1 3.871-1.73c.154-.066.321-.124.482-.19a94.018 94.018 0 0 1 3.77-1.469c.221-.08.447-.147.666-.225a94.383 94.383 0 0 1 3.681-1.23c.325-.102.66-.184.988-.281a93.144 93.144 0 0 1 3.451-.97c.446-.114.901-.204 1.351-.311 1.057-.254 2.114-.51 3.185-.727.546-.112 1.1-.193 1.649-.294.989-.183 1.974-.374 2.974-.525.686-.105 1.383-.174 2.074-.263.872-.113 1.739-.241 2.622-.33.925-.093 1.863-.147 2.797-.213.66-.046 1.313-.115 1.977-.149a96.779 96.779 0 0 1 4.844-.123zm90.432 21.442v.003c.59.017 1.315.149 2.179.433 12.176 15.471 20.573 34.053 23.761 54.381-.227.04-.457.077-.621.072-4.326-.16-8.26-1.987-12.707-2.641-2.077-.305-3.62.434-4.939 1.217-1.318.782-2.442 1.577-3.848 1.69-2.031.162-3.964-.58-5.89-1.386-1.928-.806-3.842-1.688-5.865-1.591-2.043.097-3.531.942-4.904 1.734-1.374.792-2.636 1.527-4.367 1.639-2 .128-2.963-.474-4.022-1.309-1.057-.835-2.167-1.946-4.132-2.508-1.745-.498-3.261.026-4.561.717-1.298.691-2.448 1.535-3.542 1.863-3.358 1.008-6.416.052-9.3-1.644-2.884-1.696-5.534-4.126-7.958-5.944-1.338-1.003-2.631-1.093-3.683-.648-1.052.445-1.876 1.31-2.656 2.094-.782.784-1.521 1.476-2.198 1.699-.678.223-1.341.13-2.386-.914-.686-.687-.698-1.296-.341-2.108.359-.811 1.182-1.73 2.174-2.564.992-.834 2.145-1.592 3.129-2.16.985-.567 1.863-.956 2.076-1.014 3.947-1.063 7.9.574 12.191.348 1.631-.086 2.756-.645 3.687-1.323.93-.677 1.685-1.442 2.709-2.057.95-.57 2.256-.335 3.697.102 1.442.438 2.925 1.081 4.305.892.734-.1 1.292-.371 1.687-.746.397-.374.621-.82.804-1.238.361-.834.549-1.515 1.265-1.914.596-.33 1.271-.343 2.045-.316.771.027 1.63.107 2.471-.254 1.588-.68 2.374-1.744 2.516-2.943.137-1.2-.256-2.46-.703-3.811-.892-2.704-2.039-5.727-.549-8.922.515-1.106 1.218-1.735 2.082-2.157.864-.421 1.9-.615 3.016-.744 2.23-.257 4.781-.225 6.72-1.734 1.519-1.18 2.152-3.096 2.537-5.094.385-1.997.525-4.124.914-5.818.193-.847.446-1.579.792-2.127.345-.548.761-.915 1.353-1.11.296-.098.644-.151 1.058-.145zm-102.872 5.142-.01.003c-.631-.017-1.296.239-1.857.8-1.381 1.38-2.164 2.938-3.521 4.085-.456.385-1.207.481-2.045.582-.839.101-1.824.225-2.4 1.064-.431.626-1.477 1.7-2.296 2.88-.409.589-.768 1.214-.965 1.872-.196.66-.222 1.375.09 2.037.296.643.811.992 1.22 1.256.407.265.703.458.853.738.03.058.03.195-.03.458-.09.263-.246.6-.412.962-.154.362-.332.747-.387 1.176-.07.429.03.948.414 1.317 1.959 1.958 4.458 2.173 6.866 2.001 2.409-.17 4.805-.68 6.748-.357 2.766.461 5.382 1.8 8.479 1.691 1.379-.048 2.486-.429 3.509-.814 1.026-.385 1.968-.772 3.091-.922 1.339-.178 3.398.139 5.437.264s4.126.075 5.587-1.127c1.043-.86 1.254-2.155 1.064-3.332-.192-1.177-.741-2.31-1.281-3.16-.39-.613-1.003-.926-1.608-1.033-.606-.106-1.223-.051-1.82 0-.597.055-1.175.107-1.661.061-.484-.046-.852-.173-1.158-.478-.758-.76-1.153-1.78-1.598-2.881-.445-1.1-.951-2.285-2.04-3.186-1.196-.987-2.518-1.237-3.755-1.345-1.235-.108-2.407-.101-3.471-.477-.746-.263-1.657-1.243-2.495-1.961-.743-.635-1.67-.528-2.402-.363-.734.166-1.379.343-1.743.252-.594-.15-1.586-.946-2.653-1.524-.536-.289-1.114-.526-1.745-.539zm-.03 1.065c.369.017.799.16 1.258.41.918.497 1.847 1.357 2.901 1.62.819.204 1.577-.098 2.232-.247.657-.15 1.105-.19 1.482.135.735.63 1.647 1.736 2.834 2.156 1.288.454 2.564.43 3.729.533 1.166.102 2.2.302 3.173 1.105.86.711 1.296 1.685 1.734 2.768.438 1.083.868 2.272 1.829 3.232.513.515 1.172.725 1.806.785.635.06 1.268-.017 1.856-.061.587-.053 1.129-.087 1.54-.017.412.071.674.207.898.56.484.76.976 1.804 1.132 2.762.154.958.02 1.758-.696 2.344-1.071.882-2.882 1.01-4.848.889-1.965-.122-4.02-.473-5.641-.256-1.281.17-2.321.603-3.324.98-1.002.378-1.967.704-3.173.747-2.761.097-5.292-1.183-8.265-1.678-2.248-.375-4.699.184-7.001.347-2.301.165-4.369-.022-6.042-1.695-.12-.127-.137-.208-.12-.43.03-.22.154-.537.301-.877.154-.34.339-.701.457-1.086.12-.384.192-.843-.03-1.273-.313-.581-.819-.87-1.209-1.123-.39-.253-.671-.458-.833-.813-.18-.386-.177-.8-.03-1.29.154-.492.448-1.035.82-1.573.747-1.074 1.751-2.086 2.299-2.883.273-.397.841-.515 1.655-.613.813-.098 1.812-.157 2.602-.826 1.552-1.313 2.356-2.914 3.587-4.145.393-.393.718-.494 1.087-.487zm-65.727 13.64 73.097 32.863c-.02.026-.05.066-.09.09-.171.186-.301.332-.409.448l-75.617-28.713a94.295 94.295 0 0 1 3.01-4.688zm-11.195 22.173 82.983 13.453v.708l-84.728-8.594a92.238 92.238 0 0 1 1.743-5.557zm93.825 2.593.01.015c.05.053-.588 4.258-.668 4.387-.03.048-.312.187-.625.31l-.573.22-.809 1.871c-.501 1.159-.783 1.952-.741 2.085.07.204.25.214 3.933.214h3.864v3.643h-7.174v1.367c0 .835-.03 1.366-.12 1.366-.07 0-.119-.507-.119-1.295 0-1.013-.03-1.327-.171-1.438-.154-.125-.171.045-.171 1.41 0 .996-.03 1.551-.12 1.551s-.103.373-.09 1.03l.03 1.03 4.422-.017 4.42-.017 2.354.397c1.297.218 2.863.478 3.486.578.621.099 1.172.206 1.223.238.137.082.12 4.03 0 4.03-.07 0-.12-.474-.137-1.053-.03-1.19.07-1.105-1.142-.944-.457.062-.656.05-.656-.039 0-.07.09-.127.19-.127.103 0 .515-.056.912-.124l.72-.125v-1.428l-.995-.19c-1.319-.25-5.501-.978-5.626-.978-.05 0-.103.871-.103 1.936 0 1.214-.03 1.936-.12 1.936-.07 0-.119-.722-.119-1.936v-1.936h-8.882V-732.633H23469.025v.485c0 .266-.486 24.208-1.079 53.204-.1 4.782-.121 5.924-.216 10.602h-3.976a15.231 15.231 0 0 0-4.506 1.208c2.407-52.04 2.997-64.206 3.125-64.28.12-.071.154-.507.154-2.074 0-2.287-.103-2.102 1.266-2.329l.865-.144-.05-4.263-.05-4.263.354-.306c.195-.17 1.1-1.153 2.013-2.186l1.656-1.879 1.438-.456 1.439-.456.807-2.359c.765-2.234.825-2.361 1.128-2.429.177-.04.342-.051.367-.027zm97.233 8.636a5.615 5.615 0 0 1 1.225.046c4.252.626 8.229 2.48 12.822 2.65.253.018.537-.03.821-.071a118.808 118.808 0 0 1 1.283 17.367c0 14.694-2.713 28.742-7.629 41.707a15.23 15.23 0 0 0-7.947-4.834l-10.146-2.18c.226-.539.459-1.074.656-1.627l.154-.465a97.191 97.191 0 0 0 2.123-6.88c.08-.318.183-.632.266-.95a97.498 97.498 0 0 0 1.552-7.123c.08-.45.154-.9.236-1.353.402-2.399.722-4.824.946-7.279.08-.946.154-1.896.212-2.85.03-.497.07-.992.103-1.491.07-1.55.119-3.108.119-4.675 0-6.081-.586-12.022-1.643-17.798.643-.333 1.243-.717 1.833-1.067.95-.563 1.868-1.035 3.014-1.126zm-92.377.6c.07-.094 5 .801 5.239.95.154.093.154 1.047 0 1.14-.05.04-1.151.274-2.42.521-1.268.248-2.421.477-2.561.509-.137.032-.262.044-.269.027-.05-.134-.03-3.071 0-3.146zm-13.319 2.52v4.726l.827-.158 2.394-.455 1.569-.298-.03-1.491-.03-1.493-.797-.135c-.438-.074-1.501-.262-2.362-.416zm13.353.92c.03-.03.09.59.09 1.377s-.03 1.43-.05 1.43c-.03 0-.05-.017-.07-.029-.05-.206-.02-2.738.03-2.778zm3.597 1.031V-740.09l-.717-.126-1.004-.179V-740.542l.349-.068c.505-.1.891-.174 1.372-.267zm-15.22.092c.417.074.737.134 1.158.206l.171.029v.127c-.317.06-.631.121-1.009.19l-.312.058v-.282zm-4.085.13c0 .296 0 .438.02.702l-88.308 14.316v-.32c0-1.937.09-3.855.19-5.762zm.103 3.2v.073l.347-.063c-.12.022-.229.053-.347.079v.462l-.03-.44c-.183.039-.378.076-.537.123l-.174.058zm-1.109.417a1.97 1.97 0 0 0-.154.075c-.119.069-.297.088-.604.567v.017c-.403.635-.232.584-.248.681l-82.285 36.995a95.581 95.581 0 0 1-1.615-6.089zm2.648 1.357c-.275.017-1.579.312-1.652.387-.03.042.02.367.154.724.239.693.367.774 1.277.807l.37.017v-.968c0-.7-.03-.967-.137-.964zm-1.68 1.475c-.07-.114-.102.302-.119 1.281 0 .894.03 1.453.119 1.453.07 0 .12-.502.12-1.282 0-.704-.05-1.358-.12-1.452zm.342.544v2.1l.426-.073c.236-.039.568-.102.741-.137.305-.061.313-.082.313-.843 0-.43-.03-.805-.08-.834-.03-.027-.38-.088-.739-.133zm-2.491 1.798c-.02.095-.03.149-.03.19 0 .09-.02.152-.03.228 0 .152-.03.343-.03.602-.03.518-.09 1.295-.137 2.385-.12 2.181-.294 5.608-.537 10.615-.48 9.895-1.246 26.243-2.395 51.017-1.759-.499-3.502-1.036-5.335-1.354a49.288 49.288 0 0 0-4.92-.693l-.176-.014a72.106 72.106 0 0 0-4.367-.183l-.06-.018v.014c-.243-.003-.416-.028-.666-.028l-.04.012c-5.399.004-10.775.773-15.814 2.713-.181-.007-.311.037-.505.017-2.077-.207-3.955-1.198-5.886-2.248-1.933-1.049-3.918-2.157-6.222-2.445-1.108-.138-2.646.285-4.44.756-1.796.47-3.794 1.021-5.505 1.248-1.71.227-3.067.075-3.66-.52-.296-.298-.481-.721-.474-1.445 0-.724.227-1.726.749-3.03.03-.078.327-.366.932-.616.604-.251 1.466-.493 2.491-.715 2.047-.445 4.757-.826 7.559-1.213 2.8-.386 5.696-.78 8.151-1.262 2.456-.482 4.447-1.009 5.586-1.863 4.791-3.594 6.02-6.581 7.939-8.895 1.921-2.314 4.57-4.145 12.594-5.75 6.69-1.338 9.041-2.83 10.912-4.533.86-.784 1.668-1.599 2.769-2.47l.07-1.404c-1.548 1.142-2.554 2.184-3.551 3.091-1.779 1.62-3.813 2.961-10.406 4.28-8.135 1.626-11.144 3.63-13.2 6.11-2.058 2.481-3.123 5.248-7.76 8.725-.798.598-2.749 1.197-5.156 1.67-2.407.473-5.289.865-8.093 1.252-2.803.387-5.525.767-7.639 1.226-1.059.23-1.964.478-2.67.772-.708.293-1.273.605-1.51 1.201-.553 1.38-.818 2.492-.825 3.416 0 .924.267 1.68.784 2.2.413.415.953.635 1.543.774-1.733.29-3.403.878-4.935 1.738a94.79 94.79 0 0 1-8.64-12.535zm29.918.659-.03.01c1.259.026 2.347.56 3.4 1.379 1.204.935 2.323 2.235 3.459 3.447 1.136 1.212 2.287 2.349 3.666 2.9.61.244 1.218.189 1.746.043.53-.145 1.009-.37 1.461-.528.452-.157.864-.246 1.266-.193.403.053.829.238 1.354.762 1.36 1.361 1.359 3.262 1.543 5.299.09 1.018.238 2.06.695 3.03.455.968 1.238 1.844 2.501 2.475.503.252 1.014.08 1.466-.138.451-.22.906-.537 1.366-.86.46-.322.921-.65 1.333-.886.412-.237.778-.361.973-.361 1.239 0 1.87.616 2.61 1.5.743.883 1.507 2.03 2.878 2.654 1.046.476 2.263.367 3.277.406.508.02.96.072 1.291.19.331.118.532.266.679.56.688 1.374.302 3.483-.02 5.613-.154 1.066-.299 2.133-.203 3.14.102 1.009.443 1.982 1.243 2.71 1.297 1.177 2.474 1.656 3.565 1.638 1.091-.017 2.02-.505 2.894-1.045 1.75-1.08 3.271-2.374 5.676-1.773 1.538.384 2.432 1.46 3.339 2.8.905 1.339 1.772 2.921 3.282 4.02 1.195.869 2.509 1.278 3.853 1.505a15.241 15.241 0 0 0-4.339 2.456l-19.836 16.423c-.04.065-.08.13-.125.194l-14.18 11.686a15.23 15.23 0 0 0-13.369-8.141h-7.393c-.267.052-.533.111-.797.178-.75-16.453-1.451-31.86-1.953-42.976-.267-5.926-.484-10.758-.633-14.14-.09-1.69-.137-3.017-.173-3.936-.02-.46-.03-.817-.03-1.066v-.46c.609-.26 1.192-.445 1.716-.495.186-.018.369-.026.551-.02zm90.602 49.303zm-24.668 5.18 11.758 2.529-11.113 51.36 8.167 1.766-2.355 10.893-8.167-1.77-3.777 17.45-13.364-2.892 3.776-17.448-33.72-7.297-4.068-10.855 9.781-8.063 23.358-19.25h-.112zm30.196.17.02.012zm-173.326 6.549c2.044.255 3.91 1.272 5.846 2.324 1.564.85 3.185 1.696 4.98 2.123a33.883 33.883 0 0 0-3.166 1.62c-.06.035-.114.083-.174.119a15.23 15.23 0 0 0-10.17-4.598h-4.87a94.577 94.577 0 0 0 3.513-.86c1.786-.468 3.387-.81 4.041-.728zm-53.894 1.588zm126.538 1.59zm67.663 5.558-36.708 30.143 28.835 6.24zm-111.704 7.393c1.365 0 2.669.074 3.911.17 1.245.11 2.43.274 3.553.496 2.295.392 4.419.931 6.373 1.615v6.96a29.235 29.235 0 0 0-3.039-1.027 31.81 31.81 0 0 0-3.26-.732c-2.197-.437-4.517-.66-6.959-.66-5.86 0-10.013 1.558-12.456 4.682-2.394 3.124-3.596 7.643-3.596 13.551 0 5.519 1.313 9.719 3.949 12.601 2.635 2.834 6.713 4.256 12.231 4.256 2.248 0 4.493-.17 6.74-.511 2.295-.392 4.445-.974 6.448-1.755v7.034c-1.954.636-4.078 1.12-6.374 1.46-2.247.34-4.739.511-7.474.511-7.765 0-13.647-2.131-17.65-6.381-3.954-4.252-5.926-9.99-5.926-17.218 0-5.176.836-9.62 2.499-13.33 1.71-3.76 4.3-6.64 7.768-8.642 3.469-2.049 7.89-3.07 13.262-3.07zm-61.475.686c.903 0 1.766.074 2.59.133 2.473.252 4.588.9 6.346 1.928 2.343 1.367 4.076 3.25 5.198 5.643 1.123 2.344 1.68 5.03 1.68 8.059 0 4.688-1.468 8.448-4.399 11.278-2.884 2.832-6.791 4.243-11.724 4.243h-12.746v15.896h-7.986l.02-47.177zm22.203.003h7.984v47.177h-7.984zm60.946.074h7.984v25.636l16.787-21.263v.074l3.468-4.396h7.392l-10.86 13.74-4.548 5.752 17.789 27.688h-8.498l-13.84-21.932-7.69 9.729v12.19h-7.984zm-96.185 6.164v18.752h11.282c3.174 0 5.567-.828 7.18-2.487 1.612-1.66 2.42-3.904 2.42-6.737 0-3.028-.779-5.372-2.34-7.034-1.514-1.66-3.808-2.494-6.885-2.494zm-17.288 58.6c1.238 0 2.365.099 3.382.298 1.038.177 2 .42 2.885.73v3.15a14.232 14.232 0 0 0-2.852-.797 16.037 16.037 0 0 0-3.15-.298c-2.652 0-4.531.707-5.636 2.122-1.083 1.415-1.625 3.46-1.625 6.134 0 2.498.597 4.399 1.791 5.703 1.193 1.282 3.039 1.923 5.537 1.923 1.017 0 2.033-.077 3.05-.232a14.902 14.902 0 0 0 2.918-.796v3.183c-.884.287-1.846.509-2.885.663a22.583 22.583 0 0 1-3.382.232c-3.514 0-6.177-.961-7.99-2.884-1.791-1.923-2.686-4.52-2.686-7.792 0-2.343.376-4.354 1.127-6.034.774-1.702 1.946-3.006 3.515-3.913 1.569-.928 3.57-1.392 6.001-1.392zm22.745 0c3.404 0 5.935.873 7.593 2.62 1.68 1.745 2.52 4.564 2.52 8.454 0 3.735-.84 6.498-2.52 8.289-1.658 1.768-4.189 2.652-7.593 2.652-3.382 0-5.912-.884-7.592-2.652-1.68-1.79-2.52-4.554-2.52-8.29 0-3.89.84-6.708 2.52-8.454 1.68-1.746 4.21-2.62 7.592-2.62zm102.32 0c1.238 0 2.365.099 3.382.298 1.039.177 2.001.42 2.885.73v3.15a14.214 14.214 0 0 0-2.852-.797 16.034 16.034 0 0 0-3.149-.298c-2.653 0-4.532.707-5.637 2.122-1.083 1.415-1.625 3.46-1.625 6.134 0 2.498.597 4.399 1.791 5.703 1.193 1.282 3.039 1.923 5.537 1.923 1.017 0 2.033-.077 3.05-.232a14.864 14.864 0 0 0 2.918-.796v3.183c-.884.287-1.846.509-2.885.663a22.583 22.583 0 0 1-3.382.232c-3.514 0-6.177-.961-7.99-2.884-1.79-1.923-2.686-4.52-2.686-7.792 0-2.343.376-4.354 1.127-6.034.774-1.702 1.946-3.006 3.515-3.913 1.57-.928 3.57-1.392 6.001-1.392zm58.853 0c1.237 0 2.364.099 3.382.298 1.038.177 2 .42 2.884.73v3.15a14.204 14.204 0 0 0-2.851-.797 16.037 16.037 0 0 0-3.15-.298c-2.652 0-4.532.707-5.637 2.122-1.083 1.415-1.624 3.46-1.624 6.134 0 2.498.597 4.399 1.79 5.703 1.194 1.282 3.039 1.923 5.537 1.923 1.016 0 2.033-.077 3.051-.232a14.873 14.873 0 0 0 2.917-.796v3.183c-.884.287-1.845.509-2.884.663a22.583 22.583 0 0 1-3.382.232c-3.514 0-6.178-.961-7.991-2.884-1.79-1.923-2.685-4.52-2.685-7.792 0-2.343.376-4.354 1.127-6.034.773-1.702 1.945-3.006 3.514-3.913 1.569-.928 3.57-1.392 6.002-1.392zm-143.401.33h3.183l11.141 15.717v-15.716h3.58v21.353h-3.183l-11.107-15.683v15.683h-3.614zm26.26 0h3.183l11.14 15.717v-15.716h3.581v21.353h-3.183l-11.107-15.683v15.683h-3.614zm26.259 0h14.888v2.82h-11.274v6.465h10.047v2.785h-10.047v6.499h11.274v2.785h-14.888zm44.695 0h17.241v2.82h-6.797v18.534h-3.614V-585.2h-6.83zm24.27 0h3.614v21.354h-3.614zm35.71 0h3.614v13.297c0 1.79.486 3.128 1.459 4.012.995.884 2.398 1.326 4.21 1.326 1.791 0 3.173-.442 4.145-1.326.995-.884 1.492-2.222 1.492-4.012v-13.296h3.581v13.428c0 2.675-.807 4.72-2.421 6.134-1.613 1.415-3.879 2.122-6.797 2.122-2.939 0-5.227-.707-6.863-2.122-1.613-1.414-2.42-3.459-2.42-6.134zm25.364 0h17.241v2.82h-6.797v18.534h-3.614V-585.2h-6.83zm-200.33 2.753c-2.21 0-3.846.597-4.907 1.79-1.039 1.172-1.558 3.239-1.558 6.2 0 2.808.519 4.83 1.558 6.068 1.061 1.216 2.697 1.824 4.907 1.824 2.233 0 3.869-.608 4.907-1.824 1.062-1.238 1.592-3.26 1.592-6.067 0-2.962-.53-5.029-1.592-6.2-1.038-1.194-2.674-1.79-4.907-1.79z" style="-inkscape-font-specification:Kanit;fill:url(#b);stroke-linecap:round;stroke-linejoin:round;paint-order:stroke fill markers" transform="translate(-23326.736 850.969)"/></svg>