<svg xmlns="http://www.w3.org/2000/svg" xmlns:xlink="http://www.w3.org/1999/xlink" xml:space="preserve" width="944.9" height="1157.7" viewBox="0 0 250 306.3"><defs><linearGradient id="a"><stop offset="0" style="stop-color:#18310d;stop-opacity:1"/><stop offset="1" style="stop-color:#1fefa6;stop-opacity:1"/></linearGradient><linearGradient xlink:href="#a" id="b" x1="23344.3" x2="23594.3" y1="-177.7" y2="-484.1" gradientUnits="userSpaceOnUse"/></defs><path d="M23469.3-484c-69.2 0-125 55.7-125 125v19.2c0 14.3 2.5 28 6.9 40.8a15.2 15.2 0 0 0-6.9 12.7v47.2c0 6.9 4.7 12.9 11.4 14.6.4 1.2.9 2.4 1.5 3.5v21.2c0 3.7 1.6 7.1 4.2 9.5 1.5 1.4 7.9 8.2 10 10 2.2 1.6 5 2.5 7.8 2.6 0 0 174.2-.2 175.3 0h15a13 13 0 0 0 12.8-13v-2.7c0-2-.5-3.9-1.5-5.6l.3-1v-2.7l-.2-1a13 13 0 0 0 1.4-5.5v-2.8c0-2.5-.8-5-2.2-7.1 4.3-1.9 7.5-5.7 8.6-10.2l2.4-10.9c1.1-5.6-1-11.4-5.4-15l8.3-38.1c1-5-.5-10.1-3.8-13.6l-10.8-10.8c1.7 1.8 8.6 8.4 10.6 10.6 2.8-10.4 4.3-21.4 4.3-32.7V-359c0-69.2-55.8-125-125-125zm0 7.1a117.8 117.8 0 0 1 116.3 137c-4.4-5.1-9.7-11.5-13.6-16.5l-4.3-5.6a98.5 98.5 0 0 0-196.8 0 423 423 0 0 1-10.1 13c-2 2.6-4.9 5.8-7.7 9a117.7 117.7 0 0 1 116.3-136.9zm0 23.2c49.5 0 90 37.9 94.3 86.3l-7.1-10-.8-1.1-7.7-11.2-9.5-14.5-1-1.6c0-.3.2-.7-.4-1.4-.3-.4-.8-.6-1.1-.7h-.6.3c-.6-.6-1.1-.9-2-1l-.7-.1-.8.1-.7.4-.4.5c-1 .1-1.5.7-2 1.2v.1H23504.8v.2c0-1-.7-1.6-1.6-1.7h-3.4c-.7 0-1 0-1.8.3l-1 .7-.3.6c-.5.8-.3 1-.4 2v5l-.2 31.2V-331.1c-.7-.1-1.3-.2-1.6-.4a6 6 0 0 1-1.2-.7l-1.1-1.1c-.2-.3-.9-1.3-1.5-2.5l-1.5-3.8a79.2 79.2 0 0 1-2.6-10.7l-.1-.4c-.1-.1-.2-.4-.7-.7a2.4 2.4 0 0 0-1.7-.4c-.4 0-.7.2-1 .5a37.2 37.2 0 0 1-4.7-.2h-.3l-.6-.2h-1.5a1.8 1.8 0 0 0-1.6 1.7l-.1 2.6a295.7 295.7 0 0 0-.3 14v1.9l-.5.5c-.5.5-1 1-1.5 1.2-.4.3-.8.3-.7.3l-1 .2a1.9 1.9 0 0 0-1 .7v.1a2 2 0 0 0-1-.8l-.4-.1h-.8c.2 0-.2-.1-.6-.4a7 7 0 0 1-1.4-1l-.4-.5v-.2a742.4 742.4 0 0 0-.4-15.6l-.1-3c0-1-.8-1.7-1.8-1.7h-.5l-.9.1c-.1 0-.3 0-.5.2.1 0 .1 0 0 0-.2 0-.4.2-.6.4l.5-.4h-.4a46.7 46.7 0 0 1-4.4.2l-.2-.2-.9-.3a2.4 2.4 0 0 0-1.8.4l-.7.7-.1.4-.1.5-.2 1.1a73 73 0 0 1-2.3 9.2c-1.7 5-3.3 7.1-5.2 8-.3.2-.9.3-1.5.4v-18a6132.7 6132.7 0 0 0-.4-56.4v-.4l-.2-.6c0-.1 0-.3-.3-.6a2.5 2.5 0 0 0-1.7-1h-.7l-2.5-.1h-1.3c-.9 0-1.6.6-1.7 1.5H23409.5a5 5 0 0 0-1-.9c-.2-.1-.4-.3-.9-.4-.2-.3-.5-.6-1.1-.8-.6-.3-1.2-.2-1.5-.2-.9.2-1.4.5-2 1 0 .2-.2 0 .3 0l-.6.1c-.3 0-.8.3-1 .7-.6.7-.6 1-.6 1.4l-1.2 2-9.7 14.6-.8 1.3-6.7 9.8-.4.5-7.2 10.1a94.6 94.6 0 0 1 94.2-86.2zm63.5 46.6h1l.5.5.4.3.5.1.4.1v.5c0 .4.3.9 1.1 2.1l5.5 8.2 6.9 10.4 2.1 3.2 4.4 6.2 2.2 3.3a464 464 0 0 0 27.4 34.6l-.3 1.7a456.2 456.2 0 0 1-29.8-38.2 885 885 0 0 1-13.5-20.4c-4-6.2-7-10.6-8-11.6zm-127.5 0c.6 0 .6 0 .3.3-1 .8-2.8 3.5-8.4 12.2l-6.4 9.6-3 4.4a602.4 602.4 0 0 1-6.8 10l-1.7 2.3a506 506 0 0 1-25.4 32.4l-.4-1.7a458.7 458.7 0 0 0 21.3-26.4 476.6 476.6 0 0 0 17.7-25.4l.2-.2 7.3-11a23.5 23.5 0 0 0 3-5.5h.5c.2 0 .5-.2.8-.5.4-.4.6-.5 1-.5zm30.2.7 2.3.1 2.4.2v11.7l-.5.1-.4.3-.2.6c0 .5-.2.8-.3.8v-.3l-.4 1.3c-.4 1.9-.4-.2-.2 49.8a3409.2 3409.2 0 0 0 .4 39.8l3.4-.2a52 52 0 0 0-10.1 1l.2-.1 1.1-1.2h.8v1l2.3-.4c.1-2.8.2-10 .2-44 0-38.4 0-43.3-.2-44.5a37 37 0 0 1-.9-10.3zm67.7 0v.8l-.1.8h27.5l-.5 9c-.1.5-.7.5-.9 0l-.5-.2-.9-.4-1.2-.5a78.6 78.6 0 0 0-8-.8l-1-.2c-.8-.3-.8-.3-1.5 0-.5.2-1.5.3-2.9.4a36.6 36.6 0 0 0-7.4 1c-.2.2-.5.3-.7.3l-.4.1a1 1 0 0 0-.3.2c0 .2-.2.3-.3.3h-.2a104 104 0 0 1-.5-5.2l-.2-3.4v4.8c-.2 4.6-.2 5-.6 7.5l-.5 2.6v43.5c0 30.2 0 39.7.2 43.4v1.4c-.7-.2-1.5-.3-2.3-.3.2-4.5.3-14.6.4-44l.2-39.8c0-3.6 0-4-.3-5.7-.5-2.6-.4-2.6-.6-2.2 0 .1 0 .2-.1.1l-.1-.5-.3-.6-.4-.2-.5-.2v-5.3c0-5.9 0-6.2.2-6.4l2.4-.2zm28.8 0h.8v2a5002.2 5002.2 0 0 1 .2 92.4l-.7-.3-.6-.3.1-20.3.1-24.3v-18c0-14.3 0-14.5-.6-17.6a111.5 111.5 0 0 1-.1-13.4l.8-.1zm-125.4.1h.9v6c0 5.8 0 6-.4 8.3l-.4 2.4V-352.5l.1 24.3.1 15.6-.6.3-.7.4-.2-10.2a7821.4 7821.4 0 0 1 .3-83.8v-.2c0-.1.1-.2.3-.2h.6zm-1.6.8a384.7 384.7 0 0 1-.2 14.2l-.2-1.2-.3-1-.2-.3-.1-.6c0-.2-.2-.2-.3-.2l-.4-.1c-.3-.3-.3-1.2-.3-4.3v-4l1-1.3a7 7 0 0 1 1-1.2zm128.6.1.2.2 1 1.2.8 1v3.9l-.1 4-.5.5c-.2 0-.3 0-.3.2l-.2.4-.3.7-.3 1.4-.3 1.2v-14.7zm-98.2.5-.1 3.2c-.2 4.6-.3 6-.6 6.1-.2 0-.3 0-.5-.3l-.7-.3-.7-.2c-.1-.2-.4-.3-.8-.4l-1.5-.3a59.8 59.8 0 0 0-6.8-.6l-1.1-.2c-.8-.3-.9-.3-1.5 0-.5.2-1.3.3-2.7.4-2.1 0-5.2.4-6.5.7-.4 0-.9.2-1.1.4l-.8.4a1 1 0 0 0-.6.3 1 1 0 0 1-.5.3l-.3-.1c-.1-.2-.6-8.7-.5-9v-.1c0-.1 4.3-.2 13.6-.2zm-33.5 5.4h.1a12676.6 12676.6 0 0 0 .3 82.8c-.1 0-.2-5.4-.3-17.4a4987.5 4987.5 0 0 0-.5-65.1c0-.2.3-.3.4-.3zm134.5.1h.7v4.9l-.2 15.2a5068 5068 0 0 0-.5 62.6s-.2-.4-.2-1v-4.1l.2-40.3zm2.5 5v.2l6.7 10.2c-.2.3-.4.5-.4.8l-.1.6v3l-.1 7-.2 38.4v14.4l2-1.7.3-.2v-23l-.2-34.7v-3.4h.9v7.3l-.3 34.6-.1 19-.5.4-19.9 16.4-.1.2-14.2 11.7a15.2 15.2 0 0 0-8.1-7.1v-2.2h.8l1 1 7 7.7 6.8-5.6-4.3-3.8-3-2.7-7.4-6.4-2.8-2.3v-3.1h15.8l2.4 1 7 3.4 5.6 2.8 5-4v-19.3a13343.2 13343.2 0 0 1 .4-59.3zm-139.2.1.3 61.8v21l-3.8 2-2.3 1.1v-4.9l-.1-18.3-.2-38.7-.1-12.7c0-.4-.2-.8-.5-1l6.5-10 .2-.3zm128.3 4.7.1 2-.1 2.2c-.1 0-.2-.8-.2-2.1s0-2.1.2-2.1zm-117.4 0h.1v.3a19.5 19.5 0 0 1 0 3.8c-.1 0-.2-.5-.2-1.4v-2.1c-.2-.5-.1-.6 0-.6zm105.7.2a50.9 50.9 0 0 1 8.4.8h.3l-.4 1.5a899.2 899.2 0 0 1-4.2 14.2c-.5 0-1.2.6-1.4 1-.2.4-.3.6-.3 1l-.2 2.3c-.2 2.6-.1 2.3-1 4.9l-3.3 9.5a3 3 0 0 0-.7.3c-.3.1-.4.3-.5.4l-.4 1-.1 1.6c0 1.6 0 1.1-.9 3.3l-2.1 4.6-.4.8a2.2 2.2 0 0 0-1.1.7l-.5.8-.2 1.3c0 1 .2.5-.6 1.7l-1.6 2.4-.2.2h-.2v-3.8l.1-28.9v-19.8c.6-.4 3.2-1.2 6.4-1.5 1.6-.2 3.3-.3 5.1-.3zm-93.9 0a55.4 55.4 0 0 1 9.1 1c1.6.3 1.8.4 2.3.8v25.1a5673.5 5673.5 0 0 1-.2 27.4 36.4 36.4 0 0 1-2.4-3.8v-.5l-.1-1.4a2 2 0 0 0-1-1.2l-.7-.2-1-2a62 62 0 0 1-2-4.6c-.2-.8-.2-1.1-.2-2 0-.8 0-1.3-.2-1.8 0-.2 0-.6-.4-1a2 2 0 0 0-.6-.5l-.6-.3-.7-2-2.3-6.3-1.2-3.8-.1-2.2c0-1.2 0-1.8-.2-2.4 0-.2 0-.6-.5-1.2l-.6-.4-.6-.2-.4-1.4-2.7-9.1-1.5-5.1c2.5-.5 5.6-.8 8.8-.8zm-31.6 6.6h.5l.4.2v35.5a732 732 0 0 1-.4 32.6c0-.6-.2-12.9-.2-27.2l-.2-33.6zm158.8 4.8c3.2 4.8 6.3 9.2 9.4 13.5l-.4.8-.2 1v8.6l-.2 27.6-.5 1.5h-2.5c-2 .2-4 .8-5.8 1.8v-19l.2-35.8zm-160.6 0v13.6l.2 39v16.7a94.2 94.2 0 0 1-8.8-17.9V-349c0-7.7 0-11.3-.2-13.1l-.1-1.2c0-.3-.2-.6-.5-1l.8-1.1c2.6-3.6 5.5-7.8 8.6-12.5zm136.6 3.3v7.5a4405 4405 0 0 0-.2 35.5V-317.6l-.9-.4-2-.9v-2.2l.1-23.9V-365l.8-2.2 2.2-7.4zm-112.6.3 1.7 5.7 1.2 3.7v23.5l.1 22.7-2 .9-.7.3v-4.4l-.1-17.1-.2-35.3zm4.9 3.3.1.2a1565.7 1565.7 0 0 1 .2 41.1s-.2-6.3-.2-14a3851.4 3851.4 0 0 0-.1-27.3zm102.8 0 .2.1v3.7l-.2 20.4c0 9.1-.2 16.8-.2 17a886.2 886.2 0 0 1 .2-41.1zm1.6 3.3zm-111.5.8a929.6 929.6 0 0 1 .2 47.9 3834.6 3834.6 0 0 0-.2-47.9zm117 .2a2324.3 2324.3 0 0 1-.4 46.8v-3.4l.2-18.7a2162.8 2162.8 0 0 1 .1-23.9l.1-.8zm-150 3.5h.6l-.1 11.3-.1 18.6v8.3c0 11.1-.1 15.7-.2 15.8-.1.1-.2-.2-.3-1l-.1-16.5v-9l-.1-16.8c0-5.5-.1-8 0-9.3v-1l.1-.2.3-.2zm182.5.1h.8v27.7l-.1 11h-.5v-8.8l-.1-13.3-.1-11.3zm-184.7 4.3v13c-.5-4-.8-7.9-.9-11.9l.9-1.1zm187.5 0 .9 1.2c0 4-.4 8.1-1 12zm-188.4 1.1-2 2.8 2-2.8zm-3.6 4.8c.5 8.4 2 16.5 4.5 24.2v-.1l.1 27.4h-9.1a104.1 104.1 0 0 1-3.3-6.1v-33.6c0-.4-.2-.8-.5-1.2 2.8-3.4 5.5-7 8.3-10.6zm196.5.1 5.6 7.3 2.7 3.2c-.3.3-.5.8-.5 1.3v20.4c-1.3-.7-2.5-1.2-3.8-1.5l-8.6-1.8v-6.5 1.8a98 98 0 0 0 4.6-24.2zm-49.2.2v12.2l-.1 15.8v4l-.3-.1-1.5-.7v-12.9l.2-13.8.4-1 1.3-3.5zm-98.1.1c.3.8.6 2 .9 2.5l.8 2V-321.3h-.2l-1.4.7v-14.4l-.1-17.5zm3.7.1.1.4.1 14.6a849.8 849.8 0 0 1-.2 14.1v-14c0-7.3-.1-13.6-.2-14.2v-.7c0-.2 0-.2.2-.2zm90.7 0a836.4 836.4 0 0 0-.2 30l-.1-.3a787.7 787.7 0 0 1 .3-29.7zm-35.9 1.6.1.1v-.1zm-17.3 1c.1-.1.2 0 .4 0l.3.1c.2.3.3.9.3 2 0 .7-.1 1-.3 1l-.2.4-.1.4-.3-.1-.3-1.3c0-.4-.1-.6-.2-.7v.6h-.7a21.3 21.3 0 0 0-5.3 0l-.1-.1v-.4l-.2.7c0 .8-.2 1.2-.3 1.3l-.1-.3v-.8c0-1 0-1-.2-.4 0 .4-.1.6-.2.6h-.1l-.2-.3a57.7 57.7 0 0 1-4 12.3c-.4.9-.8 1.7-1.3 2.4l-1.5 1.7a9.4 9.4 0 0 1-2.9 1.5l.8-.4c2.5-1.2 4-3.2 5.7-7.7a63.4 63.4 0 0 0 3.3-12.5h.6c.2 0 .3.2.3.3h.7a50 50 0 0 0 6.1-.4zm15.5 0 .2.1c.2.2.6.3 3.4.3s3.2 0 3.4-.2c.2-.2.4-.3.6-.2.2 0 .3.1.3.2v.5l.3 1.8c.6 2.7 1.8 7.4 2.7 9.7a29 29 0 0 0 2.5 5c.3.6.9 1.2 1.5 1.7s1.2 1 1.8 1.3l.8.4-1.3-.5c-.8-.4-1.5-1-2.2-1.7-1-1.1-2-2.7-2.8-4.7l-.9-2.3a72.2 72.2 0 0 1-2.5-8.8v.2l-.1.2c-.1-.1-.3.1-.4.4-.4.8-.5.5-.5-1.1v-1l-.1.2-.3.9h-.8c-1-.2-3.5-.2-4.5 0h-.6l-.1-.7v-.6.7l-.3 1.4c0 .4-.2.7-.3.7l-.3-.4c-.2-.4-.3-.9-.3-2 0-1.4 0-1.4.4-1.6h.4zm-22.2 1c0-.2-.1 0-.1.1v.2c.1 0 .1-.2 0-.4zm29.4 1.5v.4c.1-.1.1-.3 0-.4zm1 3c.1 0 .2.6.2 1.6a8 8 0 0 1-.2 2l-.1-1.5.1-2zm-2.8.1v1.6l-.1-.6v-1zm-26.2 0v1-1zm-3 0h.1v5.4V-344.2zm26.8.1h.4l-.1.4a38.4 38.4 0 0 1-1.3 3.5v-3.8h1zm-21.8 0 1.3.1v3.8c0-.3-.2-.6-.4-1a29 29 0 0 1-1-2.9h.1zm-1.9 2.5v.8-.8zm26 .3v.6c-.1.1-.1 0-.1-.3v-.3zm-122 .4h.5l.6.1v6.4l-.1 6.5-.2 12v3.3c-.3-.4-.5-.8-.6-1.3l-.2-9.5zm217.5 0h.6l-.1 18v4.2l-.8-.6-.2-13.4v-8c0-.1.2-.2.5-.2zm-68.3.6s.2 1.2.2 3c0 3.9-.2 13.7-.3 13.3l-.1-8.3v-.1c0-4 0-7.9.2-7.9zm-80.4 0 .2 1a885.6 885.6 0 0 1-.3 13.9 188.2 188.2 0 0 1 0-14.8zm30.2.4zm19.9 0zm7.3.1.1.2-.1.2h-.1v-.4zm-27 0 .1.1zm-7.4.2v.3V-339.7zm-25.9.8.8 1.6V-323.4h-.1l-.6.3v-6.4l-.1-9.4zm86.2.1v5.2l-.1 9.2v1.3l-.7-.3V-337l.7-1.5v-.2zm-53.8.5.1.6v.6l-.1-.6v-.6zm21.3.3v.6V-338zm-121.5.8V-319c-1.5-4.4-2.8-9-3.9-13.5l4-4.6zm93.7 0v.5-.4zm128.1 0 3.9 4.5c-1 4.7-2.3 9.2-4 13.6l.1-17.6zm-92.4 1.2.1 4.2v4.2l.7.1a75.3 75.3 0 0 1 4.1.8h-8.2c-.8 0-1.2-.1-1.8-.3a19.8 19.8 0 0 0-3.2-.6c-.2 0-.2-.2-.2-.3v-.2l.1.1c0 .1.1.2.3.2h.8c.6 0 1.1-.2 1.1-.2 0-.1.1-.1.2 0l.8.2h.8a100 100 0 0 0 .4-7c.2 0 .2 1 0 3.4v3.2l.3.4.5.1.4-.1.1-.5v-.6.6l.2.5.5.1h.4l.1-.7v-.6l.2.7.1.6.5.1h.6v-4.1l.1-4.3zm97 .1v.3-.3zm-134 1.7zm4 .1.2 3.1c0 1.7.1 3 .2 3.1h3.9c0-.1 0 0 0 0l-.1.3-.8.1c-.5 0-1.6.3-2.4.5a64.7 64.7 0 0 1-9.9.3c-.1-.2 2.7-.6 5.4-.9 1 0 1.6-.1 1.8-.2.3 0 .3-.1.4-.3v-.4.4l.1.3.3.1c.4 0 .6 0 .7-.4v-3l.1-3zm21.8.4v3.9l.3 9.4c0 5 .1 5.6.4 5.8.3.3.5 2.1.3 2.3-.2.1-13.9.2-15.9 0-1 0-1 0-1-.4 0-.8.4-1.9.6-1.9.1 0 .2-1.3.3-5.5.2-7.8.3-13.7.4-13.1l.1 4.4c.1 2.4.3 4 .4 4.1l.1 5c0 3.7 0 5 .2 5a59.6 59.6 0 0 0 9 .1l1.1.1.4.1a8.5 8.5 0 0 0 2.4-.2c.1-.1.2-1.3.2-5l.1-5c.1-.2.3-2 .4-4.7zm-43.2.4a77.6 77.6 0 0 1 .1 7c-.1 1.4-.1 1.4-.2-1.4-.2-4.5-.2-5.6 0-5.6zm71.8 0s.2.1.2.3c.1.8 0 8-.2 8l-.1-4.1v-4.2zm-18.8.1zm3 .4a10 10 0 0 1 0 3.6l-.1-1.6.1-2zm-40.2 1.1zm-18 .5.2.1v6.1l-.1-2.6v-3.6zm76.1 0v6.2-6.1zm-60 .5v1.4c0 2.1-.1 2.3-.1.4v-1.8zm44 0v1.4c0 2.1-.1 2.3-.1.4v-1.8zm2 1.3.2.8v.7h-.2c0-.1-.1-.5 0-.8v-.7zm-48 .5v1l-.1-.5v-.5zm-2.5.1c.1 0 .2.4.1 1v1l-.2-1v-1h.1zm53 0v2l-.2-1v-1h.1zm-18.7 1.1c.3 0 .3 0 .3.3 0 .2-.2.3-.3.3h-.2l-.1-.3v-.2l.3-.1zm-15.6 0h.1v.3l-.1.3h-.2l-.1-.2v-.3l.3-.1zm7.8 1c.1.3.2.5.4.6l.3.2.4.2.7.2a27.5 27.5 0 0 0 2.8.4v8.5h-9.3v-8.5a98.5 98.5 0 0 1 3-.4l.4-.1c.3-.1.6-.1 1-.6l.3-.4zm-21.4.4c2.2 0 4.3 0 4.7.2.4 0 .3.1-1.2.9a64.3 64.3 0 0 0-10.4 6.7c-.2 0-.2-.5-.3-1.7v-5.4l.6-.2c.4-.1 1-.3 1.7-.3l5-.2zm43.3 0a89.6 89.6 0 0 1 5.6.4l1 .3v7.1l-1.3-.9a84.2 84.2 0 0 0-10-6.1l-1-.5.6-.2h5.1zm-36.5 2 .2.1v2.4a50.5 50.5 0 0 1-.3 5.2c0 1.4-.1 2.1-.3 2.4-.1.2-.3.7-.3 1.1v.8h-1.2a7 7 0 0 1-1 0c-.2 0-.3 0-.4-.2l-.2-1c0-.6 0-.7.4-.8l1.3-.2.7-.1.4-.2c.1-.2.2-1.7.2-4.5a101.7 101.7 0 0 1 .2-4.6l.3-.4zm29 .1.3.2.2.3.1 4.4c0 2.4.1 4.4.2 4.5l1.4.3a6 6 0 0 1 1.4.4v1l-.1.8h-2.5v-.8c0-.5-.2-.8-.4-1-.2-.3-.3-.4-.2-.5v-.5l-.3-3.1a52.6 52.6 0 0 1-.1-6zm-47.9.2v5.6h-14l.8-.5a245.4 245.4 0 0 1 13.2-5.1zm67.1 0 2.5.9a190.8 190.8 0 0 1 11.2 4.6 102 102 0 0 1-13.8 0l-.1-2.7c0-2.2 0-2.8.2-2.8zm-43.1.1v2.6l-.2 5.4v-.8h-2.4v-3l.2-3.5v-.2l.4-.2.9-.3h1zm19 0h1.1c.3 0 .5.2 1 .4h.2v1.3l.2 4.8v.7h-2.4v-.7l-.1-5.4zm-26.5 3.6v3.7h.6a6 6 0 0 0-1.4.2c-.4 0-.8.3-1 .5a3 3 0 0 0-1 1.2c-.3.7-.3 1-.3 1.5v.9c0 1 .8 1.7 1.8 1.7l9 .2h18.4l9.1-.2c1 0 1.7-.7 1.8-1.6v-1c0-.3.1-.7-.1-1.4l-.6-.8-.5-.5-1.1-.5-1.4-.2h.6v-3.6c2.7 2 6.1 4.7 9.1 7.6l.6.6v10.6h-4c-3.8.1-7.4 1.7-10.1 4.4a15.2 15.2 0 0 0-10-4.4h-8c-2 .1-4 .6-5.7 1.5a56.5 56.5 0 0 0-10.8-2h-.1c-1.3-.2-2.9-.2-4.5-.3v-9.8l1-1c2-1.9 5.1-4.6 7.1-6.2l1.5-1zm-25.2 2.5h8l.8.1v3l-3 2.6c-2.8 2.3-6 5-9.2 8l-5.6 5a15.2 15.2 0 0 0-7.3-2.4h-8c-3 0-5.9 1-8.3 2.7a31.4 31.4 0 0 0-7.8-2.2l5.6-3a588 588 0 0 1 26.2-13l1.4-.8zm-46.7 1c2 4.2 4.2 8.1 6.7 11.9l-3 1.6-3.5 1.8h-.1v-15.3zm55.4 4.9c.2 0 .1 1.7-.1 1.8-.1 0-.2 0-.2-.3 0-.7.2-1.5.3-1.5zm67 0c.2.3.3 1.1.2 1.5l-.1.3c-.2 0-.2-.2-.2-1v-.7c0-.2 0-.2.1-.1zm53.8 2 11.8 2.6-11.2 51.4 8.2 1.7-2.4 11-8.1-1.8-3.8 17.4-13.4-2.9 3.8-17.4-33.7-7.3-4-10.9 9.7-8 23.4-19.3h-.1zm-199 8.6zm71.7.8h-.2.2zm-76 .4zm73.4.4-.4.2.4-.2zm-2.4 1-.6.3.6-.3zm-5 .4zm2.6.9-.8.4-.1.1.1-.1.8-.4zm131.9 3-36.7 30.2 28.8 6.2zM23442-287a50.5 50.5 0 0 1 7.4.7c2.3.4 4.5 1 6.4 1.6v7a29.2 29.2 0 0 0-6.3-1.8c-2.2-.4-4.5-.6-7-.6-5.8 0-10 1.5-12.4 4.6a22 22 0 0 0-3.6 13.6c0 5.5 1.3 9.7 4 12.6 2.6 2.8 6.7 4.3 12.2 4.3a33 33 0 0 0 13.2-2.3v7a39 39 0 0 1-13.9 2c-7.7 0-13.6-2.1-17.6-6.4-4-4.2-6-10-6-17.2 0-5.2.9-9.6 2.5-13.3 1.8-3.8 4.3-6.7 7.8-8.7 3.5-2 7.9-3 13.3-3zm-61.5.7 2.6.2c2.5.2 4.6.9 6.3 1.9 2.4 1.4 4.1 3.2 5.2 5.6 1.2 2.4 1.7 5 1.7 8a15 15 0 0 1-4.4 11.4 16 16 0 0 1-11.7 4.2h-12.8v15.9h-8v-47.2zm22.2 0h8v47.2h-8zm61 .1h8v25.6l16.7-21.2 3.5-4.3h7.4l-10.9 13.7-4.5 5.7 17.8 27.7h-8.5l-13.9-21.9-7.7 9.7v12.2h-8zm-96.2 6.2v18.7h11.2c3.2 0 5.6-.8 7.2-2.5a9.3 9.3 0 0 0 2.4-6.7c0-3-.7-5.4-2.3-7-1.5-1.7-3.8-2.5-6.9-2.5zm2.5 58.9h8.6c3.2 0 5.6.8 7 2.5 1.6 1.7 2.4 4.4 2.4 8.3 0 3.7-.8 6.3-2.3 8-1.5 1.7-3.8 2.5-7 2.5h-8.7zm25.7 0h14.8v2.8h-11.2v6.5h10v2.8h-10v6.5h11.2v2.7h-14.8zm22.3 0h3.7v18.6h10.9v2.7h-14.6zm29.1 0h4l8.2 21.3h-3.8l-2-5.5h-8.7l-2 5.5h-3.8zm16 0h3.6l3.6 16 4-13.4v-2.6h3l4.6 16 3.6-16h3.6l-5 21.3h-3.5l-4.3-14.9-4.5 15h-3.7zm38 0h4l8.2 21.3h-3.8l-2-5.5h-8.7l-2 5.5h-3.8zm19.9 0h9.8c2.4 0 4 .6 5.2 1.9a7.1 7.1 0 0 1 1.6 5c0 1.4-.3 2.7-1.1 3.8-.7 1-1.8 1.8-3.2 2.2.4.3.7.6.9 1l.6 1.2 2.7 6.2h-3.7l-2.6-6c-.2-.5-.5-.9-.9-1.1-.3-.3-.9-.4-1.7-.4h-4v7.5h-3.6zm24.3 0h15v2.8h-11.4v6.5h10v2.8h-10v6.5h11.3v2.7h-14.9zm-171.7 2.8v15.8h4.5c1.4 0 2.5-.2 3.5-.6.9-.5 1.6-1.2 2-2.4.5-1 .8-2.7.8-4.8 0-2-.3-3.7-.7-4.9-.4-1.1-1-2-2-2.4a8 8 0 0 0-3.6-.7zm151 0v8h5.2c1.3 0 2.3-.2 3-.9.8-.6 1.2-1.7 1.2-3 0-2.7-1.3-4-3.9-4zm-75.5.5-3.7 9.8h7.4zm54 0-3.7 9.8h7.4z" style="-inkscape-font-specification:Kanit;fill:url(#b);fill-opacity:1;stroke-width:.671037;stroke-linecap:round;stroke-linejoin:round;paint-order:stroke fill markers" transform="translate(-23344.3 484)"/></svg>