<svg xmlns="http://www.w3.org/2000/svg" xmlns:xlink="http://www.w3.org/1999/xlink" xml:space="preserve" width="944.9" height="1159" viewBox="0 0 250 306.6"><defs><linearGradient id="a"><stop offset="0" style="stop-color:#ff0046;stop-opacity:1"/><stop offset="1" style="stop-color:#ff861b;stop-opacity:1"/></linearGradient><linearGradient xlink:href="#a" id="b" x1="23356.3" x2="23574.4" y1="162.8" y2="-98.6" gradientUnits="userSpaceOnUse"/></defs><path d="M23469.3-130a126.3 126.3 0 0 0-79.5 28.5 125 125 0 0 0-17 16.9 124 124 0 0 0-28.5 79.6v19.2l.2 6.5a123.8 123.8 0 0 0 3.8 24.8 124 124 0 0 0 2.9 9.6c-4.1 2.7-6.8 7.4-6.8 12.7v47.1c0 4 1.5 7.7 4.1 10.4 2 2 10.3 10.8 13.1 12.8 2.5 1.8 5.5 2.8 8.7 2.8h7.4v13.4a13 13 0 0 0 3.9 9.2c1.5 1.5 7.6 7.7 9.4 9.3 2.3 2.2 5.3 3.5 8.7 3.5h149c9.1 0 15.3-9 12.1-17.5l-2.5-6.8h.4a15.2 15.2 0 0 0 18-11.6l1-4.3c5.5-1.5 9.7-5.8 11-11.4l2.4-10.8c1.2-5.7-.9-11.5-5.3-15l8.2-38.2c1.1-5.2-.6-10.4-4.2-14l.2.2.4-1.4 1.4-6a127.6 127.6 0 0 0 2.5-25.2V-5a124.7 124.7 0 0 0-28.5-79.6 126.6 126.6 0 0 0-53.4-37.8 124.3 124.3 0 0 0-43-7.6zm0 7.2a117.3 117.3 0 0 1 87.3 38.6 117.4 117.4 0 0 1 30.3 86.5l-.1 2-.6 5.4-.2 2a117 117 0 0 1-2.9 14l-.5 1.7-1.6 5.3-.6 1.6-.8 2.2c-2.1-2.3-4.9-4-8-4.6l-10.2-2.2a97.9 97.9 0 0 0 0-69.8l-2.9-.1h-1.3a94.4 94.4 0 0 1 .4 69.2 15.2 15.2 0 0 0-10.7 3.5l-11.4 9.5c-1.7.1-3.4.4-5.2.7l.4 3.2-2.2 1.9c0-1.5-.2-2.9-.8-6.2-1-6.7-2.5-13.2-3.1-14l-.4-.2-1.4.2a431.2 431.2 0 0 1-14.4 2.2c-.1.2 0 2.1.3 4.5.6 4.1 1 7.2 1.2 11.3.5 5.6.7 6.3 1.5 6.6 1.3.2 8.3-.2 12.8-.8l-1.1 1c-3 .3-6 .5-9 .5h-3.4l-.1.4-.2 4.2a15.2 15.2 0 0 0-4-3l1.5-.5v-.5.2V53l.1-.4.2-.8c0-.2-.2-.3-.3-.5l-.2-1.6-.7.2-7.2 2.7H23492c-3.8 0-7.5 1.7-10.2 4.4a15.2 15.2 0 0 0-10-4.5h-8c-2 .1-4.1.7-6 1.6l-5.5-1.4a49.3 49.3 0 0 0-9.4-1h-.8c-3.5 0-6.9.4-10.2 1.1-10.6-2.5-21-5-29.9-5-3.4 0-7 .3-10.7.7A94.6 94.6 0 0 1 23509-91l1.7-.6a65.5 65.5 0 0 1 3.6-1l-.3.1h.5A98.5 98.5 0 0 0 23390.7 54a29.1 29.1 0 0 0-6.4-1.4l-3.7-.2h-14a117.5 117.5 0 0 1 15.5-136.8 118.2 118.2 0 0 1 87.2-38.5zm60.4 31.2c-1.1 0-1.4.2-3.5 1.6l-2 1.2 1-1c.8-.8 1-1 1-1.3 0-.4 0-.4-1.6-.3a55.4 55.4 0 0 0-6.8.8 50 50 0 0 0-2.9 6.3v-3c0-1.5-.1-2.7-.2-2.7-.2-.2-6 1.6-7.7 2.3-.8.4-.8.2.8 3.8l1.1 2.8-1.9-2.6a48 48 0 0 0-2-2.9 52.3 52.3 0 0 0-8.6 5c-.1.3.8 1 3.4 2.6 2.2 1.3 3.1 2 2.4 1.7a172.5 172.5 0 0 0-8.1-2.2 38.2 38.2 0 0 0-7.2 8.8c0 .4.6.4 3.2 0 4.5-.7 5-.7 2.6-.1-4 1-7 2.2-7.3 2.7-.3 1-1.2 6.3-1.4 9-.1.8 0 .9.1 1 .4 0 .8-.2 2.3-1.4 1.5-1.4 4.4-3.7 5-4a67.7 67.7 0 0 0-7.2 8.4l-.9 1.2-2.7-2.2a95.2 95.2 0 0 0-4.3-3.3l-1.7-1.1-2.1 1.4a175.3 175.3 0 0 0-4.7 3.1l2.1-2.3 2.4-2.6c0-.2 0-.3-.2-.3-1-.4-6-1.2-8-1.4h-1.5l-1.7 3.8-1.7 4c-.2.2-.2-.3.4-3.9l.5-3.6c0-.4 0-.4-1.6-.3-1.7.1-6 .6-6.8.8-.4.1-.4.2-.4.8l.6 2.9.4 2.3-.3-.5a74 74 0 0 0-2.1-4.8c-.2-.2-.3-.2-1.3 0-2 .6-6.4 2-6.5 2.3 0 .3.5 1.1 2 2.7l1.3 1.6-.3-.1a357 357 0 0 1-5.4-3l-.4-.3-3.4 1.7-3.6 1.9c-.3.2 0 .8.6 1l1.2.2c.6 0 .3.1-1.8.2h-2.5l-1.4 1a84.9 84.9 0 0 0-6.3 4.6l-1.8 1.5.2.4c.2.4.3.4 1.2.5l5.4.2h4.5l1.4-.7c1.5-1 1.9-1 1-.4-.5.5-.6.6-.2 1 .3.3.5.3 3.4.3l3.6-.1c.3-.1 1-.8 2.5-2.3l2.2-2.1-.8 1.7c-.7 1.2-1 1.7-1 2.1v.6l3.8.1h3.8l.7-2.8.8-2.6-.1 2.3-.2 2.7v.6l1.7.1 6.3.6c.3 0 .3 0 .3-.5l-.6-3.1-.5-2.7 1.8 3.5 1 2.1-.5 1c-.7 1.4-1.8 4.5-2.7 7.4-.7 2.5-.9 3-.7 2l1-8.4c0-.2-.2-.4-.3-.4a57.1 57.1 0 0 0-11 7.4 119.1 119.1 0 0 0 3.6 10.2 182.1 182.1 0 0 1-6.2-8 86.3 86.3 0 0 0-7.4 9c0 .2 1 .9 3.4 2.1l2.5 1.4-3.3-1-3.4-1c-.3 0-2.5 4.6-3.9 7.7l-.7 1.6.4.3c.4.3.5.3 3.5 0l2.8-.1c.7 0 1-.2-3.1 1.5l-4 1.6-.7.4-.6 2.7a72 72 0 0 0-1.1 6c-.1.7-.1.7.2.9.5.2.5.1 2.2-1.4 1.1-1 1.5-1.2.7-.3l-2 2.6-1.7 2 .1 4.8c.1 6.9.5 9.2 1.4 9 .3 0 1.4-1.4 5.4-6.3l3.3-4 .4-3c.3-2.5.4-2.8.5-2.3v1.7c0 1 .1 1 .5 1.1.4.2.5.2 1.8-1.4l2.7-3.3 1.5-1.6-.3-1.3c-.4-1.6-1.1-5.8-1.1-6.3a52.7 52.7 0 0 0 2.5 4.3c.7 1.2.6 1.3 3.8-2l3-3a79.6 79.6 0 0 0-4.8-6c-.3-.6.3 0 3.8 3.3l2 1.8a57 57 0 0 1 6.7-5.3c.2-.3-1.2-1.4-3.7-3l-2.5-1.7c0-.1 6 2.3 7.6 3.1l.7.4 1.8-1.1 1.9-1a43.7 43.7 0 0 0-1 4.7l2.9 2.1a56 56 0 0 1 3 2.2c0 .1-.5 0-1.3-.3a25 25 0 0 0-4.9-1.6c-.1.1 0 5 .1 6.9l.1 1.2 3.3.1 3.2.1a192 192 0 0 1-6 1.2c-.3.2 1.5 6.8 1.8 7.2l2.2-1.2 2-1.1-1.5 2.5-1.6 2.4 1.5 3 1.8 3.2.2.3.4-.3c.2-.3.4-.6.4-1.1.1-.7.1-.7.2-.3l.1 2v1.7l1.3 1.9c1.6 2.2 3 3.9 4.5 5.7a7 7 0 0 0 1.3 1.3c.2 0 .3-.1.5-.3.2-.3.2-1 .1-4.4v-4l-.4-.7-.4-.7.4-.3.3-.2v-3l-.2-2.9-1.4-1.5c-.8-.9-1.5-1.7-1.5-1.9-.2-.2-.2-.2 0 0l2.3 1.4.4-.2c.2-.2.3-.6.3-2.2V-.4l.2-1.2-1.7-.9c-1-.4-1.6-.8-1.5-.8l1.5.4c1.7.5 1.7.5 1.8-.7a55.7 55.7 0 0 1 1-6.4c0-.1-1.5-.2-3.3-.1-1.7 0-3.1 0-3-.1l3.5-1 3.4-.9.6-1.7c.3-1 1-2.7 1.7-3.9 1-2 1-2.1.7-2.4-.2-.2-.3-.2-1.3.2l-1 .4 1.7-1 1.8-.9.6-1.3.5-1.4.8 1.6 1 1.8c.3.3.4.3.9 0 1.6-1.1 8.2-3 10.3-3 1.2 0 1.2.2 0 .3-2.7.3-9.3 2.2-10.4 3.1-.3.3-.4.4-.3.8l.9 2.3 2.2 5.2c1.4 3.4 2 4.7 2.3 4.9.1 0 .4 0 .7-.2 1.8-.9 8.5-2.6 11.1-2.8l1-.1v-.6l-.7-2c-1.3-2.8-4.8-9.6-5.2-10.1l-.4-.5 1.2-.8 4.1-2.5-1 1c-2 1.4-2.6 2-2.6 2.4 0 .2 0 .3.4.4 1.1.2 3.7 1 5 1.5l1.6.6.6-.6 2-1.7c1.6-1.6 3.5-3.2 3.6-3.1 0 0-.6 1-1.5 2a34 34 0 0 0-2.9 4.1l1.7.9 2.8 1.6 1.3.8.3-.5 1.1-1.7c.4-.7.7-1.3.8-1.2l-.7 1.9-.7 2 1.2 1a58 58 0 0 1 2.4 2c.7.6 1 .8 1.3.8.5-.2.6-.5 1-2a5 5 0 0 1 .4-1.4v2.5l-.1 2.5 1.4 1.5 2 2.3c.4.5.6.6 1 .6s.5 0 .6.8l.5 1.1c1 1.6 4.2 5.8 4.6 6.2.5.6 1 .6 1.1.2a45.7 45.7 0 0 0-.2-11.2l-1.1-1.6-.8-1.2.4.3c.3.3 1 .4 1.2.2.1-.3-1.5-6.6-1.9-7.2a21 21 0 0 0-5-1.8l-.8-.3s.4-.2.9-.2l3.5-.5c.3 0 .2-.5-.7-2.1-1.1-1.9-3.2-5-3.4-5a35 35 0 0 0-5 3.2s.8-1 2-2.1l2.2-2.2-1-1c-1.1-1.5-4.1-4.1-5.5-5-.4-.3-.4-.3-.6 0l-.6 1.6-.8 2.7-.4 1.3-.1-3.6v-3.5l-.5-.3-1-.6-.5-.4c.1-.2 1.4-.5 5.2-1.3l3-.8c.1-.1.5-1.4.8-3 1.2-4.8 1.7-6.7 1.8-6.6.1 0 .2 2.1.2 4.7l.1 4.6.8-.1c.7-.2 4.8-.7 7-.9 1.3-.1 1.6-.2 1.8-.4l.2-.6a28.7 28.7 0 0 0-.9-3.5l1 2c.7 1.3 1.1 2 1.3 2.1h1.8l3.5-.1c2.6 0 3.1-.1 3.4-.6l.2-.6-1.1-1.6-1.1-1.5 3.1 2.6 1.6 1.3a135.8 135.8 0 0 1 6 .3l2 .1.3-.4.4-.5.8.5.8.5 4.2.3 5.4.3c1.1 0 1.2 0 1.5-.4l.3-.6a62.3 62.3 0 0 0-9.8-7.8c-1.8-1.2-1.8-1.2-3-1.3-2.3-.2-2.6-.2-2.3-.4.2 0 .4-.3.6-.6.3-.4.3-.4 0-.6-.3-.3-7.4-3.8-8-4-.4-.1-.6 0-1.9.6a76.2 76.2 0 0 0-5 2.7l2.5-3.4c.3-.4.7-1.3.5-1.4-.2-.2-8.6-2.5-9.2-2.5-.3 0-.3 0-1.2 4l-.7 2.8v-7.1l-.4-.2c-1-.2-9.9-.9-10.4-.7-.4.2-.1 1.2 1 4l1 2.7-1.7-2.2-2.6-3.4-1-1h-.7a131.5 131.5 0 0 0-11.1 2c0 .6.3 1 2.1 2l2 1.4-1-.4a134.5 134.5 0 0 0-6-2.3h-.5a37 37 0 0 1 3.6-5.4l-1.2-2.2a82.2 82.2 0 0 1-3.3-6c0-.3.5.3 3 3.1l2.6 3.2c.2.3.3.2 2.9-2.4l2.6-2.8s-.6-.8-1.4-1.5c-1.5-1.5-1.5-1.5.4-.2 2 1.4 1.7 1.4 3.2 0l2.7-2.1c1.9-1.5 1.9-1.6-.7-2.9-1.1-.5-1.9-1-1.7-1l4.2 1 1.5.4.6-.5a210.9 210.9 0 0 1 4.5-3.3c.6-.5.5-1 0-1.1-.4-.1-.3-.1.3-.1 1.5 0 1.8-.2 4-1.7 3-2 5.3-3.7 5.5-4 .2-.3.2-1 0-1l-1.7-.2a73 73 0 0 0-8-.8l-1.6-.1zm2.8 11-.7.6-1.5 1-1 .8a95.2 95.2 0 0 1 15 15.3 151.5 151.5 0 0 1 4.5 1.3l.3.2.7.4c.3.4.4.7.5 1.1l.2-.1h.5a99 99 0 0 0-18.5-20.5zM23503-66l.7 1.3 1.5 3.5c1 2.2 1 2.3.8 2.5-.4.3-.4.2-.7-.2a42.5 42.5 0 0 1-2.3-7.1zm-4.7 6a63 63 0 0 1 1.3 6.4l.4 1c0 .2 0 .3-.6.3h-.6l-.2-1.6c-.2-1.4-.4-6.8-.3-6zm4.5 6.9c.5 0 3.3.4 3.6.6l-2 .1-2.4-.1c0-.2.5-.6.8-.6zm15.9 8.9-.9 1.8c-.6 1.2-1.1 2.3-1.3 2.4-.2.3-.4.4-.5 0a21.5 21.5 0 0 1 2.7-4.2zm-46.2 2.4.3.4c.3.4.4.5.2.6a200.8 200.8 0 0 1-4.8 3.9l-.4.3.3-.4 3.5-4zm30.6 12.2-.3.3c-.8.4-1.1.5-1.1.2l.6-.3.8-.2zm-111 2a1.5 1.5 0 1 0-.2 3c1.9 0 5.7 1.7 9 4s6.3 5.2 7.2 7.2v.1a1.6 1.6 0 0 0 .7.6v.1h.4l.3.1h.4l.2-.1c.2 0 .3-.2.5-.4l.2-.4c.9-2 3.9-5 7.2-7.2 3.4-2.3 7.2-4 9-4a1.5 1.5 0 1 0-.3-3c-3 .2-6.8 2-10.4 4.5a29 29 0 0 0-6.8 6.2 28.9 28.9 0 0 0-7-6.2 24.4 24.4 0 0 0-10.3-4.6zm96.6.8-.3.2h-.3l.3-.1.3-.1zm-16 4.7a21.3 21.3 0 0 1 1.4 3.2c-.2 0-2-2.6-2-2.9 0-.2.5-.5.6-.3zm37.6 12.5c-1.8 0-9.3 1.8-11.7 2.8l-.7.3.1.6 1.1 3.4a494.2 494.2 0 0 1 4 11.3l.5.5 2.4-.6c2.5-.6 8.6-1.8 10.5-2l1.1-.3v-.5a97.5 97.5 0 0 0-6.1-14.9c-.4-.6-.5-.6-1.2-.6zm7.7 16.6-.9.1c-1.8.2-9.5 1.8-12.3 2.5l-1.1.3v.6l.3 2 1.2 4.4 1.5 6.6c1 4 1.1 4.7 1.5 5.3l.6.3c.5 0 7.9-1 11.7-1.7 3.6-.6 3.7-.6 3.7-1.5 0-2-4.4-15.9-5.8-18.2zm-104.5 6.7a14 14 0 0 0-6.2 2.8c-1.4.9-2.6 1.9-3.6 3-1-1.1-2.2-2.1-3.6-3a14 14 0 0 0-6.2-2.8 1.5 1.5 0 0 0-.3 3c.8 0 3 1 4.8 2.2a12.7 12.7 0 0 1 4 4l.1.2.1.1a.9.9 0 0 0 .4.3h.1a1.4 1.4 0 0 0 .2.1h.8a1.6 1.6 0 0 0 .2 0l.3-.2a1.5 1.5 0 0 0 .5-.6c.4-.9 2-2.6 3.9-3.9 1.8-1.2 4-2.1 4.8-2.2a1.5 1.5 0 0 0-.3-3zm31.4 10.7a1.5 1.5 0 1 0-.3 3c1 0 3.4 1.1 5.5 2.5a14.3 14.3 0 0 1 4.6 4.6l.1.2.1.1.2.2h.1a1.6 1.6 0 0 0 .2.2h1.2l.3-.2.2-.3.3-.3c.4-1.1 2.3-3 4.4-4.5a16 16 0 0 1 5.5-2.5 1.5 1.5 0 1 0-.2-3c-2.2.2-4.6 1.4-7 3-1.5 1.1-3 2.3-4.1 3.6a20.4 20.4 0 0 0-4.2-3.5 15.9 15.9 0 0 0-7-3.1zm111.7 20 11.8 2.5-11.1 51.3 8.1 1.8-2.3 10.9-8.2-1.8-3.8 17.5-13.3-3 3.7-17.4-33.7-7.3-4-10.8 9.7-8 23.4-19.3h-.1zm30 0 .6.4-.7-.4zm-184.6 7.6c2.5 0 5.2.3 8 .6h-7.2c-2.5.1-4.9.8-7 2l-1.8-2.2a96 96 0 0 1 8-.4zm13 1.5c3 .5 6.2 1.2 9.5 2a34 34 0 0 0-3.3 1.6l-.2.1c-1.7-1.7-3.8-3-6-3.7zm138.8 6.3-36.7 30.1 28.8 6.3zM23442 67a50.5 50.5 0 0 1 7.4.6c2.3.4 4.5 1 6.4 1.7v7a29.2 29.2 0 0 0-6.3-1.8c-2.2-.5-4.5-.7-7-.7-5.8 0-10 1.6-12.4 4.7a22 22 0 0 0-3.6 13.5c0 5.6 1.3 9.8 4 12.6 2.6 2.9 6.7 4.3 12.2 4.3a33 33 0 0 0 13.2-2.3v7a39 39 0 0 1-13.9 2c-7.7 0-13.6-2.1-17.6-6.3-4-4.3-6-10-6-17.3 0-5.1.9-9.6 2.5-13.3 1.8-3.8 4.3-6.6 7.8-8.6s8-3.1 13.3-3.1zm-61.5.7 2.6.1c2.5.3 4.6.9 6.3 2 2.4 1.3 4.1 3.2 5.2 5.6 1.2 2.3 1.7 5 1.7 8a15 15 0 0 1-4.4 11.3 16 16 0 0 1-11.7 4.3h-12.8v15.8h-8V67.8zm22.2 0h8v47.1h-8zm61 0h8v25.7l16.7-21.3 3.5-4.3h7.4l-10.9 13.7-4.5 5.8 17.8 27.7h-8.5l-13.9-22-7.7 9.8V115h-8zm-96.2 6.2v18.8h11.3c3.1 0 5.5-.9 7.1-2.5a9.3 9.3 0 0 0 2.5-6.8c0-3-.8-5.3-2.4-7-1.5-1.7-3.8-2.5-6.9-2.5zm74.5 58.6c3.4 0 6 .9 7.6 2.6 1.7 1.8 2.5 4.6 2.5 8.5 0 3.7-.8 6.5-2.5 8.3-1.7 1.7-4.2 2.6-7.6 2.6-3.4 0-6-.9-7.6-2.6-1.7-1.8-2.5-4.6-2.5-8.3 0-4 .8-6.7 2.5-8.5 1.7-1.7 4.2-2.6 7.6-2.6zm-51.5.3h14.5v2.9h-11v6.4h9.8v2.8h-9.7v9.3h-3.6zm21.5 0h3.6v18.6h11v2.8h-14.6zm47.8 0h9.8c2.4 0 4.1.7 5.2 1.9a7.1 7.1 0 0 1 1.6 5c0 1.5-.3 2.8-1 3.8-.8 1-2 1.8-3.3 2.2.4.3.7.6.9 1l.7 1.3 2.6 6.2h-3.7l-2.6-6c-.2-.6-.5-1-.9-1.2-.3-.2-.9-.4-1.7-.4h-4v7.6h-3.6zm24.3 0h3.6v21.4h-3.6zm12 0h8.6c3.2 0 5.5.9 7 2.6 1.6 1.6 2.3 4.4 2.3 8.2 0 3.7-.7 6.4-2.2 8-1.5 1.8-3.9 2.6-7 2.6h-8.7zm31.3 0h4l8.2 21.4h-3.7l-2.2-5.5h-8.6l-2 5.5h-3.8zm-85.4 2.8c-2.2 0-3.9.6-5 1.8-1 1.2-1.5 3.2-1.5 6.2 0 2.8.5 4.8 1.6 6 1 1.3 2.7 1.9 4.9 1.9s3.9-.6 4.9-1.9c1-1.2 1.6-3.2 1.6-6 0-3-.5-5-1.6-6.2-1-1.2-2.7-1.8-5-1.8zm21.4 0v8.1h5.2c1.3 0 2.3-.3 3.1-1 .7-.6 1.1-1.6 1.1-3 0-2.7-1.3-4-3.9-4zm36.3 0v15.8h4.5c1.4 0 2.5-.2 3.4-.6 1-.4 1.7-1.2 2.1-2.3.5-1.1.7-2.8.7-4.9 0-2-.2-3.7-.6-4.8-.4-1.2-1.1-2-2-2.4a8 8 0 0 0-3.6-.7zm29.7.5-3.7 9.8h7.4z" style="fill:url(#b);fill-opacity:1;stroke-width:.404028" transform="translate(-23344.3 130)"/></svg>