<svg xmlns="http://www.w3.org/2000/svg" xmlns:xlink="http://www.w3.org/1999/xlink" xml:space="preserve" width="944.9" height="1159" viewBox="0 0 250 306.6"><defs><linearGradient id="a"><stop offset="0" style="stop-color:#3c1763;stop-opacity:1"/><stop offset="1" style="stop-color:#6d14cb;stop-opacity:1"/></linearGradient><linearGradient xlink:href="#a" id="b" x1="24442.8" x2="24638.9" y1="-916.2" y2="-1168.6" gradientUnits="userSpaceOnUse"/></defs><path d="M24546.1-1205c-69.2 0-125 55.8-125 125v19.2c0 14.4 2.5 28.2 6.9 41a15.2 15.2 0 0 0-6.8 12.6v47.2c0 4.2 1.7 8 4.6 10.8 1.8 1.8 9.7 10.2 12.4 12.2 2.5 1.8 5.6 2.9 9 3h8l.2-.1v13.4c0 3.6 1.5 7 4 9.3 1.6 1.4 8.4 8.8 11 10.5 2 1.4 4.4 2.2 7 2.2l138.9.3a22 22 0 0 0 14.1-4.2h.1a20 20 0 0 0 7-14.7c0-1.8-.2-3.7-.8-5.5 7.8 1 15.1-4.1 16.9-11.8l1-4.3c5.4-1.5 9.6-5.8 11-11.4l2.3-10.9c1.2-5.6-.9-11.4-5.3-15l8.2-38c1-5-.4-10.2-4-13.9 2.8-10.4 4.3-21.3 4.3-32.7v-19.2c0-69.2-55.7-125-125-125zm0 7.2a117.8 117.8 0 0 1 114.4 146.4 8 8 0 0 0-1.6-2.5l-.7-.8v-.9c0-.9-.2-1.8-.8-3.5-1.5-4.8-2.8-6.7-5.9-8.7-1.6-1-4-2-6.5-2.8h.5c2.6.2 4.3.2 5.5.1.6 0 1-.2 1.4-.4.4-.2.7-.5.9-.9.3-.7.3-1.6-.2-2.7a35 35 0 0 0-3.2-4.7c-2.2-3-3.6-4.4-5.4-5.5a98.5 98.5 0 0 0-58.6-85.4c.5-1 .7-2 .4-2.8-.3-1-1.1-1.8-2.4-2.6-1.5-1-5.7-3.1-7.4-3.7-2.5-.8-5.3-.5-7.9.8l-.3.2-.5-.4-1-.8c-1.1-.5-3-.9-6.4-1.4-3.4-.5-6-.6-7.4-.3a9.7 9.7 0 0 0-4.5 2.6l-.1-1.7c0-.4-.2-.8-.3-1-.6-1.2-1.4-2-2.5-2.4a9 9 0 0 0-4-.5c-2.2.1-7.5.8-9.2 1.2a8.8 8.8 0 0 0-4.3 2.2c-1 1-1.6 2.4-1.7 4v.2c-1.7-1-4-1-6.4-.4-2 .6-6.9 2.6-8.7 3.5a8 8 0 0 0-3.1 2.5l-1 .4c-1.8-.5-3.6-.8-5.1-.4-1.7.4-3.7 1.5-6.5 3.6-1.7 1.2-3 2.3-4 3.3-.9.9-1.5 1.6-1.7 2.4-.2.4-.2.7-.2 1a98.4 98.4 0 0 0-41.6 72.3c-1 1-2.2 2.4-3.6 4.3a21 21 0 0 0-3.5 6 4 4 0 0 0-.1 2c.1.5.5 1 1 1.5s1 1 1.9 1.2l2.4.6c-1.6.4-3 .8-4.2 1.5-1.5.8-3 2.5-3.9 4.1a37.8 37.8 0 0 0-3 9.4c0 .9 0 1.4.4 2l.1.3-.5.5a8.8 8.8 0 0 0-3 4.7 118.1 118.1 0 0 1 114-147.6zm-4.4 14.3c3.1-.1 4.8.6 5.8 2.5.3.5.3 1 .3 2.5 0 1.8 0 1.9.3 1.6 1-1.7 3-3 5-3.6 1.2-.3 3.8-.1 7.2.4 3.5.5 5.3.8 6.2 1.3.6.4 1.3 1 1.4 1.3.1.1.4 0 1-.3 2.5-1.3 5-1.5 7.4-.7 1.5.4 5.9 2.6 7.3 3.5 2.4 1.6 2.8 2.9 1.5 5-.6 1-1.7 2-5.8 5-3.4 2.7-4.2 3.3-3.1 2.7 3-1.9 8.1-3.8 10.9-4.1 3.1-.4 5 .3 7.2 2.5 1.6 1.7 3.4 4 3.9 5.2.5 1 .6 2.3.1 3-.2.4-.2.6.2.6l1 .4c2.4 1.1 3 2.3 3.8 6.6.7 4.7.1 6.5-2.6 7.8-2.2 1-4 1.3-12 1.9l-5.2.3 1.9.2c6.2.3 10.9 1.2 13.6 2.5 2.7 1.3 3.7 3 3.2 5.4a30 30 0 0 1-3.5 8.4 7.1 7.1 0 0 1-5.4 2.7c-1 0-1.4.1-1.3.3.4 1.1.4 2.2 0 3.3-.3.8-.3.8.3 1 .7 0 6.3 2 7.9 2.6 1.5.6 3 1.5 4 2.3.8.8 1.8 2.4 2 3 0 .5.3.6.3.2a9 9 0 0 1 1-2.4c1-1.6 3.2-1.6 6.3 0 1.3.6 6 3.4 7.4 4.3 3.5 2.3 4.4 4.3 3.2 6.8l-.4 1h.8c2.4 0 4.2 1 8.9 5.2 2.8 2.5 4 3.7 4.7 4.7.4.7.5.8 1 .8l1.2.2v.2l-.8-.2-1-.1-.8-1c-.6-1-2.8-3.1-6-5.9-3.4-2.8-4.8-3.5-7-3.6-.8 0-1.4-.2-1.3-.2.8-1.6 1-2.3 1-3l-.2-1.4c-.4-.8-1.8-2.3-3.1-3.2-1.6-1-6.6-4-8.2-4.7-2.5-1.2-4-1.3-5.1-.2-.6.6-1.3 2-1.5 3 0 .6 0 .6.8 1.2l2.7 1.5c2.6 1.4 4.5 2.4 7.4 4.3l5.2 3.2a52 52 0 0 1-3 4.3c-3.1 3.5-5.7 6.7-11 13.5a339.7 339.7 0 0 1-11.7 14.3l-.5.3-.1.1c0 .1 0 .3-.3.3l-.4.2-.2.2h-.3l-1 .8c-.5.7-.7.8-.9.6-.1-.1-.1 0 0 .1 0 .3 0 .3-.4.2-.6-.1-1-.5-.7-.7l-.2-.2c-.4-.2-.5-1.2-.1-1.9l.4-1.6.2-.8.2-.3c0-.1 0-.1-.2 0v-.6c0-.4 0-.9.2-1v-.3c-.2-.2.1-1 3.5-8.8a145.5 145.5 0 0 0 9.7-26.1l.5-1.8-.3-1c-.6-2-2.3-3.9-4.6-5-2-1-9-3.4-9.8-3.4-.3 0-.3-.2 0-.8.3-.7.5-2 .3-2.6-.1-.7-.7-1.8-.9-2l-.1.6a6 6 0 0 1-.4 1.7l-.5 1.1a3.5 3.5 0 0 1-.8 1.5v.2c0 .1 0 .1-.2 0 0 0-.1 0 0 .1 0 .1-.5.8-1.3 1.6a20.3 20.3 0 0 0-1.6 1.7l-.4.3c-.1.2-.3.3-.4.3l-.7.4a23.8 23.8 0 0 1-9 3.5 5 5 0 0 1-1.4.2h-.3c0 .2 2.1 1 3.3 1.1.8.2.8.2 1.6 1.5 1 1.6 2.1 3.8 2.7 5.8 1.2 3.6 1.9 7.4 2.2 13.1a133 133 0 0 1-.3 15v1.5l-.4-.6c-.3-.7-1.8-2.2-2.1-2.2l-1.2-.4c-.5-.2-1.2-.4-1.7-.4-.8 0-.8 0-.6.4v.5l-1-.4a10 10 0 0 0-4.8-.4c-3.2.5-6 1.3-8 2.2l-1 .5h3.7c7-.6 9.9-.4 11.6.5 1.2.6 2.5 1.9 3.2 3 .6 1 2 2.6 2.9 3.3l.8.6.5-.6c1.2-1.3 2.6-2.1 3-1.7l.3.2.4-1.2.4-1.6c0-.1 0-.2-.2-.3h-.2c0 .3-.1.7-.3.6 0 0-.1 0 0 0 0 .2-.1.4-1 1.1-.4.3-.5.3-.5.2 0-.3-.5-1.2-.5-1h-.1v-.8c-.2.1-.6-.6-.4-.8l-.1-.3c-.1 0-.2-.2 0-.2l-.2-.2c0-.1-.1-.2 0-.2l-.1-.5-.3-2c0-.9-.2-1.7-.4-2-.2-.5-.2-.9 0-4.7.4-9-.3-16.8-1.7-21.2a25.6 25.6 0 0 0-3.4-6.3l.5-.1c1.5-.2 3.5-1.5 6.5-4.3 2.8-2.6 2.4-2.4 3.4-2.1l1 .2c.4 0 1 1.2 2 3.5.7 1.7.7 1.7 1.4 1.9.3 0 .7.3.7.4.1.1.2.1.2 0s.5 0 1.5.4a137.2 137.2 0 0 1 6.7 2.8c.4.1.5.2.5.5l-.4 2a64.2 64.2 0 0 1-3.7 12 437 437 0 0 1-8.2 19.4l-2.6 6c0 .3 2.3 2.6 3.3 3.4.6.5 1 .6 1.2.6.3 0 .4-.2.4-.2-.1 0 .7-1.3 1.1-1.7l2.2-2.7a1652.5 1652.5 0 0 1 21.3-26.4l2.3-2.5.6.6.7.7h.1a11.6 11.6 0 0 1 2.7 2.3c.1 0 .3 0 .5.2l.6.5 2 1.8a12 12 0 0 0 1.7 1.5l.7-.2c.8-.2 3.3-.6 4-.6.2 0 .5 0 .6.2l.6.7a74.3 74.3 0 0 1 10 13c.4.3 4 .5 5 .3 1.5-.5 1.8-1.3 1.1-2.8-.6-1.3-4-6-5.6-7.8a12.2 12.2 0 0 0-2.2-1.8v-.3c1.6 1 2.8 2.4 4.9 5.2 3.3 4.4 3.8 5.6 3.3 6.7-.5 1-2 1.2-7.2.8l-5.3-.2h-1.9l1.7.3c4.5.8 8.6 2.3 11.2 4 3 1.9 4.1 3.6 5.6 8.2l.8 3.4v1.1l.8 1c1.6 1.7 2.1 3.3 1.8 5.3-.4 2.9-1 4.8-1.8 5.4-.6.4-1.7.5-2.8.2a32 32 0 0 1-8.6-4.8c-11.6-7.4-16.7-9.3-24.8-9-2.2.1-7.1.7-7 .9l2-.1 4-.3c4.7-.2 9.8.8 13.8 2.6 4.3 2 10.1 6.5 14 10.4l-.6-.2-11.8-2.5a15.2 15.2 0 0 0-12.9 3.1l-3 2.4-1.2-2a38.7 38.7 0 0 0-5.9-9c0-.2-.5-.2-1-.2h-1.4c-.3.1-.2.2.6.6 2.3 1 4.5 3.2 5.8 5.8.9 1.7 1.6 3.7 2.2 5.6l-.1.2-.9-2.5c-2-5.2-4.1-7.8-7.5-9.1l-1.4-.6h.6l1.7-.2 1-.1c0-.1-1.3-.2-3.3-.2h-3.3l1.1-.3c.9-.3 1.4-.3 2.9-.3 1.7.1 1.8.1 1.6-.2l-1.9-1h-.5l.6-.2a39 39 0 0 1 9.9-.4c5.5.3 6.8.4 9.2 1 3.5.9 6.4 2.2 11.7 5.4a177 177 0 0 1 6.4 4c-.5-.8-3.5-3.4-6-5.2-6.8-5-12-6.7-19.9-6.7-3.8 0-6.8.4-10.1 1.2l-2.9.5-2-.2-2.7-.1-.6-.1.2 1.5v1.5l2 .3a11.4 11.4 0 0 1 7.2 3.4 54 54 0 0 1 5.9 9.4l-9.5 7.8c-3.7-1.2-5.6-2.2-7-3.8a11 11 0 0 1-2.7-5.4c0-.6-.1-.7-.3-.6-1.8.8-3.6.5-6.6-1a84 84 0 0 1-8.4-4.8l-.1-.1-1.1-1-.3-.1-.7-.8c-1.4-1.5-2.2-3-2.2-4s-.2-1-1.3-.5c-1.4.6-2.6.9-4.3.8a8 8 0 0 1-4.4-1.6 45.8 45.8 0 0 1-9.5-9.7c-2.2-3.7.5-6.5 7.7-8.3l2-.5h-4.3c-4 0-4.4 0-5.6-.3-3.7-1-5.4-2.7-8-7.5l-1.3-2.2-1.9-10.9.2-.4.8-1.8.2-.9.7 1.2c1.2 1.8 2.6 2.9 4.5 3.7.6.2 1.2.3 2.3.3 1.7 0 2.9-.3 5.7-1.4l2-.8.9.6c3 2 5.4 4.6 7.3 7.8.4.8 1.4 2 2 3a21.7 21.7 0 0 1 2.6 3.8c0-.3-1-3-1.9-4.8a26.3 26.3 0 0 0-9-11.2l1.5-.8c3.1-1.5 4.7-3 5.2-4.6.6-2.3-.1-4.6-2.8-8.3a8.9 8.9 0 0 0-2.4-2.5l-3.3-2.5-7.6-5.3-1-.3c-.3 0-.4 0-.3-.1l-.5-.3c-.5 0-.6 0-1.2.6l-.8.6.5-.6.5-.7h-.5l-.6-.2a37 37 0 0 1 3.6-4.4c1.4-1.5 3.6-3 5.5-4 .8-.4 2.2-1.1 3-1.7a29.9 29.9 0 0 1 17.4-4.7h3.8c0-.1 3.2-.2 7-.2 5.4 0 6.8 0 6.7-.2a8.5 8.5 0 0 0-2.6-1.6c-2.9-1.3-8.6-2.2-14.7-2.2-3.4 0-4.1 0-5.8.3-4 .7-8 2.4-11.5 4.9a36.3 36.3 0 0 0-6.1 5.2 37 37 0 0 0-4.5 5.5c-1.9 2.6-2.5 3.4-2.8 3.5-.8.2-2 1-2.7 1.7l-1.3 2-.9 1.4v.2c.4 0 2.4-1 3-1.5l.8-.3c2-.4 2.5-.4 3.5-.2 2.2.4 4.3 1.8 7.8 5.1a209 209 0 0 0 9.3 8.5l.6.6-1 1.2a15 15 0 0 1-4.2 3c0 .1-.1.2-.3.1h-.1l-1.2.7a11.9 11.9 0 0 1-3 1.2c-.4.2-1.6.6-3.5 1-1.7.4-2 .4-4.6.4-1.5 0-2.7-.1-2.8-.2l-.1-.4a94 94 0 0 0-1.5-6.4c-.5-2.4-1.1-4.4-1.2-4.3l.1 1.2c.3 1.6.5 4.7.4 5.3 0 .4-.2.5-.4.5l-1.4.8a21.5 21.5 0 0 1-16.2 3.6c-.5 0-2.7-.7-4.2-1.4a7 7 0 0 0-1.8-.7c-.3 0-.4.1-.5.9a17 17 0 0 1-.6 3c0 .5 0 .5-1.3 1l-2 .5a28 28 0 0 1-6.8 0c-2-.2-4.4-.8-4.3-1h-.1l-1.5-.5c-1.3-.5-2.5-1.3-3.6-2.3l-.5-.5.7-.7 1.3-1.5a163 163 0 0 1 11.3-12.3c3.2-2.6 6.8-3.9 10.5-3.8h1.2l.8-.7 1-.7c.1 0 .3 0 .5-.2.2-.1-2.3-1-3.8-1.2-2.3-.3-2.6-.1-1 .6 1.3.6 1.1.6-.4 0l-1.3-.4.3.3.3.3h-1c-1.9-.2-5 .4-6.9 1.3-.7.4-3.5 2.7-6.4 5.3a34 34 0 0 0-8 12.7c-.8 3.5.6 5.4 5 6.6l1.5.5-.2 2.4c-.8 4.5-1 8-1 14.3a34.4 34.4 0 0 1-1.1 10.7c-.3 0-.4 0-.2.2.1.2.1.3-.2.5l-.1.2v.3c-.2.2-.2.5-.2.6.1.2-.5.8-.6.5v-.1l.3-.4c0-.3 0-.3-.2 0-.1.2-.2 0-.3-.7l-.1-1-.1-.2c-.2 0-.2 0-.2-.2 0 0-.2-.4-.5-.6a5 5 0 0 1-.7-1.5c-.3-1-.6-1.5-.6-1l.5 2.8a42 42 0 0 1 1 6.6c-.1 0-.4-1.5-.3-1.7 0 0 0-.1 0 0a54 54 0 0 0-3.1-9.3 40.3 40.3 0 0 1-1.4-3.6l-.5-1.2a29.5 29.5 0 0 0-1.3-3.5l-.5-1.5a222.5 222.5 0 0 1-4.9-15.1l-.6-2.8a62.6 62.6 0 0 1-.7-4l-.1-.5.7.3c1.4.7 3.3 1 4.9.6.7-.2 3.5-1.5 4-2 .4-.2.4-.2-1.1-.2a21.8 21.8 0 0 1-7.3-1 16.7 16.7 0 0 1-5.2-3.7l-.1-.2c-.2 0-1-1.2-1-1.6l-.1-.3c-.1 0-.2 0-.2-.2 0-.1 0-.4-.2-.6l-.2-.7a1 1 0 0 0-.2-.6l-.1-.5c0-.7-.4-.4-.9.6a4.2 4.2 0 0 0-.4 3.4c.3 1.1 1.5 2.4 4 4.3l1.9 1.4.5 2.6c1.2 6 3.1 12 8.2 25.2 2.5 6.6 2.6 7 2.6 8.4 0 .4 0 .7.1.6l.1.7c0 1.2.1 1.3.2 1.3l.4 1.4a164.4 164.4 0 0 0 .4 1.4c-.2-.2-.2-.2-.2 0l.1.4c.2.1.5 1.2.4 1.3l-.3-.1a.5.5 0 0 0-.4-.1c-.2 0-.3 0-.3-.2 0-.1 0-.2-.2-.2-.3 0-.3 0 0 .1v.3c-.1.2-.6-.3-.5-.5v-.2c-.1 0-.4-.2-.8-.7a5.9 5.9 0 0 0-2-1.8l-.5-.5c-.2-.3-1.6-1.7-1.9-1.8a164.4 164.4 0 0 1 6.8 9.6l-4.1-4a74 74 0 0 0-4.2-4l.4.8.5.8v.4c.2.1.2.1.2 0 0-.2 0-.2.2 0 .2 0 .2.3.2.5v.1c.1-.3.3-.2.4.1l-.1.4c-.1 0 0 0 0 0 .2 0 .4.2.4.4s.3.6.6 1l.6.6.1.2c.3 0 1.4 1.2 1.4 1.4v.1c.1 0 .2 0 .3.2 0 .2-.4.1-.9-.1-.3-.2-.4 0-.1.3.2.1.1.2-.3 0l-.7-.3-.3-.2c0 .1 0 .2-.2.1l-.5-.1c-.3-.1-.4-.3-.1-.4 0 0 .2-.1.1-.2h-.3c-.1.3-.3.3-1.3-.2a15.2 15.2 0 0 0-3.2-1.1l-1-.4-.9-.3-.8-.4c-1.5-1-8.9-5.1-11.2-6.4-3.7-2.1-10.4-5.4-13.2-6.5-3.5-1.4-6-2-10.6-3l-3.9-.8-1.7.2-1.5.2c.5 0 .2-.2 0-.2v.2l-2.8.5a97.6 97.6 0 0 1 5.9 1 52.9 52.9 0 0 1 5.3 1c1.2.1 1.4.2 3.5.7a69.6 69.6 0 0 1 11.6 4.1 164.9 164.9 0 0 1 16.7 8.9l3 1.6a91.7 91.7 0 0 0 9 4.4c-.2.1-3.5-1-5.8-1.9l-2.9-1c-.3 0 0 .3.6.6.7.3 2 1.6 2 1.9h.3c.1 0 .4 0 .6.2l.4.3-.5.4-.6.4-.1.1c0 .2-.3.2-1.5.2l-1.6-.2-.2.1c0 .1-.1.2-.3.1l-1.1-.2-3.4-.6a48.8 48.8 0 0 0-28.6 1 54.2 54.2 0 0 0-14 9.4c-1.5 1.4-1.4 1.6.2.6 4.8-2.8 12.2-6.7 15.2-7.8a43.5 43.5 0 0 1 17.3-2.6 77.8 77.8 0 0 1 17.3 2.4c1.4.6 3.1.7 4.4.2 1.5-.5 3-1.6 4.2-2.9l1-1.1.4.8 1 2.3a125.7 125.7 0 0 1 5 13c.2.7.4 1 1.5 2 .7.7 1.3 1.2 1.3 1l-.3-1-.4-1.2-.4-1-.4-1a88 88 0 0 0-3.4-7.3c-1.5-3-2-4.2-2.1-5l-.1-.7 1-.6c1-.7 2.7-2.1 3.4-3.2 1.5-2 3.7-2 8.4.2a387.4 387.4 0 0 0 11.9 4.8l-1.8-1.8c-1.7-1.6-1.7-1.6-3.2-2.1l-4-1.5c-8.5-3.4-9.2-3.6-10.5-3.5h-.7l1-.7c1-.8 1.3-1.1 1.5-2.6a16 16 0 0 1 4.6-8.7c.2-.2.8-1 1.3-2a25 25 0 0 1 13.1-10.6 105.6 105.6 0 0 1 9.6-3.9c2.3-.9 2.3-.9 1.6-1-2 0-8.3 1.3-13 3a24.3 24.3 0 0 0-14.6 14.9c-.2.7-.2.8-.4.5l-.3-.2c-.3.3-2.3 8.1-2.3 9 0 .2-.5-.4-.5-.7l-.4-1.6a10 10 0 0 1-.3-1.5c0-.7-.3-.5-.3.2a243.9 243.9 0 0 1 .7-17c.2-1.7 1-6.6 1.4-7.7.2-.6.3-.7.6-.6 4 1 6.6.9 8.8-.2a14 14 0 0 0 3.9-3.7l.4-.7.5.8c1.3 2.4 3.7 3.1 8.6 2.8 6.7-.5 9.8-1.1 11.9-2.5l.2-.1.5 2.8-.3-.3-1-1-.4-.7-1 .4-1.5.7c-1.8 1-4.4 2.2-8 3.7-4.9 2-5 2.1-2 1.2 3.6-1 7.3-1.7 10-1.7 2 0 3.3.3 4.3 1l.4.2 1.1 6.4v2.3c-.5 3.2-1.2 4.8-2.6 6.1-1 .9-3 2-4 2.2-.4 0-.4.1-.2.3 1 1.2 1.1 3 .5 4.8-.7 2-2.8 5.8-4.4 8.3-2 2.8-3.8 4.1-6.5 4.5a14.4 14.4 0 0 1-4.9-.5l1.5 1.5c2 2 2.8 3.5 2.8 5.5 0 2.3-1.4 4.3-5.4 8a77 77 0 0 1-4.1 3.6l-2.8 1.8-.4.1c-2.5 1-5.5.2-7.8-2l-1-1v1.2c0 2.5-.6 4.2-2 5.8a44.6 44.6 0 0 1-12.3 6.5c-2.4-1.8-5.2-2.9-8.2-3.1h-8c-3 0-6 1-8.4 2.8l-1.7-.6 2.8-5.1a136.6 136.6 0 0 1 5.1-9 22 22 0 0 1 6.1-6c1.3-.9 3-1.7 5-2.4.2-.1.7-.5 1-1a7.5 7.5 0 0 1 3.2-2h-1.3c-1.8 0-4 .5-4 .7h-.3c-.4 0-.3.2.1.5.5.3.5.3-1.2.8a21 21 0 0 0-8.7 5.2c-1.3 1.3-3 3.9-4 5.9a53.7 53.7 0 0 0-4.3 12.2h-.2a36 36 0 0 1 2.7-9l-.6 1a92.4 92.4 0 0 1-4.2 7.2 28.4 28.4 0 0 0-5.6-1l-3.7-.2h-9.3c0-.4 0-.5-.3-.4-2 .7-3.3.4-4.7-.8-.9-.8-3.4-4.1-4-5.4-1.5-3-.3-6 3.9-10a52.1 52.1 0 0 1 9-7l-3.4 1.7c-9.4 5-10.2 5.3-12.4 5.3-1.6 0-2.5-.6-3-2.4-.4-1-.7-4.5-.7-6.5 0-2.8.8-4.6 3-6.6l.9-.8-.4-.7c-.3-.6-.3-.8-.2-1.6a40 40 0 0 1 2.9-9.2c.7-1.4 2.3-3.2 3.5-3.8 1.6-1 3.5-1.5 5.8-1.8l.6-.1.9-.1-2.1-.4c-3.3-.7-4.2-1-5.1-2-.9-.8-1-1.5-.7-3 .4-1 1-2.2 3.4-5.6 2.4-3.4 4.1-5.2 5.7-5.9a9 9 0 0 1 4.5-.8l1 .1v-.7c.3-1.8 1.5-3.3 5.4-6.5 5-4.2 6.5-5 8.8-4.8.8 0 .9 0 .8-.2-.5-2 0-4.2 1.6-5.8a15 15 0 0 1 4-2.7 51 51 0 0 0 1.3-.7l-.6-1.6c-1.3-3-1.5-4.5-.7-6 .9-2 3.1-3.7 6.6-5.2a50.7 50.7 0 0 1 10.2-3.6l-4.2.6c-8.6 1.4-10 1.6-12 1.2-1.6-.3-2.4-.7-3-1.7-.4-.6-.5-1-.5-2.1-.1-2.6.6-6.8 1.5-8.3a8 8 0 0 1 3.3-3c1-.5 1.2-.6 1-.8l-.2-1.2c0-1.1.6-2.4 2.8-5.7.7-1.1 1.3-2 2-2.7l2.8-2.3 1.9-.7a20.3 20.3 0 0 1 9.3.6l-2.1-1.1a20.2 20.2 0 0 1-5-3.2c-.3-.3-.7-1-.8-1.4-.2-.7-.2-.9 0-1.6.4-1.1 2.2-2.9 5.6-5.4 2.7-2 4.7-3.2 6.2-3.5 1.5-.3 3.7 0 5.7.7.2 0 .3 0 .5-.5.4-1 1.6-2 3.2-2.7 1.7-.9 6.7-2.9 8.5-3.4 2.5-.8 5-.6 6.4.5l.4.4v-1.3c.3-3 2-4.8 5.6-5.7l9.2-1.2zm7.7 5.4zm0 0c-.1 0-1 1-1.4 1.7-.3.6-.4 1.1-.8 3.9l-.7 5.2c-1 6.4-1 10-1.1 30a756.2 756.2 0 0 1-.2 20.1 140.7 140.7 0 0 0 .8-18.5l.3-17.7.2-3a78 78 0 0 1 1.8-13 252.4 252.4 0 0 1 1.1-7.5v-1.2zm-23 2.6c-.2 0 0 1.8.4 3.8l.6 2.8 1.5 5.6a745 745 0 0 1 5.5 20.3 420.1 420.1 0 0 0 5.2 17.4 720.3 720.3 0 0 1-12.8-49.6l-.4-.3zm56.8 8.3 1.4.7-3.7 1.2 2.3-1.9zm5.1.9h-1.2c-1.4.2-2.5.4-4.5 1.2-2.8 1-7.5 3.4-9.1 4.7a54 54 0 0 0-6 5.4c-3 3.4-5.8 7.9-8.6 13.7-1.8 3.7-2.5 5.5-5 12a79.7 79.7 0 0 1-6.9 14.9 729.3 729.3 0 0 1 3.5-5 76.7 76.7 0 0 0 6-12l1.2-2.6a90.2 90.2 0 0 1 11.4-17.5c1.8-2.1 3.8-3.8 6.7-5.8a3207 3207 0 0 0 12-8.5zm10.6 7.7a94.6 94.6 0 0 1 41.7 72.4l-1.3-.2c-.1 0 0 0 0 0l-.4-.6c-.7-1-2-2.3-4.8-4.8-2.4-2-4-3.4-5.4-4.2-1.3-.8-2.5-1-3.7-1v-.2c.7-1.4.8-2.7.2-4a9.6 9.6 0 0 0-3.6-3.6c-1.4-1-6.1-3.7-7.6-4.4-1.5-.8-3-1.2-4.1-1.2-1.2 0-2.3.5-2.9 1.4l-.7 1.5-.4-.7-1.3-1.6c-1-1-2.6-2-4.2-2.5a108 108 0 0 0-7.8-2.7 5 5 0 0 0 .1-3.2h.6a7.8 7.8 0 0 0 5.9-3c1.3-1.7 3.2-6.3 3.7-8.6a5 5 0 0 0-.6-3.6c-.6-1-1.6-1.9-3-2.6a27 27 0 0 0-8-2l5.7-.5c1.7-.3 2.8-.6 4-1.2 1.4-.7 2.4-1.6 2.9-3 .4-1.4.4-3 0-5.4-.4-2.2-.7-3.7-1.3-4.8a5.6 5.6 0 0 0-2.8-2.4l-.7-.2h-.2c.3-.6.4-1 .3-1.6l-.3-1.5zm-107.4 1.3c.7.6 1.7 1.2 3 1.9-2.2-.3-4.3-.3-5.7 0l2.7-2zm.7 2.5c-1.6 0-3.2.2-3.2.4a32 32 0 0 0 5 2.5 407 407 0 0 1 11 5.1 51.6 51.6 0 0 1 9 6.4c1.8 1.3 8 7.4 10 9.6a208.2 208.2 0 0 0 14.6 15.3l2.6 2.2a103.4 103.4 0 0 1-11.8-13.2c-6.2-7.9-9.3-11.5-13.5-15.6a48.7 48.7 0 0 0-17-11.6c-2.1-.6-5-1-6.7-1.1zm-10.4 5.3v.2c-2.2 3.3-3 4.6-3 6l.1.9.1.3-.5.2c-1.5.8-3 2-3.7 3.3a23.2 23.2 0 0 0-1.6 8.7c.1 1.1.3 1.7.7 2.4.7 1 1.7 1.7 3.5 2 1 .2 1.9.2 3.6 0 1 0 3.3-.4 5.2-.7l-3 1.2c-3.6 1.6-6 3.3-7 5.5a5 5 0 0 0-.4 2.8c0 1 .5 2.2 1.1 3.8l.5 1-.9.4c-1.8 1-3.3 2-4.2 2.9a6.9 6.9 0 0 0-1.8 5.8 6 6 0 0 0-3.8.8c-1.4.7-3 2-5.5 4.1-2 1.6-3.3 2.8-4.1 3.9a6 6 0 0 0-1.5 3h-.2c-1 0-2.2 0-3.3.3a94.4 94.4 0 0 1 29.7-58.8zm19.8 20.8-2.2.1c-5 .4-12.4 2.6-17.4 5-2.6 1.4-5.3 3.7-3.8 3.4a107.6 107.6 0 0 1 4.5-1l3.6-.8 10.2-2a52.6 52.6 0 0 1 9.6-.5 47.7 47.7 0 0 1 14.5 3.9c2.8 1 5 2 8.5 4 4 2.3 4.4 2.5 5 2.5l.9.2.8.2-2-1.1c-1-.6-3.6-2.2-5.7-3.7a77.1 77.1 0 0 0-10.5-6.1c-5.8-2.8-11-4-16-4zm43.5 12.2v.7-.7zm-66.5 5-4 2c-1.9 1.4-3.3 3.4-3.3 4.9v.4l.5-.4a49.2 49.2 0 0 0 3.8-2.9 5 5 0 0 0 1-.8l.3-.1c.1 0 .2 0 .2-.2 0 0 .1-.1.2 0 0 0 .2 0 .2-.2l.4-.2.3-.2c0-.2.2-.3.8-.3.4 0 .4-.5 0-1.3l-.4-.7zm101.8 6.2c0 .2.6 1 .7 1v-.2l-.7-.8zm-110 3.3c-.8 0-1.6 0-2.4.3a24 24 0 0 0-5.9 4c-3 2.6-4.5 4-5 5.1-.9 1.6-.9 2.7 0 3 .6.1 1.3 0 1.2-.2-.2-.4 3-3.5 5.4-5.5a30 30 0 0 0 1.8-1.7 15.3 15.3 0 0 1 5.6-3.5l.3-.2c.2.2.4-.4.3-.8-.1-.3-.7-.5-1.4-.5zm97.4 8-.3.3 1.3 1.1c4 3 7 7.7 9.5 14.8a42.7 42.7 0 0 0 1 2.1c-.3-1.3-1.5-5.4-2.4-7.5-1.7-4-4.2-7.4-7.3-9.8-1.3-1-1.5-1-1.8-1zm-114 3.9c-.8 0-2.3.4-3.1.9-1.8.9-3 2.1-5.7 6-3.3 4.7-4 6.6-2.8 8 .5.5.7.4 1-.3a28.3 28.3 0 0 1 4.7-8.3c1.3-1.6 3.8-4.2 6-6l.4-.3zm92 .7.3.3 1 1 .3.5.3 1.2v.7c-1-.5-2.2-.8-4-.8-1.6 0-3.4.2-5.4.6l5.6-2.6 1.5-.7zm6.1 10.7a19 19 0 0 0 3.4 4.7 10.6 10.6 0 0 0 6.5 2.7h3.4c-2.3.9-4 1.8-5 3-.8.7-1.2 1.6-1.3 2.6 0 1 .2 2 .8 3a44 44 0 0 0 9.7 9.8c1.7 1.1 3 1.6 4.8 1.7 1.7.1 3.1-.1 4.6-.8l.3-.1c0 1.4 1 2.9 2.4 4.4l.4.4-1.8 2.7a1276 1276 0 0 1-15.7 23.2c-2.2.7-4.2 2-5.8 3.5-.6-.5-1.2-1-1.9-1.3a575 575 0 0 0-4.8-59.5zm-30.8.8a24.8 24.8 0 0 0-6.6 10.3l.3-.6 1.2-2.4a31 31 0 0 1 5-7.3zm58.4 2.6.2 1.5.2 1.3c0 .6.3.8.3.3a22.8 22.8 0 0 0-.7-3zm-30 1.8a289.8 289.8 0 0 1 1.8 15.2c1.1 11.9 2 23.9 2.4 37.1-1.6-.7-3.4-1-5.2-1.2h-8c-2 .1-4 .7-5.8 1.6l-5.5-1.4-3.9-4.8-3.1-3.9.4-.3a49.5 49.5 0 0 0 4.1-3.6c2-1.9 3.4-3.3 4.3-4.7a6.8 6.8 0 0 0 1.3-3.8c0-2.1-1-3.9-3-6 1 .2 2.2.2 3 .1 2.9-.4 5-1.8 7-4.8 1.7-2.5 3.7-6.3 4.4-8.4.7-1.8.6-3.5-.3-4.8 1.3-.4 2.9-1.3 3.9-2.2a8 8 0 0 0 2.2-4zm26.8 1.4c-.4 0-.4 0 .2.3.7.3.8.4.8.2 0-.3-.5-.5-1-.5zm58.6.4-2.3.4a77.5 77.5 0 0 0-26 11.4c-.1 0-.2 0-.1.1 0 .2-.3.3-.5.2-.1 0-.2-.2-.1-.3h-.1c-.2.1-.5.3-.9.3-.3.1-.8.2-1 .4-.3 0-.6.2-.7.1 0 0-.3 0-.4.2-.3.4-2.3 1.1-2 .8l-.1-.2-.2.2-.3.3c-2.5 0-3.2 0-2.9-.4l.4-.8c0-.2.2-.5.4-.6.2-.1.2-.2 0-.1-.3 0-.3-.3.2-1 .9-1 .2-.8-1.5.8l-1.8 1.5c-.1 0-.1 0 0 .2 0 .4 2.5 1.4 4.1 1.6l2.1.4 1 .1 1-.6a15 15 0 0 1 1.2-.6l1-.6a59.8 59.8 0 0 1 5.6-3.1c3.6-2 6.5-3.4 10.4-5 4.4-1.8 8.8-3 11.8-3.3 1.9-.2 6.6-.1 9.2.1 1.7.2 2.1.2 2.4.5l.3.5.7 1.1a18 18 0 0 1 1.7 3.5l.5 1a41.6 41.6 0 0 0 1.3 2.7c0 .2.5.5.8.7 1 .4 3.4 2 4 2.4l.5.8.4 1.3a24.4 24.4 0 0 1 1.6 6.5c0 1.5 0 1.8-.1 1.7-.2-.1-.2 0 0 .1.3.4.1 1.5-.4 2.6l-.4 1 .4.1h1.2c1.2 0 1.8-1 2.4-3.6.8-3.6.4-5.2-1.9-7.6-.4-.5-.4-.6-.5-1.6 0-2-1.8-7.1-3-8.8-2.7-3.5-9-6-17.3-7.1zm-191 .6zm0 0c-.2-.2-2.5 1.2-3.2 2-1.5 1.4-2.3 2.8-3.6 7-1.3 4-1.4 5.6-.6 6.6l.4.3.5-.4c.3-.2.5-.5.5-.6v-.7a23 23 0 0 1 2-6.7 27.7 27.7 0 0 1 3.6-6.8c.3-.4.4-.7.3-.7zm51.7 8.3s0 .2.3.4l.3.2-.2-.4-.4-.2zm.7.8zm0 0v.4l.4.3v-.3l-.4-.3zm13.9 1v.5l-.1-.3v-.2zm71.2 3.4-1.3 1.5a15.6 15.6 0 0 0-2.3 3.5c0 .1.4 0 1-.3 1-.5 1-.6 1.2-1.2l.7-2 .7-1.5zm21.7 1.8c-.2 0-.3.3-.1.5.1.2.3 0 .3-.3 0-.1 0-.2-.2-.2zm-99.9.3.2.3c0 .7 0 .7-.4.3-.3-.4-.4-.6-.2-.6 0 0 .1.2 0 .2 0 .1.1 0 .2 0l.2-.2zm111.4 0v.1h.2-.2zm-108.6 1.2v.3V-1054.3zm-8.6.2c-.1 0-.1 0 0 .1.3.2.4.2.3 0l-.3-.1zm-63.4 1.7a3 3 0 0 0-.6.9 7.8 7.8 0 0 0-.7 4.4c0 .8.2 1.4.2 1.4l.1-1 .2-1.6.1-.9a10.4 10.4 0 0 1 .8-2.8c0-.4 0-.5-.1-.4zm61.8 2.6v.3c-.2.2-.5.2-.5 0l.2-.2c.1-.2.2-.2.3-.1zm146.5.4c1.4.8 2.7 1.5 4.3 2.6 5.6 3.5 6.9 4.3 8.8 4.8.8.2 1.5.3 2.2.1l-1.3 3.5a15.2 15.2 0 0 0-6-3.9 51.1 51.1 0 0 0-5.1-5l-2.9-2.1zm-210.5 1.5zm152.6 2.6.7.4c1.9 1.3 5.3 3.3 7.2 4.2 1.5.8 2.8 1.2 4 1.4.9.1 1.7 0 2.6-.3.2 2 1.3 4.2 2.7 5.7 1.5 1.7 3.4 2.8 7 4l-4.7 3.8-.2.2-14.1 11.7c-2.7-5-7.8-8-13.4-8.1h-7.4l6.5-9.6a845 845 0 0 0 9.1-13.4zm-97.9.7-2.1.7c-1.8.7-4.3 2.3-5.3 3.3-.5.5-.4.5.7-.3a24.4 24.4 0 0 1 6-3c1.3-.4 1.6-.7.7-.7zm-54.4.4c.1 1.3.3 2.4.5 3 .3 1 .7 1.7 1.3 2.2-.6-.5-1-1.2-1.3-2.2-.2-.6-.4-1.7-.5-3zm13.3 2.2-2.9 2.6c-2 2-3.5 3.8-4.2 5.6l-.2.8-2.2-5.4h.4c1.1 0 2 0 3.7-.8 1-.4 3.5-1.7 5.4-2.8zm155.7 0-.8.6-.7.7.1 1 .2 1c0 .1.1.1.2 0 .2-.2 1.1-3 1-3.2zm57 6zm-147.3 4.7c2.5 2.4 5.6 3.2 8.4 2.1l.3-.1.2.3 5 6.2-.5-.1h-.2l-4-.2h-1.1c-7.3 0-14.5 1.4-21 5.1l-.1.1-1.3-.9a52.1 52.1 0 0 0 12-6.6 8.6 8.6 0 0 0 2.3-5.9zm122.6.5 11.8 2.6-11.1 51.3 8.1 1.8-2.3 10.9-8.2-1.8-3.8 17.5-13.3-3 3.7-17.4-33.7-7.3-4-10.8 9.7-8 23.4-19.3h-.1zm30.2.2h.1-.1zm-225.2 1.5.1.4a24 24 0 0 0 2 3 24 24 0 0 1-2-3l-.1-.4zm4.7 6.3.6.3h-.4l-.2-.3zm-6.7.3zm30.9 1.5zm163.3 5.7-36.7 30.1 28.8 6.3zm-111.7 7.4a50.9 50.9 0 0 1 7.5.6c2.3.4 4.4 1 6.3 1.7v7a29.2 29.2 0 0 0-6.3-1.8c-2.2-.5-4.5-.7-7-.7-5.8 0-10 1.6-12.4 4.7a22 22 0 0 0-3.6 13.5c0 5.6 1.3 9.8 4 12.6 2.6 2.9 6.7 4.3 12.2 4.3a33 33 0 0 0 13.2-2.3v7a39 39 0 0 1-13.9 2c-7.7 0-13.6-2.1-17.6-6.3-4-4.3-6-10-6-17.3 0-5.1.9-9.6 2.6-13.3 1.7-3.8 4.3-6.6 7.7-8.6 3.5-2 8-3.1 13.3-3.1zm-61.5.7 2.6.1c2.5.3 4.6.9 6.4 2 2.3 1.3 4 3.2 5.2 5.6 1 2.3 1.6 5 1.6 8a15 15 0 0 1-4.4 11.3 16 16 0 0 1-11.7 4.3h-12.7v15.8h-8v-47.1zm22.2 0h8v47.1h-8zm61 0h8v25.7l16.7-21.3 3.5-4.3h7.4l-10.9 13.7-4.5 5.8 17.8 27.7h-8.5l-13.9-22-7.6 9.8v12.2h-8zm-96.2 6.2v18.8h11.3c3.1 0 5.5-.9 7.1-2.5a9.3 9.3 0 0 0 2.5-6.8c0-3-.8-5.3-2.4-7-1.5-1.7-3.8-2.5-6.9-2.5zm126.6 58.6c3.4 0 6 .9 7.6 2.6 1.7 1.8 2.5 4.6 2.5 8.5 0 3.7-.8 6.5-2.5 8.3-1.7 1.7-4.2 2.6-7.6 2.6-3.4 0-6-.9-7.6-2.6-1.7-1.8-2.5-4.6-2.5-8.3 0-4 .8-6.7 2.5-8.5 1.7-1.7 4.2-2.6 7.6-2.6zm37.2 0a21.6 21.6 0 0 1 6 .9v3.1c-1.6-.6-3.4-1-5.5-1-1.6 0-2.8.3-3.7.7-.9.4-1.3 1.2-1.3 2.3 0 .6.1 1.2.4 1.6.4.4.9.7 1.6 1l3.2 1c1.8.4 3.1 1 4 1.5a5 5 0 0 1 2 2.2c.5.8.7 1.7.7 2.7 0 1.9-.7 3.3-2.1 4.4-1.4 1-3.5 1.6-6.3 1.6s-5-.3-6.7-1v-3.2a20.5 20.5 0 0 0 6.3 1.2c1.7 0 3-.2 3.8-.6 1-.4 1.3-1.2 1.3-2.4 0-.7-.1-1.3-.5-1.8a4 4 0 0 0-1.7-1.1c-.9-.3-2-.7-3.4-1a11 11 0 0 1-4.9-2.3c-.9-1-1.4-2.2-1.4-3.8 0-1.9.7-3.3 2-4.4 1.5-1 3.5-1.6 6.2-1.6zm-139.9.3h3.6v21.4h-3.6zm12 0h3.6v18.6h10.9v2.8h-14.6zm21.5 0h3.6v18.6h11v2.8h-14.6zm21.5 0h3.7v21.4h-3.7zm12 0h3.2l11.1 15.8v-15.8h3.6v21.4h-3.2l-11.1-15.7v15.7h-3.6zm53.5 0h3.6v21.4h-3.6zm-17.8 2.8c-2.2 0-3.9.6-5 1.8-1 1.1-1.5 3.2-1.5 6.2 0 2.8.5 4.8 1.6 6 1 1.3 2.7 1.9 4.9 1.9s3.9-.6 4.9-1.9c1-1.2 1.6-3.2 1.6-6 0-3-.5-5-1.6-6.2-1-1.2-2.7-1.8-5-1.8zm54.3 36h-.1z" style="fill:url(#b);stroke:none;stroke-width:.436196;stroke-linecap:round;stroke-linejoin:round;stroke-opacity:1" transform="translate(-24421.1 1205)"/></svg>