<svg xmlns="http://www.w3.org/2000/svg" xmlns:xlink="http://www.w3.org/1999/xlink" xml:space="preserve" width="944.9" height="1159" viewBox="0 0 250 306.6"><defs><linearGradient id="a"><stop offset="0" style="stop-color:#1fae5b;stop-opacity:1"/><stop offset="1" style="stop-color:#3145aa;stop-opacity:1"/></linearGradient><linearGradient xlink:href="#a" id="b" x1="25537" x2="25752" y1="-1619.3" y2="-1887.8" gradientUnits="userSpaceOnUse"/></defs><path d="M25662-1926c-69.2 0-125 55.8-125 125v19.3c0 14.3 2.4 28 6.8 40.8a15.2 15.2 0 0 0-6.8 12.7v47.2c0 6.9 4.7 12.9 11.3 14.6v.2a13 13 0 0 0-.4 3.2v21.3c0 3 1 5.9 2.8 8 1.7 2.2 9.3 9.8 11.6 11.5 2.2 1.6 4.8 2.5 7.6 2.5h14.5a13 13 0 0 0 4.9-2 26 26 0 0 0 10.6 2.4c4.3 0 9.3-1.1 13.5-4a24.7 24.7 0 0 0 24.9 1.2 13 13 0 0 0 5.8 2.4h3.7c1.3-.3 2.6-.8 3.7-1.5 3.8 1.5 7.4 1.9 11 1.9 3.5 0 7.4-.5 11.2-2.4a13 13 0 0 0 5 2h3.5a13 13 0 0 0 3.5-1.4c1.3.7 2.7 1.2 4.2 1.4h3.8a13 13 0 0 0 6.4-2 13 13 0 0 0 6.4 2h3.7a13 13 0 0 0 5-1c.9.4 1.8.8 2.7 1h3.6c1.7-.3 3.3-1 4.7-1.9 2 1.2 4.1 1.9 6.4 2h3.2c1.2-.4 2.4-.8 3.5-1.5a13 13 0 0 0 4.2 1.4h3.8a13 13 0 0 0 6.4-2 13 13 0 0 0 6.4 2h3.7c9 0 15.3-9 12.1-17.4l-6.7-17.8.2-.6 1-4.4c5.4-1.4 9.7-5.8 11-11.3l2.3-10.9c1.2-5.6-.9-11.4-5.3-15l8.2-38.1a15.2 15.2 0 0 0-4-13.8c2.9-10.4 4.4-21.4 4.4-32.7v-19.3c0-69.2-55.8-125-125-125zm0 7.2a117.8 117.8 0 0 1 110.2 159.4c-2-2.3-4.8-4-8-4.7l-11.8-2.5 1.7.3a98.5 98.5 0 0 0-63.7-129h-.1c-1.5-4.6-6.9-9.3-11.7-9.3-.6 0-1.3 0-2 .3-5.1 1.6-9 3.3-12 5l-2.6-.1a98.5 98.5 0 0 0-78.8 157.4 29 29 0 0 0-6.3-1.2l-3.7-.2h-14a117.8 117.8 0 0 1 102.8-175.4zm-3.2 23.2c-7.6 6.8-3.4 13.2-10.8 19-18.7 14.6-40 29-66.5 59.4 30-17 61.5-31 89-51.8 0 0-11.8 18.4-15.3 28.7a87 87 0 0 0-.7 54.6c-3-1.2-6-2.2-9.4-2.2-3.8 0-7.4 1.4-10.9 2.7a29.4 29.4 0 0 1-10.2 2.6c-3.3 0-6.7-1.3-10.1-2.6-3.5-1.3-7-2.7-11-2.7-3.8 0-7.4 1.4-10.9 2.7a29.4 29.4 0 0 1-10.1 2.6c-3.4 0-6.8-1.3-10.2-2.6l-3.2-1.1a94.4 94.4 0 0 1 90.3-109.3zm32.4 4.6a94.7 94.7 0 0 1 63.8 107.7c-1.5.4-3 .7-4.4.7-3.4 0-6.7-1.3-10.2-2.6l-1.5-.5a86 86 0 0 0-17.4-23.3c-13.3-11.3-50.5-13.4-50.5-13.9 0 0-.5-13.2.8-19.6 3.2-16.8 21.1-32.4 19.4-48.5zm-21.7 3.2c2.5 0 5.3 1.4 5.3 1.4s-2 4.4-4.4 6c-2.3 1.4-8.5.5-8.5.5s2.8-6 5.6-7.5c.6-.3 1.3-.4 2-.4zm-66.6 101.9c3.4 0 6.8 1.2 10.2 2.6 3.5 1.3 7 2.7 11 2.7 3.8 0 7.4-1.4 10.8-2.7 3.5-1.4 6.9-2.6 10.2-2.6a29.4 29.4 0 0 1 10.3 2.6c1.4 4 3.3 8 5.4 12l-5.5 1.8a29.4 29.4 0 0 1-10.2 2.6c-3.3 0-6.7-1.2-10.1-2.6-3.5-1.3-7-2.7-11-2.7-3.8 0-7.4 1.4-10.9 2.7a29.4 29.4 0 0 1-10.1 2.6c-3.4 0-6.8-1.2-10.2-2.6-3.5-1.3-7-2.7-11-2.7-3.2 0-6.3 1-9.3 2.2a94.8 94.8 0 0 1-3.7-14l2.2.7c3.4 1.3 7 2.7 10.9 2.7 3.8 0 7.4-1.4 10.9-2.7 3.4-1.4 6.8-2.6 10.1-2.6zm137.4 2.8a29 29 0 0 0 10.3 2.5c1.3 0 2.6-.2 3.9-.5-.7 3-1.4 6.1-2.4 9h-1.5c-1.6 0-3 .2-4.6.5a216 216 0 0 0-5.7-11.5zm10.3 13h.9l-1.2 3.2h-2.1l-1.3-2.8a17 17 0 0 1 3.7-.5zm-168.7 0c3.3 0 6.7 1.2 10.1 2.5 3.5 1.3 7 2.7 11 2.7 3.8 0 7.4-1.4 10.9-2.7 3.4-1.3 6.8-2.6 10.1-2.6 3.4 0 6.8 1.3 10.2 2.6 3.5 1.3 7 2.7 11 2.7 3.8 0 7.4-1.4 10.8-2.7 2-.8 4-1.5 6-2a88.8 88.8 0 0 0 12.6 16.5c-2.8 1-5.6 2-8.4 2-3.4 0-6.7-1.3-10.2-2.6-3.4-1.4-7-2.7-10.9-2.7-3.8 0-7.4 1.3-10.9 2.7a29.4 29.4 0 0 1-10.2 2.5c-3.3 0-6.7-1.2-10.1-2.5-3.5-1.4-7-2.7-11-2.7-3.8 0-7.4 1.3-10.9 2.7a29.4 29.4 0 0 1-10.1 2.5h-.5c-3.3-5.3-6-11-8.3-17 3-1 5.9-2 8.8-2zm21 15.7c3.4 0 6.8 1.2 10.2 2.5 3.5 1.4 7 2.7 11 2.7 3.8 0 7.4-1.3 10.8-2.7 3.5-1.3 6.8-2.5 10.2-2.5 3.4 0 6.8 1.2 10.2 2.5 3.5 1.4 7 2.7 11 2.7a28 28 0 0 0 9.8-2.3l4.9 4.5c1.8 1.3 4.1 2.5 6.6 3.7h-3c-3.8.1-7.4 1.7-10.2 4.4l-.2-.1a15.2 15.2 0 0 0-9.8-4.3h-8c-2 0-4 .6-6 1.5l-5.5-1.4-5-.7h-.1a76 76 0 0 0-4-.2h-1.1c-7.3 0-14.5 1.4-21 5.2h-.1a15.2 15.2 0 0 0-10.2-4.5h-8c-2.4 0-4.8.8-7 2-2-2.5-4-5.1-5.7-7.8 3.5-.2 6.8-1.4 10-2.7 3.5-1.3 6.9-2.5 10.2-2.5zm172.8 1.2zm-26.5 1.5 11.8 2.5-11.1 51.4 8.1 1.7-2.3 11-8.2-1.8-3.8 17.4-13.3-2.9 3.8-17.4-33.8-7.3-4-10.9 9.7-8 23.4-19.3h-.1zm30 0 .6.4-.7-.4zm-74.8 15 1 .3v1.2l-1-1.5zm42 .4-36.7 30.2 28.8 6.2zm-111.7 7.4a50.4 50.4 0 0 1 7.5.7c2.3.4 4.4 1 6.3 1.6v7a29.2 29.2 0 0 0-6.3-1.8c-2.2-.4-4.5-.6-7-.6-5.8 0-10 1.5-12.4 4.6a22 22 0 0 0-3.6 13.6c0 5.5 1.3 9.7 4 12.6 2.6 2.8 6.7 4.2 12.2 4.2a33 33 0 0 0 13.2-2.3v7.1a39 39 0 0 1-13.8 2c-7.8 0-13.7-2.2-17.7-6.4-4-4.3-6-10-6-17.2 0-5.2 1-9.6 2.6-13.4 1.7-3.7 4.3-6.6 7.7-8.6 3.5-2 8-3 13.3-3zm-61.5.7 2.6.1c2.5.3 4.6 1 6.4 2 2.3 1.3 4 3.2 5.2 5.6 1 2.4 1.6 5 1.6 8a15 15 0 0 1-4.4 11.4 16 16 0 0 1-11.7 4.2h-12.7v15.9h-8v-47.2zm22.2 0h8v47.2h-8zm61 0h8v25.7l16.7-21.2 3.5-4.4h7.4l-10.9 13.8-4.5 5.7 17.8 27.7h-8.5l-13.8-22-7.7 9.8v12.2h-8zm-96.2 6.3v18.7h11.3c3.1 0 5.5-.8 7.2-2.5a9.3 9.3 0 0 0 2.4-6.7c0-3-.8-5.4-2.4-7-1.5-1.7-3.8-2.5-6.8-2.5zm30.6 58.6c3.4 0 5.9.8 7.6 2.6 1.6 1.7 2.5 4.5 2.5 8.4 0 3.8-.9 6.5-2.5 8.3-1.7 1.8-4.2 2.7-7.6 2.7-3.4 0-6-1-7.6-2.7-1.7-1.8-2.5-4.5-2.5-8.3 0-3.9.8-6.7 2.5-8.4 1.7-1.8 4.2-2.6 7.6-2.6zm63.7 0a21.6 21.6 0 0 1 6 .8v3.2c-1.6-.6-3.5-1-5.5-1-1.6 0-2.8.2-3.7.7-1 .4-1.3 1.1-1.3 2.3 0 .6.1 1.1.4 1.5.3.4.9.8 1.6 1l3.2 1c1.7.4 3 1 4 1.6a5 5 0 0 1 2 2.1c.5.8.7 1.7.7 2.7 0 2-.7 3.4-2.1 4.5-1.4 1-3.5 1.6-6.4 1.6-2.7 0-5-.4-6.6-1v-3.3a20.5 20.5 0 0 0 6.3 1.2c1.7 0 3-.2 3.8-.6.9-.4 1.3-1.2 1.3-2.4 0-.7-.2-1.3-.5-1.7a4 4 0 0 0-1.8-1.2l-3.4-1a11 11 0 0 1-4.8-2.2c-1-1-1.4-2.2-1.4-3.8 0-2 .7-3.4 2-4.5 1.4-1 3.5-1.5 6.2-1.5zm-93.7.3h3.6v18.6h11v2.7h-14.6zm47.6 0h3.6v13.3c0 1.8.5 3.1 1.4 4 1 .9 2.4 1.3 4.3 1.3a6 6 0 0 0 4.1-1.3c1-.9 1.5-2.2 1.5-4v-13.3h3.6v13.4c0 2.7-.8 4.7-2.4 6.1a10 10 0 0 1-6.8 2.2c-3 0-5.3-.7-7-2.2-1.5-1.4-2.3-3.4-2.3-6zm26.6 0h3.6v21.3h-3.6zm34.5 0h3.6v21.3h-3.6zm19.5 0h4l8.1 21.3h-3.7l-2.1-5.5h-8.6l-2.1 5.5h-3.8zm19.8 0h3.2l11.1 15.7v-15.7h3.6v21.3h-3.2l-11-15.6v15.6h-3.7zm33.8 0h4l8.1 21.3h-3.7l-2.1-5.5h-8.6l-2.1 5.5h-3.8zm-151.8 2.7c-2.2 0-3.9.6-5 1.8-1 1.2-1.5 3.3-1.5 6.2 0 2.8.5 4.9 1.6 6 1 1.3 2.7 2 4.9 2s3.8-.7 4.9-2c1-1.1 1.6-3.2 1.6-6 0-3-.6-5-1.6-6.2-1-1.2-2.7-1.8-5-1.8zm100.2.6-3.7 9.7h7.4zm53.6 0-3.7 9.7h7.4z" style="-inkscape-font-specification:Kanit;fill:url(#b);stroke-linecap:round;stroke-linejoin:round;paint-order:stroke fill markers" transform="translate(-25537 1926)"/></svg>