<svg xmlns="http://www.w3.org/2000/svg" xmlns:xlink="http://www.w3.org/1999/xlink" xml:space="preserve" width="1091.7" height="1158.7" viewBox="0 0 288.8 306.6"><defs><linearGradient id="a"><stop offset="0" style="stop-color:#001796;stop-opacity:1"/><stop offset="1" style="stop-color:#ffc32e;stop-opacity:1"/></linearGradient><linearGradient xlink:href="#a" id="b" x1="27645.6" x2="27878.3" y1="-1625.1" y2="-1896.6" gradientUnits="userSpaceOnUse"/></defs><path d="M27789.7-1931.7zm0 0c-69.2 0-125 55.8-125 125v19.3c0 14.3 2.4 28 6.8 40.7l2.2-1.2c-5.3 2.4-9 7.7-9 13.9v47.2c0 2 .4 3.9 1.2 5.6a13 13 0 0 0-3.7-.5h-3.7a13 13 0 0 0-12.9 12.9v21.3a13 13 0 0 0 9.8 12.3 13 13 0 0 0 12.2 9.8h3.6a13 13 0 0 0 6.9-2.2 13 13 0 0 0 6.9 2.2h3.6l2-.6 1.5.6h3.7c2.3-.1 4.5-.8 6.5-2a13 13 0 0 0 6.4 2h3.7c.6 0 1.1-.2 1.7-.3a35.2 35.2 0 0 0 14.7-.6 31.2 31.2 0 0 0 16.8.2l1.9.7h3.7c2.3-.1 4.5-.8 6.4-2a13 13 0 0 0 6.5 2h3.7c1.4 0 2.9-.4 4.3-.9a27.1 27.1 0 0 0 12.7.8l2.3-.5 2.2.6h3.6c1.8-.1 3.6-.6 5.2-1.4a13 13 0 0 0 5 1.4h3.7c1.6-.2 3.1-.6 4.5-1.3a26 26 0 0 0 17.9-.1 29.8 29.8 0 0 0 19 .4c1.1.5 2.3.8 3.5 1h15c1.5-.2 3-.6 4.4-1.2 1.4.6 2.9 1 4.4 1.2h3.6a13 13 0 0 0 7.6-3 13 13 0 0 0 7.7 3h3.6a13 13 0 0 0 4.8-1.3 30 30 0 0 0 10.3 1.6 22 22 0 0 0 14.2-4.2v-.1a20 20 0 0 0 7.2-14.7c0-2.6-.6-5.6-2-8.3l-.3-.6 1-3v-3.2a13 13 0 0 0-8.6-12.1l-1.3-.4c-1-4-4-7.3-7.8-8.7-1.9-.7-3.3-1-4.9-1.2h-.5l1.3-6.3c1.2-5.6-.9-11.4-5.3-15l8.3-38.1c1-4.8-.4-9.6-3.3-13.1l-.8-.8c2.8-10.3 4.3-21.2 4.3-32.5v-19.3c0-69.2-55.7-125-125-125zm0 7.2a117.8 117.8 0 0 1 110.2 159.2l-.1-.2c-2-2.2-4.8-3.7-7.9-4.4l-10-2.2a98.5 98.5 0 1 0-180.2 9.4l-10 3.4-7.4 5.2-2.2-4.6-.4-.7a117.8 117.8 0 0 1 108-165.1zm0 23.1a94.6 94.6 0 0 1 86.8 57l-1.5.3c-1.4.3-2.7 0-4 .1-5 .9-6 7-9.7 9.4-1.1.8-2 .3-3.1.7-2 .6-3.3 3-4.7 4.4-1.4 1.4-1 4-2.8 5.3-1 .7-2.5.5-3.7 1-2.5 1-6.1 3.1-8.2 5-3.1 2.7-2.2 9-7.5 10.2-2 2.8 3 2 4.8 3 1.6.8.6 2.4 2.9 2.4 2.4 0 4.3-1 6.8-.7 2.2.2 5.6 1.6 7.7 1.3 1.5-.2 2-1 3.7-1 1.8.2 4.5 1.8 6 1.6 4.8-.5 9.1-4 12.3-4.2 1.5-.1 4-.2 5.4.3 1 .2 2.1 1 3.4 1.6a94.5 94.5 0 0 1-6.3 31 15.2 15.2 0 0 0-10.8 3.4l-19.8 16.5-.2.2-1 .8-2-.5h-.4l.3.7.6 1 .2-.1v-.2h.2l-6.8 5.7-5.3 4.3c-.7-1.4-1.6-2.6-2.7-3.7l.8-1.6h.9c.8 0 3.6.7 5.9 1.3l.4-.3c-.2-.1-.3-.2 0-.2h.1l1.3-1-39.5-9c-.2 0-.3-.1-.3-.2 0-.3 1.5 0 2.9.4l1.2.3-.7-2c-.8-2.2-1-3-.4-1.9a30.2 30.2 0 0 0 1.9 3.2 56.3 56.3 0 0 0-2.3-6.3s.2 0 .3.3c.1.3.2.3.2.1l.2-.3 11.7 2.3c.2.1 0 .6-1.2 3.3l-1.4 3.2 1 .1h.7l1.5-3.1 1.6-3 .4 1c.3.7.4 1.1.5 3.5 0 2 .1 2.7.2 2.7.2 0 .2-.4.3-1.7v-1.8l.8 1.8.7 2c0 .2.6.5.7.3l-.8-2.3-.8-2.3c0-.3.3.2 1.3 1.8.6 1 1 1.9 1.2 2l-.2-.8a305.6 305.6 0 0 1-2.2-5.1c-.5-1-.7-1 2.3-.4l2.2.5.2.6.2.6h-.7a4 4 0 0 0-1.3-.1c-.5 0-.6.1-.6.5 0 .3.1.5.4.5l1.6.4 1.3.3 1 2.6c.7 1.7 1.2 2.6 1.3 2.6.2 0 .4.1.4 0l-1.5-3.8c-.9-2.1-1.5-4-1.5-4l9.4 1.8c0 .1-.6 1.3-.8 1.3a97.5 97.5 0 0 1-7.2-1.3s.7 1.7.9 1.8v-.3c0-.3 0-.4.3-.3a316.4 316.4 0 0 0 5.5 1.2l-1 2.3c-.7 1.2-1.1 2.2-1 2.2l1 .3h1l1.2-2.1 1.1-2.2 1.3.2 1.2.3 1.1 2.8c1 2.3 1.3 2.8 1.5 3l.4-.4-.7-1.8a18 18 0 0 1-1.2-3.2 41.4 41.4 0 0 1 2.8 4.3l-.1-.6c-1.4-3.1-1.5-3.6-1.4-3.6l1.5.2 1.5.4.7 1.7.6-.4c-1.7-3.8-1.8-4.3-1.4-4.1l5 1 1.4-1.2-49.2-9.4h2.2l.5.3h.4v-14h.8l.8-.1h.7c.5 0 .5 0 .6.5v.7l1.6-.1 9-.3h1.4v8c0 7 .1 8 .3 8 .2 0 .2-1.1.3-8.6v-8.6h2.2l.4-.1v13h1l4.5-.1a1797.4 1797.4 0 0 1 36.5-.7l1-1a1033.1 1033.1 0 0 0-42 1h-.2v-4.5l.1-8.3v-2.7h1.5v-2.3l.1-1h2.1a64.1 64.1 0 0 0 3.8-.3c.1 0 .3 0 .5-.2 0 0 .2-.2.2-.5l-.1-.4-.3-.2v-.1l-.1-.3-.2-.2v-.1h-.1l-.3-.4-.7-1a127.4 127.4 0 0 0-2.8-4v-.1l-.2-.3-.5-.5a9.6 9.6 0 0 1-.4-.6v-.1l-.2-.2a7.7 7.7 0 0 0-.5-.7v-.1l-.2-.3s-.1-.2-.3-.2v-.1a7.1 7.1 0 0 1-.8-1v-.4l-.2-.1v-.1h-.1l-.3-.4a32.9 32.9 0 0 1-2.5-3.5 90 90 0 0 0-2.5-3.6l-1-.5h-2.4l-.3-2.3a2762.6 2762.6 0 0 0-1-9.7l-.2-1.4h1a68.6 68.6 0 0 0 5-.7c.3 0 .6-.2.7-.5.2-.3.2-.5.2-.8 0-.6.2-1.2 1-2l.9-.8.2-1v-.3a1 1 0 0 0-.3-.6l-1-.4a21 21 0 0 0-5.1-.5 76.7 76.7 0 0 1-2.5 0l-.2-.1v-1.1l.3-.1 1-.5c.2-.3.4-.6.4-1 0-.3-.2-.7-.4-.9-.3-.2-.6-.4-1-.4h-.2v-2.4l-.1-2.4.3-.2c.4 0 .6-.2.8-.3.3-.2.5-.5.5-.8a1.6 1.6 0 0 0-.3-1.4 1 1 0 0 0-.5-.2h-.1l-.2-.1a8.7 8.7 0 0 1-.6-.2c0-.3 0-.6-.3-.8-.2-.2-.6-.3-.9-.3-.3 0-.4.2-.5.3l-.2.3h-.1a60 60 0 0 0-3.1-.3h-.4c0-.3 0-.6-.3-.9-.2-.2-.5-.3-.8-.3v-10.4l.5-.3c.6-.5.7-1.3.4-2l1.2-.5a8 8 0 0 0 1.6-1l.3-.5-.1-.4a.8.8 0 0 0-.4-.3h-.4l-.6-.4a251 251 0 0 1-11-5.2 413.5 413.5 0 0 0-6.6-3l-.3-.1h-.4l-.2.1-.4.2a112.7 112.7 0 0 0-6.6 3.5 589.8 589.8 0 0 1-7 3.8l-.3.1-.5.3a38.9 38.9 0 0 0-3.5 2.4l-.1.4c0 .2 0 .3.2.4l.2.2.4.2.8.1.7.1v.4c0 .3.2.7.5 1l1 .5v10.1a5.2 5.2 0 0 0-1 .4h-.1a1 1 0 0 0-.8.2c-.3.2-.4.5-.4.7v.2l-1.4.1a16 16 0 0 0-3.6.6c-.4.2-.7.3-1 .6-.3.3-.5.6-.5 1 0 .5.3.9.7 1.1.3.3.8.4 1.3.6l.4.1v4.4h-.4a4 4 0 0 0-1.4.5 1.2 1.2 0 0 0-.6 1c0 .6.4 1 .8 1.3l1.5.5v.7l-1 .1a139.3 139.3 0 0 0-7 .7l-1.2.5c-.3.3-.6.6-.6 1.1l.1.5.2.3.7.6c.8.7 1.1 1.5 1.1 2.1 0 .3 0 .6.2 1 .2.3.5.4.8.4.4.2 1 .2 1.9.3l3.3.3.8.1v.4l-.3 1.8a3712.5 3712.5 0 0 1-6 52.8v.1a165.5 165.5 0 0 1-6.1.3l-39.3 2-3-5.2-7.4 2.4a94.5 94.5 0 0 1-9-27c1.7-.1 3.3-.4 4.8-.8 3.8-1 7.4 1.7 11.1 1 1.4-.4 2.3-1.6 3.9-1.7 2-.1 3.4 1.1 5.3 1.2 3.4.3 7.2-.9 10.4-1.8 2.7-.8 4.4 2 6.8 1.6 2.4-.5 4.5-2.5 6.4-3.7 3-1.8 13.4 4.1 15.3-1.4 1-3.2-2.5-1.8-3.7-3-1.7-1.6-1-5.3-3.9-6.2-1.5-.5-3.3.4-4.9.2-1.6-.2-2.5-3.1-4-3.8-1.8-.7-4.5.2-5.8-1-3.5-3.6-2-6.6-4.3-9.8-1.8-2.6-5-1-7-3.5-1.7-2-1-5.6-3.6-6.3l-.7-.1c-3.4-.2-5.8 6-7.5 7.7-1.2 1.3-2.6 1.2-3.6 2.4-2.1 2.5-2 7.4-4.4 9.4-1.6 1.3-3.9.9-5.2 2.3-1.9 1.8-.4 5.8-2.4 7.1-.7.5-2 .4-2.7 1-.5.3-.8 1.2-1.2 1.7a94.6 94.6 0 0 1 94.3-103zm0 38h.3l1 .6a401.7 401.7 0 0 1 16.2 7.6l.7.3-6.9-.8-6.8-.8-9.5.3-9.4.4h.1s.1 0 0 0l.1-.1h.2a20 20 0 0 0 2-1.1 602.8 602.8 0 0 0 11.8-6.4h.1zm-14.6 6.8v.1-.1zm33.1 1v.2c.1 0 0 0 0 0l-.1-.1v-.1zm-22.8.7c1 0 2 0 2.5.2l1.5.2c2 .3 1.3.4-3.5.6a119.3 119.3 0 0 0-5.8.1c0-.1.3-.3.6-.3l2.3-.6 2.4-.2zm13.9.4c.8 0 2 .2 2.8.5a87.5 87.5 0 0 0 2 1l-1.7-.2-3.2-.4c-3.6-.3-4-.4-2-.6a6 6 0 0 0 1.5-.2l.6-.1zm-27.2.7c-.1.1-.2.2-.1.3h-.2l.3-.3zm1 .4h.3-.3zm.8.2h.1zm.2.5v.1-.1zm19 .6h.2c.2.2.2.5.2 1.2V-1840.5h2a37.6 37.6 0 0 1 1.7.1h.1l.2.1H27799.9v-.8c0 .4.1.6.2.6.2 0 .2-.6.2-5v-5h.1v10.3l1.3.2 1.5.2h.6v-10.1l-.1-.8v-.1.1c.1.4.1.4.4 0l.2-.3-.1 1V-1839.7l.7.2.4.2v.3l-.3-.3c-.9-.3-3.5-.6-6.4-.8a213.3 213.3 0 0 0-22 .2c-1.4 0-2.2.2-2.5.4-.2.2-.3.7 0 .8h1.6l2.8-.2c1.7 0 2 0 2-.5 0-.4.1-.4 2.6-.5a149 149 0 0 1 18 .3c1.5.2 1.7.3 1.7.6 0 .2.1.3 1 .3a896 896 0 0 1 1.6-.2v.3c.2.2.3.3.5.3h.6a52.4 52.4 0 0 1 4 .4l.1-.4v-.2h.3v.3l.2.5.6.3a10.5 10.5 0 0 0 .6.2h.2V-1836.8c-.5-.5-3.7-1-9.7-1.4a280 280 0 0 0-32.8.4h-.6l1.5-.2a20.4 20.4 0 0 0 1.9-.2h.1l.1-.2V-1839l.1-.2h.2l.7-.1.3-.2.5-.1.7-.3v-1c0 .7 0 .9.2.9l.1-.7v.8h1c.4 0 .9 0 1.1-.2h.5v-10a1 1 0 0 0-.3-.4l-.3-.2h.7v-.5c0-.6.4-.5.5.2 0 .5.5.5 2.7.7h-1.3l-1.5-.2v10.3h1.9c.8-.2 2.3-.2 3.3-.2h2v-1c0 .4.1.6.2.6s.2-.2.2-.6v.8h6.5v-9.4h-6.4 6.5v-2.2zm-19 .3.3.2-.3-.1v-.1zm1.8.8h.4l.6.2-1-.1zm27 1v9.3l-1-.2h-.7v-4.4l.1-4.4.7-.2.9-.1zm-26.2 0h.1l.5.1h.2v9h-.7v-4.5zm3.1.5h.5l3.4.2h1.6v8h-1.1l-3.5.1-.9.1v-4.2zm19.3 0V-1841.1h-1.7.1v-.1H27796.9l-1.4-.1h-1.1v-8h1.5a62 62 0 0 0 3.1-.2zm-7 .3v7.8H27787.4V-1849.1h2.4zm5.2 8v.1zm-23.8 1.2.2.2h-.3v-.1h.1v-.1zm21.8 1.8 2 .1 3.8.2h1.7v3.7l.1 3.7h2l.1-2.2v-2.3h1-1v5h1.2a29.4 29.4 0 0 1 2.8.2h.8l.8.1v-4.7l.2-.3.2-.5v5.6l1 .2c.2 0 .4.2.5.3l.2.2c-.5-.4-4.2-.8-9.3-1a466.7 466.7 0 0 0-35.6.4h.2l1-.3V-1835.5l-.7-.2c.5.1.7.1.7-.1s-.2-.3-.4-.3h-.3l.2-.1.3.1v-.2l.2-.3v-.2h-.2v-.2l1-.1c-.2 0-.4.2-.4.5l.1.4.4.2 1.6.1h-.2c0 .2-.4.2-1 .2-.6-.1-.8 0-.8 0 0 .1.1.2.4.3h-.5v5.6l1.7-.1 1.1-.1h.5l.2-.1v-.2l.1-.1v-4.7h-.6c.6 0 .8 0 .8-.3s-.2-.4-.6-.4h.4v-1.7h-.1.1c.1 0 .2.2.2.7l.1.8.3.5c0 .2.2.4.4.5v.1h-.2v.1l-.1.2v.4l-.1 1.7v2.1l.2.2h.3l.1-.1v-.2l.1-.4v.5l3-.1c1.6 0 3-.1 3.1-.2.2 0 .2-.9.2-3.6v-3.6l1.2-.1 7.1-.1h6v.4c0 .3 0 .5.2.5.1 0 .2-.2.2-.5zm17.2.2v.2l-.1-.1zm-38.5.4h.1-.4v.4a2.8 2.8 0 0 0-.1.6l-.2-.7c0-.2.1-.3.4-.3h.2zm31.2 0h.3l-.2.2-.2.2zm-37.5.2h-.3H27767.7zm-.8.3zm43.1 0 .6.1c.7.1 1 .3 1 .4l-.4.1c-.2 0-.3.2-.3.3l-.2.2-.1-.2h-.2l-1.5.2a5 5 0 0 0-1.5.3l-1.2.3h-1.2V-1836.7v1.2h1.4a40 40 0 0 0 4.1-.8l.1-.1v-.3l-.3-.2h-.3zm-41.8.2-.1.1v.3l.1.1v.2c-.3-.1-.5-.3-.5-.4l.5-.3zm37.8.2h.8l-.5.2h-.3zm-37.6 0v.1zm.2 0v.1zm5.6.7zm-.1.2-.1.1-.2-.1H27774zm36.3.3v.2-.1l-.1-.1h.1zm-.7 1v3.8H27808.9a30 30 0 0 0-2.6-.2h-.2v-3.2a181.8 181.8 0 0 1 3.7-.5zm-39.5 0 1.7.2h.3v3.4h-1.2l-.8.1v-1.9zm23.5 1.8-.2.8v1h-2.5c-.2.1.5.1 1.6.1h1.5c-.2 0-.2-.3-.2-1 0-.6 0-1-.2-1zm-3.5 1.7a1 1 0 0 0-.5.1c-.2.1-.1.2.3.2s.6 0 .5-.2l-.3-.1zm19.2.4v.1zm-15.9.6v2c0 1.2.1 2 .2 2s.2-.8.2-2v-1.8h.5c.3 0 .4.1.4.4 0 .2 0 .4.2.4s.3-.2.3-.4c0-.4 0-.4 1-.4a19.4 19.4 0 0 1 3.3.5l.3.2.8.2 1 .5.7.4c.3.1.4.3.4 1.1v1h2.1v-1.5h.2v1.9h4.6l1 .1v-1.5l.3-.6v1.7c0 .2.2.3.3.4h.3l1 .1 1.9.1 1.7.1v.3c0 .3-.1.3-1.4.2-8.9-.7-29.7-1-41-.5-2.6.1-2.6.1-2.7-.2 0-.2-.3-.3-.7-.3h2.7v-2h-1.4c.9 0 1.4 0 1.4-.2s0-.2.3 0c0 .2.3.3.4.3l-.1.1-.1.3a3.3 3.3 0 0 0 0 1.3l.1.2h.4v-.2l.1-.1h3.2l3-.1.1-1c0-1 0-1.1.6-1.4l.6-.3.7-.1.5-.1h.2l.4-.2a25.2 25.2 0 0 0 2.5-.5c.2-.1.7-.2 4.3-.3zm-12.2.2c.5 0 .8 0 .7.2h-.2l-.6.3c-.6.4-.6.3-.6-.1s0-.4.7-.4zm20.8.2c.7 0 .7 0 .7.3 0 .5 0 .5-.7.2-.8-.4-.8-.5 0-.5zm2.9 0 .4.1h-.2l-.1.4v.7l.2.2.2.1 2.4-.2 1.2-.1h-.4l-1.2.3s-.6.2-1.3.2h-1.1v-.8zm-31.8.1h.5l-.1.2v.7l-.2-.3zm-.1 0v1.2h-.7l.4-.1.2-.2v-.6l-.3-.2h-.5zm-6.2.2zm0 0c-.2.1-.2.2-.2.3v-.1l.1-.1zm2.7.2h-.1l-.1.4v.2h.1l.2.1h.5c.4.1.8.2 1.1.1h.4-.1c0 .2-.3.2-1 .2-1.3-.1-1.4.1-.5.3h-.7v2.2h.1l-2.7.1h.4l1.8-.1v-2.4h-.2c.1 0 .2 0 .2-.2s-.1-.3-.5-.3c-.5 0-.8-.3-.4-.4l1.5-.2zm40.2 0 1.4.2c.2 0 .2 0 0 .2-.2 0-.3.3-.3.4l-.2.4v.1-.1l-1.4.1h-.7c1.5 0 2-.2 2-.5 0-.4 0-.4-.4-.3h.1v-.3l-.2-.1h-.3zm0 2.1v.7h-.1l-2.6-.1h-1.1V-1826.7h.8l2.6-.2zm-39.6 0h.3l1.6.3v.2h-1.9v-.2zm-9.7 2.1-.4.1h.4zm59 .2.5.2s-.3 0-.5-.2zm-60.1.2zm-.2.3c0 .1.1.4.4.7l-.3-.3-.2-.2s0-.1 0 0l.1-.2zm60.7.4zm-58.6 3.6.3.2-.3-.1zm55 .5h-.3l-1 .1 1.3-.1zm-48.9.4h1l-.1.6-1 8 .7-5.5.2-1.8v-1.1l-.3-.2h-.5zm23 5a22.2 22.2 0 0 1 5.4.3c.6 0 .7 0 .7.3s-.1.3 1.4.4a15 15 0 0 1 2.8.3c.8 0 .9.1.9.9l.1.8v-2.4h.7l.7-.1c0-.2.1-.2.3-.2.6.3 2.2.6 2.9.7.4 0 .8 0 .9.2l1 .4 1 .4c0 .2.3.3.5.3.5.2.5.2.9 4.2l.3 3.3h.8l.8-.1v.4h3.2l.3.1a206.6 206.6 0 0 0 5.4 7.5l.1.1.1.1v.2l.2.2a9.7 9.7 0 0 0 1 1.2v.1l.1.2.1.2.3.4.3.4v.2h.1l.1.2.4.5.4.4v.2c.1 0 .1.1.1 0v.3l.4.2s-.1 0 0 0v.2l.7 1a133.2 133.2 0 0 1 2.9 4l.2.1v.4l.2.2h-1.3l-2.1.1h-3v.4h-1c-.7 0-5.4 0-10.5.2l-9.4.2-7.8-.7-7.8-.6s.5 2 .7 2.2l.3.8.7 2.1a359 359 0 0 1 4 11.6c.5 1.6.6 2.6 1.1 13.8l.3 5.7c0 .3.4.4 2.5 1l2.4.7 3 .9 3 .8c-.8.5-1.5 1-2 1.7a15.2 15.2 0 0 0-10.1-4.5h-8c-2 .2-3.9.7-5.7 1.6a56.4 56.4 0 0 0-10.7-2l-.2-.1-5-.2h-.1c-7.3 0-14.5 1.4-21 5.1l-.1.2c-2-2.1-4.6-3.5-7.4-4.2l-14.1-5.6-3.6-6 38.8-1.8a678.4 678.4 0 0 0 6.5-.3h.2l.2-.2V-1763.3l.2-1.8.7-5.5-1 8.1-.5.2c-.5.1-.6.1-.3.3.7.5.7.6.5.7l-1 .1c-.8 0-4.9.7-6.2 1-1.7.4-2 1-1 1.4 1 .4 2.8.7 5.3 1l2.2.3v2.3c0 1.5.1 2.4.2 2.6.3.6 2.3 1.2 5.5 1.7 2.5.3 2.3.4 2.4-.4a9399.2 9399.2 0 0 0 5-60.6 29 29 0 0 1 6.7-1.7l2-.3c.7 0 1.6 0 2-.2l5.8-.3zm8.7 3.8a15 15 0 0 0-2.6.1s1.2.2 2.5.2l2.6.1.1 1.4.1 1.6c.2.6.3.4.2-.5l-.1-1.8v-1zm4 0v.3l.3 2.4c0 1.2.1 2.1.2 2.1a26 26 0 0 0-.4-4.7zm12.9 9.7c-.1 0-10 13.7-10 14-.1.2 0 .2.7 0l.4-.2 1.1-1.6 1.1-1.5c0-.1.4-.7 1-1.3l.9-1.3c0-.2.7-1.1 1.3-1.9l.7-1 1-1.5.8-1.1c0-.4.3-.2.8.5l1.2 1.7.4.5c0 .1 0 .3.7 1l.3.6.7.8.4.7.2.3c.2 0 .3.1.3.2s1 1.7 1.5 2.2l.6.8.5.7.3.4c.2.6.5.7 1.9.6h1l-4.8-6.8-5-6.8zm6 3.7h-.1zm.3.7h.2-.1zm1.4 1.7v.1h-.1zm.7 1h-.1zm4.8 6.8zm.4.8h.2-.1zm-8 21.6-.2.3c0 .6 1.4 4.6 1.8 4.6h.3l-1.9-5zm1 .1c-.2.2.3 1.3.6 1.6.2.1.2 0 .1-.1 0-.2 0-.3.2-.3.6 0 13.3 2.2 13.4 2.4 0 0-.2.8-.7 1.7-.7 1.4-.8 1.5-.5 1.7.2.2.5.3.8.3.6 0 .6 0 1.4-1.7.4-.9.8-1.6 1-1.6l.6 1.3.8 2c.3.7.5.9.7.9l.3-.1a56 56 0 0 0-2.6-5.4c-.4-.1-.4 0-.2.4.2.3.2.3-.1.3-.3 0-.5-.2-.7-.5l-.3-.5-7.4-1.2-7.5-1.2zm17.3 3c0 .2.5 1.2.7 1.3l.3.5c0 .2.2.3.2.3v-.5c-.2-.1-.2-.3-.2-.4l12.7 2.2 1.3-1-6.2-1.1-8.8-1.4zm37 1.6 11.8 2.5-11.1 51.4 8.2 1.8-2.4 10.9-8.2-1.8-3.7 17.5-13.4-3 3.8-17.4-33.7-7.3-4.1-10.8 9.8-8.1 23.3-19.3zm-40.8 4.5.3.5.3.8c0 .3 0 .3-.4.2l-.6-.2c-.3 0-.4-.1-.3-.2l.4-.6zm2.2.3 2.8.6c.4 0 .8.8.8 1.3 0 .2 0 .2-1.2-.1-.5-.1-1-.2-1 0h-.5c-.2-.2-.2-.2 0-.2.1 0 .1 0 0-.2-.5-.1-1.2-1.4-1-1.4zm-32.5 2c.2 0 5.5 1.2 5.7 1.4l-1.2 2.8c-1 .1-1.9.4-2.7.7a38.3 38.3 0 0 0-1.8-4.8zm-1.6.2a110.7 110.7 0 0 0 1.9 5.3l-.6.4-.2-.2c0-.6-.2-.9-.4-2a16 16 0 0 1-.8-3.5h.1zm9 1.6 4.2.9c.6.1.6.1.6 1v.2h-5.7l1-2.1zm-7.4.8.3.4.4.8.7 1.2-.6.2c-.8-2.2-1-2.8-.8-2.6zm12.8.4c.2 0 .6 0 1.3.3l1 .2.1.5-1.3-.1h-1.3c0-.6 0-.8.2-.9zm-138.7.8zm42.8 0a15.2 15.2 0 0 1 0 0zm100.1.2h.2c.3.2 1.2.4 3.6 1 .6 0 1.1.2 1.1.3l-1.3-.2-1.7-.3-2-.5.1-.3zm-146.5.2zm127.6.7.2.5c0 .3.2.5 1 .7l-.4.2-.7-.3-.2-.6v-.5zm24.4.4h.6l.7.3-.8 1.5-1.3-1 1.2.4-.1-.7zm-2.2.1zm.3 0 .6.1c.4 0 .7.2.8.3.2.2-.2.1-.9-.1zm5.9.8c.2 0 .3.1.3.2-.1.1-.4.2-.7 0-.3-.1 0-.3.4-.2zm1.4.3c.2 0 .3.1.3.2l-.3.1-.2-.1c0-.1 0-.2.2-.2zm40.4 2.2-36.7 30.1 28.9 6.3zm-111.7 7.4a50.7 50.7 0 0 1 7.5.6c2.3.4 4.4 1 6.4 1.6v7a29.3 29.3 0 0 0-6.3-1.8c-2.2-.4-4.6-.6-7-.6-5.9 0-10 1.5-12.5 4.7a22 22 0 0 0-3.6 13.5c0 5.5 1.4 9.7 4 12.6 2.6 2.9 6.7 4.3 12.2 4.3a33 33 0 0 0 13.2-2.3v7a39.1 39.1 0 0 1-13.8 2c-7.8 0-13.7-2.1-17.7-6.4-4-4.2-6-10-6-17.2 0-5.2 1-9.6 2.6-13.3 1.7-3.8 4.3-6.7 7.8-8.7 3.4-2 7.8-3 13.2-3zm-61.5.6 2.6.2c2.5.2 4.6.9 6.4 2 2.3 1.3 4 3.2 5.2 5.6 1 2.3 1.7 5 1.7 8a15 15 0 0 1-4.4 11.3 16 16 0 0 1-11.8 4.2h-12.7v16h-8v-47.2zm22.2 0h8v47.2h-8zm69 .1v25.7l16.8-21.3 3.4-4.3h7.4l-10.8 13.7-4.6 5.8 17.8 27.7h-8.5l-13.8-22-7.7 9.8v12.2h-8v-47.3zm-104.2 6.2v18.7h11.3c3.1 0 5.5-.8 7.2-2.4a9.3 9.3 0 0 0 2.4-6.8c0-3-.8-5.4-2.4-7-1.5-1.7-3.8-2.5-6.9-2.5zm24.6 58.6a21.6 21.6 0 0 1 6.1.9v3.1c-1.7-.6-3.5-1-5.6-1-1.6 0-2.8.3-3.7.7-.9.4-1.3 1.2-1.3 2.3 0 .6.1 1.2.5 1.6.3.4.8.7 1.5 1l3.2 1c1.8.4 3.1 1 4 1.5a5 5 0 0 1 2.1 2.2c.4.8.6 1.7.6 2.7 0 1.9-.7 3.3-2.1 4.4-1.4 1-3.5 1.6-6.3 1.6s-5-.3-6.7-1v-3.2a20.5 20.5 0 0 0 6.3 1.2c1.7 0 3-.2 3.9-.6.8-.4 1.2-1.2 1.2-2.4 0-.7-.1-1.3-.5-1.8a4 4 0 0 0-1.7-1.1c-.9-.3-2-.7-3.4-1a11 11 0 0 1-4.9-2.3c-.9-1-1.4-2.2-1.4-3.8 0-1.9.7-3.3 2.1-4.4 1.4-1 3.4-1.6 6.1-1.6zm17.4 0a21.6 21.6 0 0 1 6.1.9v3.1c-1.7-.6-3.5-1-5.6-1-1.6 0-2.8.3-3.7.7-.9.4-1.3 1.2-1.3 2.3 0 .6.2 1.2.5 1.6.3.4.8.7 1.6 1l3.1 1c1.8.4 3.1 1 4 1.5a5 5 0 0 1 2.1 2.2c.4.8.6 1.7.6 2.7 0 1.9-.7 3.3-2 4.4-1.5 1-3.6 1.6-6.4 1.6-2.8 0-5-.3-6.7-1v-3.2a20.5 20.5 0 0 0 6.3 1.2c1.8 0 3-.2 3.9-.6.8-.4 1.3-1.2 1.3-2.4 0-.7-.2-1.3-.6-1.8a4 4 0 0 0-1.7-1.1c-.9-.3-2-.7-3.4-1a11 11 0 0 1-4.9-2.3c-.9-1-1.3-2.2-1.3-3.8 0-1.9.6-3.3 2-4.4 1.4-1 3.4-1.6 6.1-1.6zm40.5 0a17.7 17.7 0 0 1 6.2 1v3.2a16 16 0 0 0-6-1c-2.6-.1-4.5.6-5.6 2a10 10 0 0 0-1.6 6.1c0 2.5.6 4.4 1.8 5.7 1.2 1.3 3 2 5.5 2l3-.3c1-.1 2-.4 3-.8v3.2a17.9 17.9 0 0 1-6.3 1c-3.5 0-6.2-1-8-3a11 11 0 0 1-2.7-7.8c0-2.3.4-4.3 1.1-6 .8-1.7 2-3 3.6-4 1.5-.8 3.5-1.3 6-1.3zm61.3 0a21.6 21.6 0 0 1 6.1.9v3.1c-1.7-.6-3.5-1-5.6-1-1.5 0-2.8.3-3.7.7-.9.4-1.3 1.2-1.3 2.3 0 .6.2 1.2.5 1.6.3.4.8.7 1.6 1l3.1 1c1.8.4 3.1 1 4 1.5a5 5 0 0 1 2.1 2.2c.4.8.6 1.7.6 2.7 0 1.9-.7 3.3-2 4.4-1.5 1-3.6 1.6-6.4 1.6-2.8 0-5-.3-6.7-1v-3.2a20.5 20.5 0 0 0 6.4 1.2c1.7 0 3-.2 3.8-.6.8-.4 1.3-1.2 1.3-2.4 0-.7-.2-1.3-.6-1.8a4 4 0 0 0-1.7-1.1c-.8-.3-2-.7-3.4-1a11 11 0 0 1-4.9-2.3c-.9-1-1.3-2.2-1.3-3.8 0-1.9.6-3.3 2-4.4 1.4-1 3.4-1.6 6.1-1.6zm73.4 0a21.6 21.6 0 0 1 6 .9v3.1c-1.6-.6-3.5-1-5.5-1-1.6 0-2.9.3-3.7.7-1 .4-1.4 1.2-1.4 2.3 0 .6.2 1.2.5 1.6.3.4.8.7 1.6 1l3.2 1c1.7.4 3 1 4 1.5a5 5 0 0 1 2 2.2c.4.8.6 1.7.6 2.7 0 1.9-.7 3.3-2 4.4-1.5 1-3.6 1.6-6.4 1.6-2.8 0-5-.3-6.7-1v-3.2a20.5 20.5 0 0 0 6.4 1.2c1.7 0 3-.2 3.8-.6.8-.4 1.3-1.2 1.3-2.4 0-.7-.2-1.3-.5-1.8a4 4 0 0 0-1.8-1.1c-.8-.3-2-.7-3.4-1a11 11 0 0 1-4.8-2.3c-1-1-1.4-2.2-1.4-3.8 0-1.9.7-3.3 2-4.4 1.4-1 3.4-1.6 6.2-1.6zm-246.6.3h3.7l6.8 13.9 6.7-13.9h3.7v21.4h-3.5v-15.5l-5.8 11.8h-2.2l-5.8-11.8v15.5h-3.6zm32.6 0h4l8.2 21.4h-3.7l-2.2-5.5h-8.5l-2.2 5.5h-3.7zm55.4 0h4l8.2 21.4h-3.8l-2-5.5h-8.7l-2 5.5h-3.8zm33.7 0h3.6v9.3h10.3v-9.3h3.6v21.4h-3.6v-9.3h-10.3v9.3h-3.6zm21.5 0h3.6v13.3c0 1.8.5 3.2 1.5 4 1 1 2.4 1.4 4.2 1.4a6 6 0 0 0 4.1-1.4c1-.8 1.5-2.2 1.5-4v-13.3h3.6v13.5c0 2.6-.8 4.7-2.4 6.1a10 10 0 0 1-6.8 2.1c-3 0-5.2-.7-6.9-2.1-1.6-1.4-2.4-3.5-2.4-6.1zm41 0h14.8v2.8h-11.3v6.5h10v2.8h-10v6.5h11.3v2.8h-14.9zm16.9 0h17.2v2.8h-6.8v18.6h-3.6v-18.6h-6.8zm18.8 0h17.2v2.8h-6.7v18.6h-3.7v-18.6h-6.8zm-185.3 3.3-3.7 9.8h7.4zm55.4 0-3.7 9.8h7.4z" style="color:#000;fill:url(#b);fill-opacity:1;stroke-width:2.45093;stroke-linecap:round;stroke-linejoin:round;-inkscape-stroke:none;paint-order:fill markers stroke" transform="translate(-27645.6 1931.7)"/></svg>