<svg xmlns="http://www.w3.org/2000/svg" xmlns:xlink="http://www.w3.org/1999/xlink" xml:space="preserve" width="944.9" height="1157.7" viewBox="0 0 250 306.3"><defs><linearGradient id="a"><stop offset="0" style="stop-color:#162f75;stop-opacity:1"/><stop offset="1" style="stop-color:#a15cff;stop-opacity:1"/></linearGradient><linearGradient xlink:href="#a" id="b" x1="25537" x2="25787" y1="-1265.6" y2="-1571.9" gradientUnits="userSpaceOnUse"/></defs><path d="M25662-1572c-69.2 0-125 55.9-125 125v19.3c0 14.4 2.4 28 6.8 40.9a15.2 15.2 0 0 0-6.8 12.7v47.1c0 7 4.7 12.9 11.3 14.7a15.2 15.2 0 0 0 14.6 11.3h8c5.6 0 10.7-3.2 13.3-8.2V-1287.6c0 3.2 1.2 6.3 3.2 8.6 1.7 1.8 8.7 9 10.8 10.6 2.2 1.8 5 2.8 8 2.8h121.5a13 13 0 0 0 13-13v-2.7c-.2-2-.7-3.8-1.6-5.5l.3-1v-2.8l-.3-1 .4-.8 11.8 2.6a15.2 15.2 0 0 0 18-11.7l1-4.3c5.5-1.5 9.8-5.8 11-11.4l2.4-10.9c1.2-5.6-.9-11.3-5.3-15l8.2-38c1-4.3 0-8.6-2.3-11.9l-1.7-2c2.8-10.4 4.4-21.3 4.4-32.7v-19.2c0-69.2-55.8-125-125-125zm0 7.2a117.8 117.8 0 0 1 110.3 159.4l-1-.9c-1.9-1.8-4.4-3.2-7.1-3.7l-10.1-2.2a97.9 97.9 0 0 0 5-50.6v-.3a96.7 96.7 0 0 0-4.8-18l-.1-.4-2.3-5.4v-.2a98 98 0 0 0-7.8-14.2l-.4-.6a98.4 98.4 0 0 0-179.3 68.1l-1 1.3-.6.8-.2.3-.1.1c0 .1-.2 0-.2.9 0 .5.3 1 .5 1.4l.7.4.7.1h1l.2 1v1.6a271.4 271.4 0 0 1-8 .7v-.7h.3l1.3-.2.8-.2.7-.7c.2-.4.3-1 .2-1.4l-.2-.6-.1-.1-.2-.2-.2-.2a46.9 46.9 0 0 0-3.1-3.3l-4-4-6.6.2h-1.7a117.8 117.8 0 0 1 117.3-128.2zm0 23.2c32.2 0 60.6 16 77.7 40.6l-57.9 13.5 60.9-9a94 94 0 0 1 5 9.6l-65.9 2.7 68.4 2.9c1.4 3.6 2.6 7.3 3.5 11l-71.9-10.5 73.3 17a95.2 95.2 0 0 1-4.9 51h-2.3c-3 .2-6 1.4-8.4 3.4l-12.1 10-1.5-.8a77.8 77.8 0 0 1-3.3-2.3 8.7 8.7 0 0 1-2-3.4c-.4-1.4-1-2.1-1.8-3a35.8 35.8 0 0 0-4.5-3.4l-1.3-.7-1-.3a58 58 0 0 0-5.7-1l-10-1.6-4.5-.6v-2c0-1.6 0-2.5-.2-3.1l-.1-1a3 3 0 0 0-.5-.8c-1-1.2-2.2-1.3-3.8-1.6-1.7-.4-4-.6-6.9-1l-3.2-.2-.3-4.8a1863.6 1863.6 0 0 0-3.3-35l-.6-3.9-.2-1.3.5-.7c.3-.5.4-1 .5-1.5h-.5.5v-.3.2c.3 0 .6-.2 1-.5l1-.8v-9.5c0-.8.1-1.2-.4-2-.4-.6-.8-.7-1-.8a13.5 13.5 0 0 0-3.2-.9h.3v-2l-.4.3c.3-.2.6-.5.9-1 .2-.5.2-1 .2-1.2 0-1-.4-1.9-1-2.7-.7-1-1.6-2-3-3.4l-.8-.7v-.4c.2-1.5 0-3-1-4.1-1.2-1.1-2.7-1.3-4.3-1.3-1.7 0-3.2.2-4.3 1.3-1.1 1-1.3 2.6-1.2 4.2v.3l-.5.5c-1.9 2-2.9 3.1-3.5 4.2a3.1 3.1 0 0 0-.6 2.6 3.4 3.4 0 0 0 .4 1.1l.2.4v1.9h.7c-.7 0-1.4.2-2 .3-.7.2-1.2.2-2 .8l-1 .8v11.3l1 .8 1 .5v-.2.2l.5.2-.5-.1c.1.5.2 1 .5 1.5 0 .3.3.5.5.7a68.2 68.2 0 0 1-.8 5 1978 1978 0 0 0-3.2 34.4l-.4 4.2v.1h-8.2a1105.5 1105.5 0 0 0-49.8.5v-1.7h.7c.2 0 .5 0 .8-.2.2 0 .3 0 .6-.3s.9-1 .7-1.9c-.1-.6-.2-.5-.2-.5l-.1-.2-.2-.3-.6-.7-1.8-2.4-3-3.8-4.3-.1-8-.1H25569.7l-.4.1h-.3l-.5.4h-.1l-.7.5a95.7 95.7 0 0 1 1-25.5l73.4-17-72 10.4a94 94 0 0 1 3.6-11l68.4-2.9-66-2.7c1.5-3.3 3.2-6.5 5.1-9.5l61 8.8-58-13.4a94.5 94.5 0 0 1 77.7-40.6zm2.1 39.4c.4 0 .6.1 1 .5.4.5.5 1 .4 2.5l-.1 1.2 2 2c2 2.2 2.8 3.4 2.8 4.1 0 .4 0 .5-.4.7l-.4.2.1 2.3v2.4l-.9-.2-4.9-.2h-4.2l-.4-.4a6.8 6.8 0 0 0-2.5-1.4c-.6-.1-.7-.1-1.2.1-.4.2-.7.5-.8.7-.2.4-.2.3-.1-1.4v-1.9l-.3-.2c-.3 0-.4-.2-.4-.5s.1-.4.5-.5c.7-.3 2.9-.6 5.2-.9 2-.2 2.6-.4 4.3-1.2l.7-.3v-1c0-1 0-1.1-.4-1.4l-1.3-1c-.8-.8-1.9-1.5-2.4-1.5 0 0-.3 0-.4-.2-.1-.2-.1-.2.4-.6a28.8 28.8 0 0 1 3.7-2zm-4.2 16h4.2l4.4.1c0 .1 0 .2.1 0l2.4.2a6 6 0 0 0 1.3.1h.3c0 .2.1.2.2.1l.2.1c0 .1.1.2.3.2.1 0 .3 0 .4.2.2.1.2.8.2 4.8v4.7l-.3.2-.9.3-.6.3-.3 1c-.2 1.2-.4 1.6-1 1.7l-.3.1.2.5 1 6c.6 4.7.8 7 1.7 17a1854.1 1854.1 0 0 1 2 24.1l2.5.3 6.2.6c.2.1.3.2.3.4l.5.3.9.2H25684.9v1c0 1 0 1-.4 1l-.3.1v-1l-.1-1.2-1-.3h-.8v2.9h-.8v-1.5c0-1.7 0-1.6-1.4-1.7h-.9v3.5h-.7v-1.7l-.1-1.9-1.4-.2h-1.3v4.2l-2.7.2-12.7.8-2 .1v-1a918.7 918.7 0 0 1 2-43.7 156.6 156.6 0 0 0 1.4-8.9c0-.3 0-.3-.4-.5a42 42 0 0 0-7.9.4c-.4 0-.9-.3-.7-.4.1 0 .2 0 .2-.2h-.2c-.2.1-.4-.2-.6-1.3 0-.5-.2-1-.3-1-1-.3-1.6-.6-1.6-.7 0-.7 5-1.2 11.8-1.2a11.7 11.7 0 0 0 2.7-.2c.2.2 2 .3 2 .1h.5l1.2.2H25670.6v-5.4l.1 2.5.1 2.8c0 .2.2.3.6.4h.7c0-.2.2-.1.2 0s.2.2.5.2h.4V-1484.8c.2 0 .2 1.4.2 4.3 0 3.8 0 4.3.2 4.3s.2-.4.2-4.3c0-4.2 0-4.4-.3-4.6-.2-.2-.2-.2-.2 0l-.3-.1c0-.2-.3-.3-.5-.4-.2 0-.3 0-.3.3s0 .3 0 0c-.1-.3-1.2-.8-1.4-.5h-.4c-.1-.2-.4-.2-.5-.2-.3 0-.3 0-.3.4l.1 1c0 .4 0 .5.3.5s.4.1.2.3v3.6l.2 2c0 1.2 0 1.1-1 1h-.4v-4.4c0-2.8-.2-4.4-.2-4.3-.1 0-.2 1.6-.2 4.3v4.3h-.3l-.8-.1h-.6v-4.4c0-3.3 0-4.3-.2-4.3l-.1 4.2v4.3h-2v-4.3l-.1-4.3c-.1 0-.2 1.6-.2 4.3v4.3h-2v-4.4c0-3.4 0-4.3-.2-4.3-.1 0-.2 1-.2 4.3v4.3h-.4a3 3 0 0 0-.6 0c-.3.2-.3.1-.3-.4a82.4 82.4 0 0 0-.8-7.8zm-6.2.8v.9-.9zm-2.5.1v.5-.5zm-.7.4v8.5-8.5zm22.3.4v4c0 2.5 0 4-.2 4v-3.9c0-3.3-.1-3.8-.3-3.7l-.2-.1.3-.3zm-21.7.1h.4c.2.1.2.2 0 .2l-.2 3.8-.1 3.8-.1-4zm20.6.1-.2 7.5-.2-3.5v-3.6h-.3c-.5 0-.3-.2.2-.3h.5zm-19.5.2h.5c.6.1.7.2.1.2h-.4v3.6l-.1 3.5v-3.6zm1.6.2c.2 0 .2.1 0 2.2-.1 1-.1 1-.1-.6l.1-1.6zm18.4 6.5v.4-.4zm-12 4-.2.1.2.1.2-.1-.2-.1zm-1.6 0a2 2 0 0 0-.5.1c-.3.1-.3.1.2.1h.5c0-.2 0-.2-.2-.2zm-3.3.2c-.1 0-.2 0-.2.2l.6-.1h-.4zm-.5 0-.3.2c-.1 0-.1.1.1.1l.3-.1-.1-.1zm-1 .2-.1.1v.1h.2v-.2zm-1.7 2.5h.2c0 .1 0 .1-.1 0zm-72.2 33.3h4.8l2 2.6 2.5 3.3.6.7h-1.5l-1.4.2v5.2l-2.3.1-3.2.2h-.8l-.1-.7c-.1-.6-.2-.7-.4-.7s-.2.1-.2.5v.6l-1.2-.1c-1 0-1.1 0-1.3.2-.2.3-.3.3-.3 0s0-.5-.2-.5a1 1 0 0 1-.2-.5c0-.2-.2-.3-.4-.3-.4-.1-.5 0-.5.5s0 .5-.4.5-.6 0-.9.4c-.4.4-.5.4-1.5.5h-1.2v-1l-.2-1h-.2c-.2 0-.2.3-.2.5v.5h-1.5l-1-5h.9c5.4 0 6.5-.2 7.7-.6.4-.2.5-.3.4-.6 0-.2 0-.4.4-1l.5-.8a27.7 27.7 0 0 0-4.2-1.9l3-.3 3-.3c.2 0 .1-.4-.2-.8zm-7.7.4c.6 0 .6 0 .6.4 0 .3 0 .4.2.5.3 0 .3 0 0 .5-.2.4-.6.9-1.2 1.2l-.1-1v-1.3c-.2-.3-.1-.3.5-.3zm-20 2 1.9 1.9c3.4 3.6 4.7 4.9 4.6 5h-1.6l-1.6.1v4.6h-.4l-2.5.3c-2.7.4-4.6.8-5.7 1.2-.9-4-1.6-8-2-12.2l.3-.1c.3 0 .7-.2 1-.4.4-.2.9-.2 3.3-.3zm12.7 4.4h-.7.7zm4 5h-.1c0 .2-.2.3-.3.3l.3-.3zm57.7 0c8.8.1 15.6.2 13 .3h-2v2.4a12 12 0 0 1-.3 2.4c-.1.1-.1-.5-.1-2.2 0-1.8 0-2.3-.2-2.3l-.3-.1c0-.2-.4-.2-2.4-.2h-2.3v1.3c0 1.7-.2 3.3-.3 3.3l-.2-2.1-.1-2.2c-.1 0-.2 0-.2-.2l-2.4-.1h-2.5v2.2l-.2 2.3-.1-2c0-2.7.2-2.6-3-2.5h-2.4l-.1 2.1c-.1 2.9-.2 3-.2.5 0-2.8.1-2.7-3-2.6h-2.4l-.1 2.5c0 1.3-.2 2.4-.3 2.4v-2.2c0-3 .1-2.8-3-2.7l-2.3.1-.2 2.6a15 15 0 0 1-.2 2.5v-2.4c0-2-.1-2.3-.3-2.3l-.2-.2c0-.2-.3-.2-2.4-.2a11 11 0 0 0-2.4.1l-.2 2.7a18 18 0 0 1-.2 2.5v-2.4c0-2-.1-2.4-.3-2.4 0 0-.2 0-.2-.2 0-.3-4.5-.3-4.8 0a9 9 0 0 0-.2 2.6l-.1 2.4v-2.2c0-1.7-.1-2.2-.2-2.3a.7.7 0 0 1-.3-.3c0-.2-.3-.3-1.8-.3l-2.4.1-.6.1v1.4c-.2.1-.2.4-.2.7v.6h1l2.6.3h1.5l-2.4.1-2.6.2v1.1c0 .6-.1 1-.2 1l-.2-2.3-.2-2.7v-.4h-2.3c-1.2 0-2.2.1-2.3.2l-.1 1.2v1l2.3.1 2.3.2v.6H25586.7v1.2l-.1 1.3c-.1 0-.2-.7-.2-1.8 0-2.2-.1-3.3-.3-3.4-.1 0-.2.3-.2 1.3v1.4h-2l-2.2-.2h-.3v1.6c0 1-.1 1.7-.2 1.7l-.1-2.5c0-2.7 0-3.2-.3-3.1 0 0-.2.4-.2 1 0 1 0 1-.3 1l-3.7-.6h-.3v2.3l-.1 2.3c-.1 0-.2-1-.2-2.7 0-2.1 0-2.8-.2-3.2-.1-.4-.2-.4-.8-.4-1 0-1.1 0-1.6 1l-.5.8-.7.2h-.7v3.1l-.2-.5v1.6-2.4c0-2.3-.2-3.2-.5-3l-.1.7-.1.6a92 92 0 0 1-.6-2 734.8 734.8 0 0 1 56.6-1.3zm18 .3h2.4-2l-2 .1v1.2c0 1.8-.2 3.7-.3 3.7v-2.3c0-1.8-.1-2.2-.3-2.3a.4.4 0 0 1-.2-.2c0-.2.4-.2 2.3-.2zm3.3.1h.5l-.1 1.8a83.2 83.2 0 0 0-.3 2.9l-.1-2.2c0-1.7 0-2.1-.2-2.1l-.2-.2c0-.2 0-.2.4-.2zm-67.4.6h-1.6l-1.7.3c-.1.1.9.6 2 .9l1 .2.1-.2c.2-.1.2-.4.2-.7zm-3.9.3-.2.3.1.2.2-.3-.1-.2zm45 .1h1-1zm-50.9.2c-.2-.1-.6 0-.5.2.1.2.7.1.7 0 0 0 0-.2-.2-.2zm-4.4 0 .6 2.7v1.4c0 1-.1 1.5-.2 1.5l-.1-2.3c0-3 0-3-2-2.8l-1.6.2-.3 2.4a12 12 0 0 1-.2 2.3l-.1-2c0-1.7 0-2.1-.2-2.2 0 0-.2-.1-.2-.3 0-.2-.2-.2-.4-.2l-1.4.2a4 4 0 0 0-1.2.2l-.2 1-.2 3-.1-1.7c0-1.5 0-1.7-.3-2-.3-.3-.3-.3-1.4-.2l-1.2.2c-.1 0-.2.6-.2 1.7l-.1 1.7c-.3.3-.4-.2-.4-1.5l-.1-1.3h-.2l-.2 1.2v1.2l-.6.1a5 5 0 0 1-1.1 0h-.7v-1c0-1-.1-1.1-.3-1.1-.2 0-.2 0-.2 1l-.1 1-1-.2-1-.1v-.7c0-.5 0-.6-.2-.7-.2 0-.2.1-.2.6 0 .6 0 .7-.2.6l-.7-.1c-.4 0-.5-.2-.5-.3 0-.3-.3-.4-.5-.2l-.2-.8c1.9-.8 7.3-1.6 15-2.2l4.3-.3zm1 .4v1-1zm119.5.9c.2 0 .4 0 .6.2h-.1c-.4 0-.4 0-.4.6v.7c-.2 0-.2-.1-.2-.4 0-.3-.1-.5-.3-.6-.2-.1-.2-.1 0-.4l.4-.1zm1.4.4h.2l.2.4c-.1.3-.4.3-.7 0-.2 0-.2-.1 0-.3l.3-.1zm1.5.2.1.5a51.3 51.3 0 0 1-.6 9l-.1-4c0-3.5 0-3.8-.3-4-.2-.1-.2-.1-.3.1v2.8c0 1.5-.1 2.5-.2 2.6v2.2l-.1 2-.1-4.4a66.1 66.1 0 0 0-.3-4.7l-.2-.2c0-.2-.1-.2-.3-.2-.3 0-.3.1-.3 1.8 0 1.6 0 1.7.2 1.9.2 0 .3.2.3.7v.6h-1.1v6c-.2 0-.2-1.7-.2-5 0-4.8 0-5-.3-5.1l-.2-.4-.4-.1c-.3 0-.3 0-.4 1 0 1 0 1 .3 1.2.3.2.4.3.4 1.2v1l-1-.2h-.8v3.6l-.1 3.6c-.1 0-.2-1.8-.2-5.2 0-5.1 0-5.2-.2-5.3-.2 0-.3-.2-.3-.3 0-.2-.3-.3-.6-.1l.2.2c.3.2.3.2.3 1.8v1.6l-.4-.1h-.7c-.2 0-.2-.1-.2-.6 0-.4 0-.6-.4-1.1l-.5-.8.3-.4c.5-.5.5-.6 0-.6s-.6.3-.6 1.7v1.2l.5.2.5.2h-1v8.4h.7l-.7.2h-.3v-5.4c0-4.7 0-5.5-.2-5.7a.6.6 0 0 1-.2-.3c0-.3-.3-.4-.6-.2l-.1 1.1c0 .9 0 1 .2 1.1.2.1.3.3.3.4H25676.2v11h.2c.4 0 .3.1-.1.2h-.4v-6c0-3.5-.1-6.4-.2-6.5 0-.2-.1-.3-.2-.3-.2 0-.2.2-.2.8v.9h-.8l-2 .6-1.4.5v6c0 5.4 0 5.9.2 6 .2 0 .2.1 0 .1s-.3 0-.4-.3a250 250 0 0 1-.2-13.8c0-.2-.2-.3-.3-.3-.1 0-.2.3-.2 1.3v1.3l-1 .3a7 7 0 0 1-2.3.2h-1.5v6c0 4.7 0 6 .2 6.2.1.1.8 0 3.1-.2h.6c-.2.3.5.2 2-.2 1.7-.4 2.1-.4.7 0l-1.6.5c-1 .4-2.3.8-2.8.8-.3 0-.8 0-1.2.2-1.3.3-2.3.2-4.4-.4l-1.9-.2h-1.4v-.4l-.1-7.5a30.9 30.9 0 0 0-.4-7.4c0-.5-.2-.6-3.3-.4-2.6 0-2.8.1-3 .3-.2.2-.2 1.4-.1 7.4 0 6.7 0 7.1-.2 7.1s-.2-.4-.2-7a76 76 0 0 0-.3-7c0-.2 0-.3-.2-.5-.1-.2-.3-.2-3.3 0-2 0-3.2.1-3.3.2a190.6 190.6 0 0 0 0 14.4l.7-.1.9-.2-.8.3c-.4 0-.9.2-1 .3h-.3v-6.9c0-5.4 0-7-.2-7l-.3-.6-.2-.3h-2.6c-3.3.1-4.2.2-4.3.4-.1.1-.2 2.4-.1 7.5 0 7 0 7.4-.2 7.5-.2 0-.3-.4-.3-7.1l-.1-7.3-.3-.4-.2-.4h-3.6c-3 .2-3.6.2-3.7.4-.1.2-.2 1.7-.1 7.6 0 7.5 0 7.6-.4 7.6v-7.3a33.4 33.4 0 0 0-.4-7.6c0-.5-.2-.6-4-.5-2 0-3.6.2-3.7.3a172.8 172.8 0 0 0-.2 15.3h-.4v-7.2a36.7 36.7 0 0 0-.3-7.8c0-.5-.3-.5-4-.5l-3.7.1c-.3.3-.3 14 0 14 .1.1-.3.3-.6.3l-.1-6.7v-6.7l-.3-.5c-.4-.6-.4-.5.5-.6a530.3 530.3 0 0 1 17.5-.2l4.5-.2a68.3 68.3 0 0 0 8.5-.3 426.8 426.8 0 0 0 12.5-.5c22-.9 35.4-2.3 36.5-4 0 0 .1-.1.2 0zm-3.9.3h.2v.3h-.2v-.2zm-1.8 2.2v1.1s.2-.3.2-.7c0-.4 0-.6-.2-.4zm-136.6 0 .5.1c.3 0 .5.2.5.4 0 .3.3.3.4 0 0-.1.2-.2.7 0 .7 0 1.1.2.7.2h-.3v3.3c0 3.2 0 3.3-.3 3.3l-.2.2-.4-1.5v-1c0-3.9 0-4-.6-4h-.3v1.4l-.7-2.4zm131.2.3-.8.1c-1.6.2-1.7.2-1.6 1.2v.5h1l1 .2h.2c.1 0 .2-.2.2-1zm6.7.2v1h-.2v-.9zm-133.2.3c.3 0 .3.1.2 3.1v3.1l-.3.2-.3.1v-2.8c0-1.7 0-2.8-.2-2.8-.2-.1-.1-.7.1-.8h.5zm3.5.4c.2 0 .2 0 .1.3v6c0 .2 0 .3-.2.3h-.3v-2.8c0-2 0-2.8-.2-3l.1-.5c.1-.2.4-.3.5-.3zm3 .3c.2 0 .2.3.2 1.3 0 .7-.1 1.3-.2 1.3l-.1-1.3c0-1 0-1.3.2-1.3zm1.5.1c.1 0 .2 0 0 .2v4.7c0 2 0 2.3-.3 2.3-.1 0-.2-.4-.2-3v-3.4c-.2-.2-.2-.4 0-.5.1-.2.3-.3.5-.3zm2.4.1c.1 0 .2.3.2 1 0 1.2-.2 1.2-.3 0l.1-1zm3.4.2h.6-.5l-.6.2v3l.1 3c.1.1.1.1 0 .2-.1 0-.2.3-.2 1s0 .8-.2.8c-.3 0-.3 0-.3-3.7v-3.8c-.4-.3.4-.7 1.2-.7zm.9 0v1c-.1 0-.2-.2-.2-.5 0-.2 0-.4.2-.4zm7.5.4h.8-.8zm90.2 0-.1 1.4v1.4l-.5-.1c-.5 0-4.5.5-4.8.7-.2 0-.2.8-.3 5.6v5.6l1.9.4c1.8.3 3.5.2 3.8 0 .2-.3.3-2.8.3-9.4a59.7 59.7 0 0 1 0-5.4l-.3-.2zm-85.5.1h1-.8l-1 .2v4c0 4 0 4-.3 4s-.3 0-.3-3.6c0-3.4 0-3.6-.2-4l-.3-.5h1l1-.1zm3 .1h1.3-1.2zm2.4.1h1.2c.3-.1.3 0 0 .3-.1.1-.2.8-.1 5v4.9l.4.3a28 28 0 0 1 2.8 1.8 97 97 0 0 1-7-3l-1-.5 1.2.2 1.7.3c.7 0 .8 0 .8.5 0 .4.3.7.6.5.2 0 .1-9.2 0-9.4a2 2 0 0 1-.4-.5zm3.4 0zm4.5.1.5.1H25600.2h-3.3l-3.4.1v13.2c0 .8-.1.9-.4.8-.2 0-.2-1.5-.2-6.6v-6.5l-.3-.6zm16.3.1h-3.3c-3 0-3.3.1-3.5.3l-.1 6v6.7c0 .6 0 .9-.2 1-.2 0-.2-.8-.2-6.5 0-4.2-.1-6.6-.2-6.6a2 2 0 0 1-.4-.8h4.5zm86.4 2.5.2.4c.1.5 0 1-.2 1v.2l-.5.4c-.4.3-.9 1.2-.9 1.6v.3c-.1 0-.2 0-.2.2 0 .3-1 1.9-1.5 2.4-.6.5-.7.5-.7.3l.2-.2c.3-.2 0-.4-.4-.4l.4-.2c.6-.1 1.2-.5 1-.6l.3-.7c.4-.8.4-1 0-1-.1 0-.2 0 0 0 .5-.2.7-.4 1-.8 0-.3.4-.7.6-1 .3-.2.5-.5.5-.7l.1-.2c.1 0 .1 0 0-.2-.2-.4-.1-.8 0-.8zm1.7.2a146.2 146.2 0 0 1 6 1.1v.2l.4.2c.2.2.2.2 0 .5l-.6.3a5 5 0 0 1-1.1-.7c-1-.6-1-.7-2.3-.9-1-.1-2.8-.6-2.4-.7zm-137.8.2v.2c-.1 0-.2 0 0-.1v-.1zm146 1.1h.2l-.1.1h-.1zm.6.2h.3-.2c-.1 0-.2 0 0 0zm-151.4 0c.3 0 .6.2.6.3 0 .2-.2.2-.5 0s-.3-.2-.1-.2zm152 .1h.4-.4zm.7.1h.3H25706.8zm.6.1a43.5 43.5 0 0 1 5.1 1.1h-.3a74.4 74.4 0 0 0-4.8-1zm-143.7.3h.4c.2.2.2.2 0 .2l-.3-.1c-.1 0-.1-.1 0-.1zm2.1.6.5.2.5.2h-.4l-.5-.2c-.1-.1-.2-.2 0-.2zm148.6 1.4 1 .7a20 20 0 0 1 2 1.7c1 1 1 1 1.5 2.3.6 1.7 1.6 3.4 2.5 4.1l3.4 2.4 1 .6-6.1 5-.2.2-12.7 10.5-1.4-2c-1-1.3-1-1.3-2.6-2.3-1-.5-1.7-1-1.7-1.1l.1-1.8c.3-1.4.3-1.6.1-2.1l-.1-.6 1.4-1c1.6-1.2 1.6-1.2 1.3-2.3-.2-.6-.4-.8-1.7-2.2l-1.2-1.4 1.7.4 4.2 1.2 2.6.9 1.7-.6a9.2 9.2 0 0 0 4.6-2.7c.9-1 1.1-1.6.8-2.2-.1-.2 0-.4.3-1.2.4-.8.5-1 .5-1.8 0-1.2-.5-2.1-2-3.6zm-26.7 2.4h.4l-.2.1h-.2zm-101.7.1h.4c.5.2.4.3-.2.2l-.2-.2zm97.6.4h.5l-.6.4c-.4.1-.5.2-.4 0l-.1-.1s-.1-.1 0-.2h.6zm-1.1.2h.2-.2c-.1 0-.1 0 0 0zm-5 1.1h.3s0 .1-.2 0c-.1 0-.2 0 0 0zm-.5.1h.3l-.2.1c-.1 0-.2 0 0 0zm3.2.2a64 64 0 0 0-3 1h-.2c-.3 0 .5-.4 1.8-.6a36.3 36.3 0 0 0 1.4-.4zm-84.3.6h.6c.3.2.2.2-.2.2l-.6-.1.2-.1zm7.6 0h.3c-.4.2-.7.2-.7.1l.4-.1zm8 .2h.5l-.3.1h-.2zm64 .3h.2-.2zm-30.2.2h.7c0 .1-.2.2-1.4.5h-.1l.1-.3c0-.1.2-.2.7-.2zm-24.5.5c.8 0 .8 0 0 .2h-.6l.6-.2zm51.4 0h.3c0 .1 0 .2-.2.1h-.1zm-34.7.1c.8 0 .8.1 0 .2h-.6l.6-.2zm10.5 0h1.3c.3.1 0 .1-.7.1h-.6zm4.6 0 1.2.3c1.6.2 1.4.3-.5.1-1.2 0-1.2-.1-1.1-.3h.4zm19.1 0 .2.1h-.2zm-42.3.2c.7 0 .7 0 0 .2h-.6c0-.2.3-.2.6-.2zm17.6 0h.2l-.1.1h-.1zm-.4.1c.2 0 .1 0 0 .1l-.5.1h.1l.4-.2zm-4 0h.2l-.2.1c-.1 0-.1 0 0 0zm-1 .3h.3-.2zm-.3.1c.1 0 .1 0 0 .1l-.5.1c-.1 0 0 0 0 0l.5-.2zm-26.1.1h.6l-.3.1h-.3zm37.2 0h.6l-.3.1h-.3zm-40.7.2h.7-.7zm42.5 0h.4-.4zm1.7.1h.2l-.2.1c-.1 0-.1 0 0 0zm9.7.7c-.7 0-.8.1-.6.3h.8l.5-.1c0-.1-.3-.2-.7-.2zm-45.5.2h.3-.2c-.1 0-.2 0 0 0zm129.1 3.7 11.8 2.6-11.1 51.3 8.2 1.8-2.4 10.9-8.2-1.8-3.7 17.5-13.4-3 3.8-17.4-33.8-7.3-4-10.8 9.8-8.1 23.3-19.3zm-90.2.9.8.9 1.2 1.3.3.5-.5 1.3-.6 1.4-1 .3-2.4.3-1.5.3-.1-.6-.3-1.4c-.2-.8 0-1.6.3-1.7a174.6 174.6 0 0 1 4.8-1l-.4-.8zm87.4 14.6-36.7 30.1 28.8 6.3zm-111.7 7.4a50.1 50.1 0 0 1 7.5.6c2.3.4 4.4 1 6.4 1.7v7a29.2 29.2 0 0 0-6.3-1.8c-2.2-.5-4.6-.7-7-.7-5.9 0-10 1.6-12.5 4.7a22 22 0 0 0-3.6 13.5c0 5.5 1.4 9.7 4 12.6 2.6 2.9 6.7 4.3 12.2 4.3a33 33 0 0 0 13.2-2.3v7a39 39 0 0 1-13.8 2c-7.8 0-13.7-2.1-17.7-6.4-4-4.2-6-10-6-17.2 0-5.2 1-9.6 2.6-13.3 1.7-3.8 4.3-6.6 7.8-8.6 3.4-2.1 7.8-3.1 13.2-3.1zm-61.5.7h2.6c2.5.3 4.6 1 6.4 2 2.3 1.4 4 3.3 5.2 5.7 1.1 2.3 1.7 5 1.7 8a15 15 0 0 1-4.4 11.3 16 16 0 0 1-11.8 4.2h-12.7v16h-8v-47.2zm22.2 0h8v47.1h-8zm61 0h8v25.7l16.8-21.3 3.4-4.3h7.4l-10.8 13.7-4.6 5.8 17.8 27.7h-8.5l-13.8-22-7.7 9.8v12.2h-8zm-96.2 6.2v18.7h11.3c3.2 0 5.5-.8 7.2-2.4a9.3 9.3 0 0 0 2.4-6.8c0-3-.8-5.3-2.4-7-1.5-1.7-3.8-2.5-6.8-2.5zm36.9 59h3.7l6.8 13.8 6.7-13.9h3.7v21.4h-3.6v-15.5l-5.7 11.8h-2.2l-5.8-11.8v15.5h-3.6zm39.8 0h4l8 21.3h-3.7l-2-5.5h-8.7l-2.1 5.5h-3.7l6.8-17.9zm22.7 0h3.6v21.3h-3.6v-15.1zm14.9 0h3.2l11.1 15.6V-1309h3.6v21.4h-3.2l-11.1-15.7v15.7h-3.6v-15.7zm29.2 0h15v2.7h-11.4v6.5h10v2.8h-10v6.5h11.3v2.8h-14.9zm-64.9 3.2-3.7 9.8h7.4l-3.3-8.9z" style="-inkscape-font-specification:Kanit;fill:url(#b);fill-opacity:1;stroke-width:.671068;stroke-linecap:round;stroke-linejoin:round;paint-order:stroke fill markers" transform="translate(-25537 1572)"/></svg>