<svg xmlns="http://www.w3.org/2000/svg" xmlns:xlink="http://www.w3.org/1999/xlink" xml:space="preserve" width="1129.1" height="1154.1" viewBox="0 0 298.7 305.4"><defs><linearGradient id="a"><stop offset="0" style="stop-color:#1ec6dd;stop-opacity:1"/><stop offset="1" style="stop-color:#194973;stop-opacity:1"/></linearGradient><linearGradient xlink:href="#a" id="b" x1="26840.9" x2="26612" y1="-1520.8" y2="-1266.9" gradientUnits="userSpaceOnUse"/></defs><path d="M26738.8-1572c-69.2 0-125 55.9-125 125v19.3c0 14.3 2.4 28 6.8 40.8a15 15 0 0 0-6 11.9v47c0 1.8.4 3.6 1.1 5.3-1.3.2-2.6.6-3.8 1.2-1.8-1-3.8-1.4-5.8-1.4h-3.1c-7.1 0-12.9 5.7-12.9 12.8v21.3c.1 5.8 4 10.8 9.7 12.2 1.4 5.6 6.4 9.6 12.2 9.7h101.4c3-.1 6-1.4 8.2-3.5 4.1 2.7 9 3.8 13.5 3.8l124.4-.3c2.3 0 4.5-.8 6.4-2 2 1.2 4.1 2 6.4 2h3.7c9 0 15.2-9 12-17.4l-8-21.3a12.9 12.9 0 0 0-8.6-7.5l-.5-1.5c-1.9-5-6.6-8.2-11.9-8.3l1.4-6.2c1.1-5.6-.9-11.3-5.3-14.9l8.2-38c1-4.5-.2-9-2.8-12.4l-1-1c2.8-10.4 4.3-21.1 4.3-32.3v-19.2c0-69.2-55.8-125-125-125zm0 7.2a117.8 117.8 0 0 1 110.4 158.9l-.7-.7c-2-2-4.6-3.5-7.5-4.1l-9.9-2.2a97.7 97.7 0 0 0 6-28.9v-3l.1-2.1a98.1 98.1 0 0 0-81.2-97 98.6 98.6 0 0 0-115.7 97c0 21.5 7 41.4 18.8 57.7a33.5 33.5 0 0 0-4.7-.8l-3.6-.2h-15.3a117.8 117.8 0 0 1 103.2-174.6zm0 23.2c3.8 0 7.5.2 11.1.7a34.5 34.5 0 1 0 60.5 32.1 94.3 94.3 0 0 1 23 61.9v3.3l-.7.4c-1.2.8-2.2 1.5-3.2 1.9-2.5 1-6.4.7-9.5 3.1-2 1.6-3 4-4 6s-1.8 3.8-3 4.9c-.4.3-1.1.5-2 .7-1 .3-2.2.5-3.2 1.4a13 13 0 0 0-3.3 5c-.7 1.6-1.4 3.1-2.3 4.2-.6.7-2 1.2-3.4 2.6-.8.8-1.2 1.8-1.6 2.4-.3.7-.6 1.1-1 1.2-.3.2-1 .2-2.2 0-1.1-.3-2.7-.7-4.2.2a12.9 12.9 0 0 0-5 6.1c-1.2 2.4-2 4.7-3.2 6.6l-5.6 8.7a15.1 15.1 0 0 0-7-1.8h-3.2l-2-1.3-4-6.2-6-8-3-.2-5 .7c4-8.3 3.9-5.6 3-11.3 0-.5-.7-2.6-1-4a1.5 1.5 0 0 0 .5-2 3 3 0 0 0-1-5.2 1 1 0 0 0 0-1.3 1 1 0 0 0-.5-.4 3 3 0 0 0-1.3-3.2 1 1 0 0 0-.2-1.7v-.5l-.1-.3c0-.4 0-.8-.2-1a4.1 4.1 0 0 0 .2-7.1 1.1 1.1 0 0 0-.5-1.8v-.7c0-.7-.3-1.3-.8-1.7a4.1 4.1 0 0 0-1.5-6.8 2.5 2.5 0 0 0-.3-2.3 1.1 1.1 0 0 0 .2-1.8 4.1 4.1 0 0 0 .1-2.2c3-1 7.1-2.6 9.7-3.8 1.6-.7 3.1-1.2 3-3.7 0-2.2-.5-3.5-1.3-4.3-2.1-1.9-5.4.2-11.8-2.6-2.7-1.3-3.1-3.5-5.9-4.6a13 13 0 0 0-3.6-.9l-.2-.4a18.5 18.5 0 0 0-9-6.3 18 18 0 0 0-5.3-.7h-1.3l-2.1.3a17.7 17.7 0 0 0-10.8 6.4 14.6 14.6 0 0 0-2.7 12l.1.4v.5a13.4 13.4 0 0 0 5.7 12.8l-.6.8-.5-.1c-.6 0-1.1.6-1 1.2-1.3.1-2.3 1.1-2.4 2.4a4.1 4.1 0 0 0-6.6 3.5v.1h-.1c-.6 0-1.1.3-1.5.7a1.1 1.1 0 0 0-1.9.3h-.1c-1 0-1.9.7-2.2 1.7a4.1 4.1 0 0 0-4.6 3.9c-.3-.2-.6-.2-1-.2-.9 0-1.7.7-2.1 1.5a4.1 4.1 0 0 0-5.7 4.4 1.1 1.1 0 0 0-1.8 1.2l-1-.1c-1 0-1.9.8-2.2 1.7a4.1 4.1 0 0 0-4.5 4.4v.3a1.1 1.1 0 0 0-1.5 1.1l.1.5a2.5 2.5 0 0 0-2.3 2.6 4.1 4.1 0 0 0-2.1 6 2.5 2.5 0 0 0 .3 4.5 2.5 2.5 0 0 0 0 1.8 1.1 1.1 0 0 0 .7 2.1c.2 2.3 2.1 4 4.4 3.8.1 1.4 1.3 2.5 2.7 2.4l.4-.1.4.4a1 1 0 0 0 .5 1.6 3 3 0 0 0 .1 1.6 1 1 0 0 0 0 1.8 3 3 0 0 0 2.2 5 1 1 0 0 0 1.6.9v1.3h-1.7c-2.8.1-5.6 1-8 2.5a94.6 94.6 0 0 1 73.8-154zm-20.7 55.8a16 16 0 0 1 13 6.7h-.3c-.8.4-1.8 1-3 1.9l-.3.2-.4-.3c-.8-1-1.9-1.8-3-2.4a14.4 14.4 0 0 0-9.8-1.6c-2.8.5-5.5 2-7.9 4a18.5 18.5 0 0 0-3.7 4.6v-1.1a12.8 12.8 0 0 1 4.6-8.2 16 16 0 0 1 9.5-3.7h1.3zm-.9 6 .8.1c2.6.2 5.2 1.3 7 3 1.2 1 2 2 2.6 3.4l.4.8c.6 2.3.5 5.3-.4 7.8-.4 1.4-1 2.7-1.9 3.7v.1a7.6 7.6 0 0 0-2.2-6h-.1v-.3c.3-.6.4-1.1.3-1.8-.3-1.8-1.8-3.6-3.9-4.5-2.4-1-5-.7-7 1-1.3 1-2.5 2.6-3 4a8.8 8.8 0 0 0-.7 4.7c.2.8.4 1.5.8 2.2 1.1 2 3.1 2.9 5.6 2.6 1.9-.2 3.4-.8 4.3-1.8.5-.6.7-1.1.9-1.8v-.7l-.1-.7c-.3-1-1-2-2-2.8l-.2-.2h.2c1 0 1.8.2 2.5.6a5.4 5.4 0 0 1 2.7 4.5 5.7 5.7 0 0 1-.7 3.2c-1.1 2-3.4 3.3-6.6 3.7l-1.8.2a11 11 0 0 1-11-7c-1.5-3.7-1-8 1.4-11.3.4-.7 1-1.3 1.7-2 2.2-2.3 4.9-3.8 7.6-4.4l1.8-.2h1zm0 7.5c.6 0 1.2.1 1.7.3 1.7.7 3 2.2 3 3.5v.4h-.2l-.5-.2a7.9 7.9 0 0 0-5.4 0 1 1 0 0 0-.4.4l-.1.4v.3l.8.7a13.2 13.2 0 0 1 .8.6l-.6-.2c-.6-.3-1.4-.9-1.9-1.5a4 4 0 0 1-1-3l1.3-1a4.7 4.7 0 0 1 2.5-.7zm-5.4 3.8v.1a7.7 7.7 0 0 0 3.8 4c.9.3 1.7.4 2.6.4h.4l.1.1c.2.5.3 1 0 1.3-.2.8-1.2 1.4-2.6 1.7l-1.6.2a3.6 3.6 0 0 1-3.3-2.4c-.5-1.3-.5-3 .2-4.6l.4-.8zm24.1 49h.2c0 .7.2 1.5.6 2a3 3 0 0 0 4.2.7 1 1 0 0 0 1.8-.3c1 0 1.4.7 1.8 1.6 1.7 3.8 1.5 2.9-2.8 10.9h-2.2l-1 2.3-5.3 4.6-2.4 1c.3-2 .3-7.4.3-13.2.6 0 1-.6 1-1.2a3 3 0 0 0 2.7-5 1 1 0 0 0 .3-1.7 3 3 0 0 0 .8-1.7zm-20.3 5.5a2.5 2.5 0 0 0 4 .5c.1.2.5.3.8.3.2 0 .4 0 .5-.2a3 3 0 0 0 3.3 3.8 1 1 0 0 0 1.7.7c.7 6.5 1.2 12.6.7 14l-4.5 3-2.6 1.6-2.3-.3h-.1l-5.1-.2c-7.3 0-14.5 1.3-20.9 5.1l-.1.1a15.1 15.1 0 0 0-4.2-3l.5-3.4h.1c.5 0 1-.4 1-.9a2.7 2.7 0 0 0 3.3-4.1 1 1 0 0 0 .5-1.6 2.8 2.8 0 0 0 .9-3.1 1 1 0 0 0 .6-1.6c.7-.5 1-1.3 1-2.1v-.7l.4.1c1.4 0 2.4-1.3 2.4-2.7a4.1 4.1 0 0 0 5.6-1.7h.6c1.4 0 2.4-1.2 2.3-2.6a2.5 2.5 0 0 0 4.6 1.2c.5.2 1 .2 1.6.2 1.5 0 2.8-1 3.4-2.4zm-27.2 8.4c-.2.7-.5 1.3-1 1.9l.2.5c0 .6-.4 1-1 1.3l.2.8c0 1-.4 1.8-1 2.4l.1.6c0 .5-.3.9-.7 1.2.2.5.5 1 .5 1.5 0 1.7-1.5 3.6-3.2 4l-.2 1.5-1.5-.3h-1.2l.3-1.4c.6 0 1-.5 1-1l1.2.2a3 3 0 0 0 2.5-4.7 1 1 0 0 0 .5-1.7 3 3 0 0 0 1-3.4 1 1 0 0 0 .7-1.6c.5-.5.8-1 1-1.7h.6zm137.7 7.2 11.7 2.5-11.1 51.1 8.1 1.8-2.3 10.9-8.1-1.8-3.8 17.4-13.3-3 3.7-17.3-33.5-7.3-4-10.8 9.7-8 23.2-19.2h-.1zm-2.9 15.4-36.5 30 28.7 6.2zm-111.2 7.3a50.3 50.3 0 0 1 7.4.7c2.3.4 4.4 1 6.4 1.6v7a29 29 0 0 0-6.3-1.8c-2.2-.5-4.5-.7-7-.7-5.8 0-9.9 1.6-12.3 4.7a21.9 21.9 0 0 0-3.6 13.5c0 5.5 1.3 9.7 4 12.5 2.5 2.9 6.6 4.3 12.1 4.3a32.9 32.9 0 0 0 13.1-2.3v7a39 39 0 0 1-13.8 2c-7.7 0-13.5-2.1-17.5-6.4-4-4.2-6-10-6-17.1 0-5.2.9-9.6 2.6-13.3 1.7-3.7 4.2-6.6 7.7-8.6 3.4-2 7.8-3 13.2-3zm-61.2.7 2.5.1c2.5.3 4.6 1 6.4 2 2.3 1.3 4 3.2 5.1 5.6 1.2 2.3 1.7 5 1.7 8 0 4.7-1.4 8.4-4.4 11.2a16 16 0 0 1-11.6 4.3h-12.7v15.8h-8v-47zm22 0h8v47h-8zm60.8 0h8v25.6l16.6-21.2v.1l3.5-4.4h7.4l-10.8 13.7-4.6 5.7 17.7 27.6h-8.4l-13.8-21.8-7.7 9.7v12.1h-8zm-95.8 6.2v18.7h11.2c3.2 0 5.6-.8 7.2-2.5a9.2 9.2 0 0 0 2.4-6.7c0-3-.8-5.3-2.4-7-1.5-1.6-3.7-2.5-6.8-2.5zm-3.4 58.4c3.4 0 6 .9 7.6 2.6 1.6 1.7 2.5 4.5 2.5 8.4 0 3.7-.9 6.5-2.5 8.3-1.7 1.7-4.2 2.6-7.6 2.6-3.4 0-5.9-.9-7.6-2.6-1.6-1.8-2.5-4.6-2.5-8.3 0-3.9.9-6.7 2.5-8.4 1.7-1.7 4.2-2.6 7.6-2.6zm91.6 0a17.5 17.5 0 0 1 6.2 1v3.1c-.8-.3-1.8-.6-2.8-.7-1-.2-2-.3-3.1-.3-2.7 0-4.5.7-5.6 2a9.9 9.9 0 0 0-1.7 6.2c0 2.5.6 4.4 1.8 5.7 1.2 1.2 3 1.9 5.5 1.9l3-.3c1.1-.1 2-.4 3-.7v3.1a17.8 17.8 0 0 1-6.3 1c-3.5 0-6.1-1-8-3a11 11 0 0 1-2.6-7.7c0-2.4.4-4.4 1.1-6 .8-1.7 2-3 3.5-4 1.6-.9 3.6-1.3 6-1.3zm60.6 0c3.4 0 6 .9 7.6 2.6 1.7 1.7 2.5 4.5 2.5 8.4 0 3.7-.8 6.5-2.5 8.3-1.7 1.7-4.2 2.6-7.6 2.6-3.3 0-5.9-.9-7.5-2.6-1.7-1.8-2.5-4.6-2.5-8.3 0-3.9.8-6.7 2.5-8.4 1.6-1.7 4.2-2.6 7.5-2.6zm-183.6.3h3.1l11.1 15.7v-15.7h3.6v21.3h-3.2l-11-15.6v15.6h-3.6zm45 0h9.7c2.4 0 4.1.6 5.2 1.9a7 7 0 0 1 1.7 5c0 1.4-.4 2.7-1.1 3.8-.8 1-1.9 1.7-3.3 2.2.4.2.7.6 1 .9l.6 1.3 2.7 6.2h-3.7l-2.6-6c-.3-.5-.6-1-1-1.2-.3-.2-.8-.3-1.6-.3h-4v7.5h-3.6zm18.8 0h17.2v2.8h-6.8v18.5h-3.6v-18.5h-6.8zm20 0h3.7v9.3h10.2v-9.3h3.6v21.3h-3.6v-9.3h-10.2v9.3h-3.6zm55.2 0h4l8 21.3h-3.7l-2-5.5h-8.6l-2.1 5.5h-3.8zm15.6 0h9.7c2.4 0 4.2.6 5.2 1.9a7 7 0 0 1 1.7 5c0 1.4-.4 2.7-1.1 3.8-.8 1-1.9 1.7-3.3 2.2.4.2.7.6 1 .9l.6 1.3 2.7 6.2h-3.7l-2.6-6c-.3-.5-.6-1-1-1.2-.2-.2-.8-.3-1.6-.3h-4v7.5h-3.6zm42.6 0h3.6v18.5h11v2.8h-14.6zm17.3 0h3.6v21.3h-3.6zm7.8 0h3.2l11 15.7v-15.7h3.6v21.3h-3.1l-11-15.6v15.6h-3.7zm29.5 0h4l8.1 21.3h-3.7l-2.1-5.5h-8.5l-2.2 5.5h-3.7zm-220.4 2.8c-2.2 0-3.8.6-4.9 1.7-1 1.2-1.5 3.3-1.5 6.2 0 2.8.5 4.8 1.5 6 1 1.3 2.7 1.9 4.9 1.9s3.8-.6 4.9-1.8c1-1.3 1.6-3.3 1.6-6 0-3-.6-5-1.6-6.3-1-1.1-2.7-1.7-5-1.7zm152.2 0c-2.2 0-3.8.6-4.9 1.7-1 1.2-1.5 3.3-1.5 6.2 0 2.8.5 4.8 1.5 6 1.1 1.3 2.7 1.9 5 1.9 2.2 0 3.8-.6 4.8-1.8 1-1.3 1.6-3.3 1.6-6 0-3-.5-5-1.6-6.3-1-1.1-2.6-1.7-4.9-1.7zm-135 0v8h5.2c1.3 0 2.3-.3 3-1 .8-.5 1.2-1.6 1.2-3 0-2.6-1.3-4-3.9-4zm109.6 0v2.6h-.1v5.4h5.3c1.3 0 2.3-.3 3-1 .8-.5 1.2-1.6 1.2-3 0-2.6-1.3-4-3.9-4zm-17.3.5-3.7 9.7h7.4zm113 0-3.8 9.7h7.4z" style="fill:url(#b);fill-opacity:1;stroke-linecap:round;stroke-linejoin:round;paint-order:fill markers stroke" transform="translate(-26590.1 1572)"/></svg>