<svg xmlns="http://www.w3.org/2000/svg" xmlns:xlink="http://www.w3.org/1999/xlink" xml:space="preserve" width="944.8" height="1167.8" viewBox="0 0 250 309"><defs><linearGradient id="a"><stop offset="0" style="stop-color:#850000;stop-opacity:1"/><stop offset="1" style="stop-color:#f02751;stop-opacity:1"/></linearGradient><linearGradient xlink:href="#a" id="b" x1="16710.7" x2="16924.7" y1="-991.7" y2="-1265.2" gradientUnits="userSpaceOnUse"/></defs><path d="M16829.25-1300.6c-23.78 0-45.97 6.59-64.87 18.05-4.19 2.54-8.2 5.35-12.04 8.35-4.03 3.15-7.9 6.52-11.5 10.13a125.1 125.1 0 0 0-11.77 13.58 124.66 124.66 0 0 0-5.45 8c-.42.65-.86 1.3-1.27 1.97-.38.63-.73 1.27-1.1 1.9a124.24 124.24 0 0 0-3.73 6.9c-.3.61-.63 1.2-.93 1.82a124.28 124.28 0 0 0-10.86 35.18c-.3 2.07-.57 4.16-.79 6.26l-.03.45c-.39 4.02-.6 8.08-.6 12.2v19.41c0 1.97.06 3.93.15 5.88.03.7.09 1.4.13 2.1a145.05 145.05 0 0 0 .55 6.33 119.48 119.48 0 0 0 .81 5.93l.27 1.5c1.1 6.27 2.65 12.38 4.64 18.28v.03c.07.23.16.44.24.66v.1a15.2 15.2 0 0 0-6.8 12.7v47.2c.1 3.5 1.5 6.8 3.6 9.4 4.09 4.37 8.32 8.61 12.7 12.7 2.6 2.3 6 3 9.7 3h39.1l-.1 3.6c0 4.8 1.1 9.8 3.8 14.5 3 5.1 0 0 9.6 13.4a25.8 25.8 0 0 0 18.7 7.4h65c6 0 13.5-1.9 18.7-7.4a26.6 26.6 0 0 0 6.6-18.8v-15.4l2.2.8c1.4 5.5 5.8 9.8 11.3 11l13.4 3a15.2 15.2 0 0 0 18.1-11.7l1-4.4c5.5-1.4 9.7-5.8 11-11.3l2.3-10.9c1.2-5.6-.8-11.4-5.3-15l8.3-38.1a15.59 15.59 0 0 0-4.13-13.81v-.02l.03.03c.24-.88.42-1.78.63-2.67.18-.73.38-1.45.54-2.18l.29-1.25c.36-1.66.67-3.33.96-5.01.1-.52.2-1.04.28-1.56.26-1.6.47-3.21.66-4.83.07-.6.17-1.2.23-1.81.17-1.63.3-3.27.4-4.92.04-.58.1-1.16.13-1.75.12-2.23.19-4.46.19-6.72v-19.26a123.01 123.01 0 0 0-.65-12.8 124.28 124.28 0 0 0-9.15-35.9 124.22 124.22 0 0 0-8.26-16.16 124.96 124.96 0 0 0-63.87-52.53 124.6 124.6 0 0 0-43.03-7.56zm0 7.16a118.41 118.41 0 0 1 35.04 5.3 116.97 116.97 0 0 1 39.9 21.6 118.4 118.4 0 0 1 22.73 25.02 118.82 118.82 0 0 1 10.86 20 116.88 116.88 0 0 1 6.86 22.12 118.06 118.06 0 0 1 2.24 17.68 117.28 117.28 0 0 1-.02 12.4c-.01.29-.05.57-.06.85-.12 1.85-.26 3.69-.45 5.51l-.05.37c-.46 4.08-1.12 8.1-1.98 12.05-.04-.65-.02-1.2.11-2.3.56-4.74-1.29-9.44-4.68-11.58-.13-.09-.14-.1-.1-.05.04.05 0 .05 0-.15-.02-.39.03-1.33.13-3.32.03-.53.03-.96-.2-1.44-.23-.49-.64-1-1.42-2.05-1.57-2.1-1.5-1.95-2.07-3.68-1.36-4.11-3.45-6.43-6.86-7.5a4.29 4.29 0 0 1-1.13-.42 5.7 5.7 0 0 1-.75-1.1l-.07-.12c-4.37-50.31-46.6-89.83-98.03-89.83-39.55 0-73.66 23.37-89.3 57.04a9.39 9.39 0 0 0-2.66 1.02c-1.06.67-1.85 1.62-2.82 3.06-.58.88-1.45 1.89-2.3 2.72a9.09 9.09 0 0 1-2.04 1.62c-1.06.4-1.96 1.52-3.11 3.47a1.9 1.9 0 0 1-.55.64c-.3.26-.84.62-1.8 1.26-.58.39-1.16.79-1.61 1.12-.46.33-.75.54-.96.76-.15.17-.5.44-.55.46-.26.14-.42.36-.61.66-.2.3-.4.7-.7 1.3-.76 1.56-.66 1.42-2.33 3.05-.93.9-1.9 1.93-2.26 2.45-.33.47-.78.92-1.53 1.47-.56.42-1.23.97-1.68 1.38v-.01a117.2 117.2 0 0 1 30.88-65.58l.8-.83c.95-1 1.91-1.98 2.9-2.94l.88-.84c1-.95 1.99-1.88 3.01-2.8.3-.26.6-.5.89-.77 1.04-.9 2.1-1.81 3.17-2.69l.76-.6c4.78-3.82 9.86-7.26 15.2-10.31.55-.32 1.1-.65 1.66-.96.9-.5 1.83-.97 2.75-1.44.72-.37 1.43-.75 2.15-1.1.86-.43 1.74-.82 2.61-1.22.8-.37 1.61-.75 2.43-1.1.85-.37 1.7-.71 2.56-1.06a118.89 118.89 0 0 1 7.87-2.87 117.66 117.66 0 0 1 10.92-2.95l2.5-.53c1.05-.2 2.1-.38 3.17-.56.8-.14 1.6-.28 2.4-.4 1.14-.17 2.28-.3 3.42-.43.76-.1 1.51-.2 2.28-.27 1.26-.12 2.54-.2 3.82-.29.65-.04 1.3-.1 1.94-.13 1.93-.1 3.88-.15 5.84-.15zm0 23.15c43.48 0 80.05 29.29 91.16 69.2-.42-.23-.9-.45-1.45-.66-1.4-.54-4.17-1.75-6.72-2.92l-.14-.11c-.2-.12-.41-.2-.65-.27-.94-.44-1.54-.74-2-.98l.02-.17c.12-.7.32-1.7.6-2.83l.4-1.74-.6-1.75a17.05 17.05 0 0 0-1.41-3.06 11.45 11.45 0 0 1-1.65-4.6 93.49 93.49 0 0 0-.25-1.62c-.06-.27-.14-.3-.23-.4l-.32-.33c-.25-.24-.58-.53-.95-.83a11.31 11.31 0 0 1-2.23-2.27c-.48-.61-.76-.96-1.03-1.22s-.56-.4-.86-.5a2.97 2.97 0 0 1-.57-.24c-.01-.01-.05-.1-.14-.46-.06-.33-.2-.66-.5-1.05-.3-.4-.8-.92-1.7-1.89-2.21-2.33-2.55-2.9-3.08-5.31a9.76 9.76 0 0 0-6.54-7.12c-.72-.2-1.44-.48-1.98-.72-.27-.13-.49-.24-.63-.33l-.1-.08a55.78 55.78 0 0 1-.3-1.43 13.28 13.28 0 0 0-2.41-4.86c-.16-.18-.23-.17-.33-.21-.09-.04-.2-.07-.31-.1l-.9-.2c-.72-.15-1.66-.3-2.65-.45-1.99-.3-4.15-.55-5.23-.55-1.58 0-1.36.06-2.65-.6a9 9 0 0 0-1.25-.56 2.1 2.1 0 0 0-.9-.06c-.26.03-.31.02-.35 0a25.13 25.13 0 0 0-2.75-1.78c-2.78-1.6-2.95-1.75-4.36-3.94a28.67 28.67 0 0 0-1.28-1.83l-.15-.15c-.05-.05-.03-.12-.3-.18-.31-.06-.56-.02-.97.02a33.74 33.74 0 0 0-4.61.83l-1.6.42-.81-.47c-.53-.3-1.64-1-2.46-1.52-2.52-1.64-3.91-2.02-8.97-2.45a34.2 34.2 0 0 0-3.43-.14c-1 .02-1.87.1-2.67.28a8.56 8.56 0 0 0-4.03 2.11c-.18.17-.18.18-.4.24-.22.06-.67.12-1.51.22-.99.11-2.28.3-2.9.4-.33.05-.54.1-.68.1a.56.56 0 0 1-.32-.04c-.25-.09-.78-.44-1.93-1.2-.72-.49-1.1-.76-1.76-.96-.65-.2-1.5-.32-3.3-.6-2.79-.43-4.56-.64-5.95-.55-1.4.1-2.4.51-3.47 1.22a35.88 35.88 0 0 0-7.96 7.57c-.12.17-.18.2-.13.18.05-.03.06-.01-.1-.03-.29-.04-.6-.02-1.02.02a24.05 24.05 0 0 0-3.15.52l-.2.07c-.06.02-.13.04-.23.15-.13.13-.14.18-.25.33l-.4.6-1.16 1.79-1.38 2.15-1.11-.22c-1.03-.2-2.12-.32-3.44-.36l-2.16-.08-.87 1.07c-1.02 1.25-1.11 1.43-1.8 3.72a30.3 30.3 0 0 1-3.42 7.3 11.9 11.9 0 0 0-1.27 2.46c-.33.98-.6 1.56-.91 1.92-.32.35-.68.53-1.36.72-.9.24-1.78.6-2.7 1.07l-1.57.83-.09 2.1c-.06 1.29-.03 2.4.1 3.7l.15 1.52c-.5.06-.92.19-1.64.43-2.8.9-3.35 1-4.88.84-1.9-.2-3.06-.29-4-.23-.93.06-1.62.28-2.45.65a31.65 31.65 0 0 1-2.9 1.23c-.52.16-.72.15-1.3.1-1.42-.1-3.57-.12-4.8-.02-.66.05-1.33.4-2 .92a9.98 9.98 0 0 0-1.96 1.97c.02-.03-.07.06-.25.15-.1.06-.3.12-.47.18a94.59 94.59 0 0 1 84.53-52.07zm-17.91 6.54c1.24-.08 2.96.1 5.73.54 1.8.28 2.65.41 3.17.57.52.15.76.33 1.49.82 1.14.76 1.63 1.13 2.14 1.32.25.1.5.12.75.1.23-.02.46-.07.76-.12.59-.1 1.88-.28 2.85-.4.85-.1 1.3-.15 1.65-.24.36-.1.61-.27.82-.46.12-.1.24-.16.36-.25 2-.48 3.6-1.45 5.61-1.87.97-.02 2.08.02 3.4.13 5.03.42 6.06.7 8.5 2.28a71 71 0 0 0 2.51 1.55l1.17.68 2-.53a33.2 33.2 0 0 1 4.45-.8c.32-.03.51-.03.56-.03l.3.38c.25.34.57.82.9 1.33.42.66.77 1.14 1.1 1.56l1.18 2.97h.12c-.19-.73-.4-1.56-.71-2.33.67.66 1.5 1.2 3 2.08.9.52 1.95 1.2 2.2 1.39.25.2.44.33.67.43l-1.25.1c.46.3.89.13 1.35-.06.26.08.5.07.76.04.24-.03.3-.04.48.02.2.06.52.21 1.1.5 1.3.65 1.52.7 3.11.7.9 0 3.12.25 5.08.54a55.93 55.93 0 0 1 3.43.63l.18.06c.7.83 1.95 3.35 2.15 4.33l.2 1.01.13.59c.06.2.16.28.24.35a6.31 6.31 0 0 0 1.03.6c.6.28 1.36.56 2.12.78a8.86 8.86 0 0 1 5.83 6.37c.56 2.48 1.1 3.43 3.33 5.8.91.95 1.4 1.48 1.64 1.8.25.32.26.38.32.65.08.38.14.68.4.94.25.27.53.35.95.5.27.09.33.11.51.28.16.15.44.5.84 1.01.39.6.85 1.09 1.35 1.54.34.33.69.65 1.13 1a13.82 13.82 0 0 1 1.14 1.03l.02.04.07.45c.04.28.1.64.14 1 .24 1.77.77 3.25 1.78 4.98a16 16 0 0 1 1.32 2.88l.52 1.47-.35 1.45c-.25 1.1-.44 2.02-.56 2.74l-.72 1.28.59.17c0 .04 0 .08.04.15.03.08.1.23.31.3l.23.07a18.7 18.7 0 0 0 1.38.3c.7.13.99.2 1.25.35.26.15.58.45 1.26 1.1l1.1 1.07-.67 1.64a22.57 22.57 0 0 1-1.44 2.96c-.5.78-.8 1.4-.81 2.05-.02.64.28 1.2.76 1.72a7.92 7.92 0 0 1 1.32 1.75c.25.5.33.93.26 1.4-.13.95-.97 2.18-2.7 4.02-.53.57-.9.97-1.14 1.28l-.28.41c-.07.13-.17.27-.1.55.07.36.16 1.69.18 2.95 0 1.27-.05 2.6-.13 2.97-.13.65-.26 1.83-.3 2.7a49.5 49.5 0 0 1-1.11 6.94c-.2.65-.26 1.24-.26 2.5a15.17 15.17 0 0 1-.58 3.83c-.1.3-.23.52-.22.51-.03.03-.25.22-.53.43-.3.2-.66.46-1.08.73-.82.54-1.81 1.14-2.62 1.58-.91.5-1.5.85-2.24 1.59-.74.74-1.65 1.85-3.35 3.95-.54.68-.73.93-1.06 1.15-.33.21-.89.44-2.12.94-.97.4-1.48.6-1.9.9-.42.3-.64.68-.99 1.25l-.87 1.41.16.24c-2.97 3.61-5.81 1.95-9.6 3.6-1.81.8-3.19 2.87-5.1 3.39-2.82.76-6.05-.75-8.9-.13-2.59.57-5.67 2.33-8.3 2.31-2.18-.01-4.16-1.5-6.28-1.6-3.56-.16-6.66 1.78-10.24.63a5.02 5.02 0 0 0-1.37-.8c-.7-.26-2.21-.87-3.31-1.35l-2.1-.92-4.14-.06-3.9-.05-1.12-.7-1.5-.92a.98.98 0 0 0-.68-.18c-.07.01-.12.05-.18.08-3.7-1.84-7.8-1.52-11.42-3.34-2.71-1.37-4.18-4.64-6.76-6.04-2.13-1.15-5.24-1.45-7.05-3.14-2.03-1.9-1.21-6.31-3.08-7.96-2-1.76-7.16-.87-8.67-3.14-1.36-2.04-.23-5.5-1.51-7.64-.72-1.2-3.13-.89-4.44-1.38-.63-.5-1.18-.91-1.8-1.45-.4-.34-.7-.63-1.01-.92-1.27-2.27-.18-5.09 1-8l-2.6-.5a100.57 100.57 0 0 1-3.72-4.67 32.53 32.53 0 0 1-.05-4.96l.15-1.73-1.03-1.91a71.87 71.87 0 0 1-2.4-5.04l-.03-.07c0-.01 0 .02.02-.03l.13-.35c.13-.28.3-.65.5-1.04.38-.77.85-1.63 1.14-2.06l.85-1.26-.44-1.45c-.6-1.98-1-3.41-1.23-4.37-.11-.48-.18-.85-.22-1.1-.03-.24.02-.4-.03-.28l1.4-3.2 1.31-2.99.17-.37h-.2l-.16-1.58a24.1 24.1 0 0 1-.1-3.56l.07-1.52 1.06-.56c.86-.45 1.68-.77 2.49-1 .77-.2 1.38-.49 1.85-1.02.47-.53.78-1.23 1.12-2.26.18-.54.6-1.36 1.16-2.24 1.53-2.39 2.8-5.1 3.54-7.55.68-2.29.6-2.12 1.61-3.37l.56-.68 1.65.05c1.28.05 2.32.16 3.28.35l1.8.35.13-.22.33.05c-1.33 1.42-2.25 3.58-2.72 5.46l2.01.12c-.28-3.58 2.56-4.4 2.97-7.48l-1.9 1.55v-.77l.92-1.44a141.42 141.42 0 0 1 1.54-2.35l.11-.16.03-.01c.1-.03.23-.07.4-.1a19.73 19.73 0 0 1 3.33-.4l.32.02-.85 1.06c1.18-.31 2.63-1.68 2.84-3a37.17 37.17 0 0 1 6.59-5.96 5.4 5.4 0 0 1 2.97-1.05zm11.91 11.78.48.48zm-35.29 8.09c-.7-.1-1.5.15-2.17.21v.12l2.84-.12a1.77 1.77 0 0 0-.67-.21zm29.37.21v1.3h.11zm-31.78.24c-.46-.1-.76.01-1.07.36zm31.66 1.19v.35h.12zm-.08.79.04.08zm-.16.51v.36h.12zm30.7.36.13.12zm-.07.79.04.08zm-43.32 1.93v.36h.12zm9.84 0 .12.12zm-.12.24v.36h.12zm-.11.48v.35h.11zm-.12.47v.36h.12zm27.74.24.12.12zm-27.86.23-.6 2.85h.12zm27.98.12c-.04.93-.63 1.5-1.54 1.66l.12 2.73c2.26.42 2.09-1.04 2.13-2.96h-.12l-.12.35h-.11zm-28.7 2.85-.11.24zm-.23.35-.12.24zm-11.27.24-.47 1.3.71-.11zm51.47.36.11.12zm-40.68.12.12.11zm-.23.35.12.12zm-23.48.6-.12.23zm.46.37c-.13-.05-.32-.05-.56.02-.48.14-.3.94.1 1.03-.44.93-1.1 1.85-.12 2.72.1-.43 1.53-3.42.58-3.77zm-9.23.45v4.51c.73-.67.28-3.6 0-4.5zm30.94.48c-.31 3.48 2.33 5.99 3.21 9.02.42 1.43-.43 2.71.77 4 2.2 2.35 6.04 3.78 7.93 6.2 1.1 1.42.07 4.06 1.15 5.8 1.57 2.54 3.92 2.73 4.14 6.16 4.33-.18 10.2 2.22 13.36 5.27 1.1 1.06 1.32 3.34 2.54 4.1 2.5 1.58 8.03 1.24 10.78.47v-.11c-2.81-.38-7.27.26-9.48-1.81-1.68-1.58-.75-4.95-1.7-6.97-3.06-6.5-10.41-4.62-15.15-1.78 0-1.68.5-4.41-.72-5.83-.97-1.13-3.35-1.34-3.83-2.94-.81-2.68 1.43-5.78-.78-8.12-1.97-2.08-6.15-1.85-7.99-4.13-1.56-1.95.06-5.03-2.45-7.08h-.12l-.59.48zm-11.02.71.7 6.17h.13c.5-2.34.9-4.22-.83-6.17zm29.88.24-.12.83h.12zm13.87 1.06.12.12zm-13.75.12.11.12zm13.63.12c-.96 2.3-.83 5.12-.83 7.59h.12zm-13.52.12.95 1.19-1.9.11c-.62.92-2 3.25-1.4 4.39 1.3 2.45 6.24 3.28 3.18 6.29.03 2.49 1.45 1.83 2.89 3.36.98 1.05 1.1 2.63 1.96 3.71 1.56 1.95 3.02 1 3.34 4.07 3.78-.37 7.36 1.17 8.3 5.22h.11l-.23-1.54c2.18-.37 6.87 2.24 7.7-1.07.2-.79-.66-1.28-.59-1.54l-4.03.12 3.08-2.14-1.66 1.66c2.56-1.17 2.98-1.5 5.93-1.3v-.12l-1.18-.83h-1.3l.82-.83-.24-.47c-.71.18-2.18 1.7-2.72 1.18l-.24.12v-.36c-1.27-.1-1.13-1.44-.95-2.37-.43-.01-.53-.18-.6-.59l-.23-.95-.6.24.13-.95c-2.43-1.34-2.72-.9-5.34-.12-.27-1.26-.35-2.96-1.54-3.7-.79-.5-2 .15-2.53-.83-.6-1.12.64-2.75.51-4l-.83 1.9c-2.34-1.06-5.7 1.13-7.82-.48l-.71.23c.1-1.36 5.02-9.26 2.25-9.13l.12 2.14zm-50.03 1.9c-.96 1.37-2.52 2.58-2.85 4.27l4.39-3.09zm66.52.47c-.95 2.47-2.8 6.73-2.26 9.37h.12c.4-2.67 2.7-6.77 2.14-9.37zm4.86.83-3.92 11.38c1.59-.78 4.27-9.63 3.92-11.38zm-80.2 1.14-.73 1.67c-.7 1.57-1.31 2.99-1.4 3.22-.13.3-.09.5-.05.8.04.32.12.7.24 1.2.24 1 .65 2.44 1.24 4.43l.3 1-.58.86a22.36 22.36 0 0 0-1.89 3.67c-.04.12-.08.18-.08.39 0 .14.02.17.04.23l.06.18.2.49a70.56 70.56 0 0 0 2.26 4.67l.9 1.65-.13 1.42c-.06.74-.1 1.85-.07 2.88 0 1.03.04 1.93.14 2.42.03.12.05.14.07.18l.06.1.17.25.56.75c.47.6 1.1 1.4 1.8 2.24 1.4 1.7 2.04 2.49 2.18 2.8l-.02.4-.03.07-.38.75c-.09.2-.18.36-.24.54-.06.17-.1.35-.12.55-.03.4.04.86.15 1.74l.16 1.3.05.41.02.15c0 .29.09.3.14.37a4.36 4.36 0 0 0 .62.67 49.97 49.97 0 0 0 4.85 4.06c.37.26.4.31.62.48-2.1 2.06-4.18 4.41-6.55 5.8-2.58 1.5-5.73 1.55-8.18 3-1.55.92-2 2.65-3.36 3.73-.54.42-5.51 1.24-6.25 1.2-1.4-.1-2.11-2.09-3.44-2.43-1.48-.38-2.37 1.74-3.9.86-3.11-1.76-3.26-4.38-6.89-4.07l-.11-.71h-.12l.23 2.01c3.28.72 4.45 4.67 7.6 5.25 1.2.22 2.19-1.02 3.43-.92 1.49.13 2.34 1.52 3.91 1.35 3.8-.4 5.92-2.22 9.13-3.8 5.33-2.64 12.32-5.28 15.28-10.67l.1.08c.1.1.15.2.2.33a41.66 41.66 0 0 0 .93 3.24l-.93.75c-.37.29-1.23 1.08-2.4 2.2a347.82 347.82 0 0 0-4.1 3.97l-5.4 5.3-1.4 2.7c-.5.95-1.05 1.91-1.58 2.87-1.23.2-2.51.23-3.66.73-1.35.59-2.6 2.3-4.15 2.39-1.54.1-2.87-1.43-4.39-1.5-3.36-.14-6.65.87-9.93-.66-1-.47-1.32-2.2-1.98-3.03-.75-.96-2.27-.36-3.02-1.27a5.32 5.32 0 0 1-.53-.8c.17.7.29 1.42.7 2 .6.83 1.94.9 2.7 1.56.81.7.96 2.16 1.92 2.7.9.51 2.2.15 3.15.52 1.02.4 1.7 1.53 2.84 1.8 1.21.29 2.66-.4 3.92-.3 3.35.28 6.96.43 10.42-.27l-.05.12a56.66 56.66 0 0 1-2.26 6.44c-.5 1.18-.75 1.82-.88 2.39-.07.28-.1.55-.13.86-.02.3-.02.65-.02 1.1 0 1.25-.07 1.8-.24 2.67a9.34 9.34 0 0 0-3.64.61v.12c1.1-.24 2.32-.29 3.55-.31l-.1.5c-.23.96-.34 1.48-.37 2.05-.02.57.04 1.2.19 2.34.14 1.16.2 1.75.2 2.26 0 .5-.07.93-.23 1.75a1.65 1.65 0 0 0 .13 1.03l-.16.02c-2.36.48-4.42 2.32-6.88 2.5-2.66.19-5.42-1.16-8.06-1.33-1.89-.11-3.8 1.16-5.7.82-2.58-.47-4.44-2.78-6.87-3.56-1.81-.58-4.26.17-5.93-.93-3.07-2.02-4.25-4.57-7.82-5.95l.23 2.84c4.16 1.24 5.14 4.23 8.54 6.3 1.67 1 3.91.48 5.69 1.05 2.18.7 4.07 2.46 6.29 3 1.78.43 3.77-.39 5.57-.28 2.69.15 5.3 1.32 8.06 1.14 2.35-.15 4.62-1.63 6.88-2.2 2-.5 4.13-.38 6.2-.6.24.12.48.24.84.45.59.34.94.55 1.41.67.47.11.99.13 1.96.16l4.32.2c2.34.12 2.5.12 5.02-.23 1.39-.2 3.6-.45 4.9-.56.25-.02.5-.07.76-.1l-.14.11c-.07 0-.13-.02-.2 0a.59.59 0 0 0-.22.12c-.09.07-.1.1-.1.1.03-.03-.21.17-.5.37l-1 .72c-.4.3-.63.45-.95.67-.42.22-.84.43-1.28.6l-.73.17-3.28.67c-1.55.31-2.13.46-2.89.64a13.39 13.39 0 0 0-5.71-1.51h-6.8l-2.4.3c-2.6.3-5 1.2-7.1 2.7l-3.1-1.2-.5-.2a28.07 28.07 0 0 0-6.5-1.3l-3.7-.1h-7.5l-.34-.03-.12-.07c-1.3-.54-2.98-.32-4.57-.33l-.78-.07a6.9 6.9 0 0 1-.73-.09l-.34-.04c-.62-1.12-1.2-2.25-1.78-3.39l-.62-1.2a118.7 118.7 0 0 1-3.66-8.16l-.38-.95c-.51-1.3-1.02-2.62-1.49-3.95 1.1.79 1.98 1.6 1.67 3.1l.36.13 1.78-5.1-.12-.12-2.14 1.07c-.31-.7-1.37-1.3-2.48-1.83a116.74 116.74 0 0 1-3.9-15.58l-.07-.38c-.94-5.34-1.52-10.8-1.71-16.35.41.5.93.93 1.4 1.17.17-1.16-.53-2-1.44-2.63-.02-.92-.07-1.83-.07-2.75 0-.94.05-1.86.07-2.8.06.06.1.11.25.12l-.25-.41v-.01c.06-2.23.18-4.45.36-6.65l.54-.56-.03-1.83-.02-1.4.55-.52c.36-.34 1.19-1.02 1.78-1.46.8-.6 1.35-1.11 1.76-1.7.07-.1.5-.52.7-.76.85-.35 1.58-.9 1.71-1.84a8.46 8.46 0 0 0 2.14-2.8c1.78-1.56 3.5-3.34 5.37-4.96.2-.14.57-.38.71-.5.21-.17.37-.33.5-.5 2.32-1.79 4.75-3.03 5.84-5.9.69-.73 1.36-1.52 1.86-2.27.26-.38.48-.63.7-.94.57-.52 1.1-1.03 1.51-1.6l.3-.23c.89-.55 2.03-.9 3.9-1.25 1.24-.24 2.24-.48 2.98-.72a6.8 6.8 0 0 0 1.28-.55c1.25.02 2.38.1 3.29-.95l-2.02.35a4.5 4.5 0 0 1 2.4-2.15c1.17-.08 3.18-.07 4.48.03.59.04 1.04.05 1.67-.14.47-.15 1.34-.55 2.26-.96 3.9-.09 9.1-.23 12.86-1.69zm16.52.4c-.6 1.99.08 4.75.48 6.76h.12zm56.45 1.3v.48h.11zm-43.76.13c-.65 7.99 5.24 14.58 9.82 20.98 2.22 3.1 3.06 6.04 6.37 8.38 2.06 1.45 4.95 3.5 7.29 4.4 1.78.68 3.51.54 5.22 1.65 4.14 2.72 8.51 8.29 13.27 9.4 3.93.92 8.64.4 12.7 1.17 1.8.35 3.36 2.51 5.1 2.55 3.18.06 5.36-2.3 9-1.58 2.82-2.02 6.78-.4 8.9-3.32-1.55 1.1-2.62-.2-4.27.15-1.57.33-2.65 1.98-4.15 2.45-.46.14-6.43-.7-7-.92-1.4-.55-1.83-2.7-3.44-2.95-2-.32-3.95.71-5.93.71-2.44 0-4.81-1.15-7.23-1.14-1.71.01-4.18.8-5.8.3-2.49-.75-3.43-4.07-5.58-5.47-3.6-2.33-7.76-4.03-11.03-6.84-1.68-1.44-2.37-3.78-4.07-5.2-1.37-1.13-3.66-.23-5.08-1.82-1.76-1.98-.28-6.32-2.03-8.48-.97-1.2-3.1-.76-4.35-1.35-.98-.48-4.14-4.12-4.75-5.13-1.66-2.72 1.1-6.22-2.96-7.94zm-32.72.11v.24l.23-.24zm94.97.24v.12l.6.24v-.12zm-18.61.24-.36 3.44h.12zm24.18.35.83.72zm-8.06.12c-2.48.69-2.82 5.3.12 4.27-1.86 1.52-.53 3.28-.71 5.34-1.5.24-2.07 1.73-2.26 3.08 3.64-1.93 6.7-4.4 10.8-5.57-.3-1.2-3.88-1.87-4.75-3.32 2.03-.8 3.98-1.56 6.17-1.78v-.12l-.71.12.23-.24v-.12l-6.16 1.19 1.54-2.25v-.12c-1.67.18-3.43 1.2-5.1.83zm-83 .6c-.6 2.3.11 4.55 0 6.87h.12c.42-1.77.63-5.2-.12-6.87zm93.67.11.36.72zm-17.07.6-4.39 5.33 1.54-1.06-1.78 1.42v.24c2.75 1.2 4.98-.35 8.07-.48v-.12c-2.72-.95-6.3-.27-3.8-4.03l-.59.48zm15.53.23.12.12zm-4.03 1.07v.12l-2.6.71c.56-.7 1.76-.7 2.6-.83zm-77.07 1.78.12.12zm0 .36.12.11zm-21.58.47c-1.49 1.09-2.92 1.62-2.73 3.56 1.3-.21 2.47-2.36 2.73-3.56zm21.58 0-.24.95.83-.12zm-35.45.6-1.78.35v.12c.71 0 1.25.07 1.78-.48zm35.1.94-.25 2.02c.06-.04 3.56 3.88 3.67 5.21.3 3.5 2.62 4.81 3.8 7.95.75 1.99.4 5.18 1.7 6.87 1.22 1.58 3.32 2.37 4.56 3.92 1.25 1.55 1.44 3.93 3.04 5.28 1.64 1.37 4.13 1.69 5.88 3 1.6 1.2 2.24 3.43 4.27 4.18 2.24.84 5.03.2 7.35 1.26 2.25 1.01 3.67 3.25 5.7 4.54 1.75 1.11 4.04 1.12 5.92 1.95 2.06.9 3.64 2.63 5.81 3.38 2.46.85 5.16-.86 7.6-.44 2.28.4 4.25 2.7 6.51 2.92 1.66.17 3.25-.7 4.86-.78 2.22-.1 4.53.83 6.76.55 2.09-.27 4.06-1.99 6.05-2.61 1.05-.33 2.26.23 3.32 0-3.67-1.9-6.14 2.25-9.6 1.84-1.8-.22-3.66-.96-5.46-.98-1.42-.03-2.98.85-4.37.06-2.03-1.17-2.91-4.45-5.47-5.05-2.48-.59-5.77 1.33-8.3 1.42-2.74.1-6.51-2.42-8.77-3.8-3.37-2.06-5.03-5.97-8.42-7.91-2.17-1.24-5.12-.91-7.24-2.16-1.85-1.09-2.85-3.25-4.62-4.37-1.83-1.15-4.41-1.38-6.01-2.92-1.37-1.32-1.8-3.63-3.31-4.82-1.44-1.12-3.95-.58-5.3-2.08-1.23-1.38-1.04-4.81-1.52-6.57-.56-2.1-3-2.84-3.97-4.54-1.87-3.28.76-5.71-4.2-7.32zm-10.68 1.3c-.07 2.95 2.34 6.84 1.78 9.37l2.85-2.25v-.12c-2.68-2.44-3.48-3.3-4.63-7zm-31.66.6c-.95.24-1.52 1.1-2.01 1.9l1.9-.48zm19.45 1.07.12.94h.12zm101.97 2.13-.47.12zm-127.46.36c-1.95.82-1.86 3.18-3.47 3.92-1.25.57-3.64-.55-4.48.58 3.44.23 7.2-.16 7.95-4.5zm-8.35.19c-.82.88-1.65 1.73-2.49 2.53.9-1.37 1.62-2.11 2.14-2.31.11-.05.24-.16.35-.22zm156.16 2.08a1.47 1.47 0 0 0-.55.02c-1.03.22-.5 2.77-.89 3.52-.21.42-.51.75-.84 1.05 1.44-.85 2.97-.91 4.1-2.71-.13 0-.64-1.69-1.82-1.88zm11.78 1.16-.7 1.55h.11zm-130.3 1.66-1.31 2.38v.11l.83 1.43h.12c.7-1.65.3-2.25.35-3.92zm129.47 0 .12.12zm-.12.24-1.06 1.54zm16.74.21c1.53.68 3.14 1.4 4.02 1.74 2.13.81 2.68 1.33 3.72 3.49a54.1 54.1 0 0 1 2.42 5.45c.4 1.19.5 2.02.58 3.4.08 1.43.15 2.26.31 2.96.17.7.44 1.2.87 1.9.44.7.62 1.07.98 1.36.36.3.75.37 1.46.6 3.14.99 4.9 2.91 6.2 6.85.58 1.73.66 1.88 2.22 3.97a15.94 15.94 0 0 1 1.32 1.88c.14.3.13.42.1.96-.1 1.98-.15 2.88-.13 3.42.01.27.05.49.2.69.14.2.3.26.37.3 2.96 1.88 4.74 6.22 4.22 10.62-.2 1.66-.2 2-.02 3.69.1 1 .12 1.61.1 2.27-.33 1.3-.7 2.6-1.06 3.89l-.04.05-.15.25c-.04.08-.11.08-.11.36l.04.25c-.8 2.72-1.73 5.4-2.74 8.03a15.34 15.34 0 0 0-7.95-4.53l-7.2-1.6-5-1.1a11.4 11.4 0 0 0-2.53-.3c-2.54-.01-5.1.77-7.57 2l-2.3 1.6-7.6 6.2-.6.5-.5.5a6.34 6.34 0 0 0-.79-1.76c-.29-1-.61-2.01-1-3.06-.4-1.05-.82-2.38-.93-2.83a35.3 35.3 0 0 0-3.5-7.84l-.81-1.25.53-.88c.35-.57.48-.77.73-.95.25-.18.71-.38 1.69-.78 1.22-.5 1.81-.73 2.29-1.04.48-.32.75-.69 1.29-1.35a57 57 0 0 1 3.28-3.88 7.32 7.32 0 0 1 2-1.41 43.01 43.01 0 0 0 3.81-2.38c.31-.23.52-.39.7-.57.21-.25.3-.52.42-.88a15.88 15.88 0 0 0 .63-4.15c0-1.22.04-1.64.21-2.2a44.9 44.9 0 0 0 1.15-7.17c.04-.82.18-2.02.3-2.56.13-.65.15-1.88.14-3.18a19.39 19.39 0 0 0-.2-3l.19-.27c.2-.26.56-.66 1.08-1.22 1.76-1.87 2.77-3.2 2.97-4.56.1-.69-.04-1.36-.36-2a8.77 8.77 0 0 0-1.49-1.98c-.39-.42-.5-.68-.5-1 .02-.34.2-.83.67-1.55.44-.7 1.04-1.94 1.52-3.12l.93-2.27zm-55.03.38.11.12zm-97.83.12.12.12zm98.5.04.08.04zm.51.08v.12h.6zm.8.16.07.04zm-82.73.32.12.11zm105.93.22c-.25.15-.5.26-.74.47-.1.1-.16.2-.25.3.34-.24.68-.49.99-.77zm-.99.78c-.98.7-1.98 1.41-2.26 2.9 1.5-.82 1.42-1.93 2.26-2.9zm-117.04-.77.24.36zm12.22 0c-.39 3.94-1.31 7.85 3.2 10.2.03 4.7 7.81 8.2 10.05 11.74 2.22 3.49 5 5.42 7.56 8.57 1.44 1.76 2.3 4.22 4.12 5.67 1.8 1.44 4.28 1.87 6.25 2.99 2.2 1.25 3.73 3.6 5.86 4.96 1.9 1.22 4.45 1.52 6.47 2.57 2.57 1.33 4.3 4.45 7.12 5.36 2.62.84 4.98.05 7.59.22 2.41.17 4.61 1.31 7 1.64 2.2.3 4.52-.18 6.75.04 2.24.22 4.1 2.25 6.4 2.25v.23c3.12-.42 5.96-1.81 9.01-2.32 2.57-.42 5.46.25 7.95-.52 2.09-.65 3.64-2.57 5.69-3.22 3.7-1.18 7.58.37 9.13-4.37-1.94.3-4.63.45-6.4 1.26-1.84.84-3.5 2.47-5.46 3.03-2.2.63-4.96-.35-7.23-.1-2.73.29-5.28 1.97-8.06 2.15-2.6.16-5.33-1.21-7.95-1.35-2.61-.14-5.34.96-7.94.63-2.38-.3-4.54-2.1-6.76-2.88-2.27-.8-4.92-.37-7.23-1.14-2.54-.83-4.59-2.96-7-4.08-2.4-1.1-5.42-.61-7.82-1.73-2.39-1.1-3.8-3.73-5.93-5.14-2.07-1.37-4.54-2.11-6.52-3.65-1.77-1.38-2.97-3.39-4.76-4.73-1.73-1.3-3.94-2.06-5.52-3.57-1.64-1.57-2.05-4.2-3.43-5.97-1.7-2.2-4.52-3.87-5.78-6.4-2.15-4.34-2.69-8.76-6.36-12.34zm117.74.12-.12.24zm-75.89.36.12.12zm-90 .83.13.12zm30.95.23.12 9.02h.12c0-2.65.55-6.5-.24-9.02zm-33.55.12c-.67.67-1.56 1.3-1.78 2.26 1.14-.2 2.57-.75 1.78-2.26zm30.47.6c0 2.55.17 5.03.65 7.44zm.65 7.44v.04-.04zm8.76-7.37.04.08zm-.04.52v.83h.12zm-.12.95v.7h.12zm113.47.12.12.11zm-152.6.11.12 1.07h.12zm26.09.24v.12l.59.47zm126.43.08.04.08zm-113.5.28-.84 3.44.95.35.36-.83h-.12l-.24.48h-.12a7.88 7.88 0 0 0 0-3.44zm113.35.12.11.11zm-.12.47.12.12zm-130.55.12.12.12zm12.45 0 .12.12zm-8.77.24.11 2.49h.12zm8.65 0c-1.3 3.22-.05 7.21-.71 10.55 1.6 1.01 1.6 3.66 1.9 5.45l-2.85-.23c0 .6.39 2.79-.83 2.01-2.4 1.22-4.19-2.7-6.16-3.56l-.36.36c.31 1-.52 4.37-1.54 2.49l-.24.71-2.13-1.07.95 1.66c-.64 0-1.15-.04-1.55-.59-.86.14-1.41-.1-1.9-.83h-.11l.12.83c-2.05.37-2.27-.75-4.03-1.07-.29 3.18 2.12 2.33 4 3.61 3.54 2.4 8.28 3.87 11.88 6.35h.12c1.07-1.01 1.58-1.99 1.3-3.43.48.3.93.7.84 1.3l.47.24c.75-.93 1.45-1.19 2.6-1.19l-.94-1.66c.84.93 1.29 1.76 2.6 1.9l-3.78-7.47c1.37-.18 4.67 5.52 5.33 6.88l2.6-2.38-.7.12v-.12c1.37-.68 2.04-2.99 1.9-4.5-1.13.82-1.8 1.75-1.55 3.2-1.04-1.44-1.23-5.3-.83-7-3.69 3.7-5.34.47-5.45-3.9h-.12l-.12 2h-.12v-3.2h-.11v.6l-.24-.36h-.12l-.36 1.3h-.11zm118.1.11.12.12zm-137.9.24 2.02 2.37c-.5-.81-1.12-1.98-2.02-2.37zm137.78.12.12.12zm-140.98 1.19.12.11zm137.75.18c-.87.07-1.74.48-2.58.91-1.34.69-3.08.78-4.18 1.91-1.78 1.82-3.08 5.67-6.02 5.88-2.88.21-1.58-3.27-3.06-4.5-.88-.75-4.11-.3-4.88.48 3.75.08 6.94 7.94 10.96 2.6.51-.67 1.09-1.38 1.49-2.13 3.13.1 3.74-1.96 6.31-3 1.52-.61 3.07-.08 4.48-1.03-.8-.93-1.66-1.2-2.52-1.12zm-137.87.17v.71h.12zm-15.41.36-.72 1.42c.91.12.93-.73.72-1.42zm106.24 0 .11.12zm-85.5.47.36.6h.12zm148.1.24v.24h.24zm-153.43.12.24.23zm30.35.59.12.12zm-29.95.08.04.08zm-12.5.04.84 1.07zm42.57.12.12.12zm-46.24 1.1c-.7.05-1.39.19-2.02.32v.12l4.04-.24a5.46 5.46 0 0 0-2.02-.2zm15.41.2.24.6h.12zm.48.6.47.7zm18.26.82.12.12zm-18.02.12.11.12zm0 .48.11.12zm18.37.12.12.11zm-31.06.11.95 1.07v.12c-.43.55-.4.95.12 1.42.34-1.23.1-1.94-1.07-2.6zm161.73.24c-1.2 4.06-8.4 6.25-11.15 9.84 1.52-.59 5.4-2.02 6.53-3.16.87-.88 1.02-2.3 1.85-3.17 1.25-1.32 2.66-1.43 3.6-3.15zm-148.8.12-.72.36v.11c1.48 1.94.66 6.36 3.56 7.12l.6-3.32c-2.16-.34-2.64-2.48-3.45-4.27zm149.75.12.12.12zm-136.36.95.12.12zm1.78.12.12.11zm-1.66.11.12.12zm.12.24c.97 3.05 2.67 6.78 5.93 7.95l-.6-.6c.28-1.23.72-1.98 1.9-2.49v-.23c-1.95-1.13-4.52-1.71-5.45-3.92h-.12l.12 2.61h-.12zm-32.96 1.54.23.24zm7 1.19c1.19 3.5 2.76 3.45 5.15 5.79.8.79.27 2.3 1.02 3.12.55.58 1.57.22 2.18.68 2.08 1.59 2.84 3.05 4.07 5.19.65 1.13 2.57-.32 2.75 1.7h.12l-.48-3.2h-2.6c-.42-3.03-3.35-5.92-6.53-6.4-.32-4.9-2.93-3.9-5.69-6.88zm34.85 1.42-.24.12v.12zm-39.85.59c-.41-.05-1.17 1.04-.1 1.66.47-1.2.34-1.63.1-1.66zm19.93 1.55.36.7zm156.36.27.08.04zm-.32.2-.35.24v.12zm-.6.47-1.77 1.19v.12c.65-.26 1.46-.65 1.78-1.3zm-175.71.24c1 1.46.44 2.42 1.11 3.55.65 1.09 2.04 1.42 2.87 2.3 2.11 2.27 3.95 4.37 7.28 5.65-.6-2.78-3.36-2.1-3.8-5.1-3.65-1.08-4.41-4.14-7.46-6.4zm32.25.6c.59.25.85.71 1.06 1.3zm16.95.23-.35.48zm124.38.36.12.12zm-.35.23.12.12zm-140.27.6 1.18 1.9c-.54-.43-1.36-1.12-1.18-1.9zm-2.27.48c.52-.08 1.53.88 1.8 1.1 1.8 1.43 3.1 3.19 4.74 4.82v.12l-.36.6c-1.84-1.42-3.21-3.42-4.98-4.93-.25-.22-1.75-1.17-1.39-1.6a.3.3 0 0 1 .19-.1zm152.14 1.18-.35.59h.12zm-11.85 2.13-.24.36zm-.48.24-.47.24v.11zm-125.45.35-.7.48v.12zm124.74 0-.24.12v.12zm-.47.24-.12.24zm-.48.24.12.12zm-.6.24v.11l.48-.11zm42.7 0-1.67 2.6c1.29-.3 2.08-1.25 1.66-2.6zm-43.05.11.12.12zm-177.74 3.09 1.05 2.6 2.63 1.67 1.78-1.43v-.12l-1.54.36c.2-1.69-2.62-2.44-3.92-3.08zm39.69.04.08.04zm149.67.55a7.83 7.83 0 0 0-3.91 3.08c1.36-.61 3.16-1.76 3.91-3.08zm-144.18 1.19v.35h.12zm-23.71.94c.43 1.56 1.53 1.9 2.72 2.85l.48-.83-.6.24.12-.71zm163.74 1.07-2.84 2.37-.24 1.43c1.44-.62 2.39-2.44 3.08-3.8zm-178.8.6-2.85.23c.39.55.8.51 1.42.48-1.25 3.7 1.26 1.49 2.45 3.38.46.73-.33 1.95-.11 2.76.23.84 2.37 1.45 3.12 1.8 0-1 .02-3.28-.7-4.04-2.17-2.32-4.33-.57-3.33-4.62zm17.9 2.48c.16 2.38 1.53 2.15 2.88 3.73.06.07.09.17.14.25-.46-1.55-.42-2.88-3.02-3.98zm157.1 1.3c-.93.24-1.19.89-1.3 1.79h.12zm-120.82 1.79c-.75.94-1.47 1.92-2.16 2.92l.86-1.64zm117 2.88.07.04zm-.56.08v.12h.36zm-.6.12v.12h.36zm-165.04 2.96c.3 2.3 1.14 2.81 3.44 3.32v-1.9zm3.91 6.76.36 1.54 4.15.95c-.33-1.75-3.05-1.91-4.51-2.49zm95.7 2.44c-.06 0-.09-.01 0 .03l1.11.7c-.12 1.47-.25 2.96-.04 4.42.3 2 1.59 3.96 2.12 5.93.88 3.29.57 6.54 2.12 9.72.3.6.81 1.05 1.4 1.45h-.12l1.27.92c.1.2.5.4.8.5l1 .8c.3.3.5.5.6.8l-2.4-.3h-4.28c-.35-1.9-1.05-3.8-2.21-4.37-.17-.75-.31-1.35-.46-1.78a6.9 6.9 0 0 0-1.05-1.9c-1.83-2.62-2.62-4.06-2.98-6.1a233.2 233.2 0 0 1 2.2-8.36c.42-1.41.74-2.15.9-2.4.08-.1.07-.07 0-.05zm-90.84.88.12.12zm93.23.63.47.29 4.17.06 3.94.06 1.92.84c1.11.48 2.61 1.1 3.36 1.37.06.02.12.06.18.1.26.46.5.92.68 1.4.77 2.08-.15 4.54.29 6.63.21 1.03 1.3 1.63 1.8 2.53a12.12 12.12 0 0 1-.65-3.12c-.03-1.57.3-3.14.53-4.7a57.02 57.02 0 0 0 5.78 8.64c3.82 4.7 5.43 6.82 7.08 9.26l.08.1h-3.96c-.8 0-1.6.2-2.3.3-.84.21-2.6.8-2.6.8-2 .7-3.8 1.8-5.3 3.3-1.3-1.3-2.9-2.4-4.6-3.1l-.2-.4-.9-1.6c-.2-.67-.42-1-1.23-1.91h-.02c-1.15-1.35-2.73-2.45-3.5-4.05-1.48-3.02-1.54-6.53-2.4-9.72-.54-2.05-1.93-3.85-2.44-5.93a8.4 8.4 0 0 1-.18-1.15zm-92.64.91.12.6h.12zm.24.72c.89 2.99 3.22 1.52 5.57 2.24 1.2.37 2.06 1.6 3.09 2.26-.78-1.02-2.09-2.81-3.32-3.27-1.7-.62-3.81-.18-5.34-1.23zm80.75 3.9-.03.14-.06-.04.09-.1zm-55.73 2.14.12.12zm54.56.04-.18.76-1.32 5.55-2.18 9.26-2.53-.42a50 50 0 0 0-13 .4c-.1 0-.2 0-.3-.2l-1.2-2-.2-.4h-.34l-.11-.19-.3-.58c1.33-.39 2.66-.86 3.97-1.46.85-.38 1.9-.8 2.16-.87.6-.17 1.82-.74 3.1-1.36 1.27-.63 2.5-1.26 3.02-1.63.36-.26 1.45-.95 2.36-1.49 2.36-1.41 5.5-3.72 6.64-4.94l.4-.43zm-92.74 1.03.12.12zm99.55 2.54c.51 1.43 1.32 2.8 2.65 4.71.5.73.71 1.02.93 1.65.2.63.42 1.62.85 3.62.18.9.35 1.53.51 2.2h-1.46c-2 .1-4 .6-6 1.6l-.4-.2 1.12-4.43h-.47l.14-.57 2.13-8.58zm22.82 2c.18.56.4 1.14.64 1.72-.16-.52-.3-1.04-.5-1.51-.03-.08-.1-.14-.14-.21zm.64 1.72c.72 2.41 1.24 5.12 3.39 6.55-1.06-1.4-2.4-4-3.4-6.55zm72.82.06 11.8 2.5-11.1 51.4 8.1 1.7-2.3 11-8.2-1.8-3.8 17.4-13.3-2.9 3.8-17.4-33.8-7.3-4-10.9 9.7-8 23.4-19.3h-.1zm-151.47 3.37v.03-.03zm22.42 3.56.02.03c.16.3.86 1.77 1.24 2.54-2.6.8-5.2 1.85-7.71 3.3h-.1c-.9-.8-1.8-1.5-2.8-2.1l-.3-.16c.6-.13.76-.19 1.7-.38a294.92 294.92 0 0 0 4.64-.98l.1-.02c.03-.01.01.02.16-.07a45.69 45.69 0 0 0 2.74-1.93l.3-.23zm-3.53 1.27zm129.78 7.2-36.7 30.2 28.8 6.2zm-111.7 7.4c2.51.05 5.02.28 7.5.7 2.3.4 4.4 1 6.3 1.6v7a29.2 29.2 0 0 0-6.3-1.8c-2.2-.4-4.5-.6-7-.6-5.8 0-10 1.5-12.4 4.6a22 22 0 0 0-3.6 13.6c0 5.5 1.3 9.7 4 12.6 2.6 2.8 6.7 4.2 12.2 4.2a33 33 0 0 0 13.2-2.3v7.1a39 39 0 0 1-13.9 2c-7.7 0-13.6-2.1-17.6-6.4-4-4.2-6-10-6-17.2 0-5.2 1-9.6 2.6-13.3 1.7-3.8 4.3-6.7 7.7-8.7 3.5-2 8-3 13.3-3zm-82.5.7h21c1 0 1.8 0 2.6.2 2.5.2 4.6.9 6.4 1.9 2.3 1.3 4 3.2 5.2 5.6 1 2.4 1.6 5 1.6 8a15 15 0 0 1-4.4 11.4 16 16 0 0 1-11.7 4.2h-12.7v15.9h-8zm43.2 0h8v47.2h-8zm61 0h8v25.7l16.7-21.2 3.5-4.4h7.4l-10.9 13.8-4.5 5.7 17.8 27.7h-8.5l-13.9-22-7.6 9.8v12.2h-8zm-96.2 6.3v18.7h11.3c3.1 0 5.5-.8 7.1-2.5a9.3 9.3 0 0 0 2.5-6.7c0-3-.8-5.4-2.4-7-1.5-1.7-3.8-2.5-6.9-2.5zm64.7 58.6c3.4 0 6 .8 7.6 2.6 1.7 1.7 2.5 4.5 2.5 8.4 0 3.8-.8 6.5-2.5 8.3-1.6 1.8-4.2 2.7-7.6 2.7-3.4 0-5.9-1-7.6-2.7-1.6-1.8-2.5-4.5-2.5-8.3 0-3.9.9-6.7 2.5-8.4 1.7-1.8 4.2-2.6 7.6-2.6zm65 0c3.4 0 6 .8 7.6 2.6 1.7 1.7 2.5 4.5 2.5 8.4 0 3.8-.8 6.5-2.5 8.3-1.7 1.8-4.2 2.7-7.6 2.7-3.4 0-5.9-1-7.6-2.7-1.7-1.8-2.5-4.5-2.5-8.3 0-3.9.8-6.7 2.5-8.4 1.7-1.8 4.2-2.6 7.6-2.6zm-47.2.3h3.6v9.3h10.3v-9.3h3.6v21.3h-3.6v-9.2h-10.3v9.2h-3.6zm25.8 0h3.6v21.3h-3.6zm-43.6 2.7c-2.2 0-3.8.6-4.9 1.8-1 1.2-1.5 3.3-1.5 6.2 0 2.8.5 4.9 1.5 6.1 1 1.2 2.7 1.8 5 1.8 2.2 0 3.8-.6 4.8-1.8 1.1-1.2 1.6-3.3 1.6-6 0-3-.5-5.1-1.6-6.3-1-1.2-2.6-1.8-4.9-1.8zm65 0c-2.2 0-3.8.6-4.9 1.8-1 1.2-1.6 3.3-1.6 6.2 0 2.8.6 4.9 1.6 6.1 1 1.2 2.7 1.8 5 1.8 2.1 0 3.8-.6 4.8-1.8 1-1.2 1.6-3.3 1.6-6 0-3-.5-5.1-1.6-6.3-1-1.2-2.7-1.8-4.9-1.8z" style="color:#000;fill:url(#b);fill-opacity:1;stroke-width:2.45005;stroke-linecap:round;stroke-linejoin:round;-inkscape-stroke:none;paint-order:fill markers stroke" transform="translate(-16704.3 1300.6)"/></svg>