<svg xmlns="http://www.w3.org/2000/svg" xmlns:xlink="http://www.w3.org/1999/xlink" xml:space="preserve" width="946.1" height="1159" viewBox="0 0 250.3 306.6"><defs><linearGradient id="a"><stop offset="0" style="stop-color:#57e338;stop-opacity:1"/><stop offset="1" style="stop-color:#38e1e3;stop-opacity:1"/></linearGradient><linearGradient xlink:href="#a" id="b" x1="22264.4" x2="22514.7" y1="175.1" y2="-131.5" gradientUnits="userSpaceOnUse"/></defs><path d="M22389.7-131.5a125 125 0 0 0-125.3 125.2V13c0 14.3 2.5 28 6.8 40.8-3.9 2.8-6.4 7.3-6.4 12.4v47.2c0 6.9 4.6 12.9 11.3 14.6a15.2 15.2 0 0 0 14.6 11.4h8c.3 0 .6 0 1-.2l-.2 3c0 5.6 1.3 12 6 17l.1.1c2.6 2.8 0 0 9 9l.1.1a23.4 23.4 0 0 0 17 6.7c3.7 0 7.9-.9 11.6-2.8a13 13 0 0 0 6.1 2.5h3.7c1.3-.3 2.6-.9 3.8-1.6a13 13 0 0 0 5.4 1.6h3.7a13 13 0 0 0 5-1.2c1 .5 1.8.9 2.8 1.2h14.9c2-.3 4-1.2 5.7-2.4a29.6 29.6 0 0 0 19.9 1.7c1.5-.5 3-1 4.6-2a25.5 25.5 0 0 0 23.5.2 13 13 0 0 0 6 2.5h3.7a13 13 0 0 0 4.6-2 13 13 0 0 0 6.5 2h3.2a13 13 0 0 0 12.9-13v-11.2a15.2 15.2 0 0 0 17.9-11.7l1-4.4c5.4-1.4 9.6-5.8 11-11.3l2.3-10.9c1.2-5.6-.9-11.4-5.3-15l8.2-38.1c1-4.9-.4-9.7-3.5-13.3l-.3-.3c3.5-19 4.1-26.2 4.1-32.9V-6.5c0-26-7.9-50.2-21.4-70.2l-1.8-2.5-2-2.7-1.9-2.5a125.7 125.7 0 0 0-7.5-8.6l-1.4-1.5c-3.3-3.3-6.7-6.4-10.4-9.3l-1-.9a125 125 0 0 0-11.1-7.8l-.6-.4c-4.2-2.5-8.4-4.9-12.9-7l-.8-.3a124.2 124.2 0 0 0-13-5.1c-.3 0-.6-.2-.8-.3-4.7-1.5-9.5-2.7-14.4-3.6l-1.3-.3a125.1 125.1 0 0 0-13.4-1.7l-1.9-.1-7.4-.2zm0 7.1c2.6 0 5.2.1 7.7.3h1l7 .8h.6c5.2.8 10.3 1.9 15.2 3.2h.2a118 118 0 0 1 57.3 36.4l.2.2c3.3 3.8 6.3 7.7 9 12a118.2 118.2 0 0 1 12 106.5l-1.3-1.4a15.2 15.2 0 0 0-6.6-3.3l-10-2a98.6 98.6 0 0 0-56.8-126.4c-4.4-6.5-8-10.8-9.7-10.7-1.2 0-3.3 2.3-6 6A98.4 98.4 0 0 0 22291-6.4c0 22 7.2 42.2 19.3 58.6a28.5 28.5 0 0 0-5.6-1.1l-3.7-.2h-14c-11-22.1-15-39.4-15-57.5a117.8 117.8 0 0 1 117.7-117.9zm25.8 18.2c.5.3 1 1 1.8 1.7 1 1.1 2.4 2.8 3.7 4.7l1.7 2.2c3.8 5.4 8.4 12.7 12.8 20-.8.7-1.7 1.2-2.5 1.2-3.1 0-6.3-8.8-8.9-8.8-2.5 0-4 6.6-6.6 6.6-2.6 0-2.9-5.8-5.8-5.8-3 0-6.9 9.6-9.7 9.6-1.3 0-3-1.7-4.4-3.5 3.8-6.8 7.6-13.4 10.9-18.5l1.4-2.2 2.3-3.3 1.5-2 1.8-1.9zm-25.9 5c6 0 12 .7 17.7 1.7-12.3 18.7-32.4 58.8-32.4 58.8s-9-9.4-12.4-9.4c-3.4 0-34.4 52-34.4 52s-17.6-19.6-21.4-19.6c-2 0-7.1 3-11.8 6 2.8-49.9 44.1-89.5 94.7-89.5zm39.5 8.7c28.9 13.2 50 40.5 54.4 73.2-5.4-9-11.2-18.3-12.2-19l-14.3-7s-15.6-28.4-28-47.2zm-118.5 86 .4 2c4 20.3 8 19 10.6 19.1 0 0-1.6 1.8-3.7 2.7 2.6 3.9 5 3.4 6.9 3.6 0 0-2.1 2.3-4.8 3.4 2.9 3.7 5.5 3.2 7.6 3.4l-1.9 1.7c1.3-.4 2.6-1.2 4-3.3-2-.9-3.6-2.6-3.6-2.6 2.6-.2 6.6 1.1 10.5-19.1l.4-2 .4 2c3.9 20.2 7.9 18.9 10.5 19 0 0-1.6 1.8-3.7 2.7 2.7 4 5 3.4 7 3.6 0 0-2.2 2.3-4.9 3.4 3 3.7 5.6 3.2 7.6 3.4 0 0-.7.8-1.8 1.7 1.2-.3 2.6-1.1 4-3.3-2-.8-3.7-2.6-3.7-2.6 2.6-.2 6.6 1.2 10.6-19l.3-2.1.4 2c4 20.3 8 18.9 10.6 19.1 0 0-1.6 1.8-3.7 2.6 2.6 4 5 3.5 6.9 3.6 0 0-2.1 2.3-4.8 3.5 2.9 3.6 5.5 3.2 7.6 3.3 0 0-.7.8-1.9 1.7.3 0 .6-.1.8-.3h.2l.7-.5c.1 0 .2 0 .3-.2l.7-.6.3-.3 1-1.2v-.1a8.9 8.9 0 0 1-2.6-1.7c-.7-.5-1-1-1-1l1.8-.1h.3c2.5-.7 5.5-3.8 8.4-19l.4-2c0 .7.2 1.4.3 2 3 15.2 6 18.3 8.4 19h.3l1.8.1a12.3 12.3 0 0 1-3.6 2.7v.1l1 1.2.3.3.7.6.3.2.7.5h.2c.3.2.5.3.8.3a19 19 0 0 1-1.9-1.7c2.1-.1 4.8.3 7.7-3.3a15.1 15.1 0 0 1-4.9-3.5c2-.1 4.3.3 7-3.6-2.1-.8-3.7-2.6-3.7-2.6 2.6-.2 6.6 1.2 10.5-19l.4-2.1.4 2c3.9 20.3 7.9 18.9 10.5 19.1 0 0-1.6 1.8-3.7 2.6 1.5 2.2 2.8 3 4 3.3l-1.8-1.7c2-.2 4.7.3 7.6-3.4-2.7-1-4.8-3.4-4.8-3.4 1.9-.2 4.3.3 7-3.6-2.2-.9-3.8-2.6-3.8-2.6 2.6-.2 6.6 1.1 10.6-19.1 0-.7.2-1.3.3-2l.4 2c4 20.2 8 18.9 10.6 19 0 0-1.6 1.8-3.7 2.7 1.4 2.1 2.8 3 4 3.3l-1.9-1.7c2.1-.2 4.8.3 7.7-3.4a15.1 15.1 0 0 1-4.9-3.4c2-.2 4.3.3 7-3.6-2.1-.9-3.7-2.7-3.7-2.7 2.6-.2 6.6 1.2 10.5-19l.4-2 .4 2c3.9 20.2 7.9 18.8 10.5 19 0 0-1.6 1.8-3.7 2.7 1.7 2.4 3.2 3.1 4.6 3.4l-.8 2.7-1.7.9 1 1.1-.4 1.2c-.5-.4-1-.9-1.5-1.6-.5-.6-.3-1.6.5-1.9 1-.4 1.2-.8 2-1.4h-.3c-1.5-.5-3-1.6-4.4-3.7-.4-.7-.2-1.6.6-1.9.6-.2.6-.5 1.2-.8a6 6 0 0 1-2.8-2 38.4 38.4 0 0 1-5.2-14.2 38.4 38.4 0 0 1-5.2 14.3 6 6 0 0 1-2.8 1.9c.5.4.6.6 1.2.8.7.3 1 1.2.6 1.9a8.8 8.8 0 0 1-4.4 3.6h-.3c.7.7.9 1.1 2 1.6.8.3 1 1.2.5 1.9a8.7 8.7 0 0 1-5.3 3.4l1.3 1.2h.2c.4.4.9.7 1.6 1 .8.3 1 1.3.5 2a10.1 10.1 0 0 1-4 3c1.8.8 3.4.7 4.7.8 0 0-1.2 1.4-3.1 2.6.3.1.5.4.6.6l-2.4 2 1.3-1.4-.8-.4-1.5.8 1 1-7 5.7v.2l-14.2 11.7a15.2 15.2 0 0 0-7.8-7 9 9 0 0 0 1.7-1l-1-1c-.5-.7-.3-1.7.5-2 .3 0 .5-.2.7-.3-2.7-1.6-4.6-3.7-4.6-3.7 1 0 2 0 3-.2-.4-.4-.9-.8-1.3-1.4-.5-.6-.3-1.6.5-1.9 1.1-.4 1.3-.8 2-1.5h-.3c-1.4-.5-3-1.6-4.4-3.7-.4-.6-.1-1.5.6-1.8.6-.3.7-.5 1.2-.9a6 6 0 0 1-2.8-1.9 38.4 38.4 0 0 1-5.2-14.3 38.4 38.4 0 0 1-5.2 14.4 6 6 0 0 1-2.8 1.9c.5.4.6.6 1.2.9.8.2 1 1.1.6 1.8a8.8 8.8 0 0 1-4.4 3.7h-.3c.7.6 1 1 2 1.5.8.3 1 1.2.5 1.9a8.7 8.7 0 0 1-5.3 3.4l1.4 1.2h.1c.4.4.9.7 1.6 1 .8.3 1 1.3.5 1.9a10.1 10.1 0 0 1-4 3c.8.4 1.5.6 2.1.7l-1.8 1.5a15.2 15.2 0 0 0-10-4.4h-8c-2 .1-3.9.6-5.7 1.4l.4-.2.4-.4 1-1.1-1-.5-.4-.2-.6-.4-.5-.4c-.5-.3-1-.6-1.3-1-.6.5-1.4.9-2.2 1.2a9.3 9.3 0 0 0 4.1 3l-.2.2-3.3-1-1.5-1.4c-.6-.7-.3-1.6.5-2 .7-.2 1.2-.6 1.6-.9h.1l1.4-1.2a8.7 8.7 0 0 1-5.3-3.5c-.5-.6-.3-1.6.5-1.9 1-.4 1.2-.8 2-1.4h-.3c-1.4-.6-3-1.6-4.4-3.8-.4-.6-.2-1.5.6-1.8.6-.3.7-.5 1.2-.9a6 6 0 0 1-2.8-1.8 38.4 38.4 0 0 1-5.2-14.4 38.4 38.4 0 0 1-5.2 14.3 6 6 0 0 1-2.8 1.9c.5.4.6.6 1.2.9.8.3 1 1.1.6 1.8a8.8 8.8 0 0 1-4.4 3.7h-.3c.7.6 1 1 2 1.5.8.3 1 1.2.5 1.9l-1.3 1.4 3 .2s-1.9 2-4.6 3.7l.7.3c.8.3 1 1.3.5 2l-1 1h.2c-3.8.9-7.4 2.2-10.9 4.2l-.1.1a15.2 15.2 0 0 0-10.2-4.6h-8l-1.3.2c.7-.6 1.4-1.2 2.1-2.1-3.8-1.5-6.7-4.8-6.7-4.8 2-.1 4.2.2 6.7-1.8l-1.4-1.4c-.5-.7-.3-1.7.5-2a20 20 0 0 1-3-2.6c1.2-.1 2.8 0 4.5-.8-1.2-.5-2.6-1.5-4-3.1-.4-.6-.2-1.6.6-2 .8-.2 1.2-.5 1.7-.8v-.1l1.4-1.2a8.7 8.7 0 0 1-5.3-3.4c-.5-.7-.3-1.6.5-2 1.1-.4 1.3-.8 2-1.4h-.3c-1.4-.5-3-1.6-4.4-3.7-.4-.7-.1-1.6.6-1.9.6-.2.7-.4 1.2-.8-1-.4-1.9-.8-2.8-2a38.4 38.4 0 0 1-5.2-14.2 38.4 38.4 0 0 1-5.2 14.3 5.9 5.9 0 0 1-2.8 1.9c.6.3.6.6 1.3.8.7.3 1 1.2.5 1.9a8.8 8.8 0 0 1-4.4 3.6h-.3c.8.7 1 1 2 1.5.8.3 1 1.3.5 2l-1.5 1.5-.4-1.2 1-1.1-1.7-1-.9-2.6c1.4-.2 3-1 4.7-3.4-2.1-.9-3.7-2.7-3.7-2.7 2.6-.2 6.6 1.2 10.5-19l.4-2zm168 33.1zm-154.8 4c-.6.5-1.4 1-2.2 1.2a9.3 9.3 0 0 0 4.2 3.1c.6-.4 1.2-1 1.8-1.8-1.6-.6-2.9-1.6-3.8-2.4zm131.6 0c-.8.9-2.1 1.9-3.7 2.5.6.8 1.2 1.4 1.8 1.8a9.3 9.3 0 0 0 4.2-3l-2.3-1.2zm-105.2 9-2.2 1a9.3 9.3 0 0 0 4.1 3.2l1.9-1.8c-1.6-.7-3-1.7-3.8-2.5zm78.9 0c-.9.7-2.2 1.7-3.8 2.4l1.8 1.8a9.3 9.3 0 0 0 4.2-3.1l-2.2-1.2zm-104.7.3-.8.4 1.3 1.4 1-1-1.5-.8zm152.6 2.8 11.8 2.5-5.4 25-5.7 26.4 1.2.3 7 1.5-2.4 10.9-8.2-1.8-3.8 17.4-13.3-2.9.6-3 1.4-6.4 1.7-8-33.7-7.3-4-10.9.7-.6 9-7.4 3-2.5 20.4-16.8h-.1l4.4-3.6 6.3-5.2 5.6-4.7zm-74.3 5.7-1.2 1c-.2 0-.3.2-.5.3l-.6.4-.3.2-1.1.5c.3.4.6.8 1 1l.4.5.4.3a9.3 9.3 0 0 0 4.2-3.1l-2.3-1.1zm-52 .3-.8.4 1.4 1.5 1-1.1-1.6-.8zm77.9 0-1.6.8 1 1c.5-.4 1-.8 1.4-1.4l-.8-.4zm45.6 9.5-36.7 30.1 18.8 4 10 2.2zm-111.7 7.4a50.5 50.5 0 0 1 10.5 1.3l2.8.8.5.1v7a29.2 29.2 0 0 0-6.3-1.8c-.4 0-.9 0-1.3-.2a34.4 34.4 0 0 0-9.7-.1c-1.3.2-2.4.5-3.4.8-2.1.8-3.8 2-5 3.6l-.1.1c-.7 1-1.3 2-1.8 3.2v.3c-.4.7-.6 1.5-.8 2.3-.6 2.2-.9 4.8-.9 7.6 0 5.5 1.3 9.7 4 12.6 2.6 2.8 6.7 4.3 12.2 4.3a33 33 0 0 0 13.2-2.3v7a39 39 0 0 1-13.9 2h-.6a28.8 28.8 0 0 1-12.1-2.7l-1.8-1-.3-.3a17.8 17.8 0 0 1-4.4-4.3v-.1l-1.4-2.1c-2-3.6-3-8-3-13 0-5.3.9-9.7 2.6-13.4l.1-.3.7-1.2.1-.3.7-1.2c.7-1 1.4-1.8 2.1-2.5l.1-.1c.8-.8 1.6-1.5 2.5-2.1l1.4-1c2.7-1.5 6-2.5 9.8-2.9l3.5-.1zm-61.5.6 2.6.2c2.5.2 4.6.9 6.3 1.9 2.4 1.4 4.1 3.3 5.2 5.6 1.2 2.4 1.7 5 1.7 8.1 0 2-.2 3.7-.7 5.3l-.6 1.6v.1l-.8 1.4-.1.2-.8 1.2-.2.2a14 14 0 0 1-6.3 4.5 17 17 0 0 1-6.6 1h-12.7v16h-8V66.1h15.5zm22.2 0h8V113.4h-8V66.6zm61 .1h8V92l2.7-3.5 14-17.8h.1l3.4-4.3h7.4l-8 10.1-1.3 1.6-.1.2-.9 1-.6.8-4.5 5.8.7 1 2.4 3.8 14.7 22.9h-8.6l-2.4-4-11.4-18-7.7 9.7v12.3h-8V85Zm-96.2 6.2v18.7H22299.3c3.1 0 5.5-.8 7.1-2.5.4-.3.7-.7 1-1.2l.4-.8.3-.5.4-1.2v-.2c.2-.9.4-1.8.4-2.8 0-3-.8-5.4-2.4-7-1.4-1.6-3.5-2.3-6.2-2.5h-.7zm34.6 58.6c3.4 0 5.9.9 7.6 2.6 1.6 1.7 2.5 4.6 2.5 8.5 0 3.7-.9 6.5-2.5 8.2-1.7 1.8-4.2 2.7-7.6 2.7-3.4 0-6-.9-7.6-2.7-1.7-1.7-2.6-4.5-2.6-8.2 0-4 .9-6.8 2.6-8.5 1.6-1.7 4.2-2.6 7.6-2.6zm74.2 0a20 20 0 0 1 6.3 1v3a15.8 15.8 0 0 0-6-1c-2.7 0-4.6.8-5.7 2.2a7 7 0 0 0-1 1.9c-.4 1.2-.7 2.6-.7 4.3 0 2.5.6 4.3 1.8 5.6 1.1 1.3 2.9 2 5.3 2 1.9 0 3.4-.3 4.6-.7v-6h-5.3v-2.3h8.4v10.2c-.7.5-1.7.9-3 1.3-1.2.3-2.8.5-4.8.5-3.5 0-6.2-1-8-2.9a10.9 10.9 0 0 1-2.6-7.7c0-1.6.2-3 .6-4.4l.5-1.6a9 9 0 0 1 3.6-4l1.2-.6c1.4-.6 3-.8 4.8-.8zm24.8 0 2.1.1.7.1 1.3.3.6.2 1.3.7h.2l1.4 1.2c1.7 1.7 2.5 4.6 2.5 8.5 0 3.7-.8 6.5-2.5 8.2-1.7 1.8-4.2 2.7-7.6 2.7-3.4 0-6-.9-7.6-2.7-1.7-1.7-2.5-4.5-2.5-8.2a15.3 15.3 0 0 1 1.6-7.2c.3-.5.6-1 1-1.3 1.6-1.7 4.1-2.6 7.5-2.6zm-81.3.3h9.8l1.7.1c1.6.3 2.7.8 3.6 1.8l.1.2c1 1.2 1.5 2.8 1.5 4.7 0 1.5-.4 2.8-1.1 3.9-.8 1-1.9 1.8-3.3 2.2l1 1 .6 1.3 2.7 6.2h-3.7l-2.6-6c-.3-.6-.6-1-1-1.2-.2-.3-.8-.4-1.6-.4h-4v7.6h-3.7zm24.4 0h14.9v2.8h-11.3v6.5h10v2.8h-10v6.5h11.3v2.8h-14.9v-17zm74.7 0h3.2l11 15.7v-15.7h3.7v21.4h-3.2L22443 137v15.7h-3.6zm-116.8 2.8c-2.2 0-3.9.6-5 1.8-1 1.1-1.5 3.2-1.5 6.2 0 2.8.5 4.8 1.6 6 1 1.2 2.7 1.8 4.9 1.8s3.8-.6 4.9-1.8c1-1.2 1.6-3.2 1.6-6 0-3-.6-5-1.6-6.2-1-1.2-2.7-1.8-5-1.8zm99 0a9.1 9.1 0 0 0-2.4.3 5 5 0 0 0-2.5 1.5c-1 1.1-1.6 3.2-1.6 6.2 0 2.8.6 4.8 1.6 6 1 1.2 2.7 1.8 4.9 1.8s3.9-.6 5-1.8c1-1.2 1.5-3.2 1.5-6 0-3-.5-5-1.6-6.2-1-1.2-2.5-1.8-4.6-1.8h-.3zm-77.7 0v8h5.3c1.3 0 2.3-.2 3-.9.8-.6 1.2-1.6 1.2-3 0-2.7-1.3-4-3.9-4z" style="color:#000;fill:url(#b);fill-opacity:1;stroke-width:2.45097;stroke-linecap:round;stroke-linejoin:round;-inkscape-stroke:none;paint-order:fill markers stroke" transform="translate(-22264.4 131.5)"/></svg>