<svg xmlns="http://www.w3.org/2000/svg" xmlns:xlink="http://www.w3.org/1999/xlink" xml:space="preserve" width="960.7" height="1157.7" viewBox="0 0 254.2 306.3"><defs><linearGradient id="a"><stop offset="0" style="stop-color:#50133c;stop-opacity:1"/><stop offset="1" style="stop-color:#f11663;stop-opacity:1"/></linearGradient><linearGradient xlink:href="#a" id="b" x1="8376" x2="8482.9" y1="-3398.2" y2="-3508.4" gradientTransform="matrix(1.71 0 0 1.71 1841.4 2946.4)" gradientUnits="userSpaceOnUse"/></defs><path d="M16268.8-3087.2c-69.2 0-125 55.8-125 125v19.3c0 14.4 2.5 28.2 7 41a15.2 15.2 0 0 0-7 12.5v47.1c0 3 1 6 2.7 8.5a13 13 0 0 0-4.5 9.5v21.4c.1 3 1.2 5.7 3 8 1.7 2 8.8 9 10.6 10.6 2.2 2 5.2 3.3 8.5 3.4h209.9c5.5 0 12.1-1.7 16.7-6.8a23.9 23.9 0 0 0 5.5-16.6c0-5.6-.8-11.7-5.6-17a19.3 19.3 0 0 0-5.9-4.4l-.1-.2c1.7-1.9 3-4.1 3.6-6.5l2.3-11c1.2-5.5-.8-11.3-5.3-15l8.3-38c1-5-.5-10.2-4-13.9v-.3h-.3.3c2.8-10.3 4.3-21.1 4.3-32.3v-19.3c0-69.2-55.8-125-125-125zm0 7.2a117.8 117.8 0 0 1 110.2 159.5c-2-2.4-4.9-4-8-4.8l-10-2.2a98.5 98.5 0 1 0-173.2 21.1l-.6 2.5a27 27 0 0 0-3.4-.6l-3.7-.2h-14.1a117.8 117.8 0 0 1 102.8-175.4zm0 23.1a94.6 94.6 0 0 1 88.3 129c-.8-.2-1.6-.2-2.4-.2-3 .3-6 1.5-8.3 3.4l-14.9 12.3-11-.9-12.4-.8-2.5.3c-2 .3-2.7.3-4.8.1a852 852 0 0 0-24.7-1.4v-.1a28.5 28.5 0 0 1-.7-3.8l-.7-3.9 1.7-1.5a21 21 0 0 1 2-1.7h.2l1-.1h1.5c1.7 0 2.3-.2 3-.5l1.5-1.2c.4-.5.8-1 1-1.5v-1.6a8.6 8.6 0 0 0-.1-1.2s0-.2-.2-.3h-.1v-.1h-.5a47 47 0 0 0-4.1-.3l-4-.1-1-3.8c-.6-2.4-.8-3.5-1.3-4.2-.3-.4-.7-.5-1-.6H16271.4v-.3l-.3-1.2-.6-3.7-1-5.3v-.3l-.7-.5h-.1c.4-.2.8-.5 1-1v-1.5l.1-2.6v-3.5c0-.1 0-.2-.2-.3l-.8-.6-.6-.5-.3-.1V-2964.7l.2-3.7.1-6v-7.8c0-.1 0-.3-.2-.3l-4.5-2.2-4.5-2.1h-.1l-4-.5a1567.3 1567.3 0 0 1-3.8-.4v-3.7c0-.2.1-.3.3-.5l1.3-1a33 33 0 0 0 1.5-1.2l.1-.2.1-.2v-.2l-.1-.1-.2-.2a21 21 0 0 0-2-1.3 686.8 686.8 0 0 0-12.6-7.7l-.2-.2v.1c0-.4-.2-.7-.5-1l-1.6-.8-.6-.2.3-.3V-3006.6l.3-.2c.5-.2 1-.7 1.3-1.2.4-.7.6-1.2.6-2.3 0-1.1-.2-1.6-.7-2.3a4 4 0 0 0-3.4-1.7c-1.5 0-2.5.5-3.2 1.5a4 4 0 0 0 .5 5.4 9.4 9.4 0 0 1 .7.8l.2.4h.2l-.2.2c-.4 0-1 .3-1.5.5l-.8.5c-.2.2-.4.4-.4.7l-.1.1-1 .7a206.6 206.6 0 0 1-11.9 6.5 125.5 125.5 0 0 0-2 1.2h-.2v.1h-.1v.2h-.1v.4l.2.2.3.3 1 .7c.9.8 1.3 1.2 1.4 1.5.2.3.2.8.1 2v2l-4.4.2-4.7.2h-.1l-4 2a202.7 202.7 0 0 0-4 2l-.2.1v.1l-.2.2v.7l-.2 1.7a488.7 488.7 0 0 0-.5 16.9l-.4.1-1.2.9a2 2 0 0 0-.5 1.1l-.1 3.2-.1 3.6.1.3.5.4.4.4.1.1-.2.3c-.3.3-.6.6-.8 1.1l-.6 2.7-.5 2.2v.4a106.2 106.2 0 0 1-5.4-3l-5.9-3.4h-.1l-10.6-.6h-.1a94.6 94.6 0 0 1 94.3-102.4zm35.4 16.6a30.6 30.6 0 1 0 37.5 37.4 28.3 28.3 0 1 1-37.5-37.4zm-69 26.8c1.2 0 2 .5 2.6 1.4.5.6.5.7.5 1.8 0 1 0 1.2-.5 1.9l-.5.5c-.1-.2-.3-.3-.6-.4-.6-.3-1.1-.7-1.4-1.3-.3-.5-.5-1.3-.5-2.3 0-.7.2-1.2.3-1.3l.1-.3zm1 6.7v.3-.2l-.2.1-.2.3.1-.4v-.1h.3zm-.5.5-.1.2.1-.2zm0 .7.5.3.7.3 1.4.7.3.3.1.4.3.3 1.2.8a221.9 221.9 0 0 0 11.4 7l.2.1-.2.2a15.9 15.9 0 0 0-2.6 2l-.3.4-.8-.5a17.6 17.6 0 0 0-1.3-.5h-.3l-.3.1-.1.2-.1.4a14.3 14.3 0 0 0 0 2.6v.4l.1.2v1l-.2.8v.4l.2.3h.1l-.3.3v3.6l.2.3-.1.4v1.6a15.5 15.5 0 0 0 0 2.1l.4.4.6.1h.2c0 .1.1.3.3.3l.5.2.7.2h.4l.2-.2h.1a33.7 33.7 0 0 0 .3.1h.1l.2-.3V-2979h.4v.7l.1.2.1.1h-.1v.2l-.2.3-.2.8v.2h-.3c0-.1-.2-.1-.4 0l-.1.1c0-.2-.2-.4-.3-.5l-.5-.2-.4-.2h-.5l-.1-.1-.3-.2-.4-.2-.3-.1-.4.1-.1.3v.4c0 .2.1.5.5.6H16247.2l.1.1c.2.4.5.6 1 .6h.4l.2-.4v.3c0 .3.3.6.7.6h.1v.8l.1.3v.4l-.1 1v1.6l.2.2c-.4.2-.4.4-.4.7v1.5l.2.3.5.2h.2l.1-.2.2.2h.4a31.6 31.6 0 0 1 1 .1v-.1l.3.2h.4a22.2 22.2 0 0 1 1 .1v-.1l.1-.2.3.3.3.2h.6c.2 0 .4 0 .5-.3l.1.2.5.3a2.4 2.4 0 0 0 1 0l.1-.1.1.2.4.2c.2 0 .3-.1.3-.2l.1-.2v-.2l.2.1H16258.8l.1.3.1.2.4.2.3-.2.1.2.3.1.4-.1.4.1h.3l.1.1.3.1h.5c0 .1.1.2.3.2.1 0 .2 0 .3-.2v.1c0 .1.2.3.4.3s.2-.1.3-.2v.2l.5.2.3-.2v.3l.4.1c0 .2.2.4.4.4l.4-.1.1.2h.3l.2.1.3.2c.1.2.3.3.4.3.1.1.3.2.5.1v1l-1-.6-2-.6c-1.4-.5-3.4-.9-5.6-1.3-6.1-1-13.7-1.6-24.2-1.9l-7.3-.2v-.7h3l3.2-.1.2-.3c.1 0 .3.1.4 0 .3 0 .2-.1.3-.2v-.1l.1-.5.2-1.5-.1-.5-.3-.3h.1v-.3l.1.3.1.2h.5c.2 0 .2-.2.2-.2a1 1 0 0 0 0-.8v-.1l-.2-.2h-.5v.2-.5.2h.1a20.4 20.4 0 0 1 .3 0h.2l.1-.2v-.3l.1-.5v-3.1l-.1-.2-.4-.2h-.2v-.2l-.3-.3h-.3V-2981.6H16234.4l.3-.3-.1-.5a.6.6 0 0 0-.5-.1h-.3v-1.7l.1-.4-.2-.2.2-1.5V-2988.2l-.1-.3c.2 0 .4-.2.4-.5l-.1-.1V-2990.7l.2-3.1v-.5 5.2c0 .2 0 .3.3.5l-.2.2v2l.2.1s.1.2.3.2h.2v1.6c0 .2.1.4.3.4h.2v.3l-.1 1.6v2c0 .1.1.3.4.3h1.5l.3.2h1.6l.2-.2.3.3.7.1h.6c.2 0 .4-.2.4-.4 0 .2.2.3.3.3l-.1.5v.3l.3.2h.3c.2 0 .2-.2.3-.2l.1-.3v-.3h.2c.2 0 .3-.2.4-.3v-.2.2l.6.5h1c.2-.1.3-.3.3-.5l.1-1.6c0-1 0-1.4-.2-1.9l-.3-.2h.1l.4-.4v-.7c.2-.5.2-1.2.2-1.8v-1.1l-.1-.1.1-.3V-2991.7l.1-1.5V-2994.1h-.1l-.1-.1h-.2l-.3-.1a23.3 23.3 0 0 0-2-.3v-.1l.2-.4c0-.3.3-.6.6-1l.9-1.2v-.3l-.1-.3-.4-.2h-.6a72.8 72.8 0 0 0-4.9-.6 89 89 0 0 1-3.9-.5h-.3l.2-.5.2-1.8a27.3 27.3 0 0 1 .6-3.5l.3-.3v-.3zm-12.4 11.5v2.8l.1 2.7h-.3V-2991.8a22 22 0 0 1 .2-2.3zm27 2.6v3.7a2.8 2.8 0 0 0 0 .6v.1l.1.1.1.1v.2l-.2.4a15.1 15.1 0 0 0 0 3l.2.4h.1l-.2.3-.1 2v.6h-.3V-2982.7l-.1-.1.2-.4v-3.5l-.2-.3.2-.5v-3.2l-.1-.4.3-.2zm-30.2 0 1 .5 1.2.5v1.8c0 .1 0 0 0 0h-.5l-.9.1h-.8v-2.8zm29.2.9a14.3 14.3 0 0 1 0 2.9 88.5 88.5 0 0 1-2.7-.3v-.8l.1-.8 1.3-.5 1.3-.5zm-24 1h.4l3.9.4h.8l-.5.1c-1.8 0-3.7.2-4.2.3h-.5v-.4zm19.5.5v.9h-.5l-5-.5-.9-.1 3.7-.2zm-11.7 1.3h.1v1.4l-.2 1.3-2.3.1-4.4.3h-1.3l.1-1.2.1-1.3v-.2h.2a33 33 0 0 1 3.8-.3h4zm2.9 0h.4a375 375 0 0 0 7.3.8l1 .1v2.8h-.2l-4.8-.4-3.7-.4v-1.5zm-12.6.3v.8c0 .5 0 .8.2 1l.2.5h.4v.7h-1.4v-.3l.2-1.2v-1.5zm-1.2.2v1.3l-.1 1.2v.2h-.2l-1 .1h-1v-1.2l.2-1.2v-.3h1.2zm-3 0h.1v.3l-.1 1.2-.1 1.5h-.3l.1-.3v-2.7h.4zm-1 .2v2.5l-.1.2-1 .2h-2.4l-4.2.3h-.7v-2.4l.1-.3 1.2-.1 4.4-.3zm28.3.5H16248.4l1 .2v2.7h-.7l-1.7-.1h-.5v-1.5zm4.6.3h.1a78.9 78.9 0 0 1 6.5.7h.3v2.8l-3.3-.3-2.5-.3h-1a11.7 11.7 0 0 1 0-2.8zm-42.5.1v2.5l-1.4.6a25.7 25.7 0 0 1-1.7.7h-.1a13 13 0 0 1-1.6-.6c-.4 0-.7-.2-1-.3l.3-.2 2.5-1.2zm50.6 1 .5.3a267.1 267.1 0 0 1 6.2 3l-.8.2-2 .7h-.1a16.6 16.6 0 0 1-2-.7l-1.7-.8v-2.6zm-26.1 1.4v3h-.7v-2.8h.1l.5-.1zm-1.9.2v2.8h-.7v-2.8h.4zm-2 0 .1 1.4v1.5h-.7v-2.8h.7zm7.2 0 .6.2v2.7h-.7v-2.8zm-9.7.2h.7v2.4l-.1.3-.4.1h-.2v-1.4zm-2.5 0v3.2h-1.5l-.1.1v.2H16222.2v-.3l.1-1.4v-1.7h1.5l.3-.1zm14.1 0h.4l.2.1v2.8h-.7V-2983l.1-.2zm-12.8 0v1.6l-.2 1.3H16225v-2.8h.5zm14.8.2h.2l.3.1v2.8H16240.2c-.1 0 0 0 0 0v-2.9zm-21.1 0v2.1a18.7 18.7 0 0 0 0 2.4h-.1l-.5.4v-.2l-.1-.3v-4.4h.7zm2.4 0v3.4h-.1l-.5.2h-.1v-1.5l.2-1.6v-.4h.3zm20.6.2h.6v2.4l-.1.5h-.4l-.1-1.6zm-24.5 0v3.7h-.5V-2981.3c0-1 .1-1.4.2-1.6 0-.1 0 0 0 0l.3-.2zm31.3.1h.1v.1h-.1zm-33.6 0h.5v3.4H16215.3V-2981.4zm28.7 0h.3v.1c.1.1.2.6.2 1.5v1.4h-.4l-.1-1.6v-1.4zm-30 .1v3.1h-.6v-3h.4zm-2.5.1h.5V-2980h-.3v-.2h-.1v-1.3zm-1.3.1v1.1l-.1.8h-.4v-1.8h.5zm36.3 0v.3a16.6 16.6 0 0 1 0 2.8v-.1a16.7 16.7 0 0 1 0-3zm1.3.1h.4l.1.1.1 2V-2978.7h-.4l-.3-.2V-2982.5zm-46.3.2 1.6.5.7.3a28.6 28.6 0 0 1-2.1 1h-.2v-1.9zm32.6 0v.2h-.2c0-.2.1-.2.2-.2zm24.3.2.2.2-.2-.2zm-6.9 0h.6v1.7l.1 1.7H16251.7v-1.6zm-17.3 0v.4h-.1l-.1-.3h.2zm19.2.2h.6v1.6l.1 1.5h-.7v-1.5zm1.9.2h.6V-2978.8h-.5v-1.5zm-47.8 0-.2.1h.2zm-.5 0v.6l.3.2v.1l-.1.3h-.1v-.2h-.2l-.2-.1h-.1v-.2l-.2-.1-.3-.1h.1l.8-.4zm50.2.2h.6V-2979l-.6.2v-1.4zm-48.3.1v1h.2l-.2.4h-.1v-1.3zm51 .1.4.2h-.2l-.1-.2zm-54 .2-.1.1v.2h-.4l.4-.3zm54.7.1.3.1h-.2v.1l-.1-.2zm6.3.2v1.9l-.2-.1-1.3-.6-.9-.4.7-.3 1.7-.5zm-61.8 0v.1zm56.3.2.7.2-.2.3.1.3h-.5a1 1 0 0 0 0-.8zm-.5.3h.4c-.1.1-.3.2-.4.1h-.1v-.1zm1.7 0v.2-.1zm-58.8.2zm7 0 .2.5h.1l-.1.2v-.2l-.3-.3.1-.1zm52.4.2.1.2.5.2h-.1l-.1.1-.1.1-.1-.1-.1-.1h-.3l.2-.4zm-2.3.3v.1h-.1v-.1zm.2 0c.1.1 0 .2 0 .2v-.2zm-1.2 0c0 .1 0 .2.2.2h.4v.5h-.4l-.2.2v.2h-.2l-.2-.1h-.2v-.4c.2.1.5 0 .6-.1zm-57.4.1v.2s-.2.1-.2 0h-.2.1l.3-.2zm7.1 0h.2l.4.2v2.4a5.4 5.4 0 0 1-.7-.2v-1.7zm3 .1.1.3c-.2.3-.3.5-.3.8v-.8l.2-.3zm29.4.1h.2l-.1.1h-.1c0-.1 0 0 0 0v-.1zm.3 0 .1.2c0 .1 0 0 0 0h-.1v-.1zm-40.4 0v.3s.1.2.3.2h.4l.2.1h.4l.3.2a.4.4 0 0 0 .4-.2v-.2c.1 0 .3.2.5.1V-2978.5h.1l.1.1h.4l.1.2a8 8 0 0 0 .3.1h.1v.2l.2.1v.7l-.1.2v.1l-.3.1-.1.2v.4l-.1 1v.3l-.1-.2-.1-.1a37.5 37.5 0 0 0-.2-.1h-.2v-1.6l-.1-.1-.1-.1-.2-.1h-.2l-.2.2v3.2h-.5c-.2 0-.3.2-.3.4l-.1.4v.7h-.2v-3.3l-.1-.1-.2-.1H16202l-.1.1-.1.2v4.1l.2.1H16202.5v1.4l.2.3a23 23 0 0 0 .3 0l-.4.2v-.2l-.1-.2-.3-.1-.3.1c-.2.1-.1.2-.2.3v.5l-.3.2.1-.3V-2971.7l-.1-.1a35.7 35.7 0 0 0-.4-.2v-2h.5v-.1l.1-.1v-3.9l-.2-.2h-.2v-.6c.2 0 .4 0 .6-.2l.3-.1zm4 .1v.2H16206.4v.2l-.1-.2h-.3zm8.6.2zm2 0-.2.3.2-.3zm48.5 0 .1.1h-.1zm-57.3 0v2l-.2 2.8v-3.5l.1-.2v-1zm50.9.2h.1v.2l-.1-.1v-.1zm.4 0-.1.3h-.1l.2-.2zm-56.8 0-.2.2v.2l-.1.4v.5l.1.2.2.1h.3a5.4 5.4 0 0 0 0 1v.1l.1.1h.1l.3.1h.2l.1-.3v-2h-.2l-.2-.1h-.1v-.2l-.2-.2c-.1 0-.3-.1-.4 0zm9.2 0h.2V-2976.3h-.2v-2.3zm54.2.1v.1zm-52.3.2h.5c0 .1.1.1 0 .1l.1 1.3v1.2h-.7v-2.3l.1-.3zm-7.5 0 .4.1c0 .1-.3.2-.4.1v-.1zm37 .1-.4.1-.2.1-.5.4-.4.5v.5l.4.1v.5s0 .2.2.2l.3.1c.2 0 .3-.2.3-.2l.2-.4v-.8l.1-.1.3-.3v-.5l-.4-.2zm16.3 0V-2978h-.1l-.1-.1.2-.1zm-44 0h.1l.5.1v2.5h-.5v-1.4zm51.3.1.2.1-.1.1-.1-.2zm-7.8 0v.1zm7.2.1.2.1v.1h-.4l.2-.2zm-48.8 0h.7v1.3l-.1 1.3h-.4c-.1 0 0 0 0 0-.1 0-.2-.5-.2-1.3zm19.5.2c-.2 0-.4.2-.4.3l-.1.3v1.6l.1.2v.2l.3.1h.3l.2-.2v-.4l.2-.8v-.7l-.1-.3c-.1-.2-.3-.3-.5-.3zm2 0-.4.1-.1.2-.1.3v.8a8 8 0 0 0 .1 1l.2.2h.4l.2-.3v-.3l.1-.7v-.8l-.1-.2-.3-.2zm28.7.2zm-23.5 0h-.1s-.2 0-.3.2v.5l.1.1.2.2h.1v.6l.1.8c0 .2.2.3.4.4h-.2v.1l-.1.2v.1a12.5 12.5 0 0 0 0 2.2V-2972.1l.1.1a59.7 59.7 0 0 0 .3 0h.2a47.6 47.6 0 0 1 .1 0v-.3h.1V-2974.8l-.1-.1-.2-.1h-.1l.3-.3.2-.9v-1c0-.2-.3-.4-.4-.4l-.4-.1h-.3zm22.9 0-.2.2.2.2.2-.2-.2.2c-.1 0-.2 0-.2-.2l.2-.1zm-26.2.2h-.3c-.2 0-.2.2-.3.2v4.1c.1.5.9.5.9 0v-4l-.2-.2-.1-.1zm14.9 0h.7v2.4h-.7v-1.2zm10.7.1.1.1v.2h-.2l.1-.2zm-.3 0v.1l.1.2-.2-.2h.1zm1.4 0 .2.1v.2h-.2l-.2.1.2-.3zm-15.6.1h.7v2.4h-.7v-1.2zm2 0h.6v2.4h-.7v-1.2zm11.5.1.2.1h.2c0 .3.3.4.4.4.2 0 .2-.1.3-.2v1l.1.2s.2.2.4.1h.1v7.9l.1.1.3.1h.1v.6h-.6l-.6.2c0-.3 0-.5-.3-.7H16265.2v-.2l-.5-.2c-.2 0-.3.2-.3.2l-.1-.3-.4-.2c-.2 0-.2.1-.3.2v-.3l-.3-.1H16263.6c.1.1.3.1.4 0l.2-.2v-1s0-.2-.2-.3h-.4v-2.3a43 43 0 0 0 .4.2h.2v-.2h.1v-.1c.1-.1 0-.1 0-.2l.1-.2V-2975.7l-.1-.1a24.7 24.7 0 0 0-.3-.2h-.2l-.1.2-.1.2h-.2l-.1-.1H16263l-.1.1v-.4l.2.1c.3 0 .6-.2.6-.6v-.3h-.1s.1.2.3.2c.2 0 .3-.1.3-.2l.1-.2h.5c.2 0 .2-.2.3-.3zm-52.6.2v1.6l.3.3s-.2 0-.2.2v.9-.6l-.1-.4v-.2l-.2-.1.2-.3zm50.4 0 .1.1zm-54 .2c0 .1 0 .3.2.4l-.1.1h-.1v-.3zm54.2.2v.2c-.1.1 0 .2 0 .2h-.1v-.1c-.1 0 0 0 0 0l.1-.3zm.2.1v.1c.1.1 0 .2 0 .2s.1 0 0 0h-.2c.1 0 .2 0 .2-.2zm-.6.2v.2l-.1-.1zm-.4 0h.1l-.2.3v-.2zm-52.5.3h.1v.2l-.1-.1v-.1zm51.7 0 .4.2.2-.1v1.2h-.1l-.2-.1H16261.5l-.1.2v.2h-.1v-.1h-.2v-.1H16260.7l-.1.2c-.1.1 0 .1 0 .1h-.1l-.1-.1H16259.9v1.2h-.1l-.1-.1h-.4v.1l-.2.2v1.5l-.3-.2h-.3v.1-2.2l-.1-.4.2-.2.3.1.4-.1.2-.2v-.5c0-.2-.2-.3-.4-.3h.1v-.1l.2-.2h.2l.1.1h.2v.5c0 .2.3.3.4.3.2 0 .4-.2.5-.3h.3c.3 0 .6-.2.6-.5 0-.1 0-.2-.2-.3zm-50.7 0 .2.4.4.1.2.1-.1.4h-.1a36.8 36.8 0 0 0-.3 0H16210.8v-.6l-.1-.2v-.1zm50.4.3v.1c0 .1 0 .2-.2.2l-.2-.2h.1l.1.2.2-.2zm-18.9 0h-.2v.2h-.1l-.1.2v.2a16.7 16.7 0 0 0 0 2.6v.2h.1l.1.1h.4a62.4 62.4 0 0 1 .1-.1v-.1l.1-.2V-2975.5l-.1-.1-.1-.1h-.2zm17.9.2v.2h-.1v-.1zm.3 0v.2h-.2l.2-.1zm-1.9 0v.1a22.7 22.7 0 0 0 .2 0l-.2.2v-.2zm-44 .3v.1h.1l-.2.3-.1 1.1v1l-.1.5v.2-1.3l-.1-1.6v-.1h.2l.2-.2zm1.9 0v.1l.2.1-.2.3v-.4zm20.1 0v.1h-.2v.1l-.2.2v2.1l.1.3h.6v-.1l.2-.2v-2l-.1-.2-.1-.1h-.1l-.1-.1zm22.2.1h.1l-.1.3h-.1v-.2h.1zm-40.5 0v.2h.2v.3l-.2.3v1l-.1-.1h-.4v-1.1l-.1-.2c.2 0 .3 0 .5-.2v-.1zm40.7 0 .1.1v.1l-.1.3h-.1l.2-.2-.1-.2zm-42.8.2-.1.2v-.2zm-2.8.3v2.6h-.2v-1.3l.2-1.3zm1.9.2v2.3h-.2v-.6l.1-1v-.7zm1 0V-2972.2h-.2v-2.2l.2-.1zm40.3.3v.2-.1zm-18.3 0-.3.2-.1.2v.2l.2-.2-.3.2v.4l.2.1c-.2.3-.1.3-.1.5v.5c0 .2.2.3.4.3s.3-.1.3-.2h.1v-.1c.1-.3.1-.5 0-.8v-.9l-.1-.2-.2-.1zm16.4 0v.3h-.2l.2-.1v-.1zm-2 .4v2.5l.2.4v.1h-.3l-.2.3v-.1c0-.2 0-.3-.2-.3l.3-.5a9.8 9.8 0 0 0 0-2.4H16252.8zm-1.8 0v1.2h-.2v-1.1h.2zm-12.5.1c.2 0 .2.1.2.2l-.3.1v-.2h.1zm-.2 0V-2973.3h-.2c0-.1 0 0 0 0v-.2h.2zm13.5.1v2-2zm-17.1.6v.1c0 .1 0 0 0 0v.1h-.1v-.2zm.2 0 .2.1h-.2zm3.5.4h.1zm0 0h-.1zm-34.3.1H16204.4v1.2l-.2-.1h-.1v-1zm14.3.1v.2zm-7.6.2v.1l.1.1h.1v.1h-.3l.1-.3zm25.8.4-.1.1-.2.2v.2a6.3 6.3 0 0 0 0 1.6l.2.2h.4l.1-.1.1-.2v-1.8h-.1v-.1h-.4zm1.7 0-.1.1-.2.2V-2970.6a4.7 4.7 0 0 0 0 .9l.2.2h.4l.2-.1V-2971.6h-.1v-.1h-.4zm4 .2c-.2 0-.2.1-.3.2V-2970.2l.2.2h.4l.2-.2v-1.1s0-.2-.2-.2c-.1 0-.3-.1-.4 0zm2.2.1-.4.1-.1.3v.2l.2-.3s-.2.1-.2.3v.4l-.1.2-.1.5v.4c.1.1.3.3.6.3l.3-.1.2-.3v-1h-.1l.1-.3v-.4l-.2-.2-.2-.1zm10.3.4.1.4h-.1c-.1 0-.3-.1-.4 0-.2 0-.3.2-.3.3l-.2-.2c.2 0 .3-.3.4-.4h.4v-.1zm-3.8 0 .1.2c-.2 0-.4.1-.5.3v-.1l-.2-.2H16250.6c.2 0 .2-.1.3-.2zm7.8 0h.1s-.2.1-.2 0h.1zm-14.2 0 .1.2-.2.1v-.2zm-.2.1v.2h-.3v-.2h.2zm-27.3 0v1.3h-.5v-.5l.1-.7h.4zm-12.6.2a42.8 42.8 0 0 0 .3.1v.5l-.3.1v-.7zm8.6 0h.5v1.4c-.1 0 0 0 0 0a2 2 0 0 1-.5.1v-.7zm1.7 0h.5V-2969.5h-.5v-.6zm45 0h.1v.2h.1a30.4 30.4 0 0 0 .3.2h.2l.1-.2.1.1a8.6 8.6 0 0 0 .2.2h.4v-.2l.1.2.1.2h.5v1h-.6l-.3-.3h-.3l-.2.1v-.2l-.4-.2-.3.1s0-.2-.3-.3c0 0-.2-.1-.4 0l-.2.1h-.4l-.2.1v-.4l-.2-.2v-.2l.1-.1c0 .1.2.3.4.3l.4-.2v-.2.1h.1l.1.1h.5v-.2zm-4 .2v.1-.1zm1.8.2v.2l-.2-.1.2-.1zm-17.2 0-.4.1-.1.2v.8l.1.2c.1 0 .3.1.4 0 .3 0 .3-.1.3-.2a1 1 0 0 0 0-.8c0-.1-.1-.2-.3-.2zm11.3.2v1.4h-.4l-.1-.1v-1.2h.3zm1.5.2h.2v1.4h-.3l-.2-.1v-1.3h.4zm1.6 0 .4.2V-2968.5h-.4v-1.4zm1.7.2h.4v1.6h-.3l-.1-1zm-16.4 0h.2v.1c0 .1 0 0 0 0l-.2.1v-.2zm.2 0 .2.1h-.2zm-38 .5.1.1-.4.2-.1-.2s.2-.2.4-.1zm-.4.1.1.1h-.1zm60.9.5zm-61.9 0h.2l-.2.2zm62 .2h.1v.1zm-60.6.6-.2.1.2-.1zm63.4 1v.2h-.2c0-.1 0-.2.2-.2zm-30 0c4.2 0 10 .5 16.5 1.1 7.2.8 10.2 1.3 13 2.5l1.9.8h.3l.2.1.3.2.6.5.6.4v6.2a5 5 0 0 0-1.5-.8l-3-.8a234.5 234.5 0 0 0-33.5-2.6h-4.5v-3.2l.2-2.5v-.8l1-.1h2.6l3.3-.1.6-.3c.2-.1.2-.3.2-.5h1.2zm31.3 1.1v.2h-.1l-.1-.1h.1zm-35.8 8.7 5.4.2a483.6 483.6 0 0 1 5.7.1h.5l1.1.1 2 .1c5.2.3 12.7 1.1 16 1.8 1.8.4 4 1 4.9 1.6.4.2.6.4 1 .4l.6.6.5.4 1 5.1.6 3.8.2 1.2v.3l.2.4h.1l.2.1h.4l1.1.1h1.4c.3 0 .5.1.6.3.3.4.6 1.5 1.2 3.9l1 4c0 .3.2.4.4.4l4.3.1a182.7 182.7 0 0 1 4 .2h.1v.2a9.7 9.7 0 0 1 .1 2c0 .3-.4.8-.8 1.3a5 5 0 0 1-1 .8h-2.7a82.5 82.5 0 0 0-2.6 0l-.3.1h-.2c-.2.1-.2.2-.2.3v.5a21.4 21.4 0 0 0-2 1.7l-2 1.7c0 .1-.1.2 0 .4l.6 4 .5 3 .2.9.1.2v.1l.1.2h.1v.1h.5a25.5 25.5 0 0 0 3.1.3 735.5 735.5 0 0 0 21.6 1.2c2.1.2 3 .2 5-.1l2.3-.3 12.3.8 10.3.8-4 3.4-.2.2-4.5 3.7-1.5-.1a51.6 51.6 0 0 0-3.2-.2h-.4l-.2.2-.1.1-.5.3-1.4 1-1.9 1.2-3 .5-1.6.3a15.2 15.2 0 0 0-9.2-3.4h-7.4c-3.9 0-7.5 1.7-10.3 4.4a15.2 15.2 0 0 0-10-4.5h-8c-2 .1-4 .7-5.9 1.6l-5.6-1.4c-1.6-.3-3.3-.6-4.9-.7h-.2l-4.2-.2h-.9c-6.8 0-13.5 1.2-19.5 4.4l.2-2.4 1-8.9.4-4.8 1.4-4c1-2.9 1.6-4.3 1.7-5.7 0-1.4-.3-2.7-1-5.2l-1-3.8.2-2.3v-4.6a23 23 0 0 1 0-5.2l.5-5.8v-2.3h1.5l2.7-.2h1c0-.2.2-.3.3-.4l.1-.4zm-59.7 2.4.4.9 2.7.1 10.5.6 5.7 3.3a457 457 0 0 0 5.7 3.2l-4.8 22.3-2.8 12.8a94 94 0 0 1-14.3-42.1l-2.7-.2zm65.5 18.8h-8.2l-.2.1v.2l-.1.1v.2l.1.3.2.6c.2.6.3 1.2.2 3.4l-.4 9.4-.3 6.7.1.3 1.6 1.5a178 178 0 0 0 6.7 6.2H16237.3v-28.6c0-.2-.1-.4-.3-.4zm119.2 23 11.7 2.5-11 51.3 8 1.8-2.3 10.9-8.1-1.8-3.8 17.5-13.4-3 3.8-17.4-33.7-7.3-4-10.8 9.7-8 23.3-19.3zm-2.8 15.4-36.8 30.1 28.9 6.3zm-111.8 7.4a50.4 50.4 0 0 1 7.5.6c2.3.4 4.4 1 6.4 1.7v7a29.2 29.2 0 0 0-6.3-1.8c-2.2-.5-4.5-.7-7-.7-5.8 0-10 1.6-12.4 4.7a22 22 0 0 0-3.6 13.5c0 5.6 1.3 9.8 4 12.6 2.6 2.9 6.6 4.3 12.2 4.3a33 33 0 0 0 13.2-2.3v7a39 39 0 0 1-14 2c-7.7 0-13.6-2.1-17.6-6.3-4-4.3-5.9-10-5.9-17.3 0-5.1.9-9.6 2.5-13.3 1.7-3.8 4.3-6.6 7.8-8.6s7.9-3.1 13.2-3.1zm-61.4.7 2.6.1c2.4.3 4.5.9 6.3 2 2.4 1.3 4 3.2 5.2 5.6 1.1 2.3 1.7 5 1.7 8a15 15 0 0 1-4.4 11.3 16 16 0 0 1-11.7 4.3h-12.8v15.8h-8v-47.1zm22.2 0h8v47.1h-8zm61 0h7.9v25.7l16.8-21.3 3.5-4.3h7.4l-11 13.7-4.5 5.8 17.8 27.7h-8.5l-13.8-22-7.7 9.8v12.2h-8zm-96.3 6.2v18.8h11.3c3.2 0 5.6-.9 7.2-2.5a9.3 9.3 0 0 0 2.4-6.8c0-3-.8-5.3-2.3-7-1.5-1.7-3.8-2.5-7-2.5zm39.3 58.6c3.4 0 6 .9 7.6 2.6 1.7 1.8 2.5 4.6 2.5 8.5 0 3.7-.8 6.5-2.5 8.3-1.7 1.7-4.2 2.6-7.6 2.6-3.4 0-5.9-.9-7.6-2.6-1.7-1.8-2.5-4.6-2.5-8.3 0-4 .8-6.7 2.5-8.5 1.7-1.7 4.2-2.6 7.6-2.6zm76.3 0a21.6 21.6 0 0 1 6.1.9v3.2c-1.7-.7-3.5-1-5.6-1-1.6 0-2.8.2-3.7.6-.9.4-1.3 1.2-1.3 2.3 0 .6.2 1.2.5 1.6.3.4.8.7 1.6 1l3.1 1c1.8.4 3.1 1 4 1.5a5 5 0 0 1 2.1 2.2c.4.8.6 1.7.6 2.7 0 1.9-.7 3.3-2 4.4-1.5 1-3.6 1.6-6.4 1.6-2.8 0-5-.3-6.7-1v-3.2a20.5 20.5 0 0 0 6.3 1.2c1.7 0 3-.2 3.9-.6.8-.4 1.3-1.2 1.3-2.4 0-.7-.2-1.3-.6-1.8a4 4 0 0 0-1.7-1.1c-.9-.3-2-.7-3.4-1a11 11 0 0 1-4.9-2.3c-.9-1-1.4-2.2-1.4-3.8 0-1.9.7-3.3 2.1-4.4 1.4-1 3.4-1.6 6.1-1.6zm-127.6.3h9.8c2.4 0 4 .7 5.2 1.9a7.1 7.1 0 0 1 1.6 5c0 1.5-.3 2.8-1.1 3.8-.7 1-1.8 1.8-3.2 2.2.4.3.7.6.9 1l.6 1.3 2.7 6.2h-3.7l-2.6-6c-.2-.6-.5-1-.9-1.2-.3-.2-.9-.4-1.7-.4h-4v7.6h-3.6zm20.2 0h3.6v9.3h10.3v-9.3h3.6v21.4h-3.6v-9.3h-10.3v9.3h-3.6zm44.7 0h8.7c3.2 0 5.5.9 7 2.6 1.5 1.6 2.3 4.4 2.3 8.2 0 3.7-.7 6.4-2.2 8-1.5 1.7-3.9 2.6-7.1 2.6h-8.7zm21.6 0h14.8v2.9h-11.2v6.4h10v2.8h-10v6.5h11.2v2.8h-14.8zm25.8 0h3.6v21.4h-3.6zm26.2 0h3.6v18.6h11v2.8h-14.6zm25 0h4l8 21.4h-3.6l-2.2-5.5h-8.5l-2.2 5.5h-3.7zm15.6 0h3.2l11.2 15.8v-15.8h3.5v21.4h-3.1l-11.2-15.7v15.7h-3.6zm22.1 0h8.7c3.2 0 5.5.9 7 2.6 1.6 1.6 2.3 4.4 2.3 8.2 0 3.7-.7 6.4-2.2 8-1.5 1.7-3.9 2.6-7.1 2.6h-8.7zm-149.9 2.8c-2.2 0-3.8.6-4.9 1.8-1 1.2-1.6 3.2-1.6 6.2 0 2.8.6 4.8 1.6 6 1 1.3 2.7 1.9 5 1.9 2.1 0 3.8-.6 4.8-1.9 1-1.2 1.6-3.2 1.6-6 0-3-.5-5-1.6-6.2-1-1.2-2.7-1.8-4.9-1.8zm-47.7 0v8.1h5.2c1.3 0 2.3-.3 3-1 .8-.6 1.2-1.6 1.2-3 0-2.7-1.3-4-3.9-4zm65 0v15.8h4.4c1.4 0 2.6-.2 3.5-.6 1-.4 1.6-1.2 2.1-2.3.5-1.1.7-2.8.7-4.9 0-2-.2-3.7-.6-4.8-.5-1.2-1.1-2-2-2.4a8 8 0 0 0-3.7-.7zm136.3 0v15.8h4.4c1.4 0 2.6-.2 3.5-.6 1-.4 1.6-1.2 2.1-2.3.5-1.1.7-2.8.7-4.9 0-2-.2-3.7-.6-4.8-.4-1.2-1.1-2-2-2.4a8 8 0 0 0-3.7-.7zm-39.5.5-3.7 9.8h7.4z" style="fill:url(#b);fill-opacity:1;stroke-width:.534881;stroke-linecap:round;stroke-linejoin:round" transform="translate(-16142 3087.2)"/></svg>