<svg xmlns="http://www.w3.org/2000/svg" xmlns:xlink="http://www.w3.org/1999/xlink" xml:space="preserve" width="1130.1" height="1159" viewBox="0 0 299 306.6"><defs><linearGradient id="a"><stop offset="0" style="stop-color:#45290a;stop-opacity:1"/><stop offset="1" style="stop-color:#9f6216;stop-opacity:1"/></linearGradient><linearGradient xlink:href="#a" id="b" x1="27678" x2="27977" y1="-1421.6" y2="-1421.6" gradientTransform="translate(-11539.7 -2304.6)" gradientUnits="userSpaceOnUse"/></defs><path d="M16287.8-3879.5c-69.2 0-125 55.8-125 125v14.9l8-1.2a117.8 117.8 0 1 1 227.2 28c-2-2.3-4.8-4-8-4.8l-10-2.2a98 98 0 0 0 6.2-32l.1-2.7-.1-4.5v-1.4l-.3-3-.2-1.7-.4-3.7a98.5 98.5 0 0 0-195.3 25l3.8-.5-.3-2.5-2-.5a1 1 0 0 1-.2-2l2-.7-.1-4.5a94.6 94.6 0 0 1 188.5-12.2c-6.2 3.6-17.8 10.2-29.4 17.3 0-1.5.1-3.1.3-4.2.8-5.5 4-16.2 4-16.2l7.4-5-2.5-3.5c-2 3.7-5.6 6.1-5.6 6.1s-4-6.3-5.5-13.6l-4 1.8c.8 3.6 7.7 13.6 7.7 13.6a73 73 0 0 0-6.2 23.6c-6.3 4-12.5 7.8-17.6 11.2-12.4 8.3-27.4 19-42.8 30.2 2 3.5 4 6.8 5.7 9.3l-1.5-.4c-3.2-4.6-7-11.5-9.6-16.7 10.7-2 32-18.1 37.9-28.3 13.4-23.2 4-32.7 12-50.3 2.1-4.9 11.3-5.3 12.9-10.2a34 34 0 0 1 19-2.3 68 68 0 0 0-22.6-5.8 29.2 29.2 0 0 0-24.2-11.8c-14 0-21.7 13.5-27.3 20.1-49.9 4.1-65.5 41.4-98.1 53.5l13.2 3.4c11.4 2.7 26.9 6.2 32.2 6 23.6-.8 60.5-34.7 60.5-34.7s-36.9 36.4-60.5 37.3a176 176 0 0 1-34.1-8.3l-40.2 6v3.4l.2 6 1.7.2 9.6-2.7-7 2.8 17.6 1.1 37.8-7.8c4 4.2 5.7 8.2 5.7 8.2h13.3l-7.6 2c5.3 2.9 8 8 8 8 11-2.9 17.1-.2 24.3 2.1 2 4.9 5.8 13.7 10 20-.5 0-1-.2-1.4-.3 0-.2-.2-.3-.3-.5l-.3.3a36 36 0 0 0-8.6-1.6h-.1l-4-.2h-1.1c-7.3 0-14.5 1.4-21 5.2h-.1a15.2 15.2 0 0 0-10.2-4.5h-8c-2.4.1-4.8.8-7 2a94.4 94.4 0 0 1-17.7-34.3l-3.7.8a98 98 0 0 0 16.2 33 29 29 0 0 0-6.3-1.3l-3.7-.2h-14c-5.4-9.5-9.4-19.8-12-30.6l-5.9-.4a1 1 0 0 1-.6-.6l-1.6.5a1 1 0 0 1-.4 0l-1.5-.1a125 125 0 0 0 6.7 34 15.2 15.2 0 0 0-7 12.4v47.2c0 1.7.4 3.4 1 5l-4.4-.3c-4.4 0-9.4.7-14 4.3a20 20 0 0 0-7 14.6c0 2.4.6 5.2 1.7 7.8a13 13 0 0 0-1.3 4v3.2c0 3 1 6 3 8.2 1.2 1.6 9 9.4 11.2 11 .8.8 1.8 1.3 2.8 1.8 4 1.7 7.8 2 11.7 2l257-.3c9 0 15.2-9 12-17.4l-8-21.4c-.9-2-2-3.6-3.6-5-1.5-1.2-7.3-7.4-8.7-8.7-2.1-2-5-3.3-8-3.5l1.4-6.4a15.2 15.2 0 0 0-5.3-15l8.2-38.1c1-5-.4-10.2-4-13.8 2.8-10.4 4.3-21.4 4.3-32.7v-19.3c0-69.2-55.7-125-125-125zm34.6 63.7c1.4 0 2.9.5 3.9 1.4 1 .9 1.9 2.2 1.6 3.4-.3 1.5-2 2.5-3.4 3a6 6 0 0 1-5-.6c-1.4-1-3-3-2.4-4.7.5-1.7 3-2.3 4.8-2.5h.5zm0 1h-.4c-1.4 0-3.3.5-3.7 1.8-.4 1.4.8 3 2 3.7 1 .7 2.5.8 3.8.4 1-.3 2.3-1.1 2.5-2.2.2-1-.5-2-1.2-2.7-.8-.7-1.9-1-3-1zm60 66.3a94 94 0 0 1-6.4 28.2l-2.2-.1c-3.1.3-6 1.5-8.4 3.4l-19.8 16.5-.2.2-14.1 11.6c-2.5-4.4-7-7.4-12-7.8 5.8-6.4 12.8-12 20-17.4 2.6.3 5.9.8 8 1.6 2.4 1 6.7 4.5 6.7 4.5l.8-2.1-6.1-3.7 3.1-2.5-2-1.1-2.8 2.2c-.9-.9-2.1-1.6-3.4-2.3 5-3.8 10-7.7 14.7-11.8 6.8-6 16.3-13.5 24-19.4zm-110.5 34.8c1.7.3 3.4.6 5.3.7 2.2 4.7 5.6 11.1 9.1 16.2h-1.2l-3-4.7-2.1 1.6 1.8 3.2-1 .2c-3.2-5.2-6.6-12.2-8.9-17.2zm103.2 8.5 11.8 2.5-11.1 51.4 8.1 1.7-2.3 11-8.2-1.9-3.8 17.5-13.3-2.9 3.7-17.4-33.7-7.3-4-10.9 9.7-8 23.4-19.3h-.1zm-78.4 10.4 2.4.5 2.7.9-1 .7-1.7-.5 1.2.8c-1.1-1-2.3-1.8-3.6-2.4zm75.6 5-36.7 30.2 28.8 6.2zm-111.7 7.4a50.9 50.9 0 0 1 7.4.7c2.3.4 4.5 1 6.4 1.6v7a29.2 29.2 0 0 0-6.3-1.8c-2.2-.4-4.5-.7-7-.7-5.8 0-10 1.6-12.4 4.7a22 22 0 0 0-3.6 13.6c0 5.5 1.3 9.7 4 12.6 2.6 2.8 6.7 4.2 12.2 4.2a33 33 0 0 0 13.2-2.3v7.1a39 39 0 0 1-13.9 2c-7.7 0-13.6-2.2-17.6-6.4-4-4.3-6-10-6-17.2 0-5.2.9-9.6 2.6-13.4 1.7-3.7 4.3-6.6 7.7-8.6 3.5-2 8-3 13.3-3zm-61.5.7 2.6.1c2.5.3 4.6 1 6.3 2 2.4 1.3 4.1 3.2 5.2 5.6 1.2 2.4 1.7 5 1.7 8a15 15 0 0 1-4.4 11.3 16 16 0 0 1-11.7 4.3h-12.7v15.9h-8v-47.2zm22.2 0h8v47.2h-8zm61 0h8v25.7l16.7-21.2 3.5-4.4h7.4l-10.9 13.8-4.5 5.7 17.8 27.7h-8.5l-13.9-22-7.7 9.8v12.2h-8zm-96.2 6.2v18.8h11.3c3.1 0 5.5-.8 7.1-2.5a9.3 9.3 0 0 0 2.5-6.7c0-3-.8-5.4-2.4-7-1.5-1.7-3.8-2.6-6.9-2.6zm-26.7 58.6a21.6 21.6 0 0 1 6.1.9v3.2c-1.7-.7-3.5-1-5.6-1-1.6 0-2.8.2-3.7.7-.9.4-1.3 1.1-1.3 2.2 0 .7.1 1.2.5 1.6.3.4.8.7 1.5 1l3.2 1c1.8.4 3.1 1 4 1.6a5 5 0 0 1 2.1 2.1c.4.8.6 1.7.6 2.7 0 1.9-.7 3.4-2 4.5-1.5 1-3.6 1.6-6.4 1.6-2.8 0-5-.4-6.7-1.1v-3.2a20.5 20.5 0 0 0 6.3 1.2c1.7 0 3-.2 3.9-.6.8-.4 1.2-1.2 1.2-2.4 0-.7-.1-1.3-.5-1.7a4 4 0 0 0-1.7-1.2l-3.4-1a11 11 0 0 1-4.9-2.2c-.9-1-1.4-2.2-1.4-3.9 0-1.8.7-3.3 2.1-4.4 1.4-1 3.4-1.6 6.1-1.6zm20.4 0c3.4 0 5.9 1 7.6 2.7 1.6 1.7 2.5 4.5 2.5 8.4 0 3.8-.9 6.5-2.5 8.3-1.7 1.8-4.2 2.7-7.6 2.7-3.4 0-6-1-7.6-2.7-1.7-1.8-2.6-4.5-2.6-8.3 0-3.9.9-6.7 2.6-8.4 1.6-1.8 4.2-2.7 7.6-2.7zm94 0a17.6 17.6 0 0 1 6.3 1v3.2l-2.8-.8c-1-.2-2-.3-3.2-.3-2.6 0-4.5.7-5.6 2.1a10 10 0 0 0-1.6 6.2c0 2.5.6 4.4 1.8 5.7 1.1 1.3 3 2 5.5 2l3-.3 3-.8v3.2a17.8 17.8 0 0 1-6.3.9c-3.5 0-6.2-1-8-3a11 11 0 0 1-2.7-7.7c0-2.4.4-4.4 1.1-6 .8-1.8 2-3 3.6-4 1.5-.9 3.5-1.4 6-1.4zm61 0c3.3 0 5.9 1 7.5 2.7 1.7 1.7 2.5 4.5 2.5 8.4 0 3.8-.8 6.5-2.5 8.3-1.6 1.8-4.2 2.7-7.6 2.7-3.4 0-5.9-1-7.6-2.7-1.6-1.8-2.5-4.5-2.5-8.3 0-3.9.9-6.7 2.5-8.4 1.7-1.8 4.2-2.7 7.6-2.7zm-141.6.4h3.6v13.3c0 1.8.5 3.1 1.5 4 1 .9 2.4 1.3 4.2 1.3a6 6 0 0 0 4.1-1.3c1-.9 1.5-2.2 1.5-4v-13.3h3.6v13.4c0 2.7-.8 4.7-2.4 6.1a10 10 0 0 1-6.8 2.2c-3 0-5.2-.7-6.9-2.2-1.6-1.4-2.4-3.4-2.4-6.1zm21.2 0h17.3v2.8h-6.8v18.5h-3.6v-18.5h-6.9zm20.2 0h3.6v9.3h10.3v-9.3h3.6v21.3h-3.6v-9.3h-10.3v9.3h-3.6zm55.3 0h4l8.1 21.3h-3.7l-2.1-5.5h-8.6l-2.1 5.5h-3.8zm15.7 0h9.8c2.4 0 4 .6 5.2 1.8a7.1 7.1 0 0 1 1.6 5c0 1.5-.3 2.8-1.1 3.9-.7 1-1.8 1.8-3.2 2.2l.9.9.6 1.3 2.7 6.2h-3.7l-2.6-6c-.2-.5-.5-1-.9-1.2-.3-.2-.9-.3-1.7-.3h-4v7.5h-3.6zm42.8 0h3.6v18.5h11v2.8h-14.6zm17.4 0h3.6v21.3h-3.6zm7.8 0h3.1l11.2 15.7v-15.7h3.6v21.3h-3.2l-11.1-15.7v15.7h-3.6zm29.6 0h4l8.1 21.3h-3.7l-2.1-5.5h-8.6l-2.1 5.5h-3.8zm-223.4 2.7c-2.2 0-3.9.6-5 1.8-1 1.2-1.5 3.3-1.5 6.2 0 2.8.5 4.8 1.6 6 1 1.3 2.7 2 4.9 2s3.8-.7 4.9-2c1-1.2 1.6-3.2 1.6-6 0-3-.6-5-1.6-6.2-1-1.2-2.7-1.8-5-1.8zm155 0c-2.3 0-4 .6-5 1.8-1 1.2-1.5 3.3-1.5 6.2 0 2.8.5 4.8 1.5 6 1 1.3 2.7 2 5 2 2.2 0 3.8-.7 4.8-2 1.1-1.2 1.6-3.2 1.6-6 0-3-.5-5-1.6-6.2-1-1.2-2.6-1.8-4.9-1.8zm-25.6 0v8.1h5.2c1.3 0 2.3-.3 3-1 .8-.6 1.2-1.6 1.2-3 0-2.7-1.3-4-3.9-4zm-17.3.6-3.8 9.7h7.5zm113.3 0-3.7 9.7h7.4z" style="fill:url(#b);fill-opacity:1;stroke:none;stroke-width:12.0062;stroke-linecap:round;stroke-linejoin:round;stroke-dasharray:none;stroke-opacity:1" transform="translate(-16138.3 3879.5)"/></svg>