<svg xmlns="http://www.w3.org/2000/svg" xmlns:xlink="http://www.w3.org/1999/xlink" xml:space="preserve" width="1162.7" height="1159" viewBox="0 0 307.6 306.6"><defs><linearGradient id="a"><stop offset="0" style="stop-color:#c88018;stop-opacity:1"/><stop offset="1" style="stop-color:#ffd12a;stop-opacity:1"/></linearGradient><linearGradient xlink:href="#a" id="b" x1="21505.7" x2="21662.2" y1="-629.2" y2="-813.6" gradientTransform="matrix(1.258 0 0 1.258 -4751 171)" gradientUnits="userSpaceOnUse"/></defs><path d="M22389.7-852.5c-30.8 0-59 11-80.7 29.5-5-2.2-10.3-3.7-15.8-3.7-22 0-57.3 33.1-57.3 33.1s35.6-17 54.1-14.5l3.6.6a124.6 124.6 0 0 0-28.9 80v19.3c0 14.3 2.5 28 6.9 40.8-4.1 2.7-6.8 7.4-6.8 12.7v47.2c0 3.7 1.3 7.1 3.6 9.8 2 2.3 10.8 11.3 13.6 13.3 2.5 1.8 5.5 2.8 8.7 2.8h32.2V-568.2c0 3.2 1.2 6.3 3.2 8.6 4.4 3.6 7.7 8.5 12.5 11.8 1.9 1 4 1.6 6.3 1.6h3.6a13 13 0 0 0 7-2.8 13 13 0 0 0 6.9 2.8h14.8l3-1.2c.9.6 2 1 3 1.2h4.3c1.9 0 3.8-.5 5.5-1.3a13 13 0 0 0 5.6 1.3h4.2c1.3 0 2.6-.3 4-.7l2 .7h3.8a13 13 0 0 0 6.4-2 13 13 0 0 0 6.4 2h3.8a13 13 0 0 0 4.2-.7c2.7.7 5.4 1 8 1a22 22 0 0 0 14.2-4.2h.2a20 20 0 0 0 7-14.7c0-2.6-.6-5.5-1.9-8.2 0-.3-.3-.4-.4-.7l.5-1.5c1.5.9 3 1.5 4.7 2l13.4 2.8a15.2 15.2 0 0 0 18-11.7l1-4.3c5.5-1.4 9.7-5.8 11-11.3l2.4-11c1.2-5.5-.9-11.3-5.3-15l8.2-38a15.2 15.2 0 0 0-4-13.9c2.8-10.4 4.3-21.3 4.3-32.6v-19.3c0-30.5-10.8-58.3-28.8-80a42 42 0 0 1 3.6-.6c18.5-2.4 54 14.5 54 14.5s-35.2-33-57.2-33c-5.6 0-10.8 1.4-15.9 3.6a124.5 124.5 0 0 0-80.7-29.5zm0 7.2c28 0 53.5 9.7 73.7 25.8-6 3.4-11.7 7.4-17.6 11.1a98 98 0 0 0-112.2 0c-5.8-3.7-11.6-7.7-17.5-11a117.3 117.3 0 0 1 73.6-26zm0 23.1c19.5 0 37.6 6 52.7 16-5.2 3-10.6 5.8-16.2 7.3-5 1.3-11.5 2.4-17.7 3.2a67.6 67.6 0 0 0-18.8-2.5c-7 0-13.3 1-18.7 2.5a154 154 0 0 1-17.7-3.2c-5.7-1.5-11-4.2-16.2-7.3 15-10 33.2-16 52.6-16zm-88.6 17.1c6 2.4 11.6 6 17.1 10a98.1 98.1 0 0 0-7.3 126.6 29 29 0 0 0-6.2-1.3l-3.7-.1h-14a117.3 117.3 0 0 1 14-135.2zm177.3 0a117.3 117.3 0 0 1 21.6 119l-1.5-1.4c-1.9-1.5-4-2.6-6.5-3.1l-10.1-2.2a98.1 98.1 0 0 0-20.7-102.3c5.5-4 11.1-7.6 17.2-10zm-20.2 12.2a94.3 94.3 0 0 1 19.8 99.5 15.2 15.2 0 0 0-10.5 3.3 4 4 0 0 0-1.4-1.7c-3.6-2.2-10.8 6.5-10.8 6.5s1.8-3.6.7-4.5c-1.5-1.3-4.6-1.6-5.9 0-1.8 2.2-1.6 6.2 0 9.3-1.6.6-3.1 1.3-4.5 2.2a383 383 0 0 1 5.4-17.4c2.6-2.2 4.5-3.2 7.5-3.9.4.5.8 1 1.3 1.3 3 2.7 9.1 2 12.2-.6 3.2-3 5.7-10.3 2.2-13-3.3-2.5-11.4 5.5-11.4 5.5s2.2-3.4 1.1-4.5c-1.3-1.3-4.4-2-5.7-.6-1.9 2-2.2 5.3-1.4 8.3-1.3.3-2.5.8-3.7 1.4 2.2-6.2 4.7-12.3 7.3-18.4a9.7 9.7 0 0 0 2.5 4.8c2.9 2.8 9 2.7 12.2.3 3.5-2.7 6.5-9.8 3.3-12.7l-.7-.4.5-.8c1.4-2.8 1.9-7.3-.4-9.5-1.2-1-4.9.2-4.9.2s3.1-3.3 2.8-5.3c-.2-1.7-3.6-3.8-3.6-3.8s-1.7-.7-3.3-1h-1l-.9.2c-1.7 1-2.7 5.4-2.7 5.4s-1-3.7-2.6-4c-3.1-.8-6.6 2.2-8 5a2.4 2.4 0 0 0-.8-.2c-4.1-.8-8.3 5.3-8.7 9.5-.4 4 2.6 9.3 6.6 10.3 2 .5 4.5 0 6.7-1-3 6.7-5.7 13.5-8.1 20.4-.7-1.7-1.5-3.3-2.6-4.9 3-1.3 5.4-3.7 5.7-6.4.2-2-2.3-4-4.2-4-1.5-.1-2.7 3.7-2.7 3.7s.9-11.3-3.2-12.2c-4.3-1-8.3 5.7-8.4 10.1 0 4 3.4 9 7.4 9.7l1.2.1c2.5 3 3.5 6 4.6 10-2 6-3.9 12.1-5.6 18.2-.9-2.1-2-4.1-3.3-6 3.2-1.5 6-4.4 6-7.5 0-2-2.7-3.7-4.6-3.6-1.5 0-2.3 4-2.3 4s-.2-11.4-4.4-11.9c-4.3-.5-7.7 6.5-7.4 10.9.3 4 4.2 8.6 8.2 9 3.1 3.3 4.7 7.5 6 11.9l-1.6 6 5.2-4.3.6-2.3c2.2-1.9 4.6-3.3 7.3-4.4l-3.7 3.1-.2.2-4 3.4-9 7.4-.5-.8c2.4-1.8 4.2-4.6 4-7.2-.3-1.9-3.1-3.3-5-3-1.5.1-1.9 4.1-1.9 4.1s-1.4-11.2-5.6-11.3c-4.2 0-6.7 6.6-6.2 11h-6.7c-1.3 0-2.5.3-3.7.6l1-.7c4.7-4.7 7.7-9.1 8.5-14.7 1.3-9.8-8.3-18.4-6.5-25 1.9-7.1 11.6-7.1 16.3-24.7a117 117 0 0 0 2.7-19.4c3.4 2 7.5 4.1 10.5 4 7.4-.2 19-3.6 19-11 0-4-19.1-5-28.6-12.7v-.8c9.4-5 17.9-12.2 26.6-18.7zm-136.9 0c8.7 6.5 17.2 13.7 26.5 18.7v.8c-9.4 7.7-28.6 8.8-28.6 12.7 0 7.4 11.7 10.8 19 11 3.1.1 7.2-2 10.5-4 .6 7 1.4 14.2 2.8 19.4 4.7 17.6 14.4 17.6 16.3 24.7 1.8 6.6-7.8 15.2-6.5 25 .7 5.5 3.7 9.8 8.3 14.5l-1.9-.3h-.1a74 74 0 0 0-4.2-.2h-3c.2-4.3-2.2-10.3-6.2-10.2-4.2 0-5.6 11.3-5.6 11.3s-.4-4-1.9-4.2c-1.9-.2-4.7 1.2-4.9 3.1-.2 1.5.4 3 1.3 4.3l-1.5.8h-.1l-1.6-6.2c1.2-4.4 2.8-8.6 5.9-12 4-.3 7.9-4.9 8.2-9 .3-4.3-3-11.3-7.4-10.8-4.2.5-4.4 11.9-4.4 11.9s-.8-4-2.3-4c-2 0-4.5 1.7-4.6 3.6 0 3 2.8 6 6 7.5a28 28 0 0 0-3.3 6c-1.7-6.1-3.6-12.1-5.6-18.1 1.1-4 2.1-7.1 4.6-10l1.2-.2c4-.6 7.5-5.6 7.4-9.7 0-4.4-4-11-8.3-10.1-4.2.9-3.3 12.2-3.3 12.2s-1.2-3.8-2.7-3.7c-1.9 0-4.4 2-4.2 4 .3 2.7 2.8 5.1 5.7 6.4-1 1.6-1.9 3.2-2.5 4.9a294 294 0 0 0-8.2-20.4c2.2 1 4.7 1.5 6.7 1 4-1 7-6.2 6.7-10.3-.5-4.2-4.7-10.3-8.8-9.5a4.4 4.4 0 0 0-.7.2c-1.5-2.8-5-5.8-8-5-1.6.3-2.7 4-2.7 4s-1-4.5-2.7-5.4l-.9-.2h-1c-1.6.3-3.3 1-3.3 1s-3.4 2-3.6 3.8c-.3 2 2.8 5.3 2.8 5.3s-3.7-1.3-4.8-.2c-2.4 2.2-2 6.7-.5 9.5l.5.8c-.2 0-.5.2-.6.4-3.3 2.9-.2 10 3.2 12.7 3.3 2.4 9.3 2.5 12.2-.3 1.2-1.2 2-3 2.5-4.8 2.7 6 5 12.2 7.3 18.4-1.2-.6-2.4-1-3.7-1.4.8-3 .5-6.4-1.4-8.3-1.3-1.3-4.4-.7-5.7.6-1.1 1.1 1 4.5 1 4.5s-8-8-11.3-5.5c-3.5 2.7-1 10 2.3 13 3 2.7 9 3.2 12.2.6l1.2-1.3c3 .7 5 1.7 7.5 3.9 2 5.7 3.8 11.5 5.4 17.4-1.4-.9-2.9-1.6-4.5-2.2 1.6-3.1 1.8-7 0-9.4-1.3-1.5-4.4-1.2-5.8 0-1.2 1 .6 4.6.6 4.6s-7.2-8.7-10.8-6.5c-3.7 2.3-2 10 1 13.1 2.9 3 8.8 4.1 12.2 1.8l.3-.3c3.3 1 6.1 2.7 8.7 4.9l1 3.6-.9-.3v-.1c-.6-.8-1.6-1.2-2.8-1.3-.8 0-1.7.1-2.4.5h-4.5c-1.7-1.7-3.7-3.2-5.3-3l-.8.2c-1.4.7-2.2 2.3-2.5 4.1l-1.2.6a94.2 94.2 0 0 1 5.1-124.9zm97.4 43.9c2.7 0 6 5.4 6 5.4s-3.6 3.9-6 4.8c-2.4.8-7.6 0-7.6 0s3.2-9.7 7.4-10.2h.2zm-58 0h.3c4.2.5 7.4 10.3 7.4 10.3s-5.2.7-7.6-.1a23 23 0 0 1-6-4.8s3.3-5.4 6-5.4zm116.3 70.8 11.8 2.5-11.1 51.3 8.1 1.8-2.3 10.9-8.2-1.8-3.8 17.5-13.3-3 3.7-17.4-33.7-7.3-4-10.8 9.7-8 23.4-19.3h-.1zm-52 9.4a15.2 15.2 0 0 1 .3 0h-.3zm-20.1 1.3c-1 .6-1.9 1.3-2.7 2l-1.3-1a35 35 0 0 0 4-1zm24.8 1.5a15.2 15.2 0 0 1 .2.2l-.2-.2zm44.5 3.2-36.7 30.2 28.8 6.2zm-111.7 7.4a50.5 50.5 0 0 1 7.4.7c2.3.4 4.5.9 6.4 1.6v7a29.2 29.2 0 0 0-6.3-1.8c-2.2-.5-4.5-.7-7-.7-5.8 0-10 1.6-12.4 4.7a22 22 0 0 0-3.6 13.6c0 5.5 1.3 9.7 4 12.6 2.6 2.8 6.7 4.2 12.2 4.2a33 33 0 0 0 13.2-2.3v7a39 39 0 0 1-13.9 2c-7.7 0-13.6-2-17.6-6.3-4-4.3-6-10-6-17.2 0-5.2.9-9.7 2.6-13.4 1.7-3.7 4.3-6.6 7.7-8.6 3.5-2 8-3 13.3-3zm-61.5.7 2.6.1c2.5.3 4.6 1 6.3 2 2.4 1.3 4.1 3.2 5.2 5.6 1.2 2.3 1.7 5 1.7 8a15 15 0 0 1-4.4 11.3 16 16 0 0 1-11.7 4.3h-12.7v15.9h-8v-47.2zm22.2 0h8v47.2h-8zm69 0v25.7l16.7-21.3v.1l3.5-4.4h7.4l-10.9 13.8-4.5 5.7 17.8 27.7h-8.5l-13.9-22-7.7 9.8v12.2h-8v-47.2zm-104.2 6.2v18.8h11.3c3.1 0 5.5-.8 7.1-2.5a9.3 9.3 0 0 0 2.5-6.7c0-3-.8-5.4-2.4-7-1.5-1.7-3.8-2.6-6.9-2.6zm145.5 58.6a21.6 21.6 0 0 1 6 .9v3.2c-1.7-.7-3.5-1-5.6-1-1.5 0-2.8.2-3.7.6-.8.5-1.3 1.2-1.3 2.3 0 .7.2 1.2.5 1.6.3.4.8.7 1.6 1l3.1 1c1.8.4 3.1 1 4 1.6a5 5 0 0 1 2.1 2c.4.9.6 1.8.6 2.8 0 1.9-.7 3.4-2 4.5-1.5 1-3.6 1.5-6.4 1.5-2.8 0-5-.3-6.7-1v-3.2a20.5 20.5 0 0 0 6.4 1.2c1.7 0 3-.2 3.8-.6.8-.4 1.3-1.2 1.3-2.4 0-.7-.2-1.3-.6-1.7a4 4 0 0 0-1.7-1.2l-3.4-1a11 11 0 0 1-4.8-2.3c-1-.9-1.4-2.2-1.4-3.8 0-1.8.6-3.3 2-4.4 1.4-1 3.4-1.6 6.2-1.6zm-104.5.4h17.2v2.8h-6.8v18.5h-3.6v-18.5h-6.8zm24.2 0h15v2.8h-11.3v6.4h10v2.8h-10v6.5h11.2v2.8h-14.9zm21.1 0h4.2l5.4 7.9 5.5-8h4.2l-7.5 10.8 7.6 10.6h-4.2l-5.6-7.8-5.5 7.8h-4.3l7.7-10.6zm33.6 0h4l8.2 21.3h-3.8l-2-5.5h-8.7l-2 5.5h-3.8zm2 3.2-3.7 9.8h7.4z" style="color:#000;fill:url(#b);stroke-width:2.45101;stroke-linecap:round;stroke-linejoin:round;-inkscape-stroke:none;paint-order:fill markers stroke" transform="translate(-22236 852.5)"/></svg>