<svg xmlns="http://www.w3.org/2000/svg" xmlns:xlink="http://www.w3.org/1999/xlink" xml:space="preserve" width="1149.2" height="1157.7" viewBox="0 0 304.1 306.3"><defs><linearGradient id="a"><stop offset="0" style="stop-color:#161616;stop-opacity:1"/><stop offset="1" style="stop-color:#0d67a2;stop-opacity:1"/></linearGradient><linearGradient xlink:href="#a" id="b" x1="14772.1" x2="15076.2" y1="-806.4" y2="-806.4" gradientTransform="translate(-264 -2525)" gradientUnits="userSpaceOnUse"/></defs><path d="M14659.7-3484.7c-42.6 0-82.3 22-105.1 58l-.5.8-.6.8-.6 1.2h-.1l-1.7 3-.4.7v.1l-.4.6-1 1.8-.2.6-.8 1.5v.2l-.8 1.5-.4.8-.2.5-1.3 2.8-.3.8-1.9 4.6-.7 1.8-.5 1.6-.1.4-.3.6v.3l-.3.9-.2.3v.3l-.2.5-.1.3-.2.5-.1.6-.4 1.3-.2.5-.1.7-.4 1.1-.9 3.6v.1l-.1.3-.7 2.8-.3 1.9-.6 3.4-.1.8v.2l-.2 1-.1.7v.4l-.2 1-.5 4.2v.7l-.2 2.8-.1 1v.5l-.1.6v1.1l-.1.1v1.2h.1l-.1.1v10.6l.3.2-.3.4v6.6h1v.1h-1v6c0 14.3 2.5 28 7 40.9a15 15 0 0 0-7.2 12.5v47.2c0 1.8.4 3.7 1 5.4a13 13 0 0 0-1-.3h-3c-1.2.3-6.1.2-7.6 0h-3.5a13 13 0 0 0-12.6 15.8l5 21.4c.4 1.7 1.2 3.4 2.3 4.8 1.7 2.2 9.5 10.2 12 12 2 1.4 4.6 2.2 7.3 2.2h80.7a13 13 0 0 0 13-12.9v-3c1.6 3 10 11.2 11.4 12.5 2.3 2.2 5.4 3.4 8.8 3.4h150.3c9 0 15.3-9 12-17.4l-8-21.4c-.8-2-2.4-3.3-3.6-5-1.8-2.4-5.5-5.6-9.4-9.5-2-2-5.1-3-8.2-3h-1.6l1.4-6.1c1.2-5.6-.9-11.4-5.3-15l8.2-38.1c1-5-.4-10.2-4-13.9 1-3 1.6-6 2.2-9.2v-.7l.2-.8.2-.8.4-2 .1-1.1.1-1.2.1-.6v-.4l.2-.7v-1.1l.2-1 .2-2.3v-.2l.1-1.7v-.1l.1-1v-.3l.1-2v-3.2h.1v-26.3a132 132 0 0 0-3.2-23.5l-.4-2-.4-1.6-.1-.4-.5-1.7-.8-2.9v-.2h-.1l-.4-1.4-.2-.6-.4-1v-.2l-.4-1v-.2h-.1l-.1-.5-.6-1.4-.3-1-1.2-3-.2-.6h-.1c0-.4-.2-.6-.3-1l-.4-.8-.3-.6-2-4.5-1-1.8-1.6-3h-.2v-.1h.2l-.2-.3-.5-.9-.8-1.4-.2-.3-.8-1.5-.1-.2-.3-.5v.3l-.1-.1v-.2l-1.4-2.3h-.1c0-.2-.2-.3-.3-.5h.1a124.5 124.5 0 0 0-105-57.3zm.6 7.5c33.8 0 66 14.6 88.5 40l2 2.3c2 2.4 3.8 5 5.6 7.5h-24.9a98.1 98.1 0 0 0-143 .1c0 .1 0 .2-.2.3l-.2.2-1.3 1.4-.6.7-.3.4-.5.5-.2.3-.5.6-2 2.5h-.1l-1.3 1.7-.4.5-.7 1-1.1 1.6-.8 1.2-.6.8-.2.4-.7 1-.4.7-.3.5-.5.9-.4.5-.3.6-.3.5-.4.7-.3.6-2 3.7-.3.6-.4 1-.8 1.6-1.3 3-.5 1.3-.2.5-.3.7 3.3.2-3.3-.1-.4 1.1-.6 1.8-.5 1.5-.1 1.8v-1.9l-.6 2.1-.1.5-.5 1.6v.2l-.8 3.2a35 35 0 0 0-21 6.8l.1-.7.2-1.3 1-4.9c0-.6.2-1.2.3-1.7l.8-3.7v.2c0-.4.2-.7.3-1 1.4-5.7 3.3-11.3 5.6-16.7l.1-.2.3-.7 1-2.5c2.2-4.6 4.7-9.2 7.5-13.5v-.2a118.3 118.3 0 0 1 99.6-54.3zm-.2 22.9c25.8 0 49 10.2 66.1 27h-132.3c17-16.7 40.4-27 66.2-27zm-66.7 27.5h163.4l.7.9h-.5l.6.4.3.2.2.2.5.8c-1.3-.8-3.1-1.8-3.4-1.7-.3.1-.3.6-.4 3.1v2.4c0-.6.5-.8 1-.3 0 .1.2.2.2 0s-.6-.5-1-.5v-.6c0-.5 0-.5.4-.4l.7.2c.2 0 .4.2.6.7.3.7.3.8.8.6.5-.3 1.4-.2 1.3.1l-1.2.6-1 .4h.7c.8.1 1.3 0 1.3-.3 0-.4.4-.3.4 0v.1l.5-.2c.3 0 .3-.7 0-.9-.4-.1-.3-1.4.1-1.7l1 1.5v1.2c.1.2.2.1.3-.3l.1-.3.6 1.1-173.6-1.5.9-1 .1-.2.8-.9h.4c.6-.2.6-.3.6-1.1l.7-.6v1.1c-.2 2.2 0 2.6.5 2 .4-.3.4-.7 0-.8.4-.1.4-.3.2-.6-.3-.3-.4-1-.2-1 .1 0 .2 0 .1.1 0 .1.2.2.6.2.8 0 1 .3.5.6-.4.3-.4.3 0 .2l.7-.2c.4-.1.5-1 .2-1.4-.2-.2-.2-.2 0-.2l.2-.1c0-.3-1.2-.8-1.9-1zm5.2.8-.1 2.4v2.2l.5-.4c.3-.2.5-.4.4-.5-.1 0-.2 0-.1-.2 0-.2 0-.3-.2-.3-.5 0-.5-.8 0-1 .4-.1 1.3.1 1.2.4l-.4.2c-.4.2-.3.2.1.1h1c.2 0 .3-.2.3-.5a2 2 0 0 0-.3-1c-.3-.3-.3-.3 0-.2h.3c0-.3-1.6-1-2.2-1zm3.4 0-.1 2.4v2.2l.6-.3c.5-.3.5-1 0-1.1-.3-.2-.3-.8.1-1 .4-.2 1.5.2 1.3.5l.5.1c.4 0 .5 0 .5-.5 0-.3 0-.6-.2-.6s-.3-.2-.3-.4h.3l.3-.1c-.1-.3-1.6-1-2.4-1zm3.7 0-.2 2.3v2.3l.3-.5c.4-.5.6-1 .3-1s-.2-.6 0-.9c.3-.1.5-.1.8 0 .6.3.6.4 0 .6-.3.2-.3.2.2.1h1c.3 0 .5-.1.5-.4l-.4-1-.4-.4.4.1h.4c0-.2-1.8-1-2.4-1.1zm4 0c-.4.1-.4.2-.5 2.4v2.3l.5-.3c.4-.3.4-.4.3-.8l-.4-.4c-.2 0 0-.8.2-1 .2-.1.4-.1.8.1l.5.3-.5.2-.5.3.8-.1c.4-.2.7-.2.8-.1.2.4.5.2.5-.3 0-.3-.2-.7-.4-1l-.4-.5.4.1c.8.3.5-.1-.6-.7-.6-.2-1.2-.5-1.5-.4zm3.6 0c-.4.2-.4 1-.5 2.5v2.2l.5-.3c.4-.2.5-.3.3-.6-.1-.2-.1-.2 0-.2.2 0 .2-.1 0-.3-.5-.2-.6-.7-.2-1 .2-.2.4-.2.8 0l.5.3-.5.3c-.8.3-.6.4.3 0 .4-.1.7-.1.8 0l.4.2c.4 0 .3-.8-.2-1.4l-.5-.6.5.2c1 .3.6-.2-.6-.8a7 7 0 0 0-1.1-.4h-.5zm3.8 0c-.4.2-.4.9-.5 2.4v2.3l.6-.3c.3-.2.3-.3 0-.5l-.2-.4c.1 0 0-.2 0-.4-.2-.2-.2-.4 0-.7.2-.4.2-.4.8-.1.6.2.6.5.1.6l.8.1c1 0 1 0 1.1-.4l-.4-.8-.5-.5h.5c1 .3.5-.2-.8-.8l-1-.4h-.5zm3.7 0c-.2.1-.3.6-.4 2.4v2.4s.3 0 .5-.3c.2-.2.3-.4.2-.5l-.4-.7c-.1-.6-.1-.7.1-1 .3-.2.4-.2.8 0l.5.3-.4.3c-.5.4-.5.4.2.1.7-.2 1.2 0 1.5.5.1 0 .2-.1.2-.5 0-.5-.1-.8-.5-1.2l-.6-.6.6.1h.6c0-.2-2.5-1.3-2.9-1.2zm3.8 0c-.2.2-.3.6-.4 2.4v2.4c.2.2.8-.5.6-.7v-.7c-.2 0-.2-.3-.2-.6 0-.8.2-.8 1-.4l.4.3-.6.3c-.3.1-.4.2-.2.2.7-.2 1.5-.3 1.5-.1 0 0 .1.2.3.2.7 0 .6-1-.1-1.6l-.6-.5.6.1h.6c0-.2-2.4-1.3-2.8-1.2zm4.2 0c-.4 0-.4.2-.6 2.5 0 2.2 0 2.5.2 2.5.3 0 .3 0 .1-.2-.2-.1-.2-.2 0-.2.4-.1.4-.2.1-.7-.3-.6-.3-1.5 0-1.7.1 0 .4 0 .7.2l.5.3-.5.3c-.4.3-.4.3.3 0 .6-.1.7-.1 1.2.1.6.4.6.4.7-.1 0-.4-.2-.7-.6-1-.6-.6-.7-1-.1-.7.4.3.7.3.7 0 0-.1-2.3-1.2-2.8-1.2zm3.9 0c-.4.1-.4.3-.6 2.3v2.4c0 .2.1.2.4 0 .3-.3.3-.4.2-.6-.2-.3-.3-2-.2-2l.6.3c.5.2.6.6.2.5l-.4.2h.7c.4-.2.8-.2.8 0h.3c.1 0 .3.1.5.4.2.4.2.4.3-.4l-.1-.8c-.3 0-1.2-1-1.1-1.1h.5c.4.4.8.4.8.2 0-.3-2.5-1.4-3-1.3zm4.1 0c-.4 0-.4.1-.5 2.5v2.5l1.7-.5c.6-.3.4-.5-.4-.4-.4 0-.7 0-.9-.3l-.3-.4.9-.3c.7-.2.8-.2 1.5.2l.7.3v-.6c0-.4-.1-.7-.6-1l-.6-.7c0-.2.5-.2.6 0 .1.3.7.3.7.1 0-.2-2.2-1.3-2.8-1.3zm3.6 0-.1 2.6v2.4l.4-.3c.5-.4.5-.6.2-.6-.2 0-.3-.2-.4-.3 0-.3.2-.5.8-.7.8-.2 1-.2 1.4.1.3.2.6.4.6.6l.1.3c.1 0 .3-.4.3-1 0-.7 0-.9-.2-.8-.2 0-.5-.2-.8-.6-.4-.4-.4-.6-.2-.5.2 0 .4 0 .4.2.1.2.9.3.9 0 0-.2-2.3-1.3-2.9-1.3zm8.7 0c-.2.2-.3.6-.4 2.7l-.2 2.5.4-.4c.4-.3.4-.3.1-.5-.4-.4-.1-.9.7-1.1.5-.2.8-.2 1 0l.4.1c.5 0 .6.4.3.8-.1.2 0 .1.3-.1.4-.4.4-.5.3-1-.2-.4-.2-.6 0-.6.1 0 .1-.1 0-.1-.7 0-.9-.1-.8-.3l-.4-.6c-.3-.2-.3-.4-.2-.4l.4.3c.3.3 1.2.4 1.1.2 0-.3-2.6-1.5-3-1.4zm4.4 0c-.4.1-.4.3-.6 2.6v2.5l.4-.3c.2-.4.4-.4 1-.3h1.1c.4-.3.3-.3-.9-.3-1.3 0-1.3 0-1.3-.4s.2-.5.8-.7c.7-.2.8-.2 1.4.2l.8.5c.2 0 .2-.6 0-1l.1-.4c.2-.2.1-.2-.2-.2-.6 0-.9-.3-.5-.5h.6l.4-.1c0-.3-2.7-1.6-3.1-1.5zm3.9 0-.1 2.6-.1 2.6.5-.5.3-.3c-.3.1-.6-.4-.4-.8.2-.5 1.3-.7 1.6-.4.1.1.3.2.4.1 0 0 .3 0 .6.3.5.5.8.5.5 0-.2-.2-.2-.3-.1-.3l-.1-.4c-.1-.3-.1-.4.2-.6h-.3c-.4 0-.6 0-.7-.3 0-.3.5-.5 1-.3.2 0 .3 0 .2-.1 0-.3-2.4-1.5-3-1.5zm4.4 0-.1 2.6v2.6l.5-.4c.3-.4.3-.4 0-.6-.8-.2 0-1.2 1-1.2.3 0 .4.1.3.3-.1.2 0 .3.3 0 .3-.1.4 0 .6.2l.6.5c.4.3.4.2.4-.1l-.1-.4c-.2 0-.6-.8-.6-1 0-.1.2-.2.3-.1l.4-.2c.1-.1 0-.1-.4 0l-.7-.1c-.4-.4-.1-.6.6-.5h.7c0-.2-2.6-1.5-3.2-1.5zm4.9 0-.4.3a28 28 0 0 0-.3 4.9c.1 0 .3 0 .5-.3.3-.3.3-.4.1-.5-.4 0-.3-1 .2-1.1.5-.3 1.1-.2 1.1 0 0 .1.2.2.3.1.2 0 .6.1.8.4l.4.4-.5.6-.5.6h.5c.3 0 .6 0 .7-.2.2-.4.2-1.6 0-1.6l-.2-.3-.2-.6c0-.2 0-.3.2-.3l.4-.1c0-.1 0-.2-.4 0-.7.2-1.2-.2-.8-.6.2-.2.4-.2.8 0h.5c0-.2-2.6-1.6-3.1-1.7zm4.6 0c-.4.2-.5.9-.6 2.5l-.1 2.6c0 .2.2.2.5-.1.3-.4.3-.5 0-.6 0 0-.2-.3-.1-.6 0-.4.1-.5.6-.7.5-.1.6 0 .7.2 0 .2.2.2.5.2l.6.1c.1.3.8.8 1 .8.3 0 .1-.6-.2-.8-.3 0-.4-.2-.3-.2l-.1-.4c-.3-.5-.3-.5.3-.7 1-.3.7-.7-1-1.5l-1.3-.6c-.2-.1-.4-.2-.5-.1zm9.2 0c-.3.1-.4.5-.5 2.7v2.6c.2.2.3.2.2 0 0-.2.2-.4.4-.6l.6-.3h-.5c-.4 0-.5 0-.5-.5 0-.4.1-.6.4-.7.5-.2.7-.2.7.1 0 .3.1.3.6.3.5-.1.7 0 1.2.4.6.6.8.7.8.1 0-.2 0-.3-.3-.4-.3 0-.9-1-.7-1.2l.6-.2.6-.5c0-.3-3.2-1.9-3.6-1.7zm4.9 0c-.1 0-.4.1-.4.3l-.2 2.6v2.4l.4-.5c.5-.3.5-.4.1-.3-.2 0-.3-.1-.3-.5l.1-.7c.2 0 .1-.2 0-.3v-.3c.2 0 .2 0 .2.2l.3.2c.2 0 .3.2.3.3 0 .3 0 .3.5.2.2 0 .7 0 1 .2.5.3.7.6.3.6-.2 0-.6.3-1 1-.2.2-.1.2.2.3l1.1-.2c.6-.2.6-.3.7-1 0-.3 0-.7-.2-.7s-1-1-1-1.2l.6-.3c.4-.1.7-.3.7-.4-1-.8-2-1.5-3.3-1.9zm9.7 0c-.3 0-.4.2-.6 2.8v2.7l.5-.5c.5-.5.6-.5.9-.3.2.2.4.2.5.1.1-.2-.6-.6-.9-.4-.5.3-.7.1-.7-.5 0-.4.2-.7.3-.7l.1.3c0 .2.2.2.8.1.7-.1.9 0 1.3.4.6.6 1.3.8 1.3.4 0-.3-.2-.4-.5-.5l-.5-.3c0-.1 0-.3-.2-.4-.4-.5-.2-.8.6-1 .4 0 .8-.3.8-.3a12 12 0 0 0-3.7-1.9zm5.1 0-.5.1-.2 2.7v2.7c.1 0 .2 0 .2-.2l.5-.5.4-.4-.4.1c-.4.1-.4 0-.4-.6 0-.4 0-.6.1-.5 0 .1.2.2.4.1.1 0 .3 0 .3.2 0 .1 0 .1.1 0 .2 0 .2-.1.2-.2-.2-.4 1 .1 1.3.6.4.4 1.3.8 1.5.6.3-.2-.2-.7-.6-.8-.3 0-.6-.3-.7-.5l-.1-.6c-.2-.3.6-.7 1.2-.7.8 0 .4-.4-1.2-1.2a7 7 0 0 0-2-.8zm4.8 0c-.2.1-.3.6-.4 2.9v2.7c.1 0 .2 0 .2-.2 0-.1.2-.4.5-.6.3-.2.4-.3.6 0 .2.1.4.2.5 0 .2-.1-.4-.4-1-.3-.8 0-.9-.3-.2-.6.3 0 .5-.3.5-.5s0-.2.3 0c.1.1.4.2.5.1l.8.5c.3.4.7.7 1 .7.7 0 .4.4-.6.7-.9.3-.8.5 0 .2h.7c.2.4.4 0 .5-.6 0-.5-.1-.7-.5-1-.5-.2-1.3-1-1.3-1.3 0-.3 1.3-.7 1.6-.5.2 0 .3 0 .3-.2 0-.3-3.3-2-4-2zm5.5 0c-.5 0-.6.6-.7 2.8v2.8c0 .1.2 0 .3-.3.2-.6.6-.7 1.1-.4.2.1.4.1.4 0 0-.3-.7-.5-1.1-.4-.4.1-.4 0-.4-.5l.1-.4c.2.3.5.3.5 0 0-.5 1.2 0 1.7.6l.7.5c.2-.1.8.1.8.3l-1 .5c-.5.1-.8.3-.7.3h.7c.3-.2.4-.2.6 0 .4.3.4.2.6-.6.2-.7.2-.7-.6-1l-.8-.6s0-.3-.2-.4l-.2-.5c0-.3 1-.6 1.5-.5 1.3.2-.6-1.1-2.6-2zm5.1 0c-.3.1-.3.3-.5 3-.1 2.6 0 2.7.2 2.2.3-.5.4-.5 1-.4.5.2.5.1.2-.2-.2-.2-.4-.2-.7-.1-.5.3-.6.2-.6-.2 0-.2.2-.4.3-.4.2 0 .3 0 .2-.3 0-.5.2-.5.6 0 .2 0 .4.2.5.1.1 0 .4.1.7.4.3.3.7.5 1 .6.6 0 1 .6.5.6l-1 .3-.6.3.6-.1c.3-.2.5-.1.7 0 .4.4.6.2.7-.6 0-.6 0-.7-.5-1l-.9-.3-.2-.2-.1-.5-.3-.6c0-.2 1.3-.6 1.8-.4.3 0 .4 0 .3-.2 0-.3-3.4-2-3.9-2zm5 0-.1 3v2.4c.1-.6.7-.8 1.2-.6.2.2.4.2.4 0s-.6-.4-1.1-.2c-.5 0-.5 0-.4-.4l.2-.7.4-.2.4.2c0 .1.2.2.4.1.3 0 .5 0 .8.5.4.5.6.6 1.1.7 1 0 .7.4-.5.9l-.5.2h1.2c.4 0 .6 0 .5-.2l.1-.3.2-.4c0-.2-.2-.5-.7-.7l-1-.4-.1-.3c0-.2 0-.4-.2-.5-.6-.5.6-1.1 1.6-.9h.6a15 15 0 0 0-4-2.2zm6 0c-.5 0-.7.5-.7 2.9l-.1 2.4.4-.4.2-.3c-.2 0-.2-.1-.2-.7 0-.8 0-.8.6-.5.2.2.6.3.8.3.2 0 .4.3.6.5.2.4.2.4-.3.4-.6 0-1 .2-1.6 1.2-.1.3 0 .3 1 .2h3l.1-.8c.1-.6 0-.8-.1-.7-.2 0-.7-.1-1.1-.4l-.7-.4-.1-.4-.3-.7c0-.3 1.5-.6 2-.4.4.3.5.3.5 0 0-.2-3.5-2.2-4-2.2zm5 0-.2 2.9c-.2 2.6 0 3.5.3 2.3.1-.4.2-.5.7-.3.5.1.6 0 .4-.2-.2-.2-.4-.2-.7-.2-.4.1-.5 0-.4-.6 0-.5.1-.7.3-.6.2 0 .3.1.4.3 0 .2.2.2.5.2.4-.1.6 0 .9.5.2.4.4.6.7.5.4-.1 1.1.1 1.1.4 0 0 0 .2-.2.2l-1 .3-.8.3h2.3l.1-1.3c.1-1.4.1-1.4-.3-1.3-.8.2-1 .4-.4.3.5 0 .6 0 .6.3 0 .5-.2.6-1 .2-.7-.3-.9-.5-1.1-1l-.3-.8.8-.2c.7-.3.8-.3 1.3 0s.6.3.6 0-3.5-2.2-4.1-2.1l-.1-.1zm6.1 0c-.4 0-.4.2-.6 3v2.5c.1-.6.6-.9 1-.6.4.3.4.3.3 0l-.6-.2c-.6 0-.6 0-.6-.7 0-.5.1-.6.4-.6.3 0 .4.1.3.3-.1.2 0 .3.3.1.3-.2.5 0 1 .5.5.6.6.7 1.2.6.8 0 1.2.4.5.6l-1 .3-.7.3h.8c.7 0 1 0 1-.2l.1-.2.2.2c0 .1 0 .2.1.1l.3-2.8-1.4.7.5-.1c.5-.2.5-.3.5.3 0 .5-.1.5-1 .1l-.6-.2-.5-1.5.8-.3c.5-.2.8-.1 1 0 .6.3.9.3.9 0 0-.2-3.7-2.2-4.2-2.2zm5.3 0-.2 3v2.5c.2-.6.6-.8 1-.5.3.2.4.2.4.1 0-.3-.4-.6-.8-.5-.4 0-.4 0-.4-.6 0-.7.2-.8.6-.4.1.1.4.3.7.3.3 0 .5.2.7.6l.5.5c.9 0 1.6 0 1.6.2 0 .1-.5.4-1.2.6l-1.1.4c0 .1 1.6-.1 1.7-.3h.3l.3-.1.3-.5c.3-.2.3-.2 0-.6-.3-.4-.3-1 0-1l.2.4.1-.3c0-.6 0-.6-.3-.5l-.8.2-.6.4c0 .1 0 .1.2 0 .4-.4.8-.2.7.3l-.2.4-.7-.4c-.5-.2-.8-.5-1-.9l-.2-.7s.2-.3.7-.4c.6-.2.8-.2 1.4 0 .9.5.9.5.9.2 0-.4-3.6-2.3-4.3-2.3zm6.4 0c-.3 0-.5.1-.6.3a28 28 0 0 0-.2 5.6l1.6-.4c1.4-.6 2.4-.7 2.6-.2l-1 .5-1 .3 1 .1c1.5.2 1.7.1 1.8-.6 0-.6-.4-1.1-.7-1-.2.1-.6 0-1-.2-.4-.3-.7-.4-.8-.3l-.1-.3c0-.2-.1-.6-.3-.8-.3-.5-.3-.5.6-.9.7-.2.8-.2 1.4.2.8.5 1 .5 1 .2s-3.7-2.5-4.3-2.5zm-153.9.1c-.4 0-.5.2-.6 2.2-.2 1.7-.2 2.2 0 2.2.4 0 1.3-.7 1-.7-.1 0-.2-.2-.1-.3 0-.2 0-.3-.2-.3-.3 0-.4-.2-.3-.5 0-.5.6-.8 1.2-.5.5.3.4.7-.1.6-.2 0-.3 0-.2.1 0 .1.4 0 .8 0 .5-.2.7-.4.7-.8 0-.2 0-.6-.2-.7-.2-.2-.2-.2 0-.2.1 0 .2 0 .2-.2s-1.7-.9-2.2-.9zm49.5 0c-.3 0-.4.3-.5 2.6l-.1 2.4.5-.4c.4-.3.4-.4.2-.5-.1 0-.3-.2-.3-.4-.1-.3 0-.5.6-.7.7-.2.9-.2 1.4.1.4.2.7.5.7.7 0 .3 0 .3.2 0 .2-.4.2-1.7 0-1.7-.5 0-.7 0-.7-.2s-.1-.4-.4-.6l-.2-.4c.2 0 .4.1.5.3.3.3 1 .4 1.1.2 0-.3-2.6-1.5-3-1.4zm30.9 0c-.4 0-.5 0-.6 2.4-.1 1.3-.2 2.5-.1 2.6 0 .2.1.3.3.3.1 0 .1 0 0-.1 0-.1.1-.4.4-.6l.4-.4-.4.1c-.3 0-.4 0-.4-.5s.2-.7.6-.8c.6-.2.6-.2.6.2 0 .2.1.2.5.2.3-.1.6 0 1 .4.8.6 1 .7 1 .2 0-.4-.2-.5-.7-.5l-.1-.6c-.3-.5-.2-.5.3-.7 1-.3.7-.7-.9-1.5zm13.9 0-.2 2.6v2.7l.4-.5c.3-.4.4-.4 0-.5-.2 0-.2-.1-.1-.6 0-.6.5-1 .5-.4 0 .2 0 .3.2.3v-.3c0-.1 0-.3.2-.3.1 0 .2.1.2.3 0 0 .2.1.4 0 .3 0 .6.2 1 .5.8.7 1.2.8 1.2.4 0-.2-.1-.4-.4-.5-.2 0-.5-.4-.7-.7-.3-.6-.3-.6.2-.8l.8-.2c.1 0 .2 0 .2-.2 0-.4-2.8-1.8-3.5-1.8zm-97.7.6c.2 0 1.8 1.2 1.8 1.4 0 0-.5 0-1.3-.4-.5-.2-.8-.5-.8-.7 0-.2.2-.3.3-.3zm3.4 0c.3 0 1.8 1.2 1.8 1.4v.2l-1-.5c-.8-.3-1-.5-1-.8 0-.2.1-.3.2-.3zm3.4 0c.3 0 1.9 1.2 1.8 1.4v.2l-1-.5c-.7-.3-1-.5-1-.8 0-.2.1-.3.2-.3zm3.7 0c.3.1.6.4 1 .8 1 .9.9 1-.4.4-.5-.3-.8-.5-.8-.8 0-.3 0-.4.2-.4zm3.7 0 1 .8c.9.9.7 1-.6.4-.5-.3-.7-.6-.7-.8 0-.3 0-.4.3-.4zm3.6 0 1 .8c.9.9.7 1-.5.4-.6-.3-.8-.6-.8-.8 0-.3.1-.4.3-.4zm3.7 0 1 .8c.8.9.6 1-.6.4-.6-.3-.8-.6-.8-.8 0-.3.1-.4.4-.4zm3.6 0c.2 0 1.7 1.2 1.7 1.5 0 .2-.2.1-1-.3-.9-.3-1.2-1-.7-1.1zm3.8 0c.2 0 .6.3 1 .9.8.8.7 1-.5.4-.6-.4-1-.8-.7-1.1l.2-.1zm4 0 .9.9c.7.8.6 1-.5.4-.6-.3-.7-.5-.7-.8 0-.3 0-.5.3-.4zm91.6 0 1 .6c.9.5.9.5.4.8l-.7.2c-.2 0-1-1-1-1.4 0-.1.1-.2.3-.1zm-87.8.1c.2.1.6.3 1 .8.9.9.7 1-.5.4-.6-.3-.8-.6-.8-.8 0-.3.1-.4.3-.4zm4 0 1 .8c.7.9.5 1-.6.4-.5-.3-.7-.5-.7-.8 0-.3.1-.4.3-.4zm4 0a6 6 0 0 1 1.6 1.6c0 .1-.5 0-1.2-.4-.5-.2-.7-.4-.7-.7 0-.3.1-.5.3-.5zm35.7 0 .2.4c.1.4-.2.3-.4 0 0-.3 0-.4.1-.3zm13.9 0 1.8 1c0 .2-.2.3-.4.4-.5.2-.6.1-1.1-.6-.3-.5-.5-.8-.3-.7zm9.6 0 2 1c0 .2-.3.3-.5.4l-.6.2a5 5 0 0 1-1-1.5zm5 0 .9.4c1 .6 1.2.8.6 1-.7 0-.8 0-1.2-.6-.3-.4-.4-.7-.3-.7zm5 0 1.1.5c1 .5 1 .5.6.8l-.7.2c-.2 0-1.2-1.4-1-1.5zm5.2 0 1 .4c1 .5 1 .8.6 1-.7.1-1 0-1.4-.7l-.2-.6zm10.6 0 1 .5c.6.2 1 .5.8.6l-.7.2c-.5.1-.6 0-.9-.5l-.2-.7zm5.7 0 .5.3c1 .5 1.2.7.9.9-.8.4-1.1.3-1.5-.3-.2-.5-.3-.7-.2-.8h.3zm5.2 0c.1 0 1.8.8 1.8 1l-.4.2-.6.2c-.3 0-1-1.2-.8-1.3zm11.6 0c.3.1 1.4.8 1.4 1l-.5.2c-.6.3-.6.3-.9-.2-.3-.5-.3-1 0-1zm-103.7.1h.4c.2 0 .5.3 1 .8l.5.8-1-.4c-.7-.3-1-.6-1-.9zm4.4 0c.2 0 1.6 1.3 1.6 1.5 0 .2-.5 0-1.2-.3-.7-.4-1-1.2-.4-1.2zm4.1 0a5 5 0 0 1 1.7 1.5c0 .3-.5.1-1.2-.3-.4-.3-.7-.6-.7-.8zm14.2 0h.2l.5.4c0 .3-.3.3-.6-.1l-.1-.2zm13.6 0h.1l.3.2v.2c-.2 0-.3 0-.4-.2zm5 0 .3.3-.2.2c-.1 0-.3-.1-.3-.3l.2-.1zm9.2 0 1 .4c.7.3 1 .6 1 .7-.6.4-1.6.2-1.6-.4 0-.2-.1-.3-.3-.4-.2 0-.2-.2-.2-.2zm8.8 0h.1l.2.1c.2.2.3.4.2.6-.2.3-.1.4.1.3.2 0 .4 0 .6.4.4.6.3.7-.5.3-.7-.3-.7-.4-.7-1.1zm5.2 0h.2l.2.5c0 .3-.4.3-.5 0-.1-.2 0-.4.1-.5zm21.2 0 .4.8.7 1c.2.4-.1.4-.8 0-.3-.1-.4-.3-.3-1zm12.1 0c0-.2 1.6.6 1.6.9l-.6.3c-.5.2-.6.1-.8-.4-.2-.3-.3-.7-.2-.8zm11.8 0 .8.4c.6.2.6.4 0 .7-.1 0-.4.2-.5.1-.2 0-.7-.7-.7-1l.4-.1zm5.6 0h.3l.8.4c.5.3.5.3.2.6-.6.3-1 .2-1.2-.3l-.2-.6h.1zm-102.3.1 1 .8c.8.9.7 1-.5.4-.7-.3-1-1-.5-1.2zm1.4 0c.2 0 .3.2.4.3.2.3-.3.4-.5 0-.2-.2-.1-.2 0-.2zm2.9 0c.3 0 1.6 1.3 1.6 1.5 0 .2-.3.2-1.1-.3-.6-.3-.8-.5-.8-.8 0-.2.2-.4.3-.4zm1.6 0 .2.3c0 .2-.3.3-.4 0-.2-.2-.1-.4.2-.3zm8.6 0 .3.2c0 .1 0 .2-.2.2l-.3-.2zm17.6 0 .2.4.7.9c.6.6.4.7-.5.2-1-.4-1.2-.9-.7-1.3.1-.1.2-.2.3-.1zm4.6 0c.2 0 .6.6.4.7l.2.1c.1 0 .4.3.5.6.4.5.2.6-.8 0-.4-.2-.6-.3-.5-.8 0-.3 0-.6.2-.6zm4.8 0 .2.1c.2.2.3.4.2.5 0 .2 0 .3.2.3s.5.3.7.5c.3.6.1.6-.8.1-.5-.3-.6-.4-.6-1zm15.3 0h.1c.1.1.2.3.1.4-.2.2-.3.2-.3-.2l.1-.1zm10.5 0h.1l.2.3h-.2c-.1 0-.2 0-.2-.2h.1zm-58.5.1c.2 0 .6.3.9.7l.6.8c0 .2-.3.1-1.1-.3-.6-.3-.8-.6-.8-.8 0-.3.2-.4.4-.4zm4.5 0 .9.8c.8.9.6 1-.5.4-.5-.2-.7-.4-.7-.8 0-.3 0-.4.3-.3zm4.5 0c.3.1 1.4 1.3 1.4 1.6 0 .1-.2.1-1-.3-.5-.3-.7-.5-.6-.8 0-.2 0-.4.2-.4zm44.3 0v.1l-.1.2-.1-.2zm16.2 0c.1 0 .4.4.6.9.6 1 .5 1.2-.1.9-.5-.2-.6-.3-.5-1v-.7zm-51.2.1h.2l.6.7.7.9c0 .2-.2.1-1-.3-.8-.5-1-.8-.7-1.1l.2-.1zm1.7 0h.2l.7.4c.3.2.4.3.3.4-.4.3-1 .4-1.2 0-.2-.2-.1-.6 0-.7zm-6.2.1c.2 0 .5.3.7.7l.5.7s-.5 0-.9-.3c-.6-.3-.8-.5-.7-.7 0-.3.2-.4.4-.4zm61.4 0s.4.4.6.9c.4.8.4.9.2.9-.7-.1-1-.5-1-1.2zm-59.5.1.4.2c.5.2.6.5.2.6-.6.2-.9.1-1-.2l.1-.5h.3zm65.2 0c.2 0 1 1.5 1 1.7l-.8-.2c-.3-.2-.4-.4-.4-.9zm-69.8.1.4.1c.3 0 .5.2.5.3l-.5.3c-.4.2-.5.2-.7 0v-.6h.3zm47.7 0 .3.2.5.9c.3.6.2.6-.6.1-.6-.3-.7-.5-.4-1l.2-.1zm28 .1c.2.1.3.4.5.8.4.8.3 1-.3.6-.3-.2-.4-.4-.3-.9zm6 0 .4.7.2.8c.1.2-.1.1-.5-.1-.2-.1-.3-.4-.3-.8s0-.5.2-.5zm-39.1.1h.1l.3.5.4.7c0 .2-.1.2-.9-.2-.7-.4-.7-.4-.2-.8.1-.2.2-.2.3-.2zm-10.8.2c.3 0 .8.1 1 .5l.3.6c-.2.1-1.7-.8-1.6-1zm5.4 0c.2 0 .5 0 .7.5.4.6.3.7-.6.3-.6-.3-.7-.7-.1-.8zm46.8 0 .8.1c.2.1.3.3.3.4h.3l.6.2h-.2l.4.6c-.1 0-.4 0-.7.2l-1.1.3-.1.2h.4c.2 0 .3 0 .2.2l.1.2c.1 0 .2 0 .2-.2l.2-.2c.3 0 .2.6 0 .7-.1 0-.6 0-1-.2-.6-.3-.9-.5-1-1.2l-.3-.8a3 3 0 0 1 1-.4zm-170.8.3.1.3-.1-.2zm50 0 .6.2c.5.2.5.2.1.5-.6.3-.9.2-.9-.3 0-.3 0-.4.2-.4zm4.3 0 .3.2c.4.3.4.3 0 .5-.4.3-.6.3-.7 0l.1-.6h.3zm3.9 0 .3.1.6.3c0 .1-.1.2-.4.3-.5.3-.7.2-.6-.4v-.2zm4.1.1h.4c.5.3.6.3.4.6-.2.3-.9.1-.8-.3zm4.5.1h.3c.2.1.3.2.2.4 0 .2-.6.3-.7.1-.1 0 0-.3 0-.4zm4.1 0c.2-.1.9.2.9.4 0 .3-.8.3-.9 0zm4.4 0c.2 0 .7.2.7.4 0 .3-.6.4-.7 0v-.3zm4.6 0 .4.2.2.3c-.2.3-.7.1-.7-.2v-.2zm4.7.2.2.2-.2.3c-.1 0-.2-.1-.2-.3 0-.2.1-.3.2-.2zm4.6 0s.2 0 .3.2c0 0 0 .2-.2.2-.2.1-.3 0-.3-.1 0-.2 0-.3.2-.3zm4.7 0 .2.3-.3.1c-.1 0-.2 0-.2-.2 0 0 .1-.2.3-.1zm73.1.6-.8.2c-.9.3-1.4.7-.7.5.3 0 .4 0 .4.2 0 .5.3.4.4 0 .1-.5.1-.5.3 0 .2.4.2.4.3-.2zm-4.5.3.2.3c0 .2 0 .2.4 0 .5 0 1 .3 1 .8 0 .2-.2.3-1 .2-.9-.1-.9-.1-.8-.7 0-.5 0-.6.2-.6zm-162.1.2c.1.2 0 .2-.2.2.2 0 .3 0 .2-.1zm94.4.5v.3l.4.3v-.3zm19.4.1-.1.1h.1zm0 .2v.2c.2.2.4.3.5.2.1 0 0-.2-.2-.3zm28.1.3h.8c.6.2.4.5-.4.7-1.3.5-1.8.3-1-.3l.6-.3zm-137.6 1.6h1l-1 18.3-1 19.3c.2 0 .4-1.8.6-5 0-2.4.2-3.3.3-3.8v.7l-.2 2.9-.3 4.8 1.8-1.5 2-1.8.9-1-1.9-2.4-.7-1 .6.8c1.9 2.5 2 2.6 2.3 2.2.4-.3.3-.4-1.8-3.2l-1-1.6 1.1 1.7 1.9 2.3.1.2h.1v.1h.4l.1-.2.4-.3 3-3.5 1.2-1.2-4.7-.2-4.5-.3 4.8.2 4.5.3-.8 1.2-.8 1.2 1.5-1 1.5-1.3.7-13.4.8-13.4h.3v.1l-.1.1v.2l-.1.7-.2 2.5-.6 9.8-.5 10.5v2.6l.3.1.2-.1.1-.4.1-.5.2-2.2c.4-6.6.8-13.2 1-19.8v-3.5h-.1 1l-.7 12.3c-.6 4.3-.8 8.7-.4 13 .3-.2.4-1.2.7-6l.3-5.6 2 2.8c.8 1.1 1.6 2.2 2.6 3.2a21 21 0 0 1-3.2 3.5l-1 1.1.6-.3 1-.7c.4-.2 1.1-1 1.7-1.6l.4-.4-.3.4v.5h.5l.7-.7v-.7h.1c.3.4.5.4.9.2.2-.1.2-.3-.1-.8l-.4-.6 1.9-2c-.8.8-1.2 1.4-1.4 1.8-.2.1-.2.3-.2.5l.2.4.4.6 1-.4 1.8-1 .8-.4.1-2v-1.7l-.1-.2-.2-.1h-.2l.6-.6s.2.6.2 1.4c0 2.4.1 2.8.4 2.7.3 0 .4-1.6.8-9.1.3-6 .4-9.2.3-9.3v-.1h.3l-.5 9.1c0 2.5-.2 4.7-.3 6.4v2.8h.6l.6-.3.7-.5c0-.1.1-.3 0-.4v-.3l-.2-.4v-1.3l.3-6.7.5-8.4h1c-.6 2.8-.9 5.6-.8 8.4l-.3 8.4c.1.2.3.3.4.3.2 0 1.4-1.5 2.6-3.2 3.3-4.3 2.9-4 3.5-3.1l1.3 1.8c1.2 1.9 1.3 2 1.6 2 .2 0 0-.7-.6-1.8l1.1 1.5h.1l.2.2.3-.1.2-.3.1-.8.3-4.4v-.1l.2-3.7v-1.8h-.1l-.1-.1.3-.4v3.3c.3 2 .3 2 0 2.4l-.3.3.3.3c.4.3.4.5.2 2.7v2.3c.2 0 .4-1.4.6-6.2.4-5.9.3-6.2 0-6.9v-.2l.2.4c.1.3.2.4.2 1.3l-.2 5.2-.4 6.4 1-.1 1.8-.3c.2 0 .3 0 .4-.3v-.4l-.3-.5-.2-.3v-.8l.2-5 .3-6.1-1.6-.1h-.6 3l-.4 5.3c-.3 5-.4 6.7-.6 6.7-.1 0-.1.2.1.6.2.3.5.5.6.5.6.1 3.1-.2 3.1-.4l-.7-.1h6l1-.2-2-2.9-1.6-2.5h-.1l-.1-.1h-.2l-.1.1-.1.1-.4.4a90.3 90.3 0 0 0-3.7 4.3l-.1.1c0 .1-.1.2 0 .4h-.5l2.2-2.4 2.5-3 .3-.4 2 3c1.7 2.6 1.9 2.8 2.4 2.9.6 0 .6 0 .6-.5l-.2-.4.2-3 .2-4.9.1-3.1c.2-.1.2 1.5 0 3.6v2.8c.2-1.4.5-1 .4.5 0 1.1-.3 1.6-.5.9v.3c-.1.5 0 .7.1.8.2.1.3.5.2 1.5 0 .8 0 1.3.2 1.3 0 0 .3-2 .5-5.9l.3-4.7-.2 4.7-.4 6.1h3.5l.3-6 .2-5v-.9l-.2-.2h-1.7l-1.3-.1h4.1l-.4 5.6-.3 6.5.4-.1h.8c.3 0 1-.8 2.5-2.6l1.4-1.6-1.2 1.4-1.7 2.1v.2h-.1v.4h.1l.1.1h.2l.8.1 4.4.1h1l.2-.1.1-.2v-.2l-.1-.1-.3-.6-1-1.6-.7-1.2.9 1.3 1.6 2.7h1.2l1.2.1.4-6c.2-3.9.2-5.2.4-5.7l-.3 5.6-.4 6.2 2 .1 2 .1.3-6.2.4-6.1-2-.1h-.5 3.4l-.4 5.9a45 45 0 0 0-.3 6.7l.8-.2c.5 0 .8-.2 2.7-2.6l1.5-1.7a66.6 66.6 0 0 0-3.3 4.4l.2.1h.2l.6.2c2 .3 3.9.5 5.8.5h.2l.3-.1.1-.3v-.3l-1.4-2.3-.5-.9.5.8 2.1 3.2 1 .1h.7l.4-6.7.4-6.7H14683.3c0 .2.2.2.4 0h2.7l-.2 3-.4 6.8c-.1 3-.2 3.4-.7 3.4-.2 0-.2 0 0 .4l.2.4v.4c.2.2.5.4.9.4l2.8.6c1.8.5 2.8.6 6.8 1 4.1.2 4.5.2 3.4 0l-2.2-.5c-2.7-.2-4.1-.4-3.7-.5l1.6-.1h1.3l.5-.8.3-.4c0 .3-.1.3-.2.5l-.3.4v.2l-.1.1v.1s0 .2.2.2l1 .3 1.8.4 3.1.8 1 .2.6-8.4c0-2.2.2-4.2.3-5.7v-1.8l.1-.5v-.3l-.1-.1h-.4l-.7-.1h-5.3v-.2h3.4c0 .2.1.2.2 0h4.3l-.2.4c-.2.4-.3 2-.8 9.6a49 49 0 0 0-.2 9.9l.5.7 1.8.4c1.7.2 2.2.6.8.5-1.4 0-.4.3 1.3.5 1 0 1.4.2 1.4.5s.8.2.8 0 .4-.2.7-.2c.6 0 .7 0 .4.2-.4.2-.5.8-.2.8.7 0 2-.4 2-.6 0-.2.1-.3.3-.3l.2.2c-.1 0 0 .2.2.2s.2 0 0 .3l-.2.3s.3.2.8.2c.6 0 .8 0 1-.3.3-1 0-1.2-1.5-1.5-2-.3-2.2-.4-.8-.3.7 0 1.2 0 1.1-.2 0 0 0-.4.2-.7l.3-1.8-.1 1.4v.2l-.2.5v.3l.2.2c2.3 1 4.6 2 6.8 3.3l1.2.7.8-12.5.4-8.6.2-2.6v-.7h.6l-.7-.5h-1.5l-2.7-.1h-4.3v.6s0 .3.2.4v1.7c0-1.3 0-1.5-.2-2-.5-.9-.1-1 1.5-.9h8.1l-1 15.8-.8 16.5h.6c.5 0 .7-.1 1.2-1l-.2.4v.5l.4.2h.5c.6 0 1-.1 1.5-.5l.4-.5v-.5c0-.2-.1-.2-.2-.2h-.3c-.5 0-1 .2-1.5.4-.2 0-.4 0-.6.3v-.1l.8-1h1c1.6 0 1.8.3 1 1l-.7.8c0 .3-.4.4-1.4.4-1 0-1 .3-.4.9.4.2 1 .3 4 .4 1.2 0 1.5 0 2.2.2l-3.3.6-.2.3v.5c0 .2 0 .3.3.4.3.2.7.2 1.4.2h1.2c.3-.1.6-.4 1-.8l.6-.8v-.3h.3l-.7 1c-.7.7-.8.8-.4.8.3 0 .7-.2 1-.4l.4-.4v.4c0 .7.3.4.7-.3l-.2.4c0 .2-.1.2 0 .4v.2H14738.6l-1.7-1.1-1-.7-.2-.1v-.1c-.2 0-.3.2-.3.2.4-.8.8-.8 1.2 0 .3.7.6.7.6.2 0-.4-.6-1-1.3-1.3 0 0-.2 0-.2-.4l1.7 1.3 1.8 1.5 1.2 1c.2 0 .2 0 .3.2h.2v.2l1.7 1.3 2.2 1.8.3-5.2h1.2c-.2 3.4-.2 6.9-.3 10.3l.9-.1h1s-.2.6-.7 1c-.6.8-1 1-1.1 1l.9-1 .3-.3v-.5l-.1-.1h-.6l-.4.3a1 1 0 0 0-.2.6v.8l-.2 3.4c0-.7 0-.7.4-1 .2-.1 0-.2 0-.4-.3-.2-.2-.4.7-1.2l1.7-2 .5-1h-1.5l-1.5-.1.2-3.5c0-1.2 0-1.3.2-2v.7l-.2 1.7 1.5 1.2 1.3 1.3.2.2h.4v-.6l-.2-.6c-.2-.6-.5-1.3-1-2l-.4-.8.3.4c1.3 2.6 1.7 3 2 3 .3 0 .5.2.5.3 0 .4-2.6 4.2-3.7 5.4l-1.2 1.3.9.9c.8.8 1.4 1 1.4.7l-.4-.6.2.2 1 .7h.2-1.2l1 .2a76.4 76.4 0 0 1-5 6.4v-.1a.6.6 0 0 0-.5-.3h-.1l-.5-.5-3-3-.2-.2c0-.1 0-.3-.2-.4l-.3-.2-.2-.1-.5-.4a38.5 38.5 0 0 1-3.6-3.6l-.1-.2h-.3v-.2c-.2 0-.3-.2-.5-.4l-3-2.8-.2-.1c0-.1 0-.2-.2-.3l-.3-.2-.3-.2-3.5-3-.1-.2-.3-.4a.7.7 0 0 0-.4-.2h-.2l-1.8-1.4-1.7-1.4-.2-.1-.1-.2-.2-.1-.5-.4-2.3-1.6a79 79 0 0 0-10.4-6.7l-.6-.3-.4-.2-.7-.3-3.5-1.7-.2-.2h-.4l-.4-.3-1.5-.7c-3-1.3-6-2.4-9-3.2l-2-.6v-.2l-.1.2-2-.5c-8.1-2-16.5-3-25-3.4v-.1l-.1-.3s-.2 0-.2.2v.2c-6.7 0-13.4.5-20 1.4v-.2c0-.3.2-.3.9-.3 1 0 2 0 2-.4l.4-.2c.2 0 .4 0 .4.2s.8.3 1 0h1c.7 0 1.2-.1 1.4-.3.3-.3.6-.3.7 0 0 .2 0 .2.3 0a4 4 0 0 1 1.6-.1l1.5-.1c.2-.1 1-.2 1.9-.1h3.7l-.5-.4c-.4-.2-.6-.2-.8 0-.2.2-3.7 0-3.8-.3 0-.1-.2-.1-.4 0l-2 .2c-1.1 0-1.6 0-2-.2l-.1-.2h-.2c-.2.4-3.3.5-3.7 0-.2-.1-.3 0-.4.2-.2.2-.6.3-2.2.2h-2c0 .2-3.1.5-3.5.4-.1-.1-.5 0-.8 0a2 2 0 0 1-1 .3c-.5 0-1 .2-1 .4h-1.1l-.1-.1c-.1-.1-.2 0-.2 0v.2h-1.8c-1 .3-1 .3-.7.6.3.4.3.4-.4.3-.5 0-.7 0-.7-.4-.1-.5-.1-.5-.5-.1l-.8.4c-.3 0-1 0-1.3.2-.7.2-.7.2-.3.5.5.3.3.6-.3.6-.4 0-.5-.2-.6-.6 0-.6-.4-.6-.5 0-.2.4-.3.5-.7.4-.5-.1-2.1.3-2.1.5l.3.4c.5.3.5.6 0 .6-.6 0-1-.5-1-1 .2 0 0-.2 0-.2l-.3.6c-.1.5-.2.5-.7.4h-1.3c-.4.3-1 .3-1 .3-.2-.1-.3 0-.4.2-.1.3-2.8 1.5-3.2 1.4-.1 0-.3 0-.3.2-.2.3-3 1.7-3.1 1.6 0 0-.3 0-.4.2-.2.4-2.6 1.8-3 1.8-.2 0-.3 0-.4.2 0 .2-.5.7-1.2 1a5 5 0 0 0-1.4 1.3c-.1.2-.2.3-.4.3 0-.1-.4 0-.8.3-1.5 1-2 1.5-2 1.8-.1.4-.4.6-.8.6-.6 0-2.7 2-2.4 2.2.2 0 0 .2-.3.4-.5.2-.7.2-.6 0l-1 .8c-.7.5-1.2 1-1.4.9l-.3.3c0 .4-2.3 2.4-2.7 2.4l-.2.4-.4-.1v-.5l-.1-.5a.7.7 0 0 0-.5-.2l-.8-.1 1-.1-1.4-.4a4 4 0 0 1-1.3-.3l.4-.5s0-.2-.3 0l-.7.7.4.5-1.4-.5.7-.5.7-1 .7-.6 1-19.4c.2-6.4.5-12.8 1-19.2zm147.9 37.1c-.2-.2-.4-.2-.5-.2v-.1c-.1 0-.3.2-.3.4 0 .3.1.4.4.4.4 0 .6-.1.4-.5zm-152.9-36.7h1.1l-.6.7-.5.5-1.1 1.2-.3.3-.2-.3-.1-.1zm9.5.1h4.1l.4.1v.1l-1.1 1.2-1.4 1.4-1-1.4zm40.3 0h.1l.2.2h-.3zm1.9 0h5.9v.2h-5.9Zm-28.4.2h.4l4 .1-2.3 2.5-.3.3c0-.1 0-.2-.2-.3l-1.6-2.4zm-16.4.1h.1l.3.4 2.5 3.8v.2l-.5.5-2.7 2.9-.1.1v-.6l.2-3.2.2-3.3zm29.1.2 1.5.2 4.1.5 1.6.1-1.8 2.5-2 2.7-.3-.4a64 64 0 0 1-3.1-5.5zm9.9 0h1.9l-.3 5.6-.2 5.1v1l.3.4.2.4h-.4l-1.3.2h-.3l.3-5.6.2-5.4c0-.8-.1-1.2-.3-1.5zm-25.1.1.1.4 1.2 1.6 1.5 2.2-1.6 1.8-1.3 1.4-.4.4c0-2.3.2-4.7.4-7v-.7zm31.9 0h3.9l.5.1-.1.2-2 2.3-.4.4-.2-.4-.9-1.2zm41 0-.4 6.7-.4 6.6 1.7.1 2.5.3 1.4.1.3-6.9.3-6.8h-3.4v-.1zm-32.2.1h2.2v.7l-.1 4.9-.4 5.6h-2.3l.3-5.6zm-58.3.1v1.6l-.3 4.6v1.4l-1.4-1.8-1.6-2.2 1.8-2zm66.2 0h3.5l.3.1-.2.2-1 1.3-1.3 1.5-1-1.5-.8-1.3v-.2h.5zm8.2 0 1.4.1 1.5.1-.3 5.6-.3 5.7-1.5-.1h-1.4l.3-5.7zm51.9 0v.1zm-79.4.3h.1v.2l2.8 4v.1l-.4.5-2.5 3-.4.5v-.2l.1-3.9.3-3.5zm35.3 0h4.3l-.6.8-.5.7-1.3 1.6-.2-.4c-.3-.3-.6-.7-.8-1.2zm10.3 0h2.4l.5.1-.3 6.3-.3 6.3h-.9l-2.5-.3-1-.1.2-6.1.4-6.1zm44.6 0 .3.5h-.2v.4l-.1.3v1.2l-.3 3.8-.2 3.7v1.8h.4v-.1l.2-.2.3-.5 2.9-4.4v-.2l-1.3-2.7-.2-.4c1.3 2.4 1.8 3.2 2 3.2.3 0 .4 0 .4.2 0 .1-.1.2-.3.2l-.5.1c-.1.1 0 .2.1.2.2 0 .3.1.3.2-1.2 2-2.8 3.9-4.5 5.5-.2 0 .5-12.5.7-12.6zm11.3 0h.3l.2.1c.3.2.4.2.6 0h1.8c1.3.2 1.4.2 1.3 0h.8c.1.2.3.3.4.1h1.9l1.7.1v-.2h1.4l-1.5 24.6-.3 6.6-1.3.7.7-11.8.1-1.9.6-11.8.3-4.2v-1.7h-.2l-.1-.1h-1.3l-3-.1-4.6-.1v-.2h.2zm-135.6.1v1.6l-.3 4.4-.1 1.4-1.2-1.6-1.4-2.2v-.2l.4-.5 1.3-1.4zm89.7 0 2 .1c0 .2-.1.3-.3.5l-2 2.5-.1.2-.2-.3a51 51 0 0 1-1.5-2.6l-.1-.3h2.2zm60.8 0 1.4.1h1c.3.2.5.2.6 0h.7l.2.3-.4 1c-.2.7-.3.8-.7.7-.5 0-.6 0-.2.4v.7c-.4.6-.7.6-.7 0 0 0 0-.3-.2-.2l-.2.5-.3.4c-.3.1-.3.1 0 .5s.3.4-.1 1c-.5.8-.8.8-1 .1l-1.5-2.9-.6-1.5.8 1.7.7 1.5.3.4v.1l.1.1h.1v.1H14753.1l.1-.3.3-.4 1-1.3.8-1.4.3-.4.1-.2c.1-.2 0-.3 0-.4H14755.1c-1.3-.3-2.5-.3-3.8-.3l-.8.2-.2-.4h.9a4 4 0 0 0 1.6 0zm-136.8.1v1.7l-.3 4.7v1.5l-1.3-1.8-1.5-2.3v-.2l.4-.5 1.3-1.5zm82.4 0 2.7.1h2.8v.5l-.1 1.8-.3 5.7-.5 7.8-.4-.1-5.6-1.4.2-.3.3-.5.2-1 .4-6zm60.6 0h1c0 .2.2.2.4 0h.6l.1.1.4.2c.1 0 .2 0 .2-.2h1v.2h-3.7zm-106.4.1v.1l.1.1 1.2 1.8 1.5 2.5-1.7 2c-.5.5-1 1-1.3 1.5l-.2.3v-.7c0-2.5.2-5 .4-7.6zm84.9.1-1 16-1 15.5.8-15.3c.7-12.3 1-15.3 1.2-16.2zm-19.6.1h5.6l1 .1v.7l-.1 2.6-.5 8.6-.7 11.7-.5-.3-6.7-3.2v-.4l.2-.4.1-.7.2-2.2c.4-4.3.6-8.5.7-12.8v-2.9l-.1-.5-.1-.2h1zm-48.7.1h.1l.1.3a228 228 0 0 1 2.5 4.2c0 .3-.3.6-.5.8l-2.6 3.2v-.7c0-.9 0-2.1.2-3.6l.2-3.5zm38.2 0h.8l5.8.8-.3.8-2.8 4.6-.4.6-.4-.8-2.3-5.2zm22 0h2l1.8.1h.3l-.1.2-2 2.8-.2.3-.2-.2-.8-1.4zm-84 .2v1.7l-.3 4.8-.1 1.6-1.2-1.8-1.4-2.4v-.2l.4-.6 1.3-1.6zm42 .1v.2l2.4 4.5-2.9 3.8v-.6l.1-3.6.3-3.5v-.7zm65 0c.9 0 1.7 0 2.6.2h.2l-.3.3-1.8 2.7-.2.3-.1-.3-.7-1.4-.8-1.7h1.1zm-90.9.2-.1 1.7-.3 5v1.6l-.6-.9-1.7-2.6-.6-1 1.8-2.1zm98 0h3.6c1.9 3.5 3.6 7 5.1 10.6-3 3.6-6.3 7-9.8 10.2zm-23.9.1h.2v.1l.4 2c.3 1.5.3 2.8 0 2.8l-.3-.3c-.4-.4-.4 1.5 0 2.7.4 1.1.3 1.6-.2 1.5-.2 0-.3.2-.3.5s0 .5.4.5c.4.1.4.2.4 1.8 0 1-.1 1.7-.2 1.6l-1-1.6.3-3.4.3-5zm12.8 0v.1l-.2 5.2-.2 3.8v1.5l.1.2h.4v-.2l.2-.2.4-.5 1.2-1.7.2-.4 1.4-2-1.5-3.1-.8-1.6.5.9c1.7 3.5 1.9 3.7 2.3 3.7.4 0 .3.1-.2.2-.7.2-.8.5-.2.6.3 0 .3.2-.7 1.6-1.1 1.7-3.3 4.1-3.5 3.9 0-4 .1-8 .6-12zm-70.5.3-.1 1.7-.3 4.8v1.6l-1.1-1.7-1.3-2.7.3-.5 1.2-1.6zm49.1.2 2 4 .3.7v.1l-.1.3-.4.5-2.3 3.3v-.7l.2-3.8.3-3.8zm30.5.1v2.5c-.1 2.5 0 3 .1 3.1.2 0 .4.4.5.9.3 1.5 0 2.6-.6 2.3-.2-.1-.3 0-.3.5 0 .6 0 .7.3.6.5-.2.6.3.5 1.9 0 .8-.2 1.5-.3 1.5 0 .1-.4-.3-.6-.7l-1.9-4-.8-1.9 1.7 3.6.2.4.1.1v.1h.4v-.7l.1-1.1.2-3.7v-.2zm-61.7.2v1.7l-.3 4.8-.2 1.5-1-1.8-1.4-2.5 1.6-2.1zm53.2.1 1 2 1.3 2.8-1.7 2.5-1 1.4v-.5l.1-3.8zm-165.3.2.3.5c.5.4.5.5.3.5s-.4.2-.4.4c0 .3-2.8 3.3-3.5 3.7l-.5.4.6-1 1.4-1.4 2.2-2.3-.5-.7zm37.4 0h.1l.1.3 1.2 2.1 1.6 2.9-1.8 2.4-1.4 1.8c0 .2-.1.2-.2.3v-.8c0-1 0-2.4.2-4l.2-4zm135.6.1-1.3 2-1 1.5zm-21.6.5v1.6l-.3 5-.2 1.4-.9-1.7-1.1-2.7.5-.7 1-1.6zm-151.8.1.1.2-1.1 1.2zm173.6.1-.2 4.5-.2 3.4v.6l-.5-1-1.3-2.6-.4-.9 1.5-2.3zm-126.8.1h.2v.6l-.2 3.8-.4 4.9-.2-.3-2.2-3.8-.4-.6 1.8-2.6zm-45.4 1h.1l.5.7-.2-.3-.2-.2-.1-.1h-.2zm153.1 0a94 94 0 0 1 7.6 13c0 1 0 1.8-.2 3l-.7 12.1c-1.5 1-3 1.7-4.6 2.4h4.5l-.2 4-1.3-1-1.7-1.4H14740.9l-.2-.3-.6-.5a37 37 0 0 0-2.5-2l-1.5-1.1 1-15.9zm-31.6.1.4.8 1.6 3.4.7 1.6-1.9 3-1.4 2.2.3-5.5zm51.6.3h.1s.2.2.2.5c0 .5-.2.8-.3.3-.2-.4-.1-.8 0-.8zm-173.2.3h.1c0 .2.2.3.4.6l2.5 3.4.3.5h-1.2l-4.2-.5-1.6-.1 1.8-1.9 1.5-1.5zm13 .4 3.3 4.6-4.2-.3-3-.3 1.8-1.9a82 82 0 0 1 2-2zm117.1.2v2l-.4 6-.2 2-.9-2-1.3-3v-.3l.4-.7 1.2-2zm-103.6.2.4.4c1 1.3 2 2.6 2.8 4l-.3.1c-2 0-4 0-6-.3h-.6c0-.2.2-.3.3-.5zm29.6.7.3.6 1.2 1.7 1.4 2.2h-.1l-.4.1h-6.3l3.6-4.2.3-.3zm32.7.1.2.3h-.5zm-16.7.3 1.2 2 1 1.6.2.4h-5.6l.3-.5 1.3-1.6zm-110.3.2-.4.5-.1.1zm189.6.1c.2 0 .5.2.5.5 0 .4-.4.4-.5 0zm-62.7.5.4.4 2.4 4h-1.2l-2.4-.2-2.1-.2h-.5l.5-.7zm18 .2 1.2 2 1.8 3.2.1.3h-.2l-.9-.2-2.6-.2-3.2-.2 1.9-2.4zm39.5.2v.1l.1.2h-.2v.1l-.2.2-.5.6-.6.8zm0 1 .2.4a142 142 0 0 1 2.5 4.8l.3.5h-.5l-3.8-.4-2.4-.2 1.8-2.5zm-105.6.3-.2.3-.5.6a94.7 94.7 0 0 0-3.6 4.7v.5h.8l3-1h.5s.2 0 .3-.2h.2l.7-.2a6 6 0 0 0 1-.3l.2-.2c.1 0 0-.2 0-.2v-.3l-.2-.4-1.6-3-.2-.3h-.2zm127.4.3 1.4 3 1.4 3-6.2-.7.4-.7 1.3-2zm.6 0 3.1 6.3-1.8-3.6zm-127.9.3h.1l.3.4 1.3 2.5.1.4-.8.2-1 .3-.2.2h-.7l-.4.2-2.4.7.3-.5c1-1.5 2.2-3 3.4-4.4zm-44.4 1h2l4 .3.9.1-1 1-.5.6-2 2.2c-.1 0-.2 0-.3-.2l-1.6-2zm12.9.4 3 .1 2.7.2h.9l.3.1v.1c-1 1.2-2 2.4-3.1 3.4l-.5.5a13 13 0 0 1-1.8-2.3zm156.9.1-.3.5-1.7 2.8v.2l-.1.1v.2l.2.1.3.1.9.1h-.6c-.7 0-1.3-.2-1.2-.3zm-143.2.4h1.3l4 .3 1.6.1-1.7 2-1.4 1.6-.5.5c-.2 0-.3-.2-.5-.4l-1.3-1.9zm102.8 0c1.6 2.4 3 5 4.2 7.5l-.3.1c-.2 0-.3.1-.2.4 0 .4 0 .4-1.4.3-1 0-1.6-.2-1.6-.3l-2.6-.3c-1.4 0-2.7-.2-2.7-.3l1-1.8v.4l.1.1h.1l.2.1.3.1 4 1.5 1.6.5h.7l.1-.3v-.2l-.1-.2-.3-.7-2.7-5.9-.4-.8zm-62.3.2.4.3c.6.4 1 .4 1 .1-.1 0-.4-.3-.8-.3zm3.8 0a9 9 0 0 0-1.7.1c-.1 0-.2 1.2-.2 2.5l.1 2.5.5-.5.2-.4c-.8 0-.8-.7 0-1 1-.5 2.4 0 2.2.7-.1.2 0 .2.1 0 .3-.5.4-.9.2-1.3-.1-.2-.1-.3 0-.4-.6 0-1-.6-.6-.7h.6c.2 0 .3 0 .3-.7v-.7zm3 0c-.4.2-.4 1-.6 2.6v2.5l.6-.5c.5-.5.7-.5 1-.4.6.4.7.3.3 0-.3-.5-.3-.5.2-.8.4-.2.6-.2.8 0l.4.2c.4 0 .4-.9 0-1-.3-.2-.3-.6 0-.6s.3 0 .3-.3-.4-.6-1.3-1l-1.2-.6h-.5zm-8.5.1c-.2 0-.4 0-.5.2l-.1 2.5.1 2.2.5-.3c.3-.3.3-.3 0-.5-.7-.2-.4-.6.4-.9 1.2-.4 2 0 1.9.6l.1.2c.3 0 .3-.2.4-1.2 0-.5 0-.7-.2-.6-.2 0-.4 0-.6-.4-.3-.2-.3-.4-.2-.3h1.2c-1-.7-2-1.2-3-1.5zm10.4 0 .6.3.6.3v-.3s-.1-.2-.6-.3zm-13 .1.5.3c.6.3 1 .3 1 .1 0-.3-.5-.4-1-.4zm15 0-.1 2.6c-.1 2.3-.1 2.5.2 2.6.2 0 .2 0 0-.2-.1 0 0-.2.3-.5.5-.5 1-.5 1.2-.2.2.3.3.3.8 0 .4-.3.4-.3-.1-.2-.3 0-.6 0-.6-.2h-1.6c-.1-.2-.1-.3.1-.4l.2-.5c-.1-.2 0-.3.6-.4.4 0 .7 0 .9.2l.5.2c.2 0 .3.1.3.2l.4.3c.3 0 .4 0 .3-.3l-.4-.8c-.2-.3-.2-.4 0-.5l.4-.2c.1 0 .2 0 .2-.2 0-.3-2.3-1.4-3-1.5zm-16.7.2c-.4 0-.4.1-.5 2.3v2.5c.1.2.2.2.6 0 .3-.4.3-.5 0-.5-.8-.2.3-1 1.6-1.2.6 0 .7 0 .8.3.2.7.4.5.5-.3 0-.5 0-.8-.2-.8-.3 0-1-.9-1-1h.4c.4.4.9.3.9 0s-2.6-1.4-3.1-1.3zm19.9 0c-.3 0-.4 0-.1.2.3.2.5.2.5 0zm1.2 0-.1 2.6-.2 2.6.5-.5c.6-.6 1.2-.7 1.4-.3.1.2.3.3.4.2.2-.2.2-.3-.2-.5-.3-.3-.5-.3-1-.2-.7.2-.8.1-.6-.7 0-.5.2-.6.5-.7.5 0 1 0 1 .4h.4c.2 0 .4 0 .5.2 0 .4 1 .6 1 .3 0-.2 0-.3-.3-.3h-.1c0-.2 0-.5-.2-.7-.3-.6-.3-.7.3-.7.2 0 .4 0 .4-.2 0-.3-2.4-1.4-3-1.4zm-23.2.1c-.5 0-.6 0-.1.2s1 .2 1 0h-.9zm-60.3.2.1.2 1.3 1.7 1.6 2.2-1.6 1.8-1.4 1.5-.5.4.2-3.8.2-3.3v-.6zm58.2 0c-.3.1-.4.4-.3 2.4v2.5c.1.1.3 0 .4 0 .2-.4.2-.5.1-.6l-.2-1c-.1-.9-.1-1 .2-.9.2.1.5.3.8.3.6.2.6.4-.2.7-.6.3-.6.3-.1.2.4 0 .5 0 .6.4 0 .2.1.4.3.4 0 0 .1-.2 0-.4 0-.4.5-.6 1-.3.4.3.5.2.5-.3 0-.3-.1-.7-.5-1l-.5-.8s-.1-.3-.3-.3c-.2 0-.3 0-.4-.2 0-.2 0-.2 1.2.2h.5c0-.3-2.7-1.4-3.1-1.3zm28.3 0h.4zm2.1 0c-.5 0-.5 0-.7 1.6l-.2 3.5c.1 0 .4-.2.6-.5.5-.6.8-.7 1.3-.2.2.3.4.3.5.2.4-.3-.8-1-1.3-.7-.6.3-.8.1-.7-.6 0-.6.3-1 .7-1v.2h-.2l-.2.1-.1.2v.2l.3.1h.4l.3.4v-.9l-.3-.2c.2 0 .3 0 .5.3.2.2.5.3.6.2h.3c0 .2.2.4.5.5.5.2.6.2.6 0s0-.3-.2-.3l-.1-.3c0-.3-.9-1.3-1.1-1.3-.1 0-.2 0-.2-.2 0-.3.6-.2.7 0 0 .3 1.2.5 1.2.3 0-.3-2.7-1.5-3.2-1.6zm1.9.1.4.3c.5.4 1 .5 1 .2 0 0-.1-.2-.3-.2a5 5 0 0 1-.7-.2zm40 0 .1.2 2.7 5.8.2.7-1.4-.6c-1.4-.6-3-1-4.4-1.5l.3-.5 1.2-1.8zm-74.5.1c-.3.2-.3.2 0 .4.7.2 1 .2 1.1 0 0-.2-.1-.4-.3-.4zm14.8 0c.5.1 1.7 1.2 1.7 1.5 0 .2-.2.2-1-.3-.6-.3-.9-.5-.8-.8zm1.6 0 .3.3-.1.2c-.1 0-.2 0-.3-.2v-.2zm2.7.1c.2 0 1 .5 1 .7 0 .1-.4 0-.8-.3-.3 0-.4-.3-.2-.4zm-48.8.2v.2l-.1.3-.1 1-.3 3.3-.3 5.5 1-1 2-2.4 1.7-1.9-1.7-2.4-2-2.6zm27.8 0c-.2 0-.3.4-.3 2l.1 2.4c0 .3.2.5.3.5.2 0 .4-.3.2-.4l-.3-1c0-1 0-1 1.2-.6.4 0 .7.3.7.4h.3c.2 0 .4 0 .5.2l.3.2c.4 0 0-.9-.7-1.7l-.8-.9.8.1c.6.1.8.1.8 0-1-.6-2-1-3.1-1.2zm30 0 .8.8c.7.7.6.8-.4.3-.5-.2-.7-.5-.7-.7 0-.3.1-.4.3-.3zm9 0c-.4 0-.4 0-.6 1l-.2 2.5-.1 1.6.5-.6c.6-.6 1-.6 1.4-.2.2.2.5.3.7.2.5-.2-1-.9-1.6-.8-.5 0-.5 0-.5-.7 0-.5.1-.8.3-.8h.1l-.1.1-.1.2v.3h.2l.2.1h.2l.3.3v-.7l.2.2c0 .1.2.2.5.2h.5c0 .3 1 .8 1.2.7.1-.3 0-.6-.4-.6l-.2-.2c0-.3-.6-1.4-.9-1.4l-.2-.3c0-.4.1-.4.4 0 .4.4 1.5.8 1.5.5 0-.3-2.5-1.6-3.2-1.6zm-83.9.1v1.6l-.3 4.5-.1 1.5-1.4-1.8-1.6-2 .8-1 2-2zm3.7 0a75 75 0 0 1 2.6 3.6l.3.5c0 .2-.1.3-.3.5l-1 1.1v.1l-2 2.2.2-4 .2-3.8zm53.8 0c.3 0 1.6 1 1.6 1.2 0 .2-.1.2-1-.2s-1.1-.8-.6-1zm10.9 0c.6.3.6.4.3.6-.4.2-.7.2-.9 0-.2-.4.2-.7.6-.5zm1.8 0 .3.1c.3 0 .7.3 1 .5.3.3.5.5.4.6-.2.1-1.8-.7-1.8-1zm22.5 0v.1h.7zm-13.5.1c.2 0 .5.3.8.7.8 1 .7 1-.3.4-.5-.2-.7-.4-.7-.7 0-.2 0-.3.2-.4zm-36.4.1c-.6.2-.5.2.3.5.5.2.7.2.7 0s0-.4-.2-.4zm6.4 0 .3.3-.2.1c-.2 0-.3 0-.3-.2zm27.5 0 .4.3c0 .3-.5.4-.6.2-.3-.3-.2-.5.2-.4zm10.1 0c-.3 0-.4 0-.2.2.4.3.6.3.6 0zm-33.6.2h.4c.4.2.8.3 1 .6l.5.6c-.2.1-2-.7-2-1zm30.5 0 .8.7.5.8s-.4 0-.8-.3c-.5-.2-.7-.4-.6-.7 0-.3 0-.5.2-.4zm4.3 0-.2 1.8-.2 2.6v.6l.6-.5c.2 0 .3-.3.2-.4 0 0 .1-.2.3 0 .4 0 .6.2.9.8h.4l1-.4h-.3l-1.2-.6c-.2-.3-.4-.3-.8-.2l-.6.2c-.2 0 0-1.7.2-1.8.3-.2 1 .2.9.5 0 .5.4.5.7.2.2-.2.3 0 .5.1 0 .2.2.4.3.4l.6.3c.3.3.3.3.3 0 0-.2-.3-.7-.7-1.2-.7-.8-.7-1.3.2-.8.6.3.9.3.7 0a9 9 0 0 0-3.1-1.5zm-61.6.1-.1.2-.4.4zm14.8.1-.5.1c-.1.2 0 4 .1 4.6l.3.2v-.6c-.2-.4-.1-.6.2-.9.4-.4 1-.4 2 0 .7.3.7.3.7 0s-.3-.8-.7-1.2l-.8-.8h.7c1.2 0 1-.4-.6-1zm-28.3.1-.3 4-.2 3v.5h-.1l-2.6-3.8c0-.3.2-.4.4-.6l1.3-1.5zm4.5 0 .3.4 1.1 1.7 1.5 2-1.4 1.6-2 2.2.2-4 .3-3.3v-.5zm44.2.2.6.2c.2.2.2.3 0 .4-.5.3-.8.2-.8-.2 0-.2 0-.3.2-.4zm4.1 0h.2l.3.1c.3.2.3.3.1.4-.3.2-.5.2-.6 0zm-20.3.1c.2 0 .4.3.4.4 0 .2.3.5.7.7l.7.5v.2l-1.1-.4c-1-.3-1-.4-1.1-1 0-.4 0-.4.4-.4zm47.4 0-.2 1-.4 4.4c.2 0 .3 0 .3-.3 0-.2.1-.4.3-.5.1 0 .3-.2.3-.4 0-.4.5-.3.8.2.2.2.3.3.4.2l.6.1c.3.3.5.3.8.1.6-.3.5-.4-.4-.5-.5 0-1-.2-1.2-.4-.2-.2-.5-.2-1-.2-.9.1-.6-.2.6-.6.8-.2 1-.2 1.5.1l.7.5c.2.3.4.2.5 0 0-.3-.2-.6-.3-.6-.5-.2-1.4-1.8-1-1.7l.6.3c.5.3 1 .4 1 .2 0-.3-2.4-1.5-3.3-1.7zm-54.4.1c-.3.1-.3.2.3.4 1 .4 1.3.4 1.3 0l-.6-.3h-1zm18.9 0 .6.1c.5.2.5.4-.1.6-.7.3-.7.3-.7-.3 0-.2 0-.4.2-.4zm17.5 0 .1.3h-.3c-.1 0-.2 0-.1-.2h.3zm-48.3.1v1.1l-.1 1.7-.5.3-.9.5-.3.1-.6.3-.6.3-.2-.3v-.3l1.5-1.8 1.4-1.5zm52.5.1.1.1.2.2h-.4l.1-.2zm9.4 0h.1c.2 0 1.1.7 1.1 1 0 .2-.2.2-.9-.2s-.7-.6-.3-.8zm1.5 0 .1.1.2.2-.2.1c-.1 0-.2 0-.2-.2zm-22.9.1c.4 0 .5.4.1.6-.7.3-1.4.3-1.4 0 0-.2.8-.6 1.3-.6zm-29.8.1c-.6 0-.6.3-.3 3l.3 2 .2-.4c-.2-.3 1.8-1 2.3-1 .4.2.5.2.5-.2l-.1-.6-.1-1v-.8l-1.2-.5zm55.9.2.6.6c.6.7.6.8-.3.4-.4-.2-.6-.4-.5-.6 0-.3 0-.4.2-.4zm4.9.4c-.6 0-.6.2-1 3l-.3 1.8v.3c.2 0 .3 0 .3-.2l.5-.7c.4-.4.5-.5.8-.2l.6.2.5.1c.3.2.3.2-.2.4a2 2 0 0 1-.6.1c-.1 0-.4 0-.8.3l-.6.2h.7l1.4-.3c.9-.2 1 0 .2.2l-.5.2h.5c.8.1.8.5 0 .5-.3 0-.6-.2-.6-.3h-.5c-.3 0-.2.1.5.3 1.3.4 1.6.4 1.7.1l.2-1.2c.1-.8.1-.9-.2-.6-.3.2-.4.1-.3-.3h-.5c.1-.3.1-.3-.2 0-.5 0-1 0-1-.4 0 0-.3-.2-.7 0l-.6-.2c0-.2.1-.2.3-.2l1-.2c.6-.2.7-.2 1.2 0l.7.6c.3.5.6.4.6 0s-.2-.6-.5-.6-.4-.2-.4-.4l-.4-.8c-.5-.6-.3-.7.6-.2.8.5 1 .5 1 .3a12 12 0 0 0-3.4-1.8zm-62.9.2c-1 0-1 0-.3.4 1 .3 1.3.3 1.3 0 0-.2-.2-.3-1-.4zm3.2 0c.2 0 .3.1.2.2l-.2.2-.2-.2s0-.2.2-.2zm3 .1c.6.2 1.6.6 1.8 1 .3.1.3.2 0 .1l-1.8-.6c-.3-.2-.4-.3-.3-.4h.3zm56.3.2h.1c.3 0 .5.3.8.7l.3.6-.6-.3c-.4-.2-.6-.4-.6-.7zm-64.6.1c-.2.2 0 3.8.3 4.5 0 .2.2.1.2-.2 0-.4.3-.5.8-.6h1.4c.5 0 .6 0 .6-.5 0-.2-.1-.5-.3-.6-.5-.3-.5-.6-.1-.6s.4-.9 0-1c-.6-.5-1.8-.8-2.5-.9zm29.9 0c-.3 0-.3 0 0 .2.3.3.5.3.4 0zm-4.2.1c-.3 0-.3 0 0 .3.3.2.3.2.3 0 0 0-.1-.2-.3-.2zm47 0 1 .5c2 .3 3.9.3 5.8.1a78 78 0 0 0-6.8-.6zm-51.1.2c-.1 0-.2.1-.1.2l.2.2v-.2zm38.5 0c.2 0 .3.2.5.3.2.3.2.4-.2.6-.5.4-.8.3-.7-.3v-.4c0-.2.2-.2.4-.2zm45.2 0h.7l3.7.3.9 2-.5.7-1.4 2-.4.5-.3-.5-1.2-2.2zm-106.5.2.2.1h.2-.3zm127.5 0h.5v.1h-.1v.7l.4.8.4 1-1.2-2.5zm-56.8.1-.3.1-.5 2.6c-.5 2.7-.5 2.7 1 2.6.7 0 .8 0 .3.2l-.5.2.8.3c1 .3 2 .4 2 0 0 0-.2-.2-1-.2h-.7c0-.3.3-.3.8-.3h1l.2-1.4c.2-1 .2-1.2-.1-1.3-.3 0-.8-.8-1-1.6l.6.3c.8.5 1 .5 1 .3 0-.4-2-1.4-3.2-1.7h-.4zm59.7 0 5.2.5-4-.3h-1.1zm-131.8.3v.2l.6.3c.6.2 1.2.2 1.2 0l-.6-.2zm3 0c.1 0 .2 0 .2.2l-.2.2-.2-.2s0-.2.2-.2zm1.6 0c.3 0 .7.2.8.3 0 .1-.2.2-.6.2-.4 0-.7-.2-.8-.3h.6zm2.3 0c.2 0 1.8.4 2 .6.3.5 0 .5-1 0-1-.2-1.4-.5-1-.6zm22.9 0-.7.2-.6.2h1.3zm4 0-.7.2-.6.2h.7c.4 0 .8 0 .9-.2 0-.2 0-.2-.2-.2zm4.4 0c-.2 0-.4 0-.6.2l-.8.3h.8c.8 0 1-.2.9-.5zm-12.5.1-.7.2-.6.3h.6c.6-.2.8-.3.7-.4zm16.9 0-1.2.4-.6.2h.7c.3 0 .6 0 .6-.2h.4c.2 0 .4 0 .4-.2 0 0-.1-.2-.3-.2zm24.5 0c.3 0 .6.2.6.5s-.6 1-.6.8zm5 0 .6.5c.2.4.3.5 0 .5s-1-.4-.8-.7c0-.2 0-.3.2-.3zm57.8 0 .7.1 2.5.2 3 .3-1.6 2.5-1.8 2.6-.3-.6-2.2-4.4-.3-.6zm-151.1.2-.1.2-.1.2v.1l-.1-.2zm68.4 0-1 .3c-.8.3-1 .3-.5.4.3 0 .6 0 .7-.2h.5l.4-.3zm-48.2.1c-.4.2-.3 1 0 3.4l.4 1.2.5-.3c-.4 0-.7-.8-.5-1 0 0 .6 0 1 .3.7.1 1.3.3 1.5.2.4 0 .4-.6 0-1-.2-.3-.2-.4 0-.4 0 0 .2 0 .2-.3 0-.2-.2-.3-.7-.3-.4 0-.8-.2-1.1-.6l-.5-.5.6.2 1 .2h.5l-1-.5-1.2-.4a.9.9 0 0 0-.7 0zm22.5 0-.4.2c-.2 0-.2.2-.1.2 0 0 .3 0 .5-.2 0 0 .1 0 0-.2zm30 .2c-.2.1-.2.2 0 .3.3.3.3.3.3 0v-.2h-.3zm29.8 0c-2.8 0-3 0-.6.5.7 0 1.3.2 1.3.3 0 .1 0 .2.3.2h.4l.8-.3c.5 0 .8 0 .8-.2 0-.3-.4-.3-3-.5zm55.6 0-.4 1.4c-1 2-2 4-3.3 6l-.7-1.4.2.1h.2l.2-.3 1.8-2.8zm-133.4.3 1 .5c.7.5.6.6-.6.3-.6 0-1-.3-1-.5s.3-.3.7-.2zm13.9 0c-.2 0-.3.1-.3.2h.4v-.2zm33.3 0a4 4 0 0 0-.8.3c-.3.2-.3.2 0 .2l.8-.3.5-.2zm-53.2.3c-.2 0-.5 0-.6.5-.1.3 0 .4.3.5l.8.2c.3 0 .3 0 0-.3l-.5-.7zm10.4 0 .6.2-.8.3c-.8.4-.8.4-1 0 0-.4.3-.6 1.2-.4zm48.4 0-1.2.3c-.6.2-.8.3-.5.3h.5c0-.2.4-.3.8-.4.3 0 .5 0 .4-.2zm20.4 0c-.2.2-1 4-1 4.7 0 .4 0 .4.2 0 .4-.9.8-1 1.4-1 .4.1.7 0 .3-.3-.3-.3 0-.9.4-1 .3-.2.5-.2.5 0s.3.3.5.4c.2 0 .3 0 .3.2h-.3c-.2 0-.2 0 0 .2 0 .3 0 .3-.3.2-.3 0-.4 0-.3.2 0 .2 0 .3-.2.3l-.3.1.3.2c.2 0 .3.1.3.3l-.8.1c-.4 0-.8 0-1 .2l-.4.3c-.4.1-.3.2.3.2s.7.1.4.2c-.3.1-.3.1.2.4.8.3 2.3.4 2.4 0 0 0-.2-.2-1 0-1.1 0-1-.4.2-.7.8 0 1-.2 1-.7l.4-1c0-.6 0-.7-.3-.9-.4-.2-1.2-1.4-1-1.4.4 0 1.3.7 1.2 1 0 .3 0 .3.2 0 .3-.4.3-.4-.7-1-.8-.6-2-1-2.5-1.2zm-77.6.1.3.2.2.4c0 .2-.3.2-.4 0l-.1-.4zm73 0c.2 0 .3.3 0 .5v.4c-.3 0-.5-.7-.2-.8h.2zm4.9.2c0 .1.3.2.4.5.3.3.3.4 0 .3-.3 0-.6-.2-.6-.5 0-.2 0-.2.2-.2zm-112.3.2.5.6c.9 1 1.7 2.2 2.5 3.3l.2.4h-1c-1.8 0-3.5-.2-5.3-.3h-.6c1-1.2 2-2.4 3.2-3.5zm31.5 0c-.2.1-.1.2 0 .2zm0 .2h.3s-.2-.2-.3 0zm64.8 0h-.5l-1.2.3-.6.3h.6l1.2-.5zm-65.3.1-.4.1c-.4.3-.4.3 0 2.2l.6 2.6v-.5c-.2-.8-.1-.9.4-.8.4 0 .5 0 .4.4-.1.5 0 .5.2.3.2 0 .4-.2.4-.3l.4-.2c.7 0 1-.2.9-.6l-.1-.5s-.1-.2-.3-.2c-.5 0-.8-.4-.8-1 0-.3 0-.4.5-.3.4.1.5.1.4 0 0-.2-.6-.5-1.2-.6l-1.3-.5s0-.1-.2 0zm87 0 .6.4c.8.3 1.3.4 1.2 0 0 0-.4-.2-1-.2zm-65.7.2.5.3-.4.2c-.3 0-.5 0-.5-.2l.4-.2zm25.5 0c11.9.5 23.6 2.6 34.9 6.2a59 59 0 0 1 5.8 2.4h.2v.1l.4.1.7.4 3.5 1.7.5.2h.2v.2l.3.1.5.4 1.7 1c3.8 2.1 7.5 4.6 11 7.3l.3.3.5.4 3 2.4h.3l.2.1c.2.1.2.2.2.3l.3.3.4.5c1.2 1 2.4 2.1 3.7 3v.1l.3.2c0 .2.2.3.4.5l3.3 3h.3v.1l.3.3c1.3 1.4 2.7 2.8 4.2 4v.1l.2.3.2.2.4.5 3.3 3 .2.2h.2v.1l.2.2c-2.6 3-5.7 6-9.2 9h17.7l.2.2h.3v.1l-23.5 33.3h1l-12.5 10.3-.1.2-14.2 11.7a15 15 0 0 0-13.3-8h-7.4c-4 0-7.5 1.6-10.3 4.3a15.2 15.2 0 0 0-8.8-4.2v-10.4l.9-.3c11-4.2 29.8-2.6 43 2.5 6 2.2 9.7-.3 11-2.2 0-.2-.1-.5.2-.5 1 0 2 0 2.8-.4.8-.5 2-3.4 2.3-5 0-.7.2-.9 0-1.4-.1-.5-.3-.6-.7-1a14 14 0 0 0-4.6-2l-.3-.7c-.4-.5-2.8-2.3-3.6-2.7-3.2-2-5.7-6.8-5.7-6.8s1.2-7.3-.5-10.7a79.7 79.7 0 0 0-12.2-15.5s4-1 4.2-3.6c.2-2.7-.7-4-3.4-4.4-2.8-.5-6.4 4-6.4 4s3.3-4 2.3-5.9c-1.2-2.2-5-3.3-7.5-2.3-1.7.7-1.1 5.7-1.1 5.7s-21.8-12.6-35.3-13.6c-16.6-1.3-29.4 6.6-46 4.5h-.7l.4-.5 1.4-1.2v-.2l.2-.2.4-.3a46 46 0 0 1 4.4-3.9 70 70 0 0 1 7.4-5.8c1.8-1.3 3.7-2.4 5.6-3.5 8.6-5 18.3-7.8 28.3-8.4 3.8-.3 7.6-.4 11.2-.4zm21.6 0-1 .3c-.4.2-.6.3-.4.3a8 8 0 0 1 1-.2l.6-.2c0-.2 0-.2-.2-.2zm9.4 0 .6.3c.3.1.6.4.7.6.2.2.2.3-.2.1h-1c-.1.3-.1.4.2.6l.5.2-.5.2c-.2.1-.6.2-.8.1h-.3l-.5.4c-.8.3-1 .2-1-.2 0-.5 1-1.2 1.5-1h.4c0-.2-.1-.3-.2-.3-.3 0-.2-.3.2-.7l.4-.2zm-13 .2c-.4 0-.4 0-.2.2.4.2.6.2.6 0zm4.9 0-1.2.5-1.1.4h1.5l-.6.2h.7c.7.2 1.2-.2.6-.5-.3 0-.3-.2 0-.2h.4c0-.3 0-.3-.3-.3zm72.1 0s.2.6.2 1.3l.2 2.1v.4l-.8.7v-4.2zm-65.2.1v.1h.6l-.4.2c-.7.2-.7.2-.7 0zm4.5 0v.2l-.1.2s-.2 0-.1-.2c0 0 0-.2.2-.2zm-99.2 0 3.2 4.3h-3.4l-2.8-.3h-.7l.3-.4zm40.7.1h.4c.2.1 0 .1-.2.1h-.2zm-22 .1.4.2.2.4h-.5c-.2-.3-.2-.4-.1-.5zm3.7 0c.7 0 1.7.6 1.6 1h-.4c-1.7-.2-2.8-1-1.2-1zm22.2 0c.2 0 .4.2.6.4 0 .2 0 .2.2.3a62 62 0 0 0-16.2 5l.4-.3-.7-.8c-.7-.7-.7-.7-.3-.7.3 0 .6.2.7.4.2.3.2.3.2 0s.2-.4.9-.3c.6 0 .8.1.8.3 0 .2 0 .3.3.3.2 0 .3 0 .3-.3 0-.2 0-.2.3-.2h.7c.3-.3.3-.3 0-.6-.2-.2-.2-.8 0-.6h.2c0-.4 2-.3 2.2 0 0 .2.3.2.9 0 .4-.3.7-.5.6-.6v-.5c0-.3.2-.3 1-.3.7 0 1 .2 1.2.3 0 .3 1.3 0 1.3-.5 0-.4.4-.8.7-.8.2 0 .3.2.3.4v.4c.2 0 .3 0 .3-.3s.2-.4.6-.4l.6.2c0 .4 1.6-.2 1.6-.5 0-.2 0-.3.3-.3zm-28.1.1-.3.1-.2.4v.4h.8s.3-.2.3-.4l-.2-.3h-.4zm112.8 0 1 1.8 1.3 2.6-.1.3-.5 1c-.5.6-.8 1-1 1h-.3l-.6-.6v-.2l-.1-.4v-3zm-25.5.1-.6 2.5c-.7 2.7-.7 2.8.3 3 .4 0 .5 0 .3.1-.2 0-.1.2.3.3.8.4 2.5.5 2.5.1 0-.2-.2-.3-.8-.3l-1-.2 1-.2c1-.3 1.2-.3 1.4-1 0-.4.2-.9.3-1 0-.4 0-.6-.3-.7-.4 0-1-.6-1-.9 0-.3.7-.2.9.2.2.5.7.6.7.2 0-.4-2.4-1.7-3.4-2zm-127.3.1 1.2 1.7.4.5v.1h-2.4l.9-2-.1-.2zm58.9 0c.5 0 .7.2.7.4s-1 .3-1.2 0c-.3-.3-.1-.4.5-.4zm63.7 0 .2.3v.2l-.3-.2v-.2zm-83.3.1s-.2 0-.3.2l-.4.2.3.1c.3 0 .4 0 .4-.2v-.2zm2 0s.4.1.7.5c.4.4.7.7.6.8-.1.2.5.6.8.5 0 0 .3 0 .4.2.3.5.2.5-1 .2-1.2-.4-1.5-.5-1-.8-.3 0-.6-1-.5-1.4zm20.9.1.3.2-.1.2-.4-.2c-.1 0 0-.2.2-.2zm65.4 0 .3.2.2.3h-.3a.3.3 0 0 1-.2-.3zm-67.2.1.4.2c0 .1 0 .2-.2.2l-.4-.2s0-.2.2-.2zm59.8 0 .4.2-.1.2c-.1 0-.2 0-.3-.2zm53.9.2-.3 4.6-.1 5v.5h.3l-.5.4c0-1.5.3-8.3.6-10.5zm-13.3.1v1.6l-.3 5-.1 1.4-1-1.7-1.2-2.4 1.5-2.3zm13.8.1 1 2 1.4 2.7-1.5 2.3-1.2 1.7v-4.2zm-137 .2c-.3.3 0 1 1 1.8.6.4.9.8.8.8 0 .1 0 .2.3.2l.6.3c.2.4.6.4.7 0l-.5-.6c-.6-.3-.6-.3-.2-.4.3 0 .4 0 .4-.4 0-.7-.2-1-1.3-1.2l-1.3-.5h-.2zm17.2 0 1 .3c.3.3.3.3 0 .4-.7.2-1.6 0-1.6-.5 0-.2.3-.2.6-.2zm120.5.2.6 1c1.4 2.7 1.7 3.3 2 3.3.3 0 .5 0 .5.2s-1.5 2.4-2.7 4l-1.6 1 .3-.3.3-.6 1.2-1.7.3-.4 1.4-2.2-1.6-3zm-48 .4h.2l.2.3h-.4zm55.3 0-.1 1.6v1.3l-2.3 1.8-.1-.4v-.3l1.4-2.4zm-144 .1.6.4c.6.7.3.7-.3.2-.3-.3-.4-.5-.3-.6zm22.3.1v.3c0 .2.2.2.3 0 0-.2-.1-.4-.3-.3zm-24.3.1c-.2 0-.4 0-.7.3l-.2.1v.1c-.1 0-.2.2 0 .3v.2h1c.2 0 .3-.3.3-.5v-.3l-.3-.2zm14 .2c.6.2 1.6.6 1.5.7-.1.4-1.1.3-1.6 0l-.3-.6h.4zm78.4 0c.3 0 .4.8.2 1-.2.2-.2.3 0 .3 0 0 .2.1 0 .3 0 .2.3.3.6.3s.5.1.5.2-.6.2-1.2.1c-1 0-1.2 0-1.6.4-.7.7-1.2.6-1 0l.2-.9c0-.3 1-.5 1.2-.3l.4.2c.2-.2 0-.5-.4-.6-.1 0 0-.2.4-.5zm3.2 0a33 33 0 0 0-1.4 5l.5.3c.3 0 .6.3.8.5.3.3 2.6.5 2.8.2.2-.3 0-.7-.3-.4-.3.2-1 .2-1.2 0 0 0 .3-.3.9-.4.8-.2 1-.2 1.2-.9.5-1.7.5-1.6-.2-2-.4-.2-.7-.5-.6-.6 0-.2.2 0 .7.3.5.5.7.5.8.2l-.6-.6c-1-.7-3.2-1.7-3.4-1.5zm11.2 0v.3c.3.5.9.6.8.1l-.4-.4zm-91 .2h1.2c1 0 1.5.1 1.5.4 0 .3-.6.2-1.7 0zm5 .5-.3.4c0 .3 0 .4.6.2s.7-.4.5-.6h-.4a1 1 0 0 0-.3 0zm86.2 0-.3.1-.1.3v.3l.3.1.4.1h.5v-.5l-.2-.2a1 1 0 0 0-.6-.2zm-109.3.2-.2.2c-.2.2-.1.4.4 1 .7.7.7.8.5 1-.3.2-.3.3-.2 1 .2.4.3.6.7.7h1c.3-.3.2-.3-.3-.4-1-.3-1-.5-.2-.4l.8.2c.2.4.7 0 .7-.5 0-.3-.2-.5-.5-.6.3 0 .4-.2.5-.3l-.2-.4-.3-.2-.7-.2h-.3l-.1.3v.3l-1-.8h.4c.8.2 2 .4 2 .2s-.4-.3-2-.6a3 3 0 0 1-1-.4zm111.3 0c-.4 0-.6.4-.2.6.4.2.5.1.5-.2 0-.3 0-.4-.3-.4zm-97.3.6h1c1.5 0 2.3.3 2.2.7 0 .2-.2.2-1.8 0-1.5-.5-2-.7-1.4-.7zm-2.8.2s.2 0 .3.2l.4.4-.4.1c-.3 0-.4 0-.4-.4v-.2zm93.8 0c-.6 0-.6.1-.4.2.3.2.8.3 1 .3l.2.2c-.2.3.5.5.7.2.3-.3 1-.3 1 0 0 .2.3.2.6 0 .5-.2 3.7 0 3.7.2s.4.1.8 0c.3-.3.4-.3.6 0 .2.1.2.2-.2.7-.4.5-.4.5 0 .5.5 0 .8-.9.5-1.5-.2-.4-.3-.4-4.8-.6zm-92.7 0c.7 0 2.5.6 2.5.7l-1 .1c-.6 0-1 0-1.3-.4-.4-.3-.4-.4-.2-.4zm-48.1.2 2.7.1h.4l-1.7 2-2 2-.4-.6h-.2l1.2-3.4zm34.3 0-.1.1-1.3 1-1 .5.4.6 1.3 1.2.9 1h-.5l.4.2h1l-1-1.1.8.4s.2.1.4 0l.2-.3c0-.3-.1-.6-.3-.8-.2-.2-.5-.3-.8-.3h-1.3l.9.8-1.2-1c0-.3.6 0 1.8.1.5.2.5.2.3-.6-.2-.5-.3-.6-.8-.6-.8 0-1-.3-.3-.9l.2-.2v.1l-.1.2c0 .1-.1.3 0 .4 0 .2.2.3.4.3 0 0 .3 0 .4-.2v-.7h-.2l-.2-.2zm100.9 0c.2 0 .2 0 .3.4 0 1 .3 1.3.9 1.5h-.8c-.8 0-1.3 0-1.5.2-.2.3-.1.3.4.4l.6.1-.7.2c-2 .4-2 .4-1.8 0 0-.4 0-.7.2-.7v-.3l.2-.6c.3-.4.7-.3 1.2.2.3.3.3.3.3 0 0 0 0-.3-.3-.5s-.3-.2 0-.4zm-95.3.3c-.1 0 0 .2.2.3l1 .1c.9.1.6-.2-.5-.4zm98.7 0-.2.5a30 30 0 0 0-1.5 4.8l.5.2c.2 0 .5.2.6.4.2.2.7.3 1.7.4h1.4s0-.3.2-.4c0-.3 0-.3-1-.3h-1l1-.2c1.4-.4 1.4-.5.4-.6-.8 0-2 0-3.2.3-.4.1-.4-.2 0-1l.2-.7c-.1-.4.2-.9.6-.8.2 0 .7-.2 1-.5l.7-.4v.4l.2.6c.2.3.5.7.8.8.2 0-.1.1-.8 0h-1c.2-.3-.1-.8-.3-.7v.7c0 .6 0 .6 1.3.7.7 0 1.2.1 1.2.2v.2a8 8 0 0 0 1-2.3l-2-1zm-129.7.3 5.7.4h.7l-.3.3-1.4 1.6-1.4 1.5-.5.6-.5-.5zm46.1.1v.2c0 .2.2.2.3.1.2 0 .2 0 0-.3zm126.4.1a7 7 0 0 0-.3.5v.2l-.1.1v.3l-.1-.3zm-136.2.1c.5 0 1 .2 1.4.3.3.1.4.1.4 0h.9c.6 0 1 .1 1.4.5.5.5.6.6.3.6-.4 0-.4 0 0 .3v.3l.4.3c.4.2.5.2 1 0 .8-.5.8-.8.2-.9-.5 0-1.5-.7-1.5-1h.5c.3 0 .5 0 .6.4l.2.4v-.4c0-.2 0-.3.3-.4l-.2.3c0 .2.2.4.3.4h.6l.2-.4-.1-.3c.6 0 .8.1.7.4-.1.2 0 .4 0 .4.2 0 .3 0 .3-.3s0-.4.3-.4c0 0 .3 0 .3.2h.5a62 62 0 0 0-4.7 2.5l.2-.5-.1-.2h-.3l-.1.5c0 .3 0 .4.3.2a62 62 0 0 0-6.5 4.3c.1-.1 0-.2 0-.4H14614.5v.2c-.1.4 0 .4.1.4-.8.6-1.6 1.2-2.4 2l-.3.1-2 1.6-1.1 1-4.4 3.8-.4.4-.1.1v.2h-.1l-.4.3-1 1-.5.4h-.1l.8-.8 1.4-1.4c.2-.4 0-1-.5-1.8a3 3 0 0 1-.4-.7h1.1l-.4.1c-.2.1-.2.3-.2.4l.2.4.3.8.8-.7h.1v.2l-.4.8 1.8-1.5c1.5-1.3 2-2 2-2.2 0-.2-.1-.2-.2.1 0 .2-.2.6-.4.7-.4.3-.5.3-.7 0-.2 0-.3-.3-.3-.4l-.3-.6c-.4-.4-.4-.5-.2-.8.2-.2.2-.2-.1-.3a1 1 0 0 1-.6-.3c-.2-.2-.1-.3.5-.3 1.6.1-.3-.3-2.4-.5-2 0-2.1-.2-2-.4.6-.5 1.5-1 1.8-.9.5 0 .3.3-.2.5l-.5.3 1.4.2c.8.2 1.2.1 1.2 0 0-.2.2-.5.5-.6l-.1.2c0 .2 0 .5.3.7l.8.4.8.1h.2l.2-.2v-.2l-.2-.2-.5-.4c.7.4 1.5 1 1.5 1.2l-.4.2c-.1 0-.2 0-.1.1l-.8.3h.2c1 .2 1 .2 1 .6v.5l.5-.3c.4-.2.6-.5.7-.7 0 0 0-.3.2-.2l.4-.2s0-.2-.1 0c-.2 0-.4-.4-.6-.9l.3.2h.3l.3-.3.2-.2v-.6h-.7v-.2c-.1 0-.3 0-.4.2l-.1.3v.4c-.3-.9-.5-1-1-1.3-.8-.3-.6-.6.5-.6 1.7.1.2-.3-2.2-.6-2.4-.2-2.4-.3-1.2-1h.4c.2 0 0 .2-.2.4-.4.3-.4.3.8.3l1.5.2c.2.2.3.1.2 0-.2-.6.3-1 .9-1 .3.1 1.6 1 2.4 1.8.2.1-.2.6-.7.7-.2 0-.1.1.2.2.5 0 .5 0 .5.5v.5l.6-.6c.4-.4.8-.7 1-.7 0 0 .2 0 .3-.2h-.1c-.2 0-.5-.4-.7-1l.2.2h.3s.3 0 .4-.2l.6-.4v-.4c.5 0 .8 0 .8.3s0 .2.6-.2c.2-.3.5-.5.6-.5l.9-.6-.2-.3c0-.2 0-.2-.2 0l-.5.2-.2-.4.2.2h.5l.3-.3.2-.3v-.2h-1.3l-.1.2v-.4s-.1-.2-.4-.2c-.3 0-.3 0-.2.3l.2.6c0 .6 0 .6-.8 0-.6-.5-.7-.7-.4-.7.3 0 .3-.2 0-.4-.4-.4-.8-.5-.8-.2 0 .4-.7.4-1 0l.2-.4c.2-.3.5-.3 1.7 0 1 .2 1.7.3 2 .2.8-.2.8-.2-.3-.4l-2-.3-.8-.2.4-.4.5-.3.2.4c.4.5.9.6.8.1 0-.2 0-.3.5-.3.6 0 .7-.3.3-.5h.1c.3 0 .5.1.5.3 0 .2.4.6.8 1 .7.4.9.8.5.8 0 0-.1.2 0 .4l-.2.6c-.1 0-.3.3-.3.5v.3l1.8-1.3h.3c.4 0 .5-.4.2-.8-.2 0-.2-.3-.3-.5l.2.2h.7l.2-.4v-.2h-1l-.2.1v.2l-.1-.2c0-.2-.2-.4-.3-.4v.3c0 .3.2.6 0 .8 0 .2-.1.1-.6-.4-.4-.4-.7-.7-.6-.8.2-.2-.3-.6-.7-.6a1 1 0 0 1-.7-.4c-.2-.3-.2-.3.5 0l2.4.2c2 .2 1.3 0-1.2-.5l-2-.5c-.1-.1.3-.2.8-.2zm.6 5.4-.2.1.2-.1zm104-5.2-.2.1-.2.2v.6c0 .2 0 .3.2.3l.8.1 1.8.1-1.5-1-.5-.2zm-109.8.1-.4.2c0 .2.5.2.7 0h-.3zm106.6 0-1 .2c-.1 0-.2 0-.3.2l-.1.1v.3l.3.1h1.3c.2 0 .4 0 .5-.3v-.2s0-.3-.2-.3h-.3zm-125.6.3 3.6.2 3.6.2-.3.3-3.1 3.4-.3.3-.5-.5-1.3-1.8zm128.9.2.2.2h-.2zm9.8.1.8 1.5 1.5 2.7-1-1.6zm-18.4.4.4.3c.3.4.2.4-.3 0-.2 0-.2-.3-.1-.3zm-5.3.1.4.2c0 .3 0 .3-.4 0-.3-.2-.2-.2 0-.2zm-132.1.1v1.3l-.3 4.3-.1 1.5-1.2-1.6-1.5-2v-.2l.5-.5 1.3-1.4zm26.9.1-.7.5-.6.6h.6c.5 0 .6 0 .7-.5zm.4 0-.2.2-.1.4v.4l.4.3.4-.2v-.4c0-.2 0-.4-.2-.6h-.3zm114.2 0c-.5 0-.7 0-.5.1.2.2.9.3 1.6.4l1.4.2h2.4c.7 0 1.3 0 1.3-.2 0 0-1.5-.3-3.5-.4zm-138.4.1 1.9 2.5 1.2 1.6-1 1-1.6 1.8-1 1 .3-3.9zm37.6.3-.5.1-.2.2v.3c0 .2.3.3.4.3l.4.1h.5l.2-.2v-.4l-.4-.2h-.4zm113.5 0 .4.7.6 1.5-1.2-.9-.5-.3.4-.6zm-141.8.2-.1 1.6-.2 4.5-.2 1.5-1.3-1.7c-.6-.7-1-1.5-1.5-2.3l.7-.8 1.3-1.4zm18.6 0h.2v.1zm118.6.1s.3.1.3.4c0 .2 0 .4-.2.6-.3.3-.3.2-.3-.3l.2-.6zm26.4 0 .2.4h-.5zm-36.7.1h.1zm0 0-1.9 5 .4.2s.4 0 .6.2c.2.2.9.3 2 .4 1.6 0 1.7 0 1.7-.4-.1-.7-1.3-1-3-.8l-1.2.2.2-.7c0-.3.2-.8.4-1 .2 0 .2-.3.2-.3-.3-.3.2-1 .8-1 .3 0 .7-.2 1-.4.2-.2.3-.2.4.1v.5l.4.6.4.4h-.6c-.4 0-.8-.3-1-.4-.4-.5-.6-.3-.4.4.2.3.5.4 1 .5a4 4 0 0 0-.8 0c-.2 0-.5 0-.6.3-.1 0-.2 0-.3.2v.4l.3.1h.5l.8-.2 1.5-.2v-.5h-.6c1.3 0 1.6-.2 1.8-1 0-.3-.3-.5-2-1.6-1.1-.7-1.7-1-2-1zm-123.3.3.2.2 1.2 1.6 1.5 2-.5.7-2 1.7-.8.7.2-3.5.2-3zm9.4 0-.3.2-.4.4.7.8.7 1c0 .2.2.3.4.3.3 0 .7.2.8.4.3.3.5.3.7.2.2-.2.2-.2-.1-.5l-.4-.4c.2.2.4.4.6.4h.5v-1l-.2-.3h-1.3l.4-.2c1 0 .7-.4-.8-.6-1-.2-1.3-.3-1.3-.5zm10.8.3c.2 0 .3.2.2.4l-.3.2c-.1 0-.2 0-.2-.3l.3-.2zm110.2 0-1.4.4-.2.1v.5h.4l.8.2h1.6l.2-.4v-.7h-.7zm6.3.1 1 .7 1.6 1.2.4.1h.3v-.4l-.1-.5-.3-.7.4.8c1 2 2 3.3 2 3.3l.8.4c.3.2.2.2-1.4.1-2.2 0-3.1-.3-3-.5h.7l.9.2h2.2l-1.8-1.2-1.2-.9-.5.8c.2-.4.3-.7.1-1-.1-.5-.3-.5-1.7-.6-.8 0-1.5 0-1.5-.2zm-21.4.3-.1.2v.3l.2.1.2.1.3.1.2.1h.2v-.7h-.1a1 1 0 0 0-.4-.2zm12.8 0c-.1 0-.2 0-.2.2l.3.2s.2 0 .2-.2c0 0-.1-.2-.3-.2zm-110.3.1s.2.1 0 .2l-.2.2c-.1 0-.2 0-.2-.2zm-4.5.4v.3c.5.3 1 .3 1 .1.3-.2-1-.5-1-.4zm7.5.1-.1.2c-.1 0-.2.2-.1.4 0 .2.2.5.6.6h.5c.2.1.2.1.4 0l.2-.2v-.2l-.7-.6 1 .6.8.8c0 .2-1.2 0-2-.2l-2.8-.5c-2-.4-2.1-.4-1.8-.7h.6c.3.3 1.6.4 1.9 0 .2 0 .3 0 .4.2 0 .2.3.4.4.4v-.3c-.4-.4-.2-.5.7-.5zm-12.5.2c-.3 0-.6.1-1 .4l-.6.5.2-.2c.8-.8.7-.8-.3 0l-1 1 .3.5 1.5 1.3c1 1 1.4 1 1.4.7 0 0-.5-.6-1.1-1l-1-.8 1.3 1 .9.6h.4c.2-.2.2-.3.2-.5 0-.3-.2-.6-.5-.8-.2-.2-.6-.4-1-.4h.9c0-.2-.5-.4-2-.6l-1-.2.4-.3 1.3.1h.6s.2 0 .3-.2v-.7l-.2-.3zm3.4.4h.3v.3zm118.8 0c-.8 0-1 0-.8.2.3.3 1.9.4 1.9.1 0 0-.5-.2-1.1-.2zm-122.4.2v.2h-.3zm8.5.2c.3 0 .2.3-.1.4-.6.2-.8 0-.4-.2zm2 .3c.3 0 .7 0 .8.2.2.2 0 .2-.5.2-.4 0-.8-.2-.8-.3zm109.6.1c-.2.2-2.2 4.8-2.1 5l.3.2.6.3.7.2h-.7l1.6 1.2.6.5.5.1c.2 0 .4 0 .5-.2l.2-.5.5-.9h-1.6c.8 0 1.5-.3 1.6-.5 0-.3 0-.4-.4-.4-.2 0-.4 0-.4.2 0 0-.2.2-.5.1h-.5l.4-.2.5-.3h-.5l-1.6-.2h-1l.7-.8.8-.8h1.8c2.4.2 2.4 0 0-1.7-1-.7-1.7-1.2-2-1.2zm-113.6.2.3.2c0 .1 0 .2-.2.2-.3 0-.4-.2-.4-.2s.1-.2.3-.2zm104 .1 1.3.8.7.4c.2 0 .3 0 .4-.2v-.3c0-.2 0-.4-.2-.5h-.6zm-101.2.6-.2.3c0 .3.1.6.3.8l.9.2 1.4.1-1-.9-.8-.5a1 1 0 0 0-.4 0zm1.7 0h.8c.6.1.7.2 1 .8.2.8-.1.8-1 0zm2 0 1 .1c-.4.1-.5.1-.7.3l-.2.3zm-16.1.1-1.3 1-1.3 1.1.3.5 1.4 1.4.1.1-.3-.2h-.4l-.2.2v.2l.5.4h.3c.1 0 .3 0 .3-.3v-.2l.9.6c.6 0 .4-.3-.6-1l-1.1-1h2.3c0-.2-.7-.4-2.2-.6-.6 0-1-.6-.2-.5.3 0 .6 0 .7-.2.2-.2.3 0 .5 0 0 .2.4.3.5.2.3 0 .3 0 0-.9zm-.1 2.8-.3.1c-.1 0-.2 0-.2.2v.3c0 .1 0 .2.2.3l1 .6c.1.1.3.2.5 0l.2-.2v-.3l-.4-.5c-.3-.3-.7-.4-1-.4zm131.3-2.8v.1c-.4.4-.6.5-1.1.5h-.4v-.2l.4-.2a6 6 0 0 1 1.1-.2zm-125.7.1c-.3 0-.4.1-.4.3 0 .2.2.3.3.3l.4-.2c.2-.3.2-.3-.3-.3zm128.9 0 .7.6.3.2h-1.3l.1-.5zm-160.1.2h.1l.4.5 2.4 3.2.3.3c-1.4-.2-3-.3-4.8-.3h-1.1c0-.5.2-.9.3-1.3zm149.9 0h.1c0 .1-.2.4-.5.6l-.6.6c0 .1-.3.5-.7.8-.7.6-1 .4-.4-.3l.4-.8c0-.4.2-.5.7-.6zm-111.4.2.3.1h-.3zm119.9.1h.1v.3c0 .2-.3.4-.4.4-.3 0-.3-.3.1-.5zm-131.3.2-.1.3v.3l.5.5h.5v-.5h-.1l-.4-.4h-.3zm2 0 .3.1v.2zm121.4 0s.2 0 .3.2c.1.2.1.3-.1.4a2 2 0 0 1-.6 0c-.2 0-.2 0 0-.3zm-4.7.2c.2 0 .4.2.4.3l-.6.1c-.3 0-.5 0-.4-.2zm-133.6.1 1.7 2.2 1.3 1.7.3.5h-1.8l-5.2-.2 2.1-2.4zm21.8 0h.1s.2.1.2.3c0 .1-.2.3-.3.2-.4 0-.3-.4 0-.5zm1.6.2c.4 0 1 .2 1.2.5.1.2.4.4.6.4.5 0 .8.3 1 1v.6a8 8 0 0 1-1.7-1.4l-.4-.2c-.5 0-.9-.4-.9-.8zm-3.5.3.3.3h-.4c-.3 0-.4 0-.3-.2h.4zm111.3.2 1.5 1 1 .6h.3c.2 0 .2-.3.2-.4l.1-.4v-.3l-.2-.3h-.9zm-109.3.4c.2 0 .4.1.3.2-.2.2-1.3.3-1.3.2l.3-.3h.7zm115.3 0-.8.5-.3.3-.1.2v.3h.8l3.3-.6c.2 0 .2-.2.2-.3v-.2h-.7l-1-.2zm-4.1.2.7.1-.1.3a5 5 0 0 1-.6-.4zm8.4 0a23 23 0 0 0-2.4 5l.6.3c.5.2 1.2.3 2.5.3 1.6 0 1.9 0 2-.3 0-.4-.2-.5-.8-.2-.3.2-.4.2-.6 0l-.6-.4h-.4l-1-.2h.5l3.6-.6.3-.3v-.5c0-.2-.2-.3-.4-.3h.2l-.5-.6c-.3-.3-.7-.5-.8-.4h-.2c.1-.3-1.7-1.8-2-1.8zm-125.9.4v.2c-.1.3 0 .3.4.1.2 0 .2-.2 0-.3zm7.5 0 .5.4h-.4v-.3zm114.2 0h.4l-.7.1zm-127.2.1-.2.2-.3.3c0 .2.1 0 .4-.2l.2-.3zm135.6.1-.2.4v.4l.3-.4v-.3zm-117.6.1-.3.5c0 .5 0 .5.3.2l.3-.5h-.2v-.2zm111.7 0c-.3 0-.4.1-.3.4.1.2.2.2.3 0 .1-.2.1-.3 0-.4zm9.6.1-.2.4-.7.6h-1c-.7 0-1 0-1.2-.2v-.2l.2-.2 1.5-.2zm-138.8.3c-.2 0-.5.1-.9.5l-.7.6h.5c.4 0 .7 0 .9-.4.3-.4.3-.6.2-.7zm141.9 0 .2.2.7.5.3.2h-1.6v-.3l.3-.5zm-10.9.1c.3 0 .5 0 .5.2v.2c-.1 0-.4 0-.7.2-.7.1-.8 0-.4-.4zm32.9 0h.7l-.8 2.1zm-155.7.2c.2 0 .3.1.3.2l-.3.2c-.2 0-.3 0-.3-.2zm124.2 0 .2.3s0 .2-.2.1c0 0-.2 0-.2-.2h.2zm20.9 0 4.2.1 1.4.1h-5.2l-.1.1v.2l.1.3.4.7 2.5 5.1.1.2v.1h.1l.1.1h.3l.2-.3.4-.6 3.2-5 .5-.7h.1c0 .1 0 .3-.2.5l-.6 1.6c-.9 2-2 4-3.4 5.6l-.4-.6-.3-.6a110 110 0 0 0-3.4-6.9zm-143.6.2h.1c.5 0 1.6.3 1.4.6l.3.1c.3 0 1 1.1 1 1.5 0 .3-.3.1-1-.5l-.8-.8s-.1-.2-.3-.2l-.7-.3c-.3-.3-.3-.3 0-.4zm-11.3.1-.3.3-.8.7 1 1c.7.8.8 1 .5 1-.4 0-.5 0-.3.4.1.5 1.2.5 1.8 0 .3 0 .4-.3.2-.3l-.4-.3.4.2h.5c.1-.3.2-.5.1-.6 0-.2-.1-.4-.3-.5l-.7-.3h-.5c1.4 0 1.3-.3-.4-.6-.6 0-1.2-.2-1.2-.3 0 0 .1-.3.4-.5zm7.5.2h.4c0 .1 0 .2-.2.1h-.1zm148.4.1h.6l2.6.1 3 .1-.6 1-2.6 4-.2.4-1.5-2.7-1-2.2zm-23.9.2h.3l-.7.8c-.8.7-.9.7-.4 0 .2-.5.6-.8.8-.8zm-130.6.1v.1h.2zm7.2 0v.1c0 .1-.2.3-.6.5l-.6.4 1.1.2c.7 0 1.2.2 1.3.3h-1c-2.2 0-2.6-.4-1.5-1 .6-.4 1-.6 1.3-.5zm-5.2.1c-.1 0-.2 0-.2.2 0 0 .2.2.6.2.5 0 .5 0 .2-.2zm7.5 0c.3 0 .6.2 1.6 1 .9.6 1 1 .9 1-.5 0-.4.5 0 .7.4 0 .6.2.5.4 0 .3 0 .3-.1 0h-.2l-.1.3-.1.4h-.3l-.2-.1.7-.8-1.2-.2h.1l-.8-.2c-.5 0-1-.2-1.2-.4-.4-.3-.3-.3.4-.3h.3l-.1-.3.6.2h1.4l-1-1-.7-.4-.5-.2-.2.2-.2.3c0-.2 0-.3.2-.4l.2-.2zm3.7.2-.2.3v.2l.1.2.2.3v.1l.1.1h.5l.3-.4.3-.2v-.4l-.2-.2h-.5zm118.2 0h1.5c-.7 0-1 0-1.4.2l-.9.6zm-123.5.1c.4 0 .4 0 .2.2-.4.2-.6.2-.6 0zm119 .2h.4l.8.1v.2l-.3.4h-.2l-.5-.5zm10 0 .8.7c.6.5 1 .7 1.4.6.5 0 .5 0 .4.4-.2.6 0 .6.2 0h.1a1 1 0 0 0-.2.4c0 .2.1.4.3.5l.5.3c.4.3.9.4 1.3.4h1l1-1 .8-.9v-.4h-.9c-1.2 0-2.4.2-3.6.4l.5-.2.7-.4c.2-.3 3.6-.3 3.8 0 .1 0-.3.6-.9 1.2l-1 1.2c0 .2.4.2 1 0l.5-.2.3.2c.5 0 1.6-2 1.5-2.6-.1-.3-.5-.4-3-.5h-4.7zm-134.5.2c-.2 0-.3.1-.3.2s0 .2.2.2h.3c0-.2 0-.3-.2-.3zm130.5 0c.4 0 .9 0 1.3.2h.1v.1h-.3c-.2.2-.6.2-1 .3l-2 .2.7-.6h1.2zm-134.4.1h.3l1 1-.3-.2zm-1.7.1-.1.2-.4.7c0 .2 0 .4.2.7.3.3.6.5.8.5.4 0 .3-.4-.2-1.6zm138.9.5c-.3.1-2.4 4-2.5 4.7 0 .1 0 .3.2.2.2 0 .4.1.5.3.3.2.7.2 2.3.2 2.2 0 2.3 0 2.4-.4 0-.2-.1-.3-.5-.2h-1.4l-1.8-.4h-1l.5-.5v.4h.9l1.6-.2c1.2 0 2-.2 2.3-.4l.3-.2v-.4c0-.2-.1-.4-.3-.5l-.7-.4h-2.2l1-.3h1l-.4-.3-1.2-1c-.3-.3-.7-.5-1-.5zm17.2 0 .4.5h-.3v.1l-.1.1zm9.2 0 .3 3.2-.7 1.6.3-4.5-1.3 2zm-27.8.2-.3.1v.3c0 .2 0 .2.2 0v-.3zm-127.6.2h.7l1 .4c.2.2-.7.4-1.2.1-.2 0-.4-.2-.5-.4zm140 0c-.1 0-.2 0-.3.2l-.4.5-.3.6-.1.2-.1.2v.2h.2v.1h.5l2.2.2h.3l.2-.2v-.4l-2-1.5h-.2zm-143.5.1.2.2c.2.2 0 .2-.2.2-.4 0-.4 0-.2-.2h.2zm140.4.1c-.3.5-.7 1-1.1 1.2l-.7.1a3 3 0 0 1-1.2-.3l-.4-.3v-.3h.6zm-7.6.1v.2l-.3.2c-.4 0-.4 0-.2-.2zm-140.5.2s.2 0 0 0zm151.3 0 .8.7.5.4h-2l.3-.6.4-.4zm-154.8.2h.8l-.2.2zm12.3 0c.2.1.2.2-.2.5-.6.4-1 .4-.5 0 .2-.3.5-.4.7-.4zm4.2.1c.4 0 .8.5 1.2 1.5.2.3-.3 0-1-.5-1-.8-1-1-.2-1zm-6.4.3c.4 0 .4 0 0 .2-.6.5-1 .7-1 .5 0-.3.6-.8 1-.7zm.8.2s.2 0 0 .2l-.1.2v-.2zm1.6 0h.5v.1c.2.1 0 .2 0 .2h-1zm2.3 0c.4 0 .7.3 1 .5-.2-.2-.6-.4-1-.4zm3.8.1h.3l-.2.3h-.1zm118.9 0 1.7 1.4.8.5.2.2v.1h.5v-.3l.4-.5.2-.5v-.5h-.5l-1-.3zm5.9 0v.2l-.5.7c-.7.5-1 .2-.3-.5.2-.3.6-.4.8-.4zm17.9 0v.1l2 3.8-1-.8-1.1-1v-1.5zm-147 .1-.1.2v.3l.5.4.5.2h1.3v-.3h-.2l-.3-.4.3.1c.8.7 1 .8.6 1-.6 0-.5.4 0 .6.6 0 .7.1.4.3-.2 0-.4.3-.4.4l-.4.4c-.3 0-.5.3-.5.7v.2h-.7l-.1-.4-.3-.5-.3-.7c0-.4 0-.5.7-.5-.9-.2-1.4-.4-1.3-.6 0 0 .2-.2.5-.2-.8-.4-1-.7-.4-1zm1 2h.1-.1zm0 0-.2.1v1l.4.6.8-.6 1-.8-1.3-.2h-.7zm-11.7-1.7h.7l-.1.3v.1c0 .2 0 .2.2.3zm165.7 0-.2 3.6-1.4 2.7-1-2 .8-1.3 1.6-2.6zm-30 .3h1.5l-.2.5-.2.4h-.1l-.7-.7zm29.2 0-1.5 2.4-1 1.5 1.4 2.7-1.5-2.7.5-.7zm-23 .1 1 .1c.2 0 .3.2.4.3l.2.2-2.2.4-1.6.1 1.2-1h1zm-140 .4h.3v.1zm6.9 0 1 .4c.4.2.4.2 0 .3-.3.1-.3.2.2.2s.6.2.9 1l.2.7c-.1.1-2-1.4-2-1.6 0-.2-.1-.3-.4-.4-.2 0-.4-.2-.4-.3 0-.2.2-.2.5-.2zm140 0c-2.4 0-3 0-2.7.3l.8.2c1.5-.2 7.2 0 7.2.3l-.6.7v-.5l-.3-.2h-.5l-1.4.1-2.1.3c-.2 0-.4 0-.5.2l-.2.3c0-.4-.1-.5-.6-.4h-.5l.5.6.5.4v-.4l.2.2.2.3c.5.5 1 1 1.7 1.2l.3.1h.3l.4-.3.8-.7.9-.8-.1.1-1.1 1.3c-.1.1 0 .2.3.2s.6 0 1-.5c.2-.3.4-.5.6-.5v1.1s.2 0 .3-.4v.4l.2.1h.6s.2 0 .2-.2c.2-.2.2-.4.2-.7v-.6l-.1-.2h-.4l.5-1.4c0-.2-.4-.3-1.4-.4l-5-.2zm-144.4.4h.5c.2.2.2.2 0 .3h-.5c-.2-.2-.2-.3 0-.3zm-1 .4.2.1h-.3zm141.3 0a32 32 0 0 0-2.6 4.8l.5.4c.5.2 4.5.4 4.9.1.4-.3.2-.5-.7-.4-1 .1-1.2.1-2-.3a3 3 0 0 0-1.4 0h-1l1-.9 1-1-.8 1-.2.2v.3l.2.2h1.1a51 51 0 0 1 3.6-.6c.2 0 .2-.2.3-.3l-.1-.3-.5-.6c-.6-.6-1.1-.9-1.7-.9l-.8.2.5-.2h.6l-.8-.9-1-.8zm-138.9.1c.6.1.6.1-.3.6l-.8-.2zm1.5 0h.5c0 .3-.5.8-1.1 1h-.3l-.6-.2.4-.3zm135.9 0c-.2 0-.4.1-.3.2l.3.2h.3c0-.2 0-.3-.3-.4zm-135 .2.5.4-.4-.2-.4.1zm144.6.3-1 1a2 2 0 0 1-1 .8h-.1l-.2-.2c-.5-.3-1-.6-1.3-1l-.2-.2h.3c.4-.2 1-.2 2-.3zm-145 .1-.1.4v.2h-.3c0-.2 0-.3.2-.5zm4.2 0h.3l-.3.3zm-3.8.4.6.4h-.6zm140.4.4.4.6c.2.3.5.5.6.5.3 0 .2 0-.4-.6zm-10.1.2 1.6 1.4 1.4 1.2.6-1.2.6-1.2-1-.2h-1.7zm5.8 0c.4 0 .3.1-.2.7-1 1-1.1.8-.5 0 .2-.5.4-.7.7-.7zm1 .2-.7.6.2-.2zm11.8 0-.1.2v.7l.6.1h.5v-.4l-.4-.4-.2-.2h-.2zm-17.2.3h1.6l.4.1-.3.5-.3.6-.8-.7zm6.4 0c.3 0 .7.3 1.2.8l.4.4-.4.1-3 .3h-.3l.8-.9c.5-.4.9-.6 1.3-.6zm5.2 1.2c-1 0-1 .1-.7.3 0 .2.6.2 1.3.2h2c.7 0 1 0 1-.2l-1.2-.3zm-3.6.6c-.3 0-.4.2-.2.5 0 .1.4 0 .4-.3 0 0 0-.2-.2-.2zm8.8 0v1.7zm-7.2.2c-.1 0-.5.4-.8 1-.5.7-.5.8 0 .6.5-.3.4.2-.2.7l-.6.5.2-.4v-.5l-1.6 2.8.4.3c.4.3 2.7.4 4.5.2.7 0 1 0 1.2-.5.4-.7.4-.8-.1-.7-.3 0-.4.2-.2.4.3.4-.3.5-1.7.4a8 8 0 0 1-2.7-.5h.7l4.2-.4h.2l.2-.3v-.2l-.2-.2-.2-.3-1.8-1.5-.3-.2-.3-.3-.5-.4c-.2 0-.3 0-.3-.2v-.2zm5 0-1.1.2h-.2l-.1.1-.1.2v.3l.3.3.5.6 1.2 1.1.2-1.5v-1.2h-.3zm-.7 1.7c-.6-.4-.9-.9-.9-.9 0-.4-.1-.5-.6-.5h-.6l1.3 1.3c1 1 1.8 1.5 1.9 1.2l-1-1h-.1zm7.7-1.7 1 1.7.4.8v.1l-1-.8-.4-.5-.2-.2h-.5zm-6.8.5v.8l-.1.4-.4-.4-.5-.5a2 2 0 0 1 1-.3zm-11.8.8 1.6 1.5 1 1h.5v-.2l.3-.2.4-.7.4-.7.2-.2v-.3h-.3l-.1-.2h-.4zm18 .3.2.1.6.5.2.2h-1.4l.2-.2c0-.2.2-.4.3-.5zm-10.3.2.4.2 1.4 1.3v.1l-1.3.1-2.6.2.8-.7zm-6.3.1h2.2l-.2.5-.5.7h-.2l-.8-.7zm15.8.2-.6 1h3.2l-.4.4c-1.4.1-3.1 0-3-.2zm-1 1.8h3l-.1.3c-1 0-1.8.2-2.7.3-.4 0-.6.2-.8.5l-.2.3v.5c-.2-.3-.2-.6.3-1.2zm-5.3.6a42 42 0 0 0-2.7 4.4l.3.5c.4.2 0 .2 3 .1 2.2 0 2.5 0 2.8-.4.5-.6.5-.7 0-.7-.3 0-.3 0-.3.3s0 .4-.6.5l-1.3.1c-.3 0-.7 0-1-.2l-1.3-.4h-.5l1.6-.2h1.5l.2-.2.2-.2v-.2l-.1-.3-.3-.7.3.6c.3.5.5.6 1.2.6h.8c0-.2-.3-.6-.7-1-.7-.5-1-.6-1.2-.5l-.5.2-.4-.7s-.1-.2-.3-.2l-.3.1-1.1 1.2-1.3 1.4 1.5-1.7 1.6-1.7-.4-.4-.4-.3zm6.9.2h.8l-.7 1.2-.4.3-.3.3h-.2l-.2-.2-1-1v-.2l.5-.3zm-8.3.5-1.5.1h-3.7l1.7 1.6 1.2 1.1h.2v.1h.3v-.2l.3-.3.5-.8zm-1 .6-.4.7-.5.8-.2.2-.2-.2a12 12 0 0 1-.8-.7l-.7-.7h2.3zm2 0-.2.5c-.3.2-.5.3-.5.1 0-.2.5-.6.7-.5zm1 .8.4.5.3.8h-1.3l-.8.1.5-.4zm-2.7 3 1.7 1.7 1.2 1.2h.5l.3-.4 1-1.7.3-.3v-.4h-2.3zm1.2.5h3.2l-.6.8-.5 1-.2.1-.2-.2a20 20 0 0 1-1-.9zm-207 1.5v.2zm0 7.4v.5l.3-.3zm.7 10.1c-.2.1-.2.8 0 .8-.3 0-.2-.7 0-.8zm211.6 33.1 11.7 2.5-11 51.4 8 1.8-2.3 11-8.1-1.9-3.8 17.4-13.4-2.9 3.8-17.4-33.7-7.3-4-10.8 9.7-8 23.4-19.4h-.1zm-2.8 15.5-36.7 30.1 28.8 6.3zm-111.7 7.4c4.7.1 9.3.9 13.8 2.2v7a38.8 38.8 0 0 0-13.3-2.4c-5.8 0-10 1.5-12.4 4.7a22 22 0 0 0-3.6 13.5c0 5.5 1.3 9.7 4 12.6 2.6 3 6.6 4.3 12.2 4.3 4.5.2 9-.6 13.2-2.3v7a39 39 0 0 1-14 2c-7.7 0-13.5-2-17.5-6.4-4-4.2-6-10-6-17.2 0-5.2.9-9.6 2.5-13.3 1.7-3.8 4.3-6.7 7.8-8.7 3.5-2 7.9-3 13.3-3zm-61.5.6 2.6.2c2.4.2 4.6 1 6.3 2 2.4 1.3 4 3.2 5.2 5.6 1 2.3 1.7 5 1.7 8a15 15 0 0 1-4.4 11.3 16 16 0 0 1-11.7 4.2h-12.8v16h-8v-47.2h.3zm22.2 0h8v47.2h-8zm61 .1h8v25.7l16.7-21.3 3.5-4.3h7.4l-11 13.7-4.4 5.8 17.7 27.7h-8.5l-13.8-22-7.7 9.8v12.1h-8zm-96.3 6.2v18.7h11.3c3.2 0 5.6-.8 7.2-2.4a9.3 9.3 0 0 0 2.4-6.8c0-3-.7-5.4-2.3-7-1.5-1.7-3.8-2.5-7-2.5zm25.4 58.6h.1c2 0 4.1.3 6 .8v3.2c-1.6-.6-3.4-1-5.5-1-1.5 0-2.8.3-3.7.7-1 .4-1.3 1.2-1.3 2.3 0 .6.2 1.1.5 1.5.3.4.8.8 1.6 1 .7.4 1.8.7 3 1 1.9.5 3.2 1 4 1.6a5 5 0 0 1 2.2 2.1c.4.8.6 1.8.6 2.8 0 1.8-.7 3.3-2 4.4-1.5 1-3.6 1.6-6.4 1.6-2.8 0-5-.4-6.7-1v-3.2c2 .8 4.2 1.2 6.4 1.2a9 9 0 0 0 3.8-.6c.8-.4 1.3-1.2 1.3-2.4 0-.8-.2-1.3-.6-1.8a4 4 0 0 0-1.7-1c-.8-.4-2-.8-3.4-1a11 11 0 0 1-4.8-2.4 5 5 0 0 1-1.4-3.8c0-1.9.6-3.4 2-4.4 1.4-1 3.4-1.6 6-1.6zm121.3 0c2.1 0 4.3.4 6.3 1v3c-1.8-.6-3.8-1-6-1-2.7 0-4.6.8-5.7 2.2-1.2 1.8-1.8 4-1.7 6.2 0 2.5.6 4.3 1.8 5.6 1 1.3 2.9 2 5.3 2 1.9 0 3.4-.3 4.6-.7v-6h-5.3v-2.3h8.4v10.2c-.7.5-1.7 1-3 1.3-1.2.3-2.8.5-4.8.5-3.5 0-6.2-1-8-2.9a10.9 10.9 0 0 1-2.6-7.7c0-2.3.4-4.3 1.2-6a8 8 0 0 1 3.5-4c1.6-1 3.6-1.4 6-1.4zm-184 .3h3.6l3.6 16 4-13.4v-2.6h3l4.5 16 3.7-16h3.5l-5 21.4h-3.5l-4.3-15-4.5 15h-3.6zm33.6 0h14.9v2.8h-11.3v6.5h10v2.8h-10v6.5h11.3v2.8h-15zm41.6 0h17.3v2.8h-6.8v18.6h-3.6v-18.6h-7zm35.5 0h3.7l6.4 17.5 6.4-17.5h3.8l-8.1 21.4h-4zm27.4 0h3.7v21.4h-3.7zm12 0h9.8c2.4 0 4 .6 5.2 2a7.1 7.1 0 0 1 1.7 5 6 6 0 0 1-4.4 6l1 1 .6 1.2 2.7 6.2h-3.8l-2.6-6c-.2-.6-.5-1-1-1.2-.2-.3-.8-.4-1.6-.4h-4v7.6h-3.6zm49.3 0h3.6v21.4h-3.6zm11.9 0h3.2l11 15.7v-15.7h3.7v21.4h-3.2l-11.1-15.7v15.7h-3.6zm26.2 0h3.7v21.4h-3.7zm19.5 0h4l8 21.4h-3.6l-2-5.5h-8.7l-2.1 5.5h-3.7zm-103.3 2.8v8h5.2c1.3 0 2.4-.2 3-.9.9-.6 1.2-1.6 1.2-3 0-2.7-1.2-4-3.8-4zm105.3.5-3.7 9.8h7.4z" style="-inkscape-font-specification:Kanit;fill:url(#b);fill-opacity:1;stroke-linecap:round;stroke-linejoin:round;paint-order:stroke fill markers" transform="translate(-14508.1 3484.7)"/></svg>