<svg version="1.1" id="Layer_1" xmlns="http://www.w3.org/2000/svg" xlink="http://www.w3.org/1999/xlink" x="0px" y="0px" viewBox="8.2 7 597.1999999999999 296.9" style="enable-background:new 0 0 612 309;" space="preserve" enable-background="8.2 7 597.1999999999999 296.9" >
<style type="text/css">
	.st0{fill:#EE3E42;}
	.st1{fill:#FFF100;}
	.st2{fill:#C3161C;}
	.st3{fill:url(#SVGID_1_);}
	.st4{fill:url(#SVGID_2_);}
	.st5{fill:#FFFFFF;}
</style>
<g>
	<g>
		<path class="st0" d="M8.4,273.4l4.4,0l-0.5,9.3l5.9-9.3l3.7,0l-0.1,9.3l5.5-9.3l4.3,0l-9.7,15.4l-3.9,0l0.1-9.4l-6,9.4l-3.9,0
			L8.4,273.4z"/>
		<path class="st0" d="M34.4,273.4l4.3,0l-4.9,15.3l-4.3,0L34.4,273.4z M36.1,267.9l4.6,0l-1.3,3.8l-4.6,0L36.1,267.9z"/>
		<path class="st0" d="M39.8,286c0-0.6,0.2-1.2,0.4-1.9l2.2-6.9l-1.8,0l1.2-3.7l1.8,0l1.3-3.9l4.3,0l-1.3,3.9l3.6,0l-1.2,3.7l-3.6,0
			l-2.1,6.4c-0.1,0.2-0.1,0.5-0.1,0.7c0,0.6,0.3,0.9,1.1,0.9c0.7,0,1.5-0.2,2.2-0.5l-1.2,3.7c-0.9,0.4-2,0.6-3.2,0.6
			C40.9,289,39.7,287.7,39.8,286z"/>
		<path class="st0" d="M56.4,267.9l4.3,0l-2.3,7.1c1.1-1,2.5-1.9,4.3-1.9c2.7,0,4.4,1.7,4.3,4.4c0,0.9-0.4,1.9-0.7,2.9l-2.6,8.2
			l-4.3,0l2.7-8.4c0.1-0.4,0.3-1,0.3-1.4c0.1-1.2-0.7-1.9-2-1.9c-1.7,0-2.9,1.2-3.5,3l-2.8,8.6l-4.3,0L56.4,267.9z"/>
	</g>
	<g>
		<path class="st0" d="M79.8,264.4h32.8l-2.7,7.6H88.5l-1.9,5.3H106l-2.5,7.2H84.1l-3.9,11.2H68.8L79.8,264.4z"/>
		<path class="st0" d="M116.8,264.4h11.4l-11,31.4h-11.4L116.8,264.4z"/>
		<path class="st0" d="M134.1,264.4h15.5c6.8,0,11.4,1.2,14.1,3.3c2.2,1.7,3.2,3.9,3.2,6.4c0,5.2-3.9,9.4-12.3,11.1l6.3,10.6h-12.5
			l-5.4-9.5h-5l-3.3,9.5h-11.4L134.1,264.4z M146.7,279.4c5.1,0,8.4-1.7,8.4-4.3c0-0.9-0.4-1.5-1.1-2.1c-0.9-0.7-2.6-1.1-5-1.1h-6.1
			l-2.7,7.5H146.7z"/>
		<path class="st0" d="M174.8,264.4h32.8l-2.6,7.4h-21.5l-1.7,4.8h19.6l-2.4,6.9h-19.6l-1.8,5h21.9l-2.6,7.4h-33.1L174.8,264.4z"/>
		<path class="st0" d="M212.5,264.4h17c11.2,0,14.8,3.5,14.8,7.5c0,4-3.5,6.9-9.2,8c3.6,1,6.2,3,6.2,6.3c0,5.4-5.9,9.6-18.6,9.6
			h-21.2L212.5,264.4z M223.6,288.8c3.9,0,6.3-1.3,6.3-3.3c0-1.6-1.7-2.5-5-2.5H217l-2,5.8H223.6z M226.9,276.9c4,0,6.2-1.2,6.2-3.2
			c0-1.4-1.5-2.3-4.9-2.3h-7.1l-1.9,5.5H226.9z"/>
		<path class="st0" d="M266.7,264.2h11.1l6.4,31.6h-11.9l-1-5.6h-15.8l-4.9,5.6h-12.4L266.7,264.2z M270.3,283.4l-1.5-9l-7.7,9
			H270.3z"/>
		<path class="st0" d="M296.7,264.4h11.4l-8.3,23.8h19.6l-2.7,7.6h-31L296.7,264.4z"/>
		<path class="st0" d="M331.4,264.4h11.4l-8.3,23.8H354l-2.7,7.6h-31L331.4,264.4z"/>
	</g>
	<g>
		<g>
			<g>
				<path class="st0" d="M547,7L437.7,7L307.1,179.4l0,72.2c0,0,106.6,0,132,0c0,15.5,0,52.3,0,52.3l124.5,0c0,0,0-36.8,0-52.3
					c12.1,0,41.8,0,41.8,0l0-83.9c0,0-29.7,0-41.8,0c0-26.6,0-160.7,0-160.7L547,7z"/>
				<path class="st1" d="M547,15.3l-105.2,0L315.3,182.2l0,61.1c0,0,117.4,0,132,0c0,11.7,0,52.3,0,52.3l108,0c0,0,0-40.6,0-52.3
					c10.6,0,41.8,0,41.8,0l0-67.4c0,0-31.1,0-41.8,0c0-14.9,0-160.7,0-160.7L547,15.3z"/>
				<path d="M575.2,300.1h-1.9l0-7.6h-2.8v-1.6h7.5l0,1.6h-2.8L575.2,300.1z"/>
				<path d="M588,300.1h-1.8l0-7.7h0l-1.7,7.7h-1.9l-1.7-7.7h0l0,7.7H579l0-9.2h2.8l1.7,7.3h0l1.6-7.3h2.8L588,300.1z"/>
				<path class="st0" d="M300.5,225.1c-2-2.4-2-2.5-3.4-4.9c0,0-4.5-8-8.4-14.9c4.8-5.9,32.2-39.1,32.2-39.1s-55.4,0-55.5,0
					c0-2.1,0-15.3,0-15.3l-55.3,0l0,18.8c-5.7-3.3-13.2-5.8-23-5.8c-8.4,0-17,2.2-24.5,6.6c0.1-0.8,0.1-1.5,0.1-2.3
					c0-12.3-10.9-25.6-28.5-25.6c-7.7,0-14.1,2.5-18.9,6.4c-0.8-0.9-1.7-1.7-2.5-2.4c-12.2-11-26.8-11.1-34.6-11.1l-46.3,0H15.5
					l0,114.9l63,0c0,0,0-23.6,0-30.5c9.4-0.5,17.4-1.9,25.4-5.8c0.9-0.5,1.9-1,2.7-1.5l0,39.3h55.3l0-4.7c6.7,4.2,15,6.7,24.5,6.7
					c9.1,0,17-2.1,23.8-6.2l0,4.3c0,0,20,0,22.2,0c0,0,0,0.6,0,0.6s0.5-0.6,0.5-0.6c6.4,0,89.1,0,89.1,0L300.5,225.1z"/>
				<path class="st1" d="M294,230.2c-2.1-2.6-2.4-3-4.1-6c0,0-7.2-12.7-11.3-19.9c4.5-5.5,24.7-30,24.7-30l-41.6,0
					c0,0-4.1,5.3-4.6,5.9c0-5.9,0-21.2,0-21.2h-8.3l-30.4,0l0,30.6c-3.4-5.4-11.2-17.6-31.3-17.6c-13,0-26.6,6.5-33.5,18.8l0-16.6
					h-0.5c0.9-2,1.4-4.1,1.4-6.2c0-8.3-7.7-17.3-20.2-17.3c-9.9,0-16.8,5.7-19.3,12.2c-2.1-4.6-5-8-7.6-10.3
					c-9.9-8.9-21.5-8.9-29.1-8.9H32h-8.3l0,98.3l46.5,0c0,0,0-21.5,0-30.2c12-0.1,21.4-0.9,30-5.2c6.8-3.3,11.7-8.3,14.6-14.6
					l0,51.6l38.7,0l0-16.8c5.9,10.7,17.2,18.8,32.7,18.8c20.9,0,29.2-13.2,32.1-18l0,16.1l38.7,0c0,0,0-1.7,0-3.2
					c0.2,0.2,0.4,0.4,0.6,0.6l2.4,2.5h44.6L294,230.2z M199,213.4c-2,2.5-3.2,3.5-5.6,3.5c-4.6,0-4.9-6.4-4.9-8.3
					c0-1.8,0.4-7.6,5.2-7.6c2.2,0,3,0.7,5.6,3.4c0,0,2.3,2.5,3.7,4C201.9,209.8,199,213.4,199,213.4z M216.4,216.4
					c0,0-8.7-6.3-10.6-7.6c1.1-0.8,8.1-5.9,12.7-9.3l0,18.4L216.4,216.4z"/>
				<g>
					<path class="st0" d="M145.4,181.9h-22.9l0,54.1h23.6l0-54.1H145.4z"/>
					<path class="st0" d="M121.6,168.1c0,2.4,1.4,5.1,3.7,6.9c2.9,2.4,6.5,2.9,8.9,2.9c8.6,0,12.6-5.8,12.6-9.8
						c0-3.9-4-9.8-12.6-9.8S121.6,164.2,121.6,168.1z"/>
					<path class="st0" d="M156.7,209.3c0,13.9,10.4,28.7,29.7,28.7c17.1,0,23.4-10.6,25.8-14.6l0.3-0.5l-0.5-0.4l-6.7-4.8l-0.4,0.5
						c-2.1,2.5-5.2,6.3-11.4,6.3c-8.6,0-12.5-8-12.5-15.9c0-9.1,5.1-15.2,12.8-15.2c5.7,0,8.5,3,11.2,5.9l0.4,0.4l7.2-5.3l-0.3-0.5
						c-3.1-5-8.8-14.2-25-14.2C172,179.7,156.7,189.8,156.7,209.3z"/>
					<path class="st0" d="M248.9,166.6H226l0,69.5l23.6,0c0,0,0-17.2,0-21.5c3.4,6.3,5.8,10.4,8,14c2.3,3.7,3.4,4.9,5.7,7.2l0.2,0.2
						H289l-0.9-1.1c-2.3-2.9-2.8-3.6-4.8-7c0,0-13.4-23.7-13.8-24.5c0.6-0.7,17.8-21.6,17.8-21.6l-21.9,0c0,0-13.7,17.6-15.8,20.4
						c0-3.6,0-35.7,0-35.7H248.9z"/>
					<g>
						<path class="st0" d="M102.4,158.3c-7.7-7-17.2-7-24.1-7l-46.3,0h-0.7l0,83.2h31.3c0,0,0-28.9,0-30.2c15.2,0,25.4-0.1,34.2-4.5
							c11.1-5.4,13.5-15.2,13.5-22.4C110.4,169.4,107.7,163,102.4,158.3z M74,190.2c-3.1,1.8-7.2,2-11.3,2c0-1.3,0-21.3,0-22.5
							c5.6,0.1,8.5,0.4,10.9,1.3c4.8,1.8,5.8,5.9,5.8,9.1C79.4,184.7,77.5,188.3,74,190.2z"/>
					</g>
				</g>
				<path class="st0" d="M547,22.9l-101.4,0L322.9,184.7l0,51c0,0,130.6,0,132,0c0,1.3,0,52.3,0,52.3l92.8,0c0,0,0-51,0-52.3
					c1.3,0,41.8,0,41.8,0l0-52.2c0,0-40.4,0-41.8,0c0-1.4,0-160.7,0-160.7H547z"/>
			</g>
			<path class="st2" d="M467.1,221.9c32.9,0,59.5-26.9,59.5-60.2c0-33.2-26.6-60.2-59.5-60.2c-32.9,0-59.5,26.9-59.5,60.2
				C407.6,195,434.2,221.9,467.1,221.9z"/>
			<g>
				
					<radialGradient id="SVGID_1_" cx="-853.094" cy="-279.5892" r="268.6793" gradientTransform="matrix(0.2852 -0.1018 0.1038 0.2909 737.7121 137.2737)" gradientUnits="userSpaceOnUse">
					<stop offset="0.3348" style="stop-color:#FFFFFF"/>
					<stop offset="0.5968" style="stop-color:#FFFFFF"/>
					<stop offset="0.6574" style="stop-color:#FCFCFC"/>
					<stop offset="0.6998" style="stop-color:#F3F3F3"/>
					<stop offset="0.7366" style="stop-color:#E4E4E4"/>
					<stop offset="0.7702" style="stop-color:#CECECE"/>
					<stop offset="0.8017" style="stop-color:#B1B1B1"/>
					<stop offset="0.8312" style="stop-color:#8F8F8F"/>
					<stop offset="0.8593" style="stop-color:#676767"/>
					<stop offset="0.8598" style="stop-color:#666666"/>
				</radialGradient>
				<circle class="st3" cx="456.2" cy="154.7" r="59.7"/>
				
					<radialGradient id="SVGID_2_" cx="1349.1791" cy="-72.2178" r="27.1386" gradientTransform="matrix(1.6666 0 0 1.6816 -1773.3563 267.0909)" gradientUnits="userSpaceOnUse">
					<stop offset="1.866902e-02" style="stop-color:#D6DE23"/>
					<stop offset="0.3263" style="stop-color:#8BC53F"/>
					<stop offset="0.4254" style="stop-color:#86C03F"/>
					<stop offset="0.5471" style="stop-color:#77B33F"/>
					<stop offset="0.68" style="stop-color:#5E9C3F"/>
					<stop offset="0.7159" style="stop-color:#56953F"/>
					<stop offset="0.8595" style="stop-color:#2C7F3C"/>
					<stop offset="1" style="stop-color:#006838"/>
				</radialGradient>
				<path class="st4" d="M482.1,139.5c7.5,0,14.4,1.2,18.4-0.1c3.8-1.2,4.4-2.5,3.9-4c-5.5-18.1-21.8-29.3-29.5-26.2
					c-1.9,0.8-2.3,4.9-2.3,4.9s0,12.4,0.7,23.2c-1-8.6-4.9-30-19.6-30c-10.5,0-31.6,13.9-33,26.3c-1.2,10.5,7.5,10.1,11.5,9.8
					c4.3-0.3,16.3-2.1,30.9-3.4c-16.4,4.8-27.3,10.8-33.6,17.8c-7.6,8.6,4.6,31.8,17.3,33.1c12.7,1.2,22.6-15,23.7-15.7
					c-5.6,19.4-14.5,23.7-14.5,23.7c2.8,3.4,6.5,2.2,7.7,1.9c5.8-3.1,8.8-16.5,10.3-27.1c0.8,6.2,11.8,16.9,21.2,11
					c12-9.1,13.5-21,12.3-28.4C505.9,147.8,497.1,143.2,482.1,139.5z"/>
			</g>
		</g>
		<g>
			<path class="st5" d="M463.1,129.9l-0.5-2.1l2.6-3.1l0.7-1.8l2.1-1.6l1.5,0.5l10.6,6l0.1,2.4l-1.5,4.4l-0.5,0.2l-0.5-0.2l0.1-0.2
				l0.3-1.5l-0.1-0.5L478,133l-0.5,1.3l-0.2,1.5l-0.5,1.3l-0.5,0.2l-0.4-0.4l-0.2,0.3l1.4,1.3l1.2,0.4l0.1-0.2l0.3,0l0.7,0.7
				l0.3-0.2l0-0.5l-0.4-1l0.7,0c0,0,2.4,3,0.3,10l-0.5-0.3l-0.2-0.6l-0.2,0l-0.3,5.3l-0.5,0.5l-0.6,3.2l-1.2,1.4l0,1l-0.7,0.2
				l-0.4-0.5l-0.6,1l0.6,0.6l-0.7,0.9l0.5,0.3v0.2l0.4,0.3l-0.1,0.6l-0.9,1l-1.6,1.1l-2.2,2.3l-1.9,2.9l0,0.7l-0.7,0.9l-1.8,1
				l-0.7,0l1-1.7l0-0.9l0.7-0.7l0-1.5l-2.1-1.1l-1.5-0.1l-1.5-1.7l-0.8,0l-0.5,0.2l-4.2-3.7l-0.1-1.1l0.5-1.5l-0.4-0.7l0.6-2.5
				l0.9-1l0.6-0.1l1.3-1.3l0.5,0.1l1.8-1l1.3-2.3l0.7-0.1l1.7-1.8l1.2-0.5l1.4-1l0-0.9l-1.2-1.2l-0.3-0.6l-1.1-1l-1.3-2.3l-0.1-0.5
				l-0.3,0.3l-0.8-0.1l-0.7-0.6l0-1.5l-0.2-0.9l-1.5-1l0.3-1.1l-0.5-2.2l1.2-0.4l0.1-1.2L463.1,129.9z"/>
			<polygon class="st5" points="480.1,148.2 479.8,148.7 479.7,152.7 478.9,155.3 479.3,155.2 480.4,152.7 480.5,148.7 			"/>
			<polygon class="st5" points="479.1,155.9 478.4,155.9 477.9,157.1 476.8,159.1 476.6,159.6 476.6,160.3 476.9,160.3 477.1,159.8 
				477.3,159.1 			"/>
		</g>
	</g>
</g>
</svg>
