<svg viewBox="0 0 110.92 20.82" xmlns="http://www.w3.org/2000/svg"><path d="m58.65 0h-58.04c-.33 0-.61.3-.61.66v.42c0 .36.28.66.61.66h58.04c.34 0 .61-.3.61-.66v-.42c0-.36-.27-.66-.61-.66" fill="#393bff"/><g fill="#c50014"><path d="m110.36 0h-48.79c-.31 0-.56.3-.56.66v.42c0 .36.25.66.56.66h48.79c.31 0 .55-.3.55-.66v-.42c0-.36-.25-.66-.55-.66"/><path d="m76.94 20.66 5.79-16.24h6.5l5.68 16.24h-6.28l-.52-2.04h-4.4l-.5 2.04zm7.74-5.9h2.43l-.5-1.84c-.24-.93-.41-1.65-.5-2.15s-.14-.98-.17-1.42h-.1c-.02.44-.08.92-.17 1.42s-.26 1.22-.5 2.15l-.5 1.84z"/><path d="m95.81 20.66v-16.25h7.34c2.13 0 3.76.47 4.88 1.41s1.69 2.29 1.69 4.06c0 1.15-.28 2.1-.85 2.85s-1.33 1.18-2.29 1.31l4.34 6.61h-6.55l-2.84-5.36v5.36h-5.72zm5.72-12.06v3.17h.91c.55 0 .98-.13 1.28-.4s.45-.66.45-1.16-.15-.92-.45-1.19-.73-.42-1.28-.42z"/><path d="m72.14 19.36v-.43c0-.54 0-1.08 0-1.62 0-.07 0-.13.01-.2-.82.49-1.72.79-2.69.89-.25.03-.51.04-.76.04-1.78 0-3.35-.65-4.68-1.93-.26-.25-.42-.61-.42-.95 0-.7 0-1.4 0-2.08v-.57c0-.1.02-.18.03-.24l-1.64-.55c-.38-.13-.68-.38-.84-.71-.15-.31-.16-.67-.03-1 .1-.26.33-.61.86-.79.87-.29 1.74-.58 2.62-.87l1.46-.49c.73-.24 1.45-.48 2.18-.73.16-.06.33-.08.5-.08s.33.03.5.08c2.08.69 4.16 1.39 6.23 2.08.54.18.79.55.9.84l.06.16v.52l-.06.16c-.14.36-.41.63-.79.79v1.13 2.77c.22.16.4.37.55.61.52-1.08.82-2.29.82-3.57 0-4.53-3.67-8.2-8.2-8.2s-8.2 3.67-8.2 8.2 3.67 8.2 8.2 8.2c1.27 0 2.48-.29 3.55-.81-.09-.19-.15-.41-.15-.65z"/><path d="m75.53 10.56c-.07.18-.21.27-.39.33-2.06.68-4.12 1.37-6.18 2.06-.15.05-.29.06-.44 0-2.08-.7-4.16-1.39-6.25-2.08-.28-.09-.41-.31-.32-.54.05-.14.16-.21.3-.26 1.13-.38 2.26-.75 3.39-1.13.96-.32 1.91-.64 2.86-.96.15-.05.28-.05.43 0 2.08.69 4.16 1.39 6.24 2.08.17.06.28.15.35.32v.19z"/><path d="m75.53 19.53c-.11.23-.29.3-.54.29-.5-.01-1 0-1.5 0-.31 0-.46-.15-.46-.46 0-.68 0-1.36 0-2.04 0-.56.27-.95.77-1.18.08-.04.08-.09.08-.15 0-1.23 0-2.46 0-3.69 0-.12.04-.18.15-.21.21-.06.42-.14.65-.21v.17 3.91c0 .1.02.15.12.2.38.17.6.46.7.86 0 .03.02.07.03.1v2.42z"/><path d="m72.97 12.45v.15 2.44c0 .2-.06.34-.21.48-.96.91-2.09 1.45-3.4 1.58-1.82.18-3.4-.37-4.72-1.64-.08-.08-.15-.21-.15-.32-.01-.88 0-1.76 0-2.64 0-.01 0-.02.01-.05.06.02.11.03.16.05 1.21.4 2.42.81 3.63 1.21.3.1.6.09.9-.01 1.21-.41 2.42-.81 3.63-1.21.04-.01.08-.03.14-.04z"/></g><path d="m9.8 10.34h-.58v1.84h.58c.35 0 .62-.08.81-.24s.28-.38.28-.67-.1-.52-.29-.68-.46-.24-.8-.24z" fill="#2b3f63"/><path d="m51.44 4.07h-43.61c-4.31 0-7.83 3.76-7.83 8.35s3.52 8.36 7.83 8.36h43.61c4.31 0 7.83-3.76 7.83-8.36s-3.52-8.35-7.83-8.35zm-37.99 10.07c-.65.6-1.68.9-3.09.9h-1.16v3.25h-3.71v-11.01h4.43c1.56 0 2.7.32 3.42.96s1.08 1.66 1.08 3.05c0 1.3-.33 2.25-.97 2.85zm6.1 4.15h-3.77v-11.01h3.77zm9.51-.23c-.4.18-.81.31-1.21.39-.4.09-.81.13-1.21.13-.5 0-.99-.06-1.45-.18-.47-.12-.89-.29-1.26-.51-.91-.56-1.6-1.27-2.07-2.13s-.7-1.84-.7-2.95c0-.82.13-1.58.4-2.29.27-.7.65-1.32 1.16-1.86s1.1-.95 1.78-1.23c.67-.28 1.4-.42 2.19-.42.42 0 .83.05 1.24.14s.8.23 1.19.42v4.08c-.34-.35-.68-.6-1.04-.77s-.72-.26-1.11-.26c-.61 0-1.09.2-1.46.6s-.55.93-.55 1.59.18 1.16.53 1.55.82.58 1.42.58c.36 0 .72-.08 1.09-.24s.77-.42 1.21-.78l-.12 4.14zm7.81.23-2.5-4.6v4.6h-3.64v-11.01h3.64v4.69l2.35-4.69h4.2l-3.12 5.42 3.55 5.59h-4.49zm12.45.73c-3.32 0-6.01-2.87-6.01-6.41s2.69-6.41 6.01-6.41 6.01 2.87 6.01 6.41-2.69 6.41-6.01 6.41z" fill="#2b3f63"/><path d="m51.39 12.27c.4-.15.71-.38.91-.68s.3-.68.3-1.14c0-.75-.29-1.36-.87-1.83s-1.35-.7-2.31-.7c-1.07 0-1.89.26-2.45.77s-.85 1.26-.87 2.25h2.8c0-.21.04-.36.12-.47s.19-.16.34-.16c.14 0 .25.05.34.15s.13.23.13.38c0 .21-.07.36-.2.47s-.33.16-.59.16h-.13v1.83s.05 0 .08 0h.13c.27 0 .47.07.61.2s.21.32.21.58c0 .22-.06.39-.18.53-.12.13-.28.2-.48.2s-.35-.08-.46-.23-.17-.38-.18-.69h-2.91v.02c0 1.07.33 1.9.98 2.51s1.55.91 2.7.91c1.07 0 1.93-.26 2.56-.79s.95-1.23.95-2.12c0-.57-.13-1.03-.39-1.39s-.64-.6-1.14-.72z" fill="#2b3f63"/><path d="m51.44 4.07h-43.61c-4.31 0-7.83 3.76-7.83 8.35s3.52 8.36 7.83 8.36h43.61c4.31 0 7.83-3.76 7.83-8.36s-3.52-8.35-7.83-8.35zm-37.99 10.07c-.65.6-1.68.9-3.09.9h-1.16v3.25h-3.71v-11.01h4.43c1.56 0 2.7.32 3.42.96s1.08 1.66 1.08 3.05c0 1.3-.33 2.25-.97 2.85zm6.1 4.15h-3.77v-11.01h3.77zm9.51-.23c-.4.18-.81.31-1.21.39-.4.09-.81.13-1.21.13-.5 0-.99-.06-1.45-.18-.47-.12-.89-.29-1.26-.51-.91-.56-1.6-1.27-2.07-2.13s-.7-1.84-.7-2.95c0-.82.13-1.58.4-2.29.27-.7.65-1.32 1.16-1.86s1.1-.95 1.78-1.23c.67-.28 1.4-.42 2.19-.42.42 0 .83.05 1.24.14s.8.23 1.19.42v4.08c-.34-.35-.68-.6-1.04-.77s-.72-.26-1.11-.26c-.61 0-1.09.2-1.46.6s-.55.93-.55 1.59.18 1.16.53 1.55.82.58 1.42.58c.36 0 .72-.08 1.09-.24s.77-.42 1.21-.78l-.12 4.14zm7.81.23-2.5-4.6v4.6h-3.64v-11.01h3.64v4.69l2.35-4.69h4.2l-3.12 5.42 3.55 5.59h-4.49zm12.45.73c-3.32 0-6.01-2.87-6.01-6.41s2.69-6.41 6.01-6.41 6.01 2.87 6.01 6.41-2.69 6.41-6.01 6.41z" fill="#393bff"/><path d="m51.39 12.27c.4-.15.71-.38.91-.68s.3-.68.3-1.14c0-.75-.29-1.36-.87-1.83s-1.35-.7-2.31-.7c-1.07 0-1.89.26-2.45.77s-.85 1.26-.87 2.25h2.8c0-.21.04-.36.12-.47s.19-.16.34-.16c.14 0 .25.05.34.15s.13.23.13.38c0 .21-.07.36-.2.47s-.33.16-.59.16h-.13v1.83s.05 0 .08 0h.13c.27 0 .47.07.61.2s.21.32.21.58c0 .22-.06.39-.18.53-.12.13-.28.2-.48.2s-.35-.08-.46-.23-.17-.38-.18-.69h-2.91v.02c0 1.07.33 1.9.98 2.51s1.55.91 2.7.91c1.07 0 1.93-.26 2.56-.79s.95-1.23.95-2.12c0-.57-.13-1.03-.39-1.39s-.64-.6-1.14-.72z" fill="#393bff"/></svg>