<svg viewBox="0 0 107.33 21.22" xmlns="http://www.w3.org/2000/svg"><path d="m58.65 0h-58.04c-.33 0-.61.3-.61.66v.42c0 .36.28.66.61.66h58.04c.34 0 .61-.3.61-.66v-.42c0-.36-.27-.66-.61-.66" fill="#2a9900"/><path d="m106.81 0h-45.76c-.29 0-.52.3-.52.66v.42c0 .36.23.66.52.66h45.75c.29 0 .52-.3.52-.66v-.42c0-.36-.23-.66-.52-.66" fill="#4b3eff"/><path d="m9.8 10.34h-.58v1.84h.58c.35 0 .62-.08.81-.24s.28-.38.28-.67-.1-.52-.29-.68-.46-.24-.8-.24z" fill="#2a9900"/><path d="m51.44 4.07h-43.61c-4.31 0-7.83 3.76-7.83 8.35s3.52 8.36 7.83 8.36h43.61c4.31 0 7.83-3.76 7.83-8.36s-3.52-8.35-7.83-8.35zm-37.99 10.07c-.65.6-1.68.9-3.09.9h-1.16v3.25h-3.71v-11.01h4.43c1.56 0 2.7.32 3.42.96s1.08 1.66 1.08 3.05c0 1.3-.33 2.25-.97 2.85zm6.1 4.15h-3.77v-11.01h3.77zm9.51-.23c-.4.18-.81.31-1.21.39-.4.09-.81.13-1.21.13-.5 0-.99-.06-1.45-.18-.47-.12-.89-.29-1.26-.51-.91-.56-1.6-1.27-2.07-2.13s-.7-1.84-.7-2.95c0-.82.13-1.58.4-2.29.27-.7.65-1.32 1.16-1.86s1.1-.95 1.78-1.23c.67-.28 1.4-.42 2.19-.42.42 0 .83.05 1.24.14s.8.23 1.19.42v4.08c-.34-.35-.68-.6-1.04-.77s-.72-.26-1.11-.26c-.61 0-1.09.2-1.46.6s-.55.93-.55 1.59.18 1.16.53 1.55.82.58 1.42.58c.36 0 .72-.08 1.09-.24s.77-.42 1.21-.78l-.12 4.14zm7.81.23-2.5-4.6v4.6h-3.64v-11.01h3.64v4.69l2.35-4.69h4.2l-3.12 5.42 3.55 5.59h-4.49zm12.45.73c-3.32 0-6.01-2.87-6.01-6.41s2.69-6.41 6.01-6.41 6.01 2.87 6.01 6.41-2.69 6.41-6.01 6.41z" fill="#2a9900"/><path d="m51.39 12.27c.4-.15.71-.38.91-.68s.3-.68.3-1.14c0-.75-.29-1.36-.87-1.83s-1.35-.7-2.31-.7c-1.07 0-1.89.26-2.45.77s-.85 1.26-.87 2.25h2.8c0-.21.04-.36.12-.47s.19-.16.34-.16c.14 0 .25.05.34.15s.13.23.13.38c0 .21-.07.36-.2.47s-.33.16-.59.16h-.13v1.83s.05 0 .08 0h.13c.27 0 .47.07.61.2s.21.32.21.58c0 .22-.06.39-.18.53-.12.13-.28.2-.48.2s-.35-.08-.46-.23-.17-.38-.18-.69h-2.91v.02c0 1.07.33 1.9.98 2.51s1.55.91 2.7.91c1.07 0 1.93-.26 2.56-.79s.95-1.23.95-2.12c0-.57-.13-1.03-.39-1.39s-.64-.6-1.14-.72z" fill="#2a9900"/><g fill="#4b3eff"><path d="m92.97 10.81c-.54-.52-1.09-.91-1.66-1.16-.56-.26-1.16-.38-1.78-.38-.97 0-1.75.3-2.34.9s-.89 1.39-.89 2.39.28 1.75.85 2.33 1.32.87 2.27.87c.57 0 1.15-.12 1.74-.37.59-.24 1.24-.63 1.94-1.17l-.19 6.22c-.65.26-1.29.46-1.94.59s-1.29.2-1.94.2c-.81 0-1.58-.09-2.33-.27s-1.42-.44-2.02-.77c-1.46-.84-2.56-1.91-3.31-3.19-.75-1.29-1.12-2.77-1.12-4.44 0-1.23.21-2.38.64-3.43s1.04-1.98 1.86-2.79 1.77-1.43 2.85-1.85 2.25-.63 3.5-.63c.67 0 1.33.07 1.98.21s1.28.35 1.9.63v6.12z"/><path d="m97.72 20.78v-11.12h-3.31v-5.41h12.55v5.41h-3.31v11.12h-5.94z"/><path d="m60.65 7.93c0-.95 0-1.89 0-2.84.25-.41.45-.46.89-.24 3.45 1.73 6.9 3.45 10.35 5.18.13.06.19.05.29-.05.57-.58 1.14-1.17 1.73-1.72.71-.67 1.8-.66 2.52 0 .19.18.38.36.56.55.19.21.38.36.7.33.25-.03.45.2.47.45.02.24-.14.48-.38.54-.11.02-.23 0-.34.03-.08.01-.17.04-.22.09-.18.17-.35.36-.54.53-.12.11-.17.23-.17.4 0 .55.02 1.1-.04 1.64-.15 1.47-.72 2.77-1.72 3.86-1.23 1.35-2.76 2.11-4.58 2.24-.68.05-1.37.02-2.05.04-.09 0-.2.05-.26.11-.63.62-1.25 1.25-1.88 1.87-.11.1-.27.2-.41.2-1.11.02-2.21.01-3.32 0-.25 0-.44-.18-.49-.42-.04-.22.07-.38.22-.53 1.67-1.67 3.35-3.34 5.02-5.02.05-.05.09-.09.15-.16-.07-.02-.11-.02-.15-.03-3.17-.56-5.63-3-6.21-6.15-.05-.3-.09-.6-.13-.89z"/><path d="m67.93 3.62c.13.13.29.24.39.39.98 1.47 1.95 2.94 2.92 4.41.03.05.06.1.07.17-1.72-.86-3.44-1.72-5.18-2.59.04-.07.07-.14.11-.2.36-.62.71-1.25 1.08-1.86.08-.13.22-.21.34-.32z"/></g></svg>