<svg viewBox="0 0 101.84 20.81" xmlns="http://www.w3.org/2000/svg"><path d="m77.65 20.73v-15.78h5.76v15.77h-5.76z" fill="#c6002a"/><path d="m84.38 20.73 5.62-15.77h6.31l5.52 15.77h-6.1l-.51-1.98h-4.28l-.49 1.98h-6.09zm7.52-5.73h2.36l-.48-1.79c-.24-.91-.4-1.6-.48-2.09-.09-.49-.14-.95-.16-1.38h-.1c-.02.43-.08.89-.16 1.38-.09.49-.25 1.19-.48 2.09l-.49 1.79z" fill="#c6002a"/><g fill="#0068d3"><path d="m58.74 0h-58.13c-.33 0-.61.3-.61.66v.42c0 .36.28.66.61.66h58.13c.34 0 .61-.3.61-.66v-.42c0-.36-.28-.66-.61-.66"/><path d="m9.81 10.35h-.58v1.84h.58c.35 0 .62-.08.81-.24s.28-.38.28-.67-.1-.52-.29-.68-.46-.25-.8-.25z"/><path d="m51.51 4.07h-43.67c-4.31 0-7.84 3.77-7.84 8.37s3.53 8.37 7.84 8.37h43.67c4.31 0 7.84-3.77 7.84-8.37s-3.53-8.37-7.84-8.37zm-38.04 10.09c-.65.6-1.68.9-3.09.9h-1.16v3.25h-3.72v-11.02h4.44c1.56 0 2.7.32 3.43.96.72.64 1.08 1.66 1.08 3.06 0 1.3-.33 2.25-.98 2.85zm6.11 4.15h-3.78v-11.02h3.78v11.03zm9.52-.23c-.41.18-.81.31-1.21.4-.41.09-.81.13-1.21.13-.5 0-.99-.06-1.45-.18-.47-.12-.89-.29-1.26-.51-.91-.56-1.6-1.27-2.07-2.13s-.7-1.84-.7-2.96c0-.82.13-1.59.4-2.29s.65-1.32 1.16-1.86 1.11-.95 1.78-1.23c.68-.28 1.41-.42 2.19-.42.42 0 .83.05 1.24.14s.8.23 1.19.42v4.08c-.34-.35-.68-.61-1.04-.78s-.73-.26-1.12-.26c-.61 0-1.1.2-1.46.6-.37.4-.55.93-.55 1.59s.18 1.16.53 1.55.83.58 1.42.58c.36 0 .72-.08 1.09-.25.37-.16.77-.42 1.21-.78l-.12 4.15zm7.83.23-2.51-4.61v4.61h-3.64v-11.02h3.64v4.7l2.36-4.7h4.21l-3.12 5.43 3.56 5.6h-4.5zm12.47.73c-3.32 0-6.02-2.88-6.02-6.42s2.7-6.42 6.02-6.42 6.02 2.88 6.02 6.42-2.69 6.42-6.02 6.42z"/><path d="m51.47 12.29c.41-.15.71-.38.91-.68s.3-.68.3-1.14c0-.76-.29-1.37-.87-1.83-.58-.47-1.35-.7-2.31-.7-1.08 0-1.89.26-2.46.77-.56.51-.85 1.26-.87 2.25h2.8c0-.21.04-.36.12-.47s.19-.16.34-.16c.14 0 .25.05.34.15s.13.23.13.38c0 .21-.07.36-.2.47s-.33.16-.59.16h-.13v1.83s.05 0 .08 0h.13c.27 0 .47.07.61.2s.21.32.21.58c0 .22-.06.39-.18.53-.12.13-.28.2-.48.2s-.36-.08-.46-.23c-.11-.15-.17-.38-.18-.69h-2.92v.02c0 1.07.33 1.91.98 2.51.65.61 1.55.91 2.7.91 1.07 0 1.93-.26 2.56-.79s.95-1.24.95-2.12c0-.57-.13-1.03-.39-1.4-.26-.36-.64-.6-1.14-.72z"/></g><path d="m96.88.05h-35.85c-.22 0-.41.3-.41.66v.42c0 .36.18.66.41.66h35.85c.22 0 .41-.3.41-.66v-.42c0-.36-.18-.66-.41-.66" fill="#c6002a"/><path d="m69.27 20.67h-2.77c.04-.16.08-.32.11-.48.12-.67.29-1.34.35-2.02.05-.59-.02-1.19-.04-1.78 0-.16-.02-.31-.03-.47-.3-.03-.46-.08-.72-.23-.18-.11-.37-.22-.55-.34-.08-.05-.14-.06-.22-.02-1.55.67-3.23-.41-3.25-2.09 0-.1-.03-.17-.1-.24-1.08-.99-.98-2.69.21-3.56.08-.06.12-.12.11-.23-.03-1.13.8-2.14 1.91-2.32.23-.04.46-.03.68-.05.21-.94.76-1.61 1.71-1.84 1.11-.27 1.97.16 2.6 1.1.05-.02.09-.04.14-.07 1.15-.59 2.58-.1 3.12 1.08.06.13.13.19.28.21 1.34.23 2.19 1.64 1.77 2.93-.04.12-.02.19.06.29.86 1.1.51 2.78-.73 3.42-.21.11-.31.23-.36.46-.26 1.12-1.3 1.84-2.44 1.74-.4-.03-.76-.17-1.04-.34-.28.25-.53.49-.8.73-.17.15-.24.32-.28.54-.12.75-.18 1.49.01 2.24.11.45.19.9.29 1.35zm-.26-6.49c-.24.05-.38.16-.4.39-.01.15-.08.3-.1.45-.03.22-.07.44-.07.65 0 .22.12.32.31.25.32-.11.57-.3.82-.53-.31-.35-.5-.76-.57-1.22zm-2.18.03c.21.42.39.81.68 1.13.18.2.33.18.42-.07.1-.26.16-.53.25-.83-.49.05-.92-.02-1.36-.23zm-.76.69c.27.16.53.34.9.33-.15-.32-.3-.62-.44-.93-.16.21-.3.39-.45.6z" fill="#c6002a"/></svg>