<svg viewBox="0 0 104.55 20.85" xmlns="http://www.w3.org/2000/svg"><path d="m80.65 20.73v-15.78h5.76v15.77h-5.76z" fill="#1a71db"/><path d="m89.47 20.73v-15.78h4.59c1.46 0 2.7.08 3.73.24s1.87.41 2.52.75c1.36.72 2.41 1.67 3.14 2.86s1.09 2.54 1.09 4.05-.36 2.85-1.09 4.03-1.77 2.13-3.15 2.86c-.67.34-1.52.6-2.54.75-1.03.16-2.4.24-4.13.24h-4.17zm5.62-4.82c1.28 0 2.21-.26 2.8-.75s.88-1.26.88-2.31-.28-1.79-.85-2.29c-.56-.5-1.43-.75-2.59-.75h-.25v6.11z" fill="#1a71db"/><path d="m58.74 0h-58.13c-.33 0-.61.3-.61.66v.42c0 .36.28.66.61.66h58.13c.34 0 .61-.3.61-.66v-.42c0-.36-.28-.66-.61-.66" fill="#597e20"/><path d="m9.81 10.35h-.58v1.84h.58c.35 0 .62-.08.81-.24s.28-.38.28-.67-.1-.52-.29-.68-.46-.25-.8-.25z" fill="#597e20"/><path d="m51.51 4.07h-43.67c-4.31 0-7.84 3.77-7.84 8.37s3.53 8.37 7.84 8.37h43.67c4.31 0 7.84-3.77 7.84-8.37s-3.53-8.37-7.84-8.37zm-38.04 10.09c-.65.6-1.68.9-3.09.9h-1.16v3.25h-3.72v-11.02h4.44c1.56 0 2.7.32 3.43.96.72.64 1.08 1.66 1.08 3.06 0 1.3-.33 2.25-.98 2.85zm6.11 4.15h-3.78v-11.02h3.78v11.03zm9.52-.23c-.41.18-.81.31-1.21.4-.41.09-.81.13-1.21.13-.5 0-.99-.06-1.45-.18-.47-.12-.89-.29-1.26-.51-.91-.56-1.6-1.27-2.07-2.13s-.7-1.84-.7-2.96c0-.82.13-1.59.4-2.29s.65-1.32 1.16-1.86 1.11-.95 1.78-1.23c.68-.28 1.41-.42 2.19-.42.42 0 .83.05 1.24.14s.8.23 1.19.42v4.08c-.34-.35-.68-.61-1.04-.78s-.73-.26-1.12-.26c-.61 0-1.1.2-1.46.6-.37.4-.55.93-.55 1.59s.18 1.16.53 1.55.83.58 1.42.58c.36 0 .72-.08 1.09-.25.37-.16.77-.42 1.21-.78l-.12 4.15zm7.83.23-2.51-4.61v4.61h-3.64v-11.02h3.64v4.7l2.36-4.7h4.21l-3.12 5.43 3.56 5.6h-4.5zm12.47.73c-3.32 0-6.02-2.88-6.02-6.42s2.7-6.42 6.02-6.42 6.02 2.88 6.02 6.42-2.69 6.42-6.02 6.42z" fill="#597e20"/><path d="m51.47 12.29c.41-.15.71-.38.91-.68s.3-.68.3-1.14c0-.76-.29-1.37-.87-1.83-.58-.47-1.35-.7-2.31-.7-1.08 0-1.89.26-2.46.77-.56.51-.85 1.26-.87 2.25h2.8c0-.21.04-.36.12-.47s.19-.16.34-.16c.14 0 .25.05.34.15s.13.23.13.38c0 .21-.07.36-.2.47s-.33.16-.59.16h-.13v1.83s.05 0 .08 0h.13c.27 0 .47.07.61.2s.21.32.21.58c0 .22-.06.39-.18.53-.12.13-.28.2-.48.2s-.36-.08-.46-.23c-.11-.15-.17-.38-.18-.69h-2.92v.02c0 1.07.33 1.91.98 2.51.65.61 1.55.91 2.7.91 1.07 0 1.93-.26 2.56-.79s.95-1.24.95-2.12c0-.57-.13-1.03-.39-1.4-.26-.36-.64-.6-1.14-.72z" fill="#597e20"/><g fill="#1a71db"><path d="m104.06.05h-42.95c-.27 0-.49.3-.49.66v.42c0 .36.22.66.49.66h42.95c.27 0 .49-.3.49-.66v-.42c0-.36-.22-.66-.49-.66"/><path d="m69.98 20.85c-.44-.16-.9-.22-1.37-.23-.63-.02-1.24-.16-1.72-.59-.25-.22-.44-.5-.65-.76-.03-.04-.03-.1-.03-.15.02-.21.05-.43.08-.64 0 0 .01 0 .02.02.48.82 1.21 1.28 2.12 1.49.39.09.78.19 1.17.3.08.02.16.1.22.16.08.08.16.18.23.27.04.05.08.1.12.15h-.2z"/><path d="m62.67 10.06c.02-1.28.07-2.45.3-3.6.12-.6.28-1.19.6-1.73.31-.51.78-.7 1.27-.5.35.14.55.43.71.76.27.56.41 1.15.43 1.76.02.5.26.86.59 1.17.4.37.83.7 1.26 1.03.26.2.5.4.66.68.22.4.29.83.23 1.27-.01.11-.08.23-.15.31-.84 1.03-1.6 2.11-2.16 3.32-.37.81-.65 1.65-.63 2.55 0 .17.03.35.06.52.02.11 0 .19-.13.19-.2 0-.4 0-.59-.04-.07-.01-.13-.09-.18-.15-.76-1.03-1.29-2.18-1.68-3.4-.43-1.38-.63-2.8-.59-4.14z"/><path d="m66.34 18.01c-.16-.05-.22-.15-.23-.29-.04-.63.07-1.24.28-1.84.31-.91.82-1.72 1.37-2.5.85-1.19 1.82-2.26 2.98-3.14.82-.63 1.71-1.13 2.72-1.39.62-.16 1.25-.22 1.89-.11.26.04.45.24.6.45.26.37.32.79.23 1.21-.07.34-.18.68-.33 1-.28.6-.28 1.19 0 1.79.16.33.31.66.28 1.04-.02.33-.14.62-.34.88-.03.04-.12.07-.18.06-1.17-.18-2.34-.16-3.51-.09-.81.05-1.61.12-2.41.24-.85.13-1.67.4-2.37.93-.48.35-.82.8-.95 1.4-.01.06-.01.13-.02.19 0 .06-.01.11-.02.18z"/><path d="m70.15 19.84c-.74 0-1.47-.05-2.18-.3-.51-.18-.95-.44-1.26-.9-.11-.17-.13-.34-.1-.53.1-.63.46-1.1.96-1.48.62-.46 1.34-.71 2.08-.88.78-.18 1.56-.26 2.36-.29.85-.03 1.7-.05 2.56-.03.68 0 1.36.07 2 .29.21.07.42.18.6.32.27.21.29.49.06.73-.2.21-.44.4-.68.57-.1.08-.14.14-.13.27.04.56-.2.95-.71 1.17-.73.31-1.5.49-2.28.65-1.07.23-2.16.37-3.27.38z"/><path d="m63.66 18.12c.42.03.81.13 1.19.3.04.02.1.05.14.04.05-.02.1-.07.12-.12.01-.03-.03-.1-.06-.13-.64-.57-1.37-.93-2.23-.99-.05 0-.1-.06-.14-.09.05-.02.11-.07.16-.06.89.05 1.65.41 2.31 1 .1.09.19.13.33.11.35-.06.67.2.7.54.03.36-.21.66-.56.69s-.66-.24-.67-.6c0-.14-.06-.2-.18-.25-.55-.22-1.11-.33-1.7-.17-.05.01-.1-.02-.16-.04.04-.04.07-.11.12-.12.21-.05.43-.08.64-.11z"/></g></svg>