<svg viewBox="0 0 100.67 20.89" xmlns="http://www.w3.org/2000/svg"><g fill="#bc5b1a"><path d="m78.36 7.17c-.05.36-.09.71-.15 1.07-.19 1.12-.61 2.15-1.45 2.95-.42.39-.9.71-1.37 1.05-.56.4-1.14.75-1.7 1.16-.38.28-.69.65-.9 1.08-.39.83-1.07 1.2-1.95 1.27-.11 0-.13.05-.14.15-.04.82.22 1.5.88 2.02.69.54 1.37 1.09 2.06 1.63.05.04.1.08.15.13-1.55 1.35-3.8 1.14-5.22-.05.15-.24.3-.48.45-.73.06-.1.12-.2.17-.31.06-.15 0-.35-.1-.42-.16-.09-.27 0-.37.11-.23.28-.44.57-.66.86-.12.16-.26.29-.47.35-.24.07-.41.37-.37.63 0 .05.08.1.13.12.26.13.35.22.4.47-.53-.19-1.03-.1-1.5.17l-.04-.03c.06-.09.12-.19.18-.3-.28-.04-.52.05-.78.18.06-.11.13-.23.21-.37-.2.04-.39.08-.57.12.05-.14.19-.25.42-.31.17-.04.34-.06.51-.08.32-.04.61-.43.55-.76-.03-.14-.04-.28-.07-.46-.07.02-.17.05-.25.08-.1.04-.15.11-.13.24.02.19-.01.39-.06.6-.2-.23-.44-.4-.72-.43-.27-.03-.54 0-.83 0 .09-.1.17-.21.29-.35-.22.02-.42.05-.65.07.08-.11.16-.21.26-.33-.17-.02-.34-.04-.53-.06.13-.17.3-.22.48-.19.3.04.59.09.88.16.42.1.49.06.53-.38 0-.05 0-.1 0-.15-.04-.23.03-.43.13-.63.18-.36.38-.72.5-1.1.19-.63-.09-1.14-.65-1.32-.22-.07-.44-.07-.64.06-.22.14-.46.17-.71.13-.36-.05-.68-.02-.87.38-.14-.35-.08-.65.03-.94.04-.1.09-.2.09-.29.01-.5.3-.83.69-1.08.49-.31 1.05-.4 1.62-.39.45 0 .9.08 1.35.12.19.02.38.04.57.03.6 0 .93-.41 1.14-.9.23-.53.39-1.09.59-1.64.56-1.55 1.59-2.7 2.99-3.55 1.66-1.01 3.44-1.76 5.26-2.4.02 0 .05 0 .11-.02.06.43.12.85.17 1.28.01.09.02.18.03.27v1.03zm-13.66 6.92c-.02-.14-.1-.22-.23-.21-.13 0-.21.09-.2.23 0 .13.09.2.22.2.14 0 .2-.09.22-.22z"/><path d="m59.97 4.12c.4.43.76.88 1.18 1.25.81.71 1.65 1.39 2.51 2.04 1.78 1.35 3.09 3.06 3.95 5.11.02.06.04.11.07.2-.21-.03-.4-.05-.59-.07-.56-.07-1.12-.08-1.68 0-.09.01-.13-.02-.19-.08-.19-.18-.39-.35-.62-.47-.8-.42-1.62-.79-2.4-1.22-.87-.48-1.6-1.13-2.09-2.02-.47-.85-.61-1.77-.55-2.73.05-.69.2-1.35.41-2.01z"/><path d="m80.65 20.73v-15.78h5.76v15.77h-5.76z"/><path d="m89.47 20.73v-15.78h5.68v10.66h5.52v5.12z"/></g><path d="m58.74 0h-58.13c-.33 0-.61.3-.61.66v.42c0 .36.28.66.61.66h58.13c.34 0 .61-.3.61-.66v-.42c0-.36-.28-.66-.61-.66" fill="#0d87ff"/><path d="m9.81 10.35h-.58v1.84h.58c.35 0 .62-.08.81-.24s.28-.38.28-.67-.1-.52-.29-.68-.46-.25-.8-.25z" fill="#0d87ff"/><path d="m51.51 4.07h-43.67c-4.31 0-7.84 3.77-7.84 8.37s3.53 8.37 7.84 8.37h43.67c4.31 0 7.84-3.77 7.84-8.37s-3.53-8.37-7.84-8.37zm-38.04 10.09c-.65.6-1.68.9-3.09.9h-1.16v3.25h-3.72v-11.02h4.44c1.56 0 2.7.32 3.43.96.72.64 1.08 1.66 1.08 3.06 0 1.3-.33 2.25-.98 2.85zm6.11 4.15h-3.78v-11.02h3.78v11.03zm9.52-.23c-.41.18-.81.31-1.21.4-.41.09-.81.13-1.21.13-.5 0-.99-.06-1.45-.18-.47-.12-.89-.29-1.26-.51-.91-.56-1.6-1.27-2.07-2.13s-.7-1.84-.7-2.96c0-.82.13-1.59.4-2.29s.65-1.32 1.16-1.86 1.11-.95 1.78-1.23c.68-.28 1.41-.42 2.19-.42.42 0 .83.05 1.24.14s.8.23 1.19.42v4.08c-.34-.35-.68-.61-1.04-.78s-.73-.26-1.12-.26c-.61 0-1.1.2-1.46.6-.37.4-.55.93-.55 1.59s.18 1.16.53 1.55.83.58 1.42.58c.36 0 .72-.08 1.09-.25.37-.16.77-.42 1.21-.78l-.12 4.15zm7.83.23-2.51-4.61v4.61h-3.64v-11.02h3.64v4.7l2.36-4.7h4.21l-3.12 5.43 3.56 5.6h-4.5zm12.47.73c-3.32 0-6.02-2.88-6.02-6.42s2.7-6.42 6.02-6.42 6.02 2.88 6.02 6.42-2.69 6.42-6.02 6.42z" fill="#0d87ff"/><path d="m51.47 12.29c.41-.15.71-.38.91-.68s.3-.68.3-1.14c0-.76-.29-1.37-.87-1.83-.58-.47-1.35-.7-2.31-.7-1.08 0-1.89.26-2.46.77-.56.51-.85 1.26-.87 2.25h2.8c0-.21.04-.36.12-.47s.19-.16.34-.16c.14 0 .25.05.34.15s.13.23.13.38c0 .21-.07.36-.2.47s-.33.16-.59.16h-.13v1.83s.05 0 .08 0h.13c.27 0 .47.07.61.2s.21.32.21.58c0 .22-.06.39-.18.53-.12.13-.28.2-.48.2s-.36-.08-.46-.23c-.11-.15-.17-.38-.18-.69h-2.92v.02c0 1.07.33 1.91.98 2.51.65.61 1.55.91 2.7.91 1.07 0 1.93-.26 2.56-.79s.95-1.24.95-2.12c0-.57-.13-1.03-.39-1.4-.26-.36-.64-.6-1.14-.72z" fill="#0d87ff"/><path d="m95.08.05h-34.07c-.21 0-.39.3-.39.66v.42c0 .36.17.66.39.66h34.07c.21 0 .39-.3.39-.66v-.42c0-.36-.17-.66-.39-.66" fill="#bc5b1a"/></svg>