<svg viewBox="0 0 105.57 20.81" xmlns="http://www.w3.org/2000/svg"><path d="m80.65 20.73v-15.78h5.76v15.77h-5.76z" fill="#75007a"/><path d="m89.47 20.73v-15.78h5.56l4.9 8.25c-.06-.37-.11-.77-.13-1.22s-.04-1.03-.04-1.75v-5.28h5.46v15.77h-5.6l-4.85-8.19c.06.35.1.73.13 1.14s.04.86.04 1.36v5.69h-5.47z" fill="#75007a"/><g fill="#004277"><path d="m58.74 0h-58.13c-.33 0-.61.3-.61.66v.42c0 .36.28.66.61.66h58.13c.34 0 .61-.3.61-.66v-.42c0-.36-.28-.66-.61-.66"/><path d="m9.81 10.35h-.58v1.84h.58c.35 0 .62-.08.81-.24s.28-.38.28-.67-.1-.52-.29-.68-.46-.25-.8-.25z"/><path d="m51.51 4.07h-43.67c-4.31 0-7.84 3.77-7.84 8.37s3.53 8.37 7.84 8.37h43.67c4.31 0 7.84-3.77 7.84-8.37s-3.53-8.37-7.84-8.37zm-38.04 10.09c-.65.6-1.68.9-3.09.9h-1.16v3.25h-3.72v-11.02h4.44c1.56 0 2.7.32 3.43.96.72.64 1.08 1.66 1.08 3.06 0 1.3-.33 2.25-.98 2.85zm6.11 4.15h-3.78v-11.02h3.78v11.03zm9.52-.23c-.41.18-.81.31-1.21.4-.41.09-.81.13-1.21.13-.5 0-.99-.06-1.45-.18-.47-.12-.89-.29-1.26-.51-.91-.56-1.6-1.27-2.07-2.13s-.7-1.84-.7-2.96c0-.82.13-1.59.4-2.29s.65-1.32 1.16-1.86 1.11-.95 1.78-1.23c.68-.28 1.41-.42 2.19-.42.42 0 .83.05 1.24.14s.8.23 1.19.42v4.08c-.34-.35-.68-.61-1.04-.78s-.73-.26-1.12-.26c-.61 0-1.1.2-1.46.6-.37.4-.55.93-.55 1.59s.18 1.16.53 1.55.83.58 1.42.58c.36 0 .72-.08 1.09-.25.37-.16.77-.42 1.21-.78l-.12 4.15zm7.83.23-2.51-4.61v4.61h-3.64v-11.02h3.64v4.7l2.36-4.7h4.21l-3.12 5.43 3.56 5.6h-4.5zm12.47.73c-3.32 0-6.02-2.88-6.02-6.42s2.7-6.42 6.02-6.42 6.02 2.88 6.02 6.42-2.69 6.42-6.02 6.42z"/><path d="m51.47 12.29c.41-.15.71-.38.91-.68s.3-.68.3-1.14c0-.76-.29-1.37-.87-1.83-.58-.47-1.35-.7-2.31-.7-1.08 0-1.89.26-2.46.77-.56.51-.85 1.26-.87 2.25h2.8c0-.21.04-.36.12-.47s.19-.16.34-.16c.14 0 .25.05.34.15s.13.23.13.38c0 .21-.07.36-.2.47s-.33.16-.59.16h-.13v1.83s.05 0 .08 0h.13c.27 0 .47.07.61.2s.21.32.21.58c0 .22-.06.39-.18.53-.12.13-.28.2-.48.2s-.36-.08-.46-.23c-.11-.15-.17-.38-.18-.69h-2.92v.02c0 1.07.33 1.91.98 2.51.65.61 1.55.91 2.7.91 1.07 0 1.93-.26 2.56-.79s.95-1.24.95-2.12c0-.57-.13-1.03-.39-1.4-.26-.36-.64-.6-1.14-.72z"/></g><path d="m105.07.05h-43.95c-.28 0-.5.3-.5.66v.42c0 .36.22.66.5.66h43.95c.28 0 .5-.3.5-.66v-.42c0-.36-.22-.66-.5-.66" fill="#75007a"/><path d="m74.97 9.97c-.47.45-.52 1.02-.54 1.61-.01.38-.01.77-.05 1.15-.03.31-.15.6-.37.84-.05.06-.15.11-.23.11-2.63 0-5.26 0-7.89 0-.07 0-.16-.03-.22-.07-.63-.39-1.02-.95-1.14-1.69-.1-.62-.17-1.22.06-1.83.15-.4.39-.75.73-1.02.27-.22.54-.43.78-.67.21-.21.35-.46.38-.77.02-.26-.04-.5-.2-.73.16.06.32.12.47.19 1.03.52 1.4 1.76.83 2.75-.09.16-.19.33-.27.5-.06.13-.09.27-.11.41-.04.39.12.63.42.7.41.1.78-.06.92-.4s.15-.7.12-1.07c-.03-.46-.17-.9-.39-1.31-.25-.48-.42-.97-.42-1.52 0-.81.28-1.5.84-2.08.27-.27.55-.53.82-.8.15-.15.29-.31.42-.48.12-.17.22-.36.32-.53.02.2.03.42.07.64.06.35.23.64.5.88.64.56 1.22 1.16 1.69 1.87.37.56.64 1.15.71 1.82.06.6-.06 1.16-.37 1.68-.17.28-.37.55-.57.82-.14.2-.27.4-.27.65 0 .39.29.59.65.44.42-.18.61-.53.69-.96.01-.07.02-.14.04-.2.13-.72.85-1.14 1.58-.91z" fill="#75007a"/><path d="m64.45 14.58h10.54c-.29 1.17-.58 2.33-.88 3.51-.54 0-1.06 0-1.59 0-.13 0-.19.04-.23.17-.25.78-.52 1.55-.77 2.33-.04.12-.1.15-.22.15-1.07 0-2.13 0-3.2 0-.12 0-.18-.03-.22-.15-.25-.78-.51-1.55-.76-2.33-.04-.13-.1-.17-.23-.16-.49 0-.97 0-1.46 0-.09 0-.14-.02-.17-.12-.27-1.09-.54-2.19-.82-3.28 0-.03 0-.07-.01-.11z" fill="#75007a"/></svg>