<svg viewBox="0 0 107.99 21.15" xmlns="http://www.w3.org/2000/svg"><path d="m79.54 20.73v-15.78h5.56v6.72l3.6-6.72h6.42l-4.76 7.77 5.43 8.01h-6.86l-3.83-6.59v6.59z" fill="#d18215"/><path d="m94.97 19.38 1.81-4.42c.81.57 1.54.98 2.17 1.24s1.23.39 1.78.39c.39 0 .69-.07.92-.22.22-.15.33-.35.33-.6 0-.44-.56-.77-1.67-1-.36-.08-.64-.14-.84-.18-1.18-.29-2.08-.8-2.7-1.53s-.94-1.65-.94-2.74c0-1.7.61-3.07 1.82-4.14 1.21-1.06 2.81-1.59 4.77-1.59.91 0 1.8.12 2.67.36.88.24 1.76.6 2.65 1.08l-1.72 4.13c-.55-.4-1.09-.71-1.64-.92s-1.08-.32-1.6-.32c-.4 0-.7.07-.92.2s-.32.32-.32.55c0 .45.79.84 2.36 1.17.25.06.45.1.58.13 1.08.24 1.94.74 2.56 1.5s.94 1.67.94 2.74c0 1.75-.63 3.17-1.89 4.28s-2.9 1.66-4.92 1.66c-1.03 0-2.07-.15-3.1-.44s-2.07-.74-3.1-1.33z" fill="#d18215"/><path d="m58.74 0h-58.13c-.33 0-.61.3-.61.66v.42c0 .36.28.66.61.66h58.13c.34 0 .61-.3.61-.66v-.42c0-.36-.28-.66-.61-.66" fill="#0d70ff"/><path d="m9.81 10.35h-.58v1.84h.58c.35 0 .62-.08.81-.24s.28-.38.28-.67-.1-.52-.29-.68-.46-.25-.8-.25z" fill="#0d70ff"/><path d="m51.51 4.07h-43.67c-4.31 0-7.84 3.77-7.84 8.37s3.53 8.37 7.84 8.37h43.67c4.31 0 7.84-3.77 7.84-8.37s-3.53-8.37-7.84-8.37zm-38.04 10.09c-.65.6-1.68.9-3.09.9h-1.16v3.25h-3.72v-11.02h4.44c1.56 0 2.7.32 3.43.96.72.64 1.08 1.66 1.08 3.06 0 1.3-.33 2.25-.98 2.85zm6.11 4.15h-3.78v-11.02h3.78v11.03zm9.52-.23c-.41.18-.81.31-1.21.4-.41.09-.81.13-1.21.13-.5 0-.99-.06-1.45-.18-.47-.12-.89-.29-1.26-.51-.91-.56-1.6-1.27-2.07-2.13s-.7-1.84-.7-2.96c0-.82.13-1.59.4-2.29s.65-1.32 1.16-1.86 1.11-.95 1.78-1.23c.68-.28 1.41-.42 2.19-.42.42 0 .83.05 1.24.14s.8.23 1.19.42v4.08c-.34-.35-.68-.61-1.04-.78s-.73-.26-1.12-.26c-.61 0-1.1.2-1.46.6-.37.4-.55.93-.55 1.59s.18 1.16.53 1.55.83.58 1.42.58c.36 0 .72-.08 1.09-.25.37-.16.77-.42 1.21-.78l-.12 4.15zm7.83.23-2.51-4.61v4.61h-3.64v-11.02h3.64v4.7l2.36-4.7h4.21l-3.12 5.43 3.56 5.6h-4.5zm12.47.73c-3.32 0-6.02-2.88-6.02-6.42s2.7-6.42 6.02-6.42 6.02 2.88 6.02 6.42-2.69 6.42-6.02 6.42z" fill="#0d70ff"/><path d="m51.47 12.29c.41-.15.71-.38.91-.68s.3-.68.3-1.14c0-.76-.29-1.37-.87-1.83-.58-.47-1.35-.7-2.31-.7-1.08 0-1.89.26-2.46.77-.56.51-.85 1.26-.87 2.25h2.8c0-.21.04-.36.12-.47s.19-.16.34-.16c.14 0 .25.05.34.15s.13.23.13.38c0 .21-.07.36-.2.47s-.33.16-.59.16h-.13v1.83s.05 0 .08 0h.13c.27 0 .47.07.61.2s.21.32.21.58c0 .22-.06.39-.18.53-.12.13-.28.2-.48.2s-.36-.08-.46-.23c-.11-.15-.17-.38-.18-.69h-2.92v.02c0 1.07.33 1.91.98 2.51.65.61 1.55.91 2.7.91 1.07 0 1.93-.26 2.56-.79s.95-1.24.95-2.12c0-.57-.13-1.03-.39-1.4-.26-.36-.64-.6-1.14-.72z" fill="#0d70ff"/><g fill="#d18215"><path d="m107.46.05h-46.31c-.29 0-.53.3-.53.66v.42c0 .36.24.66.53.66h46.31c.29 0 .53-.3.53-.66v-.42c0-.36-.24-.66-.53-.66"/><path d="m73.03 12.41c0 2.29-1.86 4.18-4.15 4.19-2.32 0-4.2-1.86-4.2-4.17s1.86-4.17 4.18-4.17c2.29 0 4.17 1.86 4.18 4.16z"/><path d="m68.29 8c-1.23.19-2.2.74-2.98 1.71-.16-.27-.32-.5-.44-.76-.31-.66-.41-1.38-.41-2.1 0-.53.06-1.05.1-1.58.01-.18.09-.23.23-.18 1.17.48 2.24 1.11 3.02 2.13.18.23.31.5.48.77z"/><path d="m72.97 14.12c.44-1.42.44-1.86.01-3.37.46-.11.92-.07 1.38.04.97.23 1.79.74 2.59 1.32.08.06.16.12.24.19.14.11.15.19 0 .29-.49.32-.97.66-1.49.94-.76.41-1.58.66-2.46.62-.08 0-.17-.02-.27-.02z"/><path d="m69.39 16.84c1.24-.19 2.21-.74 2.97-1.69.27.29.45.62.58.98.28.77.33 1.57.29 2.38-.02.35-.06.7-.1 1.05-.02.18-.09.23-.23.17-1.12-.46-2.15-1.06-2.93-2.01-.22-.26-.38-.57-.59-.89z"/><path d="m65.31 15.12c.76.96 1.73 1.52 2.92 1.71-.14.46-.4.83-.72 1.17-.69.73-1.55 1.2-2.46 1.6-.08.03-.16.07-.24.1-.19.08-.27.04-.28-.16-.03-.38-.08-.76-.08-1.14-.02-.94.1-1.87.53-2.72.09-.19.21-.36.33-.55z"/><path d="m69.46 8.01c.17-.54.49-.95.88-1.33.75-.71 1.65-1.17 2.59-1.56.14-.06.21-.01.23.15.09.65.12 1.31.06 1.97-.05.64-.18 1.26-.46 1.83-.11.22-.24.42-.37.65-.77-.96-1.74-1.53-2.93-1.71z"/><path d="m64.74 10.69c-.45 1.16-.46 2.27-.02 3.4-.46.1-.9.07-1.34-.03-.99-.23-1.84-.75-2.65-1.34-.06-.05-.13-.1-.19-.14-.19-.15-.2-.22 0-.35.51-.33 1.01-.67 1.54-.95.63-.34 1.32-.55 2.04-.57h.61z"/><path d="m67.32 18.56c.37-.33.69-.67.93-1.09.09-.16.16-.33.23-.49.03-.08.06-.12.15-.12.16.01.36-.05.48.02s.16.27.24.41c.23.43.54.79.89 1.13.04.04.08.12.07.16-.3.78-.66 1.53-1.25 2.14-.19.2-.22.2-.42 0-.6-.63-.98-1.38-1.32-2.16z"/><path d="m62.88 16.92c-.33-.05-.76-.11-1.18-.18-.16-.02-.2-.11-.16-.27.23-.83.68-1.55 1.19-2.23.03-.03.12-.04.17-.03.44.14.88.22 1.34.21.16 0 .32-.02.47-.05.09-.02.13 0 .17.08.07.15.23.3.23.45 0 .14-.16.27-.25.41-.25.41-.42.84-.51 1.31-.03.12-.08.18-.21.19-.39.03-.78.07-1.27.12z"/><path d="m72.53 14.93c.11-.18.21-.36.32-.54.36 0 .73.02 1.1 0 .26-.02.52-.11.78-.16.06-.01.15 0 .17.03.53.66 1 1.36 1.24 2.19.06.23.04.27-.19.32-.67.17-1.35.17-2.03.12-.17-.01-.38.01-.49-.08-.1-.08-.1-.3-.14-.46-.16-.57-.34-.91-.76-1.42z"/><path d="m65.17 9.91c-.1.17-.18.33-.27.47-.02.04-.09.07-.13.07-.62-.07-1.22 0-1.81.18-.05.02-.15 0-.18-.03-.52-.65-.99-1.34-1.22-2.16-.06-.22-.04-.25.18-.31.66-.17 1.34-.17 2.01-.13.18.01.41-.02.53.08.11.09.1.32.15.49.15.5.38.96.74 1.34z"/><path d="m74.8 7.96c.34.05.76.1 1.18.17.2.03.22.09.17.29-.22.82-.67 1.52-1.16 2.19-.02.03-.12.04-.17.02-.52-.16-1.05-.29-1.59-.19-.31.06-.44-.04-.56-.29-.08-.16-.09-.25.02-.4.34-.44.53-.96.66-1.5.02-.1.06-.16.17-.17.4-.04.8-.08 1.29-.13z"/><path d="m69.17 7.98h-.62c-.24-.62-.63-1.13-1.1-1.57-.03-.03-.05-.1-.04-.14.31-.78.67-1.53 1.27-2.14.15-.15.19-.15.34 0 .59.6.97 1.33 1.3 2.09.02.04-.02.13-.06.16-.33.32-.64.66-.86 1.07-.09.17-.16.35-.24.53z"/></g></svg>