<svg viewBox="0 0 110.46 20.81" xmlns="http://www.w3.org/2000/svg"><path d="m76.78 20.53v-16.39h5.77v6.98l3.74-6.98h6.67l-4.95 8.07 5.64 8.32h-7.13l-3.97-6.85v6.85z" fill="#df2066"/><path d="m98.84 20.53v-7.24l-5.48-9.14h6.72l1.38 3.18c.13.28.28.69.45 1.24l.03.11c.08-.26.22-.65.43-1.15.04-.09.06-.15.08-.19l1.35-3.19h6.67l-5.69 9.14v7.24h-5.93z" fill="#df2066"/><path d="m58.74 0h-58.13c-.33 0-.61.3-.61.66v.42c0 .36.28.66.61.66h58.13c.34 0 .61-.3.61-.66v-.42c0-.36-.28-.66-.61-.66" fill="#00a547"/><path d="m9.81 10.35h-.58v1.84h.58c.35 0 .62-.08.81-.24s.28-.38.28-.67-.1-.52-.29-.68-.46-.25-.8-.25z" fill="#00a547"/><path d="m51.51 4.07h-43.67c-4.31 0-7.84 3.77-7.84 8.37s3.53 8.37 7.84 8.37h43.67c4.31 0 7.84-3.77 7.84-8.37s-3.53-8.37-7.84-8.37zm-38.04 10.09c-.65.6-1.68.9-3.09.9h-1.16v3.25h-3.72v-11.02h4.44c1.56 0 2.7.32 3.43.96.72.64 1.08 1.66 1.08 3.06 0 1.3-.33 2.25-.98 2.85zm6.11 4.15h-3.78v-11.02h3.78v11.03zm9.52-.23c-.41.18-.81.31-1.21.4-.41.09-.81.13-1.21.13-.5 0-.99-.06-1.45-.18-.47-.12-.89-.29-1.26-.51-.91-.56-1.6-1.27-2.07-2.13s-.7-1.84-.7-2.96c0-.82.13-1.59.4-2.29s.65-1.32 1.16-1.86 1.11-.95 1.78-1.23c.68-.28 1.41-.42 2.19-.42.42 0 .83.05 1.24.14s.8.23 1.19.42v4.08c-.34-.35-.68-.61-1.04-.78s-.73-.26-1.12-.26c-.61 0-1.1.2-1.46.6-.37.4-.55.93-.55 1.59s.18 1.16.53 1.55.83.58 1.42.58c.36 0 .72-.08 1.09-.25.37-.16.77-.42 1.21-.78l-.12 4.15zm7.83.23-2.51-4.61v4.61h-3.64v-11.02h3.64v4.7l2.36-4.7h4.21l-3.12 5.43 3.56 5.6h-4.5zm12.47.73c-3.32 0-6.02-2.88-6.02-6.42s2.7-6.42 6.02-6.42 6.02 2.88 6.02 6.42-2.69 6.42-6.02 6.42z" fill="#00a547"/><path d="m51.47 12.29c.41-.15.71-.38.91-.68s.3-.68.3-1.14c0-.76-.29-1.37-.87-1.83-.58-.47-1.35-.7-2.31-.7-1.08 0-1.89.26-2.46.77-.56.51-.85 1.26-.87 2.25h2.8c0-.21.04-.36.12-.47s.19-.16.34-.16c.14 0 .25.05.34.15s.13.23.13.38c0 .21-.07.36-.2.47s-.33.16-.59.16h-.13v1.83s.05 0 .08 0h.13c.27 0 .47.07.61.2s.21.32.21.58c0 .22-.06.39-.18.53-.12.13-.28.2-.48.2s-.36-.08-.46-.23c-.11-.15-.17-.38-.18-.69h-2.92v.02c0 1.07.33 1.91.98 2.51.65.61 1.55.91 2.7.91 1.07 0 1.93-.26 2.56-.79s.95-1.24.95-2.12c0-.57-.13-1.03-.39-1.4-.26-.36-.64-.6-1.14-.72z" fill="#00a547"/><g fill="#df2066"><path d="m109.9.04h-48.72c-.3 0-.55.3-.55.67v.43c0 .37.25.67.55.67h48.73c.3 0 .55-.3.55-.67v-.43c0-.37-.25-.67-.55-.67"/><path d="m73.01 16.56c-.75-.03-1.35-.36-1.77-1-.58-.89-.95-1.86-1.18-2.88-.13-.59-.22-1.2-.31-1.8-.08-.59.46-.99 1-.77.78.33 1.48.79 2.14 1.33.56.46 1.1.93 1.62 1.43.62.59.81 1.33.56 2.15-.25.83-.81 1.33-1.66 1.51-.04 0-.08.02-.12.02-.09 0-.17.01-.28.02z"/><path d="m62.86 16.56c-.74-.04-1.4-.44-1.77-1.25-.37-.82-.3-1.63.32-2.29 1.04-1.09 2.19-2.05 3.55-2.75.11-.06.23-.11.35-.16.54-.22 1.08.18 1 .76-.08.61-.18 1.22-.31 1.82-.23 1.03-.61 2-1.18 2.88-.41.64-1.07 1-1.96.99z"/><path d="m65.14 8.9c-.22-.9-.01-1.68.59-2.37.09-.1.19-.19.29-.27.09-.07.1-.14.07-.24-.19-.6-.56-1.04-1.1-1.36-.09-.05-.19-.15-.21-.25-.02-.08.04-.2.1-.27.09-.1.22-.09.34-.03.66.34 1.12.86 1.38 1.55.02.05.04.11.06.16 0 0 0 0 .03.02.89-.38 1.79-.38 2.66-.01.19-.33.36-.66.57-.96.23-.33.55-.56.91-.74.2-.1.36-.06.45.11.08.16.02.31-.17.42-.56.3-.94.75-1.14 1.35-.04.12-.02.19.08.28.79.64 1.13 1.68.85 2.62-1.91-1.28-3.82-1.28-5.76 0z"/><path d="m68.03 17.46c-.84 0-1.68 0-2.52 0-.11 0-.17-.03-.21-.13-.11-.27-.23-.53-.36-.79-.04-.08-.03-.14.03-.21.15-.17.27-.36.41-.54.04-.05.12-.11.19-.11h4.91c.06 0 .14.05.19.11.15.18.29.36.42.55.03.05.05.13.03.18-.12.28-.25.55-.37.83-.04.1-.11.12-.2.12-.84 0-1.68 0-2.52 0z"/><path d="m70.25 15.08h-4.46s.02-.08.03-.12c.19-.51.39-1.02.58-1.53.04-.1.07-.14.18-.14h2.88c.08 0 .13.01.17.11.2.54.41 1.07.61 1.61v.07z"/><path d="m70.58 9.45c-.61 0-1.05.24-1.32.77-.02.04-.09.09-.14.09-.73 0-1.45 0-2.18 0-.04 0-.11-.03-.13-.06-.26-.56-.7-.81-1.31-.81 1.27-1.15 3.6-1.27 5.08 0z"/><path d="m65.73 18.06h4.6c-.52.72-1.1 1.28-2 1.46v.64.23c0 .21-.12.34-.3.34-.17 0-.29-.13-.3-.34 0-.22 0-.44 0-.66 0-.06 0-.13 0-.21-.88-.18-1.48-.74-2-1.47z"/><path d="m66.92 10.92h2.22c.1.59.19 1.17.29 1.77h-2.8c.1-.59.19-1.17.29-1.77z"/></g></svg>