<svg viewBox="0 0 109.01 20.81" xmlns="http://www.w3.org/2000/svg"><path d="m78.91 20.74v-16.52h5.95v11.16h5.78v5.36z" fill="#ee3800"/><path d="m90.73 20.74 5.89-16.52h6.61l5.78 16.52h-6.39l-.53-2.08h-4.48l-.51 2.08h-6.38zm7.88-6h2.47l-.51-1.87c-.25-.95-.42-1.68-.51-2.19s-.15-.99-.17-1.44h-.1c-.02.45-.08.93-.17 1.44s-.26 1.24-.51 2.19l-.51 1.87z" fill="#ee3800"/><g fill="#00aa75"><path d="m58.74 0h-58.13c-.33 0-.61.3-.61.66v.42c0 .36.28.66.61.66h58.13c.34 0 .61-.3.61-.66v-.42c0-.36-.28-.66-.61-.66"/><path d="m9.81 10.35h-.58v1.84h.58c.35 0 .62-.08.81-.24s.28-.38.28-.67-.1-.52-.29-.68-.46-.25-.8-.25z"/><path d="m51.51 4.07h-43.67c-4.31 0-7.84 3.77-7.84 8.37s3.53 8.37 7.84 8.37h43.67c4.31 0 7.84-3.77 7.84-8.37s-3.53-8.37-7.84-8.37zm-38.04 10.09c-.65.6-1.68.9-3.09.9h-1.16v3.25h-3.72v-11.02h4.44c1.56 0 2.7.32 3.43.96.72.64 1.08 1.66 1.08 3.06 0 1.3-.33 2.25-.98 2.85zm6.11 4.15h-3.78v-11.02h3.78v11.03zm9.52-.23c-.41.18-.81.31-1.21.4-.41.09-.81.13-1.21.13-.5 0-.99-.06-1.45-.18-.47-.12-.89-.29-1.26-.51-.91-.56-1.6-1.27-2.07-2.13s-.7-1.84-.7-2.96c0-.82.13-1.59.4-2.29s.65-1.32 1.16-1.86 1.11-.95 1.78-1.23c.68-.28 1.41-.42 2.19-.42.42 0 .83.05 1.24.14s.8.23 1.19.42v4.08c-.34-.35-.68-.61-1.04-.78s-.73-.26-1.12-.26c-.61 0-1.1.2-1.46.6-.37.4-.55.93-.55 1.59s.18 1.16.53 1.55.83.58 1.42.58c.36 0 .72-.08 1.09-.25.37-.16.77-.42 1.21-.78l-.12 4.15zm7.83.23-2.51-4.61v4.61h-3.64v-11.02h3.64v4.7l2.36-4.7h4.21l-3.12 5.43 3.56 5.6h-4.5zm12.47.73c-3.32 0-6.02-2.88-6.02-6.42s2.7-6.42 6.02-6.42 6.02 2.88 6.02 6.42-2.69 6.42-6.02 6.42z"/><path d="m51.47 12.29c.41-.15.71-.38.91-.68s.3-.68.3-1.14c0-.76-.29-1.37-.87-1.83-.58-.47-1.35-.7-2.31-.7-1.08 0-1.89.26-2.46.77-.56.51-.85 1.26-.87 2.25h2.8c0-.21.04-.36.12-.47s.19-.16.34-.16c.14 0 .25.05.34.15s.13.23.13.38c0 .21-.07.36-.2.47s-.33.16-.59.16h-.13v1.83s.05 0 .08 0h.13c.27 0 .47.07.61.2s.21.32.21.58c0 .22-.06.39-.18.53-.12.13-.28.2-.48.2s-.36-.08-.46-.23c-.11-.15-.17-.38-.18-.69h-2.92v.02c0 1.07.33 1.91.98 2.51.65.61 1.55.91 2.7.91 1.07 0 1.93-.26 2.56-.79s.95-1.24.95-2.12c0-.57-.13-1.03-.39-1.4-.26-.36-.64-.6-1.14-.72z"/></g><path d="m103.17.05h-42.07c-.26 0-.48.3-.48.66v.42c0 .36.22.66.48.66h42.07c.26 0 .48-.3.48-.66v-.42c0-.36-.21-.66-.48-.66" fill="#ee3800"/><path d="m69.06 9.88c-.2.44-.41.86-.57 1.29-.23.61-.31 1.25-.28 1.91.01.3.1.39.39.41.96.06 1.89-.03 2.79-.39.21-.09.41-.2.63-.31.04.18.08.37.13.55.25.92.72 1.7 1.42 2.36.21.2.36.2.56-.02.3-.33.58-.68.89-1.01.19-.2.27-.44.3-.71.03-.32.11-.4.37-.47-.29-.25-.43-.22-.65.08-.38.52-.77 1.02-1.17 1.56-.13-.16-.24-.27-.33-.39-.56-.74-.87-1.57-.94-2.5-.01-.16-.03-.31-.21-.38-.17-.06-.29.03-.41.14-.47.45-1.06.66-1.69.77-.48.08-.96.1-1.47.15-.01-.47.05-.87.15-1.26.17-.63.45-1.19.85-1.71.24-.3.14-.53-.23-.59-1.12-.19-2.09-.67-2.92-1.47.05-.04.09-.07.14-.1.46-.3.92-.6 1.39-.9.29-.19.31-.34.09-.61-.43-.52-.68-1.14-.93-1.75 2.16-.84 4.93-.13 6.04 3.19.47-.21.83-.55 1.15-.94.52-.64.8-1.38.86-2.2.02-.25.13-.38.33-.37s.31.16.29.42c-.09 1.2-.57 2.22-1.47 3.04-.16.14-.31.3-.48.47 2.68 1.31 3.7 3.41 3.23 6.31-.47-.28-.92-.55-1.37-.83.04.5-.12.95-.25 1.4-.36 1.22-.95 2.32-1.77 3.29-.92 1.09-2.12 1.7-3.47 2.04-1.36.34-2.74.44-4.14.37-1.13-.06-2.24-.2-3.32-.56-.12-.04-.23-.09-.34-.12-.61-.19-.94-.63-1.15-1.22-.32-.88-.5-1.79-.6-2.71-.17-1.6-.13-3.2.18-4.78.14-.71.35-1.4.63-2.07.52-1.23 1.43-2.09 2.53-2.78.8-.5 1.66-.85 2.58-1.06.07-.02.15-.03.22-.04.21.38.41.74.62 1.12-.5.32-1 .65-1.5.97-.34.22-.36.37-.08.67.79.86 1.76 1.43 2.9 1.72.03 0 .06.02.08.02zm-2.64 1.03c.28 0 .49-.2.5-.48 0-.27-.22-.51-.49-.51s-.49.21-.5.48c0 .28.21.5.49.51zm5.22 4.24c0-.27-.23-.51-.5-.5-.27 0-.49.22-.49.49 0 .28.22.5.5.5.27 0 .49-.22.49-.49zm-.37 2.87c.28 0 .49-.21.49-.49 0-.27-.23-.5-.51-.5-.27 0-.49.22-.48.49 0 .28.22.5.5.5zm-7.36-7.45c.28 0 .49-.2.5-.48 0-.27-.22-.5-.49-.51-.28 0-.49.2-.5.48 0 .28.21.5.49.51zm5.51 5.35c0-.28-.22-.51-.49-.51s-.49.22-.5.48c0 .27.22.5.5.51.27 0 .49-.21.49-.48zm-3.64.15c0-.27-.22-.5-.49-.51-.27 0-.49.21-.5.48 0 .29.22.52.5.52.27 0 .48-.21.49-.48zm-2.01-3.23c0-.28-.22-.51-.5-.51-.27 0-.49.22-.49.49 0 .28.22.5.5.5s.49-.21.49-.48zm3.32 2.17c.27 0 .5-.23.49-.51 0-.27-.22-.49-.49-.49s-.5.23-.49.51c0 .27.22.49.49.49zm-3.25 3.25c.27 0 .49-.21.5-.48 0-.28-.22-.5-.5-.5-.27 0-.49.21-.5.48 0 .27.22.5.5.51zm1.96-5.09c.28 0 .5-.22.5-.5 0-.27-.21-.48-.49-.48s-.5.22-.5.5c0 .27.21.48.49.48zm1.36 4.97c0-.27-.21-.48-.49-.48s-.5.22-.49.5c0 .28.21.48.49.48s.5-.22.5-.5zm-3.87-1.97c.28 0 .5-.23.49-.51 0-.27-.22-.48-.5-.48s-.49.23-.49.51c0 .27.22.48.5.47zm5.91 1.87c0-.28-.21-.5-.49-.5s-.49.21-.49.48c0 .28.21.5.49.5s.49-.2.49-.48z" fill="#ee3800"/></svg>