<svg viewBox="0 0 120.56 21.18" xmlns="http://www.w3.org/2000/svg"><path d="m96.01 20.74-.72-6.54c-.05-.5-.09-1.01-.14-1.51-.04-.5-.08-1-.11-1.51-.07.47-.16.98-.29 1.51s-.28 1.1-.46 1.7l-1.9 6.35h-3.53l-1.9-6.35c-.19-.6-.34-1.17-.46-1.7s-.21-1.03-.28-1.51c-.04.51-.08 1.02-.12 1.51-.04.5-.08 1-.13 1.5l-.72 6.54h-5.82l2.82-16.52h6.13l1.17 4.09c.04.13.09.32.17.58.5 1.72.8 3.14.91 4.25h.1c.09-.7.23-1.44.41-2.23s.42-1.68.72-2.66l1.23-4.02h6.12l2.62 16.52z" fill="#a50a00"/><path d="m120.56 12.52c0 1.21-.21 2.34-.64 3.38s-1.06 1.97-1.88 2.79c-.83.81-1.78 1.42-2.86 1.85s-2.23.64-3.45.64-2.39-.21-3.46-.64-2.03-1.05-2.87-1.87c-.82-.8-1.44-1.72-1.86-2.75-.42-1.04-.63-2.17-.63-3.4s.21-2.36.63-3.41 1.04-1.97 1.86-2.76c.83-.81 1.78-1.43 2.85-1.86 1.08-.43 2.23-.64 3.48-.64s2.4.21 3.48.64c1.08.42 2.03 1.04 2.87 1.86.81.81 1.43 1.73 1.86 2.78.42 1.05.64 2.18.64 3.4zm-8.84 3.11c.84 0 1.51-.28 2.01-.85s.76-1.32.76-2.26-.25-1.71-.76-2.29-1.18-.86-2.01-.86-1.51.29-2.02.87-.77 1.34-.77 2.28.26 1.69.77 2.26 1.18.85 2.02.85z" fill="#a50a00"/><g fill="#005aa8"><path d="m58.74 0h-58.13c-.33 0-.61.3-.61.66v.42c0 .36.28.66.61.66h58.13c.34 0 .61-.3.61-.66v-.42c0-.36-.28-.66-.61-.66"/><path d="m9.81 10.35h-.58v1.84h.58c.35 0 .62-.08.81-.24s.28-.38.28-.67-.1-.52-.29-.68-.46-.25-.8-.25z"/><path d="m51.51 4.07h-43.67c-4.31 0-7.84 3.77-7.84 8.37s3.53 8.37 7.84 8.37h43.67c4.31 0 7.84-3.77 7.84-8.37s-3.53-8.37-7.84-8.37zm-38.04 10.09c-.65.6-1.68.9-3.09.9h-1.16v3.25h-3.72v-11.02h4.44c1.56 0 2.7.32 3.43.96.72.64 1.08 1.66 1.08 3.06 0 1.3-.33 2.25-.98 2.85zm6.11 4.15h-3.78v-11.02h3.78v11.03zm9.52-.23c-.41.18-.81.31-1.21.4-.41.09-.81.13-1.21.13-.5 0-.99-.06-1.45-.18-.47-.12-.89-.29-1.26-.51-.91-.56-1.6-1.27-2.07-2.13s-.7-1.84-.7-2.96c0-.82.13-1.59.4-2.29s.65-1.32 1.16-1.86 1.11-.95 1.78-1.23c.68-.28 1.41-.42 2.19-.42.42 0 .83.05 1.24.14s.8.23 1.19.42v4.08c-.34-.35-.68-.61-1.04-.78s-.73-.26-1.12-.26c-.61 0-1.1.2-1.46.6-.37.4-.55.93-.55 1.59s.18 1.16.53 1.55.83.58 1.42.58c.36 0 .72-.08 1.09-.25.37-.16.77-.42 1.21-.78l-.12 4.15zm7.83.23-2.51-4.61v4.61h-3.64v-11.02h3.64v4.7l2.36-4.7h4.21l-3.12 5.43 3.56 5.6h-4.5zm12.47.73c-3.32 0-6.02-2.88-6.02-6.42s2.7-6.42 6.02-6.42 6.02 2.88 6.02 6.42-2.69 6.42-6.02 6.42z"/><path d="m51.47 12.29c.41-.15.71-.38.91-.68s.3-.68.3-1.14c0-.76-.29-1.37-.87-1.83-.58-.47-1.35-.7-2.31-.7-1.08 0-1.89.26-2.46.77-.56.51-.85 1.26-.87 2.25h2.8c0-.21.04-.36.12-.47s.19-.16.34-.16c.14 0 .25.05.34.15s.13.23.13.38c0 .21-.07.36-.2.47s-.33.16-.59.16h-.13v1.83s.05 0 .08 0h.13c.27 0 .47.07.61.2s.21.32.21.58c0 .22-.06.39-.18.53-.12.13-.28.2-.48.2s-.36-.08-.46-.23c-.11-.15-.17-.38-.18-.69h-2.92v.02c0 1.07.33 1.91.98 2.51.65.61 1.55.91 2.7.91 1.07 0 1.93-.26 2.56-.79s.95-1.24.95-2.12c0-.57-.13-1.03-.39-1.4-.26-.36-.64-.6-1.14-.72z"/></g><path d="m119.89.05h-58.6c-.37 0-.67.3-.67.66v.42c0 .36.3.66.67.66h58.6c.37 0 .67-.3.67-.66v-.42c0-.36-.3-.66-.67-.66" fill="#a50a00"/><path d="m71.17 13.12c-.35-.2-.67-.39-1-.58-.37.55-.82 1.01-1.31 1.43-1.52 1.28-3.22 2.21-5.19 2.59-.37.07-.76.11-1.14.12-.84.02-1.68 0-2.59 0 .09-.06.14-.1.19-.13.99-.58 1.96-1.21 2.85-1.95.97-.8 1.8-1.74 2.59-2.71.65-.79 1.31-1.58 2.01-2.33.79-.84 1.74-1.46 2.77-1.97.15-.07.24-.17.31-.32.4-.85.91-1.63 1.63-2.25 1.02-.86 2.32-1.03 3.46-.45.44.22.8.54.99.99.2.47.58.66 1 .81.34.11.69.19 1.04.28.04.01.08.03.13.04-.49.76-.99 1.49-1.91 1.76-.13.04-.25.16-.33.27-.19.26-.35.54-.51.82-.04.06-.05.15-.05.23-.05 1.31-.25 2.6-.78 3.81-.65 1.49-1.67 2.64-3.1 3.41-.5.27-1.04.46-1.56.69-.05.02-.11.04-.18.07.11.19.22.36.31.54.2.39.39.79.58 1.18.05.1.1.13.21.13h1.17.21v1.13h-7.16v-1.13h.69.72c.05 0 .13-.03.15-.07.17-.42.33-.84.5-1.3-1.81.12-3.56-.03-5.3-.39 1.72-.07 3.3-.61 4.78-1.44s2.82-1.84 3.82-3.28zm-2.56 6.47h1.59c-.29-.51-.56-.98-.84-1.44-.03-.05-.12-.08-.18-.08-.04 0-.12.05-.13.09-.15.47-.3.94-.45 1.43zm6.52-13.08c0-.33-.26-.59-.59-.6-.33 0-.61.27-.61.6s.27.6.61.59c.33 0 .59-.26.59-.59z" fill="#a50a00"/></svg>