<svg viewBox="0 0 113.73 21.18" xmlns="http://www.w3.org/2000/svg"><path d="m58.74 0h-58.13c-.33 0-.61.3-.61.66v.42c0 .36.28.66.61.66h58.13c.34 0 .61-.3.61-.66v-.42c0-.36-.28-.66-.61-.66" fill="#73a200"/><path d="m9.81 10.35h-.58v1.84h.58c.35 0 .62-.08.81-.24s.28-.38.28-.67-.1-.52-.29-.68-.46-.25-.8-.25z" fill="#73a200"/><path d="m51.51 4.07h-43.67c-4.31 0-7.84 3.77-7.84 8.37s3.53 8.37 7.84 8.37h43.67c4.31 0 7.84-3.77 7.84-8.37s-3.53-8.37-7.84-8.37zm-38.04 10.09c-.65.6-1.68.9-3.09.9h-1.16v3.25h-3.72v-11.02h4.44c1.56 0 2.7.32 3.43.96.72.64 1.08 1.66 1.08 3.06 0 1.3-.33 2.25-.98 2.85zm6.11 4.15h-3.78v-11.02h3.78v11.03zm9.52-.23c-.41.18-.81.31-1.21.4-.41.09-.81.13-1.21.13-.5 0-.99-.06-1.45-.18-.47-.12-.89-.29-1.26-.51-.91-.56-1.6-1.27-2.07-2.13s-.7-1.84-.7-2.96c0-.82.13-1.59.4-2.29s.65-1.32 1.16-1.86 1.11-.95 1.78-1.23c.68-.28 1.41-.42 2.19-.42.42 0 .83.05 1.24.14s.8.23 1.19.42v4.08c-.34-.35-.68-.61-1.04-.78s-.73-.26-1.12-.26c-.61 0-1.1.2-1.46.6-.37.4-.55.93-.55 1.59s.18 1.16.53 1.55.83.58 1.42.58c.36 0 .72-.08 1.09-.25.37-.16.77-.42 1.21-.78l-.12 4.15zm7.83.23-2.51-4.61v4.61h-3.64v-11.02h3.64v4.7l2.36-4.7h4.21l-3.12 5.43 3.56 5.6h-4.5zm12.47.73c-3.32 0-6.02-2.88-6.02-6.42s2.7-6.42 6.02-6.42 6.02 2.88 6.02 6.42-2.69 6.42-6.02 6.42z" fill="#73a200"/><path d="m51.47 12.29c.41-.15.71-.38.91-.68s.3-.68.3-1.14c0-.76-.29-1.37-.87-1.83-.58-.47-1.35-.7-2.31-.7-1.08 0-1.89.26-2.46.77-.56.51-.85 1.26-.87 2.25h2.8c0-.21.04-.36.12-.47s.19-.16.34-.16c.14 0 .25.05.34.15s.13.23.13.38c0 .21-.07.36-.2.47s-.33.16-.59.16h-.13v1.83s.05 0 .08 0h.13c.27 0 .47.07.61.2s.21.32.21.58c0 .22-.06.39-.18.53-.12.13-.28.2-.48.2s-.36-.08-.46-.23c-.11-.15-.17-.38-.18-.69h-2.92v.02c0 1.07.33 1.91.98 2.51.65.61 1.55.91 2.7.91 1.07 0 1.93-.26 2.56-.79s.95-1.24.95-2.12c0-.57-.13-1.03-.39-1.4-.26-.36-.64-.6-1.14-.72z" fill="#73a200"/><g fill="#0050c6"><path d="m99.97 19.33 1.9-4.63c.85.59 1.61 1.03 2.27 1.3.67.27 1.29.41 1.87.41.41 0 .73-.08.96-.23s.35-.36.35-.63c0-.46-.58-.81-1.75-1.05-.38-.08-.67-.15-.88-.19-1.23-.3-2.18-.83-2.83-1.6s-.98-1.72-.98-2.87c0-1.78.64-3.22 1.91-4.33s2.94-1.67 5-1.67c.95 0 1.88.12 2.8.37s1.84.62 2.78 1.13l-1.81 4.32c-.57-.42-1.14-.74-1.72-.96s-1.13-.33-1.68-.33c-.41 0-.73.07-.96.21s-.34.33-.34.58c0 .47.82.88 2.47 1.23.26.06.47.11.61.14 1.14.26 2.03.78 2.69 1.57s.98 1.75.98 2.87c0 1.83-.66 3.32-1.98 4.48s-3.04 1.74-5.15 1.74c-1.08 0-2.17-.15-3.25-.46s-2.17-.77-3.25-1.39z"/><path d="m69 10.53c-1.03.34-1.68 1.3-1.44 2.48-.12.01-.24.02-.36.03-.95.04-1.89-.04-2.79-.38-1.36-.51-2.04-1.53-2.11-2.95-.02-.42.03-.84.06-1.26 0-.04.02-.1.06-.13.64-.51 1.33-.92 2.15-1.07.79-.15 1.53.02 2.19.47 1.04.7 1.67 1.73 2.25 2.81z"/><path d="m66.92 14.03c-.65 1.16-1.14 2.35-1.1 3.69-.57.15-1.13.11-1.68-.06-.64-.2-1.2-.54-1.72-.95-.03-.02-.06-.06-.07-.1-.12-.89-.13-1.78.24-2.62.14-.31.33-.59.58-.85 1.14.7 2.41.87 3.74.9z"/><path d="m94.01 20.74-.72-6.54c-.05-.5-.09-1.01-.14-1.51-.04-.5-.08-1-.11-1.51-.07.47-.16.98-.29 1.51s-.28 1.1-.46 1.7l-1.9 6.35h-3.53l-1.9-6.35c-.19-.6-.34-1.17-.46-1.7s-.21-1.03-.28-1.51c-.04.51-.08 1.02-.12 1.51s-.08 1-.13 1.5l-.72 6.54h-5.82l2.82-16.52h6.13l1.17 4.09c.04.13.09.32.17.58.5 1.72.8 3.14.91 4.25h.1c.09-.7.23-1.44.41-2.23s.42-1.68.72-2.66l1.23-4.02h6.12l2.62 16.52z"/><path d="m113.14.05h-51.93c-.32 0-.59.3-.59.66v.42c0 .36.27.66.59.66h51.93c.32 0 .59-.3.59-.66v-.42c0-.36-.26-.66-.59-.66"/><path d="m69.52 20.81c-.3-.15-.61-.29-.91-.45-.58-.32-1.07-.74-1.42-1.32-.42-.72-.48-1.49-.33-2.29.2-1.02.68-1.92 1.24-2.79.41.38.88.59 1.44.59.55 0 1.02-.2 1.45-.59.21.38.43.73.61 1.1.35.69.62 1.41.68 2.2.08 1.12-.33 2.01-1.2 2.71-.41.33-.87.57-1.36.78-.05.02-.1.05-.14.07h-.06z"/><path d="m71.53 13.04c.13-.57.06-1.08-.22-1.56-.28-.47-.69-.78-1.24-.95.24-.4.45-.78.69-1.15.35-.55.77-1.04 1.29-1.45 1.05-.82 2.19-.95 3.39-.38.43.2.82.5 1.23.75.04.03.08.08.09.13.11.76.13 1.51-.1 2.25-.25.82-.77 1.43-1.54 1.81-1.13.56-2.33.61-3.58.56z"/><path d="m75.93 13.13c.42.42.66.92.79 1.49.15.65.13 1.31.03 1.96 0 .04-.03.09-.07.12-.67.53-1.4.95-2.27 1.08-.35.05-.81.03-1.14-.07.04-1.33-.44-2.52-1.1-3.68 1.32-.03 2.6-.19 3.74-.9z"/><path d="m69.55 9.46c-.05-.08-.09-.14-.13-.21-.51-.84-1.11-1.61-1.91-2.2-.16-.11-.32-.22-.49-.31-.1-.06-.12-.11-.08-.21.22-.66.63-1.18 1.2-1.56.41-.28.87-.49 1.31-.72.04-.02.11-.03.15-.01.78.31 1.5.72 2.04 1.38.23.28.4.59.51.93.03.08.04.13-.06.18-.95.52-1.64 1.31-2.22 2.2-.11.17-.22.34-.34.54z"/><path d="m69.56 13.58c-.59 0-1.08-.48-1.08-1.07s.48-1.07 1.07-1.07c.58 0 1.06.48 1.07 1.06 0 .59-.47 1.08-1.06 1.08z"/></g></svg>