<svg viewBox="0 0 109.67 21.15" xmlns="http://www.w3.org/2000/svg"><path d="m80.54 20.73v-15.78h5.56l4.9 8.25c-.06-.37-.11-.77-.13-1.22s-.04-1.03-.04-1.75v-5.28h5.46v15.77h-5.6l-4.85-8.19c.06.35.1.73.13 1.14s.04.86.04 1.36v5.69h-5.47z" fill="#db0012"/><path d="m102.04 13.67v-8.72h5.68v10.26c0 .89-.06 1.59-.18 2.1s-.31.98-.58 1.41c-.48.77-1.13 1.37-1.94 1.79s-1.72.64-2.72.64c-.94 0-1.8-.14-2.58-.42s-1.52-.71-2.23-1.3l1.85-4.23c.33.35.62.61.88.77s.51.24.74.24c.41 0 .69-.15.83-.46.15-.31.22-1 .22-2.07z" fill="#db0012"/><g fill="#1b8f00"><path d="m58.74 0h-58.13c-.33 0-.61.3-.61.66v.42c0 .36.28.66.61.66h58.13c.34 0 .61-.3.61-.66v-.42c0-.36-.28-.66-.61-.66"/><path d="m9.81 10.35h-.58v1.84h.58c.35 0 .62-.08.81-.24s.28-.38.28-.67-.1-.52-.29-.68-.46-.25-.8-.25z"/><path d="m51.51 4.07h-43.67c-4.31 0-7.84 3.77-7.84 8.37s3.53 8.37 7.84 8.37h43.67c4.31 0 7.84-3.77 7.84-8.37s-3.53-8.37-7.84-8.37zm-38.04 10.09c-.65.6-1.68.9-3.09.9h-1.16v3.25h-3.72v-11.02h4.44c1.56 0 2.7.32 3.43.96.72.64 1.08 1.66 1.08 3.06 0 1.3-.33 2.25-.98 2.85zm6.11 4.15h-3.78v-11.02h3.78v11.03zm9.52-.23c-.41.18-.81.31-1.21.4-.41.09-.81.13-1.21.13-.5 0-.99-.06-1.45-.18-.47-.12-.89-.29-1.26-.51-.91-.56-1.6-1.27-2.07-2.13s-.7-1.84-.7-2.96c0-.82.13-1.59.4-2.29s.65-1.32 1.16-1.86 1.11-.95 1.78-1.23c.68-.28 1.41-.42 2.19-.42.42 0 .83.05 1.24.14s.8.23 1.19.42v4.08c-.34-.35-.68-.61-1.04-.78s-.73-.26-1.12-.26c-.61 0-1.1.2-1.46.6-.37.4-.55.93-.55 1.59s.18 1.16.53 1.55.83.58 1.42.58c.36 0 .72-.08 1.09-.25.37-.16.77-.42 1.21-.78l-.12 4.15zm7.83.23-2.51-4.61v4.61h-3.64v-11.02h3.64v4.7l2.36-4.7h4.21l-3.12 5.43 3.56 5.6h-4.5zm12.47.73c-3.32 0-6.02-2.88-6.02-6.42s2.7-6.42 6.02-6.42 6.02 2.88 6.02 6.42-2.69 6.42-6.02 6.42z"/><path d="m51.47 12.29c.41-.15.71-.38.91-.68s.3-.68.3-1.14c0-.76-.29-1.37-.87-1.83-.58-.47-1.35-.7-2.31-.7-1.08 0-1.89.26-2.46.77-.56.51-.85 1.26-.87 2.25h2.8c0-.21.04-.36.12-.47s.19-.16.34-.16c.14 0 .25.05.34.15s.13.23.13.38c0 .21-.07.36-.2.47s-.33.16-.59.16h-.13v1.83s.05 0 .08 0h.13c.27 0 .47.07.61.2s.21.32.21.58c0 .22-.06.39-.18.53-.12.13-.28.2-.48.2s-.36-.08-.46-.23c-.11-.15-.17-.38-.18-.69h-2.92v.02c0 1.07.33 1.91.98 2.51.65.61 1.55.91 2.7.91 1.07 0 1.93-.26 2.56-.79s.95-1.24.95-2.12c0-.57-.13-1.03-.39-1.4-.26-.36-.64-.6-1.14-.72z"/></g><path d="m109.12.05h-47.95c-.3 0-.55.3-.55.66v.42c0 .36.25.66.55.66h47.95c.3 0 .54-.3.54-.66v-.42c0-.36-.24-.66-.54-.66" fill="#db0012"/><path d="m63.79 11.05c-.6.06-1.04.4-1.52.65-.01 0-.03-.02-.04-.03.15-.3.27-.62.44-.91.52-.89 1.25-1.62 2.06-2.25.55-.43 1.14-.81 1.71-1.21.03-.02.06-.04.12-.08-.52-.11-1 .06-1.48.1 1.89-1.73 4.1-2.27 6.6-1.79.16-.39.48-.66.8-.91.34-.27.71-.52 1.06-.78-.07.37-.13.72-.2 1.1.26-.21.49-.4.72-.59l.03.03c-.02.13-.05.27-.07.4-.09.64 0 1.28.1 1.91 0 .05.03.1.06.13.47.53.77 1.17 1.05 1.81.31.74.58 1.5.88 2.24.09.23.23.44.37.64.29.41.44.85.38 1.35-.03.24-.1.48-.21.69-.2.38-.6.47-.97.56-.77.18-1.2-.27-1.36-.91-.04-.16-.11-.22-.27-.25-.54-.1-.99-.37-1.41-.7-.4-.32-.76-.69-1.07-1.11-.02-.03-.05-.06-.08-.09-.51.27-.87.66-1.05 1.21-.25.78-.14 1.56.09 2.32.21.68.51 1.32.93 1.89.53.71.69 1.53.63 2.39-.04.51-.17 1.01-.25 1.52-.02.11-.06.15-.19.14-1.78-.18-3.48-.62-5.04-1.53-1.14-.67-2.02-1.58-2.62-2.76-.33-.65-.58-1.33-.68-2.06-.14-1.03-.03-2.03.43-2.97.02-.03.03-.07.06-.13z" fill="#db0012"/></svg>