<svg viewBox="0 0 119.17 21.24" xmlns="http://www.w3.org/2000/svg"><path d="m80.54 20.73v-15.78h5.56l4.9 8.25c-.06-.37-.11-.77-.13-1.22s-.04-1.03-.04-1.75v-5.28h5.46v15.77h-5.6l-4.85-8.19c.06.35.1.73.13 1.14s.04.86.04 1.36v5.69h-5.47z" fill="#008a38"/><path d="m113.61 20.73-.69-6.25c-.04-.48-.09-.96-.13-1.44s-.08-.96-.11-1.44c-.06.45-.16.93-.27 1.44-.12.51-.26 1.05-.44 1.62l-1.81 6.07h-3.37l-1.81-6.07c-.18-.57-.33-1.12-.44-1.62-.12-.51-.2-.99-.27-1.44-.04.49-.07.97-.11 1.44s-.08.95-.12 1.43l-.69 6.25h-5.56l2.69-15.77h5.85l1.12 3.9c.04.12.09.31.16.55.47 1.65.77 3 .87 4.06h.1c.09-.67.22-1.38.39-2.13s.4-1.6.69-2.54l1.17-3.84h5.84l2.5 15.77h-5.56z" fill="#008a38"/><path d="m58.74 0h-58.13c-.33 0-.61.3-.61.66v.42c0 .36.28.66.61.66h58.13c.34 0 .61-.3.61-.66v-.42c0-.36-.28-.66-.61-.66" fill="#e98200"/><path d="m9.81 10.35h-.58v1.84h.58c.35 0 .62-.08.81-.24s.28-.38.28-.67-.1-.52-.29-.68-.46-.25-.8-.25z" fill="#e98200"/><path d="m51.51 4.07h-43.67c-4.31 0-7.84 3.77-7.84 8.37s3.53 8.37 7.84 8.37h43.67c4.31 0 7.84-3.77 7.84-8.37s-3.53-8.37-7.84-8.37zm-38.04 10.09c-.65.6-1.68.9-3.09.9h-1.16v3.25h-3.72v-11.02h4.44c1.56 0 2.7.32 3.43.96.72.64 1.08 1.66 1.08 3.06 0 1.3-.33 2.25-.98 2.85zm6.11 4.15h-3.78v-11.02h3.78v11.03zm9.52-.23c-.41.18-.81.31-1.21.4-.41.09-.81.13-1.21.13-.5 0-.99-.06-1.45-.18-.47-.12-.89-.29-1.26-.51-.91-.56-1.6-1.27-2.07-2.13s-.7-1.84-.7-2.96c0-.82.13-1.59.4-2.29s.65-1.32 1.16-1.86 1.11-.95 1.78-1.23c.68-.28 1.41-.42 2.19-.42.42 0 .83.05 1.24.14s.8.23 1.19.42v4.08c-.34-.35-.68-.61-1.04-.78s-.73-.26-1.12-.26c-.61 0-1.1.2-1.46.6-.37.4-.55.93-.55 1.59s.18 1.16.53 1.55.83.58 1.42.58c.36 0 .72-.08 1.09-.25.37-.16.77-.42 1.21-.78l-.12 4.15zm7.83.23-2.51-4.61v4.61h-3.64v-11.02h3.64v4.7l2.36-4.7h4.21l-3.12 5.43 3.56 5.6h-4.5zm12.47.73c-3.32 0-6.02-2.88-6.02-6.42s2.7-6.42 6.02-6.42 6.02 2.88 6.02 6.42-2.69 6.42-6.02 6.42z" fill="#e98200"/><path d="m51.47 12.29c.41-.15.71-.38.91-.68s.3-.68.3-1.14c0-.76-.29-1.37-.87-1.83-.58-.47-1.35-.7-2.31-.7-1.08 0-1.89.26-2.46.77-.56.51-.85 1.26-.87 2.25h2.8c0-.21.04-.36.12-.47s.19-.16.34-.16c.14 0 .25.05.34.15s.13.23.13.38c0 .21-.07.36-.2.47s-.33.16-.59.16h-.13v1.83s.05 0 .08 0h.13c.27 0 .47.07.61.2s.21.32.21.58c0 .22-.06.39-.18.53-.12.13-.28.2-.48.2s-.36-.08-.46-.23c-.11-.15-.17-.38-.18-.69h-2.92v.02c0 1.07.33 1.91.98 2.51.65.61 1.55.91 2.7.91 1.07 0 1.93-.26 2.56-.79s.95-1.24.95-2.12c0-.57-.13-1.03-.39-1.4-.26-.36-.64-.6-1.14-.72z" fill="#e98200"/><g fill="#008a38"><path d="m116.84.05h-55.59c-.35 0-.63.3-.63.66v.42c0 .36.28.66.63.66h55.59c.35 0 .63-.3.63-.66v-.42c0-.36-.28-.66-.63-.66"/><path d="m74.17 7.24s.05 0 .07 0c.04-.06.11-.12.12-.19 0-.1-.07-.18-.17-.15-.06.02-.14.1-.14.17 0 .06.08.12.13.18z"/><path d="m65.52 16.6c-.07-.16-.07-.32.05-.48.4-.56.88-1.04 1.43-1.46.03-.03.07-.05.1-.08 0 0 .01-.02.02-.03-.14.01-.51.23-.88.54-.26.22-.52.46-.76.71s-.46.53-.71.82c-.06-.18-.13-.34-.18-.5-.01-.04.02-.1.06-.14.6-.73 1.29-1.36 2.04-1.92.06-.04.11-.08.16-.13.01 0 .01-.03.03-.07-.35-.04-.37-.33-.5-.6.15.01.27.02.38.03 0-.01 0-.03 0-.04-.17-.07-.35-.12-.51-.2-.08-.04-.17-.1-.21-.18-.2-.35-.38-.71-.57-1.06-.06-.1-.12-.2-.15-.33.52.36 1.03.71 1.55 1.07 0 0 .01-.01.02-.02-.03-.04-.06-.08-.1-.11-.4-.35-.79-.7-1.19-1.05-.37-.32.24.36-.13.04-1.34-1.18-1.69-1.36-3.03-2.54-.05-.05-.11-.15-.13-.22-.08-.48-.15-.96-.22-1.44 0-.03 0-.06 0-.13.96.98 1.9 1.94 2.84 2.89.01 0 .02-.02.03-.03-.11-.13-.21-.27-.32-.4-.65-.81-1.3-1.61-1.96-2.41-.06-.08-.08-.14-.02-.22.07-.11.12-.22.2-.37.34.43.66.84.98 1.25.01 0 .02-.02.04-.02-.03-.05-.06-.11-.09-.16-.63-1.01-.14-.91-.9-2.04.18-.7.34-1.4.5-2.11 0-.04.02-.08.05-.16.11.17.2.31.29.45 1.68 2.69.36 2.38 2.04 5.08.28.44.55.89.83 1.33.54.87 1.09 1.74 1.63 2.62.06.09.18.12.27.07.66-.35 1.32-.69 1.98-1.03.45-.24.92-.44 1.35-.73.62-.42.95-1.03.95-1.79 0-.23-.01-.46-.02-.69-.03-.51.3-1.01.8-1.13.23-.05.47-.07.7-.09s.38-.14.41-.36c0-.06-.03-.15-.08-.18-.49-.3-1.05-.25-1.45.16-.16.16-.28.36-.41.55-.03.05-.06.1-.1.18-.04-.15-.12-.27-.1-.38s.12-.21.16-.33c-.09.06-.17.12-.26.19-.11-.32.18-.46.26-.7-.11.06-.22.12-.35.19.02-.66.56-.61.98-.76-.24-.08-.46-.02-.67 0-.06-.27-.03-.32.24-.36.12-.02.24-.03.36-.04 0-.02 0-.04 0-.06-.17-.03-.34-.06-.54-.1.07-.11.12-.22.2-.3.04-.04.13-.06.2-.06.67.03 1.26.29 1.77.71.3.24.56.53.83.81.06.06.14.08.22.07.49-.07.98-.13 1.47-.03.13.03.26.09.38.16.07.05.11.15.16.21-.47.08-.92.12-1.36.22-.35.08-.69.2-1.02.33-.61.25-.92.73-.98 1.37-.05.5-.01 1 .06 1.5.1.65.19 1.31.23 1.97.05 1.07-.35 1.98-1.04 2.78-.48.56-1.06 1.02-1.68 1.43-.65.44-1.28 1.02-1.48 1.78-.01.04 0 .08.03.14.41.64.84 1.27 1.35 1.85.46.53 1.02.68 1.69.52.15-.04.31-.06.46-.06.19 0 .27.08.3.28-.22-.13-.44-.07-.65-.03-.38.08-.76.2-1.16.14-.2-.03-.4-.14-.6-.16-.2-.01-.4.07-.6.07s-.4-.06-.6-.09c-.09-.01-.18-.05-.27-.03-.39.09-.73-.05-1.07-.2-.09-.04-.16-.06-.25 0-.25.13-.51.15-.78.11-.22-.03-.43-.04-.63.14 0-.19.11-.28.24-.3.21-.05.43-.07.65-.09s.38-.12.52-.29c.06-.08.07-.15.04-.25-.33-.88-.55-1.78-.75-2.7-.03-.14-.01-.24.1-.34.19-.16.37-.32.55-.49.04-.03.08-.07.15-.13-.66-.13-1.25-.36-1.84-.7.31-.11.57-.21.86-.31-.19-.03-.92.19-1.48.45-.46.22-.92.46-1.38.69zm5.14.09c-.06 0-.11 0-.15.02-.61.17-1.08.55-1.45 1.05-.03.04-.03.11-.01.16.19.63.37 1.26.57 1.89.07.22.16.43.28.63.16.26.42.37.73.34.19-.02.38-.05.57-.06.14 0 .29.02.43.01.18 0 .22-.07.12-.23-.04-.07-.09-.14-.15-.21-.25-.3-.49-.59-.74-.88-.22-.25-.46-.49-.68-.74-.22-.24-.25-.47-.12-.71.2-.37.39-.76.58-1.14.02-.03.02-.07.03-.12z"/><path d="m74.17 7.24c-.05-.06-.13-.12-.13-.18s.08-.15.14-.17c.1-.03.18.05.17.15 0 .07-.08.13-.12.19-.02 0-.05 0-.07 0z"/></g></svg>