<svg viewBox="0 0 115.51 26.25" xmlns="http://www.w3.org/2000/svg"><path d="m58.65 0h-58.04c-.33 0-.61.3-.61.66v.42c0 .36.28.66.61.66h58.04c.34 0 .61-.3.61-.66v-.42c0-.36-.27-.66-.61-.66" fill="#d82149"/><path d="m9.8 10.34h-.58v1.84h.58c.35 0 .62-.08.81-.24s.28-.38.28-.67-.1-.52-.29-.68-.46-.24-.8-.24z" fill="#d82149"/><path d="m51.44 4.07h-43.61c-4.31 0-7.83 3.76-7.83 8.35s3.52 8.36 7.83 8.36h43.61c4.31 0 7.83-3.76 7.83-8.36s-3.52-8.35-7.83-8.35zm-37.99 10.07c-.65.6-1.68.9-3.09.9h-1.16v3.25h-3.71v-11.01h4.43c1.56 0 2.7.32 3.42.96s1.08 1.66 1.08 3.05c0 1.3-.33 2.25-.97 2.85zm6.1 4.15h-3.77v-11.01h3.77zm9.51-.23c-.4.18-.81.31-1.21.39-.4.09-.81.13-1.21.13-.5 0-.99-.06-1.45-.18-.47-.12-.89-.29-1.26-.51-.91-.56-1.6-1.27-2.07-2.13s-.7-1.84-.7-2.95c0-.82.13-1.58.4-2.29.27-.7.65-1.32 1.16-1.86s1.1-.95 1.78-1.23c.67-.28 1.4-.42 2.19-.42.42 0 .83.05 1.24.14s.8.23 1.19.42v4.08c-.34-.35-.68-.6-1.04-.77s-.72-.26-1.11-.26c-.61 0-1.09.2-1.46.6s-.55.93-.55 1.59.18 1.16.53 1.55.82.58 1.42.58c.36 0 .72-.08 1.09-.24s.77-.42 1.21-.78l-.12 4.14zm7.81.23-2.5-4.6v4.6h-3.64v-11.01h3.64v4.69l2.35-4.69h4.2l-3.12 5.42 3.55 5.59h-4.49zm12.45.73c-3.32 0-6.01-2.87-6.01-6.41s2.69-6.41 6.01-6.41 6.01 2.87 6.01 6.41-2.69 6.41-6.01 6.41z" fill="#d82149"/><path d="m51.39 12.27c.4-.15.71-.38.91-.68s.3-.68.3-1.14c0-.75-.29-1.36-.87-1.83s-1.35-.7-2.31-.7c-1.07 0-1.89.26-2.45.77s-.85 1.26-.87 2.25h2.8c0-.21.04-.36.12-.47s.19-.16.34-.16c.14 0 .25.05.34.15s.13.23.13.38c0 .21-.07.36-.2.47s-.33.16-.59.16h-.13v1.83s.05 0 .08 0h.13c.27 0 .47.07.61.2s.21.32.21.58c0 .22-.06.39-.18.53-.12.13-.28.2-.48.2s-.35-.08-.46-.23-.17-.38-.18-.69h-2.91v.02c0 1.07.33 1.9.98 2.51s1.55.91 2.7.91c1.07 0 1.93-.26 2.56-.79s.95-1.23.95-2.12c0-.57-.13-1.03-.39-1.39s-.64-.6-1.14-.72z" fill="#d82149"/><g fill="#2760e0"><path d="m114.9 0h-53.76c-.34 0-.61.3-.61.66v.42c0 .36.28.66.61.66h53.76c.34 0 .61-.3.61-.66v-.42c0-.36-.27-.66-.61-.66"/><text font-family="FuturaBT-ExtraBlack, 'Futura XBlk BT'" font-size="23.12" transform="translate(79.27 20.78)"><tspan x="0" y="0">NY</tspan></text><path d="m71.7 17.57 1.08.54c.25.12.5.24.74.38.43.25.88.29 1.35.16.17-.05.28-.01.41.11.6.54 1.2 1.08 1.81 1.61.09.08.09.13.05.24-.08.22-.21.29-.46.29-3.04-.01-6.07 0-9.11 0-.06 0-.13 0-.22 0 .04-.09.07-.16.11-.22.6-1.14 1.2-2.28 1.79-3.41.03-.05.06-.11.08-.17.05-.15 0-.26-.13-.34-.12-.08-.28-.05-.38.06-.04.05-.07.11-.1.17-.66 1.25-1.33 2.51-1.99 3.76-.06.11-.12.15-.24.15-.58 0-1.16 0-1.74 0-.05 0-.11 0-.19 0 .07-.08.11-.14.16-.2 1.11-1.35 2.22-2.69 3.33-4.04.1-.12.17-.25.08-.41-.06-.11-.17-.18-.29-.14-.09.03-.18.09-.24.16-1 1.21-1.99 2.41-2.99 3.62-.25.31-.5.61-.76.91-.04.05-.13.09-.19.1-.29.01-.58 0-.87 0-.04 0-.08 0-.12-.01-.22-.04-.3-.22-.17-.41 1.06-1.58 2.11-3.17 3.17-4.75.03-.05.06-.09.09-.14.06-.13.01-.29-.11-.37s-.28-.07-.38.04c-.04.04-.07.09-.1.14-.9 1.35-1.8 2.71-2.71 4.06-.03.04-.06.09-.12.16-.02-.3-.05-.55-.07-.81-.04-.52-.08-1.04-.12-1.57 0-.06.05-.13.09-.17.94-.88 1.89-1.75 2.83-2.62.18-.16.35-.32.53-.49s.21-.35.08-.49-.31-.12-.48.04c-1.06.98-2.13 1.96-3.19 2.95-.07.06-.13.12-.21.2-.11-.17-.25-.31-.25-.53 0-.85 0-1.7 0-2.56 0-.05 0-.1.02-.15.31-.63.62-1.25.96-1.88.02.12.03.23.04.35.04.41.28.72.65.83s.73-.01.99-.34c.64-.81 1.28-1.63 1.92-2.44.03-.03.06-.07.1-.12.07.21.14.4.2.59.34 1.02.68 2.05 1.03 3.07.07.2.17.4.31.56 1.23 1.44 2.47 2.87 3.71 4.3.14.17.31.19.45.08.14-.12.14-.3 0-.47-.1-.12-.2-.23-.3-.35 0 0 .01-.01.02-.02z"/><path d="m63.77 4.07h1.37c.24 0 .36.11.35.35-.05.93.16 1.83.29 2.73.09.61.19 1.21.28 1.81.01.07-.01.17-.06.22-.74.94-1.48 1.87-2.22 2.8-.09.11-.2.18-.35.14s-.21-.16-.23-.31c-.12-1.1-.21-2.21-.37-3.3-.12-.84-.31-1.66-.47-2.49-.1-.51-.22-1.01-.33-1.52-.06-.29.05-.44.35-.44h1.37z"/><path d="m72.71 10.61c.36.47.82.79 1.41.91.04 0 .09.07.1.11.13.59.47 1.01 1.05 1.28-.1.38-.19.78-.31 1.16-.16.54-.4 1.04-.76 1.47-.37.44-.82.75-1.39.81-.18.02-.38-.03-.55-.08-.58-.19-1.03-.55-1.33-1.08-.39-.68-.65-1.4-.77-2.17-.02-.1.01-.13.09-.18.49-.25.79-.65.92-1.18.01-.05.06-.13.11-.14.57-.13 1.03-.43 1.39-.89 0 0 .02-.01.03-.02zm.08 3.35c.06-.27.13-.53.19-.79.05-.2-.04-.36-.21-.4-.18-.04-.33.05-.38.26-.07.26-.13.53-.19.79-.07.33.1.62.41.73.21.07.42-.03.47-.22.04-.16-.05-.29-.29-.38zm-1.28-.88h.3c.18-.01.29-.14.29-.3s-.12-.29-.28-.29c-.21 0-.41 0-.62 0-.18 0-.29.14-.29.3s.12.29.3.29zm2.41-.6c-.1 0-.2 0-.3 0-.18 0-.31.14-.31.3s.13.29.3.29h.6c.18 0 .29-.13.3-.29 0-.17-.12-.29-.31-.3-.09 0-.19 0-.28 0zm-1.2 2.4c-.11 0-.21 0-.32 0-.17 0-.29.12-.29.28 0 .15.1.3.26.31.23.01.45.01.68 0 .16-.01.26-.16.25-.32-.01-.15-.12-.26-.28-.27-.1 0-.2 0-.3 0z"/><path d="m69.14 10.48c.02-.42.12-.78.29-1.13.47-.97 1.29-1.46 2.32-1.61.74-.11 1.48-.1 2.21.06 1.32.29 2.12 1.14 2.33 2.49 0 .05 0 .11.01.19-1.07-.84-2.29-1.13-3.59-1.13s-2.51.29-3.57 1.14z"/><path d="m70.84 16.01c1.33 1.35 2.64 1.15 3.76 0 .02.22.04.42.05.62.03.44.06.88.09 1.32 0 .09-.02.12-.1.14-.26.06-.51.02-.74-.1-.77-.39-1.54-.77-2.31-1.16-.19-.1-.38-.17-.61-.16-.06 0-.17-.09-.18-.15-.01-.16.02-.33.03-.51z"/><path d="m76.89 17.62c-.52.1-1.02.2-1.54.31-.02-.3-.05-.58-.07-.87-.04-.53-.07-1.06-.12-1.58-.02-.21 0-.4.11-.57.04-.07.07-.15.12-.26.5 1 1 1.98 1.5 2.98z"/><path d="m76.99 16.48c-.3-.59-.57-1.15-.85-1.7-.13-.26-.26-.53-.4-.79-.06-.11-.08-.21-.04-.33.06-.2.1-.4.14-.59.02 0 .03 0 .04-.01.38-.05.52.16.64.49.27.78.58 1.54.88 2.3.04.11.04.18-.05.26-.12.11-.22.23-.36.37z"/><path d="m75.86 18.45c.79-.16 1.53-.32 2.28-.47.05-.01.15.02.17.06.03.05.02.14 0 .2-.17.36-.34.72-.52 1.08-.09.19-.18.38-.28.59-.55-.49-1.09-.96-1.65-1.46z"/><path d="m70.55 7.44c-.31.19-.6.37-.89.55-.38-.99-.77-1.98-1.16-2.97.03-.02.05-.03.08-.05.66.82 1.32 1.65 1.97 2.47z"/><path d="m76.93 5.03c-.38.99-.77 1.98-1.15 2.97-.3-.19-.58-.36-.89-.55.65-.81 1.31-1.63 1.97-2.45.02.01.05.02.07.03z"/><path d="m72.34 9.96c-.09.27-.23.46-.43.62-.32.25-.69.37-1.08.42-.45.05-.91.06-1.37.05.8-.77 1.79-1.01 2.87-1.08z"/><path d="m73.09 9.98c.94-.06 2.42.48 2.89 1.06-.75.05-1.48.05-2.16-.27-.34-.16-.59-.41-.72-.78z"/><path d="m73.22 7.08h-1.01c.16-1 .31-2 .46-3h.09c.15 1 .31 1.99.46 3z"/><path d="m69.59 13.06c.05.24.11.46.16.69 0 .03 0 .07-.02.09-.15.31-.31.61-.47.94-.19-.22-.37-.42-.54-.63-.02-.03-.02-.09 0-.13.1-.28.21-.55.32-.82.02-.04.07-.09.11-.1.15-.02.3-.03.45-.04z"/><path d="m74.86 11.63h1.53c.05.27.11.56.17.85-.79.1-1.55-.23-1.69-.85z"/><path d="m68.44 11.55c-.05.27-.09.52-.15.77-.05.21-.02.41.12.58.02.03.04.08.03.11-.07.19-.14.38-.22.57-.02 0-.03 0-.05 0-.24-.72-.48-1.43-.74-2.19.35.05.67.1.99.15z"/><path d="m67 10.02c-.17-.5-.37-.98-.39-1.53.56.44 1.11.88 1.69 1.33-.46.07-.88.13-1.3.2z"/><path d="m68.87 12.5c.06-.3.11-.59.17-.86h1.52c-.11.65-.91.92-1.69.86z"/><path d="m67.04 7.96c.67.25 1.34.5 2.02.76-.11.23-.21.45-.32.68-.58-.46-1.16-.91-1.74-1.37.01-.02.03-.05.04-.07z"/><path d="m78.4 8.04c-.57.45-1.13.89-1.71 1.34-.11-.22-.21-.44-.32-.67.66-.25 1.33-.5 1.99-.75.01.03.03.05.04.08z"/><path d="m76.93 10.95c0-.19-.02-.36-.03-.55.51.08 1.01.16 1.5.23v.07c-.48.11-.98.15-1.48.24z"/><path d="m67.16 10.61c.49-.08.92-.14 1.36-.21v.55c-.42-.06-.82-.12-1.22-.19-.04 0-.07-.08-.14-.15z"/><path d="m70.02 14.63c.29.38.32.8.2 1.25-.17-.19-.33-.38-.5-.58-.01-.02 0-.07 0-.09.1-.2.19-.4.29-.59z"/></g></svg>