<svg viewBox="0 0 112.13 21.13" xmlns="http://www.w3.org/2000/svg"><path d="m58.65 0h-58.04c-.33 0-.61.3-.61.66v.42c0 .36.28.66.61.66h58.04c.34 0 .61-.3.61-.66v-.42c0-.36-.27-.66-.61-.66" fill="#684bff"/><path d="m9.8 10.34h-.58v1.84h.58c.35 0 .62-.08.81-.24s.28-.38.28-.67-.1-.52-.29-.68-.46-.24-.8-.24z" fill="#684bff"/><path d="m51.44 4.07h-43.61c-4.31 0-7.83 3.76-7.83 8.35s3.52 8.36 7.83 8.36h43.61c4.31 0 7.83-3.76 7.83-8.36s-3.52-8.35-7.83-8.35zm-37.99 10.07c-.65.6-1.68.9-3.09.9h-1.16v3.25h-3.71v-11.01h4.43c1.56 0 2.7.32 3.42.96s1.08 1.66 1.08 3.05c0 1.3-.33 2.25-.97 2.85zm6.1 4.15h-3.77v-11.01h3.77zm9.51-.23c-.4.18-.81.31-1.21.39-.4.09-.81.13-1.21.13-.5 0-.99-.06-1.45-.18-.47-.12-.89-.29-1.26-.51-.91-.56-1.6-1.27-2.07-2.13s-.7-1.84-.7-2.95c0-.82.13-1.58.4-2.29.27-.7.65-1.32 1.16-1.86s1.1-.95 1.78-1.23c.67-.28 1.4-.42 2.19-.42.42 0 .83.05 1.24.14s.8.23 1.19.42v4.08c-.34-.35-.68-.6-1.04-.77s-.72-.26-1.11-.26c-.61 0-1.09.2-1.46.6s-.55.93-.55 1.59.18 1.16.53 1.55.82.58 1.42.58c.36 0 .72-.08 1.09-.24s.77-.42 1.21-.78l-.12 4.14zm7.81.23-2.5-4.6v4.6h-3.64v-11.01h3.64v4.69l2.35-4.69h4.2l-3.12 5.42 3.55 5.59h-4.49zm12.45.73c-3.32 0-6.01-2.87-6.01-6.41s2.69-6.41 6.01-6.41 6.01 2.87 6.01 6.41-2.69 6.41-6.01 6.41z" fill="#684bff"/><path d="m51.39 12.27c.4-.15.71-.38.91-.68s.3-.68.3-1.14c0-.75-.29-1.36-.87-1.83s-1.35-.7-2.31-.7c-1.07 0-1.89.26-2.45.77s-.85 1.26-.87 2.25h2.8c0-.21.04-.36.12-.47s.19-.16.34-.16c.14 0 .25.05.34.15s.13.23.13.38c0 .21-.07.36-.2.47s-.33.16-.59.16h-.13v1.83s.05 0 .08 0h.13c.27 0 .47.07.61.2s.21.32.21.58c0 .22-.06.39-.18.53-.12.13-.28.2-.48.2s-.35-.08-.46-.23-.17-.38-.18-.69h-2.91v.02c0 1.07.33 1.9.98 2.51s1.55.91 2.7.91c1.07 0 1.93-.26 2.56-.79s.95-1.23.95-2.12c0-.57-.13-1.03-.39-1.39s-.64-.6-1.14-.72z" fill="#684bff"/><g fill="#136600"><path d="m106.13 0h-45.09c-.28 0-.51.3-.51.66v.42c0 .36.23.66.51.66h45.08c.28 0 .51-.3.51-.66v-.42c0-.36-.23-.66-.51-.66"/><path d="m80.82 20.78v-16.53h7.1c2.5 0 4.32.48 5.48 1.44s1.73 2.49 1.73 4.58c0 1.95-.52 3.37-1.56 4.27s-2.69 1.35-4.94 1.35h-1.86v4.88h-5.95zm5.97-11.93v2.75h.93c.56 0 1-.12 1.3-.36s.45-.57.45-1.01-.15-.78-.46-1.02-.74-.37-1.29-.37h-.93z"/><path d="m93.84 20.78 5.89-16.52h6.61l5.78 16.52h-6.39l-.53-2.08h-4.48l-.51 2.08h-6.38zm7.88-6h2.47l-.51-1.87c-.25-.95-.42-1.68-.51-2.19s-.15-.99-.17-1.44h-.1c-.02.45-.08.93-.17 1.44s-.26 1.24-.51 2.19l-.51 1.87z"/><path d="m62.39 21.11c.74-1.08 1.29-2.2 1.71-3.38.52-1.44.84-2.92.99-4.45.02-.16.08-.2.22-.23.85-.15 1.72-.18 2.58-.16.17 0 .24-.05.31-.2.39-.8.8-1.6 1.2-2.4.03-.05.05-.11.09-.19-.26-.11-.51-.21-.76-.32-.6-.25-1.2-.51-1.72-.9-.18-.13-.34-.28-.5-.44-.25-.26-.39-.56-.37-.93.01-.28 0-.56 0-.86h-1.05c.02-.05.02-.08.04-.11.94-1.21 2.1-2.08 3.65-2.31.59-.09 1.21-.06 1.82-.02 1.5.1 2.96.44 4.35 1.02 1 .41 1.93.94 2.79 1.6.05.04.1.09.18.15-.86.27-1.7.52-2.58.79.64.45 1.25.88 1.88 1.32-.43.15-.83.28-1.23.41.64 3.86 1.29 7.7 1.94 11.59-.32-.16-.59-.29-.87-.43-.37-.18-.74-.37-1.11-.56-.11-.06-.18-.05-.28.03-.37.29-.75.56-1.12.85-.12.1-.21.1-.35.03-.59-.3-1.18-.59-1.77-.89-.12-.06-.21-.06-.32 0-.59.3-1.18.59-1.77.89-.14.07-.25.07-.38 0-.59-.3-1.18-.59-1.77-.89-.11-.06-.2-.06-.31 0-.6.3-1.2.6-1.79.9-.12.06-.21.07-.33-.02-.36-.29-.74-.55-1.11-.84-.11-.09-.2-.1-.33-.03-.6.31-1.21.61-1.81.91-.02.01-.05.02-.13.05zm8.49-13.75c-.55-.24-1.04-.46-1.54-.66-.29-.12-.61-.01-.8.23-.18.24-.19.58-.02.83s.5.38.78.27c.51-.2 1.01-.43 1.57-.67z"/><path d="m62.25 13.08c-1.03-.68-1.55-2.04-1.16-3.11.11-.31.3-.61.51-.86.88-1.05 2.48-1.43 3.46-1.37.06.23.1.47.19.69.22.56.63.98 1.12 1.3.46.3.95.55 1.43.82.07.04.15.07.24.11-.19.38-.37.75-.57 1.11-.02.04-.13.06-.2.06-1.16.02-2.31.15-3.43.5-.56.17-1.1.4-1.59.75z"/></g></svg>