<svg viewBox="0 0 106.07 21.15" xmlns="http://www.w3.org/2000/svg"><path d="m79.11 19.38 1.81-4.42c.81.57 1.54.98 2.17 1.24s1.23.39 1.78.39c.39 0 .69-.07.92-.22.22-.15.33-.35.33-.6 0-.44-.56-.77-1.67-1-.36-.08-.64-.14-.84-.18-1.18-.29-2.08-.8-2.7-1.53s-.94-1.65-.94-2.74c0-1.7.61-3.07 1.82-4.14 1.21-1.06 2.81-1.59 4.77-1.59.91 0 1.8.12 2.67.36.88.24 1.76.6 2.65 1.08l-1.72 4.13c-.55-.4-1.09-.71-1.64-.92s-1.08-.32-1.6-.32c-.4 0-.7.07-.92.2s-.32.32-.32.55c0 .45.79.84 2.36 1.17.25.06.45.1.58.13 1.08.24 1.94.74 2.56 1.5s.94 1.67.94 2.74c0 1.75-.63 3.17-1.89 4.28s-2.9 1.66-4.92 1.66c-1.03 0-2.07-.15-3.1-.44s-2.07-.74-3.1-1.33z" fill="#0057b0"/><path d="m105.63 11.21c-.52-.5-1.04-.87-1.58-1.11s-1.11-.37-1.7-.37c-.93 0-1.67.29-2.24.86-.56.57-.85 1.33-.85 2.28s.27 1.67.81 2.22 1.26.83 2.17.83c.55 0 1.1-.12 1.66-.35s1.18-.61 1.85-1.12l-.18 5.94c-.62.25-1.24.44-1.85.57-.62.13-1.24.19-1.85.19-.77 0-1.51-.09-2.22-.26s-1.35-.42-1.93-.73c-1.39-.8-2.45-1.82-3.16-3.05s-1.07-2.64-1.07-4.23c0-1.18.2-2.27.61-3.28s1-1.89 1.77-2.66c.78-.78 1.69-1.36 2.72-1.76s2.15-.6 3.35-.6c.64 0 1.27.07 1.89.2s1.23.33 1.82.6v5.84z" fill="#0057b0"/><g fill="#008d61"><path d="m58.74 0h-58.13c-.33 0-.61.3-.61.66v.42c0 .36.28.66.61.66h58.13c.34 0 .61-.3.61-.66v-.42c0-.36-.28-.66-.61-.66"/><path d="m9.81 10.35h-.58v1.84h.58c.35 0 .62-.08.81-.24s.28-.38.28-.67-.1-.52-.29-.68-.46-.25-.8-.25z"/><path d="m51.51 4.07h-43.67c-4.31 0-7.84 3.77-7.84 8.37s3.53 8.37 7.84 8.37h43.67c4.31 0 7.84-3.77 7.84-8.37s-3.53-8.37-7.84-8.37zm-38.04 10.09c-.65.6-1.68.9-3.09.9h-1.16v3.25h-3.72v-11.02h4.44c1.56 0 2.7.32 3.43.96.72.64 1.08 1.66 1.08 3.06 0 1.3-.33 2.25-.98 2.85zm6.11 4.15h-3.78v-11.02h3.78v11.03zm9.52-.23c-.41.18-.81.31-1.21.4-.41.09-.81.13-1.21.13-.5 0-.99-.06-1.45-.18-.47-.12-.89-.29-1.26-.51-.91-.56-1.6-1.27-2.07-2.13s-.7-1.84-.7-2.96c0-.82.13-1.59.4-2.29s.65-1.32 1.16-1.86 1.11-.95 1.78-1.23c.68-.28 1.41-.42 2.19-.42.42 0 .83.05 1.24.14s.8.23 1.19.42v4.08c-.34-.35-.68-.61-1.04-.78s-.73-.26-1.12-.26c-.61 0-1.1.2-1.46.6-.37.4-.55.93-.55 1.59s.18 1.16.53 1.55.83.58 1.42.58c.36 0 .72-.08 1.09-.25.37-.16.77-.42 1.21-.78l-.12 4.15zm7.83.23-2.51-4.61v4.61h-3.64v-11.02h3.64v4.7l2.36-4.7h4.21l-3.12 5.43 3.56 5.6h-4.5zm12.47.73c-3.32 0-6.02-2.88-6.02-6.42s2.7-6.42 6.02-6.42 6.02 2.88 6.02 6.42-2.69 6.42-6.02 6.42z"/><path d="m51.47 12.29c.41-.15.71-.38.91-.68s.3-.68.3-1.14c0-.76-.29-1.37-.87-1.83-.58-.47-1.35-.7-2.31-.7-1.08 0-1.89.26-2.46.77-.56.51-.85 1.26-.87 2.25h2.8c0-.21.04-.36.12-.47s.19-.16.34-.16c.14 0 .25.05.34.15s.13.23.13.38c0 .21-.07.36-.2.47s-.33.16-.59.16h-.13v1.83s.05 0 .08 0h.13c.27 0 .47.07.61.2s.21.32.21.58c0 .22-.06.39-.18.53-.12.13-.28.2-.48.2s-.36-.08-.46-.23c-.11-.15-.17-.38-.18-.69h-2.92v.02c0 1.07.33 1.91.98 2.51.65.61 1.55.91 2.7.91 1.07 0 1.93-.26 2.56-.79s.95-1.24.95-2.12c0-.57-.13-1.03-.39-1.4-.26-.36-.64-.6-1.14-.72z"/></g><path d="m105.57.05h-44.44c-.28 0-.51.3-.51.66v.42c0 .36.23.66.51.66h44.44c.28 0 .5-.3.5-.66v-.42c0-.36-.23-.66-.5-.66" fill="#0057b0"/><path d="m65.11 9.69c-.38.2-.78.36-1.14.6-.42.27-.8.59-1.2.9-.26.2-.57.12-.63-.18-.01-.07-.01-.15.02-.21.68-1.52 1.71-2.69 3.36-3.19.14-.04.28-.07.48-.13-1.09-.18-2.1-.09-3.09.17-.06.02-.11.03-.17.05-.17.04-.3-.02-.4-.16-.09-.14-.1-.3.01-.43 1.07-1.15 2.27-2.02 3.94-1.93.65.04 1.24.28 1.82.54.05.02.1.05.16.07h.05c-.05-.64-.26-1.23-.56-1.79-.11-.2-.25-.38-.33-.59-.04-.11-.03-.3.04-.39.06-.09.25-.16.35-.13.94.3 1.78.75 2.28 1.66.27.48.35 1.01.34 1.56 0 .05 0 .1.01.15.3-.12.58-.25.88-.35 1.84-.58 3.51.01 4.63 1.62.44.64.74 1.34.99 2.08.08.24.03.42-.14.52-.2.11-.36.04-.51-.1-.97-.92-2.11-1.53-3.43-1.78-.34-.07-.7-.08-1.05-.12 0 .02-.01.04-.02.06.06.04.13.08.19.11.87.46 1.65 1.04 2.17 1.9.75 1.22.78 2.49.24 3.8-.09.23-.2.45-.3.68-.08.18-.17.36-.41.35-.25 0-.32-.18-.4-.37-.45-1.14-.96-2.26-1.65-3.28-.25-.37-.54-.73-.84-1.06.11.56.23 1.12.32 1.68.19 1.19.16 2.39.06 3.59-.13 1.59-.42 3.15-.73 4.71-.07.35-.18.44-.53.44-.64 0-1.28 0-1.92 0-.41 0-.57-.22-.43-.61.45-1.25.67-2.55.92-3.85.17-.88.36-1.77.45-2.66.13-1.31.04-2.61-.4-3.87-.01-.04-.03-.08-.06-.15-.13.09-.26.17-.38.26-.62.5-.95 1.18-1.18 1.92-.32 1.03-.43 2.09-.52 3.15-.01.17-.02.33-.04.5-.02.18-.13.29-.3.33-.17.03-.32-.03-.38-.18-.76-1.77-1.26-3.56-.66-5.49.04-.11.08-.23.12-.34-.01-.02-.03-.04-.04-.06z" fill="#0057b0"/></svg>