<svg viewBox="0 0 110.06 20.78" xmlns="http://www.w3.org/2000/svg"><g fill="#055fa9"><path d="m58.65 0h-58.04c-.33 0-.61.3-.61.66v.42c0 .36.28.66.61.66h58.04c.34 0 .61-.3.61-.66v-.42c0-.36-.27-.66-.61-.66"/><path d="m9.8 10.34h-.58v1.84h.58c.35 0 .62-.08.81-.24s.28-.38.28-.67-.1-.52-.29-.68-.46-.24-.8-.24z"/><path d="m51.44 4.07h-43.61c-4.31 0-7.83 3.76-7.83 8.35s3.52 8.36 7.83 8.36h43.61c4.31 0 7.83-3.76 7.83-8.36s-3.52-8.35-7.83-8.35zm-37.99 10.07c-.65.6-1.68.9-3.09.9h-1.16v3.25h-3.71v-11.01h4.43c1.56 0 2.7.32 3.42.96s1.08 1.66 1.08 3.05c0 1.3-.33 2.25-.97 2.85zm6.1 4.15h-3.77v-11.01h3.77zm9.51-.23c-.4.18-.81.31-1.21.39-.4.09-.81.13-1.21.13-.5 0-.99-.06-1.45-.18-.47-.12-.89-.29-1.26-.51-.91-.56-1.6-1.27-2.07-2.13s-.7-1.84-.7-2.95c0-.82.13-1.58.4-2.29.27-.7.65-1.32 1.16-1.86s1.1-.95 1.78-1.23c.67-.28 1.4-.42 2.19-.42.42 0 .83.05 1.24.14s.8.23 1.19.42v4.08c-.34-.35-.68-.6-1.04-.77s-.72-.26-1.11-.26c-.61 0-1.09.2-1.46.6s-.55.93-.55 1.59.18 1.16.53 1.55.82.58 1.42.58c.36 0 .72-.08 1.09-.24s.77-.42 1.21-.78l-.12 4.14zm7.81.23-2.5-4.6v4.6h-3.64v-11.01h3.64v4.69l2.35-4.69h4.2l-3.12 5.42 3.55 5.59h-4.49zm12.45.73c-3.32 0-6.01-2.87-6.01-6.41s2.69-6.41 6.01-6.41 6.01 2.87 6.01 6.41-2.69 6.41-6.01 6.41z"/><path d="m51.39 12.27c.4-.15.71-.38.91-.68s.3-.68.3-1.14c0-.75-.29-1.36-.87-1.83s-1.35-.7-2.31-.7c-1.07 0-1.89.26-2.45.77s-.85 1.26-.87 2.25h2.8c0-.21.04-.36.12-.47s.19-.16.34-.16c.14 0 .25.05.34.15s.13.23.13.38c0 .21-.07.36-.2.47s-.33.16-.59.16h-.13v1.83s.05 0 .08 0h.13c.27 0 .47.07.61.2s.21.32.21.58c0 .22-.06.39-.18.53-.12.13-.28.2-.48.2s-.35-.08-.46-.23-.17-.38-.18-.69h-2.91v.02c0 1.07.33 1.9.98 2.51s1.55.91 2.7.91c1.07 0 1.93-.26 2.56-.79s.95-1.23.95-2.12c0-.57-.13-1.03-.39-1.39s-.64-.6-1.14-.72z"/></g><g fill="#ff530f"><path d="m109.06 0h-47.98c-.3 0-.55.3-.55.66v.42c0 .36.25.66.55.66h47.98c.3 0 .54-.3.54-.66v-.42c0-.36-.24-.66-.54-.66"/><path d="m82.95 20.78v-11.12h-3.31v-5.41h12.55v5.41h-3.31v11.12h-5.94z"/><path d="m101.37 17.03c-.16-.34-.28-.61-.36-.82s-.14-.39-.17-.56c-.03.16-.08.33-.16.52s-.21.48-.4.85l-1.87 3.75h-6.8l5.87-8.8-5.18-7.72h6.78l1.22 2.7s.04.08.07.15c.23.51.38.92.46 1.22.05-.2.12-.4.2-.6.08-.21.18-.46.31-.76l1.25-2.7h6.75l-5.16 7.72 5.87 8.8h-6.8l-1.9-3.75z"/><path d="m71.32 13.74c-.52 0-1.04 0-1.55 0-.06 0-.12 0-.18.02-.2.04-.35.21-.37.41-.02.3.19.53.5.53h2.13.08c-.16-.3-.32-.58-.47-.86-.04-.07-.08-.09-.16-.09z"/><path d="m69.53 8.48c.25-.04.4-.23.41-.51 0-.44 0-.87 0-1.31 0-.02 0-.05-.01-.08h-.94v1.46c0 .28.27.47.54.43z"/><path d="m69.91 4.07c-4.61 0-8.36 3.74-8.36 8.36s3.74 8.36 8.36 8.36 8.36-3.74 8.36-8.36-3.74-8.36-8.36-8.36zm5.51 12.86v.45c-.06.14-.18.18-.33.18-.91 0-1.81-.02-2.72 0-.67.01-1.32-.07-1.96-.28-.24-.08-.47-.15-.73-.24v.25c0 .17-.1.26-.27.27-.47 0-.94 0-1.41 0-.42 0-.71-.32-.71-.77 0-.44 0-.88.01-1.33-.28.16-.57.33-.88.51.09.04.17.07.24.11.09.04.15.12.15.22s-.05.18-.15.22c-.14.06-.27.13-.41.18-.08.03-.1.08-.09.16.02.14.03.28.05.42.01.11-.02.2-.12.26s-.2.03-.29-.04c-.14-.1-.28-.2-.42-.31-.13.1-.27.2-.4.3-.1.07-.19.12-.31.05-.11-.07-.13-.17-.12-.29.02-.14.03-.28.05-.42 0-.06-.01-.09-.07-.12-.14-.06-.27-.12-.41-.18-.1-.04-.17-.12-.17-.23s.06-.19.16-.23c.14-.06.28-.12.42-.19.03-.02.06-.07.06-.11 0-.15-.03-.3-.04-.46-.01-.11.01-.2.11-.26s.2-.03.29.03c.14.1.28.2.42.31.15-.11.29-.21.44-.32.14-.1.3-.07.36.07.02.04.03.09.03.14 0 .08-.01.16-.02.26.04-.02.07-.03.1-.05.36-.21.72-.41 1.07-.62.04-.02.08-.07.09-.11.1-.49.2-.98.28-1.47.08-.45.03-.9-.08-1.34-.24-.98-.48-1.96-.71-2.94-.06-.25-.11-.5-.12-.75-.03-.66.42-1.31 1.05-1.55.19-.07.4-.1.62-.16 0-.05 0-.12 0-.19 0-.16.1-.26.26-.26h1.37c.17 0 .26.1.27.27v.18c.2.04.39.07.57.13.7.25 1.15.92 1.09 1.66-.07.82-.16 1.63-.24 2.44-.08.75-.14 1.49-.08 2.24.02.24.07.47.2.69.19.3.35.62.51.94.08.16.23.23.37.31.52.32 1.1.51 1.7.6.47.08.76.33.86.79 0 .01 0 .03.01.04v.51z"/></g></svg>