<svg viewBox="0 0 113.01 20.78" xmlns="http://www.w3.org/2000/svg"><g fill="#374cd7"><path d="m58.65 0h-58.04c-.33 0-.61.3-.61.66v.42c0 .36.28.66.61.66h58.04c.34 0 .61-.3.61-.66v-.42c0-.36-.27-.66-.61-.66"/><path d="m9.8 10.34h-.58v1.84h.58c.35 0 .62-.08.81-.24s.28-.38.28-.67-.1-.52-.29-.68-.46-.24-.8-.24z"/><path d="m51.44 4.07h-43.61c-4.31 0-7.83 3.76-7.83 8.35s3.52 8.36 7.83 8.36h43.61c4.31 0 7.83-3.76 7.83-8.36s-3.52-8.35-7.83-8.35zm-37.99 10.07c-.65.6-1.68.9-3.09.9h-1.16v3.25h-3.71v-11.01h4.43c1.56 0 2.7.32 3.42.96s1.08 1.66 1.08 3.05c0 1.3-.33 2.25-.97 2.85zm6.1 4.15h-3.77v-11.01h3.77zm9.51-.23c-.4.18-.81.31-1.21.39-.4.09-.81.13-1.21.13-.5 0-.99-.06-1.45-.18-.47-.12-.89-.29-1.26-.51-.91-.56-1.6-1.27-2.07-2.13s-.7-1.84-.7-2.95c0-.82.13-1.58.4-2.29.27-.7.65-1.32 1.16-1.86s1.1-.95 1.78-1.23c.67-.28 1.4-.42 2.19-.42.42 0 .83.05 1.24.14s.8.23 1.19.42v4.08c-.34-.35-.68-.6-1.04-.77s-.72-.26-1.11-.26c-.61 0-1.09.2-1.46.6s-.55.93-.55 1.59.18 1.16.53 1.55.82.58 1.42.58c.36 0 .72-.08 1.09-.24s.77-.42 1.21-.78l-.12 4.14zm7.81.23-2.5-4.6v4.6h-3.64v-11.01h3.64v4.69l2.35-4.69h4.2l-3.12 5.42 3.55 5.59h-4.49zm12.45.73c-3.32 0-6.01-2.87-6.01-6.41s2.69-6.41 6.01-6.41 6.01 2.87 6.01 6.41-2.69 6.41-6.01 6.41z"/><path d="m51.39 12.27c.4-.15.71-.38.91-.68s.3-.68.3-1.14c0-.75-.29-1.36-.87-1.83s-1.35-.7-2.31-.7c-1.07 0-1.89.26-2.45.77s-.85 1.26-.87 2.25h2.8c0-.21.04-.36.12-.47s.19-.16.34-.16c.14 0 .25.05.34.15s.13.23.13.38c0 .21-.07.36-.2.47s-.33.16-.59.16h-.13v1.83s.05 0 .08 0h.13c.27 0 .47.07.61.2s.21.32.21.58c0 .22-.06.39-.18.53-.12.13-.28.2-.48.2s-.35-.08-.46-.23-.17-.38-.18-.69h-2.91v.02c0 1.07.33 1.9.98 2.51s1.55.91 2.7.91c1.07 0 1.93-.26 2.56-.79s.95-1.23.95-2.12c0-.57-.13-1.03-.39-1.39s-.64-.6-1.14-.72z"/></g><path d="m107.33 0h-46.27c-.29 0-.53.3-.53.66v.42c0 .36.24.66.53.66h46.27c.29 0 .53-.3.53-.66v-.42c0-.36-.24-.66-.53-.66" fill="#00753f"/><path d="m84.77 20.78-6.31-16.52h6.43l1.75 5.98c.26.87.45 1.61.57 2.21s.21 1.17.24 1.69h.11c.08-.56.18-1.14.32-1.76s.32-1.29.54-2.01l1.85-6.12h6.31l-6.29 16.52h-5.53z" fill="#00753f"/><path d="m94.72 20.78 5.89-16.52h6.61l5.78 16.52h-6.39l-.53-2.08h-4.48l-.51 2.08h-6.38zm7.88-6h2.47l-.51-1.87c-.25-.95-.42-1.68-.51-2.19s-.15-.99-.17-1.44h-.1c-.02.45-.08.93-.17 1.44s-.26 1.24-.51 2.19l-.51 1.87z" fill="#00753f"/><path d="m74.27 12.46c2.43-.14 3.83-2.01 4.18-3.53-.01-.41-.01-.82-.05-1.23-.02-.28-.16-.37-.45-.38-.15 0-.3-.01-.45-.04-.34-.07-.5-.29-.46-.64.02-.17.06-.33.11-.49.06-.22 0-.39-.2-.48-.25-.11-.5-.23-.76-.29-1.74-.4-3.64.38-4.62 1.89-.41.63-.65 1.33-.86 2.04-.15.48-.28.97-.44 1.46 0-.01 0-.02 0-.03-.14-.93-.22-1.87-.39-2.79-.45-2.39-2.49-3.54-4.05-3.69-.41.07-.82.12-1.22.21-.28.06-.35.21-.32.5.02.15.03.3.02.45-.03.35-.22.53-.58.54-.17 0-.33-.02-.5-.04-.22-.03-.38.05-.45.27-.08.26-.16.52-.19.79-.17 1.78.85 3.56 2.48 4.34.68.32 1.4.47 2.14.59.47.08.93.14 1.4.23-.02 0-.04 0-.06 0-.94-.03-1.88-.12-2.82-.12-2.44 0-3.93 1.8-4.36 3.31 0 .41-.03.82-.02 1.24 0 .28.15.38.43.4.15.01.3.03.45.07.34.09.48.32.43.67-.03.16-.08.33-.13.48-.07.21-.02.39.18.49.24.12.48.26.74.33 1.72.49 3.66-.19 4.71-1.65.44-.61.72-1.29.97-1.99.25-.69.47-1.39.78-2.05v.31c0 .94-.08 1.88-.05 2.82.07 2.43 1.9 3.88 3.42 4.28.41 0 .82 0 1.24-.01.28-.02.38-.15.39-.44 0-.15.02-.3.06-.45.08-.34.31-.49.66-.44.16.02.33.07.49.12.22.07.39 0 .48-.19.12-.24.24-.49.31-.75.45-1.73-.28-3.65-1.77-4.67-.62-.43-1.31-.68-2.02-.92-.45-.15-.9-.29-1.35-.44.84 0 1.67.02 2.51-.02zm-4.21.45c-.51 0-.92-.41-.92-.92s.41-.92.92-.92.92.41.92.92-.41.92-.92.92z" fill="#00753f"/></svg>