<svg viewBox="0 0 109.62 20.78" xmlns="http://www.w3.org/2000/svg"><path d="m58.65 0h-58.04c-.33 0-.61.3-.61.66v.42c0 .36.28.66.61.66h58.04c.34 0 .61-.3.61-.66v-.42c0-.36-.27-.66-.61-.66" fill="#1075da"/><path d="m9.8 10.34h-.58v1.84h.58c.35 0 .62-.08.81-.24s.28-.38.28-.67-.1-.52-.29-.68-.46-.24-.8-.24z" fill="#1075da"/><path d="m51.44 4.07h-43.61c-4.31 0-7.83 3.76-7.83 8.35s3.52 8.36 7.83 8.36h43.61c4.31 0 7.83-3.76 7.83-8.36s-3.52-8.35-7.83-8.35zm-37.99 10.07c-.65.6-1.68.9-3.09.9h-1.16v3.25h-3.71v-11.01h4.43c1.56 0 2.7.32 3.42.96s1.08 1.66 1.08 3.05c0 1.3-.33 2.25-.97 2.85zm6.1 4.15h-3.77v-11.01h3.77zm9.51-.23c-.4.18-.81.31-1.21.39-.4.09-.81.13-1.21.13-.5 0-.99-.06-1.45-.18-.47-.12-.89-.29-1.26-.51-.91-.56-1.6-1.27-2.07-2.13s-.7-1.84-.7-2.95c0-.82.13-1.58.4-2.29.27-.7.65-1.32 1.16-1.86s1.1-.95 1.78-1.23c.67-.28 1.4-.42 2.19-.42.42 0 .83.05 1.24.14s.8.23 1.19.42v4.08c-.34-.35-.68-.6-1.04-.77s-.72-.26-1.11-.26c-.61 0-1.09.2-1.46.6s-.55.93-.55 1.59.18 1.16.53 1.55.82.58 1.42.58c.36 0 .72-.08 1.09-.24s.77-.42 1.21-.78l-.12 4.14zm7.81.23-2.5-4.6v4.6h-3.64v-11.01h3.64v4.69l2.35-4.69h4.2l-3.12 5.42 3.55 5.59h-4.49zm12.45.73c-3.32 0-6.01-2.87-6.01-6.41s2.69-6.41 6.01-6.41 6.01 2.87 6.01 6.41-2.69 6.41-6.01 6.41z" fill="#1075da"/><path d="m51.39 12.27c.4-.15.71-.38.91-.68s.3-.68.3-1.14c0-.75-.29-1.36-.87-1.83s-1.35-.7-2.31-.7c-1.07 0-1.89.26-2.45.77s-.85 1.26-.87 2.25h2.8c0-.21.04-.36.12-.47s.19-.16.34-.16c.14 0 .25.05.34.15s.13.23.13.38c0 .21-.07.36-.2.47s-.33.16-.59.16h-.13v1.83s.05 0 .08 0h.13c.27 0 .47.07.61.2s.21.32.21.58c0 .22-.06.39-.18.53-.12.13-.28.2-.48.2s-.35-.08-.46-.23-.17-.38-.18-.69h-2.91v.02c0 1.07.33 1.9.98 2.51s1.55.91 2.7.91c1.07 0 1.93-.26 2.56-.79s.95-1.23.95-2.12c0-.57-.13-1.03-.39-1.39s-.64-.6-1.14-.72z" fill="#1075da"/><g fill="#7f43ff"><path d="m109.08 0h-48c-.3 0-.55.3-.55.66v.42c0 .36.25.66.55.66h48c.3 0 .55-.3.55-.66v-.42c0-.36-.24-.66-.55-.66"/><path d="m84.77 20.78-6.31-16.52h6.43l1.75 5.98c.26.87.45 1.61.57 2.21s.21 1.17.24 1.69h.11c.08-.56.18-1.14.32-1.76s.32-1.29.54-2.01l1.85-6.12h6.31l-6.29 16.52h-5.53z"/><path d="m100.38 20.78v-11.12h-3.31v-5.41h12.55v5.41h-3.31v11.12h-5.94z"/><path d="m65.74 19.92c0-.14 0-.28 0-.42 0-.22-.06-.27-.28-.3-.57-.08-1.14-.12-1.7-.26-.6-.14-1.18-.36-1.77-.56-.26-.09-.26-.23-.08-.44.43-.49.85-.99 1.27-1.49.17-.21.12-.34-.13-.43-.35-.12-.69-.23-1.04-.36-.27-.1-.29-.23-.1-.44.42-.48.83-.97 1.24-1.46.21-.25.16-.37-.15-.47-.33-.11-.67-.23-1-.35-.27-.1-.29-.23-.1-.44 1.15-1.23 2.12-2.59 2.86-4.1.6-1.23 1.02-2.51 1.26-3.86.05-.26.08-.28.43-.28.28 0 .3.02.35.27.46 2.61 1.57 4.91 3.24 6.95.29.35.6.68.9 1.02.19.21.17.34-.1.44-.34.13-.69.25-1.04.36-.24.08-.3.22-.13.42.42.5.84 1 1.27 1.49.2.23.18.35-.11.45-.34.13-.68.24-1.02.36-.25.08-.31.22-.13.43.41.5.83.99 1.25 1.48.2.23.18.34-.09.46-1.05.46-2.15.69-3.29.79-.07 0-.13 0-.2.01-.16.01-.24.09-.24.26v.88c0 .22-.06.28-.29.28-.27 0-.55 0-.82 0-.18 0-.27-.08-.26-.27 0-.15 0-.29 0-.44z"/><path d="m72.23 15.65c.12-.39-.09-.72-.44-1.01-.16-.13-.29-.3-.42-.45-.16-.18-.13-.3.09-.4.37-.18.74-.36 1.11-.54.3-.14.31-.24.08-.49-.63-.68-1.27-1.35-1.89-2.04-.24-.27-.44-.59-.65-.88-.08-.11-.08-.21 0-.32 1.12-1.53 1.96-3.2 2.46-5.03.05-.17.14-.24.32-.23.25 0 .49.01.74 0 .19 0 .29.07.34.26.37 1.37.93 2.65 1.67 3.85.6.99 1.31 1.9 2.1 2.74.25.27.23.38-.12.51-.32.12-.64.23-.96.33-.29.09-.33.17-.14.4.41.5.83.99 1.25 1.48.21.24.19.36-.1.49-.97.42-1.98.65-3.03.76-.26.03-.52.05-.78.06-.19.01-.27.11-.26.3v.84c0 .18-.07.26-.25.26-.29 0-.59 0-.88 0-.17 0-.25-.08-.24-.24 0-.18 0-.36 0-.62z"/></g></svg>