<svg viewBox="0 0 115.08 20.81" xmlns="http://www.w3.org/2000/svg"><path d="m87.74 12.74c-.02.52-.14 1.26-.36 2.23-.04.16-.06.28-.09.38l-1.19 5.38h-4.95l-4.61-15.77h5.69l1.24 6.95c.11.61.19 1.17.25 1.68s.09.98.11 1.43h.13c.01-.62.13-1.45.33-2.47.01-.09.03-.17.04-.23l1.5-7.36h4l1.5 7.37s.02.12.04.22c.21 1.03.32 1.85.33 2.47h.13c.01-.45.05-.92.11-1.43s.14-1.06.25-1.68l1.24-6.95h5.69l-4.61 15.77h-4.95l-1.19-5.38c-.02-.09-.05-.22-.09-.39-.22-.96-.33-1.7-.36-2.22h-.21z" fill="#006c25"/><path d="m97.62 20.73 5.62-15.77h6.31l5.52 15.77h-6.1l-.51-1.98h-4.28l-.49 1.98h-6.09zm7.52-5.73h2.36l-.48-1.79c-.24-.91-.4-1.6-.48-2.09-.09-.49-.14-.95-.16-1.38h-.1c-.02.43-.08.89-.16 1.38-.09.49-.25 1.19-.48 2.09l-.49 1.79z" fill="#006c25"/><path d="m58.74 0h-58.13c-.33 0-.61.3-.61.66v.42c0 .36.28.66.61.66h58.13c.34 0 .61-.3.61-.66v-.42c0-.36-.28-.66-.61-.66" fill="#00b5a0"/><path d="m9.81 10.35h-.58v1.84h.58c.35 0 .62-.08.81-.24s.28-.38.28-.67-.1-.52-.29-.68-.46-.25-.8-.25z" fill="#00b5a0"/><path d="m51.51 4.07h-43.67c-4.31 0-7.84 3.77-7.84 8.37s3.53 8.37 7.84 8.37h43.67c4.31 0 7.84-3.77 7.84-8.37s-3.53-8.37-7.84-8.37zm-38.04 10.09c-.65.6-1.68.9-3.09.9h-1.16v3.25h-3.72v-11.02h4.44c1.56 0 2.7.32 3.43.96.72.64 1.08 1.66 1.08 3.06 0 1.3-.33 2.25-.98 2.85zm6.11 4.15h-3.78v-11.02h3.78v11.03zm9.52-.23c-.41.18-.81.31-1.21.4-.41.09-.81.13-1.21.13-.5 0-.99-.06-1.45-.18-.47-.12-.89-.29-1.26-.51-.91-.56-1.6-1.27-2.07-2.13s-.7-1.84-.7-2.96c0-.82.13-1.59.4-2.29s.65-1.32 1.16-1.86 1.11-.95 1.78-1.23c.68-.28 1.41-.42 2.19-.42.42 0 .83.05 1.24.14s.8.23 1.19.42v4.08c-.34-.35-.68-.61-1.04-.78s-.73-.26-1.12-.26c-.61 0-1.1.2-1.46.6-.37.4-.55.93-.55 1.59s.18 1.16.53 1.55.83.58 1.42.58c.36 0 .72-.08 1.09-.25.37-.16.77-.42 1.21-.78l-.12 4.15zm7.83.23-2.51-4.61v4.61h-3.64v-11.02h3.64v4.7l2.36-4.7h4.21l-3.12 5.43 3.56 5.6h-4.5zm12.47.73c-3.32 0-6.02-2.88-6.02-6.42s2.7-6.42 6.02-6.42 6.02 2.88 6.02 6.42-2.69 6.42-6.02 6.42z" fill="#00b5a0"/><path d="m51.47 12.29c.41-.15.71-.38.91-.68s.3-.68.3-1.14c0-.76-.29-1.37-.87-1.83-.58-.47-1.35-.7-2.31-.7-1.08 0-1.89.26-2.46.77-.56.51-.85 1.26-.87 2.25h2.8c0-.21.04-.36.12-.47s.19-.16.34-.16c.14 0 .25.05.34.15s.13.23.13.38c0 .21-.07.36-.2.47s-.33.16-.59.16h-.13v1.83s.05 0 .08 0h.13c.27 0 .47.07.61.2s.21.32.21.58c0 .22-.06.39-.18.53-.12.13-.28.2-.48.2s-.36-.08-.46-.23c-.11-.15-.17-.38-.18-.69h-2.92v.02c0 1.07.33 1.91.98 2.51.65.61 1.55.91 2.7.91 1.07 0 1.93-.26 2.56-.79s.95-1.24.95-2.12c0-.57-.13-1.03-.39-1.4-.26-.36-.64-.6-1.14-.72z" fill="#00b5a0"/><g fill="#006c25"><path d="m109.89.05h-48.71c-.3 0-.55.3-.55.66v.42c0 .36.25.66.55.66h48.72c.3 0 .55-.3.55-.66v-.42c0-.36-.25-.66-.55-.66"/><path d="m66.43 20.73c-.27-.13-.36-.34-.36-.64 0-1.43-.31-2.8-.79-4.14-.22-.63-.42-1.26-.63-1.89-.02-.06-.03-.11-.05-.18h.15 2.29c.11 0 .16.03.2.14.25.76.51 1.52.76 2.28.03.08.03.17.03.25v4.2h-1.59z"/><path d="m69 20.73c0-1.39 0-2.78 0-4.16 0-.12.02-.24.06-.35.24-.73.49-1.46.72-2.19.04-.14.11-.17.24-.17h2.42c-.02.08-.04.15-.07.22-.32.99-.67 1.97-.97 2.96s-.44 2.01-.44 3.04c0 .3-.09.51-.36.64h-1.59z"/><path d="m74.19 11.91h.2c.27.02.47.23.47.49s-.21.47-.47.48c-.04 0-.09 0-.13 0-3.83 0-7.65 0-11.48 0-.06 0-.13 0-.19 0-.25-.04-.42-.26-.41-.51s.21-.44.47-.46h.2c-.16-.33-.32-.64-.48-.97h12.3c-.16.32-.31.64-.48.97z"/><path d="m68.51 9.96c-2.02 0-4.03 0-6.05 0-.04 0-.09 0-.13 0-.15 0-.26-.07-.31-.22-.04-.14.01-.25.13-.34.46-.34.95-.62 1.48-.84.89-.37 1.81-.55 2.77-.55h4.21c1.54 0 2.94.45 4.19 1.36.06.04.12.09.15.14.12.18 0 .41-.21.45-.06 0-.12 0-.18 0-2.02 0-4.04 0-6.06 0z"/><path d="m70.95 7.03h-4.86c0-.2-.03-.41 0-.61.04-.23.24-.36.49-.36h1.43c0-.06 0-.11 0-.16 0-.43 0-.86 0-1.28 0-.32.2-.54.49-.54.28 0 .49.22.49.53v1.45h.36 1.07c.31 0 .51.2.52.52v.45z"/></g></svg>