<svg viewBox="0 0 119.03 20.83" xmlns="http://www.w3.org/2000/svg"><path d="m89.85 12.79c-.02.52-.14 1.26-.36 2.23-.04.16-.06.28-.09.38l-1.19 5.38h-4.95l-4.61-15.77h5.69l1.24 6.95c.11.61.19 1.17.25 1.68s.09.98.11 1.43h.13c.01-.62.13-1.45.33-2.47.01-.09.03-.17.04-.23l1.5-7.36h4l1.5 7.37s.02.12.04.22c.21 1.03.32 1.85.33 2.47h.13c.01-.45.05-.92.11-1.43s.14-1.06.25-1.68l1.24-6.95h5.69l-4.61 15.77h-4.95l-1.19-5.38c-.02-.09-.05-.22-.09-.39-.22-.96-.33-1.7-.36-2.22h-.21z" fill="#d00008"/><path d="m107.75 20.78-6.02-15.77h6.14l1.67 5.71c.24.83.43 1.54.54 2.11.12.57.2 1.11.23 1.62h.11c.07-.53.17-1.09.31-1.68.13-.59.3-1.23.51-1.92l1.77-5.84h6.02l-6 15.77z" fill="#d00008"/><g fill="#007cbb"><path d="m58.74 0h-58.13c-.33 0-.61.3-.61.66v.42c0 .36.28.66.61.66h58.13c.34 0 .61-.3.61-.66v-.42c0-.36-.28-.66-.61-.66"/><path d="m9.81 10.35h-.58v1.84h.58c.35 0 .62-.08.81-.24s.28-.38.28-.67-.1-.52-.29-.68-.46-.25-.8-.25z"/><path d="m51.51 4.07h-43.67c-4.31 0-7.84 3.77-7.84 8.37s3.53 8.37 7.84 8.37h43.67c4.31 0 7.84-3.77 7.84-8.37s-3.53-8.37-7.84-8.37zm-38.04 10.09c-.65.6-1.68.9-3.09.9h-1.16v3.25h-3.72v-11.02h4.44c1.56 0 2.7.32 3.43.96.72.64 1.08 1.66 1.08 3.06 0 1.3-.33 2.25-.98 2.85zm6.11 4.15h-3.78v-11.02h3.78v11.03zm9.52-.23c-.41.18-.81.31-1.21.4-.41.09-.81.13-1.21.13-.5 0-.99-.06-1.45-.18-.47-.12-.89-.29-1.26-.51-.91-.56-1.6-1.27-2.07-2.13s-.7-1.84-.7-2.96c0-.82.13-1.59.4-2.29s.65-1.32 1.16-1.86 1.11-.95 1.78-1.23c.68-.28 1.41-.42 2.19-.42.42 0 .83.05 1.24.14s.8.23 1.19.42v4.08c-.34-.35-.68-.61-1.04-.78s-.73-.26-1.12-.26c-.61 0-1.1.2-1.46.6-.37.4-.55.93-.55 1.59s.18 1.16.53 1.55.83.58 1.42.58c.36 0 .72-.08 1.09-.25.37-.16.77-.42 1.21-.78l-.12 4.15zm7.83.23-2.51-4.61v4.61h-3.64v-11.02h3.64v4.7l2.36-4.7h4.21l-3.12 5.43 3.56 5.6h-4.5zm12.47.73c-3.32 0-6.02-2.88-6.02-6.42s2.7-6.42 6.02-6.42 6.02 2.88 6.02 6.42-2.69 6.42-6.02 6.42z"/><path d="m51.47 12.29c.41-.15.71-.38.91-.68s.3-.68.3-1.14c0-.76-.29-1.37-.87-1.83-.58-.47-1.35-.7-2.31-.7-1.08 0-1.89.26-2.46.77-.56.51-.85 1.26-.87 2.25h2.8c0-.21.04-.36.12-.47s.19-.16.34-.16c.14 0 .25.05.34.15s.13.23.13.38c0 .21-.07.36-.2.47s-.33.16-.59.16h-.13v1.83s.05 0 .08 0h.13c.27 0 .47.07.61.2s.21.32.21.58c0 .22-.06.39-.18.53-.12.13-.28.2-.48.2s-.36-.08-.46-.23c-.11-.15-.17-.38-.18-.69h-2.92v.02c0 1.07.33 1.91.98 2.51.65.61 1.55.91 2.7.91 1.07 0 1.93-.26 2.56-.79s.95-1.24.95-2.12c0-.57-.13-1.03-.39-1.4-.26-.36-.64-.6-1.14-.72z"/></g><path d="m118.27.05h-57c-.36 0-.65.3-.65.66v.42c0 .36.29.66.65.66h57c.36 0 .65-.3.65-.66v-.42c0-.36-.29-.66-.65-.66" fill="#d00008"/><path d="m61.22 4.15h1.4s0 0 .01 0l1.11.06c2.4.12 4.78.42 7.08 1.15 1.48.47 2.88 1.11 4.1 2.1 1.36 1.1 2.29 2.47 2.61 4.21.24 1.29.12 2.54-.47 3.73-.07.15-.16.27-.34.28-.19.01-.31-.09-.4-.25-.91-1.54-1.98-2.97-3.22-4.27-1.49-1.56-3.18-2.87-5.12-3.84-.21-.11-.4-.09-.52.06-.11.13-.13.33-.02.46.05.06.12.11.19.15 2.39 1.2 4.36 2.91 6.08 4.94 1.23 1.46 2.29 3.03 3.1 4.76.34.73.64 1.47.79 2.27.03.15.05.31.05.47 0 .22-.15.38-.35.39-.19.01-.37-.12-.39-.32-.1-1.07-.55-2.02-1.01-2.97-.03-.06-.06-.13-.1-.19-.06-.11-.21-.15-.31-.07-.96.71-2.04 1.08-3.22 1.22-.9.11-1.8.1-2.68-.13-1.2-.31-2.16-.98-2.9-1.97-.82-1.09-1.27-2.35-1.61-3.65-.2-.77-.36-1.54-.57-2.3-.53-1.87-1.47-3.51-2.78-4.95-.16-.18-.33-.35-.49-.52-.08-.08-.15-.17-.22-.26-.03-.04-.05-.09-.05-.13v-.12s0-.08 0-.08c0-.12.09-.21.21-.21h.05z" fill="#d00008"/></svg>