<svg xmlns="http://www.w3.org/2000/svg" width="1024" height="1024" viewBox="0 0 1024 1024" role="img" aria-labelledby="title desc">
  <title id="title">LotteryNet Pro logo</title>
  <desc id="desc">Dark green rounded square app mark with amber LotteryNet Pro LN monogram.</desc>
  <defs>
    <linearGradient id="mark-bg" x1="144" y1="96" x2="880" y2="928" gradientUnits="userSpaceOnUse">
      <stop offset="0" stop-color="#17345C"/>
      <stop offset="0.46" stop-color="#118263"/>
      <stop offset="1" stop-color="#0F2019"/>
    </linearGradient>
    <linearGradient id="mark-accent" x1="268" y1="258" x2="742" y2="766" gradientUnits="userSpaceOnUse">
      <stop offset="0" stop-color="#F8C15A"/>
      <stop offset="1" stop-color="#E86F2E"/>
    </linearGradient>
    <filter id="soft-shadow" x="-20%" y="-20%" width="140%" height="140%" color-interpolation-filters="sRGB">
      <feDropShadow dx="0" dy="26" stdDeviation="34" flood-color="#06120E" flood-opacity="0.28"/>
    </filter>
  </defs>
  <rect width="1024" height="1024" fill="none"/>
  <rect x="104" y="104" width="816" height="816" rx="184" fill="url(#mark-bg)" filter="url(#soft-shadow)"/>
  <rect x="160" y="160" width="704" height="704" rx="136" fill="none" stroke="#FFF8E8" stroke-opacity="0.14" stroke-width="8"/>
  <path d="M277 284h108v318h168v96H277V284Z" fill="#FFF8E8"/>
  <path d="M471 284h101l182 241V284h104v414h-92L575 446v252H471V284Z" fill="url(#mark-accent)"/>
  <path d="M286 752h452c18 0 33 15 33 33s-15 33-33 33H286c-18 0-33-15-33-33s15-33 33-33Z" fill="#FFF8E8" opacity="0.9"/>
</svg>
